<svg width="578" height="165" viewBox="0 0 578 165" fill="none" xmlns="http://www.w3.org/2000/svg">
<g filter="url(#filter0_d_3539_725)">
<mask id="path-1-inside-1_3539_725" fill="white">
<path d="M344.108 28.6222C344.135 28.6178 344.162 28.6121 344.188 28.605C350.976 28.1864 354.64 26.1443 354.801 26.0534L353.752 25.0778C353.475 25.2205 353.187 25.3524 352.891 25.4728V25.1068C352.881 24.9474 352.787 24.797 352.628 24.6868C352.469 24.5767 352.258 24.5152 352.038 24.5152C351.819 24.5152 351.608 24.5767 351.449 24.6868C351.29 24.797 351.196 24.9474 351.186 25.1068V26.0929C350.86 26.1956 350.505 26.3009 350.12 26.4036V25.7848C350.126 25.7011 350.108 25.6174 350.067 25.5389C350.027 25.4604 349.965 25.3886 349.885 25.328C349.805 25.2673 349.71 25.2191 349.604 25.1861C349.497 25.1531 349.383 25.1361 349.268 25.1361C349.152 25.1361 349.038 25.1531 348.932 25.1861C348.826 25.2191 348.73 25.2673 348.651 25.328C348.571 25.3886 348.509 25.4604 348.469 25.5389C348.428 25.6174 348.41 25.7011 348.415 25.7848V26.8013C348.117 26.8618 347.806 26.9193 347.484 26.9737V26.3009C347.474 26.1416 347.38 25.9912 347.221 25.881C347.062 25.7709 346.851 25.7094 346.631 25.7094C346.412 25.7094 346.201 25.7709 346.042 25.881C345.883 25.9912 345.789 26.1416 345.779 26.3009V27.2134C345.462 27.2489 345.137 27.2818 344.802 27.3108V26.6169C344.802 26.4528 344.712 26.2954 344.553 26.1794C344.393 26.0633 344.176 25.9981 343.951 25.9981C343.725 25.9981 343.508 26.0633 343.348 26.1794C343.189 26.2954 343.099 26.4528 343.099 26.6169V27.4069H342.945C337.641 27.5741 334.396 24.2984 333.269 22.9198C333.169 22.7553 333.071 22.5867 332.977 22.4129H333.72V21.7033H331.785V20.8646H333.72V20.1549H324.024V18.3788H323.058C324.102 18.0424 325.114 17.6572 326.088 17.2254L329.971 15.5007V13.6942C329.971 13.6942 325.456 15.0741 320.478 14.7633C320.505 14.7599 320.532 14.7546 320.558 14.7475C327.345 14.3289 331.009 12.2868 331.171 12.1959L330.121 11.219C329.846 11.3653 329.558 11.4998 329.261 11.6219V11.2598C329.251 11.1004 329.156 10.9501 328.998 10.8399C328.839 10.7297 328.628 10.6682 328.408 10.6682C328.189 10.6682 327.978 10.7297 327.819 10.8399C327.66 10.9501 327.566 11.1004 327.556 11.2598V12.2459C327.23 12.3486 326.874 12.454 326.49 12.5567V11.9379C326.496 11.8541 326.477 11.7704 326.437 11.6919C326.397 11.6134 326.335 11.5416 326.255 11.481C326.175 11.4204 326.079 11.3721 325.973 11.3391C325.867 11.3062 325.753 11.2892 325.638 11.2892C325.522 11.2892 325.408 11.3062 325.302 11.3391C325.196 11.3721 325.1 11.4204 325.02 11.481C324.941 11.5416 324.879 11.6134 324.838 11.6919C324.798 11.7704 324.78 11.8541 324.785 11.9379V12.9543C324.486 13.0149 324.175 13.0724 323.854 13.1268V12.4448C323.859 12.361 323.841 12.2773 323.801 12.1988C323.76 12.1203 323.698 12.0485 323.618 11.9879C323.539 11.9273 323.443 11.879 323.337 11.846C323.231 11.8131 323.117 11.7961 323.001 11.7961C322.886 11.7961 322.772 11.8131 322.666 11.846C322.559 11.879 322.464 11.9273 322.384 11.9879C322.304 12.0485 322.242 12.1203 322.202 12.1988C322.161 12.2773 322.143 12.361 322.149 12.4448V13.3664C321.832 13.4033 321.507 13.4362 321.172 13.4651V12.7713C321.172 12.6072 321.082 12.4498 320.923 12.3337C320.763 12.2177 320.546 12.1525 320.32 12.1525C320.095 12.1525 319.878 12.2177 319.718 12.3337C319.558 12.4498 319.469 12.6072 319.469 12.7713V13.5613H319.315C314.016 13.7272 310.773 10.4619 309.642 9.08473C309.541 8.91751 309.441 8.74768 309.347 8.57256H310.09V7.8629H308.155V7.02421H310.09V6.31455H306.123V5.1862H302.017V2.83338H300.104V0.718881H295.275V3.28894H298.591V1.62077H296.511V2.08554H297.951V2.82417H295.913V1.18234H299.464V3.65101H294.657V0.718881H289.498V2.23827H289.12V0.463455H294.639V0H282.796V0.463455H288.482V2.23432H287.918V0.718881H282.76V3.65101H277.951V1.18234H281.502V2.82417H279.465V2.08554H280.904V1.62077H278.828V3.28894H282.144V0.718881H277.324V2.83338H275.401V5.18225H271.293V6.31059H267.37V7.02026H269.17V7.85895H267.378V8.56861H268.121C268.024 8.74372 267.927 8.91489 267.825 9.08078C266.694 10.4632 263.451 13.7298 258.151 13.5573H257.999V12.7673C257.999 12.6032 257.909 12.4458 257.749 12.3298C257.59 12.2137 257.373 12.1485 257.147 12.1485C256.921 12.1485 256.705 12.2137 256.545 12.3298C256.385 12.4458 256.295 12.6032 256.295 12.7673V13.4612C255.96 13.4322 255.636 13.3993 255.319 13.3624V12.4448C255.324 12.361 255.306 12.2773 255.266 12.1988C255.225 12.1203 255.163 12.0485 255.083 11.9879C255.004 11.9273 254.908 11.879 254.802 11.846C254.696 11.8131 254.582 11.7961 254.466 11.7961C254.351 11.7961 254.237 11.8131 254.131 11.846C254.025 11.879 253.929 11.9273 253.849 11.9879C253.769 12.0485 253.707 12.1203 253.667 12.1988C253.627 12.2773 253.608 12.361 253.614 12.4448V13.1176C253.291 13.064 252.98 13.0065 252.681 12.9451V11.9286C252.681 11.7645 252.591 11.6071 252.431 11.4911C252.271 11.375 252.055 11.3098 251.829 11.3098C251.603 11.3098 251.386 11.375 251.227 11.4911C251.067 11.6071 250.977 11.7645 250.977 11.9286V12.5475C250.591 12.4448 250.236 12.3394 249.912 12.2367V11.2598C249.902 11.1004 249.807 10.9501 249.649 10.8399C249.49 10.7297 249.279 10.6682 249.059 10.6682C248.84 10.6682 248.629 10.7297 248.47 10.8399C248.311 10.9501 248.217 11.1004 248.207 11.2598V11.6258C247.911 11.5057 247.624 11.3738 247.348 11.2308L246.297 12.2065C246.456 12.2973 250.12 14.3394 256.91 14.7581C256.936 14.7652 256.962 14.7705 256.989 14.7739C252.012 15.0846 247.496 13.7048 247.496 13.7048V15.5112L251.38 17.236C252.354 17.6677 253.366 18.053 254.409 18.3893H253.587V20.1826H243.892V20.8922H245.826V21.7309H243.883V22.4406H244.624C244.53 22.6144 244.432 22.7829 244.333 22.9475C243.206 24.326 239.96 27.6018 234.657 27.4346H234.504V26.6446C234.494 26.4852 234.4 26.3348 234.241 26.2247C234.083 26.1145 233.871 26.053 233.652 26.053C233.432 26.053 233.221 26.1145 233.062 26.2247C232.904 26.3348 232.809 26.4852 232.799 26.6446V27.3226C232.464 27.2937 232.14 27.2608 231.823 27.2252V26.3128C231.813 26.1534 231.718 26.003 231.56 25.8929C231.401 25.7827 231.19 25.7212 230.97 25.7212C230.751 25.7212 230.54 25.7827 230.381 25.8929C230.222 26.003 230.128 26.1534 230.118 26.3128V26.9856C229.795 26.932 229.485 26.8746 229.186 26.8131V25.7967C229.192 25.7129 229.173 25.6293 229.133 25.5507C229.093 25.4722 229.031 25.4005 228.951 25.3398C228.871 25.2792 228.775 25.2309 228.669 25.198C228.563 25.165 228.449 25.148 228.334 25.148C228.218 25.148 228.104 25.165 227.998 25.198C227.892 25.2309 227.796 25.2792 227.716 25.3398C227.637 25.4005 227.575 25.4722 227.534 25.5507C227.494 25.6293 227.476 25.7129 227.481 25.7967V26.4155C227.097 26.3128 226.742 26.2075 226.416 26.1048V25.1186C226.416 24.9545 226.326 24.7971 226.166 24.681C226.007 24.565 225.79 24.4998 225.564 24.4998C225.338 24.4998 225.122 24.565 224.962 24.681C224.802 24.7971 224.712 24.9545 224.712 25.1186V25.4794C224.416 25.3587 224.128 25.2269 223.85 25.0844L222.801 26.06C222.962 26.1508 226.626 28.1929 233.414 28.6116C233.44 28.6185 233.466 28.6242 233.493 28.6287C228.516 28.9381 224.002 27.5583 224.002 27.5583V29.3647L227.883 31.0895C232.033 32.9312 236.801 33.9057 241.664 33.9058H237.933V34.6141H239.603V55.48H238.964V56.8151H238.041V59.8842H245.637V56.8151H244.717V55.4708H244.077V36.3639H263.09V55.5867H262.451V56.931H261.53V59.9987H269.126V56.931H268.204V55.5867H267.566V31.4924H268.329V32.4575H272.341V28.9447H275.149V30.3246H273.533V29.7979H274.029V30.0046H274.669V29.3345H272.893V30.792H275.792V29.8703H301.68V30.792H304.58V29.3318H302.804V30.002H303.442V29.7953H303.94V30.3219H302.324V28.9447H305.129V32.4575H309.142V31.4937H309.905V55.588H309.265V56.9323H308.345V60H315.941V56.9323H315.013V55.588H314.373V36.3652H333.53V55.4761H332.89V56.8151H331.97V59.8842H339.566V56.8151H338.643V55.4708H338.005V34.6089H339.674V33.9058H335.943C340.803 33.9041 345.568 32.9292 349.715 31.0882L353.598 29.3634V27.5517C353.598 27.5517 349.079 28.9316 344.108 28.6222ZM306.419 26.6025V25.4399H307.892V25.8349H307.484V25.6439H306.845V26.3023H308.532V25.9797H309.898V26.6077L306.419 26.6025ZM267.57 26.6025V25.9744H269.019V26.297H270.704V25.6387H270.076V25.8296H269.668V25.4346H271.143V26.5972L267.57 26.6025ZM262.858 20.8817V21.7204H261.378V20.8817H262.858ZM273.421 7.02421V7.8629H271.929V7.02421H273.421ZM306.024 21.7928V20.7474H307.515V21.7928H306.024ZM308.528 24.0837V23.5992H309.894V25.5057H308.528V24.9725H307.462V24.0837H308.528ZM306.823 24.9725H305.772V25.5057H304.333V23.6032H305.772V24.0877H306.819L306.823 24.9725ZM270.726 24.9725V24.0837H271.773V23.5992H273.123V25.5057H271.773V24.9725H270.726ZM269.023 24.9725V25.5057H267.573V23.6032H269.023V24.0877H270.088V24.9764L269.023 24.9725ZM303.893 21.7928V20.7474H305.384V21.7928H303.893ZM303.253 21.7928H301.762V20.7474H303.253V21.7928ZM301.122 21.7928H299.631V20.7474H301.122V21.7928ZM298.993 21.7928H297.5V20.7474H298.993V21.7928ZM296.862 21.7928H295.371V20.7474H296.862V21.7928ZM294.731 21.7928H293.24V20.7474H294.731V21.7928ZM292.601 21.7928H291.109V20.7474H292.601V21.7928ZM290.47 21.7928H288.978V20.7474H290.47V21.7928ZM288.339 21.7928H286.847V20.7474H288.339V21.7928ZM286.202 21.7928H284.711V20.7474H286.202V21.7928ZM284.071 21.7928H282.578V20.7474H284.07L284.071 21.7928ZM281.942 21.7928H280.451V20.7474H281.942V21.7928ZM279.811 21.7928H278.32V20.7474H279.811V21.7928ZM277.686 21.7928H276.195V20.7474H277.686V21.7928ZM275.555 21.7928H274.062V20.7474H275.553L275.555 21.7928ZM273.424 21.7928H271.933V20.7474H273.424V21.7928ZM271.293 21.7928H269.802V20.7474H271.293V21.7928ZM269.17 21.7928H267.573V20.7474H269.17V21.7928ZM271.143 22.5025V23.6203H269.668V23.2253H270.076V23.4162H270.715V22.7579H269.03V23.1292H267.581V22.4972L271.143 22.5025ZM273.136 23.1345H271.786V22.5025H273.136V23.1345ZM305.788 23.1345H304.349V22.5025H305.772L305.788 23.1345ZM286.847 9.40336V17.5059C286.841 17.5645 286.805 17.6193 286.746 17.6592C286.686 17.6992 286.609 17.7214 286.528 17.7214C286.447 17.7214 286.369 17.6992 286.31 17.6592C286.25 17.6193 286.214 17.5645 286.208 17.5059V9.40336C286.214 9.34474 286.25 9.28997 286.31 9.25C286.369 9.21003 286.447 9.18781 286.528 9.18781C286.609 9.18781 286.686 9.21003 286.746 9.25C286.805 9.28997 286.841 9.34474 286.847 9.40336ZM284.717 9.40336V17.5059C284.71 17.5645 284.674 17.6193 284.615 17.6592C284.556 17.6992 284.478 17.7214 284.397 17.7214C284.316 17.7214 284.238 17.6992 284.179 17.6592C284.119 17.6193 284.083 17.5645 284.077 17.5059V9.40336C284.083 9.34474 284.119 9.28997 284.179 9.25C284.238 9.21003 284.316 9.18781 284.397 9.18781C284.478 9.18781 284.556 9.21003 284.615 9.25C284.674 9.28997 284.71 9.34474 284.717 9.40336ZM282.586 9.40336V17.5059C282.586 17.5673 282.552 17.6263 282.492 17.6697C282.432 17.7132 282.351 17.7376 282.267 17.7376C282.182 17.7376 282.101 17.7132 282.041 17.6697C281.981 17.6263 281.948 17.5673 281.948 17.5059V9.40336C281.948 9.3419 281.981 9.28296 282.041 9.2395C282.101 9.19604 282.182 9.17163 282.267 9.17163C282.351 9.17163 282.432 9.19604 282.492 9.2395C282.552 9.28296 282.586 9.3419 282.586 9.40336ZM280.457 9.40336V17.5059C280.45 17.5645 280.414 17.6193 280.355 17.6592C280.296 17.6992 280.218 17.7214 280.137 17.7214C280.056 17.7214 279.978 17.6992 279.919 17.6592C279.859 17.6193 279.823 17.5645 279.817 17.5059V9.40336C279.823 9.34474 279.859 9.28997 279.919 9.25C279.978 9.21003 280.056 9.18781 280.137 9.18781C280.218 9.18781 280.296 9.21003 280.355 9.25C280.414 9.28997 280.45 9.34474 280.457 9.40336ZM278.326 9.40336V17.5059C278.32 17.5645 278.283 17.6193 278.224 17.6592C278.165 17.6992 278.087 17.7214 278.006 17.7214C277.925 17.7214 277.847 17.6992 277.788 17.6592C277.728 17.6193 277.692 17.5645 277.686 17.5059V9.40336C277.692 9.34474 277.728 9.28997 277.788 9.25C277.847 9.21003 277.925 9.18781 278.006 9.18781C278.087 9.18781 278.165 9.21003 278.224 9.25C278.283 9.28997 278.32 9.34474 278.326 9.40336ZM276.195 9.40336V17.5059C276.189 17.5645 276.152 17.6193 276.093 17.6592C276.034 17.6992 275.956 17.7214 275.875 17.7214C275.794 17.7214 275.716 17.6992 275.657 17.6592C275.598 17.6193 275.561 17.5645 275.555 17.5059V9.40336C275.561 9.34474 275.598 9.28997 275.657 9.25C275.716 9.21003 275.794 9.18781 275.875 9.18781C275.956 9.18781 276.034 9.21003 276.093 9.25C276.152 9.28997 276.189 9.34474 276.195 9.40336ZM274.064 9.40336V17.5059C274.058 17.5645 274.021 17.6193 273.962 17.6592C273.903 17.6992 273.825 17.7214 273.744 17.7214C273.663 17.7214 273.585 17.6992 273.526 17.6592C273.467 17.6193 273.43 17.5645 273.424 17.5059V9.40336C273.43 9.34474 273.467 9.28997 273.526 9.25C273.585 9.21003 273.663 9.18781 273.744 9.18781C273.825 9.18781 273.903 9.21003 273.962 9.25C274.021 9.28997 274.058 9.34474 274.064 9.40336ZM271.933 9.40336V17.5059C271.927 17.5645 271.891 17.6193 271.831 17.6592C271.772 17.6992 271.694 17.7214 271.613 17.7214C271.532 17.7214 271.454 17.6992 271.395 17.6592C271.336 17.6193 271.299 17.5645 271.293 17.5059V9.40336C271.299 9.34474 271.336 9.28997 271.395 9.25C271.454 9.21003 271.532 9.18781 271.613 9.18781C271.694 9.18781 271.772 9.21003 271.831 9.25C271.891 9.28997 271.927 9.34474 271.933 9.40336ZM307.834 10.3658C307.919 10.3658 308.001 10.3904 308.061 10.4341C308.121 10.4778 308.155 10.537 308.155 10.5988V17.5059C308.149 17.5645 308.112 17.6193 308.053 17.6592C307.994 17.6992 307.916 17.7214 307.835 17.7214C307.754 17.7214 307.676 17.6992 307.617 17.6592C307.557 17.6193 307.521 17.5645 307.515 17.5059V10.6015C307.514 10.5707 307.522 10.5402 307.538 10.5116C307.553 10.483 307.577 10.457 307.606 10.4351C307.636 10.4131 307.672 10.3957 307.711 10.3838C307.75 10.3719 307.792 10.3658 307.834 10.3658ZM306.022 9.40336V17.5059C306.016 17.5645 305.98 17.6193 305.92 17.6592C305.861 17.6992 305.783 17.7214 305.702 17.7214C305.621 17.7214 305.543 17.6992 305.484 17.6592C305.425 17.6193 305.388 17.5645 305.382 17.5059V9.40336C305.388 9.34474 305.425 9.28997 305.484 9.25C305.543 9.21003 305.621 9.18781 305.702 9.18781C305.783 9.18781 305.861 9.21003 305.92 9.25C305.98 9.28997 306.016 9.34474 306.022 9.40336ZM303.891 9.40336V17.5059C303.885 17.5645 303.849 17.6193 303.789 17.6592C303.73 17.6992 303.652 17.7214 303.571 17.7214C303.49 17.7214 303.412 17.6992 303.353 17.6592C303.294 17.6193 303.257 17.5645 303.251 17.5059V9.40336C303.257 9.34474 303.294 9.28997 303.353 9.25C303.412 9.21003 303.49 9.18781 303.571 9.18781C303.652 9.18781 303.73 9.21003 303.789 9.25C303.849 9.28997 303.885 9.34474 303.891 9.40336ZM301.76 9.40336V17.5059C301.754 17.5645 301.718 17.6193 301.658 17.6592C301.599 17.6992 301.521 17.7214 301.44 17.7214C301.359 17.7214 301.282 17.6992 301.222 17.6592C301.163 17.6193 301.127 17.5645 301.121 17.5059V9.40336C301.127 9.34474 301.163 9.28997 301.222 9.25C301.282 9.21003 301.359 9.18781 301.44 9.18781C301.521 9.18781 301.599 9.21003 301.658 9.25C301.718 9.28997 301.754 9.34474 301.76 9.40336ZM299.629 9.40336V17.5059C299.629 17.5673 299.596 17.6263 299.536 17.6697C299.476 17.7132 299.395 17.7376 299.31 17.7376C299.226 17.7376 299.145 17.7132 299.085 17.6697C299.025 17.6263 298.991 17.5673 298.991 17.5059V9.40336C298.991 9.3419 299.025 9.28296 299.085 9.2395C299.145 9.19604 299.226 9.17163 299.31 9.17163C299.395 9.17163 299.476 9.19604 299.536 9.2395C299.596 9.28296 299.629 9.3419 299.629 9.40336ZM297.498 9.40336V17.5059C297.498 17.5673 297.465 17.6263 297.405 17.6697C297.345 17.7132 297.264 17.7376 297.179 17.7376C297.095 17.7376 297.014 17.7132 296.954 17.6697C296.894 17.6263 296.861 17.5673 296.861 17.5059V9.40336C296.861 9.3419 296.894 9.28296 296.954 9.2395C297.014 9.19604 297.095 9.17163 297.179 9.17163C297.264 9.17163 297.345 9.19604 297.405 9.2395C297.465 9.28296 297.498 9.3419 297.498 9.40336ZM295.369 9.40336V17.5059C295.363 17.5645 295.327 17.6193 295.268 17.6592C295.208 17.6992 295.13 17.7214 295.049 17.7214C294.969 17.7214 294.891 17.6992 294.831 17.6592C294.772 17.6193 294.736 17.5645 294.73 17.5059V9.40336C294.736 9.34474 294.772 9.28997 294.831 9.25C294.891 9.21003 294.969 9.18781 295.049 9.18781C295.13 9.18781 295.208 9.21003 295.268 9.25C295.327 9.28997 295.363 9.34474 295.369 9.40336ZM293.238 9.40336V17.5059C293.232 17.5645 293.196 17.6193 293.137 17.6592C293.077 17.6992 292.999 17.7214 292.919 17.7214C292.838 17.7214 292.76 17.6992 292.7 17.6592C292.641 17.6193 292.605 17.5645 292.599 17.5059V9.40336C292.605 9.34474 292.641 9.28997 292.7 9.25C292.76 9.21003 292.838 9.18781 292.919 9.18781C292.999 9.18781 293.077 9.21003 293.137 9.25C293.196 9.28997 293.232 9.34474 293.238 9.40336ZM291.107 9.40336V17.5059C291.101 17.5645 291.065 17.6193 291.006 17.6592C290.946 17.6992 290.869 17.7214 290.788 17.7214C290.707 17.7214 290.629 17.6992 290.57 17.6592C290.51 17.6193 290.474 17.5645 290.468 17.5059V9.40336C290.474 9.34474 290.51 9.28997 290.57 9.25C290.629 9.21003 290.707 9.18781 290.788 9.18781C290.869 9.18781 290.946 9.21003 291.006 9.25C291.065 9.28997 291.101 9.34474 291.107 9.40336ZM288.337 9.40336C288.343 9.34474 288.379 9.28997 288.439 9.25C288.498 9.21003 288.576 9.18781 288.657 9.18781C288.738 9.18781 288.816 9.21003 288.875 9.25C288.934 9.28997 288.97 9.34474 288.977 9.40336V17.5059C288.97 17.5645 288.934 17.6193 288.875 17.6592C288.816 17.6992 288.738 17.7214 288.657 17.7214C288.576 17.7214 288.498 17.6992 288.439 17.6592C288.379 17.6193 288.343 17.5645 288.337 17.5059V9.40336ZM309.644 17.5059V12.0498C309.65 11.9912 309.687 11.9364 309.746 11.8964C309.805 11.8564 309.883 11.8342 309.964 11.8342C310.045 11.8342 310.123 11.8564 310.182 11.8964C310.241 11.9364 310.278 11.9912 310.284 12.0498V17.5125C310.278 17.5711 310.241 17.6258 310.182 17.6658C310.123 17.7058 310.045 17.728 309.964 17.728C309.883 17.728 309.805 17.7058 309.746 17.6658C309.687 17.6258 309.65 17.5711 309.644 17.5125V17.5059ZM279.815 7.02421V7.8629H278.324V7.02421H279.815ZM280.455 7.02421H281.946V7.8629H280.455V7.02421ZM282.584 7.02421H284.075V7.8629H282.578L282.584 7.02421ZM284.715 7.02421H286.202V7.8629H284.711L284.715 7.02421ZM286.846 7.02421H288.337V7.8629H286.846V7.02421ZM297.498 7.8629V7.02421H298.991V7.8629H297.498ZM296.861 7.8629H295.369V7.02421H296.861V7.8629ZM294.73 7.8629H293.238V7.02421H294.73V7.8629ZM292.599 7.8629H291.107V7.02421H292.599V7.8629ZM290.468 7.8629H288.977V7.02421H290.468V7.8629ZM303.891 7.8629V7.02421H305.382V7.8629H303.891ZM303.251 7.8629H301.76V7.02421H303.251V7.8629ZM301.121 7.8629H299.629V7.02421H301.121V7.8629ZM277.684 7.8629H276.193V7.02421H277.686L277.684 7.8629ZM275.553 7.8629H274.062V7.02421H275.553V7.8629ZM269.802 10.6015V17.5085C269.796 17.5671 269.76 17.6219 269.7 17.6619C269.641 17.7018 269.563 17.724 269.482 17.724C269.401 17.724 269.323 17.7018 269.264 17.6619C269.205 17.6219 269.168 17.5671 269.162 17.5085V10.6015C269.159 10.5695 269.165 10.5374 269.179 10.5071C269.194 10.4768 269.217 10.449 269.247 10.4255C269.277 10.402 269.313 10.3832 269.354 10.3704C269.394 10.3576 269.438 10.3509 269.482 10.3509C269.526 10.3509 269.57 10.3576 269.611 10.3704C269.651 10.3832 269.687 10.402 269.717 10.4255C269.747 10.449 269.77 10.4768 269.785 10.5071C269.8 10.5374 269.805 10.5695 269.802 10.6015ZM267.671 12.0498V17.5125C267.671 17.5739 267.638 17.6329 267.578 17.6763C267.518 17.7198 267.437 17.7442 267.352 17.7442C267.268 17.7442 267.187 17.7198 267.127 17.6763C267.067 17.6329 267.033 17.5739 267.033 17.5125V12.0498C267.033 11.9883 267.067 11.9294 267.127 11.8859C267.187 11.8425 267.268 11.818 267.352 11.818C267.437 11.818 267.518 11.8425 267.578 11.8859C267.638 11.9294 267.671 11.9883 267.671 12.0498ZM271.773 25.981H273.123V26.609H271.773V25.981ZM304.337 25.981H305.772V26.609H304.333L304.337 25.981ZM309.894 23.145H308.528V22.7671H306.841V23.4254H307.481V23.2345H307.888V23.6295H306.415V22.5117H309.894V23.145ZM309.894 21.8033H308.155V20.7579H309.894V21.8033ZM307.515 7.8629H306.024V7.02421H307.515V7.8629ZM300.104 4.11578V3.30078H301.372V5.65097H305.48V6.30928H300.388V4.5213H297.524V4.11578H300.104ZM289.498 2.70172V4.11446H292.967V1.59575H290.513V2.93081H291.153V2.06052H292.329V3.65101H290.138V1.18234H294.018V4.11578H296.893V4.5213H289.12V2.70172H289.498ZM283.399 4.11446V1.18234H287.29V3.65101H285.099V2.06052H286.275V2.93081H286.913V1.59575H284.459V4.11578H287.927V2.70172H288.491V4.51998H280.538V4.11446H283.399ZM271.933 5.65097H276.041V3.30078H277.309V4.11578H279.884V4.5213H277.202V6.31455H271.933V5.65097ZM269.802 7.02421H271.293V7.8629H269.802V7.02421ZM260.731 20.8817V21.7204H259.24V20.8817H260.731ZM258.6 20.8817V21.7204H257.109V20.8817H258.6ZM256.471 20.8817V21.7204H254.98V20.8817H256.471ZM252.847 20.8817H254.339V21.7204H252.847V20.8817ZM250.716 20.8817H252.208V21.7204H250.716V20.8817ZM248.585 20.8817H250.077V21.7204H248.585V20.8817ZM246.455 20.8817H247.946V21.7204H246.455V20.8817ZM244.005 31.5951C243.963 31.5953 243.921 31.5894 243.882 31.5778C243.843 31.5663 243.808 31.5492 243.778 31.5277C243.748 31.5062 243.725 31.4806 243.708 31.4524C243.692 31.4242 243.684 31.3939 243.684 31.3634V25.9007C243.69 25.8421 243.726 25.7873 243.786 25.7473C243.845 25.7074 243.923 25.6851 244.004 25.6851C244.085 25.6851 244.163 25.7074 244.222 25.7473C244.281 25.7873 244.318 25.8421 244.324 25.9007V31.3634C244.324 31.4246 244.29 31.4833 244.231 31.5268C244.171 31.5702 244.091 31.5948 244.007 31.5951H244.005ZM245.817 35.6543H244.077V34.6089H245.817V35.6543ZM246.456 31.3634C246.45 31.422 246.414 31.4768 246.355 31.5167C246.295 31.5567 246.217 31.5789 246.137 31.5789C246.056 31.5789 245.978 31.5567 245.918 31.5167C245.859 31.4768 245.823 31.422 245.817 31.3634V24.4563C245.813 24.4244 245.819 24.3922 245.834 24.3619C245.848 24.3317 245.871 24.3039 245.901 24.2804C245.931 24.2568 245.968 24.2381 246.008 24.2253C246.049 24.2124 246.092 24.2058 246.137 24.2058C246.181 24.2058 246.224 24.2124 246.265 24.2253C246.305 24.2381 246.342 24.2568 246.372 24.2804C246.402 24.3039 246.425 24.3317 246.439 24.3619C246.454 24.3922 246.46 24.4244 246.456 24.4563V31.3634ZM247.948 35.6543H246.456V34.6089H247.948V35.6543ZM248.587 31.3634C248.581 31.422 248.545 31.4768 248.486 31.5167C248.426 31.5567 248.348 31.5789 248.267 31.5789C248.187 31.5789 248.109 31.5567 248.049 31.5167C247.99 31.4768 247.954 31.422 247.948 31.3634V23.2609C247.954 23.2022 247.99 23.1475 248.049 23.1075C248.109 23.0675 248.187 23.0453 248.267 23.0453C248.348 23.0453 248.426 23.0675 248.486 23.1075C248.545 23.1475 248.581 23.2022 248.587 23.2609V31.3634ZM250.079 35.6543H248.587V34.6089H250.079V35.6543ZM250.718 31.3634C250.712 31.422 250.676 31.4768 250.616 31.5167C250.557 31.5567 250.479 31.5789 250.398 31.5789C250.317 31.5789 250.24 31.5567 250.18 31.5167C250.121 31.4768 250.085 31.422 250.079 31.3634V23.2609C250.085 23.2022 250.121 23.1475 250.18 23.1075C250.24 23.0675 250.317 23.0453 250.398 23.0453C250.479 23.0453 250.557 23.0675 250.616 23.1075C250.676 23.1475 250.712 23.2022 250.718 23.2609V31.3634ZM252.209 35.6543H250.718V34.6089H252.209V35.6543ZM252.849 31.3634C252.843 31.422 252.807 31.4768 252.747 31.5167C252.688 31.5567 252.61 31.5789 252.529 31.5789C252.448 31.5789 252.37 31.5567 252.311 31.5167C252.252 31.4768 252.215 31.422 252.209 31.3634V23.2609C252.215 23.2022 252.252 23.1475 252.311 23.1075C252.37 23.0675 252.448 23.0453 252.529 23.0453C252.61 23.0453 252.688 23.0675 252.747 23.1075C252.807 23.1475 252.843 23.2022 252.849 23.2609V31.3634ZM254.34 35.6543H252.849V34.6089H254.34V35.6543ZM254.98 31.3634C254.974 31.422 254.938 31.4768 254.878 31.5167C254.819 31.5567 254.741 31.5789 254.66 31.5789C254.579 31.5789 254.501 31.5567 254.442 31.5167C254.383 31.4768 254.346 31.422 254.34 31.3634V23.2609C254.346 23.2022 254.383 23.1475 254.442 23.1075C254.501 23.0675 254.579 23.0453 254.66 23.0453C254.741 23.0453 254.819 23.0675 254.878 23.1075C254.938 23.1475 254.974 23.2022 254.98 23.2609V31.3634ZM256.471 35.6543H254.98V34.6089H256.471V35.6543ZM257.109 31.3634C257.109 31.4248 257.075 31.4838 257.016 31.5272C256.956 31.5707 256.875 31.5951 256.79 31.5951C256.706 31.5951 256.624 31.5707 256.565 31.5272C256.505 31.4838 256.471 31.4248 256.471 31.3634V23.2609C256.471 23.1994 256.505 23.1405 256.565 23.097C256.624 23.0535 256.706 23.0291 256.79 23.0291C256.875 23.0291 256.956 23.0535 257.016 23.097C257.075 23.1405 257.109 23.1994 257.109 23.2609V31.3634ZM258.6 35.6543H257.109V34.6089H258.6V35.6543ZM259.24 31.3634C259.234 31.422 259.198 31.4768 259.138 31.5167C259.079 31.5567 259.001 31.5789 258.92 31.5789C258.839 31.5789 258.761 31.5567 258.702 31.5167C258.643 31.4768 258.606 31.422 258.6 31.3634V23.2609C258.606 23.2022 258.643 23.1475 258.702 23.1075C258.761 23.0675 258.839 23.0453 258.92 23.0453C259.001 23.0453 259.079 23.0675 259.138 23.1075C259.198 23.1475 259.234 23.2022 259.24 23.2609V31.3634ZM260.731 35.6543H259.24V34.6089H260.731V35.6543ZM261.378 31.3634C261.372 31.422 261.336 31.4768 261.276 31.5167C261.217 31.5567 261.139 31.5789 261.058 31.5789C260.977 31.5789 260.899 31.5567 260.84 31.5167C260.781 31.4768 260.745 31.422 260.738 31.3634V23.2609C260.745 23.2022 260.781 23.1475 260.84 23.1075C260.899 23.0675 260.977 23.0453 261.058 23.0453C261.139 23.0453 261.217 23.0675 261.276 23.1075C261.336 23.1475 261.372 23.2022 261.378 23.2609V31.3634ZM262.869 35.6543H261.378V34.6089H262.869V35.6543ZM262.869 31.3634V23.2609C262.87 23.2111 262.892 23.1626 262.933 23.1228C262.974 23.083 263.032 23.0538 263.098 23.0397V31.5846C263.031 31.5714 262.971 31.5426 262.929 31.5027C262.886 31.4628 262.863 31.4139 262.862 31.3634H262.869ZM267.581 31.025V27.3121H269.574V30.0152H268.349V31.025H267.581ZM271.706 28.48V31.9888H268.969V30.4825H270.761V31.179H270.193V30.8183H269.554V31.6438H271.4V30.0152H270.193V27.3121H273.123V28.0547H273.486V28.48H271.706ZM275.789 28.9447H277.505V29.4003H275.782L275.789 28.9447ZM298.819 28.9447V29.4003H297.328V28.9447H298.819ZM296.688 29.4003H295.197V28.9447H296.688V29.4003ZM294.557 29.4003H293.066V28.9447H294.557V29.4003ZM292.427 29.4003H290.935V28.9447H292.427V29.4003ZM290.296 29.4003H288.804V28.9447H290.296V29.4003ZM288.165 29.4003H286.674V28.9447H288.165V29.4003ZM286.034 29.4003H284.543V28.9447H286.034V29.4003ZM283.905 29.4003H282.412V28.9447H283.905V29.4003ZM281.774 29.4003H280.283V28.9447H281.774V29.4003ZM279.643 29.4003H278.152V28.9447H279.643V29.4003ZM299.457 29.4003V28.9447H301.677V29.4003H299.457ZM301.994 28.4786H274.135V28.0534H303.326V28.4786H301.994ZM308.49 31.9888H305.756V28.48H303.96V28.0547H304.333V27.3121H307.263V30.0152H306.056V31.6412H307.903V30.8157H307.263V31.1764H306.694V30.4825H308.488L308.49 31.9888ZM309.13 31.025V30.0152H307.905V27.3121H309.898V31.025H309.13ZM314.419 31.5951C314.401 31.5964 314.384 31.5964 314.366 31.5951V23.037C314.384 23.0357 314.401 23.0357 314.419 23.037C314.503 23.037 314.584 23.0614 314.644 23.1049C314.704 23.1484 314.738 23.2073 314.738 23.2688V31.3713C314.735 31.4311 314.7 31.4879 314.641 31.5296C314.582 31.5713 314.503 31.5948 314.421 31.5951H314.419ZM316.231 35.6543H314.739V34.6089H316.231V35.6543ZM316.231 21.7204H314.739V20.8817H316.231V21.7204ZM316.55 31.5951C316.465 31.5951 316.384 31.5707 316.324 31.5272C316.264 31.4838 316.231 31.4248 316.231 31.3634V23.2609C316.237 23.2022 316.273 23.1475 316.332 23.1075C316.392 23.0675 316.47 23.0453 316.551 23.0453C316.631 23.0453 316.709 23.0675 316.769 23.1075C316.828 23.1475 316.864 23.2022 316.87 23.2609V31.3634C316.87 31.3939 316.862 31.4242 316.846 31.4524C316.83 31.4806 316.806 31.5062 316.776 31.5277C316.746 31.5492 316.711 31.5663 316.672 31.5778C316.633 31.5894 316.592 31.5953 316.55 31.5951ZM318.362 35.6543H316.87V34.6089H318.362V35.6543ZM318.362 21.7204H316.87V20.8817H318.362V21.7204ZM318.681 31.5951C318.596 31.5951 318.515 31.5707 318.455 31.5272C318.395 31.4838 318.362 31.4248 318.362 31.3634V23.2609C318.368 23.2022 318.404 23.1475 318.463 23.1075C318.523 23.0675 318.601 23.0453 318.681 23.0453C318.762 23.0453 318.84 23.0675 318.9 23.1075C318.959 23.1475 318.995 23.2022 319.001 23.2609V31.3634C319.001 31.3939 318.993 31.4242 318.977 31.4524C318.961 31.4806 318.937 31.5062 318.907 31.5277C318.877 31.5492 318.842 31.5663 318.803 31.5778C318.764 31.5894 318.723 31.5953 318.681 31.5951ZM320.493 35.6543H318.999V34.6089H320.491L320.493 35.6543ZM320.493 21.7204H318.999V20.8817H320.491L320.493 21.7204ZM320.811 31.5951C320.727 31.5951 320.646 31.5707 320.586 31.5272C320.526 31.4838 320.493 31.4248 320.493 31.3634V23.2609C320.499 23.2022 320.535 23.1475 320.594 23.1075C320.654 23.0675 320.731 23.0453 320.812 23.0453C320.893 23.0453 320.971 23.0675 321.03 23.1075C321.09 23.1475 321.126 23.2022 321.132 23.2609V31.3634C321.132 31.3939 321.124 31.4242 321.108 31.4524C321.092 31.4806 321.068 31.5062 321.038 31.5277C321.008 31.5492 320.973 31.5663 320.934 31.5778C320.895 31.5894 320.853 31.5953 320.811 31.5951ZM322.623 35.6543H321.132V34.6089H322.623V35.6543ZM322.623 21.7204H321.132V20.8817H322.623V21.7204ZM322.942 31.5951C322.858 31.5951 322.777 31.5707 322.717 31.5272C322.657 31.4838 322.623 31.4248 322.623 31.3634V23.2609C322.623 23.1994 322.657 23.1405 322.717 23.097C322.777 23.0535 322.858 23.0291 322.942 23.0291C323.027 23.0291 323.108 23.0535 323.168 23.097C323.228 23.1405 323.261 23.1994 323.261 23.2609V31.3634C323.261 31.4248 323.228 31.4838 323.168 31.5272C323.108 31.5707 323.027 31.5951 322.942 31.5951ZM324.754 35.6543H323.263V34.6089H324.754V35.6543ZM324.754 21.7204H323.263V20.8817H324.754V21.7204ZM325.075 31.5951C325.033 31.5953 324.991 31.5894 324.952 31.5778C324.914 31.5663 324.878 31.5492 324.848 31.5277C324.819 31.5062 324.795 31.4806 324.779 31.4524C324.763 31.4242 324.754 31.3939 324.754 31.3634V23.2609C324.76 23.2022 324.797 23.1475 324.856 23.1075C324.915 23.0675 324.993 23.0453 325.074 23.0453C325.155 23.0453 325.233 23.0675 325.292 23.1075C325.352 23.1475 325.388 23.2022 325.394 23.2609V31.3634C325.394 31.3939 325.386 31.4242 325.37 31.4524C325.353 31.4806 325.33 31.5062 325.3 31.5277C325.27 31.5492 325.235 31.5663 325.196 31.5778C325.157 31.5894 325.115 31.5953 325.073 31.5951H325.075ZM326.887 35.6543H325.396V34.6089H326.887V35.6543ZM326.887 21.7204H325.396V20.8817H326.887V21.7204ZM327.208 31.5951C327.166 31.5953 327.124 31.5894 327.085 31.5778C327.046 31.5663 327.011 31.5492 326.981 31.5277C326.951 31.5062 326.928 31.4806 326.911 31.4524C326.895 31.4242 326.887 31.3939 326.887 31.3634V23.2609C326.893 23.2022 326.929 23.1475 326.989 23.1075C327.048 23.0675 327.126 23.0453 327.207 23.0453C327.288 23.0453 327.366 23.0675 327.425 23.1075C327.484 23.1475 327.521 23.2022 327.527 23.2609V31.3634C327.527 31.394 327.518 31.4244 327.502 31.4527C327.486 31.4809 327.462 31.5066 327.432 31.5282C327.402 31.5497 327.366 31.5667 327.327 31.5782C327.288 31.5897 327.246 31.5954 327.204 31.5951H327.208ZM329.02 35.6543H327.516V34.6089H329.007L329.02 35.6543ZM329.02 21.7204H327.516V20.8817H329.007L329.02 21.7204ZM329.34 31.5951C329.298 31.5953 329.257 31.5894 329.218 31.5778C329.179 31.5663 329.144 31.5492 329.114 31.5277C329.084 31.5062 329.06 31.4806 329.044 31.4524C329.028 31.4242 329.02 31.3939 329.02 31.3634V23.2609C329.026 23.2022 329.062 23.1475 329.121 23.1075C329.181 23.0675 329.259 23.0453 329.34 23.0453C329.42 23.0453 329.498 23.0675 329.558 23.1075C329.617 23.1475 329.653 23.2022 329.659 23.2609V31.3634C329.659 31.3946 329.651 31.4255 329.634 31.4542C329.617 31.483 329.593 31.5089 329.562 31.5306C329.531 31.5522 329.494 31.5691 329.454 31.5802C329.414 31.5913 329.371 31.5963 329.328 31.5951H329.34ZM331.152 35.6543H329.661V34.6089H331.14L331.152 35.6543ZM331.152 21.7204H329.661V20.8817H331.14L331.152 21.7204ZM331.471 31.5951C331.387 31.5951 331.306 31.5707 331.246 31.5272C331.186 31.4838 331.152 31.4248 331.152 31.3634V24.4563C331.149 24.4244 331.155 24.3922 331.17 24.3619C331.184 24.3317 331.207 24.3039 331.237 24.2804C331.267 24.2568 331.304 24.2381 331.344 24.2253C331.384 24.2124 331.428 24.2058 331.472 24.2058C331.516 24.2058 331.56 24.2124 331.601 24.2253C331.641 24.2381 331.677 24.2568 331.707 24.2804C331.737 24.3039 331.76 24.3317 331.775 24.3619C331.79 24.3922 331.795 24.4244 331.792 24.4563V31.3634C331.792 31.3944 331.784 31.4251 331.767 31.4536C331.75 31.4822 331.726 31.508 331.696 31.5296C331.665 31.5512 331.629 31.5681 331.589 31.5794C331.549 31.5906 331.507 31.596 331.464 31.5951H331.471ZM333.532 35.6543H331.792V34.6089H333.532V35.6543ZM333.923 31.3634C333.917 31.422 333.881 31.4768 333.821 31.5167C333.762 31.5567 333.684 31.5789 333.603 31.5789C333.522 31.5789 333.444 31.5567 333.385 31.5167C333.326 31.4768 333.289 31.422 333.283 31.3634V25.9007C333.289 25.8421 333.326 25.7873 333.385 25.7473C333.444 25.7074 333.522 25.6851 333.603 25.6851C333.684 25.6851 333.762 25.7074 333.821 25.7473C333.881 25.7873 333.917 25.8421 333.923 25.9007V31.3634Z"/>
</mask>
<path d="M344.108 28.6222C344.135 28.6178 344.162 28.6121 344.188 28.605C350.976 28.1864 354.64 26.1443 354.801 26.0534L353.752 25.0778C353.475 25.2205 353.187 25.3524 352.891 25.4728V25.1068C352.881 24.9474 352.787 24.797 352.628 24.6868C352.469 24.5767 352.258 24.5152 352.038 24.5152C351.819 24.5152 351.608 24.5767 351.449 24.6868C351.29 24.797 351.196 24.9474 351.186 25.1068V26.0929C350.86 26.1956 350.505 26.3009 350.12 26.4036V25.7848C350.126 25.7011 350.108 25.6174 350.067 25.5389C350.027 25.4604 349.965 25.3886 349.885 25.328C349.805 25.2673 349.71 25.2191 349.604 25.1861C349.497 25.1531 349.383 25.1361 349.268 25.1361C349.152 25.1361 349.038 25.1531 348.932 25.1861C348.826 25.2191 348.73 25.2673 348.651 25.328C348.571 25.3886 348.509 25.4604 348.469 25.5389C348.428 25.6174 348.41 25.7011 348.415 25.7848V26.8013C348.117 26.8618 347.806 26.9193 347.484 26.9737V26.3009C347.474 26.1416 347.38 25.9912 347.221 25.881C347.062 25.7709 346.851 25.7094 346.631 25.7094C346.412 25.7094 346.201 25.7709 346.042 25.881C345.883 25.9912 345.789 26.1416 345.779 26.3009V27.2134C345.462 27.2489 345.137 27.2818 344.802 27.3108V26.6169C344.802 26.4528 344.712 26.2954 344.553 26.1794C344.393 26.0633 344.176 25.9981 343.951 25.9981C343.725 25.9981 343.508 26.0633 343.348 26.1794C343.189 26.2954 343.099 26.4528 343.099 26.6169V27.4069H342.945C337.641 27.5741 334.396 24.2984 333.269 22.9198C333.169 22.7553 333.071 22.5867 332.977 22.4129H333.72V21.7033H331.785V20.8646H333.72V20.1549H324.024V18.3788H323.058C324.102 18.0424 325.114 17.6572 326.088 17.2254L329.971 15.5007V13.6942C329.971 13.6942 325.456 15.0741 320.478 14.7633C320.505 14.7599 320.532 14.7546 320.558 14.7475C327.345 14.3289 331.009 12.2868 331.171 12.1959L330.121 11.219C329.846 11.3653 329.558 11.4998 329.261 11.6219V11.2598C329.251 11.1004 329.156 10.9501 328.998 10.8399C328.839 10.7297 328.628 10.6682 328.408 10.6682C328.189 10.6682 327.978 10.7297 327.819 10.8399C327.66 10.9501 327.566 11.1004 327.556 11.2598V12.2459C327.23 12.3486 326.874 12.454 326.49 12.5567V11.9379C326.496 11.8541 326.477 11.7704 326.437 11.6919C326.397 11.6134 326.335 11.5416 326.255 11.481C326.175 11.4204 326.079 11.3721 325.973 11.3391C325.867 11.3062 325.753 11.2892 325.638 11.2892C325.522 11.2892 325.408 11.3062 325.302 11.3391C325.196 11.3721 325.1 11.4204 325.02 11.481C324.941 11.5416 324.879 11.6134 324.838 11.6919C324.798 11.7704 324.78 11.8541 324.785 11.9379V12.9543C324.486 13.0149 324.175 13.0724 323.854 13.1268V12.4448C323.859 12.361 323.841 12.2773 323.801 12.1988C323.76 12.1203 323.698 12.0485 323.618 11.9879C323.539 11.9273 323.443 11.879 323.337 11.846C323.231 11.8131 323.117 11.7961 323.001 11.7961C322.886 11.7961 322.772 11.8131 322.666 11.846C322.559 11.879 322.464 11.9273 322.384 11.9879C322.304 12.0485 322.242 12.1203 322.202 12.1988C322.161 12.2773 322.143 12.361 322.149 12.4448V13.3664C321.832 13.4033 321.507 13.4362 321.172 13.4651V12.7713C321.172 12.6072 321.082 12.4498 320.923 12.3337C320.763 12.2177 320.546 12.1525 320.32 12.1525C320.095 12.1525 319.878 12.2177 319.718 12.3337C319.558 12.4498 319.469 12.6072 319.469 12.7713V13.5613H319.315C314.016 13.7272 310.773 10.4619 309.642 9.08473C309.541 8.91751 309.441 8.74768 309.347 8.57256H310.09V7.8629H308.155V7.02421H310.09V6.31455H306.123V5.1862H302.017V2.83338H300.104V0.718881H295.275V3.28894H298.591V1.62077H296.511V2.08554H297.951V2.82417H295.913V1.18234H299.464V3.65101H294.657V0.718881H289.498V2.23827H289.12V0.463455H294.639V0H282.796V0.463455H288.482V2.23432H287.918V0.718881H282.76V3.65101H277.951V1.18234H281.502V2.82417H279.465V2.08554H280.904V1.62077H278.828V3.28894H282.144V0.718881H277.324V2.83338H275.401V5.18225H271.293V6.31059H267.37V7.02026H269.17V7.85895H267.378V8.56861H268.121C268.024 8.74372 267.927 8.91489 267.825 9.08078C266.694 10.4632 263.451 13.7298 258.151 13.5573H257.999V12.7673C257.999 12.6032 257.909 12.4458 257.749 12.3298C257.59 12.2137 257.373 12.1485 257.147 12.1485C256.921 12.1485 256.705 12.2137 256.545 12.3298C256.385 12.4458 256.295 12.6032 256.295 12.7673V13.4612C255.96 13.4322 255.636 13.3993 255.319 13.3624V12.4448C255.324 12.361 255.306 12.2773 255.266 12.1988C255.225 12.1203 255.163 12.0485 255.083 11.9879C255.004 11.9273 254.908 11.879 254.802 11.846C254.696 11.8131 254.582 11.7961 254.466 11.7961C254.351 11.7961 254.237 11.8131 254.131 11.846C254.025 11.879 253.929 11.9273 253.849 11.9879C253.769 12.0485 253.707 12.1203 253.667 12.1988C253.627 12.2773 253.608 12.361 253.614 12.4448V13.1176C253.291 13.064 252.98 13.0065 252.681 12.9451V11.9286C252.681 11.7645 252.591 11.6071 252.431 11.4911C252.271 11.375 252.055 11.3098 251.829 11.3098C251.603 11.3098 251.386 11.375 251.227 11.4911C251.067 11.6071 250.977 11.7645 250.977 11.9286V12.5475C250.591 12.4448 250.236 12.3394 249.912 12.2367V11.2598C249.902 11.1004 249.807 10.9501 249.649 10.8399C249.49 10.7297 249.279 10.6682 249.059 10.6682C248.84 10.6682 248.629 10.7297 248.47 10.8399C248.311 10.9501 248.217 11.1004 248.207 11.2598V11.6258C247.911 11.5057 247.624 11.3738 247.348 11.2308L246.297 12.2065C246.456 12.2973 250.12 14.3394 256.91 14.7581C256.936 14.7652 256.962 14.7705 256.989 14.7739C252.012 15.0846 247.496 13.7048 247.496 13.7048V15.5112L251.38 17.236C252.354 17.6677 253.366 18.053 254.409 18.3893H253.587V20.1826H243.892V20.8922H245.826V21.7309H243.883V22.4406H244.624C244.53 22.6144 244.432 22.7829 244.333 22.9475C243.206 24.326 239.96 27.6018 234.657 27.4346H234.504V26.6446C234.494 26.4852 234.4 26.3348 234.241 26.2247C234.083 26.1145 233.871 26.053 233.652 26.053C233.432 26.053 233.221 26.1145 233.062 26.2247C232.904 26.3348 232.809 26.4852 232.799 26.6446V27.3226C232.464 27.2937 232.14 27.2608 231.823 27.2252V26.3128C231.813 26.1534 231.718 26.003 231.56 25.8929C231.401 25.7827 231.19 25.7212 230.97 25.7212C230.751 25.7212 230.54 25.7827 230.381 25.8929C230.222 26.003 230.128 26.1534 230.118 26.3128V26.9856C229.795 26.932 229.485 26.8746 229.186 26.8131V25.7967C229.192 25.7129 229.173 25.6293 229.133 25.5507C229.093 25.4722 229.031 25.4005 228.951 25.3398C228.871 25.2792 228.775 25.2309 228.669 25.198C228.563 25.165 228.449 25.148 228.334 25.148C228.218 25.148 228.104 25.165 227.998 25.198C227.892 25.2309 227.796 25.2792 227.716 25.3398C227.637 25.4005 227.575 25.4722 227.534 25.5507C227.494 25.6293 227.476 25.7129 227.481 25.7967V26.4155C227.097 26.3128 226.742 26.2075 226.416 26.1048V25.1186C226.416 24.9545 226.326 24.7971 226.166 24.681C226.007 24.565 225.79 24.4998 225.564 24.4998C225.338 24.4998 225.122 24.565 224.962 24.681C224.802 24.7971 224.712 24.9545 224.712 25.1186V25.4794C224.416 25.3587 224.128 25.2269 223.85 25.0844L222.801 26.06C222.962 26.1508 226.626 28.1929 233.414 28.6116C233.44 28.6185 233.466 28.6242 233.493 28.6287C228.516 28.9381 224.002 27.5583 224.002 27.5583V29.3647L227.883 31.0895C232.033 32.9312 236.801 33.9057 241.664 33.9058H237.933V34.6141H239.603V55.48H238.964V56.8151H238.041V59.8842H245.637V56.8151H244.717V55.4708H244.077V36.3639H263.09V55.5867H262.451V56.931H261.53V59.9987H269.126V56.931H268.204V55.5867H267.566V31.4924H268.329V32.4575H272.341V28.9447H275.149V30.3246H273.533V29.7979H274.029V30.0046H274.669V29.3345H272.893V30.792H275.792V29.8703H301.68V30.792H304.58V29.3318H302.804V30.002H303.442V29.7953H303.94V30.3219H302.324V28.9447H305.129V32.4575H309.142V31.4937H309.905V55.588H309.265V56.9323H308.345V60H315.941V56.9323H315.013V55.588H314.373V36.3652H333.53V55.4761H332.89V56.8151H331.97V59.8842H339.566V56.8151H338.643V55.4708H338.005V34.6089H339.674V33.9058H335.943C340.803 33.9041 345.568 32.9292 349.715 31.0882L353.598 29.3634V27.5517C353.598 27.5517 349.079 28.9316 344.108 28.6222ZM306.419 26.6025V25.4399H307.892V25.8349H307.484V25.6439H306.845V26.3023H308.532V25.9797H309.898V26.6077L306.419 26.6025ZM267.57 26.6025V25.9744H269.019V26.297H270.704V25.6387H270.076V25.8296H269.668V25.4346H271.143V26.5972L267.57 26.6025ZM262.858 20.8817V21.7204H261.378V20.8817H262.858ZM273.421 7.02421V7.8629H271.929V7.02421H273.421ZM306.024 21.7928V20.7474H307.515V21.7928H306.024ZM308.528 24.0837V23.5992H309.894V25.5057H308.528V24.9725H307.462V24.0837H308.528ZM306.823 24.9725H305.772V25.5057H304.333V23.6032H305.772V24.0877H306.819L306.823 24.9725ZM270.726 24.9725V24.0837H271.773V23.5992H273.123V25.5057H271.773V24.9725H270.726ZM269.023 24.9725V25.5057H267.573V23.6032H269.023V24.0877H270.088V24.9764L269.023 24.9725ZM303.893 21.7928V20.7474H305.384V21.7928H303.893ZM303.253 21.7928H301.762V20.7474H303.253V21.7928ZM301.122 21.7928H299.631V20.7474H301.122V21.7928ZM298.993 21.7928H297.5V20.7474H298.993V21.7928ZM296.862 21.7928H295.371V20.7474H296.862V21.7928ZM294.731 21.7928H293.24V20.7474H294.731V21.7928ZM292.601 21.7928H291.109V20.7474H292.601V21.7928ZM290.47 21.7928H288.978V20.7474H290.47V21.7928ZM288.339 21.7928H286.847V20.7474H288.339V21.7928ZM286.202 21.7928H284.711V20.7474H286.202V21.7928ZM284.071 21.7928H282.578V20.7474H284.07L284.071 21.7928ZM281.942 21.7928H280.451V20.7474H281.942V21.7928ZM279.811 21.7928H278.32V20.7474H279.811V21.7928ZM277.686 21.7928H276.195V20.7474H277.686V21.7928ZM275.555 21.7928H274.062V20.7474H275.553L275.555 21.7928ZM273.424 21.7928H271.933V20.7474H273.424V21.7928ZM271.293 21.7928H269.802V20.7474H271.293V21.7928ZM269.17 21.7928H267.573V20.7474H269.17V21.7928ZM271.143 22.5025V23.6203H269.668V23.2253H270.076V23.4162H270.715V22.7579H269.03V23.1292H267.581V22.4972L271.143 22.5025ZM273.136 23.1345H271.786V22.5025H273.136V23.1345ZM305.788 23.1345H304.349V22.5025H305.772L305.788 23.1345ZM286.847 9.40336V17.5059C286.841 17.5645 286.805 17.6193 286.746 17.6592C286.686 17.6992 286.609 17.7214 286.528 17.7214C286.447 17.7214 286.369 17.6992 286.31 17.6592C286.25 17.6193 286.214 17.5645 286.208 17.5059V9.40336C286.214 9.34474 286.25 9.28997 286.31 9.25C286.369 9.21003 286.447 9.18781 286.528 9.18781C286.609 9.18781 286.686 9.21003 286.746 9.25C286.805 9.28997 286.841 9.34474 286.847 9.40336ZM284.717 9.40336V17.5059C284.71 17.5645 284.674 17.6193 284.615 17.6592C284.556 17.6992 284.478 17.7214 284.397 17.7214C284.316 17.7214 284.238 17.6992 284.179 17.6592C284.119 17.6193 284.083 17.5645 284.077 17.5059V9.40336C284.083 9.34474 284.119 9.28997 284.179 9.25C284.238 9.21003 284.316 9.18781 284.397 9.18781C284.478 9.18781 284.556 9.21003 284.615 9.25C284.674 9.28997 284.71 9.34474 284.717 9.40336ZM282.586 9.40336V17.5059C282.586 17.5673 282.552 17.6263 282.492 17.6697C282.432 17.7132 282.351 17.7376 282.267 17.7376C282.182 17.7376 282.101 17.7132 282.041 17.6697C281.981 17.6263 281.948 17.5673 281.948 17.5059V9.40336C281.948 9.3419 281.981 9.28296 282.041 9.2395C282.101 9.19604 282.182 9.17163 282.267 9.17163C282.351 9.17163 282.432 9.19604 282.492 9.2395C282.552 9.28296 282.586 9.3419 282.586 9.40336ZM280.457 9.40336V17.5059C280.45 17.5645 280.414 17.6193 280.355 17.6592C280.296 17.6992 280.218 17.7214 280.137 17.7214C280.056 17.7214 279.978 17.6992 279.919 17.6592C279.859 17.6193 279.823 17.5645 279.817 17.5059V9.40336C279.823 9.34474 279.859 9.28997 279.919 9.25C279.978 9.21003 280.056 9.18781 280.137 9.18781C280.218 9.18781 280.296 9.21003 280.355 9.25C280.414 9.28997 280.45 9.34474 280.457 9.40336ZM278.326 9.40336V17.5059C278.32 17.5645 278.283 17.6193 278.224 17.6592C278.165 17.6992 278.087 17.7214 278.006 17.7214C277.925 17.7214 277.847 17.6992 277.788 17.6592C277.728 17.6193 277.692 17.5645 277.686 17.5059V9.40336C277.692 9.34474 277.728 9.28997 277.788 9.25C277.847 9.21003 277.925 9.18781 278.006 9.18781C278.087 9.18781 278.165 9.21003 278.224 9.25C278.283 9.28997 278.32 9.34474 278.326 9.40336ZM276.195 9.40336V17.5059C276.189 17.5645 276.152 17.6193 276.093 17.6592C276.034 17.6992 275.956 17.7214 275.875 17.7214C275.794 17.7214 275.716 17.6992 275.657 17.6592C275.598 17.6193 275.561 17.5645 275.555 17.5059V9.40336C275.561 9.34474 275.598 9.28997 275.657 9.25C275.716 9.21003 275.794 9.18781 275.875 9.18781C275.956 9.18781 276.034 9.21003 276.093 9.25C276.152 9.28997 276.189 9.34474 276.195 9.40336ZM274.064 9.40336V17.5059C274.058 17.5645 274.021 17.6193 273.962 17.6592C273.903 17.6992 273.825 17.7214 273.744 17.7214C273.663 17.7214 273.585 17.6992 273.526 17.6592C273.467 17.6193 273.43 17.5645 273.424 17.5059V9.40336C273.43 9.34474 273.467 9.28997 273.526 9.25C273.585 9.21003 273.663 9.18781 273.744 9.18781C273.825 9.18781 273.903 9.21003 273.962 9.25C274.021 9.28997 274.058 9.34474 274.064 9.40336ZM271.933 9.40336V17.5059C271.927 17.5645 271.891 17.6193 271.831 17.6592C271.772 17.6992 271.694 17.7214 271.613 17.7214C271.532 17.7214 271.454 17.6992 271.395 17.6592C271.336 17.6193 271.299 17.5645 271.293 17.5059V9.40336C271.299 9.34474 271.336 9.28997 271.395 9.25C271.454 9.21003 271.532 9.18781 271.613 9.18781C271.694 9.18781 271.772 9.21003 271.831 9.25C271.891 9.28997 271.927 9.34474 271.933 9.40336ZM307.834 10.3658C307.919 10.3658 308.001 10.3904 308.061 10.4341C308.121 10.4778 308.155 10.537 308.155 10.5988V17.5059C308.149 17.5645 308.112 17.6193 308.053 17.6592C307.994 17.6992 307.916 17.7214 307.835 17.7214C307.754 17.7214 307.676 17.6992 307.617 17.6592C307.557 17.6193 307.521 17.5645 307.515 17.5059V10.6015C307.514 10.5707 307.522 10.5402 307.538 10.5116C307.553 10.483 307.577 10.457 307.606 10.4351C307.636 10.4131 307.672 10.3957 307.711 10.3838C307.75 10.3719 307.792 10.3658 307.834 10.3658ZM306.022 9.40336V17.5059C306.016 17.5645 305.98 17.6193 305.92 17.6592C305.861 17.6992 305.783 17.7214 305.702 17.7214C305.621 17.7214 305.543 17.6992 305.484 17.6592C305.425 17.6193 305.388 17.5645 305.382 17.5059V9.40336C305.388 9.34474 305.425 9.28997 305.484 9.25C305.543 9.21003 305.621 9.18781 305.702 9.18781C305.783 9.18781 305.861 9.21003 305.92 9.25C305.98 9.28997 306.016 9.34474 306.022 9.40336ZM303.891 9.40336V17.5059C303.885 17.5645 303.849 17.6193 303.789 17.6592C303.73 17.6992 303.652 17.7214 303.571 17.7214C303.49 17.7214 303.412 17.6992 303.353 17.6592C303.294 17.6193 303.257 17.5645 303.251 17.5059V9.40336C303.257 9.34474 303.294 9.28997 303.353 9.25C303.412 9.21003 303.49 9.18781 303.571 9.18781C303.652 9.18781 303.73 9.21003 303.789 9.25C303.849 9.28997 303.885 9.34474 303.891 9.40336ZM301.76 9.40336V17.5059C301.754 17.5645 301.718 17.6193 301.658 17.6592C301.599 17.6992 301.521 17.7214 301.44 17.7214C301.359 17.7214 301.282 17.6992 301.222 17.6592C301.163 17.6193 301.127 17.5645 301.121 17.5059V9.40336C301.127 9.34474 301.163 9.28997 301.222 9.25C301.282 9.21003 301.359 9.18781 301.44 9.18781C301.521 9.18781 301.599 9.21003 301.658 9.25C301.718 9.28997 301.754 9.34474 301.76 9.40336ZM299.629 9.40336V17.5059C299.629 17.5673 299.596 17.6263 299.536 17.6697C299.476 17.7132 299.395 17.7376 299.31 17.7376C299.226 17.7376 299.145 17.7132 299.085 17.6697C299.025 17.6263 298.991 17.5673 298.991 17.5059V9.40336C298.991 9.3419 299.025 9.28296 299.085 9.2395C299.145 9.19604 299.226 9.17163 299.31 9.17163C299.395 9.17163 299.476 9.19604 299.536 9.2395C299.596 9.28296 299.629 9.3419 299.629 9.40336ZM297.498 9.40336V17.5059C297.498 17.5673 297.465 17.6263 297.405 17.6697C297.345 17.7132 297.264 17.7376 297.179 17.7376C297.095 17.7376 297.014 17.7132 296.954 17.6697C296.894 17.6263 296.861 17.5673 296.861 17.5059V9.40336C296.861 9.3419 296.894 9.28296 296.954 9.2395C297.014 9.19604 297.095 9.17163 297.179 9.17163C297.264 9.17163 297.345 9.19604 297.405 9.2395C297.465 9.28296 297.498 9.3419 297.498 9.40336ZM295.369 9.40336V17.5059C295.363 17.5645 295.327 17.6193 295.268 17.6592C295.208 17.6992 295.13 17.7214 295.049 17.7214C294.969 17.7214 294.891 17.6992 294.831 17.6592C294.772 17.6193 294.736 17.5645 294.73 17.5059V9.40336C294.736 9.34474 294.772 9.28997 294.831 9.25C294.891 9.21003 294.969 9.18781 295.049 9.18781C295.13 9.18781 295.208 9.21003 295.268 9.25C295.327 9.28997 295.363 9.34474 295.369 9.40336ZM293.238 9.40336V17.5059C293.232 17.5645 293.196 17.6193 293.137 17.6592C293.077 17.6992 292.999 17.7214 292.919 17.7214C292.838 17.7214 292.76 17.6992 292.7 17.6592C292.641 17.6193 292.605 17.5645 292.599 17.5059V9.40336C292.605 9.34474 292.641 9.28997 292.7 9.25C292.76 9.21003 292.838 9.18781 292.919 9.18781C292.999 9.18781 293.077 9.21003 293.137 9.25C293.196 9.28997 293.232 9.34474 293.238 9.40336ZM291.107 9.40336V17.5059C291.101 17.5645 291.065 17.6193 291.006 17.6592C290.946 17.6992 290.869 17.7214 290.788 17.7214C290.707 17.7214 290.629 17.6992 290.57 17.6592C290.51 17.6193 290.474 17.5645 290.468 17.5059V9.40336C290.474 9.34474 290.51 9.28997 290.57 9.25C290.629 9.21003 290.707 9.18781 290.788 9.18781C290.869 9.18781 290.946 9.21003 291.006 9.25C291.065 9.28997 291.101 9.34474 291.107 9.40336ZM288.337 9.40336C288.343 9.34474 288.379 9.28997 288.439 9.25C288.498 9.21003 288.576 9.18781 288.657 9.18781C288.738 9.18781 288.816 9.21003 288.875 9.25C288.934 9.28997 288.97 9.34474 288.977 9.40336V17.5059C288.97 17.5645 288.934 17.6193 288.875 17.6592C288.816 17.6992 288.738 17.7214 288.657 17.7214C288.576 17.7214 288.498 17.6992 288.439 17.6592C288.379 17.6193 288.343 17.5645 288.337 17.5059V9.40336ZM309.644 17.5059V12.0498C309.65 11.9912 309.687 11.9364 309.746 11.8964C309.805 11.8564 309.883 11.8342 309.964 11.8342C310.045 11.8342 310.123 11.8564 310.182 11.8964C310.241 11.9364 310.278 11.9912 310.284 12.0498V17.5125C310.278 17.5711 310.241 17.6258 310.182 17.6658C310.123 17.7058 310.045 17.728 309.964 17.728C309.883 17.728 309.805 17.7058 309.746 17.6658C309.687 17.6258 309.65 17.5711 309.644 17.5125V17.5059ZM279.815 7.02421V7.8629H278.324V7.02421H279.815ZM280.455 7.02421H281.946V7.8629H280.455V7.02421ZM282.584 7.02421H284.075V7.8629H282.578L282.584 7.02421ZM284.715 7.02421H286.202V7.8629H284.711L284.715 7.02421ZM286.846 7.02421H288.337V7.8629H286.846V7.02421ZM297.498 7.8629V7.02421H298.991V7.8629H297.498ZM296.861 7.8629H295.369V7.02421H296.861V7.8629ZM294.73 7.8629H293.238V7.02421H294.73V7.8629ZM292.599 7.8629H291.107V7.02421H292.599V7.8629ZM290.468 7.8629H288.977V7.02421H290.468V7.8629ZM303.891 7.8629V7.02421H305.382V7.8629H303.891ZM303.251 7.8629H301.76V7.02421H303.251V7.8629ZM301.121 7.8629H299.629V7.02421H301.121V7.8629ZM277.684 7.8629H276.193V7.02421H277.686L277.684 7.8629ZM275.553 7.8629H274.062V7.02421H275.553V7.8629ZM269.802 10.6015V17.5085C269.796 17.5671 269.76 17.6219 269.7 17.6619C269.641 17.7018 269.563 17.724 269.482 17.724C269.401 17.724 269.323 17.7018 269.264 17.6619C269.205 17.6219 269.168 17.5671 269.162 17.5085V10.6015C269.159 10.5695 269.165 10.5374 269.179 10.5071C269.194 10.4768 269.217 10.449 269.247 10.4255C269.277 10.402 269.313 10.3832 269.354 10.3704C269.394 10.3576 269.438 10.3509 269.482 10.3509C269.526 10.3509 269.57 10.3576 269.611 10.3704C269.651 10.3832 269.687 10.402 269.717 10.4255C269.747 10.449 269.77 10.4768 269.785 10.5071C269.8 10.5374 269.805 10.5695 269.802 10.6015ZM267.671 12.0498V17.5125C267.671 17.5739 267.638 17.6329 267.578 17.6763C267.518 17.7198 267.437 17.7442 267.352 17.7442C267.268 17.7442 267.187 17.7198 267.127 17.6763C267.067 17.6329 267.033 17.5739 267.033 17.5125V12.0498C267.033 11.9883 267.067 11.9294 267.127 11.8859C267.187 11.8425 267.268 11.818 267.352 11.818C267.437 11.818 267.518 11.8425 267.578 11.8859C267.638 11.9294 267.671 11.9883 267.671 12.0498ZM271.773 25.981H273.123V26.609H271.773V25.981ZM304.337 25.981H305.772V26.609H304.333L304.337 25.981ZM309.894 23.145H308.528V22.7671H306.841V23.4254H307.481V23.2345H307.888V23.6295H306.415V22.5117H309.894V23.145ZM309.894 21.8033H308.155V20.7579H309.894V21.8033ZM307.515 7.8629H306.024V7.02421H307.515V7.8629ZM300.104 4.11578V3.30078H301.372V5.65097H305.48V6.30928H300.388V4.5213H297.524V4.11578H300.104ZM289.498 2.70172V4.11446H292.967V1.59575H290.513V2.93081H291.153V2.06052H292.329V3.65101H290.138V1.18234H294.018V4.11578H296.893V4.5213H289.12V2.70172H289.498ZM283.399 4.11446V1.18234H287.29V3.65101H285.099V2.06052H286.275V2.93081H286.913V1.59575H284.459V4.11578H287.927V2.70172H288.491V4.51998H280.538V4.11446H283.399ZM271.933 5.65097H276.041V3.30078H277.309V4.11578H279.884V4.5213H277.202V6.31455H271.933V5.65097ZM269.802 7.02421H271.293V7.8629H269.802V7.02421ZM260.731 20.8817V21.7204H259.24V20.8817H260.731ZM258.6 20.8817V21.7204H257.109V20.8817H258.6ZM256.471 20.8817V21.7204H254.98V20.8817H256.471ZM252.847 20.8817H254.339V21.7204H252.847V20.8817ZM250.716 20.8817H252.208V21.7204H250.716V20.8817ZM248.585 20.8817H250.077V21.7204H248.585V20.8817ZM246.455 20.8817H247.946V21.7204H246.455V20.8817ZM244.005 31.5951C243.963 31.5953 243.921 31.5894 243.882 31.5778C243.843 31.5663 243.808 31.5492 243.778 31.5277C243.748 31.5062 243.725 31.4806 243.708 31.4524C243.692 31.4242 243.684 31.3939 243.684 31.3634V25.9007C243.69 25.8421 243.726 25.7873 243.786 25.7473C243.845 25.7074 243.923 25.6851 244.004 25.6851C244.085 25.6851 244.163 25.7074 244.222 25.7473C244.281 25.7873 244.318 25.8421 244.324 25.9007V31.3634C244.324 31.4246 244.29 31.4833 244.231 31.5268C244.171 31.5702 244.091 31.5948 244.007 31.5951H244.005ZM245.817 35.6543H244.077V34.6089H245.817V35.6543ZM246.456 31.3634C246.45 31.422 246.414 31.4768 246.355 31.5167C246.295 31.5567 246.217 31.5789 246.137 31.5789C246.056 31.5789 245.978 31.5567 245.918 31.5167C245.859 31.4768 245.823 31.422 245.817 31.3634V24.4563C245.813 24.4244 245.819 24.3922 245.834 24.3619C245.848 24.3317 245.871 24.3039 245.901 24.2804C245.931 24.2568 245.968 24.2381 246.008 24.2253C246.049 24.2124 246.092 24.2058 246.137 24.2058C246.181 24.2058 246.224 24.2124 246.265 24.2253C246.305 24.2381 246.342 24.2568 246.372 24.2804C246.402 24.3039 246.425 24.3317 246.439 24.3619C246.454 24.3922 246.46 24.4244 246.456 24.4563V31.3634ZM247.948 35.6543H246.456V34.6089H247.948V35.6543ZM248.587 31.3634C248.581 31.422 248.545 31.4768 248.486 31.5167C248.426 31.5567 248.348 31.5789 248.267 31.5789C248.187 31.5789 248.109 31.5567 248.049 31.5167C247.99 31.4768 247.954 31.422 247.948 31.3634V23.2609C247.954 23.2022 247.99 23.1475 248.049 23.1075C248.109 23.0675 248.187 23.0453 248.267 23.0453C248.348 23.0453 248.426 23.0675 248.486 23.1075C248.545 23.1475 248.581 23.2022 248.587 23.2609V31.3634ZM250.079 35.6543H248.587V34.6089H250.079V35.6543ZM250.718 31.3634C250.712 31.422 250.676 31.4768 250.616 31.5167C250.557 31.5567 250.479 31.5789 250.398 31.5789C250.317 31.5789 250.24 31.5567 250.18 31.5167C250.121 31.4768 250.085 31.422 250.079 31.3634V23.2609C250.085 23.2022 250.121 23.1475 250.18 23.1075C250.24 23.0675 250.317 23.0453 250.398 23.0453C250.479 23.0453 250.557 23.0675 250.616 23.1075C250.676 23.1475 250.712 23.2022 250.718 23.2609V31.3634ZM252.209 35.6543H250.718V34.6089H252.209V35.6543ZM252.849 31.3634C252.843 31.422 252.807 31.4768 252.747 31.5167C252.688 31.5567 252.61 31.5789 252.529 31.5789C252.448 31.5789 252.37 31.5567 252.311 31.5167C252.252 31.4768 252.215 31.422 252.209 31.3634V23.2609C252.215 23.2022 252.252 23.1475 252.311 23.1075C252.37 23.0675 252.448 23.0453 252.529 23.0453C252.61 23.0453 252.688 23.0675 252.747 23.1075C252.807 23.1475 252.843 23.2022 252.849 23.2609V31.3634ZM254.34 35.6543H252.849V34.6089H254.34V35.6543ZM254.98 31.3634C254.974 31.422 254.938 31.4768 254.878 31.5167C254.819 31.5567 254.741 31.5789 254.66 31.5789C254.579 31.5789 254.501 31.5567 254.442 31.5167C254.383 31.4768 254.346 31.422 254.34 31.3634V23.2609C254.346 23.2022 254.383 23.1475 254.442 23.1075C254.501 23.0675 254.579 23.0453 254.66 23.0453C254.741 23.0453 254.819 23.0675 254.878 23.1075C254.938 23.1475 254.974 23.2022 254.98 23.2609V31.3634ZM256.471 35.6543H254.98V34.6089H256.471V35.6543ZM257.109 31.3634C257.109 31.4248 257.075 31.4838 257.016 31.5272C256.956 31.5707 256.875 31.5951 256.79 31.5951C256.706 31.5951 256.624 31.5707 256.565 31.5272C256.505 31.4838 256.471 31.4248 256.471 31.3634V23.2609C256.471 23.1994 256.505 23.1405 256.565 23.097C256.624 23.0535 256.706 23.0291 256.79 23.0291C256.875 23.0291 256.956 23.0535 257.016 23.097C257.075 23.1405 257.109 23.1994 257.109 23.2609V31.3634ZM258.6 35.6543H257.109V34.6089H258.6V35.6543ZM259.24 31.3634C259.234 31.422 259.198 31.4768 259.138 31.5167C259.079 31.5567 259.001 31.5789 258.92 31.5789C258.839 31.5789 258.761 31.5567 258.702 31.5167C258.643 31.4768 258.606 31.422 258.6 31.3634V23.2609C258.606 23.2022 258.643 23.1475 258.702 23.1075C258.761 23.0675 258.839 23.0453 258.92 23.0453C259.001 23.0453 259.079 23.0675 259.138 23.1075C259.198 23.1475 259.234 23.2022 259.24 23.2609V31.3634ZM260.731 35.6543H259.24V34.6089H260.731V35.6543ZM261.378 31.3634C261.372 31.422 261.336 31.4768 261.276 31.5167C261.217 31.5567 261.139 31.5789 261.058 31.5789C260.977 31.5789 260.899 31.5567 260.84 31.5167C260.781 31.4768 260.745 31.422 260.738 31.3634V23.2609C260.745 23.2022 260.781 23.1475 260.84 23.1075C260.899 23.0675 260.977 23.0453 261.058 23.0453C261.139 23.0453 261.217 23.0675 261.276 23.1075C261.336 23.1475 261.372 23.2022 261.378 23.2609V31.3634ZM262.869 35.6543H261.378V34.6089H262.869V35.6543ZM262.869 31.3634V23.2609C262.87 23.2111 262.892 23.1626 262.933 23.1228C262.974 23.083 263.032 23.0538 263.098 23.0397V31.5846C263.031 31.5714 262.971 31.5426 262.929 31.5027C262.886 31.4628 262.863 31.4139 262.862 31.3634H262.869ZM267.581 31.025V27.3121H269.574V30.0152H268.349V31.025H267.581ZM271.706 28.48V31.9888H268.969V30.4825H270.761V31.179H270.193V30.8183H269.554V31.6438H271.4V30.0152H270.193V27.3121H273.123V28.0547H273.486V28.48H271.706ZM275.789 28.9447H277.505V29.4003H275.782L275.789 28.9447ZM298.819 28.9447V29.4003H297.328V28.9447H298.819ZM296.688 29.4003H295.197V28.9447H296.688V29.4003ZM294.557 29.4003H293.066V28.9447H294.557V29.4003ZM292.427 29.4003H290.935V28.9447H292.427V29.4003ZM290.296 29.4003H288.804V28.9447H290.296V29.4003ZM288.165 29.4003H286.674V28.9447H288.165V29.4003ZM286.034 29.4003H284.543V28.9447H286.034V29.4003ZM283.905 29.4003H282.412V28.9447H283.905V29.4003ZM281.774 29.4003H280.283V28.9447H281.774V29.4003ZM279.643 29.4003H278.152V28.9447H279.643V29.4003ZM299.457 29.4003V28.9447H301.677V29.4003H299.457ZM301.994 28.4786H274.135V28.0534H303.326V28.4786H301.994ZM308.49 31.9888H305.756V28.48H303.96V28.0547H304.333V27.3121H307.263V30.0152H306.056V31.6412H307.903V30.8157H307.263V31.1764H306.694V30.4825H308.488L308.49 31.9888ZM309.13 31.025V30.0152H307.905V27.3121H309.898V31.025H309.13ZM314.419 31.5951C314.401 31.5964 314.384 31.5964 314.366 31.5951V23.037C314.384 23.0357 314.401 23.0357 314.419 23.037C314.503 23.037 314.584 23.0614 314.644 23.1049C314.704 23.1484 314.738 23.2073 314.738 23.2688V31.3713C314.735 31.4311 314.7 31.4879 314.641 31.5296C314.582 31.5713 314.503 31.5948 314.421 31.5951H314.419ZM316.231 35.6543H314.739V34.6089H316.231V35.6543ZM316.231 21.7204H314.739V20.8817H316.231V21.7204ZM316.55 31.5951C316.465 31.5951 316.384 31.5707 316.324 31.5272C316.264 31.4838 316.231 31.4248 316.231 31.3634V23.2609C316.237 23.2022 316.273 23.1475 316.332 23.1075C316.392 23.0675 316.47 23.0453 316.551 23.0453C316.631 23.0453 316.709 23.0675 316.769 23.1075C316.828 23.1475 316.864 23.2022 316.87 23.2609V31.3634C316.87 31.3939 316.862 31.4242 316.846 31.4524C316.83 31.4806 316.806 31.5062 316.776 31.5277C316.746 31.5492 316.711 31.5663 316.672 31.5778C316.633 31.5894 316.592 31.5953 316.55 31.5951ZM318.362 35.6543H316.87V34.6089H318.362V35.6543ZM318.362 21.7204H316.87V20.8817H318.362V21.7204ZM318.681 31.5951C318.596 31.5951 318.515 31.5707 318.455 31.5272C318.395 31.4838 318.362 31.4248 318.362 31.3634V23.2609C318.368 23.2022 318.404 23.1475 318.463 23.1075C318.523 23.0675 318.601 23.0453 318.681 23.0453C318.762 23.0453 318.84 23.0675 318.9 23.1075C318.959 23.1475 318.995 23.2022 319.001 23.2609V31.3634C319.001 31.3939 318.993 31.4242 318.977 31.4524C318.961 31.4806 318.937 31.5062 318.907 31.5277C318.877 31.5492 318.842 31.5663 318.803 31.5778C318.764 31.5894 318.723 31.5953 318.681 31.5951ZM320.493 35.6543H318.999V34.6089H320.491L320.493 35.6543ZM320.493 21.7204H318.999V20.8817H320.491L320.493 21.7204ZM320.811 31.5951C320.727 31.5951 320.646 31.5707 320.586 31.5272C320.526 31.4838 320.493 31.4248 320.493 31.3634V23.2609C320.499 23.2022 320.535 23.1475 320.594 23.1075C320.654 23.0675 320.731 23.0453 320.812 23.0453C320.893 23.0453 320.971 23.0675 321.03 23.1075C321.09 23.1475 321.126 23.2022 321.132 23.2609V31.3634C321.132 31.3939 321.124 31.4242 321.108 31.4524C321.092 31.4806 321.068 31.5062 321.038 31.5277C321.008 31.5492 320.973 31.5663 320.934 31.5778C320.895 31.5894 320.853 31.5953 320.811 31.5951ZM322.623 35.6543H321.132V34.6089H322.623V35.6543ZM322.623 21.7204H321.132V20.8817H322.623V21.7204ZM322.942 31.5951C322.858 31.5951 322.777 31.5707 322.717 31.5272C322.657 31.4838 322.623 31.4248 322.623 31.3634V23.2609C322.623 23.1994 322.657 23.1405 322.717 23.097C322.777 23.0535 322.858 23.0291 322.942 23.0291C323.027 23.0291 323.108 23.0535 323.168 23.097C323.228 23.1405 323.261 23.1994 323.261 23.2609V31.3634C323.261 31.4248 323.228 31.4838 323.168 31.5272C323.108 31.5707 323.027 31.5951 322.942 31.5951ZM324.754 35.6543H323.263V34.6089H324.754V35.6543ZM324.754 21.7204H323.263V20.8817H324.754V21.7204ZM325.075 31.5951C325.033 31.5953 324.991 31.5894 324.952 31.5778C324.914 31.5663 324.878 31.5492 324.848 31.5277C324.819 31.5062 324.795 31.4806 324.779 31.4524C324.763 31.4242 324.754 31.3939 324.754 31.3634V23.2609C324.76 23.2022 324.797 23.1475 324.856 23.1075C324.915 23.0675 324.993 23.0453 325.074 23.0453C325.155 23.0453 325.233 23.0675 325.292 23.1075C325.352 23.1475 325.388 23.2022 325.394 23.2609V31.3634C325.394 31.3939 325.386 31.4242 325.37 31.4524C325.353 31.4806 325.33 31.5062 325.3 31.5277C325.27 31.5492 325.235 31.5663 325.196 31.5778C325.157 31.5894 325.115 31.5953 325.073 31.5951H325.075ZM326.887 35.6543H325.396V34.6089H326.887V35.6543ZM326.887 21.7204H325.396V20.8817H326.887V21.7204ZM327.208 31.5951C327.166 31.5953 327.124 31.5894 327.085 31.5778C327.046 31.5663 327.011 31.5492 326.981 31.5277C326.951 31.5062 326.928 31.4806 326.911 31.4524C326.895 31.4242 326.887 31.3939 326.887 31.3634V23.2609C326.893 23.2022 326.929 23.1475 326.989 23.1075C327.048 23.0675 327.126 23.0453 327.207 23.0453C327.288 23.0453 327.366 23.0675 327.425 23.1075C327.484 23.1475 327.521 23.2022 327.527 23.2609V31.3634C327.527 31.394 327.518 31.4244 327.502 31.4527C327.486 31.4809 327.462 31.5066 327.432 31.5282C327.402 31.5497 327.366 31.5667 327.327 31.5782C327.288 31.5897 327.246 31.5954 327.204 31.5951H327.208ZM329.02 35.6543H327.516V34.6089H329.007L329.02 35.6543ZM329.02 21.7204H327.516V20.8817H329.007L329.02 21.7204ZM329.34 31.5951C329.298 31.5953 329.257 31.5894 329.218 31.5778C329.179 31.5663 329.144 31.5492 329.114 31.5277C329.084 31.5062 329.06 31.4806 329.044 31.4524C329.028 31.4242 329.02 31.3939 329.02 31.3634V23.2609C329.026 23.2022 329.062 23.1475 329.121 23.1075C329.181 23.0675 329.259 23.0453 329.34 23.0453C329.42 23.0453 329.498 23.0675 329.558 23.1075C329.617 23.1475 329.653 23.2022 329.659 23.2609V31.3634C329.659 31.3946 329.651 31.4255 329.634 31.4542C329.617 31.483 329.593 31.5089 329.562 31.5306C329.531 31.5522 329.494 31.5691 329.454 31.5802C329.414 31.5913 329.371 31.5963 329.328 31.5951H329.34ZM331.152 35.6543H329.661V34.6089H331.14L331.152 35.6543ZM331.152 21.7204H329.661V20.8817H331.14L331.152 21.7204ZM331.471 31.5951C331.387 31.5951 331.306 31.5707 331.246 31.5272C331.186 31.4838 331.152 31.4248 331.152 31.3634V24.4563C331.149 24.4244 331.155 24.3922 331.17 24.3619C331.184 24.3317 331.207 24.3039 331.237 24.2804C331.267 24.2568 331.304 24.2381 331.344 24.2253C331.384 24.2124 331.428 24.2058 331.472 24.2058C331.516 24.2058 331.56 24.2124 331.601 24.2253C331.641 24.2381 331.677 24.2568 331.707 24.2804C331.737 24.3039 331.76 24.3317 331.775 24.3619C331.79 24.3922 331.795 24.4244 331.792 24.4563V31.3634C331.792 31.3944 331.784 31.4251 331.767 31.4536C331.75 31.4822 331.726 31.508 331.696 31.5296C331.665 31.5512 331.629 31.5681 331.589 31.5794C331.549 31.5906 331.507 31.596 331.464 31.5951H331.471ZM333.532 35.6543H331.792V34.6089H333.532V35.6543ZM333.923 31.3634C333.917 31.422 333.881 31.4768 333.821 31.5167C333.762 31.5567 333.684 31.5789 333.603 31.5789C333.522 31.5789 333.444 31.5567 333.385 31.5167C333.326 31.4768 333.289 31.422 333.283 31.3634V25.9007C333.289 25.8421 333.326 25.7873 333.385 25.7473C333.444 25.7074 333.522 25.6851 333.603 25.6851C333.684 25.6851 333.762 25.7074 333.821 25.7473C333.881 25.7873 333.917 25.8421 333.923 25.9007V31.3634Z" stroke="#F2DD7C" stroke-width="8" mask="url(#path-1-inside-1_3539_725)"/>
<g filter="url(#filter1_d_3539_725)">
<path d="M6 48V56L7 66L9 74L20 112L25 127L103 131H233H550L567 78L572 54V48L571 46L568 47L559 51L553 53L546 55L524 59L510 60H58L44 58L29 54L15 49L6 46V48Z" fill="black"/>
<path d="M6 48V56L7 66L9 74L20 112L25 127L103 131H233H550L567 78L572 54V48L571 46L568 47L559 51L553 53L546 55L524 59L510 60H58L44 58L29 54L15 49L6 46V48Z" stroke="#EDECEC" stroke-width="1.25"/>
</g>
<path d="M7.01575 51.0897C7.04497 50.7414 7.15035 50.4047 7.32382 50.1054C7.4973 49.8061 7.73425 49.5522 8.01648 49.3632C8.29872 49.1742 8.61874 49.0551 8.952 49.0151C9.28526 48.975 9.6229 49.015 9.93901 49.1321C10.9314 49.6345 11.7396 50.4603 12.2413 51.4844C12.4685 51.7538 12.6713 52.0444 12.8471 52.3527C13.4235 53.5532 14.0658 54.7181 14.7707 55.8416C15.5281 56.9151 16.2854 57.9886 17.0275 59.1095C17.3002 59.3305 17.5577 59.5673 17.8304 59.7567C19.345 60.8302 20.0568 62.3458 21.4352 63.4824C22.6657 64.3539 23.7592 65.419 24.6765 66.6398C26.7425 67.2787 28.6603 68.3534 30.311 69.7972C31.2992 70.7357 32.5662 71.2929 33.9007 71.3759C34.9645 71.3914 36.0265 71.4704 37.0815 71.6127C38.7779 71.7232 40.4137 70.4918 41.9738 69.8761C43.0616 69.374 44.1739 68.9314 45.306 68.55C46.3527 68.3791 47.414 68.3261 48.4716 68.3922C49.7742 68.3922 50.8193 67.6975 52.0765 67.587C53.9092 67.4449 55.2118 68.9447 56.6204 69.9235C57.6201 70.6023 58.7864 70.7917 59.786 71.5022C60.7387 72.378 61.7858 73.1356 62.9062 73.7597C63.088 73.7597 63.0274 74.1859 62.8153 74.1386C61.1644 73.8071 60.1344 72.1021 58.6046 71.4232C57.7434 71.1084 56.916 70.7011 56.1357 70.2076C55.2839 69.438 54.3235 68.8097 53.2882 68.3448C52.233 68.1381 51.1419 68.299 50.1832 68.8026C49.1184 69.0102 48.0397 69.1315 46.957 69.1657C44.4275 69.513 41.8526 71.1864 39.5807 72.3231C37.7176 73.2703 35.8092 72.9388 33.8553 73.444C33.0531 73.5859 32.2309 73.5436 31.4461 73.32C30.6612 73.0964 29.9327 72.6969 29.3114 72.1494C27.9936 71.2654 26.8879 70.255 25.5853 69.4814C25.7192 70.6528 25.6936 71.838 25.5096 73.0019C25.0447 75.1443 25.3464 77.3898 26.3578 79.3167C27.4332 81.4479 28.3723 83.6581 29.4931 85.7577C30.0021 86.5844 30.5691 87.3706 31.1895 88.11C31.5973 88.8611 31.8646 89.6861 31.9771 90.5412C31.9771 90.8095 32.1437 91.0937 32.2346 91.3621C32.8002 92.3208 33.2721 93.3362 33.6432 94.3932L33.7341 94.6773C33.9775 95.0087 34.3 95.2676 34.6695 95.4283C35.0389 95.589 35.4424 95.6458 35.8395 95.593C38.8476 95.5287 41.8397 96.0645 44.6547 97.1717C44.8668 97.0612 45.094 96.9664 45.306 96.8401C47.9546 95.5305 50.8288 94.7896 53.7577 94.6616C56.5901 94.33 57.7716 95.6719 59.2862 98.0084C59.4727 98.4346 59.7413 98.8161 60.0755 99.1293C60.4096 99.4425 60.8021 99.6806 61.2284 99.8287C61.6548 99.9768 62.1058 100.032 62.5534 99.9902C63.001 99.9487 63.4357 99.8114 63.8302 99.5871C65.1443 99.1641 66.5017 98.9045 67.8742 98.8135C67.9227 98.8269 67.9656 98.8566 67.9961 98.898C68.0267 98.9394 68.0433 98.9902 68.0433 99.0424C68.0433 99.0947 68.0267 99.1454 67.9961 99.1868C67.9656 99.2282 67.9227 99.2579 67.8742 99.2713C66.6115 99.6004 65.3757 100.033 64.1785 100.566C63.391 101.035 62.5092 101.305 61.6036 101.355C59.8012 101.26 58.7409 99.7765 57.8321 98.1978C57.5229 97.5155 57.0275 96.9433 56.4078 96.553C55.7882 96.1627 55.0718 95.9715 54.3485 96.0034C53.0538 96.1384 51.7687 96.3599 50.5012 96.6665C49.1277 96.7949 47.7801 97.1354 46.5026 97.6768L46.3209 97.7873L47.5477 98.2294C49.0413 98.5596 50.4068 99.3454 51.4706 100.487C51.793 100.983 52.0671 101.512 52.2886 102.066C52.8606 103.095 53.5926 104.017 54.4545 104.797C55.8934 106.375 55.8783 108.586 58.0896 109.438C60.301 110.291 62.6336 109.438 64.7995 109.28C66.8515 109.077 68.9205 109.167 70.949 109.549C71.9856 109.908 72.9977 110.341 73.9783 110.843C74.8265 111.19 75.7353 111.08 76.5986 111.348C77.8255 111.727 78.9312 112.28 80.2186 112.548C81.1216 112.688 81.9966 112.981 82.8087 113.416C84.6647 114.403 86.4076 115.605 88.0039 117C86.4837 115.85 84.8665 114.846 83.1722 114C81.294 112.895 79.022 112.816 77.0076 112.074C76.0988 111.727 75.2051 111.806 74.2812 111.554C73.5282 111.256 72.7901 110.919 72.0698 110.543C69.7472 109.852 67.31 109.686 64.9207 110.054C61.8914 110.212 58.0442 111.727 55.6965 108.854C55.2829 108.289 54.9558 107.661 54.7271 106.991C54.1885 106.006 53.4678 105.142 52.6066 104.449C51.4252 103.297 50.7133 101.497 49.2441 100.771C47.4585 100.01 45.6001 99.4487 43.7005 99.0977H43.6096C41.2477 99.8233 38.781 100.107 36.3242 99.9344C35.6273 99.9711 34.9341 99.8081 34.3199 99.463C33.7057 99.1178 33.194 98.6038 32.8405 97.9768C32.8405 98.1504 32.9314 98.2925 32.9617 98.4662C33.416 100.945 32.9616 104.592 34.6581 106.549C35.3882 107.313 36.0521 108.142 36.6422 109.028C37.3259 110.056 38.2624 110.874 39.3535 111.396C40.9707 112.44 42.24 113.978 42.9886 115.8C43.0068 115.848 43.0087 115.9 42.994 115.949C42.9792 115.998 42.9487 116.04 42.9076 116.068C42.8665 116.095 42.8174 116.108 42.7687 116.102C42.7199 116.097 42.6745 116.074 42.6402 116.037C41.9521 115.046 41.2034 114.102 40.3986 113.211C39.6187 112.511 38.7464 111.932 37.8085 111.49C36.9818 110.936 36.3 110.177 35.8243 109.28C35.1882 108.238 34.2339 107.544 33.5978 106.533C32.3709 104.576 32.5982 101.687 32.3104 99.445C32.0226 97.2032 30.7957 95.2141 30.2959 93.1302C29.7824 92.4312 29.1448 91.8417 28.4177 91.3937C27.2969 90.7306 26.2972 89.8939 25.1915 89.1993C24.3565 88.7415 23.6789 88.0243 23.2528 87.147C22.344 85.0473 23.2528 82.9477 23.2528 80.8322C23.2674 80.6536 23.2674 80.4741 23.2528 80.2955C23.1273 80.4188 22.9738 80.5067 22.8067 80.5511C22.6396 80.5954 22.4645 80.5946 22.2977 80.5488C22.131 80.503 21.9782 80.4137 21.8538 80.2892C21.7294 80.1648 21.6374 80.0094 21.5866 79.8377C21.1474 78.6063 21.3595 77.3433 20.8596 76.1751C20.3347 74.917 19.6741 73.7253 18.8906 72.623C17.2097 70.166 15.8021 67.5179 14.695 64.7296C13.302 61.9947 11.7386 59.3579 10.0148 56.8361C9.60302 55.8483 9.01146 54.953 8.27288 54.1997C7.83845 53.8253 7.49728 53.3469 7.2784 52.8054C7.05951 52.2639 6.96941 51.6753 7.01575 51.0897ZM40.338 98.3083H40.6864C39.2402 97.851 37.7247 97.6796 36.2181 97.8031C35.8698 97.8031 35.5517 97.8979 35.2639 97.9137C36.6422 98.7661 39.0505 98.4978 40.338 98.3083ZM27.5846 87.4469C27.4483 87.2417 27.3271 87.0365 27.206 86.8312C26.3426 85.3473 25.6156 83.7844 24.828 82.253C24.853 83.0326 24.9391 83.8088 25.0855 84.5737C25.4944 86.1366 26.5244 86.7207 27.6604 87.4469H27.5846ZM22.7681 70.3181C22.7474 69.7318 22.6005 69.1579 22.3383 68.6387C22.0762 68.1195 21.7054 67.6684 21.2534 67.3186C20.9959 67.2239 20.9202 67.0976 20.9354 67.4449C21.5564 68.4711 22.1622 69.3551 22.8438 70.3181H22.7681Z" fill="#F2DD7C"/>
<path d="M570.989 49.9668C570.961 49.6389 570.863 49.322 570.7 49.0404C570.537 48.7587 570.315 48.5197 570.05 48.3419C569.785 48.164 569.485 48.0519 569.172 48.0142C568.859 47.9765 568.543 48.0142 568.246 48.1244C567.315 48.5972 566.557 49.3744 566.086 50.3382C565.873 50.5918 565.682 50.8653 565.517 51.1554C564.977 52.2854 564.374 53.3817 563.713 54.4391C563.002 55.4495 562.291 56.4598 561.595 57.5148C561.339 57.7228 561.098 57.9457 560.842 58.124C559.421 59.1343 558.753 60.5607 557.46 61.6305C556.305 62.4507 555.279 63.4532 554.418 64.6022C552.48 65.2035 550.68 66.2149 549.132 67.5738C548.204 68.4572 547.016 68.9816 545.763 69.0597C544.765 69.0742 543.769 69.1486 542.779 69.2825C541.187 69.3865 539.653 68.2276 538.189 67.6481C537.168 67.1755 536.124 66.7589 535.062 66.4C534.08 66.2391 533.084 66.1893 532.092 66.2514C530.87 66.2514 529.889 65.5977 528.71 65.4937C526.99 65.3599 525.768 66.7715 524.446 67.6927C523.508 68.3316 522.414 68.5099 521.476 69.1785C520.582 70.0029 519.6 70.7159 518.548 71.3032C518.378 71.3032 518.435 71.7044 518.634 71.6598C520.183 71.3478 521.149 69.7431 522.585 69.1042C523.393 68.808 524.169 68.4245 524.901 67.9601C525.7 67.2358 526.601 66.6444 527.573 66.2068C528.563 66.0124 529.587 66.1638 530.486 66.6377C531.485 66.8331 532.497 66.9473 533.513 66.9795C535.886 67.3064 538.302 68.8813 540.434 69.9511C542.182 70.8426 543.973 70.5306 545.806 71.0061C546.559 71.1397 547.33 71.0999 548.067 70.8894C548.803 70.679 549.487 70.303 550.07 69.7877C551.306 68.9556 552.343 68.0047 553.566 67.2766C553.44 68.3791 553.464 69.4946 553.637 70.59C554.073 72.6064 553.79 74.7198 552.841 76.5334C551.832 78.5392 550.951 80.6194 549.899 82.5955C549.421 83.3735 548.889 84.1135 548.307 84.8094C547.925 85.5164 547.674 86.2928 547.568 87.0976C547.568 87.3502 547.412 87.6176 547.327 87.8702C546.796 88.7725 546.353 89.7282 546.005 90.723L545.92 90.9904C545.691 91.3023 545.389 91.546 545.042 91.6972C544.696 91.8484 544.317 91.9019 543.944 91.8522C541.122 91.7917 538.315 92.296 535.673 93.338C535.474 93.234 535.261 93.1449 535.062 93.026C532.577 91.7934 529.88 91.0961 527.132 90.9756C524.475 90.6636 523.366 91.9265 521.945 94.1255C521.77 94.5266 521.518 94.8858 521.204 95.1805C520.891 95.4753 520.523 95.6994 520.123 95.8388C519.723 95.9782 519.299 96.0299 518.879 95.9908C518.459 95.9517 518.052 95.8225 517.682 95.6113C516.449 95.2133 515.175 94.9689 513.887 94.8833C513.842 94.8959 513.801 94.9238 513.773 94.9628C513.744 95.0018 513.728 95.0496 513.728 95.0987C513.728 95.1479 513.744 95.1957 513.773 95.2347C513.801 95.2736 513.842 95.3016 513.887 95.3142C515.072 95.6239 516.231 96.0313 517.355 96.5325C518.094 96.9737 518.921 97.2281 519.771 97.2755C521.462 97.1863 522.457 95.7896 523.309 94.3038C523.599 93.6616 524.064 93.1231 524.646 92.7558C525.227 92.3884 525.899 92.2085 526.578 92.2385C527.793 92.3656 528.998 92.574 530.188 92.8626C531.476 92.9835 532.741 93.304 533.939 93.8135L534.11 93.9175L532.959 94.3335C531.558 94.6443 530.276 95.3839 529.278 96.4583C528.976 96.9256 528.719 97.4233 528.511 97.9441C527.974 98.9125 527.287 99.7812 526.478 100.515C525.128 102 525.143 104.081 523.068 104.883C520.993 105.685 518.804 104.883 516.772 104.734C514.847 104.543 512.905 104.628 511.002 104.987C510.03 105.326 509.08 105.733 508.16 106.205C507.364 106.532 506.511 106.428 505.701 106.681C504.55 107.037 503.513 107.557 502.305 107.81C501.457 107.942 500.636 108.218 499.875 108.627C498.133 109.555 496.498 110.687 495 112C496.426 110.918 497.944 109.973 499.533 109.177C501.296 108.137 503.427 108.063 505.318 107.364C506.17 107.037 507.009 107.112 507.876 106.874C508.582 106.594 509.275 106.276 509.95 105.923C512.13 105.273 514.416 105.116 516.658 105.462C519.501 105.611 523.11 107.037 525.313 104.333C525.701 103.801 526.008 103.21 526.223 102.58C526.728 101.653 527.404 100.84 528.212 100.188C529.321 99.103 529.989 97.4092 531.367 96.7257C533.043 96.0091 534.786 95.4811 536.569 95.1507H536.654C538.87 95.8337 541.184 96.1003 543.49 95.9382C544.143 95.9728 544.794 95.8194 545.37 95.4945C545.946 95.1697 546.427 94.6859 546.758 94.0958C546.758 94.2592 546.673 94.393 546.645 94.5564C546.218 96.8891 546.645 100.321 545.053 102.164C544.368 102.883 543.745 103.663 543.191 104.497C542.55 105.465 541.671 106.234 540.647 106.725C539.13 107.708 537.939 109.155 537.237 110.871C537.219 110.915 537.218 110.965 537.232 111.011C537.245 111.057 537.274 111.096 537.313 111.122C537.351 111.149 537.397 111.16 537.443 111.155C537.489 111.15 537.531 111.128 537.563 111.094C538.209 110.161 538.912 109.272 539.667 108.434C540.398 107.775 541.217 107.23 542.097 106.814C542.873 106.293 543.512 105.578 543.959 104.734C544.556 103.754 545.451 103.1 546.048 102.149C547.199 100.307 546.986 97.5875 547.256 95.4776C547.526 93.3678 548.677 91.4956 549.146 89.5343C549.628 88.8765 550.226 88.3216 550.908 87.8999C551.96 87.2759 552.898 86.4884 553.935 85.8346C554.719 85.4038 555.354 84.7287 555.754 83.903C556.607 81.9269 555.754 79.9507 555.754 77.9597C555.74 77.7916 555.74 77.6226 555.754 77.4546C555.872 77.5706 556.016 77.6534 556.173 77.6951C556.329 77.7368 556.494 77.7361 556.65 77.693C556.807 77.6499 556.95 77.5658 557.067 77.4487C557.183 77.3316 557.27 77.1853 557.317 77.0237C557.73 75.8647 557.531 74.6761 558 73.5766C558.492 72.3925 559.112 71.2709 559.847 70.2334C561.424 67.921 562.745 65.4286 563.784 62.8043C565.091 60.2303 566.558 57.7486 568.175 55.3752C568.561 54.4455 569.116 53.6028 569.809 52.8939C570.217 52.5414 570.537 52.0912 570.742 51.5816C570.948 51.0719 571.032 50.5179 570.989 49.9668ZM539.724 94.4078H539.397C540.754 93.9774 542.176 93.8161 543.589 93.9324C543.916 93.9324 544.214 94.0215 544.484 94.0364C543.191 94.8387 540.932 94.5861 539.724 94.4078ZM551.69 84.1853C551.818 83.9922 551.931 83.799 552.045 83.6059C552.855 82.2092 553.537 80.7382 554.276 79.297C554.253 80.0307 554.172 80.7612 554.035 81.4812C553.651 82.9521 552.684 83.5019 551.619 84.1853H551.69ZM556.209 68.0641C556.228 67.5123 556.366 66.9721 556.612 66.4835C556.858 65.9948 557.206 65.5702 557.63 65.2411C557.872 65.1519 557.943 65.0331 557.929 65.3599C557.346 66.3257 556.777 67.1578 556.138 68.0641H556.209Z" fill="#F2DD7C"/>
<path d="M132.92 80H165.08V116H156.632V103.376H146.744C146.648 105.2 146.216 106.928 145.448 108.56C144.712 110.16 143.72 111.552 142.472 112.736C141.224 113.92 139.784 114.864 138.152 115.568C136.52 116.24 134.776 116.576 132.92 116.576V108.08C133.592 108.08 134.232 107.968 134.84 107.744C135.448 107.488 135.992 107.152 136.472 106.736C136.952 106.288 137.336 105.792 137.624 105.248C137.944 104.672 138.136 104.048 138.2 103.376H132.92V95.744H138.248V88.496H132.92V80ZM156.632 88.496H146.744V95.744H156.632V88.496ZM207.451 84.224C207.451 85.088 207.403 86.016 207.307 87.008C207.211 87.968 207.019 88.96 206.731 89.984C206.443 90.976 206.027 91.968 205.483 92.96C204.971 93.92 204.283 94.832 203.419 95.696H208.939V116H179.227V88.496H173.707V80H207.451V84.224ZM187.723 88.496V94.736C189.579 94.736 191.147 94.608 192.427 94.352C193.739 94.096 194.811 93.712 195.643 93.2C196.507 92.688 197.163 92.048 197.611 91.28C198.091 90.48 198.427 89.552 198.619 88.496H187.723ZM200.443 103.232H187.723V107.504H200.443V103.232ZM241.477 80C242.853 80 244.133 80.272 245.317 80.816C246.533 81.328 247.589 82.032 248.485 82.928C249.381 83.824 250.085 84.88 250.597 86.096C251.141 87.28 251.413 88.544 251.413 89.888V116H231.589C230.245 116 228.965 115.744 227.749 115.232C226.565 114.688 225.525 113.968 224.629 113.072C223.733 112.176 223.013 111.136 222.469 109.952C221.957 108.736 221.701 107.456 221.701 106.112V88.496H216.181V80H241.477ZM242.917 89.888C242.917 89.504 242.773 89.184 242.485 88.928C242.197 88.64 241.861 88.496 241.477 88.496H230.197V106.112C230.197 106.496 230.325 106.832 230.581 107.12C230.869 107.376 231.205 107.504 231.589 107.504H242.917V89.888ZM294.777 105.872C294.777 107.248 294.825 108.48 294.921 109.568C295.049 110.624 295.177 111.52 295.305 112.256C295.465 112.992 295.609 113.552 295.737 113.936C295.865 114.32 295.929 114.512 295.929 114.512L295.881 114.464L288.009 117.536C287.945 117.376 287.753 116.784 287.433 115.76C287.113 114.704 286.841 113.216 286.617 111.296C284.857 112.768 282.873 113.92 280.665 114.752C278.489 115.584 276.169 116 273.705 116H265.113V88.496H259.593V80H273.609V107.504H274.665C276.265 107.504 277.769 107.2 279.177 106.592C280.585 105.984 281.817 105.152 282.873 104.096C283.929 103.04 284.761 101.808 285.369 100.4C285.977 98.992 286.281 97.488 286.281 95.888V80H294.777V105.872ZM304.083 80H334.467V88.496H323.523V116H315.027V88.496H304.083V80ZM399.419 105.872C399.419 107.248 399.467 108.48 399.563 109.568C399.691 110.624 399.819 111.52 399.947 112.256C400.107 112.992 400.251 113.552 400.379 113.936C400.507 114.32 400.571 114.512 400.571 114.512L400.523 114.464L392.651 117.536C392.587 117.376 392.395 116.784 392.075 115.76C391.755 114.704 391.483 113.216 391.259 111.296C389.499 112.768 387.515 113.92 385.307 114.752C383.131 115.584 380.811 116 378.347 116H369.755V88.496H364.235V80H378.251V107.504H379.307C380.907 107.504 382.411 107.2 383.819 106.592C385.227 105.984 386.459 105.152 387.515 104.096C388.571 103.04 389.403 101.808 390.011 100.4C390.619 98.992 390.923 97.488 390.923 95.888V80H399.419V105.872ZM430.999 75.344H439.495V88.496H419.143V93.776H439.495V104.192C439.495 105.824 439.175 107.36 438.535 108.8C437.927 110.24 437.095 111.488 436.039 112.544C434.983 113.6 433.735 114.448 432.295 115.088C430.887 115.696 429.367 116 427.735 116H410.647V107.504H427.735C428.631 107.504 429.399 107.184 430.039 106.544C430.679 105.904 430.999 105.12 430.999 104.192V102.224H410.647V80H430.999V75.344Z" fill="#FFEBEB"/>
</g>
<defs>
<filter id="filter0_d_3539_725" x="2.375" y="0" width="573.25" height="164.625" filterUnits="userSpaceOnUse" color-interpolation-filters="sRGB">
<feFlood flood-opacity="0" result="BackgroundImageFix"/>
<feColorMatrix in="SourceAlpha" type="matrix" values="0 0 0 0 0 0 0 0 0 0 0 0 0 0 0 0 0 0 127 0" result="hardAlpha"/>
<feOffset dy="30"/>
<feGaussianBlur stdDeviation="1.5"/>
<feComposite in2="hardAlpha" operator="out"/>
<feColorMatrix type="matrix" values="0 0 0 0 0 0 0 0 0 0 0 0 0 0 0 0 0 0 0.3 0"/>
<feBlend mode="luminosity" in2="BackgroundImageFix" result="effect1_dropShadow_3539_725"/>
<feBlend mode="normal" in="SourceGraphic" in2="effect1_dropShadow_3539_725" result="shape"/>
</filter>
<filter id="filter1_d_3539_725" x="0.575" y="45.1328" width="576.85" height="96.0922" filterUnits="userSpaceOnUse" color-interpolation-filters="sRGB">
<feFlood flood-opacity="0" result="BackgroundImageFix"/>
<feColorMatrix in="SourceAlpha" type="matrix" values="0 0 0 0 0 0 0 0 0 0 0 0 0 0 0 0 0 0 127 0" result="hardAlpha"/>
<feOffset dy="4.8"/>
<feGaussianBlur stdDeviation="2.4"/>
<feComposite in2="hardAlpha" operator="out"/>
<feColorMatrix type="matrix" values="0 0 0 0 0 0 0 0 0 0 0 0 0 0 0 0 0 0 0.7 0"/>
<feBlend mode="normal" in2="BackgroundImageFix" result="effect1_dropShadow_3539_725"/>
<feBlend mode="normal" in="SourceGraphic" in2="effect1_dropShadow_3539_725" result="shape"/>
</filter>
</defs>
</svg>
