<svg width="67" height="66" viewBox="0 0 67 66" fill="none" xmlns="http://www.w3.org/2000/svg">
<g clip-path="url(#clip0_4122_227)">
<g filter="url(#filter0_d_4122_227)">
<path d="M33.7236 59.7578C18.2644 59.7578 5.6875 47.1808 5.6875 31.7217C5.6875 16.2624 18.2644 3.68555 33.7236 3.68555C49.1827 3.68555 61.7598 16.2624 61.7598 31.7217C61.7598 47.1808 49.1827 59.7578 33.7236 59.7578ZM33.7236 5.26505C19.1354 5.26505 7.267 17.1334 7.267 31.7217C7.267 46.3099 19.1354 58.1783 33.7236 58.1783C48.3119 58.1783 60.1803 46.3099 60.1803 31.7217C60.1803 17.1334 48.3119 5.26505 33.7236 5.26505Z" fill="#E2DCCB"/>
</g>
<path d="M14.5362 57.7932L14.8552 57.4743C14.9784 57.3511 15.04 57.1893 15.04 57.0274C15.04 56.8655 14.9784 56.7038 14.8552 56.5806L14.6459 56.3713C14.3995 56.1249 13.9986 56.1249 13.7522 56.3713L13.4341 56.6893L12.6208 55.8761L12.9989 55.4981C13.1056 55.3915 13.1588 55.2514 13.1588 55.1114C13.1588 54.9712 13.1053 54.8312 12.9989 54.7244L12.8562 54.5819C12.8025 54.528 12.7392 54.4876 12.6705 54.4605C12.7102 54.4221 12.7352 54.3684 12.7352 54.309C12.7352 54.2613 12.7186 54.2176 12.6917 54.1822H12.7652C12.8815 54.1822 12.9766 54.0871 12.9766 53.9709C12.9766 53.8546 12.8815 53.7595 12.7652 53.7595H12.5398V53.2879C12.6485 53.2796 12.7352 53.1889 12.7352 53.0782C12.7352 52.9673 12.6486 52.8768 12.5398 52.8685V50.2793H12.3988V52.869C12.2927 52.8799 12.2089 52.9693 12.2089 53.0782C12.2089 53.187 12.2927 53.2764 12.3988 53.2873V53.7596H12.1733C12.0571 53.7596 11.9619 53.8548 11.9619 53.971C11.9619 54.0872 12.0571 54.1824 12.1733 54.1824H12.2524C12.2256 54.2179 12.2089 54.2615 12.2089 54.3091C12.2089 54.3678 12.2332 54.421 12.272 54.4593C12.2019 54.4864 12.1371 54.5271 12.0822 54.582L11.9395 54.7245C11.7261 54.938 11.7262 55.2851 11.9395 55.4982L12.3176 55.8763L11.5043 56.6894L11.1863 56.3714C10.9399 56.125 10.5389 56.125 10.2925 56.3714L10.0832 56.5807C9.83684 56.8271 9.83684 57.2282 10.0832 57.4744L10.4022 57.7934L10.1029 58.0927C9.84526 58.3503 9.84526 58.7679 10.1029 59.0255L10.2925 59.2152C10.4291 59.3518 10.6172 59.4183 10.8131 59.3962C10.9647 59.3791 11.1023 59.2992 11.2102 59.1912L11.5043 58.8972L12.2922 59.6851L11.9198 60.0576C11.7132 60.2641 11.7132 60.6248 11.9198 60.8313L12.0624 60.974C12.2757 61.1872 12.6228 61.1872 12.836 60.974L12.9787 60.8313C13.0855 60.7245 13.1387 60.5845 13.1387 60.4444C13.1387 60.3044 13.0853 60.1642 12.9787 60.0576L12.6261 59.7048L13.4339 58.8971L13.7519 59.2151C13.8713 59.3344 14.03 59.4003 14.1988 59.4003C14.3675 59.4003 14.5262 59.3344 14.6456 59.2151L14.8549 59.0058C14.9781 58.8826 15.0397 58.7208 15.0397 58.5589C15.0397 58.397 14.9781 58.2352 14.8549 58.112L14.5362 57.7932ZM12.3074 57.7932L11.5054 58.5952L10.7045 57.7942L11.5065 56.9922L12.3074 57.7932ZM12.4693 57.955L13.2713 58.757L12.4693 59.559L11.6673 58.757L12.4693 57.955ZM13.4331 58.5951L12.6311 57.7931L13.4331 56.9911L14.2351 57.7931L13.4331 58.5951ZM12.4693 57.6313L11.6683 56.8303L12.4701 56.0283L13.2712 56.8294L12.4693 57.6313ZM13.9026 56.5217C14.0659 56.3584 14.3318 56.3584 14.4953 56.5217L14.7046 56.731C14.8679 56.8945 14.8679 57.1603 14.7046 57.3237L14.3857 57.6427L13.5837 56.8407L13.9026 56.5217ZM12.0904 54.8747L12.2331 54.7322C12.2963 54.669 12.3802 54.6342 12.4693 54.6342C12.5586 54.6342 12.6426 54.669 12.7056 54.7322L12.8483 54.8747C12.9786 55.005 12.9785 55.2169 12.8483 55.3473L12.4693 55.7262L12.0904 55.3473C11.9601 55.2171 11.9598 55.0052 12.0904 54.8747ZM10.2339 57.3237C10.0706 57.1603 10.0706 56.8945 10.2339 56.731L10.4432 56.5217C10.6066 56.3584 10.8725 56.3584 11.0358 56.5217L11.3547 56.8407L10.5527 57.6427L10.2339 57.3237ZM11.0359 59.0646C10.9568 59.1437 10.8515 59.1874 10.7397 59.1874C10.6278 59.1874 10.5225 59.1438 10.4434 59.0646L10.2341 58.8553C10.1525 58.7736 10.1115 58.6663 10.1115 58.559C10.1115 58.4518 10.1525 58.3445 10.2341 58.2627L10.553 57.9438L11.355 58.7458L11.0359 59.0646ZM12.8284 60.6807L12.6857 60.8234C12.5554 60.9536 12.3435 60.9536 12.2132 60.8234L12.0706 60.6807C12.0075 60.6175 11.9728 60.5337 11.9728 60.4444C11.9728 60.3552 12.0076 60.2713 12.0706 60.2082L12.4496 59.8292L12.8285 60.2082C12.9587 60.3385 12.9587 60.5504 12.8284 60.6807ZM14.7046 58.8553L14.4953 59.0646C14.4162 59.1437 14.3109 59.1874 14.199 59.1874C14.087 59.1874 13.9818 59.1438 13.9027 59.0646L13.5846 58.7466L14.3866 57.9446L14.7046 58.2626C14.8678 58.426 14.8679 58.6917 14.7046 58.8553Z" fill="#E2DCCB"/>
<path d="M12.5463 62.0332V61.8486H12.7718C12.888 61.8486 12.9832 61.7534 12.9832 61.6372C12.9832 61.5209 12.888 61.4258 12.7718 61.4258H12.18C12.0638 61.4258 11.9686 61.5209 11.9686 61.6372C11.9686 61.7534 12.0638 61.8486 12.18 61.8486H12.4054V62.0332H12.1819L11.875 63.96C11.875 63.96 12.185 64.1573 12.5796 64.1291C12.9741 64.1009 13.115 63.9036 13.115 63.9036L12.7569 62.0334H12.5463V62.0332Z" fill="#E2DCCB"/>
<path d="M56.2627 57.7932L56.5816 57.4743C56.7048 57.3511 56.7664 57.1893 56.7664 57.0274C56.7664 56.8655 56.7048 56.7038 56.5816 56.5806L56.3722 56.3713C56.1258 56.1249 55.7249 56.1249 55.4785 56.3713L55.1605 56.6893L54.3471 55.8761L54.7252 55.4981C54.8318 55.3915 54.8851 55.2514 54.8851 55.1114C54.8851 54.9712 54.8317 54.8312 54.7252 54.7244L54.5825 54.5819C54.5288 54.528 54.4655 54.4876 54.3968 54.4605C54.4365 54.4221 54.4615 54.3684 54.4615 54.309C54.4615 54.2613 54.4449 54.2176 54.418 54.1822H54.4915C54.6078 54.1822 54.7029 54.0871 54.7029 53.9709C54.7029 53.8546 54.6078 53.7595 54.4915 53.7595H54.2661V53.2879C54.3748 53.2796 54.4615 53.1889 54.4615 53.0782C54.4615 52.9673 54.3749 52.8768 54.2661 52.8685V50.2793H54.1252V52.869C54.0191 52.8799 53.9353 52.9693 53.9353 53.0782C53.9353 53.187 54.0191 53.2764 54.1252 53.2873V53.7596H53.8997C53.7835 53.7596 53.6884 53.8548 53.6884 53.971C53.6884 54.0872 53.7835 54.1824 53.8997 54.1824H53.9789C53.952 54.2179 53.9353 54.2615 53.9353 54.3091C53.9353 54.3678 53.9596 54.421 53.9985 54.4593C53.9283 54.4864 53.8635 54.5271 53.8088 54.582L53.6661 54.7245C53.4526 54.938 53.4527 55.2851 53.6661 55.4982L54.0441 55.8763L53.2308 56.6894L52.9128 56.3714C52.6664 56.125 52.2655 56.125 52.0191 56.3714L51.8098 56.5807C51.5634 56.8271 51.5634 57.2282 51.8098 57.4744L52.1287 57.7934L51.8294 58.0927C51.5718 58.3503 51.5718 58.7679 51.8294 59.0255L52.0191 59.2152C52.1557 59.3518 52.3439 59.4183 52.5397 59.3962C52.6913 59.3791 52.829 59.2992 52.9368 59.1912L53.2308 58.8972L54.0187 59.6851L53.6464 60.0576C53.4397 60.2641 53.4397 60.6248 53.6464 60.8313L53.7889 60.974C54.0023 61.1872 54.3494 61.1872 54.5626 60.974L54.7053 60.8313C54.812 60.7245 54.8653 60.5845 54.8653 60.4444C54.8653 60.3044 54.812 60.1642 54.7053 60.0576L54.3527 59.7048L55.1605 58.8971L55.4785 59.2151C55.5978 59.3344 55.7566 59.4003 55.9253 59.4003C56.0941 59.4003 56.2528 59.3344 56.3722 59.2151L56.5816 59.0058C56.7048 58.8826 56.7664 58.7208 56.7664 58.5589C56.7664 58.397 56.7048 58.2352 56.5816 58.112L56.2627 57.7932ZM54.0339 57.7932L53.2319 58.5952L52.4309 57.7942L53.2329 56.9922L54.0339 57.7932ZM54.1958 57.955L54.9978 58.757L54.1958 59.559L53.3938 58.757L54.1958 57.955ZM55.1597 58.5951L54.3577 57.7931L55.1597 56.9911L55.9616 57.7931L55.1597 58.5951ZM54.1958 57.6313L53.3947 56.8303L54.1966 56.0283L54.9976 56.8294L54.1958 57.6313ZM55.629 56.5217C55.7924 56.3584 56.0583 56.3584 56.2217 56.5217L56.4312 56.731C56.5945 56.8945 56.5945 57.1603 56.4312 57.3237L56.1122 57.6427L55.3102 56.8407L55.629 56.5217ZM53.8168 54.8747L53.9595 54.7322C54.0227 54.669 54.1067 54.6342 54.1958 54.6342C54.285 54.6342 54.3689 54.669 54.432 54.7322L54.5747 54.8747C54.705 55.005 54.7048 55.2169 54.5747 55.3473L54.1958 55.7262L53.8168 55.3473C53.6865 55.2171 53.6864 55.0052 53.8168 54.8747ZM51.9605 57.3237C51.7972 57.1603 51.7972 56.8945 51.9605 56.731L52.1698 56.5217C52.3331 56.3584 52.599 56.3584 52.7625 56.5217L53.0814 56.8407L52.2794 57.6427L51.9605 57.3237ZM52.7625 59.0646C52.6833 59.1437 52.5781 59.1874 52.4662 59.1874C52.3543 59.1874 52.249 59.1438 52.1699 59.0646L51.9606 58.8553C51.879 58.7736 51.8381 58.6663 51.8381 58.559C51.8381 58.4518 51.879 58.3445 51.9606 58.2627L52.2796 57.9438L53.0816 58.7458L52.7625 59.0646ZM54.5548 60.6807L54.4122 60.8234C54.2819 60.9536 54.0699 60.9536 53.9396 60.8234L53.7971 60.6807C53.7339 60.6175 53.6991 60.5337 53.6991 60.4444C53.6991 60.3552 53.7339 60.2713 53.7971 60.2082L54.1759 59.8292L54.5548 60.2082C54.6852 60.3385 54.6852 60.5504 54.5548 60.6807ZM56.431 58.8553L56.2216 59.0646C56.1425 59.1437 56.0372 59.1874 55.9253 59.1874C55.8134 59.1874 55.7081 59.1438 55.629 59.0646L55.3112 58.7466L56.1131 57.9446L56.4312 58.2626C56.5944 58.426 56.5945 58.6917 56.431 58.8553Z" fill="#E2DCCB"/>
<path d="M54.2572 62.0332V61.8486H54.4827C54.5989 61.8486 54.6941 61.7534 54.6941 61.6372C54.6941 61.5209 54.5989 61.4258 54.4827 61.4258H53.8909C53.7747 61.4258 53.6795 61.5209 53.6795 61.6372C53.6795 61.7534 53.7747 61.8486 53.8909 61.8486H54.1164V62.0332H53.8929L53.5859 63.96C53.5859 63.96 53.8959 64.1573 54.2904 64.1291C54.6849 64.1009 54.8258 63.9036 54.8258 63.9036L54.4677 62.0334H54.2572V62.0332Z" fill="#E2DCCB"/>
<path d="M29.3487 5.87074C29.5486 5.83784 29.7465 5.79335 29.9478 5.77018L29.8572 5.15826C29.4709 5.21407 29.0879 5.29172 28.7031 5.35806L28.9211 6.47898L29.8138 6.31919C30.1123 6.2722 30.4131 6.24021 30.7126 6.20007L30.5767 5.06625C30.775 5.04401 30.9722 5.00965 31.1715 4.99754L31.7684 4.95174L31.8524 6.09056C32.4376 6.03264 33.0257 6.03554 33.6129 6.01685L33.6084 4.875L32.5116 4.90277L32.5396 5.52062L33.0752 5.50693" stroke="#E2DCCB" stroke-width="0.197438" stroke-miterlimit="10"/>
<path d="M33.1111 7.06176L32.5407 7.07598L32.5704 7.69383L33.617 7.66737L33.6125 6.52539C33.0204 6.54303 32.4276 6.54329 31.8377 6.6016L31.924 7.74029L31.3904 7.7807C31.2127 7.79584 31.0365 7.82413 30.8594 7.84493L30.7212 6.71138C30.4361 6.75034 30.1493 6.77851 29.8655 6.82602L29.0156 6.97818L29.2336 8.0991C29.5555 8.04303 29.8766 7.9813 30.1991 7.92865L30.1067 7.31698C29.9407 7.34133 29.7763 7.3749 29.611 7.4032" stroke="#E2DCCB" stroke-width="0.197438" stroke-miterlimit="10"/>
<path d="M24.5227 7.20688C24.712 7.13488 24.8973 7.05235 25.0907 6.99154L24.8816 6.40949C24.6952 6.46833 24.516 6.54664 24.3337 6.61654L23.7891 6.83174L24.2232 7.8879L25.0666 7.55476C25.3512 7.45328 25.6387 7.3593 25.9245 7.26137L25.5686 6.17638C25.9444 6.04028 26.3319 5.9417 26.7154 5.83008L27.021 6.93033L27.4448 6.80976L27.8739 6.70946C28.1605 6.64444 28.4458 6.57415 28.7333 6.51374L28.5065 5.39453C28.1486 5.47074 27.7927 5.55735 27.4359 5.63883L27.5842 6.2393L28.1065 6.11834" stroke="#E2DCCB" stroke-width="0.197438" stroke-miterlimit="10"/>
<path d="M28.437 7.63354L27.8813 7.762L28.0313 8.36208C28.3713 8.28521 28.71 8.20229 29.0506 8.12897L28.8238 7.00977C28.5341 7.07084 28.2465 7.14179 27.9579 7.2072C27.8139 7.24182 27.6687 7.27117 27.5259 7.31L27.0988 7.43162L27.4066 8.53122C27.0639 8.62928 26.719 8.72036 26.3839 8.84251L26.0258 7.75819C25.7538 7.85217 25.4794 7.9397 25.2093 8.03868L24.4062 8.35589L24.8403 9.41205C25.1451 9.29425 25.4466 9.16763 25.7537 9.05588L25.5428 8.47436C25.3837 8.5274 25.23 8.59545 25.0733 8.65508" stroke="#E2DCCB" stroke-width="0.197438" stroke-miterlimit="10"/>
<path d="M20.0433 9.46634C20.2149 9.35906 20.3813 9.24323 20.5574 9.1432L20.2384 8.61327C19.904 8.8144 19.5795 9.03171 19.25 9.24073L19.8821 10.1917L20.6452 9.70208C20.9022 9.54307 21.1676 9.39815 21.4285 9.24547L20.8667 8.2513C21.209 8.04544 21.5678 7.86972 21.9226 7.68677L22.4384 8.70554L22.8305 8.50455C22.9629 8.44111 23.0977 8.38254 23.2311 8.3212C23.4994 8.20142 23.765 8.07572 24.0354 7.96094L23.5928 6.9082C23.2565 7.05233 22.925 7.20778 22.591 7.3577L22.8545 7.91737L23.3429 7.69624" stroke="#E2DCCB" stroke-width="0.197438" stroke-miterlimit="10"/>
<path d="M23.984 9.1169L23.4643 9.35211L23.7294 9.91099C24.0478 9.76897 24.3633 9.6205 24.6835 9.48242L24.2409 8.42969C23.9685 8.54565 23.7007 8.67227 23.4304 8.79297C23.2961 8.85536 23.1591 8.91196 23.0272 8.97922L22.6319 9.18192L23.1498 10.1998L22.6737 10.4437C22.5139 10.5231 22.3633 10.6193 22.2076 10.7061L21.6438 9.71303C21.3959 9.859 21.1418 9.9951 20.8986 10.1488L20.1719 10.6152L20.8039 11.5662L21.6304 11.0378L21.3099 10.5088C21.1667 10.5961 21.027 10.6893 20.8853 10.7792" stroke="#E2DCCB" stroke-width="0.197438" stroke-miterlimit="10"/>
<path d="M16.0889 12.5519L16.5291 12.1336L16.1133 11.6757L15.2656 12.4827L16.0699 13.2932L16.726 12.6675C16.8335 12.5612 16.9473 12.4617 17.0623 12.3637L17.4049 12.0667L16.6609 11.2005C16.8127 11.0711 16.9602 10.9365 17.1159 10.8118L17.5863 10.4415L18.2904 11.3405C18.7446 10.9673 19.2345 10.6415 19.7106 10.2976L19.071 9.35156L18.1766 9.98757L18.5441 10.4851L18.9806 10.1744" stroke="#E2DCCB" stroke-width="0.197438" stroke-miterlimit="10"/>
<path d="M19.88 11.4424L19.4149 11.7731L19.7838 12.2696L20.6364 11.6628L19.9969 10.7168C19.5162 11.0627 19.0241 11.3935 18.5661 11.7697L19.272 12.6673L18.8511 12.9979L18.4461 13.3477L17.7003 12.4831L17.374 12.7658L17.2109 12.9073L17.0546 13.0563L16.4297 13.6522L17.2339 14.4628L17.9442 13.7856L17.527 13.3289L17.1627 13.6765" stroke="#E2DCCB" stroke-width="0.197438" stroke-miterlimit="10"/>
<path d="M12.8072 16.344L13.1594 15.8492L12.6629 15.4804L11.9844 16.4343L12.9304 17.0739C13.283 16.5831 13.621 16.0812 14.0048 15.6136L13.1071 14.9077L13.4774 14.4374L13.8681 13.984L14.7327 14.7298L15.0212 14.3968L15.1656 14.2304L15.3176 14.0709L15.9258 13.4331L15.1151 12.6289L14.358 13.4231L14.8147 13.8401L15.1843 13.4522" stroke="#E2DCCB" stroke-width="0.197438" stroke-miterlimit="10"/>
<path d="M16.3188 14.5242L15.9254 14.9375L16.3833 15.3533L17.1053 14.5952L16.2946 13.791L15.6815 14.434C15.5773 14.5393 15.4799 14.6508 15.3838 14.7636L15.0929 15.0994L15.9591 15.8434C15.8435 15.9793 15.7224 16.1106 15.6111 16.25L15.2804 16.671L14.3814 15.9669C14.0155 16.4118 13.6967 16.8921 13.3594 17.3584L14.3054 17.998L14.8742 17.1987L14.3767 16.8312L14.0849 17.2414" stroke="#E2DCCB" stroke-width="0.197438" stroke-miterlimit="10"/>
<path d="M10.3426 20.7003L10.5933 20.1469L10.0345 19.8819C9.87454 20.2379 9.70895 20.5917 9.55469 20.9503L10.6074 21.3928C10.7258 21.1147 10.8549 20.8413 10.9782 20.5654C11.0419 20.4284 11.0998 20.2886 11.1684 20.1539L11.3753 19.7505L10.3575 19.2327L10.631 18.7C10.7205 18.5215 10.827 18.3524 10.9244 18.1781L11.9175 18.7419C12.0664 18.4886 12.2055 18.2296 12.3624 17.9812L12.8383 17.2395L11.8873 16.6074C11.6903 16.9157 11.4902 17.2221 11.2965 17.5323L11.8255 17.8529C11.9184 17.7003 12.0173 17.5514 12.113 17.4006" stroke="#E2DCCB" stroke-width="0.197438" stroke-miterlimit="10"/>
<path d="M13.4198 18.2368C13.3191 18.3981 13.2097 18.5541 13.116 18.7196L13.646 19.0387C13.8256 18.7399 14.0208 18.4505 14.2068 18.1555L13.2558 17.5234L12.776 18.2711C12.6202 18.5227 12.4784 18.7831 12.3288 19.0386L13.3229 19.6003C13.1379 19.9056 12.9824 20.2269 12.8187 20.5436L11.7998 20.0279L11.6027 20.4121C11.5406 20.5419 11.4832 20.6739 11.4233 20.8047C11.3061 21.0674 11.1827 21.3277 11.0703 21.5926L12.123 22.0351C12.252 21.7349 12.3916 21.4392 12.5246 21.1408L11.965 20.8772L11.7574 21.3357" stroke="#E2DCCB" stroke-width="0.197438" stroke-miterlimit="10"/>
<path d="M8.75519 25.462L8.89221 24.87L8.29213 24.72C8.205 25.1007 8.11299 25.4803 8.03125 25.862L9.15046 26.0888C9.21272 25.793 9.28498 25.4993 9.35184 25.2046C9.38712 25.0577 9.41726 24.9094 9.45688 24.7636L9.581 24.3275L8.48141 24.0196C8.59105 23.6355 8.69464 23.2496 8.83021 22.8737L9.91454 23.2318C10.0104 22.9541 10.0999 22.6741 10.201 22.3984L10.5248 21.5786L9.4686 21.1445C9.33579 21.4856 9.19508 21.8238 9.0699 22.1677L9.65142 22.3785C9.70815 22.2091 9.78002 22.0451 9.84373 21.8782" stroke="#E2DCCB" stroke-width="0.197438" stroke-miterlimit="10"/>
<path d="M11.3018 22.4386C11.2343 22.6163 11.1561 22.79 11.0995 22.9716L11.6816 23.1808C11.7333 23.0143 11.8044 22.8546 11.8666 22.6919L12.0587 22.2056L11.0025 21.7715L10.6761 22.5977C10.5767 22.8766 10.4848 23.1582 10.3887 23.4381L11.4737 23.7942C11.3509 24.1292 11.2648 24.4756 11.1647 24.8177L10.0644 24.512L9.94622 24.9272L9.84803 25.3476C9.78445 25.6282 9.71535 25.9078 9.65625 26.1893L10.7755 26.4161C10.8439 26.0967 10.9218 25.7792 10.994 25.4605L10.3935 25.3122L10.2802 25.8025" stroke="#E2DCCB" stroke-width="0.197438" stroke-miterlimit="10"/>
<path d="M8.1555 30.4383L8.17103 29.8314L7.55318 29.8017L7.52344 30.9715L8.66528 30.976C8.68292 30.3719 8.68358 29.7669 8.74294 29.1649L7.60426 29.0785L7.65006 28.4816C7.6673 28.2828 7.69797 28.0853 7.7214 27.887L8.85496 28.0253C8.89458 27.7342 8.92366 27.4415 8.9721 27.1519L9.12742 26.2844L8.0065 26.0664C7.94293 26.4268 7.87461 26.7867 7.81604 27.1478L8.4277 27.2402C8.45363 27.0635 8.48891 26.8883 8.51918 26.7122" stroke="#E2DCCB" stroke-width="0.197438" stroke-miterlimit="10"/>
<path d="M10.0343 26.9762C10.0035 27.1638 9.961 27.3495 9.93955 27.5385L10.5515 27.6292C10.6012 27.2842 10.6718 26.9425 10.7301 26.5988L9.60917 26.3809L9.45254 27.2552C9.40647 27.5477 9.37541 27.8424 9.33592 28.1358L10.4697 28.2718C10.45 28.449 10.418 28.6248 10.4079 28.803L10.3675 29.3366L9.22864 29.2527C9.17152 29.8259 9.17494 30.4024 9.15625 30.9777L10.2982 30.9822L10.3231 30.0011L9.70513 29.973L9.69249 30.4764" stroke="#E2DCCB" stroke-width="0.197438" stroke-miterlimit="10"/>
<path d="M8.51918 35.4378C8.48627 35.238 8.44179 35.0401 8.41862 34.8388L7.80669 34.9295C7.8625 35.3158 7.94016 35.6988 8.0065 36.0836L9.12742 35.8656L8.96763 34.9729C8.92064 34.6744 8.88865 34.3736 8.84851 34.0741L7.71469 34.21C7.69244 34.0117 7.65809 33.8145 7.64598 33.6152L7.60017 33.0183L8.73899 32.9343C8.68108 32.3491 8.68398 31.761 8.66528 31.1738L7.52344 31.1783L7.55121 32.2751L8.16906 32.2471L8.15537 31.7115" stroke="#E2DCCB" stroke-width="0.197438" stroke-miterlimit="10"/>
<path d="M9.69262 31.6717L9.70684 32.2423L10.3247 32.2126L10.2982 31.166L9.15625 31.1705C9.17389 31.7625 9.17415 32.3554 9.23246 32.9453L10.3711 32.859L10.4116 33.3926C10.4267 33.5703 10.455 33.7465 10.4759 33.9236L9.34237 34.0618C9.38133 34.3469 9.4095 34.6337 9.45701 34.9175L9.60917 35.7674L10.7301 35.5494C10.674 35.2274 10.6123 34.9064 10.5596 34.5839L9.94797 34.6763C9.97232 34.8423 10.0059 35.0067 10.0342 35.172" stroke="#E2DCCB" stroke-width="0.197438" stroke-miterlimit="10"/>
<path d="M9.85128 40.2711C9.77928 40.0818 9.69675 39.8965 9.63607 39.7031L9.05402 39.9123C9.11286 40.0987 9.19118 40.2778 9.26107 40.4601L9.47628 41.0048L10.5324 40.5707L10.1993 39.7272C10.0978 39.4427 10.0038 39.1552 9.9059 38.8693L8.82091 39.2252C8.68481 38.8494 8.58623 38.4619 8.47461 38.0785L9.57486 37.7729L9.45429 37.349L9.354 36.9199C9.28897 36.6334 9.21869 36.348 9.15827 36.0605L8.03906 36.2873C8.11527 36.6454 8.20188 37.0011 8.28336 37.358L8.88383 37.2096L8.76287 36.6873" stroke="#E2DCCB" stroke-width="0.197438" stroke-miterlimit="10"/>
<path d="M10.2722 36.348L10.4007 36.9037L11.0008 36.7537C10.9239 36.4137 10.841 36.075 10.7676 35.7344L9.64844 35.9612C9.70951 36.2509 9.78046 36.5385 9.84588 36.8271C9.88049 36.9711 9.90985 37.1163 9.94867 37.2591L10.0703 37.6862L11.1699 37.3784C11.268 37.7211 11.359 38.066 11.4812 38.4011L10.3969 38.7592C10.4908 39.0312 10.5784 39.3056 10.6774 39.5757L10.9946 40.3788L12.0507 39.9447C11.9329 39.64 11.8063 39.3384 11.6945 39.0313L11.113 39.2422C11.1661 39.4013 11.2341 39.5551 11.2938 39.7117" stroke="#E2DCCB" stroke-width="0.197438" stroke-miterlimit="10"/>
<path d="M12.1128 44.746C12.0055 44.5743 11.8897 44.4079 11.7897 44.2318L11.2598 44.5509C11.4609 44.8852 11.6782 45.2097 11.8872 45.5393L12.8382 44.9072L12.3486 44.144C12.1896 43.8871 12.0446 43.6216 11.892 43.3607L10.8978 43.9225C10.6919 43.5803 10.5162 43.2215 10.3332 42.8666L11.352 42.3509L11.151 41.9588C11.0876 41.8264 11.029 41.6916 10.9677 41.5581C10.8479 41.2899 10.7222 41.0243 10.6074 40.7539L9.55469 41.1964C9.69882 41.5327 9.85427 41.8643 10.0042 42.1982L10.5639 41.9347L10.3427 41.4465" stroke="#E2DCCB" stroke-width="0.197438" stroke-miterlimit="10"/>
<path d="M11.7575 40.8147L11.9927 41.3343L12.5516 41.0693C12.4096 40.7508 12.2611 40.4353 12.123 40.1152L11.0703 40.5578C11.1863 40.8302 11.3129 41.0979 11.4336 41.3683C11.496 41.5026 11.5526 41.6396 11.6198 41.7715L11.8225 42.1667L12.8404 41.6489L13.0843 42.125C13.1637 42.2848 13.2599 42.4354 13.3468 42.5911L12.3538 43.1548C12.4996 43.4028 12.6359 43.6569 12.7896 43.9001L13.2559 44.6268L14.2069 43.9947L13.6786 43.1683L13.1496 43.4888C13.2369 43.632 13.3301 43.7716 13.42 43.9134" stroke="#E2DCCB" stroke-width="0.197438" stroke-miterlimit="10"/>
<path d="M15.1846 48.6957L14.7663 48.2556L14.3083 48.6714L15.1153 49.5191L15.926 48.7148L15.3003 48.0587C15.1941 47.9511 15.0945 47.8374 14.9965 47.7224L14.6995 47.3798L13.8333 48.1238C13.7039 47.9719 13.5693 47.8245 13.4446 47.6688L13.0744 47.1985L13.9734 46.4945C13.6001 46.0402 13.2743 45.5503 12.9304 45.0742L11.9844 45.7138L12.6204 46.6082L13.1179 46.2407L12.8072 45.8042" stroke="#E2DCCB" stroke-width="0.197438" stroke-miterlimit="10"/>
<path d="M14.085 44.9088L14.4157 45.3738L14.9122 45.005L14.3054 44.1523L13.3594 44.7919C13.7053 45.2726 14.0361 45.7646 14.4122 46.2227L15.3099 45.5168L15.6404 45.9377L15.9903 46.3427L15.1257 47.0886L15.4084 47.4149L15.5499 47.578L15.6989 47.7343L16.2947 48.3592L17.1054 47.555L16.4282 46.8447L15.9715 47.2617L16.3191 47.6261" stroke="#E2DCCB" stroke-width="0.197438" stroke-miterlimit="10"/>
<path d="M18.9806 51.9721L18.486 51.6199L18.1171 52.1164L19.071 52.7949L19.7106 51.8489C19.2198 51.4961 18.7179 51.1583 18.2504 50.7745L17.5444 51.6721L17.0742 51.3019L16.6207 50.9112L17.3665 50.0466L17.0335 49.758L16.8671 49.6136L16.7076 49.4616L16.0699 48.8535L15.2656 49.6641L16.0598 50.4213L16.4768 49.9646L16.0889 49.595" stroke="#E2DCCB" stroke-width="0.197438" stroke-miterlimit="10"/>
<path d="M17.1628 48.4699L17.5761 48.8634L17.9919 48.4054L17.2339 47.6836L16.4297 48.4941L17.0727 49.1073C17.178 49.2115 17.2895 49.3089 17.4023 49.405L17.738 49.6959L18.4821 48.8297C18.618 48.9452 18.7493 49.0663 18.8887 49.1777L19.3096 49.5083L18.6056 50.4073C19.0506 50.7732 19.5308 51.092 19.9971 51.4294L20.6367 50.4834L19.8373 49.9145L19.4698 50.412L19.8801 50.7039" stroke="#E2DCCB" stroke-width="0.197438" stroke-miterlimit="10"/>
<path d="M23.3429 54.4547L22.7895 54.2041L22.5244 54.763C22.8806 54.9229 23.2343 55.0885 23.5928 55.2428L24.0354 54.19C23.7572 54.0717 23.4838 53.9424 23.208 53.8192C23.0709 53.7555 22.9312 53.6976 22.7965 53.629L22.3931 53.4221L21.8753 54.4399L21.3426 54.1663C21.1641 54.0768 20.995 53.9703 20.8207 53.8729L21.3844 52.8798C21.1312 52.731 20.8721 52.5918 20.6238 52.4349L19.8821 51.959L19.25 52.91C19.5583 53.107 19.8647 53.3071 20.1749 53.5008L20.4954 52.9718C20.3429 52.8789 20.194 52.7801 20.0432 52.6844" stroke="#E2DCCB" stroke-width="0.197438" stroke-miterlimit="10"/>
<path d="M20.8853 51.371C21.0465 51.4717 21.2025 51.581 21.3681 51.6748L21.6871 51.1448C21.3884 50.9652 21.0989 50.77 20.8039 50.584L20.1719 51.535L20.9195 52.0147C21.1712 52.1706 21.4315 52.3124 21.687 52.462L22.2488 51.4678C22.554 51.6529 22.8753 51.8084 23.192 51.9721L22.6763 52.991L23.0604 53.1881C23.1902 53.2502 23.3222 53.3076 23.453 53.3675C23.7159 53.4847 23.9761 53.6081 24.2409 53.7206L24.6835 52.6679C24.3832 52.5389 24.0875 52.3994 23.7891 52.2663L23.5255 52.826L23.984 53.0335" stroke="#E2DCCB" stroke-width="0.197438" stroke-miterlimit="10"/>
<path d="M28.1064 56.0313L27.5144 55.8943L27.3644 56.4943C27.7451 56.5815 28.1247 56.6736 28.5064 56.7552L28.7332 55.636C28.4374 55.5738 28.1437 55.5015 27.849 55.4346C27.7021 55.3994 27.5538 55.3692 27.408 55.3296L26.9719 55.2055L26.664 56.3051C26.2799 56.1954 25.894 56.0918 25.5181 55.9563L25.8764 54.8719C25.5986 54.7761 25.3187 54.6866 25.0429 54.5855L24.2232 54.2617L23.7891 55.3179C24.1301 55.4507 24.4684 55.5914 24.8122 55.7166L25.023 55.135C24.8536 55.0783 24.6896 55.0065 24.5227 54.9427" stroke="#E2DCCB" stroke-width="0.197438" stroke-miterlimit="10"/>
<path d="M25.0733 53.4932C25.251 53.5607 25.4248 53.6389 25.6064 53.6955L25.8156 53.1134C25.6489 53.0617 25.4894 52.9906 25.3267 52.9284L24.8403 52.7363L24.4062 53.7925L25.2325 54.1189C25.5114 54.2183 25.7929 54.3102 26.0729 54.4063L26.4289 53.3213C26.7639 53.4441 27.1104 53.5302 27.4524 53.6303L27.1468 54.7306L27.562 54.8488L27.9824 54.947C28.263 55.0105 28.5426 55.0797 28.8241 55.1387L29.0509 54.0195C28.7314 53.9511 28.414 53.8732 28.0953 53.801L27.947 54.4015L28.4373 54.5148" stroke="#E2DCCB" stroke-width="0.197438" stroke-miterlimit="10"/>
<path d="M33.075 56.6439L32.4681 56.6284L32.4384 57.2462L33.6083 57.276L33.6127 56.1341C33.0086 56.1165 32.4036 56.1157 31.8016 56.0565L31.7152 57.1952L31.1183 57.1492C30.9196 57.132 30.722 57.1013 30.5238 57.0779L30.662 55.9443C30.3709 55.9047 30.0782 55.8756 29.7886 55.8272L28.9211 55.6719L28.7031 56.7928C29.0635 56.8564 29.4234 56.9247 29.7846 56.9833L29.877 56.3716C29.7002 56.3457 29.525 56.3104 29.3489 56.2801" stroke="#E2DCCB" stroke-width="0.197438" stroke-miterlimit="10"/>
<path d="M29.6111 54.7445C29.7987 54.7753 29.9844 54.8178 30.1734 54.8392L30.264 54.2274C29.919 54.1777 29.5773 54.1071 29.2336 54.0488L29.0156 55.1697L29.89 55.3264C30.1825 55.3724 30.4772 55.4035 30.7706 55.443L30.9065 54.3092C31.0837 54.3289 31.2596 54.3609 31.4378 54.371L31.9714 54.4115L31.8874 55.5503C32.4606 55.6073 33.0372 55.604 33.6125 55.6227L33.617 54.4808L32.6358 54.4558L32.6078 55.0738L33.1111 55.0864" stroke="#E2DCCB" stroke-width="0.197438" stroke-miterlimit="10"/>
<path d="M38.0843 56.2802C37.8845 56.3131 37.6865 56.3576 37.4853 56.3808L37.576 56.9926C37.9623 56.9368 38.3453 56.8591 38.7301 56.7928L38.5121 55.6719L37.6194 55.8317C37.3209 55.8787 37.0201 55.9106 36.7205 55.9508L36.8564 57.0846C36.658 57.1069 36.461 57.1412 36.2617 57.1533L35.6648 57.1991L35.5808 56.0603C34.9956 56.1182 34.4075 56.1153 33.8203 56.134L33.8248 57.2759L34.9215 57.2481L34.8935 56.6302L34.3579 56.6439" stroke="#E2DCCB" stroke-width="0.197438" stroke-miterlimit="10"/>
<path d="M34.3182 55.0862L34.8888 55.072L34.8591 54.4541L33.8125 54.4806L33.817 55.6224C34.409 55.6048 35.0019 55.6046 35.5918 55.5463L35.5055 54.4076L36.0391 54.3672C36.2168 54.3521 36.393 54.3238 36.57 54.303L36.7083 55.4366C36.9934 55.3976 37.2802 55.3694 37.5639 55.3219L38.4138 55.1697L38.1959 54.0488C37.8739 54.1049 37.5529 54.1666 37.2304 54.2193L37.3228 54.8309C37.4888 54.8066 37.6532 54.773 37.8185 54.7447" stroke="#E2DCCB" stroke-width="0.197438" stroke-miterlimit="10"/>
<path d="M42.9214 54.9429C42.7321 55.0149 42.5468 55.0974 42.3534 55.1581L42.5626 55.7401C42.7489 55.6813 42.9281 55.603 43.1104 55.5331L43.655 55.3179L43.2209 54.2617L42.3775 54.5949C42.0928 54.6963 41.8054 54.7903 41.5196 54.8883L41.8756 55.9732C41.4998 56.1093 41.1123 56.2079 40.7289 56.3195L40.4232 55.2193L39.9994 55.3399L39.5703 55.4402C39.2838 55.505 38.9984 55.5755 38.7109 55.6359L38.9377 56.7551C39.2956 56.6789 39.6515 56.5923 40.0084 56.5108L39.86 55.9103L39.3377 56.0313" stroke="#E2DCCB" stroke-width="0.197438" stroke-miterlimit="10"/>
<path d="M38.9886 54.5148L39.5444 54.3864L39.3943 53.7863C39.0543 53.8632 38.7156 53.9461 38.375 54.0194L38.6018 55.1386C38.8915 55.0775 39.1791 55.0066 39.4678 54.9412C39.6117 54.9066 39.7569 54.8772 39.8997 54.8384L40.3269 54.7168L40.019 53.6172C40.3617 53.5191 40.7066 53.428 41.0417 53.3059L41.4 54.3902C41.6719 54.2962 41.9464 54.2087 42.2165 54.1097L43.0195 53.7925L42.5854 52.7363C42.2807 52.8541 41.979 52.9808 41.6721 53.0925L41.8829 53.674C42.0421 53.621 42.1958 53.5529 42.3524 53.4933" stroke="#E2DCCB" stroke-width="0.197438" stroke-miterlimit="10"/>
<path d="M47.3905 52.6844C47.2189 52.7916 47.0525 52.9075 46.8764 53.0075L47.1954 53.5374C47.5298 53.3363 47.8542 53.119 48.1838 52.91L47.5517 51.959L46.7886 52.4486C46.5316 52.6076 46.2662 52.7526 46.0053 52.9052L46.567 53.8994C46.2248 54.1053 45.866 54.281 45.5111 54.4639L44.9954 53.445L44.6033 53.646C44.4709 53.7095 44.3361 53.768 44.2027 53.8292C43.9344 53.949 43.6688 54.0747 43.3984 54.1895L43.841 55.2422C44.1773 55.0981 44.5088 54.9427 44.8428 54.7927L44.5792 54.2331L44.0909 54.4542" stroke="#E2DCCB" stroke-width="0.197438" stroke-miterlimit="10"/>
<path d="M43.4651 53.0335L43.9847 52.7983L43.7196 52.2394C43.4012 52.3815 43.0857 52.5299 42.7656 52.668L43.2081 53.7207C43.4805 53.6048 43.7483 53.478 44.0187 53.3573C44.153 53.2949 44.29 53.2383 44.4219 53.1711L44.8171 52.9684L44.2993 51.9505L44.7754 51.7066C44.9352 51.6272 45.0858 51.531 45.2415 51.4442L45.8052 52.4371C46.0532 52.2913 46.3073 52.1551 46.5505 52.0013L47.2772 51.535L46.6451 50.584L45.8187 51.1123L46.1392 51.6413C46.2824 51.5541 46.422 51.4609 46.5638 51.371" stroke="#E2DCCB" stroke-width="0.197438" stroke-miterlimit="10"/>
<path d="M51.3405 49.5948L50.9004 50.0131L51.3162 50.4711L52.1639 49.6641L51.3595 48.8535L50.7033 49.4793C50.5958 49.5855 50.4821 49.685 50.367 49.7831L50.0244 50.08L50.7685 50.9462C50.6166 51.0756 50.4692 51.2103 50.3135 51.3349L49.843 51.7052L49.139 50.8062C48.6847 51.1795 48.1948 51.5052 47.7188 51.8492L48.3583 52.7952L49.2527 52.1591L48.8852 51.6616L48.4487 51.9724" stroke="#E2DCCB" stroke-width="0.197438" stroke-miterlimit="10"/>
<path d="M47.5455 50.7037L48.0105 50.373L47.6417 49.8765L46.7891 50.4833L47.4286 51.4292C47.9093 51.0833 48.4013 50.7526 48.8594 50.3764L48.1535 49.4788L48.5744 49.1483L48.9794 48.7985L49.7252 49.6631L50.0515 49.3804L50.2146 49.239L50.3708 49.09L50.9958 48.4941L50.1916 47.6836L49.4813 48.3608L49.8984 48.8175L50.2626 48.4699" stroke="#E2DCCB" stroke-width="0.197438" stroke-miterlimit="10"/>
<path d="M54.6187 45.8041L54.2665 46.2989L54.763 46.6677L55.4415 45.7138L54.4955 45.0742C54.1428 45.565 53.8049 46.0669 53.4211 46.5345L54.3186 47.2404L53.9484 47.7107L53.5577 48.1641L52.693 47.4182L52.4045 47.7512L52.2601 47.9176L52.1081 48.0771L51.5 48.7148L52.3105 49.5191L53.0678 48.725L52.611 48.308L52.2414 48.6959" stroke="#E2DCCB" stroke-width="0.197438" stroke-miterlimit="10"/>
<path d="M51.1145 47.6262L51.5079 47.2129L51.05 46.7971L50.3281 47.5551L51.1387 48.3593L51.7518 47.7164C51.856 47.6111 51.9534 47.4996 52.0495 47.3868L52.3404 47.051L51.4742 46.3069C51.5898 46.1711 51.7108 46.0397 51.8222 45.9003L52.1528 45.4794L53.0518 46.1834C53.4178 45.7386 53.7366 45.2583 54.0739 44.7919L53.1279 44.1523L52.559 44.9517L53.0566 45.3192L53.3484 44.9089" stroke="#E2DCCB" stroke-width="0.197438" stroke-miterlimit="10"/>
<path d="M57.0894 41.4464L56.8386 41.9997L57.3975 42.2648C57.5574 41.9087 57.723 41.555 57.8773 41.1964L56.8245 40.7539C56.7062 41.032 56.5771 41.3054 56.4537 41.5813C56.39 41.7183 56.3321 41.8581 56.2635 41.9928L56.0566 42.3962L57.0745 42.914L56.801 43.4467C56.7115 43.6252 56.605 43.7944 56.5077 43.9686L55.5146 43.4048C55.3657 43.6581 55.2266 43.9171 55.0697 44.1655L54.5938 44.9072L55.5447 45.5393C55.7418 45.231 55.9419 44.9246 56.1356 44.6143L55.6066 44.2938C55.5137 44.4464 55.4148 44.5953 55.3191 44.7461" stroke="#E2DCCB" stroke-width="0.197438" stroke-miterlimit="10"/>
<path d="M54.0135 43.9134C54.1142 43.7522 54.2236 43.5962 54.3173 43.4306L53.7874 43.1115C53.6078 43.4103 53.4125 43.6998 53.2266 43.9947L54.1776 44.6268L54.6573 43.8792C54.8132 43.6275 54.9549 43.3672 55.1046 43.1117L54.1104 42.5499C54.2955 42.2447 54.4509 41.9234 54.6147 41.6067L55.6336 42.1224L55.8306 41.7383C55.8928 41.6085 55.9501 41.4765 56.01 41.3457C56.1273 41.0829 56.2506 40.8226 56.3631 40.5578L55.3103 40.1152C55.1813 40.4155 55.0418 40.7112 54.9087 41.0096L55.4684 41.2731L55.676 40.8147" stroke="#E2DCCB" stroke-width="0.197438" stroke-miterlimit="10"/>
<path d="M58.6759 36.6873L58.5389 37.2793L59.139 37.4293C59.2261 37.0487 59.3181 36.6691 59.3999 36.2873L58.2807 36.0605C58.2184 36.3563 58.1462 36.65 58.0792 36.9447C58.0439 37.0916 58.0137 37.2399 57.9741 37.3858L57.85 37.8218L58.9496 38.1297C58.84 38.5138 58.7364 38.8997 58.6008 39.2756L57.5165 38.9175C57.4206 39.1952 57.3311 39.4752 57.23 39.7509L56.9062 40.5707L57.9624 41.0048C58.0952 40.6637 58.2359 40.3255 58.3611 39.9817L57.7796 39.7708C57.7228 39.9402 57.651 40.1042 57.5873 40.2711" stroke="#E2DCCB" stroke-width="0.197438" stroke-miterlimit="10"/>
<path d="M56.1397 39.712C56.2072 39.5343 56.2854 39.3605 56.342 39.1789L55.7599 38.9697C55.7082 39.1364 55.6371 39.2959 55.5749 39.4586L55.3828 39.9449L56.439 40.379L56.7654 39.5528C56.8648 39.2739 56.9567 38.9924 57.0527 38.7124L55.9678 38.3563C56.0906 38.0214 56.1766 37.6749 56.2768 37.3328L57.3771 37.6385L57.4953 37.2233L57.5935 36.8029C57.657 36.5223 57.7261 36.2427 57.7852 35.9612L56.666 35.7344C56.5976 36.0538 56.5197 36.3713 56.4475 36.69L57.048 36.8383L57.1613 36.348" stroke="#E2DCCB" stroke-width="0.197438" stroke-miterlimit="10"/>
<path d="M59.2845 31.7115L59.269 32.3184L59.8869 32.3482L59.9166 31.1783L58.7748 31.1738C58.7571 31.778 58.7565 32.3829 58.6971 32.985L59.8358 33.0713L59.7899 33.6683C59.7726 33.867 59.7419 34.0646 59.7185 34.2628L58.585 34.1246C58.5453 34.4156 58.5163 34.7084 58.4678 34.9981L58.3125 35.8656L59.4334 36.0836C59.497 35.7232 59.5653 35.3633 59.6239 35.0021L59.0122 34.9097C58.9863 35.0865 58.951 35.2617 58.9207 35.4378" stroke="#E2DCCB" stroke-width="0.197438" stroke-miterlimit="10"/>
<path d="M57.3989 35.172C57.4297 34.9845 57.4722 34.7987 57.4937 34.6097L56.8817 34.519C56.832 34.864 56.7614 35.2057 56.7031 35.5494L57.824 35.7674L57.9807 34.893C58.0267 34.6005 58.0578 34.3058 58.0973 34.0124L56.9635 33.8764C56.9832 33.6993 57.0152 33.5234 57.0253 33.3452L57.0658 32.8116L58.2046 32.8956C58.2616 32.3223 58.2583 31.7458 58.277 31.1705L57.1351 31.166L57.1102 32.1471L57.7281 32.1752L57.7407 31.6719" stroke="#E2DCCB" stroke-width="0.197438" stroke-miterlimit="10"/>
<path d="M58.9209 26.712C58.9538 26.9118 58.9983 27.1098 59.0214 27.3111L59.6332 27.2205C59.5774 26.8342 59.4998 26.4511 59.4334 26.0664L58.3125 26.2844L58.4723 27.1771C58.5193 27.4756 58.5513 27.7763 58.5914 28.0759L59.7252 27.94C59.7475 28.1383 59.7818 28.3355 59.7939 28.5346L59.8397 29.1316L58.7009 29.2155C58.7588 29.8007 58.7559 30.3888 58.7746 30.976L59.9165 30.9715L59.8887 29.8747L59.2709 29.9027L59.2845 30.4383" stroke="#E2DCCB" stroke-width="0.197438" stroke-miterlimit="10"/>
<path d="M57.7406 30.4765L57.7262 29.9059L57.1084 29.9357L57.1349 30.9822L58.2767 30.9777C58.2591 30.3857 58.2589 29.7928 58.2006 29.2029L57.0619 29.2892L57.0215 28.7556C57.0064 28.5779 56.9781 28.4017 56.9573 28.2247L58.0908 28.0865C58.0519 27.8014 58.0237 27.5145 57.9762 27.2308L57.824 26.3809L56.7031 26.5988C56.7592 26.9208 56.8209 27.2418 56.8736 27.5643L57.4852 27.4719C57.4609 27.3059 57.4273 27.1414 57.399 26.9762" stroke="#E2DCCB" stroke-width="0.197438" stroke-miterlimit="10"/>
<path d="M57.5874 21.8782C57.6594 22.0675 57.7419 22.2528 57.8026 22.4462L58.3847 22.237C58.3258 22.0506 58.2475 21.8715 58.1776 21.6892L57.9624 21.1445L56.9062 21.5786L57.2394 22.4221C57.3409 22.7068 57.4349 22.9941 57.5328 23.28L58.6178 22.9241C58.7539 23.2999 58.8525 23.6874 58.9641 24.0708L57.8638 24.3765L57.9844 24.8003L58.0847 25.2294C58.1496 25.5159 58.22 25.8013 58.2804 26.0888L59.3996 25.862C59.3234 25.5041 59.2368 25.1482 59.1553 24.7913L58.5549 24.9397L58.6758 25.462" stroke="#E2DCCB" stroke-width="0.197438" stroke-miterlimit="10"/>
<path d="M57.1613 25.8022L57.0329 25.2465L56.4328 25.3966C56.5097 25.7366 56.5926 26.0752 56.6659 26.4159L57.7851 26.1891C57.724 25.8994 57.6531 25.6118 57.5877 25.3231C57.553 25.1793 57.5237 25.0339 57.4849 24.8911L57.3632 24.464L56.2636 24.7719C56.1656 24.4291 56.0745 24.0843 55.9524 23.7492L57.0367 23.391C56.9427 23.1191 56.8552 22.8446 56.7562 22.5745L56.439 21.7715L55.3828 22.2056C55.5006 22.5103 55.6272 22.812 55.739 23.1189L56.3205 22.9081C56.2675 22.7489 56.1994 22.5952 56.1398 22.4386" stroke="#E2DCCB" stroke-width="0.197438" stroke-miterlimit="10"/>
<path d="M55.3191 17.4007C55.4264 17.5724 55.5422 17.7387 55.6423 17.9149L56.1722 17.5958C55.9711 17.2615 55.7538 16.937 55.5447 16.6074L54.5938 17.2395L55.0834 18.0026C55.2424 18.2596 55.3873 18.5251 55.54 18.7859L56.5342 18.2242C56.7402 18.5664 56.9157 18.9252 57.0987 19.2801L56.0799 19.7958L56.2809 20.1879C56.3444 20.3203 56.4029 20.4551 56.4641 20.5886C56.5839 20.8568 56.7096 21.1224 56.8244 21.3928L57.8771 20.9503C57.733 20.614 57.5776 20.2824 57.4276 19.9485L56.868 20.212L57.0891 20.7003" stroke="#E2DCCB" stroke-width="0.197438" stroke-miterlimit="10"/>
<path d="M55.6761 21.3356L55.4409 20.8159L54.882 21.081C55.024 21.3994 55.1725 21.7149 55.3106 22.035L56.3633 21.5925C56.2474 21.32 56.1206 21.0523 55.9999 20.7819C55.9375 20.6477 55.8809 20.5107 55.8137 20.3788L55.6109 19.9835L54.5931 20.5013L54.3492 20.0252C54.2698 19.8654 54.1736 19.7149 54.0867 19.5592L55.0797 18.9954C54.9339 18.7474 54.7976 18.4934 54.6439 18.2501L54.1776 17.5234L53.2266 18.1555L53.7549 18.982L54.2839 18.6615C54.1966 18.5183 54.1034 18.3786 54.0135 18.2368" stroke="#E2DCCB" stroke-width="0.197438" stroke-miterlimit="10"/>
<path d="M52.2413 13.4522L52.6596 13.8924L53.1175 13.4766L52.3105 12.6289L51.5 13.4331L52.1257 14.0893C52.232 14.1968 52.3315 14.3105 52.4295 14.4256L52.7265 14.7682L53.5927 14.0241C53.7221 14.176 53.8567 14.3234 53.9814 14.4792L54.3517 14.9495L53.4527 15.6535C53.8259 16.1078 54.1517 16.5977 54.4957 17.0739L55.4416 16.4343L54.8055 15.5399L54.308 15.9074L54.6187 16.3439" stroke="#E2DCCB" stroke-width="0.197438" stroke-miterlimit="10"/>
<path d="M53.3481 17.2414L53.0175 16.7764L52.521 17.1452L53.1278 17.9979L54.0738 17.3583C53.7279 16.8776 53.3971 16.3856 53.0209 15.9276L52.1234 16.6335L51.7928 16.2125L51.443 15.8075L52.3076 15.0616L52.0249 14.7353L51.8835 14.5722L51.7345 14.416L51.1387 13.791L50.3281 14.5952L51.0053 15.3055L51.4621 14.8885L51.1145 14.5242" stroke="#E2DCCB" stroke-width="0.197438" stroke-miterlimit="10"/>
<path d="M48.4487 10.1744L48.9434 10.5266L49.3122 10.0301L48.3583 9.35156L47.7188 10.2976C48.2096 10.6502 48.7115 10.9882 49.179 11.372L49.8849 10.4745L50.3552 10.8447L50.8086 11.2354L50.0627 12.1L50.3957 12.3885L50.5621 12.5329L50.7215 12.685L51.3592 13.2931L52.1636 12.4825L51.3694 11.7253L50.9524 12.182L51.3403 12.5516" stroke="#E2DCCB" stroke-width="0.197438" stroke-miterlimit="10"/>
<path d="M50.2629 13.6761L49.8496 13.2827L49.4338 13.7406L50.1918 14.4626L50.9961 13.6519L50.3531 13.0388C50.2478 12.9345 50.1363 12.8371 50.0235 12.7411L49.6877 12.4502L48.9436 13.3164C48.8078 13.2008 48.6764 13.0797 48.537 12.9684L48.1161 12.6379L48.8202 11.7389C48.3751 11.3729 47.895 11.0542 47.4286 10.7168L46.7891 11.6628L47.5884 12.2317L47.9559 11.7341L47.5456 11.4423" stroke="#E2DCCB" stroke-width="0.197438" stroke-miterlimit="10"/>
<path d="M44.0909 7.69611L44.6443 7.94686L44.9094 7.38798C44.5532 7.22805 44.1995 7.06247 43.841 6.9082L43.3984 7.96094C43.6766 8.07927 43.9499 8.20839 44.2258 8.33173C44.3629 8.39543 44.5026 8.45335 44.6373 8.52193L45.0407 8.72884L45.5585 7.71112L46.0912 7.9845C46.2697 8.07401 46.439 8.18049 46.6131 8.27789L46.0494 9.271C46.3026 9.41987 46.5617 9.559 46.81 9.7159L47.5517 10.1919L48.1838 9.24086C47.8755 9.04382 47.5691 8.84375 47.2589 8.65L46.9384 9.179C47.0909 9.27193 47.2398 9.37078 47.3906 9.46647" stroke="#E2DCCB" stroke-width="0.197438" stroke-miterlimit="10"/>
<path d="M46.5639 10.7792C46.4027 10.6785 46.2467 10.5691 46.0811 10.4754L45.7621 11.0053C46.0609 11.185 46.3503 11.3802 46.6453 11.5662L47.2773 10.6152L46.5296 10.1354C46.2779 9.97957 46.0176 9.83781 45.7621 9.68815L45.2003 10.6823C44.8951 10.4973 44.5738 10.3418 44.2571 10.1781L44.7728 9.15928L44.3887 8.96211C44.2589 8.89998 44.1269 8.8426 43.9961 8.78271C43.7332 8.66543 43.473 8.5421 43.2081 8.42969L42.7656 9.48242C43.0659 9.61142 43.3616 9.75094 43.66 9.88401L43.9235 9.32434L43.4651 9.11677" stroke="#E2DCCB" stroke-width="0.197438" stroke-miterlimit="10"/>
<path d="M39.3377 6.11847L39.9297 6.25549L40.0797 5.65541C39.699 5.56828 39.3194 5.47627 38.9377 5.39453L38.7109 6.51374C39.0067 6.576 39.3004 6.64826 39.5951 6.71513C39.742 6.7504 39.8903 6.78054 40.0361 6.82016L40.4722 6.94428L40.7801 5.84469C41.1642 5.95433 41.5501 6.05792 41.926 6.1935L41.5677 7.27782C41.8455 7.37365 42.1254 7.46315 42.4012 7.56424L43.2209 7.88804L43.655 6.83188C43.314 6.69907 42.9757 6.55836 42.6319 6.43318L42.4212 7.0147C42.5906 7.07143 42.7546 7.1433 42.9215 7.20701" stroke="#E2DCCB" stroke-width="0.197438" stroke-miterlimit="10"/>
<path d="M42.3526 8.65534C42.1749 8.58782 42.0011 8.50963 41.8195 8.45303L41.6103 9.03508C41.777 9.08681 41.9365 9.15789 42.0992 9.22014L42.5856 9.41219L43.0197 8.35603L42.1934 8.0296C41.9145 7.93022 41.633 7.83835 41.353 7.74226L40.997 8.82724C40.662 8.70444 40.3155 8.61835 39.9735 8.51819L40.2791 7.41794L39.8639 7.29974L39.4435 7.20154C39.1629 7.13797 38.8833 7.06887 38.6018 7.00977L38.375 8.12897C38.6945 8.19742 39.0119 8.27534 39.3306 8.34747L39.4789 7.747L38.9886 7.63367" stroke="#E2DCCB" stroke-width="0.197438" stroke-miterlimit="10"/>
<path d="M34.3579 5.50706L34.9649 5.52259L34.9947 4.90475L33.8248 4.875L33.8203 6.01685C34.4245 6.03448 35.0294 6.03514 35.6315 6.09451L35.7178 4.95582L36.3147 5.00162C36.5135 5.01887 36.7111 5.04953 36.9093 5.07296L36.7711 6.20652C37.0621 6.24614 37.3548 6.27523 37.6444 6.32366L38.512 6.47898L38.7299 5.35806C38.3695 5.29449 38.0097 5.22618 37.6485 5.1676L37.5561 5.77926C37.7329 5.80519 37.9081 5.84047 38.0842 5.87074" stroke="#E2DCCB" stroke-width="0.197438" stroke-miterlimit="10"/>
<path d="M37.8185 7.40359C37.6309 7.37279 37.4452 7.33028 37.2562 7.30882L37.1655 7.92062C37.5105 7.97037 37.8522 8.04092 38.1959 8.09923L38.4138 6.97831L37.5395 6.82168C37.247 6.77561 36.9523 6.74455 36.6589 6.70506L36.5229 7.83888C36.3458 7.81913 36.1699 7.78715 35.9917 7.77701L35.4581 7.7366L35.5421 6.59778C34.9688 6.54079 34.3923 6.54408 33.817 6.52539L33.8125 7.66737L34.7936 7.69225L34.8217 7.0744L34.3183 7.06176" stroke="#E2DCCB" stroke-width="0.197438" stroke-miterlimit="10"/>
<path d="M36.3404 13.8305C35.8808 14.8833 34.842 15.5636 33.6941 15.5636C32.546 15.5636 31.5072 14.8833 31.0477 13.8305L30.9609 13.8684C31.4356 14.9557 32.5085 15.6582 33.6941 15.6582C34.8798 15.6582 35.9526 14.9556 36.4272 13.8684L36.3404 13.8305Z" fill="#E2DCCB"/>
<path d="M35.8275 13.57C35.4599 14.412 34.6292 14.956 33.7111 14.956C32.7929 14.956 31.962 14.412 31.5946 13.57L31.5078 13.6079C31.8904 14.4844 32.7552 15.0508 33.7111 15.0508C34.6668 15.0508 35.5316 14.4844 35.9142 13.6079L35.8275 13.57Z" fill="#E2DCCB"/>
<path d="M32.118 13.3116L32.0312 13.3495C32.3219 14.0152 32.9787 14.4453 33.7046 14.4453C34.4305 14.4453 35.0872 14.0152 35.3778 13.3495L35.2911 13.3116C35.0156 13.9428 34.3927 14.3507 33.7046 14.3507C33.0163 14.3507 32.3935 13.9428 32.118 13.3116Z" fill="#E2DCCB"/>
<path d="M34.7626 13.0533C34.5791 13.4737 34.1644 13.7452 33.7059 13.7452C33.2475 13.7452 32.8327 13.4737 32.6492 13.0533L32.5625 13.0912C32.761 13.5461 33.2098 13.8398 33.7059 13.8398C34.2019 13.8398 34.6507 13.5459 34.8492 13.0912L34.7626 13.0533Z" fill="#E2DCCB"/>
<path d="M34.2496 12.7889C34.1582 12.9984 33.9514 13.1339 33.7229 13.1339C33.4944 13.1339 33.2876 12.9984 33.1961 12.7889L33.1094 12.8268C33.2159 13.0708 33.4567 13.2285 33.7229 13.2285C33.989 13.2285 34.2298 13.0708 34.3363 12.8268L34.2496 12.7889Z" fill="#E2DCCB"/>
<path d="M36.3404 9.64686C35.8808 10.6997 34.842 11.38 33.6941 11.38C32.546 11.38 31.5072 10.6997 31.0477 9.64686L30.9609 9.68477C31.4356 10.7721 32.5085 11.4746 33.6941 11.4746C34.8798 11.4746 35.9526 10.772 36.4272 9.68477L36.3404 9.64686Z" fill="#E2DCCB"/>
<path d="M35.8275 9.38836C35.4599 10.2304 34.6292 10.7744 33.7111 10.7744C32.7929 10.7744 31.962 10.2304 31.5946 9.38836L31.5078 9.42627C31.8904 10.3028 32.7552 10.8691 33.7111 10.8691C34.6668 10.8691 35.5316 10.3028 35.9142 9.42627L35.8275 9.38836Z" fill="#E2DCCB"/>
<path d="M32.118 9.12999L32.0312 9.16789C32.3219 9.83352 32.9787 10.2637 33.7046 10.2637C34.4305 10.2637 35.0872 9.83352 35.3778 9.16789L35.2911 9.12999C35.0156 9.76113 34.3927 10.169 33.7046 10.169C33.0163 10.169 32.3935 9.76126 32.118 9.12999Z" fill="#E2DCCB"/>
<path d="M34.7626 8.86575C34.5791 9.28616 34.1644 9.55771 33.7059 9.55771C33.2475 9.55771 32.8327 9.28616 32.6492 8.86575L32.5625 8.90366C32.761 9.35856 33.2098 9.65234 33.7059 9.65234C34.2019 9.65234 34.6507 9.35842 34.8492 8.90366L34.7626 8.86575Z" fill="#E2DCCB"/>
<path d="M34.2496 8.60725C34.1582 8.81679 33.9514 8.95224 33.7229 8.95224C33.4944 8.95224 33.2876 8.81679 33.1961 8.60725L33.1094 8.64515C33.2159 8.88919 33.4567 9.04688 33.7229 9.04688C33.989 9.04688 34.2298 8.88919 34.3363 8.64515L34.2496 8.60725Z" fill="#E2DCCB"/>
<path d="M33.6686 11.7172C33.2089 12.77 32.1702 13.4503 31.0223 13.4503C29.8742 13.4503 28.8353 12.77 28.3758 11.7172L28.2891 11.7551C28.7637 12.8424 29.8366 13.5449 31.0223 13.5449C32.2078 13.5449 33.2807 12.8423 33.7553 11.7551L33.6686 11.7172Z" fill="#E2DCCB"/>
<path d="M33.1322 11.4587C32.7647 12.3007 31.9339 12.8448 31.0158 12.8448C30.0976 12.8448 29.2667 12.3008 28.8992 11.4587L28.8125 11.4966C29.1951 12.3731 30.0599 12.9395 31.0158 12.9395C31.9715 12.9395 32.8363 12.3731 33.2189 11.4966L33.1322 11.4587Z" fill="#E2DCCB"/>
<path d="M32.6192 11.1964C32.3436 11.8275 31.7209 12.2354 31.0326 12.2354C30.3443 12.2354 29.7215 11.8275 29.446 11.1964L29.3594 11.2343C29.65 11.9001 30.3068 12.3301 31.0327 12.3301C31.7586 12.3301 32.4154 11.8999 32.7059 11.2343L32.6192 11.1964Z" fill="#E2DCCB"/>
<path d="M32.0673 10.9379C31.8838 11.3583 31.4691 11.6298 31.0106 11.6298C30.5522 11.6298 30.1374 11.3582 29.9539 10.9379L29.8672 10.9758C30.0658 11.4307 30.5145 11.7246 31.0106 11.7246C31.5066 11.7246 31.9554 11.4307 32.1539 10.9758L32.0673 10.9379Z" fill="#E2DCCB"/>
<path d="M31.5543 10.6756C31.4629 10.8852 31.2561 11.0206 31.0276 11.0206C30.7991 11.0206 30.5923 10.8852 30.5008 10.6756L30.4141 10.7135C30.5205 10.9575 30.7614 11.1152 31.0276 11.1152C31.2937 11.1152 31.5345 10.9575 31.6411 10.7135L31.5543 10.6756Z" fill="#E2DCCB"/>
<path d="M39.0592 11.7172C38.5996 12.77 37.5608 13.4503 36.4129 13.4503C35.2648 13.4503 34.2259 12.77 33.7664 11.7172L33.6797 11.7551C34.1543 12.8424 35.2272 13.5449 36.4129 13.5449C37.5986 13.5449 38.6713 12.8423 39.1459 11.7551L39.0592 11.7172Z" fill="#E2DCCB"/>
<path d="M38.5384 11.4587C38.1708 12.3007 37.3401 12.8448 36.422 12.8448C35.5038 12.8448 34.673 12.3008 34.3055 11.4587L34.2188 11.4966C34.6014 12.3731 35.4662 12.9395 36.422 12.9395C37.3778 12.9395 38.2425 12.3731 38.6252 11.4966L38.5384 11.4587Z" fill="#E2DCCB"/>
<path d="M38.01 11.1964C37.7343 11.8275 37.1116 12.2354 36.4235 12.2354C35.7352 12.2354 35.1124 11.8275 34.8369 11.1964L34.75 11.2343C35.0406 11.9001 35.6974 12.3301 36.4234 12.3301C37.1493 12.3301 37.8059 11.8999 38.0966 11.2343L38.01 11.1964Z" fill="#E2DCCB"/>
<path d="M37.4812 10.9379C37.2977 11.3583 36.883 11.6298 36.4247 11.6298C35.9662 11.6298 35.5515 11.3582 35.368 10.9379L35.2812 10.9758C35.4799 11.4307 35.9286 11.7246 36.4247 11.7246C36.9206 11.7246 37.3695 11.4307 37.568 10.9758L37.4812 10.9379Z" fill="#E2DCCB"/>
<path d="M36.945 10.6756C36.8535 10.8852 36.6467 11.0206 36.4182 11.0206C36.1897 11.0206 35.9829 10.8852 35.8914 10.6756L35.8047 10.7135C35.9112 10.9575 36.152 11.1152 36.4182 11.1152C36.6843 11.1152 36.9251 10.9575 37.0317 10.7135L36.945 10.6756Z" fill="#E2DCCB"/>
<path d="M36.3404 49.6598C35.8808 48.6069 34.842 47.9267 33.6941 47.9267C32.546 47.9267 31.5072 48.6069 31.0477 49.6598L30.9609 49.6219C31.4356 48.5345 32.5085 47.832 33.6941 47.832C34.8798 47.832 35.9526 48.5346 36.4272 49.6219L36.3404 49.6598Z" fill="#E2DCCB"/>
<path d="M35.8275 49.9202C35.4599 49.0782 34.6292 48.5342 33.7111 48.5342C32.7929 48.5342 31.962 49.0782 31.5946 49.9202L31.5078 49.8823C31.8904 49.0058 32.7552 48.4395 33.7111 48.4395C34.6668 48.4395 35.5316 49.0058 35.9142 49.8823L35.8275 49.9202Z" fill="#E2DCCB"/>
<path d="M32.118 50.1786L32.0312 50.1407C32.3219 49.4751 32.9787 49.0449 33.7046 49.0449C34.4305 49.0449 35.0872 49.4751 35.3778 50.1407L35.2911 50.1786C35.0156 49.5475 34.3927 49.1396 33.7046 49.1396C33.0163 49.1396 32.3935 49.5475 32.118 50.1786Z" fill="#E2DCCB"/>
<path d="M34.7626 50.4409C34.5791 50.0205 34.1644 49.7489 33.7059 49.7489C33.2475 49.7489 32.8327 50.0205 32.6492 50.4409L32.5625 50.403C32.761 49.9481 33.2098 49.6543 33.7059 49.6543C34.2019 49.6543 34.6507 49.9482 34.8492 50.403L34.7626 50.4409Z" fill="#E2DCCB"/>
<path d="M34.2496 50.6994C34.1582 50.4898 33.9514 50.3544 33.7229 50.3544C33.4944 50.3544 33.2876 50.4898 33.1961 50.6994L33.1094 50.6615C33.2159 50.4175 33.4567 50.2598 33.7229 50.2598C33.989 50.2598 34.2298 50.4175 34.3363 50.6615L34.2496 50.6994Z" fill="#E2DCCB"/>
<path d="M36.3404 53.8434C35.8808 52.7905 34.842 52.1103 33.6941 52.1103C32.546 52.1103 31.5072 52.7905 31.0477 53.8434L30.9609 53.8055C31.4356 52.7181 32.5085 52.0156 33.6941 52.0156C34.8798 52.0156 35.9526 52.7182 36.4272 53.8055L36.3404 53.8434Z" fill="#E2DCCB"/>
<path d="M35.8275 54.1019C35.4599 53.2599 34.6292 52.7159 33.7111 52.7159C32.7929 52.7159 31.962 53.2599 31.5946 54.1019L31.5078 54.064C31.8904 53.1875 32.7552 52.6211 33.7111 52.6211C34.6668 52.6211 35.5316 53.1875 35.9142 54.064L35.8275 54.1019Z" fill="#E2DCCB"/>
<path d="M32.118 54.3642L32.0312 54.3262C32.3219 53.6606 32.9787 53.2305 33.7046 53.2305C34.4305 53.2305 35.0872 53.6606 35.3778 54.3262L35.2911 54.3642C35.0156 53.733 34.3927 53.3251 33.7046 53.3251C33.0163 53.3251 32.3935 53.7329 32.118 54.3642Z" fill="#E2DCCB"/>
<path d="M34.7626 54.6225C34.5791 54.2021 34.1644 53.9306 33.7059 53.9306C33.2475 53.9306 32.8327 54.2021 32.6492 54.6225L32.5625 54.5846C32.761 54.1297 33.2098 53.8359 33.7059 53.8359C34.2019 53.8359 34.6507 54.1299 34.8492 54.5846L34.7626 54.6225Z" fill="#E2DCCB"/>
<path d="M34.2496 54.881C34.1582 54.6715 33.9514 54.536 33.7229 54.536C33.4944 54.536 33.2876 54.6715 33.1961 54.881L33.1094 54.8431C33.2159 54.5991 33.4567 54.4414 33.7229 54.4414C33.989 54.4414 34.2298 54.5991 34.3363 54.8431L34.2496 54.881Z" fill="#E2DCCB"/>
<path d="M33.6686 51.7731C33.2089 50.7202 32.1702 50.04 31.0223 50.04C29.8742 50.04 28.8353 50.7202 28.3758 51.7731L28.2891 51.7351C28.7637 50.6478 29.8366 49.9453 31.0223 49.9453C32.2078 49.9453 33.2807 50.6479 33.7553 51.7351L33.6686 51.7731Z" fill="#E2DCCB"/>
<path d="M33.1322 52.0355C32.7647 51.1935 31.9339 50.6493 31.0158 50.6493C30.0976 50.6493 29.2667 51.1933 28.8992 52.0355L28.8125 51.9976C29.1951 51.1211 30.0599 50.5547 31.0158 50.5547C31.9715 50.5547 32.8363 51.1211 33.2189 51.9976L33.1322 52.0355Z" fill="#E2DCCB"/>
<path d="M32.6192 52.2938C32.3436 51.6627 31.7209 51.2548 31.0326 51.2548C30.3443 51.2548 29.7215 51.6627 29.446 52.2938L29.3594 52.2559C29.65 51.5902 30.3068 51.1602 31.0327 51.1602C31.7586 51.1602 32.4154 51.5903 32.7059 52.2559L32.6192 52.2938Z" fill="#E2DCCB"/>
<path d="M32.0673 52.5543C31.8838 52.1339 31.4691 51.8623 31.0106 51.8623C30.5522 51.8623 30.1374 52.134 29.9539 52.5543L29.8672 52.5164C30.0658 52.0615 30.5145 51.7676 31.0106 51.7676C31.5066 51.7676 31.9554 52.0615 32.1539 52.5164L32.0673 52.5543Z" fill="#E2DCCB"/>
<path d="M31.5543 52.8166C31.4629 52.607 31.2561 52.4716 31.0276 52.4716C30.7991 52.4716 30.5923 52.607 30.5008 52.8166L30.4141 52.7787C30.5205 52.5346 30.7614 52.377 31.0276 52.377C31.2937 52.377 31.5345 52.5346 31.6411 52.7787L31.5543 52.8166Z" fill="#E2DCCB"/>
<path d="M39.0592 51.7731C38.5996 50.7202 37.5608 50.04 36.4129 50.04C35.2648 50.04 34.2259 50.7202 33.7664 51.7731L33.6797 51.7351C34.1543 50.6478 35.2272 49.9453 36.4129 49.9453C37.5986 49.9453 38.6713 50.6479 39.1459 51.7351L39.0592 51.7731Z" fill="#E2DCCB"/>
<path d="M38.5384 52.0355C38.1708 51.1935 37.3401 50.6493 36.422 50.6493C35.5038 50.6493 34.673 51.1933 34.3055 52.0355L34.2188 51.9976C34.6014 51.1211 35.4662 50.5547 36.422 50.5547C37.3778 50.5547 38.2425 51.1211 38.6252 51.9976L38.5384 52.0355Z" fill="#E2DCCB"/>
<path d="M38.01 52.2938C37.7343 51.6627 37.1116 51.2548 36.4235 51.2548C35.7352 51.2548 35.1124 51.6627 34.8369 52.2938L34.75 52.2559C35.0406 51.5902 35.6974 51.1602 36.4234 51.1602C37.1493 51.1602 37.8059 51.5903 38.0966 52.2559L38.01 52.2938Z" fill="#E2DCCB"/>
<path d="M37.4812 52.5543C37.2977 52.1339 36.883 51.8623 36.4247 51.8623C35.9662 51.8623 35.5515 52.134 35.368 52.5543L35.2812 52.5164C35.4799 52.0615 35.9286 51.7676 36.4247 51.7676C36.9206 51.7676 37.3695 52.0615 37.568 52.5164L37.4812 52.5543Z" fill="#E2DCCB"/>
<path d="M36.945 52.8166C36.8535 52.607 36.6467 52.4716 36.4182 52.4716C36.1897 52.4716 35.9829 52.607 35.8914 52.8166L35.8047 52.7787C35.9112 52.5346 36.152 52.377 36.4182 52.377C36.6843 52.377 36.9251 52.5346 37.0317 52.7787L36.945 52.8166Z" fill="#E2DCCB"/>
<path d="M32.2992 3.14012C33.0475 3.88841 34.2607 3.88841 35.0091 3.14012C35.7574 2.39183 35.7574 1.17864 35.0091 0.430357C34.2608 -0.317931 33.0475 -0.317931 32.2992 0.430357C31.5509 1.17864 31.5509 2.39183 32.2992 3.14012ZM33.6541 0.667413L34.7719 1.78517L33.6541 2.90293L32.5364 1.78517L33.6541 0.667413Z" fill="#E2DCCB"/>
<path d="M32.2992 63.1616C33.0475 63.9099 34.2607 63.9099 35.0091 63.1616C35.7574 62.4133 35.7574 61.2001 35.0091 60.4518C34.2608 59.7036 33.0475 59.7036 32.2992 60.4518C31.5509 61.2001 31.5509 62.4133 32.2992 63.1616ZM33.6541 60.6889L34.7719 61.8067L33.6541 62.9244L32.5364 61.8067L33.6541 60.6889Z" fill="#E2DCCB"/>
<path d="M5.80223 29.7836C6.55052 30.5319 6.55052 31.7451 5.80223 32.4935C5.05394 33.2418 3.84075 33.2418 3.09247 32.4935C2.34418 31.7452 2.34418 30.5319 3.09247 29.7836C3.84075 29.0353 5.05394 29.0353 5.80223 29.7836ZM3.32952 31.1385L4.44728 32.2563L5.56504 31.1385L4.44728 30.0208L3.32952 31.1385Z" fill="#E2DCCB"/>
<path d="M65.0366 29.7836C65.7849 30.5319 65.7849 31.7451 65.0366 32.4935C64.2883 33.2418 63.0751 33.2418 62.3268 32.4935C61.5786 31.7452 61.5786 30.5319 62.3268 29.7836C63.0751 29.0353 64.2883 29.0353 65.0366 29.7836ZM62.5639 31.1385L63.6817 32.2563L64.7994 31.1385L63.6817 30.0208L62.5639 31.1385Z" fill="#E2DCCB"/>
</g>
<g filter="url(#filter1_d_4122_227)">
<path d="M28.8184 19.5332H38.4784C42.1584 19.5332 45.1484 22.6532 45.1484 26.4932V36.5732C45.1484 38.4191 44.4457 40.1894 43.1948 41.4947C41.944 42.7999 40.2474 43.5332 38.4784 43.5332H28.8184C25.1384 43.5332 22.1484 40.4132 22.1484 36.5732V26.4932C22.1484 24.6473 22.8512 22.877 24.102 21.5717C25.3529 20.2665 27.0494 19.5332 28.8184 19.5332ZM28.5884 21.9332C27.4904 21.9332 26.4374 22.3883 25.661 23.1985C24.8846 24.0087 24.4484 25.1075 24.4484 26.2532V36.8132C24.4484 39.2012 26.2999 41.1332 28.5884 41.1332H38.7084C39.8064 41.1332 40.8595 40.6781 41.6359 39.8679C42.4123 39.0577 42.8484 37.9589 42.8484 36.8132V26.2532C42.8484 23.8652 40.9969 21.9332 38.7084 21.9332H28.5884ZM39.6859 23.7332C40.0672 23.7332 40.4328 23.8912 40.7024 24.1725C40.972 24.4538 41.1234 24.8354 41.1234 25.2332C41.1234 25.631 40.972 26.0126 40.7024 26.2939C40.4328 26.5752 40.0672 26.7332 39.6859 26.7332C39.3047 26.7332 38.9391 26.5752 38.6695 26.2939C38.3999 26.0126 38.2484 25.631 38.2484 25.2332C38.2484 24.8354 38.3999 24.4538 38.6695 24.1725C38.9391 23.8912 39.3047 23.7332 39.6859 23.7332ZM33.6484 25.5332C35.1734 25.5332 36.636 26.1653 37.7143 27.2906C38.7926 28.4158 39.3984 29.9419 39.3984 31.5332C39.3984 33.1245 38.7926 34.6506 37.7143 35.7758C36.636 36.9011 35.1734 37.5332 33.6484 37.5332C32.1234 37.5332 30.6609 36.9011 29.5826 35.7758C28.5042 34.6506 27.8984 33.1245 27.8984 31.5332C27.8984 29.9419 28.5042 28.4158 29.5826 27.2906C30.6609 26.1653 32.1234 25.5332 33.6484 25.5332ZM33.6484 27.9332C32.7334 27.9332 31.8559 28.3125 31.2089 28.9876C30.5619 29.6627 30.1984 30.5784 30.1984 31.5332C30.1984 32.488 30.5619 33.4037 31.2089 34.0788C31.8559 34.7539 32.7334 35.1332 33.6484 35.1332C34.5634 35.1332 35.441 34.7539 36.088 34.0788C36.735 33.4037 37.0984 32.488 37.0984 31.5332C37.0984 30.5784 36.735 29.6627 36.088 28.9876C35.441 28.3125 34.5634 27.9332 33.6484 27.9332Z" fill="#D8DFB2"/>
</g>
<defs>
<filter id="filter0_d_4122_227" x="0.591499" y="-1.41045" width="66.2623" height="66.2643" filterUnits="userSpaceOnUse" color-interpolation-filters="sRGB">
<feFlood flood-opacity="0" result="BackgroundImageFix"/>
<feColorMatrix in="SourceAlpha" type="matrix" values="0 0 0 0 0 0 0 0 0 0 0 0 0 0 0 0 0 0 127 0" result="hardAlpha"/>
<feOffset/>
<feGaussianBlur stdDeviation="2.548"/>
<feComposite in2="hardAlpha" operator="out"/>
<feColorMatrix type="matrix" values="0 0 0 0 0.898039 0 0 0 0 0.764706 0 0 0 0 0.517647 0 0 0 0.54 0"/>
<feBlend mode="normal" in2="BackgroundImageFix" result="effect1_dropShadow_4122_227"/>
<feBlend mode="normal" in="SourceGraphic" in2="effect1_dropShadow_4122_227" result="shape"/>
</filter>
<filter id="filter1_d_4122_227" x="18.1484" y="19.5332" width="31" height="34" filterUnits="userSpaceOnUse" color-interpolation-filters="sRGB">
<feFlood flood-opacity="0" result="BackgroundImageFix"/>
<feColorMatrix in="SourceAlpha" type="matrix" values="0 0 0 0 0 0 0 0 0 0 0 0 0 0 0 0 0 0 127 0" result="hardAlpha"/>
<feOffset dy="6"/>
<feGaussianBlur stdDeviation="2"/>
<feComposite in2="hardAlpha" operator="out"/>
<feColorMatrix type="matrix" values="0 0 0 0 0 0 0 0 0 0 0 0 0 0 0 0 0 0 0.25 0"/>
<feBlend mode="normal" in2="BackgroundImageFix" result="effect1_dropShadow_4122_227"/>
<feBlend mode="normal" in="SourceGraphic" in2="effect1_dropShadow_4122_227" result="shape"/>
</filter>
<clipPath id="clip0_4122_227">
<rect width="65.8125" height="65.8125" fill="white" transform="translate(0.8125)"/>
</clipPath>
</defs>
</svg>
