<svg width="66" height="66" viewBox="0 0 66 66" fill="none" xmlns="http://www.w3.org/2000/svg">
<g clip-path="url(#clip0_4122_9)">
<g filter="url(#filter0_d_4122_9)">
<path d="M32.9111 59.7578C17.4519 59.7578 4.875 47.1808 4.875 31.7217C4.875 16.2624 17.4519 3.68555 32.9111 3.68555C48.3702 3.68555 60.9473 16.2624 60.9473 31.7217C60.9473 47.1808 48.3702 59.7578 32.9111 59.7578ZM32.9111 5.26505C18.3229 5.26505 6.4545 17.1334 6.4545 31.7217C6.4545 46.3099 18.3229 58.1783 32.9111 58.1783C47.4994 58.1783 59.3678 46.3099 59.3678 31.7217C59.3678 17.1334 47.4994 5.26505 32.9111 5.26505Z" fill="#E2DCCB"/>
</g>
<path d="M13.7237 57.7932L14.0427 57.4743C14.1659 57.3511 14.2275 57.1893 14.2275 57.0274C14.2275 56.8655 14.1659 56.7038 14.0427 56.5806L13.8334 56.3713C13.587 56.1249 13.1861 56.1249 12.9397 56.3713L12.6216 56.6893L11.8083 55.8761L12.1864 55.4981C12.2931 55.3915 12.3463 55.2514 12.3463 55.1114C12.3463 54.9712 12.2928 54.8312 12.1864 54.7244L12.0437 54.5819C11.99 54.528 11.9267 54.4876 11.858 54.4605C11.8977 54.4221 11.9227 54.3684 11.9227 54.309C11.9227 54.2613 11.9061 54.2176 11.8792 54.1822H11.9527C12.069 54.1822 12.1641 54.0871 12.1641 53.9709C12.1641 53.8546 12.069 53.7595 11.9527 53.7595H11.7273V53.2879C11.836 53.2796 11.9227 53.1889 11.9227 53.0782C11.9227 52.9673 11.8361 52.8768 11.7273 52.8685V50.2793H11.5863V52.869C11.4802 52.8799 11.3964 52.9693 11.3964 53.0782C11.3964 53.187 11.4802 53.2764 11.5863 53.2873V53.7596H11.3608C11.2446 53.7596 11.1494 53.8548 11.1494 53.971C11.1494 54.0872 11.2446 54.1824 11.3608 54.1824H11.4399C11.4131 54.2179 11.3964 54.2615 11.3964 54.3091C11.3964 54.3678 11.4207 54.421 11.4595 54.4593C11.3894 54.4864 11.3246 54.5271 11.2697 54.582L11.127 54.7245C10.9136 54.938 10.9137 55.2851 11.127 55.4982L11.5051 55.8763L10.6918 56.6894L10.3738 56.3714C10.1274 56.125 9.72642 56.125 9.48002 56.3714L9.27074 56.5807C9.02434 56.8271 9.02434 57.2282 9.27074 57.4744L9.58967 57.7934L9.29035 58.0927C9.03276 58.3503 9.03276 58.7679 9.29035 59.0255L9.48002 59.2152C9.61665 59.3518 9.80474 59.4183 10.0006 59.3962C10.1522 59.3791 10.2898 59.2992 10.3977 59.1912L10.6918 58.8972L11.4797 59.6851L11.1073 60.0576C10.9007 60.2641 10.9007 60.6248 11.1073 60.8313L11.2499 60.974C11.4632 61.1872 11.8103 61.1872 12.0235 60.974L12.1662 60.8313C12.273 60.7245 12.3262 60.5845 12.3262 60.4444C12.3262 60.3044 12.2728 60.1642 12.1662 60.0576L11.8136 59.7048L12.6214 58.8971L12.9394 59.2151C13.0588 59.3344 13.2175 59.4003 13.3863 59.4003C13.555 59.4003 13.7137 59.3344 13.8331 59.2151L14.0424 59.0058C14.1656 58.8826 14.2272 58.7208 14.2272 58.5589C14.2272 58.397 14.1656 58.2352 14.0424 58.112L13.7237 57.7932ZM11.4949 57.7932L10.6929 58.5952L9.89201 57.7942L10.694 56.9922L11.4949 57.7932ZM11.6568 57.955L12.4588 58.757L11.6568 59.559L10.8548 58.757L11.6568 57.955ZM12.6206 58.5951L11.8186 57.7931L12.6206 56.9911L13.4226 57.7931L12.6206 58.5951ZM11.6568 57.6313L10.8558 56.8303L11.6576 56.0283L12.4587 56.8294L11.6568 57.6313ZM13.0901 56.5217C13.2534 56.3584 13.5193 56.3584 13.6828 56.5217L13.8921 56.731C14.0554 56.8945 14.0554 57.1603 13.8921 57.3237L13.5732 57.6427L12.7712 56.8407L13.0901 56.5217ZM11.2779 54.8747L11.4206 54.7322C11.4838 54.669 11.5677 54.6342 11.6568 54.6342C11.7461 54.6342 11.8301 54.669 11.8931 54.7322L12.0358 54.8747C12.1661 55.005 12.166 55.2169 12.0358 55.3473L11.6568 55.7262L11.2779 55.3473C11.1476 55.2171 11.1473 55.0052 11.2779 54.8747ZM9.42145 57.3237C9.2581 57.1603 9.2581 56.8945 9.42145 56.731L9.63073 56.5217C9.79408 56.3584 10.06 56.3584 10.2233 56.5217L10.5422 56.8407L9.74025 57.6427L9.42145 57.3237ZM10.2234 59.0646C10.1443 59.1437 10.039 59.1874 9.92715 59.1874C9.81527 59.1874 9.70997 59.1438 9.63086 59.0646L9.42158 58.8553C9.33997 58.7736 9.29904 58.6663 9.29904 58.559C9.29904 58.4518 9.33997 58.3445 9.42158 58.2627L9.74051 57.9438L10.5425 58.7458L10.2234 59.0646ZM12.0159 60.6807L11.8732 60.8234C11.7429 60.9536 11.531 60.9536 11.4007 60.8234L11.2581 60.6807C11.195 60.6175 11.1603 60.5337 11.1603 60.4444C11.1603 60.3552 11.1951 60.2713 11.2581 60.2082L11.6371 59.8292L12.016 60.2082C12.1462 60.3385 12.1462 60.5504 12.0159 60.6807ZM13.8921 58.8553L13.6828 59.0646C13.6037 59.1437 13.4984 59.1874 13.3865 59.1874C13.2745 59.1874 13.1693 59.1438 13.0902 59.0646L12.7721 58.7466L13.5741 57.9446L13.8921 58.2626C14.0553 58.426 14.0554 58.6917 13.8921 58.8553Z" fill="#E2DCCB"/>
<path d="M11.7338 62.0332V61.8486H11.9593C12.0755 61.8486 12.1707 61.7534 12.1707 61.6372C12.1707 61.5209 12.0755 61.4258 11.9593 61.4258H11.3675C11.2513 61.4258 11.1561 61.5209 11.1561 61.6372C11.1561 61.7534 11.2513 61.8486 11.3675 61.8486H11.5929V62.0332H11.3694L11.0625 63.96C11.0625 63.96 11.3725 64.1573 11.7671 64.1291C12.1616 64.1009 12.3025 63.9036 12.3025 63.9036L11.9444 62.0334H11.7338V62.0332Z" fill="#E2DCCB"/>
<path d="M55.4502 57.7932L55.7691 57.4743C55.8923 57.3511 55.9539 57.1893 55.9539 57.0274C55.9539 56.8655 55.8923 56.7038 55.7691 56.5806L55.5597 56.3713C55.3133 56.1249 54.9124 56.1249 54.666 56.3713L54.348 56.6893L53.5346 55.8761L53.9127 55.4981C54.0193 55.3915 54.0726 55.2514 54.0726 55.1114C54.0726 54.9712 54.0192 54.8312 53.9127 54.7244L53.77 54.5819C53.7163 54.528 53.653 54.4876 53.5843 54.4605C53.624 54.4221 53.649 54.3684 53.649 54.309C53.649 54.2613 53.6324 54.2176 53.6055 54.1822H53.679C53.7953 54.1822 53.8904 54.0871 53.8904 53.9709C53.8904 53.8546 53.7953 53.7595 53.679 53.7595H53.4536V53.2879C53.5623 53.2796 53.649 53.1889 53.649 53.0782C53.649 52.9673 53.5624 52.8768 53.4536 52.8685V50.2793H53.3127V52.869C53.2066 52.8799 53.1228 52.9693 53.1228 53.0782C53.1228 53.187 53.2066 53.2764 53.3127 53.2873V53.7596H53.0872C52.971 53.7596 52.8759 53.8548 52.8759 53.971C52.8759 54.0872 52.971 54.1824 53.0872 54.1824H53.1664C53.1395 54.2179 53.1228 54.2615 53.1228 54.3091C53.1228 54.3678 53.1471 54.421 53.186 54.4593C53.1158 54.4864 53.051 54.5271 52.9963 54.582L52.8536 54.7245C52.6401 54.938 52.6402 55.2851 52.8536 55.4982L53.2316 55.8763L52.4183 56.6894L52.1003 56.3714C51.8539 56.125 51.453 56.125 51.2066 56.3714L50.9973 56.5807C50.7509 56.8271 50.7509 57.2282 50.9973 57.4744L51.3162 57.7934L51.0169 58.0927C50.7593 58.3503 50.7593 58.7679 51.0169 59.0255L51.2066 59.2152C51.3432 59.3518 51.5314 59.4183 51.7272 59.3962C51.8788 59.3791 52.0165 59.2992 52.1243 59.1912L52.4183 58.8972L53.2062 59.6851L52.8339 60.0576C52.6272 60.2641 52.6272 60.6248 52.8339 60.8313L52.9764 60.974C53.1898 61.1872 53.5369 61.1872 53.7501 60.974L53.8928 60.8313C53.9995 60.7245 54.0528 60.5845 54.0528 60.4444C54.0528 60.3044 53.9995 60.1642 53.8928 60.0576L53.5402 59.7048L54.348 58.8971L54.666 59.2151C54.7853 59.3344 54.9441 59.4003 55.1128 59.4003C55.2816 59.4003 55.4403 59.3344 55.5597 59.2151L55.7691 59.0058C55.8923 58.8826 55.9539 58.7208 55.9539 58.5589C55.9539 58.397 55.8923 58.2352 55.7691 58.112L55.4502 57.7932ZM53.2214 57.7932L52.4194 58.5952L51.6184 57.7942L52.4204 56.9922L53.2214 57.7932ZM53.3833 57.955L54.1853 58.757L53.3833 59.559L52.5813 58.757L53.3833 57.955ZM54.3472 58.5951L53.5452 57.7931L54.3472 56.9911L55.1491 57.7931L54.3472 58.5951ZM53.3833 57.6313L52.5822 56.8303L53.3841 56.0283L54.1851 56.8294L53.3833 57.6313ZM54.8165 56.5217C54.9799 56.3584 55.2458 56.3584 55.4092 56.5217L55.6187 56.731C55.782 56.8945 55.782 57.1603 55.6187 57.3237L55.2997 57.6427L54.4977 56.8407L54.8165 56.5217ZM53.0043 54.8747L53.147 54.7322C53.2102 54.669 53.2942 54.6342 53.3833 54.6342C53.4725 54.6342 53.5564 54.669 53.6195 54.7322L53.7622 54.8747C53.8925 55.005 53.8923 55.2169 53.7622 55.3473L53.3833 55.7262L53.0043 55.3473C52.874 55.2171 52.8739 55.0052 53.0043 54.8747ZM51.148 57.3237C50.9847 57.1603 50.9847 56.8945 51.148 56.731L51.3573 56.5217C51.5206 56.3584 51.7865 56.3584 51.95 56.5217L52.2689 56.8407L51.4669 57.6427L51.148 57.3237ZM51.95 59.0646C51.8708 59.1437 51.7656 59.1874 51.6537 59.1874C51.5418 59.1874 51.4365 59.1438 51.3574 59.0646L51.1481 58.8553C51.0665 58.7736 51.0256 58.6663 51.0256 58.559C51.0256 58.4518 51.0665 58.3445 51.1481 58.2627L51.4671 57.9438L52.2691 58.7458L51.95 59.0646ZM53.7423 60.6807L53.5997 60.8234C53.4694 60.9536 53.2574 60.9536 53.1271 60.8234L52.9846 60.6807C52.9214 60.6175 52.8866 60.5337 52.8866 60.4444C52.8866 60.3552 52.9214 60.2713 52.9846 60.2082L53.3634 59.8292L53.7423 60.2082C53.8727 60.3385 53.8727 60.5504 53.7423 60.6807ZM55.6185 58.8553L55.4091 59.0646C55.33 59.1437 55.2247 59.1874 55.1128 59.1874C55.0009 59.1874 54.8956 59.1438 54.8165 59.0646L54.4987 58.7466L55.3006 57.9446L55.6187 58.2626C55.7819 58.426 55.782 58.6917 55.6185 58.8553Z" fill="#E2DCCB"/>
<path d="M53.4447 62.0332V61.8486H53.6702C53.7864 61.8486 53.8816 61.7534 53.8816 61.6372C53.8816 61.5209 53.7864 61.4258 53.6702 61.4258H53.0784C52.9622 61.4258 52.867 61.5209 52.867 61.6372C52.867 61.7534 52.9622 61.8486 53.0784 61.8486H53.3039V62.0332H53.0804L52.7734 63.96C52.7734 63.96 53.0834 64.1573 53.4779 64.1291C53.8724 64.1009 54.0133 63.9036 54.0133 63.9036L53.6552 62.0334H53.4447V62.0332Z" fill="#E2DCCB"/>
<path d="M28.5362 5.87074C28.7361 5.83784 28.934 5.79335 29.1353 5.77018L29.0447 5.15826C28.6584 5.21407 28.2754 5.29172 27.8906 5.35806L28.1086 6.47898L29.0013 6.31919C29.2998 6.2722 29.6006 6.24021 29.9001 6.20007L29.7642 5.06625C29.9625 5.04401 30.1597 5.00965 30.359 4.99754L30.9559 4.95174L31.0399 6.09056C31.6251 6.03264 32.2132 6.03554 32.8004 6.01685L32.7959 4.875L31.6991 4.90277L31.7271 5.52062L32.2627 5.50693" stroke="#E2DCCB" stroke-width="0.197438" stroke-miterlimit="10"/>
<path d="M32.2986 7.06176L31.7282 7.07598L31.7579 7.69383L32.8045 7.66737L32.8 6.52539C32.2079 6.54303 31.6151 6.54329 31.0252 6.6016L31.1115 7.74029L30.5779 7.7807C30.4002 7.79584 30.224 7.82413 30.0469 7.84493L29.9087 6.71138C29.6236 6.75034 29.3368 6.77851 29.053 6.82602L28.2031 6.97818L28.4211 8.0991C28.743 8.04303 29.0641 7.9813 29.3866 7.92865L29.2942 7.31698C29.1282 7.34133 28.9638 7.3749 28.7985 7.4032" stroke="#E2DCCB" stroke-width="0.197438" stroke-miterlimit="10"/>
<path d="M23.7102 7.20688C23.8995 7.13488 24.0848 7.05235 24.2782 6.99154L24.0691 6.40949C23.8827 6.46833 23.7035 6.54664 23.5212 6.61654L22.9766 6.83174L23.4107 7.8879L24.2541 7.55476C24.5387 7.45328 24.8262 7.3593 25.112 7.26137L24.7561 6.17638C25.1319 6.04028 25.5194 5.9417 25.9029 5.83008L26.2085 6.93033L26.6323 6.80976L27.0614 6.70946C27.348 6.64444 27.6333 6.57415 27.9208 6.51374L27.694 5.39453C27.3361 5.47074 26.9802 5.55735 26.6234 5.63883L26.7717 6.2393L27.294 6.11834" stroke="#E2DCCB" stroke-width="0.197438" stroke-miterlimit="10"/>
<path d="M27.6245 7.63354L27.0688 7.762L27.2188 8.36208C27.5588 8.28521 27.8975 8.20229 28.2381 8.12897L28.0113 7.00977C27.7216 7.07084 27.434 7.14179 27.1454 7.2072C27.0014 7.24182 26.8562 7.27117 26.7134 7.31L26.2863 7.43162L26.5941 8.53122C26.2514 8.62928 25.9065 8.72036 25.5714 8.84251L25.2133 7.75819C24.9413 7.85217 24.6669 7.9397 24.3968 8.03868L23.5938 8.35589L24.0278 9.41205C24.3326 9.29425 24.6341 9.16763 24.9412 9.05588L24.7303 8.47436C24.5712 8.5274 24.4175 8.59545 24.2608 8.65508" stroke="#E2DCCB" stroke-width="0.197438" stroke-miterlimit="10"/>
<path d="M19.2308 9.46634C19.4024 9.35906 19.5688 9.24323 19.7449 9.1432L19.4259 8.61327C19.0915 8.8144 18.767 9.03171 18.4375 9.24073L19.0696 10.1917L19.8327 9.70208C20.0897 9.54307 20.3551 9.39815 20.616 9.24547L20.0542 8.2513C20.3965 8.04544 20.7553 7.86972 21.1101 7.68677L21.6259 8.70554L22.018 8.50455C22.1504 8.44111 22.2852 8.38254 22.4186 8.3212C22.6869 8.20142 22.9525 8.07572 23.2229 7.96094L22.7803 6.9082C22.444 7.05233 22.1125 7.20778 21.7785 7.3577L22.042 7.91737L22.5304 7.69624" stroke="#E2DCCB" stroke-width="0.197438" stroke-miterlimit="10"/>
<path d="M23.1715 9.1169L22.6518 9.35211L22.9169 9.91099C23.2353 9.76897 23.5508 9.6205 23.871 9.48242L23.4284 8.42969C23.156 8.54565 22.8882 8.67227 22.6179 8.79297C22.4836 8.85536 22.3466 8.91196 22.2147 8.97922L21.8194 9.18192L22.3373 10.1998L21.8612 10.4437C21.7014 10.5231 21.5508 10.6193 21.3951 10.7061L20.8313 9.71303C20.5834 9.859 20.3293 9.9951 20.0861 10.1488L19.3594 10.6152L19.9914 11.5662L20.8179 11.0378L20.4974 10.5088C20.3542 10.5961 20.2145 10.6893 20.0728 10.7792" stroke="#E2DCCB" stroke-width="0.197438" stroke-miterlimit="10"/>
<path d="M15.2764 12.5519L15.7166 12.1336L15.3008 11.6757L14.4531 12.4827L15.2574 13.2932L15.9135 12.6675C16.021 12.5612 16.1348 12.4617 16.2498 12.3637L16.5924 12.0667L15.8484 11.2005C16.0002 11.0711 16.1477 10.9365 16.3034 10.8118L16.7738 10.4415L17.4779 11.3405C17.9321 10.9673 18.422 10.6415 18.8981 10.2976L18.2585 9.35156L17.3641 9.98757L17.7316 10.4851L18.1681 10.1744" stroke="#E2DCCB" stroke-width="0.197438" stroke-miterlimit="10"/>
<path d="M19.0675 11.4424L18.6024 11.7731L18.9713 12.2696L19.8239 11.6628L19.1844 10.7168C18.7037 11.0627 18.2116 11.3935 17.7536 11.7697L18.4595 12.6673L18.0386 12.9979L17.6336 13.3477L16.8878 12.4831L16.5615 12.7658L16.3984 12.9073L16.2421 13.0563L15.6172 13.6522L16.4214 14.4628L17.1317 13.7856L16.7145 13.3289L16.3502 13.6765" stroke="#E2DCCB" stroke-width="0.197438" stroke-miterlimit="10"/>
<path d="M11.9947 16.344L12.3469 15.8492L11.8504 15.4804L11.1719 16.4343L12.1179 17.0739C12.4705 16.5831 12.8085 16.0812 13.1923 15.6136L12.2946 14.9077L12.6649 14.4374L13.0556 13.984L13.9202 14.7298L14.2087 14.3968L14.3531 14.2304L14.5051 14.0709L15.1133 13.4331L14.3026 12.6289L13.5455 13.4231L14.0022 13.8401L14.3718 13.4522" stroke="#E2DCCB" stroke-width="0.197438" stroke-miterlimit="10"/>
<path d="M15.5063 14.5242L15.1129 14.9375L15.5708 15.3533L16.2928 14.5952L15.4821 13.791L14.869 14.434C14.7648 14.5393 14.6674 14.6508 14.5713 14.7636L14.2804 15.0994L15.1466 15.8434C15.031 15.9793 14.9099 16.1106 14.7986 16.25L14.4679 16.671L13.5689 15.9669C13.203 16.4118 12.8842 16.8921 12.5469 17.3584L13.4929 17.998L14.0617 17.1987L13.5642 16.8312L13.2724 17.2414" stroke="#E2DCCB" stroke-width="0.197438" stroke-miterlimit="10"/>
<path d="M9.53009 20.7003L9.78084 20.1469L9.22196 19.8819C9.06204 20.2379 8.89645 20.5917 8.74219 20.9503L9.79492 21.3928C9.91326 21.1147 10.0424 20.8413 10.1657 20.5654C10.2294 20.4284 10.2873 20.2886 10.3559 20.1539L10.5628 19.7505L9.54497 19.2327L9.81848 18.7C9.90799 18.5215 10.0145 18.3524 10.1119 18.1781L11.105 18.7419C11.2539 18.4886 11.393 18.2296 11.5499 17.9812L12.0258 17.2395L11.0748 16.6074C10.8778 16.9157 10.6777 17.2221 10.484 17.5323L11.013 17.8529C11.1059 17.7003 11.2048 17.5514 11.3005 17.4006" stroke="#E2DCCB" stroke-width="0.197438" stroke-miterlimit="10"/>
<path d="M12.6073 18.2368C12.5066 18.3981 12.3972 18.5541 12.3035 18.7196L12.8335 19.0387C13.0131 18.7399 13.2083 18.4505 13.3943 18.1555L12.4433 17.5234L11.9635 18.2711C11.8077 18.5227 11.6659 18.7831 11.5163 19.0386L12.5104 19.6003C12.3254 19.9056 12.1699 20.2269 12.0062 20.5436L10.9873 20.0279L10.7902 20.4121C10.7281 20.5419 10.6707 20.6739 10.6108 20.8047C10.4936 21.0674 10.3702 21.3277 10.2578 21.5926L11.3105 22.0351C11.4395 21.7349 11.5791 21.4392 11.7121 21.1408L11.1525 20.8772L10.9449 21.3357" stroke="#E2DCCB" stroke-width="0.197438" stroke-miterlimit="10"/>
<path d="M7.94269 25.462L8.07971 24.87L7.47963 24.72C7.3925 25.1007 7.30049 25.4803 7.21875 25.862L8.33796 26.0888C8.40022 25.793 8.47248 25.4993 8.53934 25.2046C8.57462 25.0577 8.60476 24.9094 8.64438 24.7636L8.7685 24.3275L7.66891 24.0196C7.77855 23.6355 7.88214 23.2496 8.01771 22.8737L9.10204 23.2318C9.19786 22.9541 9.28737 22.6741 9.38846 22.3984L9.71225 21.5786L8.6561 21.1445C8.52329 21.4856 8.38258 21.8238 8.2574 22.1677L8.83892 22.3785C8.89565 22.2091 8.96752 22.0451 9.03123 21.8782" stroke="#E2DCCB" stroke-width="0.197438" stroke-miterlimit="10"/>
<path d="M10.4893 22.4386C10.4218 22.6163 10.3436 22.79 10.287 22.9716L10.8691 23.1808C10.9208 23.0143 10.9919 22.8546 11.0541 22.6919L11.2462 22.2056L10.19 21.7715L9.86358 22.5977C9.7642 22.8766 9.67233 23.1582 9.57624 23.4381L10.6612 23.7942C10.5384 24.1292 10.4523 24.4756 10.3522 24.8177L9.25192 24.512L9.13372 24.9272L9.03553 25.3476C8.97195 25.6282 8.90285 25.9078 8.84375 26.1893L9.96296 26.4161C10.0314 26.0967 10.1093 25.7792 10.1815 25.4605L9.58098 25.3122L9.46765 25.8025" stroke="#E2DCCB" stroke-width="0.197438" stroke-miterlimit="10"/>
<path d="M7.343 30.4383L7.35853 29.8314L6.74068 29.8017L6.71094 30.9715L7.85278 30.976C7.87042 30.3719 7.87108 29.7669 7.93044 29.1649L6.79176 29.0785L6.83756 28.4816C6.8548 28.2828 6.88547 28.0853 6.9089 27.887L8.04246 28.0253C8.08208 27.7342 8.11116 27.4415 8.1596 27.1519L8.31492 26.2844L7.194 26.0664C7.13043 26.4268 7.06211 26.7867 7.00354 27.1478L7.6152 27.2402C7.64113 27.0635 7.67641 26.8883 7.70668 26.7122" stroke="#E2DCCB" stroke-width="0.197438" stroke-miterlimit="10"/>
<path d="M9.22182 26.9762C9.19102 27.1638 9.1485 27.3495 9.12705 27.5385L9.73897 27.6292C9.78873 27.2842 9.85928 26.9425 9.91759 26.5988L8.79667 26.3809L8.64004 27.2552C8.59397 27.5477 8.56291 27.8424 8.52342 28.1358L9.65724 28.2718C9.63749 28.449 9.60551 28.6248 9.59537 28.803L9.55496 29.3366L8.41614 29.2527C8.35902 29.8259 8.36244 30.4024 8.34375 30.9777L9.48573 30.9822L9.51061 30.0011L8.89263 29.973L8.87999 30.4764" stroke="#E2DCCB" stroke-width="0.197438" stroke-miterlimit="10"/>
<path d="M7.70668 35.4378C7.67377 35.238 7.62929 35.0401 7.60612 34.8388L6.99419 34.9295C7.05 35.3158 7.12766 35.6988 7.194 36.0836L8.31492 35.8656L8.15513 34.9729C8.10814 34.6744 8.07615 34.3736 8.03601 34.0741L6.90219 34.21C6.87994 34.0117 6.84559 33.8145 6.83348 33.6152L6.78767 33.0183L7.92649 32.9343C7.86858 32.3491 7.87148 31.761 7.85278 31.1738L6.71094 31.1783L6.73871 32.2751L7.35656 32.2471L7.34287 31.7115" stroke="#E2DCCB" stroke-width="0.197438" stroke-miterlimit="10"/>
<path d="M8.88012 31.6717L8.89434 32.2423L9.51219 32.2126L9.48573 31.166L8.34375 31.1705C8.36139 31.7625 8.36165 32.3554 8.41996 32.9453L9.55865 32.859L9.59906 33.3926C9.61419 33.5703 9.64249 33.7465 9.66342 33.9236L8.52987 34.0618C8.56883 34.3469 8.597 34.6337 8.64451 34.9175L8.79667 35.7674L9.91759 35.5494C9.86152 35.2274 9.79979 34.9064 9.74714 34.5839L9.13547 34.6763C9.15982 34.8423 9.19339 35.0067 9.22169 35.172" stroke="#E2DCCB" stroke-width="0.197438" stroke-miterlimit="10"/>
<path d="M9.03878 40.2711C8.96678 40.0818 8.88425 39.8965 8.82357 39.7031L8.24152 39.9123C8.30036 40.0987 8.37868 40.2778 8.44857 40.4601L8.66378 41.0048L9.71993 40.5707L9.38679 39.7272C9.28531 39.4427 9.19133 39.1552 9.0934 38.8693L8.00841 39.2252C7.87231 38.8494 7.77373 38.4619 7.66211 38.0785L8.76236 37.7729L8.64179 37.349L8.5415 36.9199C8.47647 36.6334 8.40619 36.348 8.34577 36.0605L7.22656 36.2873C7.30277 36.6454 7.38938 37.0011 7.47086 37.358L8.07133 37.2096L7.95037 36.6873" stroke="#E2DCCB" stroke-width="0.197438" stroke-miterlimit="10"/>
<path d="M9.45971 36.348L9.58817 36.9037L10.1883 36.7537C10.1114 36.4137 10.0285 36.075 9.95515 35.7344L8.83594 35.9612C8.89701 36.2509 8.96796 36.5385 9.03338 36.8271C9.06799 36.9711 9.09735 37.1163 9.13617 37.2591L9.2578 37.6862L10.3574 37.3784C10.4555 37.7211 10.5465 38.066 10.6687 38.4011L9.58436 38.7592C9.67834 39.0312 9.76587 39.3056 9.86485 39.5757L10.1821 40.3788L11.2382 39.9447C11.1204 39.64 10.9938 39.3384 10.882 39.0313L10.3005 39.2422C10.3536 39.4013 10.4216 39.5551 10.4813 39.7117" stroke="#E2DCCB" stroke-width="0.197438" stroke-miterlimit="10"/>
<path d="M11.3003 44.746C11.193 44.5743 11.0772 44.4079 10.9772 44.2318L10.4473 44.5509C10.6484 44.8852 10.8657 45.2097 11.0747 45.5393L12.0257 44.9072L11.5361 44.144C11.3771 43.8871 11.2321 43.6216 11.0795 43.3607L10.0853 43.9225C9.87943 43.5803 9.70371 43.2215 9.52075 42.8666L10.5395 42.3509L10.3385 41.9588C10.2751 41.8264 10.2165 41.6916 10.1552 41.5581C10.0354 41.2899 9.9097 41.0243 9.79492 40.7539L8.74219 41.1964C8.88632 41.5327 9.04177 41.8643 9.19169 42.1982L9.75136 41.9347L9.53023 41.4465" stroke="#E2DCCB" stroke-width="0.197438" stroke-miterlimit="10"/>
<path d="M10.945 40.8147L11.1802 41.3343L11.7391 41.0693C11.5971 40.7508 11.4486 40.4353 11.3105 40.1152L10.2578 40.5578C10.3738 40.8302 10.5004 41.0979 10.6211 41.3683C10.6835 41.5026 10.7401 41.6396 10.8073 41.7715L11.01 42.1667L12.0279 41.6489L12.2718 42.125C12.3512 42.2848 12.4474 42.4354 12.5343 42.5911L11.5413 43.1548C11.6871 43.4028 11.8234 43.6569 11.9771 43.9001L12.4434 44.6268L13.3944 43.9947L12.8661 43.1683L12.3371 43.4888C12.4244 43.632 12.5176 43.7716 12.6075 43.9134" stroke="#E2DCCB" stroke-width="0.197438" stroke-miterlimit="10"/>
<path d="M14.3721 48.6957L13.9538 48.2556L13.4958 48.6714L14.3028 49.5191L15.1135 48.7148L14.4878 48.0587C14.3816 47.9511 14.282 47.8374 14.184 47.7224L13.887 47.3798L13.0208 48.1238C12.8914 47.9719 12.7568 47.8245 12.6321 47.6688L12.2619 47.1985L13.1609 46.4945C12.7876 46.0402 12.4618 45.5503 12.1179 45.0742L11.1719 45.7138L11.8079 46.6082L12.3054 46.2407L11.9947 45.8042" stroke="#E2DCCB" stroke-width="0.197438" stroke-miterlimit="10"/>
<path d="M13.2725 44.9088L13.6032 45.3738L14.0997 45.005L13.4929 44.1523L12.5469 44.7919C12.8928 45.2726 13.2236 45.7646 13.5997 46.2227L14.4974 45.5168L14.8279 45.9377L15.1778 46.3427L14.3132 47.0886L14.5959 47.4149L14.7374 47.578L14.8864 47.7343L15.4822 48.3592L16.2929 47.555L15.6157 46.8447L15.159 47.2617L15.5066 47.6261" stroke="#E2DCCB" stroke-width="0.197438" stroke-miterlimit="10"/>
<path d="M18.1681 51.9721L17.6735 51.6199L17.3046 52.1164L18.2585 52.7949L18.8981 51.8489C18.4073 51.4961 17.9054 51.1583 17.4379 50.7745L16.7319 51.6721L16.2617 51.3019L15.8082 50.9112L16.554 50.0466L16.221 49.758L16.0546 49.6136L15.8951 49.4616L15.2574 48.8535L14.4531 49.6641L15.2473 50.4213L15.6643 49.9646L15.2764 49.595" stroke="#E2DCCB" stroke-width="0.197438" stroke-miterlimit="10"/>
<path d="M16.3503 48.4699L16.7636 48.8634L17.1794 48.4054L16.4214 47.6836L15.6172 48.4941L16.2602 49.1073C16.3655 49.2115 16.477 49.3089 16.5898 49.405L16.9255 49.6959L17.6696 48.8297C17.8055 48.9452 17.9368 49.0663 18.0762 49.1777L18.4971 49.5083L17.7931 50.4073C18.2381 50.7732 18.7183 51.092 19.1846 51.4294L19.8242 50.4834L19.0248 49.9145L18.6573 50.412L19.0676 50.7039" stroke="#E2DCCB" stroke-width="0.197438" stroke-miterlimit="10"/>
<path d="M22.5304 54.4547L21.977 54.2041L21.7119 54.763C22.0681 54.9229 22.4218 55.0885 22.7803 55.2428L23.2229 54.19C22.9447 54.0717 22.6713 53.9424 22.3955 53.8192C22.2584 53.7555 22.1187 53.6976 21.984 53.629L21.5806 53.4221L21.0628 54.4399L20.5301 54.1663C20.3516 54.0768 20.1825 53.9703 20.0082 53.8729L20.5719 52.8798C20.3187 52.731 20.0596 52.5918 19.8113 52.4349L19.0696 51.959L18.4375 52.91C18.7458 53.107 19.0522 53.3071 19.3624 53.5008L19.6829 52.9718C19.5304 52.8789 19.3815 52.7801 19.2307 52.6844" stroke="#E2DCCB" stroke-width="0.197438" stroke-miterlimit="10"/>
<path d="M20.0728 51.371C20.234 51.4717 20.39 51.581 20.5556 51.6748L20.8746 51.1448C20.5759 50.9652 20.2864 50.77 19.9914 50.584L19.3594 51.535L20.107 52.0147C20.3587 52.1706 20.619 52.3124 20.8745 52.462L21.4363 51.4678C21.7415 51.6529 22.0628 51.8084 22.3795 51.9721L21.8638 52.991L22.2479 53.1881C22.3777 53.2502 22.5097 53.3076 22.6405 53.3675C22.9034 53.4847 23.1636 53.6081 23.4284 53.7206L23.871 52.6679C23.5707 52.5389 23.275 52.3994 22.9766 52.2663L22.713 52.826L23.1715 53.0335" stroke="#E2DCCB" stroke-width="0.197438" stroke-miterlimit="10"/>
<path d="M27.2939 56.0313L26.7019 55.8943L26.5519 56.4943C26.9326 56.5815 27.3122 56.6736 27.6939 56.7552L27.9207 55.636C27.6249 55.5738 27.3312 55.5015 27.0365 55.4346C26.8896 55.3994 26.7413 55.3692 26.5955 55.3296L26.1594 55.2055L25.8515 56.3051C25.4674 56.1954 25.0815 56.0918 24.7056 55.9563L25.0639 54.8719C24.7861 54.7761 24.5062 54.6866 24.2304 54.5855L23.4107 54.2617L22.9766 55.3179C23.3176 55.4507 23.6559 55.5914 23.9997 55.7166L24.2105 55.135C24.0411 55.0783 23.8771 55.0065 23.7102 54.9427" stroke="#E2DCCB" stroke-width="0.197438" stroke-miterlimit="10"/>
<path d="M24.2608 53.4932C24.4385 53.5607 24.6123 53.6389 24.7939 53.6955L25.0031 53.1134C24.8364 53.0617 24.6769 52.9906 24.5142 52.9284L24.0278 52.7363L23.5938 53.7925L24.42 54.1189C24.6989 54.2183 24.9804 54.3102 25.2604 54.4063L25.6164 53.3213C25.9514 53.4441 26.2979 53.5302 26.6399 53.6303L26.3343 54.7306L26.7495 54.8488L27.1699 54.947C27.4505 55.0105 27.7301 55.0797 28.0116 55.1387L28.2384 54.0195C27.9189 53.9511 27.6015 53.8732 27.2828 53.801L27.1345 54.4015L27.6248 54.5148" stroke="#E2DCCB" stroke-width="0.197438" stroke-miterlimit="10"/>
<path d="M32.2625 56.6439L31.6556 56.6284L31.6259 57.2462L32.7958 57.276L32.8002 56.1341C32.1961 56.1165 31.5911 56.1157 30.9891 56.0565L30.9027 57.1952L30.3058 57.1492C30.1071 57.132 29.9095 57.1013 29.7113 57.0779L29.8495 55.9443C29.5584 55.9047 29.2657 55.8756 28.9761 55.8272L28.1086 55.6719L27.8906 56.7928C28.251 56.8564 28.6109 56.9247 28.9721 56.9833L29.0645 56.3716C28.8877 56.3457 28.7125 56.3104 28.5364 56.2801" stroke="#E2DCCB" stroke-width="0.197438" stroke-miterlimit="10"/>
<path d="M28.7986 54.7445C28.9862 54.7753 29.1719 54.8178 29.3609 54.8392L29.4515 54.2274C29.1065 54.1777 28.7648 54.1071 28.4211 54.0488L28.2031 55.1697L29.0775 55.3264C29.37 55.3724 29.6647 55.4035 29.9581 55.443L30.094 54.3092C30.2712 54.3289 30.4471 54.3609 30.6253 54.371L31.1589 54.4115L31.0749 55.5503C31.6481 55.6073 32.2247 55.604 32.8 55.6227L32.8045 54.4808L31.8233 54.4558L31.7953 55.0738L32.2986 55.0864" stroke="#E2DCCB" stroke-width="0.197438" stroke-miterlimit="10"/>
<path d="M37.2718 56.2802C37.072 56.3131 36.874 56.3576 36.6728 56.3808L36.7635 56.9926C37.1498 56.9368 37.5328 56.8591 37.9176 56.7928L37.6996 55.6719L36.8069 55.8317C36.5084 55.8787 36.2076 55.9106 35.908 55.9508L36.0439 57.0846C35.8455 57.1069 35.6485 57.1412 35.4492 57.1533L34.8523 57.1991L34.7683 56.0603C34.1831 56.1182 33.595 56.1153 33.0078 56.134L33.0123 57.2759L34.109 57.2481L34.081 56.6302L33.5454 56.6439" stroke="#E2DCCB" stroke-width="0.197438" stroke-miterlimit="10"/>
<path d="M33.5057 55.0862L34.0763 55.072L34.0466 54.4541L33 54.4806L33.0045 55.6224C33.5965 55.6048 34.1894 55.6046 34.7793 55.5463L34.693 54.4076L35.2266 54.3672C35.4043 54.3521 35.5805 54.3238 35.7575 54.303L35.8958 55.4366C36.1809 55.3976 36.4677 55.3694 36.7514 55.3219L37.6013 55.1697L37.3834 54.0488C37.0614 54.1049 36.7404 54.1666 36.4179 54.2193L36.5103 54.8309C36.6763 54.8066 36.8407 54.773 37.006 54.7447" stroke="#E2DCCB" stroke-width="0.197438" stroke-miterlimit="10"/>
<path d="M42.1089 54.9429C41.9196 55.0149 41.7343 55.0974 41.5409 55.1581L41.7501 55.7401C41.9364 55.6813 42.1156 55.603 42.2979 55.5331L42.8425 55.3179L42.4084 54.2617L41.565 54.5949C41.2803 54.6963 40.9929 54.7903 40.7071 54.8883L41.0631 55.9732C40.6873 56.1093 40.2998 56.2079 39.9164 56.3195L39.6107 55.2193L39.1869 55.3399L38.7578 55.4402C38.4713 55.505 38.1859 55.5755 37.8984 55.6359L38.1252 56.7551C38.4831 56.6789 38.839 56.5923 39.1959 56.5108L39.0475 55.9103L38.5252 56.0313" stroke="#E2DCCB" stroke-width="0.197438" stroke-miterlimit="10"/>
<path d="M38.1761 54.5148L38.7319 54.3864L38.5818 53.7863C38.2418 53.8632 37.9031 53.9461 37.5625 54.0194L37.7893 55.1386C38.079 55.0775 38.3666 55.0066 38.6553 54.9412C38.7992 54.9066 38.9444 54.8772 39.0872 54.8384L39.5144 54.7168L39.2065 53.6172C39.5492 53.5191 39.8941 53.428 40.2292 53.3059L40.5875 54.3902C40.8594 54.2962 41.1339 54.2087 41.404 54.1097L42.207 53.7925L41.7729 52.7363C41.4682 52.8541 41.1665 52.9808 40.8596 53.0925L41.0704 53.674C41.2296 53.621 41.3833 53.5529 41.5399 53.4933" stroke="#E2DCCB" stroke-width="0.197438" stroke-miterlimit="10"/>
<path d="M46.578 52.6844C46.4064 52.7916 46.24 52.9075 46.0639 53.0075L46.3829 53.5374C46.7173 53.3363 47.0417 53.119 47.3713 52.91L46.7392 51.959L45.9761 52.4486C45.7191 52.6076 45.4537 52.7526 45.1928 52.9052L45.7545 53.8994C45.4123 54.1053 45.0535 54.281 44.6986 54.4639L44.1829 53.445L43.7908 53.646C43.6584 53.7095 43.5236 53.768 43.3902 53.8292C43.1219 53.949 42.8563 54.0747 42.5859 54.1895L43.0285 55.2422C43.3648 55.0981 43.6963 54.9427 44.0303 54.7927L43.7667 54.2331L43.2784 54.4542" stroke="#E2DCCB" stroke-width="0.197438" stroke-miterlimit="10"/>
<path d="M42.6526 53.0335L43.1722 52.7983L42.9071 52.2394C42.5887 52.3815 42.2732 52.5299 41.9531 52.668L42.3956 53.7207C42.668 53.6048 42.9358 53.478 43.2062 53.3573C43.3405 53.2949 43.4775 53.2383 43.6094 53.1711L44.0046 52.9684L43.4868 51.9505L43.9629 51.7066C44.1227 51.6272 44.2733 51.531 44.429 51.4442L44.9927 52.4371C45.2407 52.2913 45.4948 52.1551 45.738 52.0013L46.4647 51.535L45.8326 50.584L45.0062 51.1123L45.3267 51.6413C45.4699 51.5541 45.6095 51.4609 45.7513 51.371" stroke="#E2DCCB" stroke-width="0.197438" stroke-miterlimit="10"/>
<path d="M50.528 49.5948L50.0879 50.0131L50.5037 50.4711L51.3514 49.6641L50.547 48.8535L49.8908 49.4793C49.7833 49.5855 49.6696 49.685 49.5545 49.7831L49.2119 50.08L49.956 50.9462C49.8041 51.0756 49.6567 51.2103 49.501 51.3349L49.0305 51.7052L48.3265 50.8062C47.8722 51.1795 47.3823 51.5052 46.9062 51.8492L47.5458 52.7952L48.4402 52.1591L48.0727 51.6616L47.6362 51.9724" stroke="#E2DCCB" stroke-width="0.197438" stroke-miterlimit="10"/>
<path d="M46.733 50.7037L47.198 50.373L46.8292 49.8765L45.9766 50.4833L46.6161 51.4292C47.0968 51.0833 47.5888 50.7526 48.0469 50.3764L47.341 49.4788L47.7619 49.1483L48.1669 48.7985L48.9127 49.6631L49.239 49.3804L49.4021 49.239L49.5583 49.09L50.1833 48.4941L49.3791 47.6836L48.6688 48.3608L49.0859 48.8175L49.4501 48.4699" stroke="#E2DCCB" stroke-width="0.197438" stroke-miterlimit="10"/>
<path d="M53.8062 45.8041L53.454 46.2989L53.9505 46.6677L54.629 45.7138L53.683 45.0742C53.3303 45.565 52.9924 46.0669 52.6086 46.5345L53.5061 47.2404L53.1359 47.7107L52.7452 48.1641L51.8805 47.4182L51.592 47.7512L51.4476 47.9176L51.2956 48.0771L50.6875 48.7148L51.498 49.5191L52.2553 48.725L51.7985 48.308L51.4289 48.6959" stroke="#E2DCCB" stroke-width="0.197438" stroke-miterlimit="10"/>
<path d="M50.302 47.6262L50.6954 47.2129L50.2375 46.7971L49.5156 47.5551L50.3262 48.3593L50.9393 47.7164C51.0435 47.6111 51.1409 47.4996 51.237 47.3868L51.5279 47.051L50.6617 46.3069C50.7773 46.1711 50.8983 46.0397 51.0097 45.9003L51.3403 45.4794L52.2393 46.1834C52.6053 45.7386 52.9241 45.2583 53.2614 44.7919L52.3154 44.1523L51.7465 44.9517L52.2441 45.3192L52.5359 44.9089" stroke="#E2DCCB" stroke-width="0.197438" stroke-miterlimit="10"/>
<path d="M56.2769 41.4464L56.0261 41.9997L56.585 42.2648C56.7449 41.9087 56.9105 41.555 57.0648 41.1964L56.012 40.7539C55.8937 41.032 55.7646 41.3054 55.6412 41.5813C55.5775 41.7183 55.5196 41.8581 55.451 41.9928L55.2441 42.3962L56.262 42.914L55.9885 43.4467C55.899 43.6252 55.7925 43.7944 55.6952 43.9686L54.7021 43.4048C54.5532 43.6581 54.4141 43.9171 54.2572 44.1655L53.7812 44.9072L54.7322 45.5393C54.9293 45.231 55.1294 44.9246 55.3231 44.6143L54.7941 44.2938C54.7012 44.4464 54.6023 44.5953 54.5066 44.7461" stroke="#E2DCCB" stroke-width="0.197438" stroke-miterlimit="10"/>
<path d="M53.201 43.9134C53.3017 43.7522 53.4111 43.5962 53.5048 43.4306L52.9749 43.1115C52.7953 43.4103 52.6 43.6998 52.4141 43.9947L53.3651 44.6268L53.8448 43.8792C54.0007 43.6275 54.1424 43.3672 54.2921 43.1117L53.2979 42.5499C53.483 42.2447 53.6384 41.9234 53.8022 41.6067L54.8211 42.1224L55.0181 41.7383C55.0803 41.6085 55.1376 41.4765 55.1975 41.3457C55.3148 41.0829 55.4381 40.8226 55.5506 40.5578L54.4978 40.1152C54.3688 40.4155 54.2293 40.7112 54.0962 41.0096L54.6559 41.2731L54.8635 40.8147" stroke="#E2DCCB" stroke-width="0.197438" stroke-miterlimit="10"/>
<path d="M57.8634 36.6873L57.7264 37.2793L58.3265 37.4293C58.4136 37.0487 58.5056 36.6691 58.5874 36.2873L57.4682 36.0605C57.4059 36.3563 57.3337 36.65 57.2667 36.9447C57.2314 37.0916 57.2012 37.2399 57.1616 37.3858L57.0375 37.8218L58.1371 38.1297C58.0275 38.5138 57.9239 38.8997 57.7883 39.2756L56.704 38.9175C56.6081 39.1952 56.5186 39.4752 56.4175 39.7509L56.0938 40.5707L57.1499 41.0048C57.2827 40.6637 57.4234 40.3255 57.5486 39.9817L56.9671 39.7708C56.9103 39.9402 56.8385 40.1042 56.7748 40.2711" stroke="#E2DCCB" stroke-width="0.197438" stroke-miterlimit="10"/>
<path d="M55.3272 39.712C55.3947 39.5343 55.4729 39.3605 55.5295 39.1789L54.9474 38.9697C54.8957 39.1364 54.8246 39.2959 54.7624 39.4586L54.5703 39.9449L55.6265 40.379L55.9529 39.5528C56.0523 39.2739 56.1442 38.9924 56.2402 38.7124L55.1553 38.3563C55.2781 38.0214 55.3641 37.6749 55.4643 37.3328L56.5646 37.6385L56.6828 37.2233L56.781 36.8029C56.8445 36.5223 56.9136 36.2427 56.9727 35.9612L55.8535 35.7344C55.7851 36.0538 55.7072 36.3713 55.635 36.69L56.2355 36.8383L56.3488 36.348" stroke="#E2DCCB" stroke-width="0.197438" stroke-miterlimit="10"/>
<path d="M58.472 31.7115L58.4565 32.3184L59.0744 32.3482L59.1041 31.1783L57.9623 31.1738C57.9446 31.778 57.944 32.3829 57.8846 32.985L59.0233 33.0713L58.9774 33.6683C58.9601 33.867 58.9294 34.0646 58.906 34.2628L57.7725 34.1246C57.7328 34.4156 57.7038 34.7084 57.6553 34.9981L57.5 35.8656L58.6209 36.0836C58.6845 35.7232 58.7528 35.3633 58.8114 35.0021L58.1997 34.9097C58.1738 35.0865 58.1385 35.2617 58.1082 35.4378" stroke="#E2DCCB" stroke-width="0.197438" stroke-miterlimit="10"/>
<path d="M56.5864 35.172C56.6172 34.9845 56.6597 34.7987 56.6812 34.6097L56.0692 34.519C56.0195 34.864 55.9489 35.2057 55.8906 35.5494L57.0115 35.7674L57.1682 34.893C57.2142 34.6005 57.2453 34.3058 57.2848 34.0124L56.151 33.8764C56.1707 33.6993 56.2027 33.5234 56.2128 33.3452L56.2533 32.8116L57.3921 32.8956C57.4491 32.3223 57.4458 31.7458 57.4645 31.1705L56.3226 31.166L56.2977 32.1471L56.9156 32.1752L56.9282 31.6719" stroke="#E2DCCB" stroke-width="0.197438" stroke-miterlimit="10"/>
<path d="M58.1084 26.712C58.1413 26.9118 58.1858 27.1098 58.2089 27.3111L58.8207 27.2205C58.7649 26.8342 58.6873 26.4511 58.6209 26.0664L57.5 26.2844L57.6598 27.1771C57.7068 27.4756 57.7388 27.7763 57.7789 28.0759L58.9127 27.94C58.935 28.1383 58.9693 28.3355 58.9814 28.5346L59.0272 29.1316L57.8884 29.2155C57.9463 29.8007 57.9434 30.3888 57.9621 30.976L59.104 30.9715L59.0762 29.8747L58.4584 29.9027L58.472 30.4383" stroke="#E2DCCB" stroke-width="0.197438" stroke-miterlimit="10"/>
<path d="M56.9281 30.4765L56.9137 29.9059L56.2959 29.9357L56.3224 30.9822L57.4642 30.9777C57.4466 30.3857 57.4464 29.7928 57.3881 29.2029L56.2494 29.2892L56.209 28.7556C56.1939 28.5779 56.1656 28.4017 56.1448 28.2247L57.2783 28.0865C57.2394 27.8014 57.2112 27.5145 57.1637 27.2308L57.0115 26.3809L55.8906 26.5988C55.9467 26.9208 56.0084 27.2418 56.0611 27.5643L56.6727 27.4719C56.6484 27.3059 56.6148 27.1414 56.5865 26.9762" stroke="#E2DCCB" stroke-width="0.197438" stroke-miterlimit="10"/>
<path d="M56.7749 21.8782C56.8469 22.0675 56.9294 22.2528 56.9901 22.4462L57.5722 22.237C57.5133 22.0506 57.435 21.8715 57.3651 21.6892L57.1499 21.1445L56.0938 21.5786L56.4269 22.4221C56.5284 22.7068 56.6224 22.9941 56.7203 23.28L57.8053 22.9241C57.9414 23.2999 58.04 23.6874 58.1516 24.0708L57.0513 24.3765L57.1719 24.8003L57.2722 25.2294C57.3371 25.5159 57.4075 25.8013 57.4679 26.0888L58.5871 25.862C58.5109 25.5041 58.4243 25.1482 58.3428 24.7913L57.7424 24.9397L57.8633 25.462" stroke="#E2DCCB" stroke-width="0.197438" stroke-miterlimit="10"/>
<path d="M56.3488 25.8022L56.2204 25.2465L55.6203 25.3966C55.6972 25.7366 55.7801 26.0752 55.8534 26.4159L56.9726 26.1891C56.9115 25.8994 56.8406 25.6118 56.7752 25.3231C56.7405 25.1793 56.7112 25.0339 56.6724 24.8911L56.5507 24.464L55.4511 24.7719C55.3531 24.4291 55.262 24.0843 55.1399 23.7492L56.2242 23.391C56.1302 23.1191 56.0427 22.8446 55.9437 22.5745L55.6265 21.7715L54.5703 22.2056C54.6881 22.5103 54.8147 22.812 54.9265 23.1189L55.508 22.9081C55.455 22.7489 55.3869 22.5952 55.3273 22.4386" stroke="#E2DCCB" stroke-width="0.197438" stroke-miterlimit="10"/>
<path d="M54.5066 17.4007C54.6139 17.5724 54.7297 17.7387 54.8298 17.9149L55.3597 17.5958C55.1586 17.2615 54.9413 16.937 54.7322 16.6074L53.7812 17.2395L54.2709 18.0026C54.4299 18.2596 54.5748 18.5251 54.7275 18.7859L55.7217 18.2242C55.9277 18.5664 56.1032 18.9252 56.2862 19.2801L55.2674 19.7958L55.4684 20.1879C55.5319 20.3203 55.5904 20.4551 55.6516 20.5886C55.7714 20.8568 55.8971 21.1224 56.0119 21.3928L57.0646 20.9503C56.9205 20.614 56.7651 20.2824 56.6151 19.9485L56.0555 20.212L56.2766 20.7003" stroke="#E2DCCB" stroke-width="0.197438" stroke-miterlimit="10"/>
<path d="M54.8636 21.3356L54.6284 20.8159L54.0695 21.081C54.2115 21.3994 54.36 21.7149 54.4981 22.035L55.5508 21.5925C55.4349 21.32 55.3081 21.0523 55.1874 20.7819C55.125 20.6477 55.0684 20.5107 55.0012 20.3788L54.7984 19.9835L53.7806 20.5013L53.5367 20.0252C53.4573 19.8654 53.3611 19.7149 53.2742 19.5592L54.2672 18.9954C54.1214 18.7474 53.9851 18.4934 53.8314 18.2501L53.3651 17.5234L52.4141 18.1555L52.9424 18.982L53.4714 18.6615C53.3841 18.5183 53.2909 18.3786 53.201 18.2368" stroke="#E2DCCB" stroke-width="0.197438" stroke-miterlimit="10"/>
<path d="M51.4288 13.4522L51.8471 13.8924L52.305 13.4766L51.498 12.6289L50.6875 13.4331L51.3132 14.0893C51.4195 14.1968 51.519 14.3105 51.617 14.4256L51.914 14.7682L52.7802 14.0241C52.9096 14.176 53.0442 14.3234 53.1689 14.4792L53.5392 14.9495L52.6402 15.6535C53.0134 16.1078 53.3392 16.5977 53.6832 17.0739L54.6291 16.4343L53.993 15.5399L53.4955 15.9074L53.8062 16.3439" stroke="#E2DCCB" stroke-width="0.197438" stroke-miterlimit="10"/>
<path d="M52.5356 17.2414L52.205 16.7764L51.7085 17.1452L52.3153 17.9979L53.2613 17.3583C52.9154 16.8776 52.5846 16.3856 52.2084 15.9276L51.3109 16.6335L50.9803 16.2125L50.6305 15.8075L51.4951 15.0616L51.2124 14.7353L51.071 14.5722L50.922 14.416L50.3262 13.791L49.5156 14.5952L50.1928 15.3055L50.6496 14.8885L50.302 14.5242" stroke="#E2DCCB" stroke-width="0.197438" stroke-miterlimit="10"/>
<path d="M47.6362 10.1744L48.1309 10.5266L48.4997 10.0301L47.5458 9.35156L46.9062 10.2976C47.3971 10.6502 47.899 10.9882 48.3665 11.372L49.0724 10.4745L49.5427 10.8447L49.9961 11.2354L49.2502 12.1L49.5832 12.3885L49.7496 12.5329L49.909 12.685L50.5467 13.2931L51.3511 12.4825L50.5569 11.7253L50.1399 12.182L50.5278 12.5516" stroke="#E2DCCB" stroke-width="0.197438" stroke-miterlimit="10"/>
<path d="M49.4504 13.6761L49.0371 13.2827L48.6213 13.7406L49.3793 14.4626L50.1836 13.6519L49.5406 13.0388C49.4353 12.9345 49.3238 12.8371 49.211 12.7411L48.8752 12.4502L48.1311 13.3164C47.9953 13.2008 47.8639 13.0797 47.7245 12.9684L47.3036 12.6379L48.0077 11.7389C47.5626 11.3729 47.0825 11.0542 46.6161 10.7168L45.9766 11.6628L46.7759 12.2317L47.1434 11.7341L46.7331 11.4423" stroke="#E2DCCB" stroke-width="0.197438" stroke-miterlimit="10"/>
<path d="M43.2784 7.69611L43.8318 7.94686L44.0969 7.38798C43.7407 7.22805 43.387 7.06247 43.0285 6.9082L42.5859 7.96094C42.8641 8.07927 43.1374 8.20839 43.4133 8.33173C43.5504 8.39543 43.6901 8.45335 43.8248 8.52193L44.2282 8.72884L44.746 7.71112L45.2787 7.9845C45.4572 8.07401 45.6265 8.18049 45.8006 8.27789L45.2369 9.271C45.4901 9.41987 45.7492 9.559 45.9975 9.7159L46.7392 10.1919L47.3713 9.24086C47.063 9.04382 46.7566 8.84375 46.4464 8.65L46.1259 9.179C46.2784 9.27193 46.4273 9.37078 46.5781 9.46647" stroke="#E2DCCB" stroke-width="0.197438" stroke-miterlimit="10"/>
<path d="M45.7514 10.7792C45.5902 10.6785 45.4342 10.5691 45.2686 10.4754L44.9496 11.0053C45.2484 11.185 45.5378 11.3802 45.8328 11.5662L46.4648 10.6152L45.7171 10.1354C45.4654 9.97957 45.2051 9.83781 44.9496 9.68815L44.3878 10.6823C44.0826 10.4973 43.7613 10.3418 43.4446 10.1781L43.9603 9.15928L43.5762 8.96211C43.4464 8.89998 43.3144 8.8426 43.1836 8.78271C42.9207 8.66543 42.6605 8.5421 42.3956 8.42969L41.9531 9.48242C42.2534 9.61142 42.5491 9.75094 42.8475 9.88401L43.111 9.32434L42.6526 9.11677" stroke="#E2DCCB" stroke-width="0.197438" stroke-miterlimit="10"/>
<path d="M38.5252 6.11847L39.1172 6.25549L39.2672 5.65541C38.8865 5.56828 38.5069 5.47627 38.1252 5.39453L37.8984 6.51374C38.1942 6.576 38.4879 6.64826 38.7826 6.71513C38.9295 6.7504 39.0778 6.78054 39.2236 6.82016L39.6597 6.94428L39.9676 5.84469C40.3517 5.95433 40.7376 6.05792 41.1135 6.1935L40.7552 7.27782C41.033 7.37365 41.3129 7.46315 41.5887 7.56424L42.4084 7.88804L42.8425 6.83188C42.5015 6.69907 42.1632 6.55836 41.8194 6.43318L41.6087 7.0147C41.7781 7.07143 41.9421 7.1433 42.109 7.20701" stroke="#E2DCCB" stroke-width="0.197438" stroke-miterlimit="10"/>
<path d="M41.5401 8.65534C41.3624 8.58782 41.1886 8.50963 41.007 8.45303L40.7978 9.03508C40.9645 9.08681 41.124 9.15789 41.2867 9.22014L41.7731 9.41219L42.2072 8.35603L41.3809 8.0296C41.102 7.93022 40.8205 7.83835 40.5405 7.74226L40.1845 8.82724C39.8495 8.70444 39.503 8.61835 39.161 8.51819L39.4666 7.41794L39.0514 7.29974L38.631 7.20154C38.3504 7.13797 38.0708 7.06887 37.7893 7.00977L37.5625 8.12897C37.882 8.19742 38.1994 8.27534 38.5181 8.34747L38.6664 7.747L38.1761 7.63367" stroke="#E2DCCB" stroke-width="0.197438" stroke-miterlimit="10"/>
<path d="M33.5454 5.50706L34.1524 5.52259L34.1822 4.90475L33.0123 4.875L33.0078 6.01685C33.612 6.03448 34.2169 6.03514 34.819 6.09451L34.9053 4.95582L35.5022 5.00162C35.701 5.01887 35.8986 5.04953 36.0968 5.07296L35.9586 6.20652C36.2496 6.24614 36.5423 6.27523 36.8319 6.32366L37.6995 6.47898L37.9174 5.35806C37.557 5.29449 37.1972 5.22618 36.836 5.1676L36.7436 5.77926C36.9204 5.80519 37.0956 5.84047 37.2717 5.87074" stroke="#E2DCCB" stroke-width="0.197438" stroke-miterlimit="10"/>
<path d="M37.006 7.40359C36.8184 7.37279 36.6327 7.33028 36.4437 7.30882L36.353 7.92062C36.698 7.97037 37.0397 8.04092 37.3834 8.09923L37.6013 6.97831L36.727 6.82168C36.4345 6.77561 36.1398 6.74455 35.8464 6.70506L35.7104 7.83888C35.5333 7.81913 35.3574 7.78715 35.1792 7.77701L34.6456 7.7366L34.7296 6.59778C34.1563 6.54079 33.5798 6.54408 33.0045 6.52539L33 7.66737L33.9811 7.69225L34.0092 7.0744L33.5058 7.06176" stroke="#E2DCCB" stroke-width="0.197438" stroke-miterlimit="10"/>
<path d="M35.5279 13.8305C35.0683 14.8833 34.0295 15.5636 32.8816 15.5636C31.7335 15.5636 30.6947 14.8833 30.2352 13.8305L30.1484 13.8684C30.6231 14.9557 31.696 15.6582 32.8816 15.6582C34.0673 15.6582 35.1401 14.9556 35.6147 13.8684L35.5279 13.8305Z" fill="#E2DCCB"/>
<path d="M35.015 13.57C34.6474 14.412 33.8167 14.956 32.8986 14.956C31.9804 14.956 31.1495 14.412 30.7821 13.57L30.6953 13.6079C31.0779 14.4844 31.9427 15.0508 32.8986 15.0508C33.8543 15.0508 34.7191 14.4844 35.1017 13.6079L35.015 13.57Z" fill="#E2DCCB"/>
<path d="M31.3055 13.3116L31.2188 13.3495C31.5094 14.0152 32.1662 14.4453 32.8921 14.4453C33.618 14.4453 34.2747 14.0152 34.5653 13.3495L34.4786 13.3116C34.2031 13.9428 33.5802 14.3507 32.8921 14.3507C32.2038 14.3507 31.581 13.9428 31.3055 13.3116Z" fill="#E2DCCB"/>
<path d="M33.9501 13.0533C33.7666 13.4737 33.3519 13.7452 32.8934 13.7452C32.435 13.7452 32.0202 13.4737 31.8367 13.0533L31.75 13.0912C31.9485 13.5461 32.3973 13.8398 32.8934 13.8398C33.3894 13.8398 33.8382 13.5459 34.0367 13.0912L33.9501 13.0533Z" fill="#E2DCCB"/>
<path d="M33.4371 12.7889C33.3457 12.9984 33.1389 13.1339 32.9104 13.1339C32.6819 13.1339 32.4751 12.9984 32.3836 12.7889L32.2969 12.8268C32.4034 13.0708 32.6442 13.2285 32.9104 13.2285C33.1765 13.2285 33.4173 13.0708 33.5238 12.8268L33.4371 12.7889Z" fill="#E2DCCB"/>
<path d="M35.5279 9.64686C35.0683 10.6997 34.0295 11.38 32.8816 11.38C31.7335 11.38 30.6947 10.6997 30.2352 9.64686L30.1484 9.68477C30.6231 10.7721 31.696 11.4746 32.8816 11.4746C34.0673 11.4746 35.1401 10.772 35.6147 9.68477L35.5279 9.64686Z" fill="#E2DCCB"/>
<path d="M35.015 9.38836C34.6474 10.2304 33.8167 10.7744 32.8986 10.7744C31.9804 10.7744 31.1495 10.2304 30.7821 9.38836L30.6953 9.42627C31.0779 10.3028 31.9427 10.8691 32.8986 10.8691C33.8543 10.8691 34.7191 10.3028 35.1017 9.42627L35.015 9.38836Z" fill="#E2DCCB"/>
<path d="M31.3055 9.12999L31.2188 9.16789C31.5094 9.83352 32.1662 10.2637 32.8921 10.2637C33.618 10.2637 34.2747 9.83352 34.5653 9.16789L34.4786 9.12999C34.2031 9.76113 33.5802 10.169 32.8921 10.169C32.2038 10.169 31.581 9.76126 31.3055 9.12999Z" fill="#E2DCCB"/>
<path d="M33.9501 8.86575C33.7666 9.28616 33.3519 9.55771 32.8934 9.55771C32.435 9.55771 32.0202 9.28616 31.8367 8.86575L31.75 8.90366C31.9485 9.35856 32.3973 9.65234 32.8934 9.65234C33.3894 9.65234 33.8382 9.35842 34.0367 8.90366L33.9501 8.86575Z" fill="#E2DCCB"/>
<path d="M33.4371 8.60725C33.3457 8.81679 33.1389 8.95224 32.9104 8.95224C32.6819 8.95224 32.4751 8.81679 32.3836 8.60725L32.2969 8.64515C32.4034 8.88919 32.6442 9.04688 32.9104 9.04688C33.1765 9.04688 33.4173 8.88919 33.5238 8.64515L33.4371 8.60725Z" fill="#E2DCCB"/>
<path d="M32.8561 11.7172C32.3964 12.77 31.3577 13.4503 30.2098 13.4503C29.0617 13.4503 28.0228 12.77 27.5633 11.7172L27.4766 11.7551C27.9512 12.8424 29.0241 13.5449 30.2098 13.5449C31.3953 13.5449 32.4682 12.8423 32.9428 11.7551L32.8561 11.7172Z" fill="#E2DCCB"/>
<path d="M32.3197 11.4587C31.9522 12.3007 31.1214 12.8448 30.2033 12.8448C29.2851 12.8448 28.4542 12.3008 28.0867 11.4587L28 11.4966C28.3826 12.3731 29.2474 12.9395 30.2033 12.9395C31.159 12.9395 32.0238 12.3731 32.4064 11.4966L32.3197 11.4587Z" fill="#E2DCCB"/>
<path d="M31.8067 11.1964C31.5311 11.8275 30.9084 12.2354 30.2201 12.2354C29.5318 12.2354 28.909 11.8275 28.6335 11.1964L28.5469 11.2343C28.8375 11.9001 29.4943 12.3301 30.2202 12.3301C30.9461 12.3301 31.6029 11.8999 31.8934 11.2343L31.8067 11.1964Z" fill="#E2DCCB"/>
<path d="M31.2548 10.9379C31.0713 11.3583 30.6566 11.6298 30.1981 11.6298C29.7397 11.6298 29.3249 11.3582 29.1414 10.9379L29.0547 10.9758C29.2533 11.4307 29.702 11.7246 30.1981 11.7246C30.6941 11.7246 31.1429 11.4307 31.3414 10.9758L31.2548 10.9379Z" fill="#E2DCCB"/>
<path d="M30.7418 10.6756C30.6504 10.8852 30.4436 11.0206 30.2151 11.0206C29.9866 11.0206 29.7798 10.8852 29.6883 10.6756L29.6016 10.7135C29.708 10.9575 29.9489 11.1152 30.2151 11.1152C30.4812 11.1152 30.722 10.9575 30.8286 10.7135L30.7418 10.6756Z" fill="#E2DCCB"/>
<path d="M38.2467 11.7172C37.7871 12.77 36.7483 13.4503 35.6004 13.4503C34.4523 13.4503 33.4134 12.77 32.9539 11.7172L32.8672 11.7551C33.3418 12.8424 34.4147 13.5449 35.6004 13.5449C36.7861 13.5449 37.8588 12.8423 38.3334 11.7551L38.2467 11.7172Z" fill="#E2DCCB"/>
<path d="M37.7259 11.4587C37.3583 12.3007 36.5276 12.8448 35.6095 12.8448C34.6913 12.8448 33.8605 12.3008 33.493 11.4587L33.4062 11.4966C33.7889 12.3731 34.6537 12.9395 35.6095 12.9395C36.5653 12.9395 37.43 12.3731 37.8127 11.4966L37.7259 11.4587Z" fill="#E2DCCB"/>
<path d="M37.1975 11.1964C36.9218 11.8275 36.2991 12.2354 35.611 12.2354C34.9227 12.2354 34.2999 11.8275 34.0244 11.1964L33.9375 11.2343C34.2281 11.9001 34.8849 12.3301 35.6109 12.3301C36.3368 12.3301 36.9934 11.8999 37.2841 11.2343L37.1975 11.1964Z" fill="#E2DCCB"/>
<path d="M36.6687 10.9379C36.4852 11.3583 36.0705 11.6298 35.6122 11.6298C35.1537 11.6298 34.739 11.3582 34.5555 10.9379L34.4688 10.9758C34.6674 11.4307 35.1161 11.7246 35.6122 11.7246C36.1081 11.7246 36.557 11.4307 36.7555 10.9758L36.6687 10.9379Z" fill="#E2DCCB"/>
<path d="M36.1325 10.6756C36.041 10.8852 35.8342 11.0206 35.6057 11.0206C35.3772 11.0206 35.1704 10.8852 35.0789 10.6756L34.9922 10.7135C35.0987 10.9575 35.3395 11.1152 35.6057 11.1152C35.8718 11.1152 36.1126 10.9575 36.2192 10.7135L36.1325 10.6756Z" fill="#E2DCCB"/>
<path d="M35.5279 49.6598C35.0683 48.6069 34.0295 47.9267 32.8816 47.9267C31.7335 47.9267 30.6947 48.6069 30.2352 49.6598L30.1484 49.6219C30.6231 48.5345 31.696 47.832 32.8816 47.832C34.0673 47.832 35.1401 48.5346 35.6147 49.6219L35.5279 49.6598Z" fill="#E2DCCB"/>
<path d="M35.015 49.9202C34.6474 49.0782 33.8167 48.5342 32.8986 48.5342C31.9804 48.5342 31.1495 49.0782 30.7821 49.9202L30.6953 49.8823C31.0779 49.0058 31.9427 48.4395 32.8986 48.4395C33.8543 48.4395 34.7191 49.0058 35.1017 49.8823L35.015 49.9202Z" fill="#E2DCCB"/>
<path d="M31.3055 50.1786L31.2188 50.1407C31.5094 49.4751 32.1662 49.0449 32.8921 49.0449C33.618 49.0449 34.2747 49.4751 34.5653 50.1407L34.4786 50.1786C34.2031 49.5475 33.5802 49.1396 32.8921 49.1396C32.2038 49.1396 31.581 49.5475 31.3055 50.1786Z" fill="#E2DCCB"/>
<path d="M33.9501 50.4409C33.7666 50.0205 33.3519 49.7489 32.8934 49.7489C32.435 49.7489 32.0202 50.0205 31.8367 50.4409L31.75 50.403C31.9485 49.9481 32.3973 49.6543 32.8934 49.6543C33.3894 49.6543 33.8382 49.9482 34.0367 50.403L33.9501 50.4409Z" fill="#E2DCCB"/>
<path d="M33.4371 50.6994C33.3457 50.4898 33.1389 50.3544 32.9104 50.3544C32.6819 50.3544 32.4751 50.4898 32.3836 50.6994L32.2969 50.6615C32.4034 50.4175 32.6442 50.2598 32.9104 50.2598C33.1765 50.2598 33.4173 50.4175 33.5238 50.6615L33.4371 50.6994Z" fill="#E2DCCB"/>
<path d="M35.5279 53.8434C35.0683 52.7905 34.0295 52.1103 32.8816 52.1103C31.7335 52.1103 30.6947 52.7905 30.2352 53.8434L30.1484 53.8055C30.6231 52.7181 31.696 52.0156 32.8816 52.0156C34.0673 52.0156 35.1401 52.7182 35.6147 53.8055L35.5279 53.8434Z" fill="#E2DCCB"/>
<path d="M35.015 54.1019C34.6474 53.2599 33.8167 52.7159 32.8986 52.7159C31.9804 52.7159 31.1495 53.2599 30.7821 54.1019L30.6953 54.064C31.0779 53.1875 31.9427 52.6211 32.8986 52.6211C33.8543 52.6211 34.7191 53.1875 35.1017 54.064L35.015 54.1019Z" fill="#E2DCCB"/>
<path d="M31.3055 54.3642L31.2188 54.3262C31.5094 53.6606 32.1662 53.2305 32.8921 53.2305C33.618 53.2305 34.2747 53.6606 34.5653 54.3262L34.4786 54.3642C34.2031 53.733 33.5802 53.3251 32.8921 53.3251C32.2038 53.3251 31.581 53.7329 31.3055 54.3642Z" fill="#E2DCCB"/>
<path d="M33.9501 54.6225C33.7666 54.2021 33.3519 53.9306 32.8934 53.9306C32.435 53.9306 32.0202 54.2021 31.8367 54.6225L31.75 54.5846C31.9485 54.1297 32.3973 53.8359 32.8934 53.8359C33.3894 53.8359 33.8382 54.1299 34.0367 54.5846L33.9501 54.6225Z" fill="#E2DCCB"/>
<path d="M33.4371 54.881C33.3457 54.6715 33.1389 54.536 32.9104 54.536C32.6819 54.536 32.4751 54.6715 32.3836 54.881L32.2969 54.8431C32.4034 54.5991 32.6442 54.4414 32.9104 54.4414C33.1765 54.4414 33.4173 54.5991 33.5238 54.8431L33.4371 54.881Z" fill="#E2DCCB"/>
<path d="M32.8561 51.7731C32.3964 50.7202 31.3577 50.04 30.2098 50.04C29.0617 50.04 28.0228 50.7202 27.5633 51.7731L27.4766 51.7351C27.9512 50.6478 29.0241 49.9453 30.2098 49.9453C31.3953 49.9453 32.4682 50.6479 32.9428 51.7351L32.8561 51.7731Z" fill="#E2DCCB"/>
<path d="M32.3197 52.0355C31.9522 51.1935 31.1214 50.6493 30.2033 50.6493C29.2851 50.6493 28.4542 51.1933 28.0867 52.0355L28 51.9976C28.3826 51.1211 29.2474 50.5547 30.2033 50.5547C31.159 50.5547 32.0238 51.1211 32.4064 51.9976L32.3197 52.0355Z" fill="#E2DCCB"/>
<path d="M31.8067 52.2938C31.5311 51.6627 30.9084 51.2548 30.2201 51.2548C29.5318 51.2548 28.909 51.6627 28.6335 52.2938L28.5469 52.2559C28.8375 51.5902 29.4943 51.1602 30.2202 51.1602C30.9461 51.1602 31.6029 51.5903 31.8934 52.2559L31.8067 52.2938Z" fill="#E2DCCB"/>
<path d="M31.2548 52.5543C31.0713 52.1339 30.6566 51.8623 30.1981 51.8623C29.7397 51.8623 29.3249 52.134 29.1414 52.5543L29.0547 52.5164C29.2533 52.0615 29.702 51.7676 30.1981 51.7676C30.6941 51.7676 31.1429 52.0615 31.3414 52.5164L31.2548 52.5543Z" fill="#E2DCCB"/>
<path d="M30.7418 52.8166C30.6504 52.607 30.4436 52.4716 30.2151 52.4716C29.9866 52.4716 29.7798 52.607 29.6883 52.8166L29.6016 52.7787C29.708 52.5346 29.9489 52.377 30.2151 52.377C30.4812 52.377 30.722 52.5346 30.8286 52.7787L30.7418 52.8166Z" fill="#E2DCCB"/>
<path d="M38.2467 51.7731C37.7871 50.7202 36.7483 50.04 35.6004 50.04C34.4523 50.04 33.4134 50.7202 32.9539 51.7731L32.8672 51.7351C33.3418 50.6478 34.4147 49.9453 35.6004 49.9453C36.7861 49.9453 37.8588 50.6479 38.3334 51.7351L38.2467 51.7731Z" fill="#E2DCCB"/>
<path d="M37.7259 52.0355C37.3583 51.1935 36.5276 50.6493 35.6095 50.6493C34.6913 50.6493 33.8605 51.1933 33.493 52.0355L33.4062 51.9976C33.7889 51.1211 34.6537 50.5547 35.6095 50.5547C36.5653 50.5547 37.43 51.1211 37.8127 51.9976L37.7259 52.0355Z" fill="#E2DCCB"/>
<path d="M37.1975 52.2938C36.9218 51.6627 36.2991 51.2548 35.611 51.2548C34.9227 51.2548 34.2999 51.6627 34.0244 52.2938L33.9375 52.2559C34.2281 51.5902 34.8849 51.1602 35.6109 51.1602C36.3368 51.1602 36.9934 51.5903 37.2841 52.2559L37.1975 52.2938Z" fill="#E2DCCB"/>
<path d="M36.6687 52.5543C36.4852 52.1339 36.0705 51.8623 35.6122 51.8623C35.1537 51.8623 34.739 52.134 34.5555 52.5543L34.4688 52.5164C34.6674 52.0615 35.1161 51.7676 35.6122 51.7676C36.1081 51.7676 36.557 52.0615 36.7555 52.5164L36.6687 52.5543Z" fill="#E2DCCB"/>
<path d="M36.1325 52.8166C36.041 52.607 35.8342 52.4716 35.6057 52.4716C35.3772 52.4716 35.1704 52.607 35.0789 52.8166L34.9922 52.7787C35.0987 52.5346 35.3395 52.377 35.6057 52.377C35.8718 52.377 36.1126 52.5346 36.2192 52.7787L36.1325 52.8166Z" fill="#E2DCCB"/>
<path d="M31.4867 3.14012C32.235 3.88841 33.4482 3.88841 34.1966 3.14012C34.9449 2.39183 34.9449 1.17864 34.1966 0.430357C33.4483 -0.317931 32.235 -0.317931 31.4867 0.430357C30.7384 1.17864 30.7384 2.39183 31.4867 3.14012ZM32.8416 0.667413L33.9594 1.78517L32.8416 2.90293L31.7239 1.78517L32.8416 0.667413Z" fill="#E2DCCB"/>
<path d="M31.4867 63.1616C32.235 63.9099 33.4482 63.9099 34.1966 63.1616C34.9449 62.4133 34.9449 61.2001 34.1966 60.4518C33.4483 59.7036 32.235 59.7036 31.4867 60.4518C30.7384 61.2001 30.7384 62.4133 31.4867 63.1616ZM32.8416 60.6889L33.9594 61.8067L32.8416 62.9244L31.7239 61.8067L32.8416 60.6889Z" fill="#E2DCCB"/>
<path d="M4.98973 29.7836C5.73802 30.5319 5.73802 31.7451 4.98973 32.4935C4.24144 33.2418 3.02825 33.2418 2.27997 32.4935C1.53168 31.7452 1.53168 30.5319 2.27997 29.7836C3.02825 29.0353 4.24144 29.0353 4.98973 29.7836ZM2.51702 31.1385L3.63478 32.2563L4.75254 31.1385L3.63478 30.0208L2.51702 31.1385Z" fill="#E2DCCB"/>
<path d="M64.2241 29.7836C64.9724 30.5319 64.9724 31.7451 64.2241 32.4935C63.4758 33.2418 62.2626 33.2418 61.5143 32.4935C60.7661 31.7452 60.7661 30.5319 61.5143 29.7836C62.2626 29.0353 63.4758 29.0353 64.2241 29.7836ZM61.7514 31.1385L62.8692 32.2563L63.9869 31.1385L62.8692 30.0208L61.7514 31.1385Z" fill="#E2DCCB"/>
</g>
<g filter="url(#filter1_d_4122_9)">
<path d="M41.9441 19.2832C42.6341 19.2832 43.2957 19.57 43.7836 20.0806C44.2715 20.5911 44.5455 21.2836 44.5455 22.0056V41.0625C44.5455 41.7845 44.2715 42.477 43.7836 42.9875C43.2957 43.4981 42.6341 43.7849 41.9441 43.7849H23.7342C23.0443 43.7849 22.3826 43.4981 21.8947 42.9875C21.4069 42.477 21.1328 41.7845 21.1328 41.0625V22.0056C21.1328 21.2836 21.4069 20.5911 21.8947 20.0806C22.3826 19.57 23.0443 19.2832 23.7342 19.2832H41.9441ZM41.2938 40.3819V33.1675C41.2938 31.9906 40.847 30.8619 40.0518 30.0297C39.2566 29.1975 38.1781 28.73 37.0535 28.73C35.9479 28.73 34.6602 29.4378 34.0358 30.4995V28.9886H30.4069V40.3819H34.0358V33.6711C34.0358 32.623 34.8423 31.7655 35.8438 31.7655C36.3268 31.7655 36.7899 31.9662 37.1314 32.3236C37.4729 32.681 37.6648 33.1657 37.6648 33.6711V40.3819H41.2938ZM26.1796 26.8515C26.7591 26.8515 27.3149 26.6106 27.7247 26.1817C28.1345 25.7528 28.3647 25.1712 28.3647 24.5647C28.3647 23.2988 27.3892 22.2642 26.1796 22.2642C25.5966 22.2642 25.0374 22.5066 24.6252 22.938C24.213 23.3694 23.9814 23.9546 23.9814 24.5647C23.9814 25.8306 24.9699 26.8515 26.1796 26.8515ZM27.9875 40.3819V28.9886H24.3846V40.3819H27.9875Z" fill="#F7FECB" fill-opacity="0.86" shape-rendering="crispEdges"/>
</g>
<defs>
<filter id="filter0_d_4122_9" x="-0.221001" y="-1.41045" width="66.2623" height="66.2643" filterUnits="userSpaceOnUse" color-interpolation-filters="sRGB">
<feFlood flood-opacity="0" result="BackgroundImageFix"/>
<feColorMatrix in="SourceAlpha" type="matrix" values="0 0 0 0 0 0 0 0 0 0 0 0 0 0 0 0 0 0 127 0" result="hardAlpha"/>
<feOffset/>
<feGaussianBlur stdDeviation="2.548"/>
<feComposite in2="hardAlpha" operator="out"/>
<feColorMatrix type="matrix" values="0 0 0 0 0.898039 0 0 0 0 0.764706 0 0 0 0 0.517647 0 0 0 0.54 0"/>
<feBlend mode="normal" in2="BackgroundImageFix" result="effect1_dropShadow_4122_9"/>
<feBlend mode="normal" in="SourceGraphic" in2="effect1_dropShadow_4122_9" result="shape"/>
</filter>
<filter id="filter1_d_4122_9" x="18.9549" y="19.2832" width="27.7699" height="29.9468" filterUnits="userSpaceOnUse" color-interpolation-filters="sRGB">
<feFlood flood-opacity="0" result="BackgroundImageFix"/>
<feColorMatrix in="SourceAlpha" type="matrix" values="0 0 0 0 0 0 0 0 0 0 0 0 0 0 0 0 0 0 127 0" result="hardAlpha"/>
<feOffset dy="3.26689"/>
<feGaussianBlur stdDeviation="1.08896"/>
<feComposite in2="hardAlpha" operator="out"/>
<feColorMatrix type="matrix" values="0 0 0 0 0 0 0 0 0 0 0 0 0 0 0 0 0 0 0.25 0"/>
<feBlend mode="normal" in2="BackgroundImageFix" result="effect1_dropShadow_4122_9"/>
<feBlend mode="normal" in="SourceGraphic" in2="effect1_dropShadow_4122_9" result="shape"/>
</filter>
<clipPath id="clip0_4122_9">
<rect width="65.8125" height="65.8125" fill="white"/>
</clipPath>
</defs>
</svg>
