<svg width="338" height="82" viewBox="0 0 338 82" fill="none" xmlns="http://www.w3.org/2000/svg">
<g filter="url(#filter0_d_3941_944)">
<path d="M7 22.1941V26.7672L7.57164 32.4836L8.71493 37.0568L15.003 58.7792L17.8612 67.3539L62.4494 69.6404H136.763H317.974L327.692 39.3434L330.55 25.6239V22.1941L329.978 21.0508L328.263 21.6224L323.119 23.909L319.689 25.0523L315.687 26.1956L303.111 28.4821L295.108 29.0538H36.7254L28.7224 27.9105L20.1478 25.6239L12.1448 22.7657L7 21.0508V22.1941Z" fill="url(#paint0_linear_3941_944)"/>
<path d="M7 22.1941V26.7672L7.57164 32.4836L8.71493 37.0568L15.003 58.7792L17.8612 67.3539L62.4494 69.6404H136.763H317.974L327.692 39.3434L330.55 25.6239V22.1941L329.978 21.0508L328.263 21.6224L323.119 23.909L319.689 25.0523L315.687 26.1956L303.111 28.4821L295.108 29.0538H36.7254L28.7224 27.9105L20.1478 25.6239L12.1448 22.7657L7 21.0508V22.1941Z" stroke="#EDECEC" stroke-width="1.5"/>
</g>
<mask id="path-2-inside-1_3941_944" fill="white">
<path d="M199.168 14.389C199.182 14.387 199.197 14.3842 199.211 14.3808C202.914 14.1798 204.912 13.1996 205 13.156L204.428 12.6877C204.277 12.7562 204.12 12.8195 203.958 12.8773V12.7016C203.953 12.6251 203.901 12.553 203.815 12.5001C203.728 12.4472 203.613 12.4177 203.493 12.4177C203.373 12.4177 203.258 12.4472 203.172 12.5001C203.085 12.553 203.034 12.6251 203.028 12.7016V13.175C202.85 13.2243 202.657 13.2748 202.447 13.3241V13.0271C202.45 12.9869 202.44 12.9467 202.418 12.9091C202.396 12.8714 202.362 12.8369 202.319 12.8078C202.275 12.7787 202.223 12.7555 202.165 12.7397C202.107 12.7239 202.045 12.7157 201.982 12.7157C201.919 12.7157 201.857 12.7239 201.799 12.7397C201.741 12.7555 201.689 12.7787 201.645 12.8078C201.602 12.8369 201.568 12.8714 201.546 12.9091C201.524 12.9467 201.514 12.9869 201.517 13.0271V13.515C201.354 13.5441 201.185 13.5717 201.009 13.5978V13.2748C201.003 13.1984 200.952 13.1262 200.865 13.0733C200.779 13.0204 200.664 12.9909 200.544 12.9909C200.424 12.9909 200.309 13.0204 200.222 13.0733C200.136 13.1262 200.084 13.1984 200.079 13.2748V13.7128C199.906 13.7299 199.729 13.7457 199.546 13.7596V13.4265C199.546 13.3477 199.497 13.2722 199.41 13.2165C199.323 13.1608 199.205 13.1295 199.082 13.1295C198.959 13.1295 198.84 13.1608 198.753 13.2165C198.666 13.2722 198.617 13.3477 198.617 13.4265V13.8057H198.533C195.64 13.886 193.87 12.3136 193.255 11.6519C193.201 11.5729 193.148 11.492 193.096 11.4086H193.501V11.068H192.446V10.6654H193.501V10.3248H188.213V9.47221H187.686C188.255 9.31076 188.807 9.12583 189.338 8.9186L191.457 8.0907V7.22362C191.457 7.22362 188.994 7.88594 186.279 7.73679C186.293 7.73515 186.308 7.73261 186.322 7.72921C190.024 7.52824 192.023 6.54804 192.111 6.50443L191.539 6.0355C191.388 6.10574 191.231 6.17031 191.069 6.22889V6.05509C191.064 5.9786 191.012 5.90641 190.926 5.85353C190.839 5.80065 190.724 5.77114 190.604 5.77114C190.484 5.77114 190.369 5.80065 190.283 5.85353C190.196 5.90641 190.145 5.9786 190.139 6.05509V6.52845C189.961 6.57774 189.767 6.6283 189.558 6.67759V6.38056C189.561 6.34036 189.551 6.3002 189.529 6.26251C189.507 6.22482 189.473 6.19038 189.43 6.16128C189.386 6.13217 189.334 6.109 189.276 6.09318C189.218 6.07735 189.156 6.06919 189.093 6.06919C189.03 6.06919 188.968 6.07735 188.91 6.09318C188.852 6.109 188.8 6.13217 188.756 6.16128C188.713 6.19038 188.679 6.22482 188.657 6.26251C188.635 6.3002 188.625 6.34036 188.628 6.38056V6.86845C188.464 6.89752 188.295 6.92512 188.12 6.95124V6.62388C188.123 6.58367 188.113 6.54351 188.091 6.50582C188.069 6.46813 188.035 6.43369 187.991 6.40459C187.948 6.37548 187.896 6.35232 187.838 6.33649C187.78 6.32066 187.718 6.3125 187.655 6.3125C187.592 6.3125 187.53 6.32066 187.472 6.33649C187.414 6.35232 187.362 6.37548 187.318 6.40459C187.275 6.43369 187.241 6.46813 187.219 6.50582C187.197 6.54351 187.187 6.58367 187.19 6.62388V7.06626C187.017 7.08396 186.84 7.09976 186.657 7.11366V6.78061C186.657 6.70183 186.608 6.62628 186.521 6.57057C186.434 6.51487 186.316 6.48358 186.193 6.48358C186.069 6.48358 185.951 6.51487 185.864 6.57057C185.777 6.62628 185.728 6.70183 185.728 6.78061V7.15979H185.644C182.754 7.23942 180.985 5.67211 180.368 5.01106C180.313 4.9308 180.258 4.84927 180.207 4.76522H180.612V4.42458H179.557V4.02201H180.612V3.68137H178.449V3.13976H176.209V2.01041H175.165V0.995454H172.531V2.22908H174.34V1.42836H173.205V1.65145H173.991V2.00599H172.879V1.21791H174.816V2.40288H172.194V0.995454H169.381V1.72476H169.174V0.872849H172.185V0.650391H165.725V0.872849H168.826V1.72286H168.519V0.995454H165.705V2.40288H163.082V1.21791H165.019V2.00599H163.908V1.65145H164.693V1.42836H163.56V2.22908H165.369V0.995454H162.74V2.01041H161.691V3.13787H159.45V3.67947H157.311V4.02011H158.292V4.42268H157.315V4.76332H157.72C157.667 4.84738 157.614 4.92954 157.559 5.00916C156.942 5.67274 155.173 7.24069 152.282 7.1579H152.199V6.77871C152.199 6.69993 152.15 6.62438 152.063 6.56868C151.976 6.51297 151.858 6.48168 151.734 6.48168C151.611 6.48168 151.493 6.51297 151.406 6.56868C151.319 6.62438 151.27 6.69993 151.27 6.77871V7.11176C151.087 7.09786 150.91 7.08206 150.737 7.06436V6.62388C150.74 6.58367 150.73 6.54351 150.708 6.50582C150.686 6.46813 150.652 6.43369 150.609 6.40459C150.565 6.37548 150.513 6.35232 150.455 6.33649C150.397 6.32066 150.335 6.3125 150.272 6.3125C150.209 6.3125 150.147 6.32066 150.089 6.33649C150.031 6.35232 149.979 6.37548 149.935 6.40459C149.892 6.43369 149.858 6.46813 149.836 6.50582C149.814 6.54351 149.804 6.58367 149.807 6.62388V6.94682C149.631 6.92112 149.461 6.89352 149.298 6.86403V6.37614C149.298 6.29736 149.249 6.22181 149.162 6.16611C149.075 6.1104 148.957 6.07911 148.834 6.07911C148.71 6.07911 148.592 6.1104 148.505 6.16611C148.418 6.22181 148.369 6.29736 148.369 6.37614V6.67317C148.158 6.62388 147.965 6.57332 147.788 6.52402V6.05509C147.782 5.9786 147.731 5.90641 147.644 5.85353C147.558 5.80065 147.443 5.77114 147.323 5.77114C147.203 5.77114 147.088 5.80065 147.001 5.85353C146.915 5.90641 146.863 5.9786 146.858 6.05509V6.23078C146.696 6.17311 146.54 6.10982 146.389 6.04119L145.816 6.50949C145.903 6.55309 147.901 7.5333 151.605 7.73427C151.619 7.73767 151.634 7.74021 151.648 7.74185C148.933 7.891 146.47 7.22868 146.47 7.22868V8.09576L148.588 8.92365C149.12 9.13089 149.672 9.31582 150.241 9.47727H149.792V10.338H144.505V10.6787H145.559V11.0812H144.5V11.4219H144.904C144.852 11.5053 144.799 11.5862 144.745 11.6652C144.13 12.3269 142.36 13.8992 139.467 13.819H139.384V13.4398C139.378 13.3633 139.327 13.2911 139.24 13.2382C139.154 13.1853 139.039 13.1558 138.919 13.1558C138.799 13.1558 138.684 13.1853 138.597 13.2382C138.511 13.2911 138.459 13.3633 138.454 13.4398V13.7653C138.271 13.7514 138.094 13.7356 137.921 13.7185V13.2805C137.916 13.204 137.864 13.1319 137.778 13.079C137.691 13.0261 137.576 12.9966 137.456 12.9966C137.336 12.9966 137.221 13.0261 137.135 13.079C137.048 13.1319 136.997 13.204 136.991 13.2805V13.6035C136.815 13.5778 136.646 13.5502 136.483 13.5207V13.0328C136.486 12.9926 136.476 12.9524 136.454 12.9147C136.432 12.8771 136.398 12.8426 136.355 12.8135C136.311 12.7844 136.259 12.7612 136.201 12.7454C136.143 12.7296 136.081 12.7214 136.018 12.7214C135.955 12.7214 135.893 12.7296 135.835 12.7454C135.777 12.7612 135.725 12.7844 135.681 12.8135C135.638 12.8426 135.604 12.8771 135.582 12.9147C135.56 12.9524 135.55 12.9926 135.553 13.0328V13.3298C135.343 13.2805 135.15 13.23 134.972 13.1807V12.7073C134.972 12.6285 134.923 12.553 134.836 12.4973C134.749 12.4416 134.63 12.4103 134.507 12.4103C134.384 12.4103 134.266 12.4416 134.179 12.4973C134.092 12.553 134.043 12.6285 134.043 12.7073V12.8805C133.881 12.8226 133.724 12.7593 133.572 12.6909L133 13.1592C133.088 13.2028 135.086 14.183 138.789 14.384C138.803 14.3873 138.818 14.39 138.832 14.3922C136.117 14.5407 133.655 13.8784 133.655 13.8784V14.7455L135.772 15.5734C138.036 16.4574 140.637 16.9251 143.289 16.9252H141.254V17.2652H142.165V27.2808H141.816V27.9216H141.313V29.3948H145.456V27.9216H144.954V27.2764H144.605V18.1051H154.976V27.332H154.627V27.9772H154.125V29.4498H158.268V27.9772H157.765V27.332H157.417V15.7667H157.834V16.23H160.022V14.5439H161.554V15.2062H160.672V14.9534H160.943V15.0526H161.292V14.7309H160.323V15.4305H161.905V14.9881H176.025V15.4305H177.607V14.7297H176.638V15.0513H176.986V14.9521H177.258V15.2049H176.376V14.5439H177.906V16.23H180.095V15.7674H180.511V27.3326H180.163V27.9779H179.66V29.4504H183.804V27.9779H183.298V27.3326H182.949V18.1057H193.398V27.2789H193.049V27.9216H192.547V29.3948H196.69V27.9216H196.187V27.2764H195.839V17.2626H196.749V16.9252H194.714C197.365 16.9244 199.964 16.4564 202.226 15.5727L204.344 14.7448V13.8752C204.344 13.8752 201.879 14.5375 199.168 14.389ZM178.61 13.4196V12.8615H179.413V13.0511H179.191V12.9595H178.842V13.2755H179.762V13.1206H180.507V13.4221L178.61 13.4196ZM157.419 13.4196V13.1181H158.21V13.2729H159.129V12.957H158.786V13.0486H158.564V12.859H159.368V13.417L157.419 13.4196ZM154.85 10.6736V11.0762H154.042V10.6736H154.85ZM160.611 4.02201V4.42458H159.797V4.02201H160.611ZM178.394 11.1109V10.6091H179.208V11.1109H178.394ZM179.76 12.2106V11.978H180.505V12.8931H179.76V12.6372H179.179V12.2106H179.76ZM178.83 12.6372H178.257V12.8931H177.472V11.9799H178.257V12.2125H178.828L178.83 12.6372ZM159.141 12.6372V12.2106H159.712V11.978H160.449V12.8931H159.712V12.6372H159.141ZM158.212 12.6372V12.8931H157.421V11.9799H158.212V12.2125H158.793V12.6391L158.212 12.6372ZM177.232 11.1109V10.6091H178.045V11.1109H177.232ZM176.883 11.1109H176.07V10.6091H176.883V11.1109ZM175.721 11.1109H174.907V10.6091H175.721V11.1109ZM174.56 11.1109H173.745V10.6091H174.56V11.1109ZM173.397 11.1109H172.584V10.6091H173.397V11.1109ZM172.235 11.1109H171.421V10.6091H172.235V11.1109ZM171.073 11.1109H170.259V10.6091H171.073V11.1109ZM169.91 11.1109H169.097V10.6091H169.91V11.1109ZM168.748 11.1109H167.935V10.6091H168.748V11.1109ZM167.583 11.1109H166.769V10.6091H167.583V11.1109ZM166.42 11.1109H165.606V10.6091H166.419L166.42 11.1109ZM165.259 11.1109H164.446V10.6091H165.259V11.1109ZM164.097 11.1109H163.283V10.6091H164.097V11.1109ZM162.937 11.1109H162.124V10.6091H162.937V11.1109ZM161.775 11.1109H160.961V10.6091H161.774L161.775 11.1109ZM160.613 11.1109H159.799V10.6091H160.613V11.1109ZM159.45 11.1109H158.637V10.6091H159.45V11.1109ZM158.292 11.1109H157.421V10.6091H158.292V11.1109ZM159.368 11.4516V11.9881H158.564V11.7985H158.786V11.8902H159.135V11.5742H158.216V11.7524H157.425V11.449L159.368 11.4516ZM160.456 11.7549H159.719V11.4516H160.456V11.7549ZM178.266 11.7549H177.481V11.4516H178.257L178.266 11.7549ZM167.935 5.164V9.05321C167.931 9.08134 167.911 9.10764 167.879 9.12682C167.847 9.14601 167.804 9.15667 167.76 9.15667C167.716 9.15667 167.673 9.14601 167.641 9.12682C167.609 9.10764 167.589 9.08134 167.586 9.05321V5.164C167.589 5.13587 167.609 5.10957 167.641 5.09039C167.673 5.0712 167.716 5.06054 167.76 5.06054C167.804 5.06054 167.847 5.0712 167.879 5.09039C167.911 5.10957 167.931 5.13587 167.935 5.164ZM166.772 5.164V9.05321C166.769 9.08134 166.749 9.10764 166.717 9.12682C166.684 9.14601 166.642 9.15667 166.598 9.15667C166.554 9.15667 166.511 9.14601 166.479 9.12682C166.446 9.10764 166.427 9.08134 166.423 9.05321V5.164C166.427 5.13587 166.446 5.10957 166.479 5.09039C166.511 5.0712 166.554 5.06054 166.598 5.06054C166.642 5.06054 166.684 5.0712 166.717 5.09039C166.749 5.10957 166.769 5.13587 166.772 5.164ZM165.61 5.164V9.05321C165.61 9.08271 165.592 9.111 165.559 9.13186C165.526 9.15272 165.482 9.16444 165.436 9.16444C165.39 9.16444 165.346 9.15272 165.313 9.13186C165.28 9.111 165.262 9.08271 165.262 9.05321V5.164C165.262 5.1345 165.28 5.10621 165.313 5.08535C165.346 5.06449 165.39 5.05277 165.436 5.05277C165.482 5.05277 165.526 5.06449 165.559 5.08535C165.592 5.10621 165.61 5.1345 165.61 5.164ZM164.449 5.164V9.05321C164.445 9.08134 164.425 9.10764 164.393 9.12682C164.361 9.14601 164.318 9.15667 164.274 9.15667C164.23 9.15667 164.188 9.14601 164.155 9.12682C164.123 9.10764 164.103 9.08134 164.1 9.05321V5.164C164.103 5.13587 164.123 5.10957 164.155 5.09039C164.188 5.0712 164.23 5.06054 164.274 5.06054C164.318 5.06054 164.361 5.0712 164.393 5.09039C164.425 5.10957 164.445 5.13587 164.449 5.164ZM163.286 5.164V9.05321C163.283 9.08134 163.263 9.10764 163.231 9.12682C163.198 9.14601 163.156 9.15667 163.112 9.15667C163.068 9.15667 163.025 9.14601 162.993 9.12682C162.961 9.10764 162.941 9.08134 162.937 9.05321V5.164C162.941 5.13587 162.961 5.10957 162.993 5.09039C163.025 5.0712 163.068 5.06054 163.112 5.06054C163.156 5.06054 163.198 5.0712 163.231 5.09039C163.263 5.10957 163.283 5.13587 163.286 5.164ZM162.124 5.164V9.05321C162.121 9.08134 162.101 9.10764 162.069 9.12682C162.036 9.14601 161.994 9.15667 161.95 9.15667C161.905 9.15667 161.863 9.14601 161.831 9.12682C161.798 9.10764 161.778 9.08134 161.775 9.05321V5.164C161.778 5.13587 161.798 5.10957 161.831 5.09039C161.863 5.0712 161.905 5.06054 161.95 5.06054C161.994 5.06054 162.036 5.0712 162.069 5.09039C162.101 5.10957 162.121 5.13587 162.124 5.164ZM160.962 5.164V9.05321C160.958 9.08134 160.939 9.10764 160.906 9.12682C160.874 9.14601 160.831 9.15667 160.787 9.15667C160.743 9.15667 160.701 9.14601 160.668 9.12682C160.636 9.10764 160.616 9.08134 160.613 9.05321V5.164C160.616 5.13587 160.636 5.10957 160.668 5.09039C160.701 5.0712 160.743 5.06054 160.787 5.06054C160.831 5.06054 160.874 5.0712 160.906 5.09039C160.939 5.10957 160.958 5.13587 160.962 5.164ZM159.799 5.164V9.05321C159.796 9.08134 159.776 9.10764 159.744 9.12682C159.712 9.14601 159.669 9.15667 159.625 9.15667C159.581 9.15667 159.538 9.14601 159.506 9.12682C159.474 9.10764 159.454 9.08134 159.45 9.05321V5.164C159.454 5.13587 159.474 5.10957 159.506 5.09039C159.538 5.0712 159.581 5.06054 159.625 5.06054C159.669 5.06054 159.712 5.0712 159.744 5.09039C159.776 5.10957 159.796 5.13587 159.799 5.164ZM179.382 5.62598C179.428 5.62598 179.473 5.63776 179.505 5.65874C179.538 5.67972 179.557 5.70817 179.557 5.73784V9.05321C179.553 9.08134 179.534 9.10764 179.501 9.12682C179.469 9.14601 179.426 9.15667 179.382 9.15667C179.338 9.15667 179.296 9.14601 179.263 9.12682C179.231 9.10764 179.211 9.08134 179.208 9.05321V5.7391C179.207 5.72434 179.212 5.70967 179.22 5.69595C179.229 5.68224 179.241 5.66975 179.258 5.65922C179.274 5.64869 179.293 5.64033 179.314 5.63462C179.336 5.62891 179.359 5.62598 179.382 5.62598ZM178.393 5.164V9.05321C178.39 9.08134 178.37 9.10764 178.338 9.12682C178.306 9.14601 178.263 9.15667 178.219 9.15667C178.175 9.15667 178.132 9.14601 178.1 9.12682C178.068 9.10764 178.048 9.08134 178.044 9.05321V5.164C178.048 5.13587 178.068 5.10957 178.1 5.09039C178.132 5.0712 178.175 5.06054 178.219 5.06054C178.263 5.06054 178.306 5.0712 178.338 5.09039C178.37 5.10957 178.39 5.13587 178.393 5.164ZM177.231 5.164V9.05321C177.228 9.08134 177.208 9.10764 177.176 9.12682C177.143 9.14601 177.101 9.15667 177.057 9.15667C177.012 9.15667 176.97 9.14601 176.938 9.12682C176.905 9.10764 176.885 9.08134 176.882 9.05321V5.164C176.885 5.13587 176.905 5.10957 176.938 5.09039C176.97 5.0712 177.012 5.06054 177.057 5.06054C177.101 5.06054 177.143 5.0712 177.176 5.09039C177.208 5.10957 177.228 5.13587 177.231 5.164ZM176.069 5.164V9.05321C176.065 9.08134 176.046 9.10764 176.013 9.12682C175.981 9.14601 175.938 9.15667 175.894 9.15667C175.85 9.15667 175.808 9.14601 175.775 9.12682C175.743 9.10764 175.723 9.08134 175.72 9.05321V5.164C175.723 5.13587 175.743 5.10957 175.775 5.09039C175.808 5.0712 175.85 5.06054 175.894 5.06054C175.938 5.06054 175.981 5.0712 176.013 5.09039C176.046 5.10957 176.065 5.13587 176.069 5.164ZM174.906 5.164V9.05321C174.906 9.08271 174.888 9.111 174.855 9.13186C174.823 9.15272 174.779 9.16444 174.732 9.16444C174.686 9.16444 174.642 9.15272 174.609 9.13186C174.577 9.111 174.559 9.08271 174.559 9.05321V5.164C174.559 5.1345 174.577 5.10621 174.609 5.08535C174.642 5.06449 174.686 5.05277 174.732 5.05277C174.779 5.05277 174.823 5.06449 174.855 5.08535C174.888 5.10621 174.906 5.1345 174.906 5.164ZM173.744 5.164V9.05321C173.744 9.08271 173.726 9.111 173.693 9.13186C173.661 9.15272 173.616 9.16444 173.57 9.16444C173.524 9.16444 173.48 9.15272 173.447 9.13186C173.415 9.111 173.396 9.08271 173.396 9.05321V5.164C173.396 5.1345 173.415 5.10621 173.447 5.08535C173.48 5.06449 173.524 5.05277 173.57 5.05277C173.616 5.05277 173.661 5.06449 173.693 5.08535C173.726 5.10621 173.744 5.1345 173.744 5.164ZM172.583 5.164V9.05321C172.579 9.08134 172.56 9.10764 172.527 9.12682C172.495 9.14601 172.452 9.15667 172.408 9.15667C172.364 9.15667 172.322 9.14601 172.289 9.12682C172.257 9.10764 172.237 9.08134 172.234 9.05321V5.164C172.237 5.13587 172.257 5.10957 172.289 5.09039C172.322 5.0712 172.364 5.06054 172.408 5.06054C172.452 5.06054 172.495 5.0712 172.527 5.09039C172.56 5.10957 172.579 5.13587 172.583 5.164ZM171.42 5.164V9.05321C171.417 9.08134 171.397 9.10764 171.365 9.12682C171.333 9.14601 171.29 9.15667 171.246 9.15667C171.202 9.15667 171.159 9.14601 171.127 9.12682C171.095 9.10764 171.075 9.08134 171.072 9.05321V5.164C171.075 5.13587 171.095 5.10957 171.127 5.09039C171.159 5.0712 171.202 5.06054 171.246 5.06054C171.29 5.06054 171.333 5.0712 171.365 5.09039C171.397 5.10957 171.417 5.13587 171.42 5.164ZM170.258 5.164V9.05321C170.255 9.08134 170.235 9.10764 170.203 9.12682C170.17 9.14601 170.128 9.15667 170.084 9.15667C170.04 9.15667 169.997 9.14601 169.965 9.12682C169.932 9.10764 169.913 9.08134 169.909 9.05321V5.164C169.913 5.13587 169.932 5.10957 169.965 5.09039C169.997 5.0712 170.04 5.06054 170.084 5.06054C170.128 5.06054 170.17 5.0712 170.203 5.09039C170.235 5.10957 170.255 5.13587 170.258 5.164ZM168.747 5.164C168.75 5.13587 168.77 5.10957 168.802 5.09039C168.835 5.0712 168.877 5.06054 168.921 5.06054C168.966 5.06054 169.008 5.0712 169.04 5.09039C169.073 5.10957 169.093 5.13587 169.096 5.164V9.05321C169.093 9.08134 169.073 9.10764 169.04 9.12682C169.008 9.14601 168.966 9.15667 168.921 9.15667C168.877 9.15667 168.835 9.14601 168.802 9.12682C168.77 9.10764 168.75 9.08134 168.747 9.05321V5.164ZM180.369 9.05321V6.43428C180.372 6.40615 180.392 6.37985 180.425 6.36067C180.457 6.34148 180.499 6.33082 180.544 6.33082C180.588 6.33082 180.63 6.34148 180.663 6.36067C180.695 6.37985 180.715 6.40615 180.718 6.43428V9.05637C180.715 9.0845 180.695 9.1108 180.663 9.12998C180.63 9.14917 180.588 9.15983 180.544 9.15983C180.499 9.15983 180.457 9.14917 180.425 9.12998C180.392 9.1108 180.372 9.0845 180.369 9.05637V9.05321ZM164.099 4.02201V4.42458H163.285V4.02201H164.099ZM164.448 4.02201H165.261V4.42458H164.448V4.02201ZM165.609 4.02201H166.422V4.42458H165.606L165.609 4.02201ZM166.771 4.02201H167.583V4.42458H166.769L166.771 4.02201ZM167.934 4.02201H168.747V4.42458H167.934V4.02201ZM173.744 4.42458V4.02201H174.559V4.42458H173.744ZM173.396 4.42458H172.583V4.02201H173.396V4.42458ZM172.234 4.42458H171.42V4.02201H172.234V4.42458ZM171.072 4.42458H170.258V4.02201H171.072V4.42458ZM169.909 4.42458H169.096V4.02201H169.909V4.42458ZM177.231 4.42458V4.02201H178.044V4.42458H177.231ZM176.882 4.42458H176.069V4.02201H176.882V4.42458ZM175.72 4.42458H174.906V4.02201H175.72V4.42458ZM162.936 4.42458H162.123V4.02201H162.937L162.936 4.42458ZM161.774 4.42458H160.961V4.02201H161.774V4.42458ZM158.637 5.7391V9.05447C158.634 9.08261 158.614 9.1089 158.582 9.12808C158.549 9.14727 158.507 9.15793 158.463 9.15793C158.418 9.15793 158.376 9.14727 158.344 9.12808C158.311 9.1089 158.291 9.08261 158.288 9.05447V5.7391C158.286 5.72375 158.29 5.70832 158.297 5.69379C158.305 5.67925 158.318 5.66592 158.334 5.65463C158.351 5.64334 158.371 5.63434 158.393 5.62818C158.415 5.62202 158.439 5.61884 158.463 5.61884C158.487 5.61884 158.511 5.62202 158.533 5.62818C158.555 5.63434 158.574 5.64334 158.591 5.65463C158.607 5.66592 158.62 5.67925 158.628 5.69379C158.636 5.70832 158.639 5.72375 158.637 5.7391ZM157.475 6.43428V9.05637C157.475 9.08587 157.456 9.11416 157.424 9.13502C157.391 9.15588 157.347 9.1676 157.301 9.1676C157.255 9.1676 157.21 9.15588 157.178 9.13502C157.145 9.11416 157.127 9.08587 157.127 9.05637V6.43428C157.127 6.40478 157.145 6.37649 157.178 6.35563C157.21 6.33477 157.255 6.32305 157.301 6.32305C157.347 6.32305 157.391 6.33477 157.424 6.35563C157.456 6.37649 157.475 6.40478 157.475 6.43428ZM159.712 13.1213H160.449V13.4227H159.712V13.1213ZM177.474 13.1213H178.257V13.4227H177.472L177.474 13.1213ZM180.505 11.76H179.76V11.5786H178.84V11.8946H179.189V11.803H179.411V11.9926H178.608V11.456H180.505V11.76ZM180.505 11.116H179.557V10.6142H180.505V11.116ZM179.208 4.42458H178.394V4.02201H179.208V4.42458ZM175.165 2.62596V2.23477H175.857V3.36286H178.098V3.67885H175.321V2.82061H173.758V2.62596H175.165ZM169.381 1.94722V2.62533H171.272V1.41635H169.934V2.05718H170.283V1.63944H170.924V2.40288H169.729V1.21791H171.845V2.62596H173.414V2.82061H169.174V1.94722H169.381ZM166.054 2.62533V1.21791H168.176V2.40288H166.981V1.63944H167.622V2.05718H167.97V1.41635H166.632V2.62596H168.524V1.94722H168.831V2.81998H164.493V2.62533H166.054ZM159.799 3.36286H162.04V2.23477H162.732V2.62596H164.136V2.82061H162.674V3.68137H159.799V3.36286ZM158.637 4.02201H159.45V4.42458H158.637V4.02201ZM153.689 10.6736V11.0762H152.876V10.6736H153.689ZM152.527 10.6736V11.0762H151.714V10.6736H152.527ZM151.366 10.6736V11.0762H150.552V10.6736H151.366ZM149.389 10.6736H150.202V11.0762H149.389V10.6736ZM148.227 10.6736H149.04V11.0762H148.227V10.6736ZM147.064 10.6736H147.878V11.0762H147.064V10.6736ZM145.902 10.6736H146.715V11.0762H145.902V10.6736ZM144.566 15.816C144.543 15.8161 144.52 15.8133 144.499 15.8078C144.478 15.8022 144.458 15.794 144.442 15.7837C144.426 15.7733 144.413 15.7611 144.404 15.7475C144.395 15.734 144.391 15.7195 144.391 15.7048V13.0827C144.394 13.0546 144.414 13.0283 144.446 13.0091C144.479 12.9899 144.521 12.9793 144.565 12.9793C144.609 12.9793 144.652 12.9899 144.684 13.0091C144.717 13.0283 144.736 13.0546 144.74 13.0827V15.7048C144.74 15.7342 144.722 15.7624 144.689 15.7832C144.657 15.8041 144.613 15.8159 144.567 15.816H144.566ZM145.554 17.7644H144.605V17.2626H145.554V17.7644ZM145.903 15.7048C145.9 15.7329 145.88 15.7592 145.848 15.7784C145.815 15.7976 145.773 15.8083 145.729 15.8083C145.684 15.8083 145.642 15.7976 145.61 15.7784C145.577 15.7592 145.557 15.7329 145.554 15.7048V12.3894C145.552 12.3741 145.556 12.3587 145.563 12.3441C145.571 12.3296 145.584 12.3163 145.6 12.305C145.617 12.2937 145.637 12.2847 145.659 12.2785C145.681 12.2724 145.705 12.2692 145.729 12.2692C145.753 12.2692 145.776 12.2724 145.799 12.2785C145.821 12.2847 145.84 12.2937 145.857 12.305C145.873 12.3163 145.886 12.3296 145.894 12.3441C145.902 12.3587 145.905 12.3741 145.903 12.3894V15.7048ZM146.716 17.7644H145.903V17.2626H146.716V17.7644ZM147.065 15.7048C147.062 15.7329 147.042 15.7592 147.01 15.7784C146.978 15.7976 146.935 15.8083 146.891 15.8083C146.847 15.8083 146.804 15.7976 146.772 15.7784C146.74 15.7592 146.72 15.7329 146.716 15.7048V11.8156C146.72 11.7875 146.74 11.7612 146.772 11.742C146.804 11.7228 146.847 11.7121 146.891 11.7121C146.935 11.7121 146.978 11.7228 147.01 11.742C147.042 11.7612 147.062 11.7875 147.065 11.8156V15.7048ZM147.879 17.7644H147.065V17.2626H147.879V17.7644ZM148.228 15.7048C148.224 15.7329 148.205 15.7592 148.172 15.7784C148.14 15.7976 148.097 15.8083 148.053 15.8083C148.009 15.8083 147.967 15.7976 147.934 15.7784C147.902 15.7592 147.882 15.7329 147.879 15.7048V11.8156C147.882 11.7875 147.902 11.7612 147.934 11.742C147.967 11.7228 148.009 11.7121 148.053 11.7121C148.097 11.7121 148.14 11.7228 148.172 11.742C148.205 11.7612 148.224 11.7875 148.228 11.8156V15.7048ZM149.041 17.7644H148.228V17.2626H149.041V17.7644ZM149.39 15.7048C149.387 15.7329 149.367 15.7592 149.334 15.7784C149.302 15.7976 149.26 15.8083 149.216 15.8083C149.171 15.8083 149.129 15.7976 149.097 15.7784C149.064 15.7592 149.044 15.7329 149.041 15.7048V11.8156C149.044 11.7875 149.064 11.7612 149.097 11.742C149.129 11.7228 149.171 11.7121 149.216 11.7121C149.26 11.7121 149.302 11.7228 149.334 11.742C149.367 11.7612 149.387 11.7875 149.39 11.8156V15.7048ZM150.203 17.7644H149.39V17.2626H150.203V17.7644ZM150.552 15.7048C150.549 15.7329 150.529 15.7592 150.497 15.7784C150.464 15.7976 150.422 15.8083 150.378 15.8083C150.334 15.8083 150.291 15.7976 150.259 15.7784C150.227 15.7592 150.207 15.7329 150.203 15.7048V11.8156C150.207 11.7875 150.227 11.7612 150.259 11.742C150.291 11.7228 150.334 11.7121 150.378 11.7121C150.422 11.7121 150.464 11.7228 150.497 11.742C150.529 11.7612 150.549 11.7875 150.552 11.8156V15.7048ZM151.366 17.7644H150.552V17.2626H151.366V17.7644ZM151.714 15.7048C151.714 15.7343 151.695 15.7626 151.663 15.7835C151.63 15.8043 151.586 15.816 151.54 15.816C151.494 15.816 151.449 15.8043 151.417 15.7835C151.384 15.7626 151.366 15.7343 151.366 15.7048V11.8156C151.366 11.7861 151.384 11.7578 151.417 11.7369C151.449 11.7161 151.494 11.7044 151.54 11.7044C151.586 11.7044 151.63 11.7161 151.663 11.7369C151.695 11.7578 151.714 11.7861 151.714 11.8156V15.7048ZM152.527 17.7644H151.714V17.2626H152.527V17.7644ZM152.876 15.7048C152.873 15.7329 152.853 15.7592 152.82 15.7784C152.788 15.7976 152.746 15.8083 152.701 15.8083C152.657 15.8083 152.615 15.7976 152.582 15.7784C152.55 15.7592 152.53 15.7329 152.527 15.7048V11.8156C152.53 11.7875 152.55 11.7612 152.582 11.742C152.615 11.7228 152.657 11.7121 152.701 11.7121C152.746 11.7121 152.788 11.7228 152.82 11.742C152.853 11.7612 152.873 11.7875 152.876 11.8156V15.7048ZM153.689 17.7644H152.876V17.2626H153.689V17.7644ZM154.042 15.7048C154.039 15.7329 154.019 15.7592 153.987 15.7784C153.954 15.7976 153.912 15.8083 153.868 15.8083C153.824 15.8083 153.781 15.7976 153.749 15.7784C153.716 15.7592 153.697 15.7329 153.693 15.7048V11.8156C153.697 11.7875 153.716 11.7612 153.749 11.742C153.781 11.7228 153.824 11.7121 153.868 11.7121C153.912 11.7121 153.954 11.7228 153.987 11.742C154.019 11.7612 154.039 11.7875 154.042 11.8156V15.7048ZM154.856 17.7644H154.042V17.2626H154.856V17.7644ZM154.856 15.7048V11.8156C154.856 11.7917 154.868 11.7685 154.89 11.7493C154.913 11.7302 154.944 11.7162 154.98 11.7094V15.811C154.944 15.8047 154.911 15.7909 154.888 15.7717C154.865 15.7525 154.852 15.729 154.852 15.7048H154.856ZM157.425 15.5424V13.7602H158.513V15.0577H157.844V15.5424H157.425ZM159.676 14.3208V16.005H158.182V15.282H159.16V15.6163H158.851V15.4432H158.502V15.8394H159.509V15.0577H158.851V13.7602H160.449V14.1166H160.646V14.3208H159.676ZM161.903 14.5439H162.839V14.7625H161.899L161.903 14.5439ZM174.465 14.5439V14.7625H173.651V14.5439H174.465ZM173.302 14.7625H172.489V14.5439H173.302V14.7625ZM172.14 14.7625H171.327V14.5439H172.14V14.7625ZM170.978 14.7625H170.164V14.5439H170.978V14.7625ZM169.815 14.7625H169.002V14.5439H169.815V14.7625ZM168.653 14.7625H167.84V14.5439H168.653V14.7625ZM167.491 14.7625H166.677V14.5439H167.491V14.7625ZM166.329 14.7625H165.515V14.5439H166.329V14.7625ZM165.167 14.7625H164.354V14.5439H165.167V14.7625ZM164.005 14.7625H163.191V14.5439H164.005V14.7625ZM174.813 14.7625V14.5439H176.023V14.7625H174.813ZM176.196 14.3201H161V14.116H176.923V14.3201H176.196ZM179.74 16.005H178.248V14.3208H177.269V14.1166H177.472V13.7602H179.07V15.0577H178.412V15.8382H179.419V15.4419H179.07V15.6151H178.76V15.282H179.739L179.74 16.005ZM180.088 15.5424V15.0577H179.42V13.7602H180.507V15.5424H180.088ZM182.973 15.816C182.964 15.8167 182.954 15.8167 182.945 15.816V11.7082C182.954 11.7075 182.964 11.7075 182.973 11.7082C183.02 11.7082 183.064 11.7199 183.096 11.7407C183.129 11.7616 183.147 11.7899 183.147 11.8194V15.7086C183.146 15.7373 183.127 15.7646 183.095 15.7846C183.062 15.8046 183.019 15.8159 182.974 15.816H182.973ZM183.962 17.7644H183.148V17.2626H183.962V17.7644ZM183.962 11.0762H183.148V10.6736H183.962V11.0762ZM184.136 15.816C184.09 15.816 184.045 15.8043 184.013 15.7835C183.98 15.7626 183.962 15.7343 183.962 15.7048V11.8156C183.965 11.7875 183.985 11.7612 184.017 11.742C184.05 11.7228 184.092 11.7121 184.136 11.7121C184.18 11.7121 184.223 11.7228 184.255 11.742C184.288 11.7612 184.307 11.7875 184.311 11.8156V15.7048C184.311 15.7195 184.306 15.734 184.297 15.7475C184.289 15.7611 184.276 15.7733 184.259 15.7837C184.243 15.794 184.224 15.8022 184.203 15.8078C184.181 15.8133 184.159 15.8161 184.136 15.816ZM185.124 17.7644H184.311V17.2626H185.124V17.7644ZM185.124 11.0762H184.311V10.6736H185.124V11.0762ZM185.298 15.816C185.252 15.816 185.208 15.8043 185.175 15.7835C185.142 15.7626 185.124 15.7343 185.124 15.7048V11.8156C185.127 11.7875 185.147 11.7612 185.18 11.742C185.212 11.7228 185.254 11.7121 185.299 11.7121C185.343 11.7121 185.385 11.7228 185.418 11.742C185.45 11.7612 185.47 11.7875 185.473 11.8156V15.7048C185.473 15.7195 185.468 15.734 185.46 15.7475C185.451 15.7611 185.438 15.7733 185.422 15.7837C185.405 15.794 185.386 15.8022 185.365 15.8078C185.344 15.8133 185.321 15.8161 185.298 15.816ZM186.286 17.7644H185.472V17.2626H186.285L186.286 17.7644ZM186.286 11.0762H185.472V10.6736H186.285L186.286 11.0762ZM186.46 15.816C186.414 15.816 186.37 15.8043 186.337 15.7835C186.305 15.7626 186.286 15.7343 186.286 15.7048V11.8156C186.29 11.7875 186.31 11.7612 186.342 11.742C186.374 11.7228 186.417 11.7121 186.461 11.7121C186.505 11.7121 186.547 11.7228 186.58 11.742C186.612 11.7612 186.632 11.7875 186.635 11.8156V15.7048C186.635 15.7195 186.631 15.734 186.622 15.7475C186.613 15.7611 186.6 15.7733 186.584 15.7837C186.568 15.794 186.548 15.8022 186.527 15.8078C186.506 15.8133 186.483 15.8161 186.46 15.816ZM187.449 17.7644H186.635V17.2626H187.449V17.7644ZM187.449 11.0762H186.635V10.6736H187.449V11.0762ZM187.623 15.816C187.577 15.816 187.532 15.8043 187.5 15.7835C187.467 15.7626 187.449 15.7343 187.449 15.7048V11.8156C187.449 11.7861 187.467 11.7578 187.5 11.7369C187.532 11.7161 187.577 11.7044 187.623 11.7044C187.669 11.7044 187.713 11.7161 187.746 11.7369C187.778 11.7578 187.797 11.7861 187.797 11.8156V15.7048C187.797 15.7343 187.778 15.7626 187.746 15.7835C187.713 15.8043 187.669 15.816 187.623 15.816ZM188.611 17.7644H187.798V17.2626H188.611V17.7644ZM188.611 11.0762H187.798V10.6736H188.611V11.0762ZM188.786 15.816C188.763 15.8161 188.74 15.8133 188.719 15.8078C188.698 15.8022 188.679 15.794 188.662 15.7837C188.646 15.7733 188.633 15.7611 188.624 15.7475C188.616 15.734 188.611 15.7195 188.611 15.7048V11.8156C188.614 11.7875 188.634 11.7612 188.667 11.742C188.699 11.7228 188.741 11.7121 188.785 11.7121C188.83 11.7121 188.872 11.7228 188.904 11.742C188.937 11.7612 188.957 11.7875 188.96 11.8156V15.7048C188.96 15.7195 188.955 15.734 188.947 15.7475C188.938 15.7611 188.925 15.7733 188.909 15.7837C188.892 15.794 188.873 15.8022 188.852 15.8078C188.831 15.8133 188.808 15.8161 188.785 15.816H188.786ZM189.774 17.7644H188.961V17.2626H189.774V17.7644ZM189.774 11.0762H188.961V10.6736H189.774V11.0762ZM189.949 15.816C189.926 15.8161 189.904 15.8133 189.882 15.8078C189.861 15.8022 189.842 15.794 189.826 15.7837C189.809 15.7733 189.796 15.7611 189.788 15.7475C189.779 15.734 189.774 15.7195 189.774 15.7048V11.8156C189.778 11.7875 189.797 11.7612 189.83 11.742C189.862 11.7228 189.905 11.7121 189.949 11.7121C189.993 11.7121 190.035 11.7228 190.068 11.742C190.1 11.7612 190.12 11.7875 190.123 11.8156V15.7048C190.123 15.7195 190.119 15.7341 190.11 15.7477C190.101 15.7612 190.088 15.7736 190.072 15.7839C190.055 15.7943 190.036 15.8024 190.014 15.8079C189.993 15.8135 189.97 15.8162 189.947 15.816H189.949ZM190.938 17.7644H190.117V17.2626H190.931L190.938 17.7644ZM190.938 11.0762H190.117V10.6736H190.931L190.938 11.0762ZM191.113 15.816C191.09 15.8161 191.067 15.8133 191.046 15.8078C191.024 15.8022 191.005 15.794 190.989 15.7837C190.973 15.7733 190.96 15.7611 190.951 15.7475C190.942 15.734 190.938 15.7195 190.938 15.7048V11.8156C190.941 11.7875 190.961 11.7612 190.993 11.742C191.025 11.7228 191.068 11.7121 191.112 11.7121C191.156 11.7121 191.199 11.7228 191.231 11.742C191.263 11.7612 191.283 11.7875 191.287 11.8156V15.7048C191.287 15.7198 191.282 15.7346 191.273 15.7484C191.263 15.7622 191.25 15.7747 191.233 15.7851C191.216 15.7955 191.196 15.8036 191.174 15.8089C191.152 15.8142 191.129 15.8166 191.106 15.816H191.113ZM192.101 17.7644H191.288V17.2626H192.094L192.101 17.7644ZM192.101 11.0762H191.288V10.6736H192.094L192.101 11.0762ZM192.275 15.816C192.229 15.816 192.184 15.8043 192.152 15.7835C192.119 15.7626 192.101 15.7343 192.101 15.7048V12.3894C192.099 12.3741 192.102 12.3587 192.11 12.3441C192.118 12.3296 192.131 12.3163 192.147 12.305C192.163 12.2937 192.183 12.2847 192.205 12.2785C192.227 12.2724 192.251 12.2692 192.275 12.2692C192.299 12.2692 192.323 12.2724 192.345 12.2785C192.367 12.2847 192.387 12.2937 192.404 12.305C192.42 12.3163 192.433 12.3296 192.441 12.3441C192.448 12.3587 192.452 12.3741 192.45 12.3894V15.7048C192.45 15.7197 192.445 15.7344 192.436 15.7481C192.427 15.7618 192.414 15.7742 192.397 15.7846C192.38 15.795 192.361 15.8031 192.339 15.8085C192.317 15.8139 192.294 15.8165 192.271 15.816H192.275ZM193.399 17.7644H192.45V17.2626H193.399V17.7644ZM193.612 15.7048C193.609 15.7329 193.589 15.7592 193.557 15.7784C193.524 15.7976 193.482 15.8083 193.438 15.8083C193.394 15.8083 193.351 15.7976 193.319 15.7784C193.286 15.7592 193.267 15.7329 193.263 15.7048V13.0827C193.267 13.0546 193.286 13.0283 193.319 13.0091C193.351 12.9899 193.394 12.9793 193.438 12.9793C193.482 12.9793 193.524 12.9899 193.557 13.0091C193.589 13.0283 193.609 13.0546 193.612 13.0827V15.7048Z"/>
</mask>
<path d="M199.168 14.389C199.182 14.387 199.197 14.3842 199.211 14.3808C202.914 14.1798 204.912 13.1996 205 13.156L204.428 12.6877C204.277 12.7562 204.12 12.8195 203.958 12.8773V12.7016C203.953 12.6251 203.901 12.553 203.815 12.5001C203.728 12.4472 203.613 12.4177 203.493 12.4177C203.373 12.4177 203.258 12.4472 203.172 12.5001C203.085 12.553 203.034 12.6251 203.028 12.7016V13.175C202.85 13.2243 202.657 13.2748 202.447 13.3241V13.0271C202.45 12.9869 202.44 12.9467 202.418 12.9091C202.396 12.8714 202.362 12.8369 202.319 12.8078C202.275 12.7787 202.223 12.7555 202.165 12.7397C202.107 12.7239 202.045 12.7157 201.982 12.7157C201.919 12.7157 201.857 12.7239 201.799 12.7397C201.741 12.7555 201.689 12.7787 201.645 12.8078C201.602 12.8369 201.568 12.8714 201.546 12.9091C201.524 12.9467 201.514 12.9869 201.517 13.0271V13.515C201.354 13.5441 201.185 13.5717 201.009 13.5978V13.2748C201.003 13.1984 200.952 13.1262 200.865 13.0733C200.779 13.0204 200.664 12.9909 200.544 12.9909C200.424 12.9909 200.309 13.0204 200.222 13.0733C200.136 13.1262 200.084 13.1984 200.079 13.2748V13.7128C199.906 13.7299 199.729 13.7457 199.546 13.7596V13.4265C199.546 13.3477 199.497 13.2722 199.41 13.2165C199.323 13.1608 199.205 13.1295 199.082 13.1295C198.959 13.1295 198.84 13.1608 198.753 13.2165C198.666 13.2722 198.617 13.3477 198.617 13.4265V13.8057H198.533C195.64 13.886 193.87 12.3136 193.255 11.6519C193.201 11.5729 193.148 11.492 193.096 11.4086H193.501V11.068H192.446V10.6654H193.501V10.3248H188.213V9.47221H187.686C188.255 9.31076 188.807 9.12583 189.338 8.9186L191.457 8.0907V7.22362C191.457 7.22362 188.994 7.88594 186.279 7.73679C186.293 7.73515 186.308 7.73261 186.322 7.72921C190.024 7.52824 192.023 6.54804 192.111 6.50443L191.539 6.0355C191.388 6.10574 191.231 6.17031 191.069 6.22889V6.05509C191.064 5.9786 191.012 5.90641 190.926 5.85353C190.839 5.80065 190.724 5.77114 190.604 5.77114C190.484 5.77114 190.369 5.80065 190.283 5.85353C190.196 5.90641 190.145 5.9786 190.139 6.05509V6.52845C189.961 6.57774 189.767 6.6283 189.558 6.67759V6.38056C189.561 6.34036 189.551 6.3002 189.529 6.26251C189.507 6.22482 189.473 6.19038 189.43 6.16128C189.386 6.13217 189.334 6.109 189.276 6.09318C189.218 6.07735 189.156 6.06919 189.093 6.06919C189.03 6.06919 188.968 6.07735 188.91 6.09318C188.852 6.109 188.8 6.13217 188.756 6.16128C188.713 6.19038 188.679 6.22482 188.657 6.26251C188.635 6.3002 188.625 6.34036 188.628 6.38056V6.86845C188.464 6.89752 188.295 6.92512 188.12 6.95124V6.62388C188.123 6.58367 188.113 6.54351 188.091 6.50582C188.069 6.46813 188.035 6.43369 187.991 6.40459C187.948 6.37548 187.896 6.35232 187.838 6.33649C187.78 6.32066 187.718 6.3125 187.655 6.3125C187.592 6.3125 187.53 6.32066 187.472 6.33649C187.414 6.35232 187.362 6.37548 187.318 6.40459C187.275 6.43369 187.241 6.46813 187.219 6.50582C187.197 6.54351 187.187 6.58367 187.19 6.62388V7.06626C187.017 7.08396 186.84 7.09976 186.657 7.11366V6.78061C186.657 6.70183 186.608 6.62628 186.521 6.57057C186.434 6.51487 186.316 6.48358 186.193 6.48358C186.069 6.48358 185.951 6.51487 185.864 6.57057C185.777 6.62628 185.728 6.70183 185.728 6.78061V7.15979H185.644C182.754 7.23942 180.985 5.67211 180.368 5.01106C180.313 4.9308 180.258 4.84927 180.207 4.76522H180.612V4.42458H179.557V4.02201H180.612V3.68137H178.449V3.13976H176.209V2.01041H175.165V0.995454H172.531V2.22908H174.34V1.42836H173.205V1.65145H173.991V2.00599H172.879V1.21791H174.816V2.40288H172.194V0.995454H169.381V1.72476H169.174V0.872849H172.185V0.650391H165.725V0.872849H168.826V1.72286H168.519V0.995454H165.705V2.40288H163.082V1.21791H165.019V2.00599H163.908V1.65145H164.693V1.42836H163.56V2.22908H165.369V0.995454H162.74V2.01041H161.691V3.13787H159.45V3.67947H157.311V4.02011H158.292V4.42268H157.315V4.76332H157.72C157.667 4.84738 157.614 4.92954 157.559 5.00916C156.942 5.67274 155.173 7.24069 152.282 7.1579H152.199V6.77871C152.199 6.69993 152.15 6.62438 152.063 6.56868C151.976 6.51297 151.858 6.48168 151.734 6.48168C151.611 6.48168 151.493 6.51297 151.406 6.56868C151.319 6.62438 151.27 6.69993 151.27 6.77871V7.11176C151.087 7.09786 150.91 7.08206 150.737 7.06436V6.62388C150.74 6.58367 150.73 6.54351 150.708 6.50582C150.686 6.46813 150.652 6.43369 150.609 6.40459C150.565 6.37548 150.513 6.35232 150.455 6.33649C150.397 6.32066 150.335 6.3125 150.272 6.3125C150.209 6.3125 150.147 6.32066 150.089 6.33649C150.031 6.35232 149.979 6.37548 149.935 6.40459C149.892 6.43369 149.858 6.46813 149.836 6.50582C149.814 6.54351 149.804 6.58367 149.807 6.62388V6.94682C149.631 6.92112 149.461 6.89352 149.298 6.86403V6.37614C149.298 6.29736 149.249 6.22181 149.162 6.16611C149.075 6.1104 148.957 6.07911 148.834 6.07911C148.71 6.07911 148.592 6.1104 148.505 6.16611C148.418 6.22181 148.369 6.29736 148.369 6.37614V6.67317C148.158 6.62388 147.965 6.57332 147.788 6.52402V6.05509C147.782 5.9786 147.731 5.90641 147.644 5.85353C147.558 5.80065 147.443 5.77114 147.323 5.77114C147.203 5.77114 147.088 5.80065 147.001 5.85353C146.915 5.90641 146.863 5.9786 146.858 6.05509V6.23078C146.696 6.17311 146.54 6.10982 146.389 6.04119L145.816 6.50949C145.903 6.55309 147.901 7.5333 151.605 7.73427C151.619 7.73767 151.634 7.74021 151.648 7.74185C148.933 7.891 146.47 7.22868 146.47 7.22868V8.09576L148.588 8.92365C149.12 9.13089 149.672 9.31582 150.241 9.47727H149.792V10.338H144.505V10.6787H145.559V11.0812H144.5V11.4219H144.904C144.852 11.5053 144.799 11.5862 144.745 11.6652C144.13 12.3269 142.36 13.8992 139.467 13.819H139.384V13.4398C139.378 13.3633 139.327 13.2911 139.24 13.2382C139.154 13.1853 139.039 13.1558 138.919 13.1558C138.799 13.1558 138.684 13.1853 138.597 13.2382C138.511 13.2911 138.459 13.3633 138.454 13.4398V13.7653C138.271 13.7514 138.094 13.7356 137.921 13.7185V13.2805C137.916 13.204 137.864 13.1319 137.778 13.079C137.691 13.0261 137.576 12.9966 137.456 12.9966C137.336 12.9966 137.221 13.0261 137.135 13.079C137.048 13.1319 136.997 13.204 136.991 13.2805V13.6035C136.815 13.5778 136.646 13.5502 136.483 13.5207V13.0328C136.486 12.9926 136.476 12.9524 136.454 12.9147C136.432 12.8771 136.398 12.8426 136.355 12.8135C136.311 12.7844 136.259 12.7612 136.201 12.7454C136.143 12.7296 136.081 12.7214 136.018 12.7214C135.955 12.7214 135.893 12.7296 135.835 12.7454C135.777 12.7612 135.725 12.7844 135.681 12.8135C135.638 12.8426 135.604 12.8771 135.582 12.9147C135.56 12.9524 135.55 12.9926 135.553 13.0328V13.3298C135.343 13.2805 135.15 13.23 134.972 13.1807V12.7073C134.972 12.6285 134.923 12.553 134.836 12.4973C134.749 12.4416 134.63 12.4103 134.507 12.4103C134.384 12.4103 134.266 12.4416 134.179 12.4973C134.092 12.553 134.043 12.6285 134.043 12.7073V12.8805C133.881 12.8226 133.724 12.7593 133.572 12.6909L133 13.1592C133.088 13.2028 135.086 14.183 138.789 14.384C138.803 14.3873 138.818 14.39 138.832 14.3922C136.117 14.5407 133.655 13.8784 133.655 13.8784V14.7455L135.772 15.5734C138.036 16.4574 140.637 16.9251 143.289 16.9252H141.254V17.2652H142.165V27.2808H141.816V27.9216H141.313V29.3948H145.456V27.9216H144.954V27.2764H144.605V18.1051H154.976V27.332H154.627V27.9772H154.125V29.4498H158.268V27.9772H157.765V27.332H157.417V15.7667H157.834V16.23H160.022V14.5439H161.554V15.2062H160.672V14.9534H160.943V15.0526H161.292V14.7309H160.323V15.4305H161.905V14.9881H176.025V15.4305H177.607V14.7297H176.638V15.0513H176.986V14.9521H177.258V15.2049H176.376V14.5439H177.906V16.23H180.095V15.7674H180.511V27.3326H180.163V27.9779H179.66V29.4504H183.804V27.9779H183.298V27.3326H182.949V18.1057H193.398V27.2789H193.049V27.9216H192.547V29.3948H196.69V27.9216H196.187V27.2764H195.839V17.2626H196.749V16.9252H194.714C197.365 16.9244 199.964 16.4564 202.226 15.5727L204.344 14.7448V13.8752C204.344 13.8752 201.879 14.5375 199.168 14.389ZM178.61 13.4196V12.8615H179.413V13.0511H179.191V12.9595H178.842V13.2755H179.762V13.1206H180.507V13.4221L178.61 13.4196ZM157.419 13.4196V13.1181H158.21V13.2729H159.129V12.957H158.786V13.0486H158.564V12.859H159.368V13.417L157.419 13.4196ZM154.85 10.6736V11.0762H154.042V10.6736H154.85ZM160.611 4.02201V4.42458H159.797V4.02201H160.611ZM178.394 11.1109V10.6091H179.208V11.1109H178.394ZM179.76 12.2106V11.978H180.505V12.8931H179.76V12.6372H179.179V12.2106H179.76ZM178.83 12.6372H178.257V12.8931H177.472V11.9799H178.257V12.2125H178.828L178.83 12.6372ZM159.141 12.6372V12.2106H159.712V11.978H160.449V12.8931H159.712V12.6372H159.141ZM158.212 12.6372V12.8931H157.421V11.9799H158.212V12.2125H158.793V12.6391L158.212 12.6372ZM177.232 11.1109V10.6091H178.045V11.1109H177.232ZM176.883 11.1109H176.07V10.6091H176.883V11.1109ZM175.721 11.1109H174.907V10.6091H175.721V11.1109ZM174.56 11.1109H173.745V10.6091H174.56V11.1109ZM173.397 11.1109H172.584V10.6091H173.397V11.1109ZM172.235 11.1109H171.421V10.6091H172.235V11.1109ZM171.073 11.1109H170.259V10.6091H171.073V11.1109ZM169.91 11.1109H169.097V10.6091H169.91V11.1109ZM168.748 11.1109H167.935V10.6091H168.748V11.1109ZM167.583 11.1109H166.769V10.6091H167.583V11.1109ZM166.42 11.1109H165.606V10.6091H166.419L166.42 11.1109ZM165.259 11.1109H164.446V10.6091H165.259V11.1109ZM164.097 11.1109H163.283V10.6091H164.097V11.1109ZM162.937 11.1109H162.124V10.6091H162.937V11.1109ZM161.775 11.1109H160.961V10.6091H161.774L161.775 11.1109ZM160.613 11.1109H159.799V10.6091H160.613V11.1109ZM159.45 11.1109H158.637V10.6091H159.45V11.1109ZM158.292 11.1109H157.421V10.6091H158.292V11.1109ZM159.368 11.4516V11.9881H158.564V11.7985H158.786V11.8902H159.135V11.5742H158.216V11.7524H157.425V11.449L159.368 11.4516ZM160.456 11.7549H159.719V11.4516H160.456V11.7549ZM178.266 11.7549H177.481V11.4516H178.257L178.266 11.7549ZM167.935 5.164V9.05321C167.931 9.08134 167.911 9.10764 167.879 9.12682C167.847 9.14601 167.804 9.15667 167.76 9.15667C167.716 9.15667 167.673 9.14601 167.641 9.12682C167.609 9.10764 167.589 9.08134 167.586 9.05321V5.164C167.589 5.13587 167.609 5.10957 167.641 5.09039C167.673 5.0712 167.716 5.06054 167.76 5.06054C167.804 5.06054 167.847 5.0712 167.879 5.09039C167.911 5.10957 167.931 5.13587 167.935 5.164ZM166.772 5.164V9.05321C166.769 9.08134 166.749 9.10764 166.717 9.12682C166.684 9.14601 166.642 9.15667 166.598 9.15667C166.554 9.15667 166.511 9.14601 166.479 9.12682C166.446 9.10764 166.427 9.08134 166.423 9.05321V5.164C166.427 5.13587 166.446 5.10957 166.479 5.09039C166.511 5.0712 166.554 5.06054 166.598 5.06054C166.642 5.06054 166.684 5.0712 166.717 5.09039C166.749 5.10957 166.769 5.13587 166.772 5.164ZM165.61 5.164V9.05321C165.61 9.08271 165.592 9.111 165.559 9.13186C165.526 9.15272 165.482 9.16444 165.436 9.16444C165.39 9.16444 165.346 9.15272 165.313 9.13186C165.28 9.111 165.262 9.08271 165.262 9.05321V5.164C165.262 5.1345 165.28 5.10621 165.313 5.08535C165.346 5.06449 165.39 5.05277 165.436 5.05277C165.482 5.05277 165.526 5.06449 165.559 5.08535C165.592 5.10621 165.61 5.1345 165.61 5.164ZM164.449 5.164V9.05321C164.445 9.08134 164.425 9.10764 164.393 9.12682C164.361 9.14601 164.318 9.15667 164.274 9.15667C164.23 9.15667 164.188 9.14601 164.155 9.12682C164.123 9.10764 164.103 9.08134 164.1 9.05321V5.164C164.103 5.13587 164.123 5.10957 164.155 5.09039C164.188 5.0712 164.23 5.06054 164.274 5.06054C164.318 5.06054 164.361 5.0712 164.393 5.09039C164.425 5.10957 164.445 5.13587 164.449 5.164ZM163.286 5.164V9.05321C163.283 9.08134 163.263 9.10764 163.231 9.12682C163.198 9.14601 163.156 9.15667 163.112 9.15667C163.068 9.15667 163.025 9.14601 162.993 9.12682C162.961 9.10764 162.941 9.08134 162.937 9.05321V5.164C162.941 5.13587 162.961 5.10957 162.993 5.09039C163.025 5.0712 163.068 5.06054 163.112 5.06054C163.156 5.06054 163.198 5.0712 163.231 5.09039C163.263 5.10957 163.283 5.13587 163.286 5.164ZM162.124 5.164V9.05321C162.121 9.08134 162.101 9.10764 162.069 9.12682C162.036 9.14601 161.994 9.15667 161.95 9.15667C161.905 9.15667 161.863 9.14601 161.831 9.12682C161.798 9.10764 161.778 9.08134 161.775 9.05321V5.164C161.778 5.13587 161.798 5.10957 161.831 5.09039C161.863 5.0712 161.905 5.06054 161.95 5.06054C161.994 5.06054 162.036 5.0712 162.069 5.09039C162.101 5.10957 162.121 5.13587 162.124 5.164ZM160.962 5.164V9.05321C160.958 9.08134 160.939 9.10764 160.906 9.12682C160.874 9.14601 160.831 9.15667 160.787 9.15667C160.743 9.15667 160.701 9.14601 160.668 9.12682C160.636 9.10764 160.616 9.08134 160.613 9.05321V5.164C160.616 5.13587 160.636 5.10957 160.668 5.09039C160.701 5.0712 160.743 5.06054 160.787 5.06054C160.831 5.06054 160.874 5.0712 160.906 5.09039C160.939 5.10957 160.958 5.13587 160.962 5.164ZM159.799 5.164V9.05321C159.796 9.08134 159.776 9.10764 159.744 9.12682C159.712 9.14601 159.669 9.15667 159.625 9.15667C159.581 9.15667 159.538 9.14601 159.506 9.12682C159.474 9.10764 159.454 9.08134 159.45 9.05321V5.164C159.454 5.13587 159.474 5.10957 159.506 5.09039C159.538 5.0712 159.581 5.06054 159.625 5.06054C159.669 5.06054 159.712 5.0712 159.744 5.09039C159.776 5.10957 159.796 5.13587 159.799 5.164ZM179.382 5.62598C179.428 5.62598 179.473 5.63776 179.505 5.65874C179.538 5.67972 179.557 5.70817 179.557 5.73784V9.05321C179.553 9.08134 179.534 9.10764 179.501 9.12682C179.469 9.14601 179.426 9.15667 179.382 9.15667C179.338 9.15667 179.296 9.14601 179.263 9.12682C179.231 9.10764 179.211 9.08134 179.208 9.05321V5.7391C179.207 5.72434 179.212 5.70967 179.22 5.69595C179.229 5.68224 179.241 5.66975 179.258 5.65922C179.274 5.64869 179.293 5.64033 179.314 5.63462C179.336 5.62891 179.359 5.62598 179.382 5.62598ZM178.393 5.164V9.05321C178.39 9.08134 178.37 9.10764 178.338 9.12682C178.306 9.14601 178.263 9.15667 178.219 9.15667C178.175 9.15667 178.132 9.14601 178.1 9.12682C178.068 9.10764 178.048 9.08134 178.044 9.05321V5.164C178.048 5.13587 178.068 5.10957 178.1 5.09039C178.132 5.0712 178.175 5.06054 178.219 5.06054C178.263 5.06054 178.306 5.0712 178.338 5.09039C178.37 5.10957 178.39 5.13587 178.393 5.164ZM177.231 5.164V9.05321C177.228 9.08134 177.208 9.10764 177.176 9.12682C177.143 9.14601 177.101 9.15667 177.057 9.15667C177.012 9.15667 176.97 9.14601 176.938 9.12682C176.905 9.10764 176.885 9.08134 176.882 9.05321V5.164C176.885 5.13587 176.905 5.10957 176.938 5.09039C176.97 5.0712 177.012 5.06054 177.057 5.06054C177.101 5.06054 177.143 5.0712 177.176 5.09039C177.208 5.10957 177.228 5.13587 177.231 5.164ZM176.069 5.164V9.05321C176.065 9.08134 176.046 9.10764 176.013 9.12682C175.981 9.14601 175.938 9.15667 175.894 9.15667C175.85 9.15667 175.808 9.14601 175.775 9.12682C175.743 9.10764 175.723 9.08134 175.72 9.05321V5.164C175.723 5.13587 175.743 5.10957 175.775 5.09039C175.808 5.0712 175.85 5.06054 175.894 5.06054C175.938 5.06054 175.981 5.0712 176.013 5.09039C176.046 5.10957 176.065 5.13587 176.069 5.164ZM174.906 5.164V9.05321C174.906 9.08271 174.888 9.111 174.855 9.13186C174.823 9.15272 174.779 9.16444 174.732 9.16444C174.686 9.16444 174.642 9.15272 174.609 9.13186C174.577 9.111 174.559 9.08271 174.559 9.05321V5.164C174.559 5.1345 174.577 5.10621 174.609 5.08535C174.642 5.06449 174.686 5.05277 174.732 5.05277C174.779 5.05277 174.823 5.06449 174.855 5.08535C174.888 5.10621 174.906 5.1345 174.906 5.164ZM173.744 5.164V9.05321C173.744 9.08271 173.726 9.111 173.693 9.13186C173.661 9.15272 173.616 9.16444 173.57 9.16444C173.524 9.16444 173.48 9.15272 173.447 9.13186C173.415 9.111 173.396 9.08271 173.396 9.05321V5.164C173.396 5.1345 173.415 5.10621 173.447 5.08535C173.48 5.06449 173.524 5.05277 173.57 5.05277C173.616 5.05277 173.661 5.06449 173.693 5.08535C173.726 5.10621 173.744 5.1345 173.744 5.164ZM172.583 5.164V9.05321C172.579 9.08134 172.56 9.10764 172.527 9.12682C172.495 9.14601 172.452 9.15667 172.408 9.15667C172.364 9.15667 172.322 9.14601 172.289 9.12682C172.257 9.10764 172.237 9.08134 172.234 9.05321V5.164C172.237 5.13587 172.257 5.10957 172.289 5.09039C172.322 5.0712 172.364 5.06054 172.408 5.06054C172.452 5.06054 172.495 5.0712 172.527 5.09039C172.56 5.10957 172.579 5.13587 172.583 5.164ZM171.42 5.164V9.05321C171.417 9.08134 171.397 9.10764 171.365 9.12682C171.333 9.14601 171.29 9.15667 171.246 9.15667C171.202 9.15667 171.159 9.14601 171.127 9.12682C171.095 9.10764 171.075 9.08134 171.072 9.05321V5.164C171.075 5.13587 171.095 5.10957 171.127 5.09039C171.159 5.0712 171.202 5.06054 171.246 5.06054C171.29 5.06054 171.333 5.0712 171.365 5.09039C171.397 5.10957 171.417 5.13587 171.42 5.164ZM170.258 5.164V9.05321C170.255 9.08134 170.235 9.10764 170.203 9.12682C170.17 9.14601 170.128 9.15667 170.084 9.15667C170.04 9.15667 169.997 9.14601 169.965 9.12682C169.932 9.10764 169.913 9.08134 169.909 9.05321V5.164C169.913 5.13587 169.932 5.10957 169.965 5.09039C169.997 5.0712 170.04 5.06054 170.084 5.06054C170.128 5.06054 170.17 5.0712 170.203 5.09039C170.235 5.10957 170.255 5.13587 170.258 5.164ZM168.747 5.164C168.75 5.13587 168.77 5.10957 168.802 5.09039C168.835 5.0712 168.877 5.06054 168.921 5.06054C168.966 5.06054 169.008 5.0712 169.04 5.09039C169.073 5.10957 169.093 5.13587 169.096 5.164V9.05321C169.093 9.08134 169.073 9.10764 169.04 9.12682C169.008 9.14601 168.966 9.15667 168.921 9.15667C168.877 9.15667 168.835 9.14601 168.802 9.12682C168.77 9.10764 168.75 9.08134 168.747 9.05321V5.164ZM180.369 9.05321V6.43428C180.372 6.40615 180.392 6.37985 180.425 6.36067C180.457 6.34148 180.499 6.33082 180.544 6.33082C180.588 6.33082 180.63 6.34148 180.663 6.36067C180.695 6.37985 180.715 6.40615 180.718 6.43428V9.05637C180.715 9.0845 180.695 9.1108 180.663 9.12998C180.63 9.14917 180.588 9.15983 180.544 9.15983C180.499 9.15983 180.457 9.14917 180.425 9.12998C180.392 9.1108 180.372 9.0845 180.369 9.05637V9.05321ZM164.099 4.02201V4.42458H163.285V4.02201H164.099ZM164.448 4.02201H165.261V4.42458H164.448V4.02201ZM165.609 4.02201H166.422V4.42458H165.606L165.609 4.02201ZM166.771 4.02201H167.583V4.42458H166.769L166.771 4.02201ZM167.934 4.02201H168.747V4.42458H167.934V4.02201ZM173.744 4.42458V4.02201H174.559V4.42458H173.744ZM173.396 4.42458H172.583V4.02201H173.396V4.42458ZM172.234 4.42458H171.42V4.02201H172.234V4.42458ZM171.072 4.42458H170.258V4.02201H171.072V4.42458ZM169.909 4.42458H169.096V4.02201H169.909V4.42458ZM177.231 4.42458V4.02201H178.044V4.42458H177.231ZM176.882 4.42458H176.069V4.02201H176.882V4.42458ZM175.72 4.42458H174.906V4.02201H175.72V4.42458ZM162.936 4.42458H162.123V4.02201H162.937L162.936 4.42458ZM161.774 4.42458H160.961V4.02201H161.774V4.42458ZM158.637 5.7391V9.05447C158.634 9.08261 158.614 9.1089 158.582 9.12808C158.549 9.14727 158.507 9.15793 158.463 9.15793C158.418 9.15793 158.376 9.14727 158.344 9.12808C158.311 9.1089 158.291 9.08261 158.288 9.05447V5.7391C158.286 5.72375 158.29 5.70832 158.297 5.69379C158.305 5.67925 158.318 5.66592 158.334 5.65463C158.351 5.64334 158.371 5.63434 158.393 5.62818C158.415 5.62202 158.439 5.61884 158.463 5.61884C158.487 5.61884 158.511 5.62202 158.533 5.62818C158.555 5.63434 158.574 5.64334 158.591 5.65463C158.607 5.66592 158.62 5.67925 158.628 5.69379C158.636 5.70832 158.639 5.72375 158.637 5.7391ZM157.475 6.43428V9.05637C157.475 9.08587 157.456 9.11416 157.424 9.13502C157.391 9.15588 157.347 9.1676 157.301 9.1676C157.255 9.1676 157.21 9.15588 157.178 9.13502C157.145 9.11416 157.127 9.08587 157.127 9.05637V6.43428C157.127 6.40478 157.145 6.37649 157.178 6.35563C157.21 6.33477 157.255 6.32305 157.301 6.32305C157.347 6.32305 157.391 6.33477 157.424 6.35563C157.456 6.37649 157.475 6.40478 157.475 6.43428ZM159.712 13.1213H160.449V13.4227H159.712V13.1213ZM177.474 13.1213H178.257V13.4227H177.472L177.474 13.1213ZM180.505 11.76H179.76V11.5786H178.84V11.8946H179.189V11.803H179.411V11.9926H178.608V11.456H180.505V11.76ZM180.505 11.116H179.557V10.6142H180.505V11.116ZM179.208 4.42458H178.394V4.02201H179.208V4.42458ZM175.165 2.62596V2.23477H175.857V3.36286H178.098V3.67885H175.321V2.82061H173.758V2.62596H175.165ZM169.381 1.94722V2.62533H171.272V1.41635H169.934V2.05718H170.283V1.63944H170.924V2.40288H169.729V1.21791H171.845V2.62596H173.414V2.82061H169.174V1.94722H169.381ZM166.054 2.62533V1.21791H168.176V2.40288H166.981V1.63944H167.622V2.05718H167.97V1.41635H166.632V2.62596H168.524V1.94722H168.831V2.81998H164.493V2.62533H166.054ZM159.799 3.36286H162.04V2.23477H162.732V2.62596H164.136V2.82061H162.674V3.68137H159.799V3.36286ZM158.637 4.02201H159.45V4.42458H158.637V4.02201ZM153.689 10.6736V11.0762H152.876V10.6736H153.689ZM152.527 10.6736V11.0762H151.714V10.6736H152.527ZM151.366 10.6736V11.0762H150.552V10.6736H151.366ZM149.389 10.6736H150.202V11.0762H149.389V10.6736ZM148.227 10.6736H149.04V11.0762H148.227V10.6736ZM147.064 10.6736H147.878V11.0762H147.064V10.6736ZM145.902 10.6736H146.715V11.0762H145.902V10.6736ZM144.566 15.816C144.543 15.8161 144.52 15.8133 144.499 15.8078C144.478 15.8022 144.458 15.794 144.442 15.7837C144.426 15.7733 144.413 15.7611 144.404 15.7475C144.395 15.734 144.391 15.7195 144.391 15.7048V13.0827C144.394 13.0546 144.414 13.0283 144.446 13.0091C144.479 12.9899 144.521 12.9793 144.565 12.9793C144.609 12.9793 144.652 12.9899 144.684 13.0091C144.717 13.0283 144.736 13.0546 144.74 13.0827V15.7048C144.74 15.7342 144.722 15.7624 144.689 15.7832C144.657 15.8041 144.613 15.8159 144.567 15.816H144.566ZM145.554 17.7644H144.605V17.2626H145.554V17.7644ZM145.903 15.7048C145.9 15.7329 145.88 15.7592 145.848 15.7784C145.815 15.7976 145.773 15.8083 145.729 15.8083C145.684 15.8083 145.642 15.7976 145.61 15.7784C145.577 15.7592 145.557 15.7329 145.554 15.7048V12.3894C145.552 12.3741 145.556 12.3587 145.563 12.3441C145.571 12.3296 145.584 12.3163 145.6 12.305C145.617 12.2937 145.637 12.2847 145.659 12.2785C145.681 12.2724 145.705 12.2692 145.729 12.2692C145.753 12.2692 145.776 12.2724 145.799 12.2785C145.821 12.2847 145.84 12.2937 145.857 12.305C145.873 12.3163 145.886 12.3296 145.894 12.3441C145.902 12.3587 145.905 12.3741 145.903 12.3894V15.7048ZM146.716 17.7644H145.903V17.2626H146.716V17.7644ZM147.065 15.7048C147.062 15.7329 147.042 15.7592 147.01 15.7784C146.978 15.7976 146.935 15.8083 146.891 15.8083C146.847 15.8083 146.804 15.7976 146.772 15.7784C146.74 15.7592 146.72 15.7329 146.716 15.7048V11.8156C146.72 11.7875 146.74 11.7612 146.772 11.742C146.804 11.7228 146.847 11.7121 146.891 11.7121C146.935 11.7121 146.978 11.7228 147.01 11.742C147.042 11.7612 147.062 11.7875 147.065 11.8156V15.7048ZM147.879 17.7644H147.065V17.2626H147.879V17.7644ZM148.228 15.7048C148.224 15.7329 148.205 15.7592 148.172 15.7784C148.14 15.7976 148.097 15.8083 148.053 15.8083C148.009 15.8083 147.967 15.7976 147.934 15.7784C147.902 15.7592 147.882 15.7329 147.879 15.7048V11.8156C147.882 11.7875 147.902 11.7612 147.934 11.742C147.967 11.7228 148.009 11.7121 148.053 11.7121C148.097 11.7121 148.14 11.7228 148.172 11.742C148.205 11.7612 148.224 11.7875 148.228 11.8156V15.7048ZM149.041 17.7644H148.228V17.2626H149.041V17.7644ZM149.39 15.7048C149.387 15.7329 149.367 15.7592 149.334 15.7784C149.302 15.7976 149.26 15.8083 149.216 15.8083C149.171 15.8083 149.129 15.7976 149.097 15.7784C149.064 15.7592 149.044 15.7329 149.041 15.7048V11.8156C149.044 11.7875 149.064 11.7612 149.097 11.742C149.129 11.7228 149.171 11.7121 149.216 11.7121C149.26 11.7121 149.302 11.7228 149.334 11.742C149.367 11.7612 149.387 11.7875 149.39 11.8156V15.7048ZM150.203 17.7644H149.39V17.2626H150.203V17.7644ZM150.552 15.7048C150.549 15.7329 150.529 15.7592 150.497 15.7784C150.464 15.7976 150.422 15.8083 150.378 15.8083C150.334 15.8083 150.291 15.7976 150.259 15.7784C150.227 15.7592 150.207 15.7329 150.203 15.7048V11.8156C150.207 11.7875 150.227 11.7612 150.259 11.742C150.291 11.7228 150.334 11.7121 150.378 11.7121C150.422 11.7121 150.464 11.7228 150.497 11.742C150.529 11.7612 150.549 11.7875 150.552 11.8156V15.7048ZM151.366 17.7644H150.552V17.2626H151.366V17.7644ZM151.714 15.7048C151.714 15.7343 151.695 15.7626 151.663 15.7835C151.63 15.8043 151.586 15.816 151.54 15.816C151.494 15.816 151.449 15.8043 151.417 15.7835C151.384 15.7626 151.366 15.7343 151.366 15.7048V11.8156C151.366 11.7861 151.384 11.7578 151.417 11.7369C151.449 11.7161 151.494 11.7044 151.54 11.7044C151.586 11.7044 151.63 11.7161 151.663 11.7369C151.695 11.7578 151.714 11.7861 151.714 11.8156V15.7048ZM152.527 17.7644H151.714V17.2626H152.527V17.7644ZM152.876 15.7048C152.873 15.7329 152.853 15.7592 152.82 15.7784C152.788 15.7976 152.746 15.8083 152.701 15.8083C152.657 15.8083 152.615 15.7976 152.582 15.7784C152.55 15.7592 152.53 15.7329 152.527 15.7048V11.8156C152.53 11.7875 152.55 11.7612 152.582 11.742C152.615 11.7228 152.657 11.7121 152.701 11.7121C152.746 11.7121 152.788 11.7228 152.82 11.742C152.853 11.7612 152.873 11.7875 152.876 11.8156V15.7048ZM153.689 17.7644H152.876V17.2626H153.689V17.7644ZM154.042 15.7048C154.039 15.7329 154.019 15.7592 153.987 15.7784C153.954 15.7976 153.912 15.8083 153.868 15.8083C153.824 15.8083 153.781 15.7976 153.749 15.7784C153.716 15.7592 153.697 15.7329 153.693 15.7048V11.8156C153.697 11.7875 153.716 11.7612 153.749 11.742C153.781 11.7228 153.824 11.7121 153.868 11.7121C153.912 11.7121 153.954 11.7228 153.987 11.742C154.019 11.7612 154.039 11.7875 154.042 11.8156V15.7048ZM154.856 17.7644H154.042V17.2626H154.856V17.7644ZM154.856 15.7048V11.8156C154.856 11.7917 154.868 11.7685 154.89 11.7493C154.913 11.7302 154.944 11.7162 154.98 11.7094V15.811C154.944 15.8047 154.911 15.7909 154.888 15.7717C154.865 15.7525 154.852 15.729 154.852 15.7048H154.856ZM157.425 15.5424V13.7602H158.513V15.0577H157.844V15.5424H157.425ZM159.676 14.3208V16.005H158.182V15.282H159.16V15.6163H158.851V15.4432H158.502V15.8394H159.509V15.0577H158.851V13.7602H160.449V14.1166H160.646V14.3208H159.676ZM161.903 14.5439H162.839V14.7625H161.899L161.903 14.5439ZM174.465 14.5439V14.7625H173.651V14.5439H174.465ZM173.302 14.7625H172.489V14.5439H173.302V14.7625ZM172.14 14.7625H171.327V14.5439H172.14V14.7625ZM170.978 14.7625H170.164V14.5439H170.978V14.7625ZM169.815 14.7625H169.002V14.5439H169.815V14.7625ZM168.653 14.7625H167.84V14.5439H168.653V14.7625ZM167.491 14.7625H166.677V14.5439H167.491V14.7625ZM166.329 14.7625H165.515V14.5439H166.329V14.7625ZM165.167 14.7625H164.354V14.5439H165.167V14.7625ZM164.005 14.7625H163.191V14.5439H164.005V14.7625ZM174.813 14.7625V14.5439H176.023V14.7625H174.813ZM176.196 14.3201H161V14.116H176.923V14.3201H176.196ZM179.74 16.005H178.248V14.3208H177.269V14.1166H177.472V13.7602H179.07V15.0577H178.412V15.8382H179.419V15.4419H179.07V15.6151H178.76V15.282H179.739L179.74 16.005ZM180.088 15.5424V15.0577H179.42V13.7602H180.507V15.5424H180.088ZM182.973 15.816C182.964 15.8167 182.954 15.8167 182.945 15.816V11.7082C182.954 11.7075 182.964 11.7075 182.973 11.7082C183.02 11.7082 183.064 11.7199 183.096 11.7407C183.129 11.7616 183.147 11.7899 183.147 11.8194V15.7086C183.146 15.7373 183.127 15.7646 183.095 15.7846C183.062 15.8046 183.019 15.8159 182.974 15.816H182.973ZM183.962 17.7644H183.148V17.2626H183.962V17.7644ZM183.962 11.0762H183.148V10.6736H183.962V11.0762ZM184.136 15.816C184.09 15.816 184.045 15.8043 184.013 15.7835C183.98 15.7626 183.962 15.7343 183.962 15.7048V11.8156C183.965 11.7875 183.985 11.7612 184.017 11.742C184.05 11.7228 184.092 11.7121 184.136 11.7121C184.18 11.7121 184.223 11.7228 184.255 11.742C184.288 11.7612 184.307 11.7875 184.311 11.8156V15.7048C184.311 15.7195 184.306 15.734 184.297 15.7475C184.289 15.7611 184.276 15.7733 184.259 15.7837C184.243 15.794 184.224 15.8022 184.203 15.8078C184.181 15.8133 184.159 15.8161 184.136 15.816ZM185.124 17.7644H184.311V17.2626H185.124V17.7644ZM185.124 11.0762H184.311V10.6736H185.124V11.0762ZM185.298 15.816C185.252 15.816 185.208 15.8043 185.175 15.7835C185.142 15.7626 185.124 15.7343 185.124 15.7048V11.8156C185.127 11.7875 185.147 11.7612 185.18 11.742C185.212 11.7228 185.254 11.7121 185.299 11.7121C185.343 11.7121 185.385 11.7228 185.418 11.742C185.45 11.7612 185.47 11.7875 185.473 11.8156V15.7048C185.473 15.7195 185.468 15.734 185.46 15.7475C185.451 15.7611 185.438 15.7733 185.422 15.7837C185.405 15.794 185.386 15.8022 185.365 15.8078C185.344 15.8133 185.321 15.8161 185.298 15.816ZM186.286 17.7644H185.472V17.2626H186.285L186.286 17.7644ZM186.286 11.0762H185.472V10.6736H186.285L186.286 11.0762ZM186.46 15.816C186.414 15.816 186.37 15.8043 186.337 15.7835C186.305 15.7626 186.286 15.7343 186.286 15.7048V11.8156C186.29 11.7875 186.31 11.7612 186.342 11.742C186.374 11.7228 186.417 11.7121 186.461 11.7121C186.505 11.7121 186.547 11.7228 186.58 11.742C186.612 11.7612 186.632 11.7875 186.635 11.8156V15.7048C186.635 15.7195 186.631 15.734 186.622 15.7475C186.613 15.7611 186.6 15.7733 186.584 15.7837C186.568 15.794 186.548 15.8022 186.527 15.8078C186.506 15.8133 186.483 15.8161 186.46 15.816ZM187.449 17.7644H186.635V17.2626H187.449V17.7644ZM187.449 11.0762H186.635V10.6736H187.449V11.0762ZM187.623 15.816C187.577 15.816 187.532 15.8043 187.5 15.7835C187.467 15.7626 187.449 15.7343 187.449 15.7048V11.8156C187.449 11.7861 187.467 11.7578 187.5 11.7369C187.532 11.7161 187.577 11.7044 187.623 11.7044C187.669 11.7044 187.713 11.7161 187.746 11.7369C187.778 11.7578 187.797 11.7861 187.797 11.8156V15.7048C187.797 15.7343 187.778 15.7626 187.746 15.7835C187.713 15.8043 187.669 15.816 187.623 15.816ZM188.611 17.7644H187.798V17.2626H188.611V17.7644ZM188.611 11.0762H187.798V10.6736H188.611V11.0762ZM188.786 15.816C188.763 15.8161 188.74 15.8133 188.719 15.8078C188.698 15.8022 188.679 15.794 188.662 15.7837C188.646 15.7733 188.633 15.7611 188.624 15.7475C188.616 15.734 188.611 15.7195 188.611 15.7048V11.8156C188.614 11.7875 188.634 11.7612 188.667 11.742C188.699 11.7228 188.741 11.7121 188.785 11.7121C188.83 11.7121 188.872 11.7228 188.904 11.742C188.937 11.7612 188.957 11.7875 188.96 11.8156V15.7048C188.96 15.7195 188.955 15.734 188.947 15.7475C188.938 15.7611 188.925 15.7733 188.909 15.7837C188.892 15.794 188.873 15.8022 188.852 15.8078C188.831 15.8133 188.808 15.8161 188.785 15.816H188.786ZM189.774 17.7644H188.961V17.2626H189.774V17.7644ZM189.774 11.0762H188.961V10.6736H189.774V11.0762ZM189.949 15.816C189.926 15.8161 189.904 15.8133 189.882 15.8078C189.861 15.8022 189.842 15.794 189.826 15.7837C189.809 15.7733 189.796 15.7611 189.788 15.7475C189.779 15.734 189.774 15.7195 189.774 15.7048V11.8156C189.778 11.7875 189.797 11.7612 189.83 11.742C189.862 11.7228 189.905 11.7121 189.949 11.7121C189.993 11.7121 190.035 11.7228 190.068 11.742C190.1 11.7612 190.12 11.7875 190.123 11.8156V15.7048C190.123 15.7195 190.119 15.7341 190.11 15.7477C190.101 15.7612 190.088 15.7736 190.072 15.7839C190.055 15.7943 190.036 15.8024 190.014 15.8079C189.993 15.8135 189.97 15.8162 189.947 15.816H189.949ZM190.938 17.7644H190.117V17.2626H190.931L190.938 17.7644ZM190.938 11.0762H190.117V10.6736H190.931L190.938 11.0762ZM191.113 15.816C191.09 15.8161 191.067 15.8133 191.046 15.8078C191.024 15.8022 191.005 15.794 190.989 15.7837C190.973 15.7733 190.96 15.7611 190.951 15.7475C190.942 15.734 190.938 15.7195 190.938 15.7048V11.8156C190.941 11.7875 190.961 11.7612 190.993 11.742C191.025 11.7228 191.068 11.7121 191.112 11.7121C191.156 11.7121 191.199 11.7228 191.231 11.742C191.263 11.7612 191.283 11.7875 191.287 11.8156V15.7048C191.287 15.7198 191.282 15.7346 191.273 15.7484C191.263 15.7622 191.25 15.7747 191.233 15.7851C191.216 15.7955 191.196 15.8036 191.174 15.8089C191.152 15.8142 191.129 15.8166 191.106 15.816H191.113ZM192.101 17.7644H191.288V17.2626H192.094L192.101 17.7644ZM192.101 11.0762H191.288V10.6736H192.094L192.101 11.0762ZM192.275 15.816C192.229 15.816 192.184 15.8043 192.152 15.7835C192.119 15.7626 192.101 15.7343 192.101 15.7048V12.3894C192.099 12.3741 192.102 12.3587 192.11 12.3441C192.118 12.3296 192.131 12.3163 192.147 12.305C192.163 12.2937 192.183 12.2847 192.205 12.2785C192.227 12.2724 192.251 12.2692 192.275 12.2692C192.299 12.2692 192.323 12.2724 192.345 12.2785C192.367 12.2847 192.387 12.2937 192.404 12.305C192.42 12.3163 192.433 12.3296 192.441 12.3441C192.448 12.3587 192.452 12.3741 192.45 12.3894V15.7048C192.45 15.7197 192.445 15.7344 192.436 15.7481C192.427 15.7618 192.414 15.7742 192.397 15.7846C192.38 15.795 192.361 15.8031 192.339 15.8085C192.317 15.8139 192.294 15.8165 192.271 15.816H192.275ZM193.399 17.7644H192.45V17.2626H193.399V17.7644ZM193.612 15.7048C193.609 15.7329 193.589 15.7592 193.557 15.7784C193.524 15.7976 193.482 15.8083 193.438 15.8083C193.394 15.8083 193.351 15.7976 193.319 15.7784C193.286 15.7592 193.267 15.7329 193.263 15.7048V13.0827C193.267 13.0546 193.286 13.0283 193.319 13.0091C193.351 12.9899 193.394 12.9793 193.438 12.9793C193.482 12.9793 193.524 12.9899 193.557 13.0091C193.589 13.0283 193.609 13.0546 193.612 13.0827V15.7048Z" stroke="white" stroke-width="9.6" mask="url(#path-2-inside-1_3941_944)"/>
<path d="M100.009 57.3764C97.2008 56.6324 95.9288 54.1604 95.4488 50.7044H89.6408C89.1608 54.1604 87.8888 56.6324 85.1048 57.3764L83.4248 53.8724C85.2248 52.9604 85.9208 50.1524 85.9208 47.1284C85.9208 46.0964 85.8488 45.0164 85.7048 44.0084H83.4248V40.0964H90.1208L89.9048 38.1044H95.1848L94.9928 40.0964H101.689V44.0084H99.3848C99.2408 45.0164 99.1688 46.0724 99.1688 47.1044C99.1688 50.1524 99.8648 52.9604 101.689 53.8724L100.009 57.3764ZM95.2328 46.7684C95.2328 45.8804 95.2568 44.9684 95.3048 44.0084H89.7848C89.8328 44.9684 89.8568 45.8804 89.8568 46.7684H95.2328ZM118.952 57.3764C117.296 57.3764 115.376 57.2084 113.288 57.2084H112.808V53.2964H119.048C119.48 53.1764 120.032 52.8644 120.248 52.1204C120.296 51.9764 120.32 51.8324 120.32 51.6884C120.32 51.3044 120.152 50.9684 119.984 50.7044H112.472C111.992 54.1604 110.72 56.6324 107.936 57.3764L106.256 53.8724C108.056 52.9604 108.752 50.1524 108.752 47.1284C108.752 46.1204 108.68 45.0404 108.536 44.0324H106.352V40.1204L109.544 40.0964V40.1204L124.424 40.0964C124.496 40.7684 124.592 41.4404 124.592 42.1604C124.592 43.6004 124.232 45.2084 122.744 47.3204C123.488 47.9444 124.232 48.8564 124.4 50.2244C124.472 50.9684 124.52 51.6404 124.52 52.2164C124.52 56.6564 122.336 57.3764 118.952 57.3764ZM114.536 46.8644C116.984 46.8644 119.144 46.4564 119.888 44.0324H112.64C112.688 44.9924 112.712 45.9284 112.712 46.8164C113.312 46.8404 113.936 46.8644 114.536 46.8644ZM147.421 57.4484H136.621C135.325 57.4484 134.269 57.3524 133.021 56.1284C131.701 54.8084 130.765 53.0084 130.765 50.9924V44.0804C130.261 44.1044 129.709 44.1044 129.157 44.1044V40.1444C136.813 40.0724 133.741 40.0484 140.389 40.0484C141.685 40.0484 142.741 40.1444 143.989 41.3684C145.333 42.6884 146.245 44.4884 146.245 46.5044V53.5124H147.421V57.4484ZM142.069 53.5124L142.093 46.5044C142.093 45.9284 141.901 45.4004 141.613 44.9204C141.157 44.1044 140.605 43.9844 139.573 43.9844L134.941 44.0564L134.917 50.9924C134.917 51.5684 135.133 52.0964 135.421 52.5764C135.877 53.3684 136.405 53.5124 137.437 53.5124H142.069ZM169.628 57.3764H160.388C156.548 57.3764 153.404 54.2324 153.404 50.3924V44.0804H151.988V40.1444H157.508V50.3924C157.508 51.9524 158.804 53.2484 160.388 53.2484H165.5L165.476 40.1444H169.628V57.3764ZM185.418 57.4484C182.922 56.3684 181.17 53.8964 181.17 51.0164V44.0804H178.266V45.4724H174.186V40.1444H192.45V45.4724H188.37V44.0804H185.322L185.274 51.0164C185.274 52.3604 186.234 53.5124 187.506 53.8244L185.418 57.4484ZM229.965 57.3764H220.725C216.885 57.3764 213.741 54.2324 213.741 50.3924V44.0804H212.325V40.1444H217.845V50.3924C217.845 51.9524 219.141 53.2484 220.725 53.2484H225.837L225.813 40.1444H229.965V57.3764ZM245.803 57.4484H236.227V53.3684H245.923V53.3204C247.315 53.2724 248.467 52.1924 248.635 50.8244H236.587V44.2964H234.523V40.3604H241.243L241.027 38.1284H246.307L246.067 40.3604H252.811V44.2964H240.523V46.8884H252.763V48.1364H252.787V50.4644C252.787 54.3044 249.643 57.4484 245.803 57.4484Z" fill="white"/>
<defs>
<filter id="filter0_d_3941_944" x="0.49" y="20.0102" width="336.571" height="61.9002" filterUnits="userSpaceOnUse" color-interpolation-filters="sRGB">
<feFlood flood-opacity="0" result="BackgroundImageFix"/>
<feColorMatrix in="SourceAlpha" type="matrix" values="0 0 0 0 0 0 0 0 0 0 0 0 0 0 0 0 0 0 127 0" result="hardAlpha"/>
<feOffset dy="5.76"/>
<feGaussianBlur stdDeviation="2.88"/>
<feComposite in2="hardAlpha" operator="out"/>
<feColorMatrix type="matrix" values="0 0 0 0 0 0 0 0 0 0 0 0 0 0 0 0 0 0 0.7 0"/>
<feBlend mode="normal" in2="BackgroundImageFix" result="effect1_dropShadow_3941_944"/>
<feBlend mode="normal" in="SourceGraphic" in2="effect1_dropShadow_3941_944" result="shape"/>
</filter>
<linearGradient id="paint0_linear_3941_944" x1="7" y1="45.3456" x2="330.55" y2="45.3456" gradientUnits="userSpaceOnUse">
<stop/>
<stop offset="0.538462" stop-color="#842728"/>
<stop offset="0.975962"/>
</linearGradient>
</defs>
</svg>
