<svg width="67" height="66" viewBox="0 0 67 66" fill="none" xmlns="http://www.w3.org/2000/svg">
<g clip-path="url(#clip0_4122_445)">
<g filter="url(#filter0_d_4122_445)">
<path d="M33.5361 59.7578C18.0769 59.7578 5.5 47.1808 5.5 31.7217C5.5 16.2624 18.0769 3.68555 33.5361 3.68555C48.9952 3.68555 61.5723 16.2624 61.5723 31.7217C61.5723 47.1808 48.9952 59.7578 33.5361 59.7578ZM33.5361 5.26505C18.9479 5.26505 7.0795 17.1334 7.0795 31.7217C7.0795 46.3099 18.9479 58.1783 33.5361 58.1783C48.1244 58.1783 59.9928 46.3099 59.9928 31.7217C59.9928 17.1334 48.1244 5.26505 33.5361 5.26505Z" fill="#E2DCCB"/>
</g>
<path d="M14.3487 57.7932L14.6677 57.4743C14.7909 57.3511 14.8525 57.1893 14.8525 57.0274C14.8525 56.8655 14.7909 56.7038 14.6677 56.5806L14.4584 56.3713C14.212 56.1249 13.8111 56.1249 13.5647 56.3713L13.2466 56.6893L12.4333 55.8761L12.8114 55.4981C12.9181 55.3915 12.9713 55.2514 12.9713 55.1114C12.9713 54.9712 12.9178 54.8312 12.8114 54.7244L12.6687 54.5819C12.615 54.528 12.5517 54.4876 12.483 54.4605C12.5227 54.4221 12.5477 54.3684 12.5477 54.309C12.5477 54.2613 12.5311 54.2176 12.5042 54.1822H12.5777C12.694 54.1822 12.7891 54.0871 12.7891 53.9709C12.7891 53.8546 12.694 53.7595 12.5777 53.7595H12.3523V53.2879C12.461 53.2796 12.5477 53.1889 12.5477 53.0782C12.5477 52.9673 12.4611 52.8768 12.3523 52.8685V50.2793H12.2113V52.869C12.1052 52.8799 12.0214 52.9693 12.0214 53.0782C12.0214 53.187 12.1052 53.2764 12.2113 53.2873V53.7596H11.9858C11.8696 53.7596 11.7744 53.8548 11.7744 53.971C11.7744 54.0872 11.8696 54.1824 11.9858 54.1824H12.0649C12.0381 54.2179 12.0214 54.2615 12.0214 54.3091C12.0214 54.3678 12.0457 54.421 12.0845 54.4593C12.0144 54.4864 11.9496 54.5271 11.8947 54.582L11.752 54.7245C11.5386 54.938 11.5387 55.2851 11.752 55.4982L12.1301 55.8763L11.3168 56.6894L10.9988 56.3714C10.7524 56.125 10.3514 56.125 10.105 56.3714L9.89574 56.5807C9.64934 56.8271 9.64934 57.2282 9.89574 57.4744L10.2147 57.7934L9.91535 58.0927C9.65776 58.3503 9.65776 58.7679 9.91535 59.0255L10.105 59.2152C10.2416 59.3518 10.4297 59.4183 10.6256 59.3962C10.7772 59.3791 10.9148 59.2992 11.0227 59.1912L11.3168 58.8972L12.1047 59.6851L11.7323 60.0576C11.5257 60.2641 11.5257 60.6248 11.7323 60.8313L11.8749 60.974C12.0882 61.1872 12.4353 61.1872 12.6485 60.974L12.7912 60.8313C12.898 60.7245 12.9512 60.5845 12.9512 60.4444C12.9512 60.3044 12.8978 60.1642 12.7912 60.0576L12.4386 59.7048L13.2464 58.8971L13.5644 59.2151C13.6838 59.3344 13.8425 59.4003 14.0113 59.4003C14.18 59.4003 14.3387 59.3344 14.4581 59.2151L14.6674 59.0058C14.7906 58.8826 14.8522 58.7208 14.8522 58.5589C14.8522 58.397 14.7906 58.2352 14.6674 58.112L14.3487 57.7932ZM12.1199 57.7932L11.3179 58.5952L10.517 57.7942L11.319 56.9922L12.1199 57.7932ZM12.2818 57.955L13.0838 58.757L12.2818 59.559L11.4798 58.757L12.2818 57.955ZM13.2456 58.5951L12.4436 57.7931L13.2456 56.9911L14.0476 57.7931L13.2456 58.5951ZM12.2818 57.6313L11.4808 56.8303L12.2826 56.0283L13.0837 56.8294L12.2818 57.6313ZM13.7151 56.5217C13.8784 56.3584 14.1443 56.3584 14.3078 56.5217L14.5171 56.731C14.6804 56.8945 14.6804 57.1603 14.5171 57.3237L14.1982 57.6427L13.3962 56.8407L13.7151 56.5217ZM11.9029 54.8747L12.0456 54.7322C12.1088 54.669 12.1927 54.6342 12.2818 54.6342C12.3711 54.6342 12.4551 54.669 12.5181 54.7322L12.6608 54.8747C12.7911 55.005 12.791 55.2169 12.6608 55.3473L12.2818 55.7262L11.9029 55.3473C11.7726 55.2171 11.7723 55.0052 11.9029 54.8747ZM10.0464 57.3237C9.8831 57.1603 9.8831 56.8945 10.0464 56.731L10.2557 56.5217C10.4191 56.3584 10.685 56.3584 10.8483 56.5217L11.1672 56.8407L10.3652 57.6427L10.0464 57.3237ZM10.8484 59.0646C10.7693 59.1437 10.664 59.1874 10.5522 59.1874C10.4403 59.1874 10.335 59.1438 10.2559 59.0646L10.0466 58.8553C9.96497 58.7736 9.92404 58.6663 9.92404 58.559C9.92404 58.4518 9.96497 58.3445 10.0466 58.2627L10.3655 57.9438L11.1675 58.7458L10.8484 59.0646ZM12.6409 60.6807L12.4982 60.8234C12.3679 60.9536 12.156 60.9536 12.0257 60.8234L11.8831 60.6807C11.82 60.6175 11.7853 60.5337 11.7853 60.4444C11.7853 60.3552 11.8201 60.2713 11.8831 60.2082L12.2621 59.8292L12.641 60.2082C12.7712 60.3385 12.7712 60.5504 12.6409 60.6807ZM14.5171 58.8553L14.3078 59.0646C14.2287 59.1437 14.1234 59.1874 14.0115 59.1874C13.8995 59.1874 13.7943 59.1438 13.7152 59.0646L13.3971 58.7466L14.1991 57.9446L14.5171 58.2626C14.6803 58.426 14.6804 58.6917 14.5171 58.8553Z" fill="#E2DCCB"/>
<path d="M12.3588 62.0332V61.8486H12.5843C12.7005 61.8486 12.7957 61.7534 12.7957 61.6372C12.7957 61.5209 12.7005 61.4258 12.5843 61.4258H11.9925C11.8763 61.4258 11.7811 61.5209 11.7811 61.6372C11.7811 61.7534 11.8763 61.8486 11.9925 61.8486H12.2179V62.0332H11.9944L11.6875 63.96C11.6875 63.96 11.9975 64.1573 12.3921 64.1291C12.7866 64.1009 12.9275 63.9036 12.9275 63.9036L12.5694 62.0334H12.3588V62.0332Z" fill="#E2DCCB"/>
<path d="M56.0752 57.7932L56.3941 57.4743C56.5173 57.3511 56.5789 57.1893 56.5789 57.0274C56.5789 56.8655 56.5173 56.7038 56.3941 56.5806L56.1847 56.3713C55.9383 56.1249 55.5374 56.1249 55.291 56.3713L54.973 56.6893L54.1596 55.8761L54.5377 55.4981C54.6443 55.3915 54.6976 55.2514 54.6976 55.1114C54.6976 54.9712 54.6442 54.8312 54.5377 54.7244L54.395 54.5819C54.3413 54.528 54.278 54.4876 54.2093 54.4605C54.249 54.4221 54.274 54.3684 54.274 54.309C54.274 54.2613 54.2574 54.2176 54.2305 54.1822H54.304C54.4203 54.1822 54.5154 54.0871 54.5154 53.9709C54.5154 53.8546 54.4203 53.7595 54.304 53.7595H54.0786V53.2879C54.1873 53.2796 54.274 53.1889 54.274 53.0782C54.274 52.9673 54.1874 52.8768 54.0786 52.8685V50.2793H53.9377V52.869C53.8316 52.8799 53.7478 52.9693 53.7478 53.0782C53.7478 53.187 53.8316 53.2764 53.9377 53.2873V53.7596H53.7122C53.596 53.7596 53.5009 53.8548 53.5009 53.971C53.5009 54.0872 53.596 54.1824 53.7122 54.1824H53.7914C53.7645 54.2179 53.7478 54.2615 53.7478 54.3091C53.7478 54.3678 53.7721 54.421 53.811 54.4593C53.7408 54.4864 53.676 54.5271 53.6213 54.582L53.4786 54.7245C53.2651 54.938 53.2652 55.2851 53.4786 55.4982L53.8566 55.8763L53.0433 56.6894L52.7253 56.3714C52.4789 56.125 52.078 56.125 51.8316 56.3714L51.6223 56.5807C51.3759 56.8271 51.3759 57.2282 51.6223 57.4744L51.9412 57.7934L51.6419 58.0927C51.3843 58.3503 51.3843 58.7679 51.6419 59.0255L51.8316 59.2152C51.9682 59.3518 52.1564 59.4183 52.3522 59.3962C52.5038 59.3791 52.6415 59.2992 52.7493 59.1912L53.0433 58.8972L53.8312 59.6851L53.4589 60.0576C53.2522 60.2641 53.2522 60.6248 53.4589 60.8313L53.6014 60.974C53.8148 61.1872 54.1619 61.1872 54.3751 60.974L54.5178 60.8313C54.6245 60.7245 54.6778 60.5845 54.6778 60.4444C54.6778 60.3044 54.6245 60.1642 54.5178 60.0576L54.1652 59.7048L54.973 58.8971L55.291 59.2151C55.4103 59.3344 55.5691 59.4003 55.7378 59.4003C55.9066 59.4003 56.0653 59.3344 56.1847 59.2151L56.3941 59.0058C56.5173 58.8826 56.5789 58.7208 56.5789 58.5589C56.5789 58.397 56.5173 58.2352 56.3941 58.112L56.0752 57.7932ZM53.8464 57.7932L53.0444 58.5952L52.2434 57.7942L53.0454 56.9922L53.8464 57.7932ZM54.0083 57.955L54.8103 58.757L54.0083 59.559L53.2063 58.757L54.0083 57.955ZM54.9722 58.5951L54.1702 57.7931L54.9722 56.9911L55.7741 57.7931L54.9722 58.5951ZM54.0083 57.6313L53.2072 56.8303L54.0091 56.0283L54.8101 56.8294L54.0083 57.6313ZM55.4415 56.5217C55.6049 56.3584 55.8708 56.3584 56.0342 56.5217L56.2437 56.731C56.407 56.8945 56.407 57.1603 56.2437 57.3237L55.9247 57.6427L55.1227 56.8407L55.4415 56.5217ZM53.6293 54.8747L53.772 54.7322C53.8352 54.669 53.9192 54.6342 54.0083 54.6342C54.0975 54.6342 54.1814 54.669 54.2445 54.7322L54.3872 54.8747C54.5175 55.005 54.5173 55.2169 54.3872 55.3473L54.0083 55.7262L53.6293 55.3473C53.499 55.2171 53.4989 55.0052 53.6293 54.8747ZM51.773 57.3237C51.6097 57.1603 51.6097 56.8945 51.773 56.731L51.9823 56.5217C52.1456 56.3584 52.4115 56.3584 52.575 56.5217L52.8939 56.8407L52.0919 57.6427L51.773 57.3237ZM52.575 59.0646C52.4958 59.1437 52.3906 59.1874 52.2787 59.1874C52.1668 59.1874 52.0615 59.1438 51.9824 59.0646L51.7731 58.8553C51.6915 58.7736 51.6506 58.6663 51.6506 58.559C51.6506 58.4518 51.6915 58.3445 51.7731 58.2627L52.0921 57.9438L52.8941 58.7458L52.575 59.0646ZM54.3673 60.6807L54.2247 60.8234C54.0944 60.9536 53.8824 60.9536 53.7521 60.8234L53.6096 60.6807C53.5464 60.6175 53.5116 60.5337 53.5116 60.4444C53.5116 60.3552 53.5464 60.2713 53.6096 60.2082L53.9884 59.8292L54.3673 60.2082C54.4977 60.3385 54.4977 60.5504 54.3673 60.6807ZM56.2435 58.8553L56.0341 59.0646C55.955 59.1437 55.8497 59.1874 55.7378 59.1874C55.6259 59.1874 55.5206 59.1438 55.4415 59.0646L55.1237 58.7466L55.9256 57.9446L56.2437 58.2626C56.4069 58.426 56.407 58.6917 56.2435 58.8553Z" fill="#E2DCCB"/>
<path d="M54.0697 62.0332V61.8486H54.2952C54.4114 61.8486 54.5066 61.7534 54.5066 61.6372C54.5066 61.5209 54.4114 61.4258 54.2952 61.4258H53.7034C53.5872 61.4258 53.492 61.5209 53.492 61.6372C53.492 61.7534 53.5872 61.8486 53.7034 61.8486H53.9289V62.0332H53.7054L53.3984 63.96C53.3984 63.96 53.7084 64.1573 54.1029 64.1291C54.4974 64.1009 54.6383 63.9036 54.6383 63.9036L54.2802 62.0334H54.0697V62.0332Z" fill="#E2DCCB"/>
<path d="M29.1612 5.87074C29.3611 5.83784 29.559 5.79335 29.7603 5.77018L29.6697 5.15826C29.2834 5.21407 28.9004 5.29172 28.5156 5.35806L28.7336 6.47898L29.6263 6.31919C29.9248 6.2722 30.2256 6.24021 30.5251 6.20007L30.3892 5.06625C30.5875 5.04401 30.7847 5.00965 30.984 4.99754L31.5809 4.95174L31.6649 6.09056C32.2501 6.03264 32.8382 6.03554 33.4254 6.01685L33.4209 4.875L32.3241 4.90277L32.3521 5.52062L32.8877 5.50693" stroke="#E2DCCB" stroke-width="0.197438" stroke-miterlimit="10"/>
<path d="M32.9236 7.06176L32.3532 7.07598L32.3829 7.69383L33.4295 7.66737L33.425 6.52539C32.8329 6.54303 32.2401 6.54329 31.6502 6.6016L31.7365 7.74029L31.2029 7.7807C31.0252 7.79584 30.849 7.82413 30.6719 7.84493L30.5337 6.71138C30.2486 6.75034 29.9618 6.77851 29.678 6.82602L28.8281 6.97818L29.0461 8.0991C29.368 8.04303 29.6891 7.9813 30.0116 7.92865L29.9192 7.31698C29.7532 7.34133 29.5888 7.3749 29.4235 7.4032" stroke="#E2DCCB" stroke-width="0.197438" stroke-miterlimit="10"/>
<path d="M24.3352 7.20688C24.5245 7.13488 24.7098 7.05235 24.9032 6.99154L24.6941 6.40949C24.5077 6.46833 24.3285 6.54664 24.1462 6.61654L23.6016 6.83174L24.0357 7.8879L24.8791 7.55476C25.1637 7.45328 25.4512 7.3593 25.737 7.26137L25.3811 6.17638C25.7569 6.04028 26.1444 5.9417 26.5279 5.83008L26.8335 6.93033L27.2573 6.80976L27.6864 6.70946C27.973 6.64444 28.2583 6.57415 28.5458 6.51374L28.319 5.39453C27.9611 5.47074 27.6052 5.55735 27.2484 5.63883L27.3967 6.2393L27.919 6.11834" stroke="#E2DCCB" stroke-width="0.197438" stroke-miterlimit="10"/>
<path d="M28.2495 7.63354L27.6938 7.762L27.8438 8.36208C28.1838 8.28521 28.5225 8.20229 28.8631 8.12897L28.6363 7.00977C28.3466 7.07084 28.059 7.14179 27.7704 7.2072C27.6264 7.24182 27.4812 7.27117 27.3384 7.31L26.9113 7.43162L27.2191 8.53122C26.8764 8.62928 26.5315 8.72036 26.1964 8.84251L25.8383 7.75819C25.5663 7.85217 25.2919 7.9397 25.0218 8.03868L24.2188 8.35589L24.6528 9.41205C24.9576 9.29425 25.2591 9.16763 25.5662 9.05588L25.3553 8.47436C25.1962 8.5274 25.0425 8.59545 24.8858 8.65508" stroke="#E2DCCB" stroke-width="0.197438" stroke-miterlimit="10"/>
<path d="M19.8558 9.46634C20.0274 9.35906 20.1938 9.24323 20.3699 9.1432L20.0509 8.61327C19.7165 8.8144 19.392 9.03171 19.0625 9.24073L19.6946 10.1917L20.4577 9.70208C20.7147 9.54307 20.9801 9.39815 21.241 9.24547L20.6792 8.2513C21.0215 8.04544 21.3803 7.86972 21.7351 7.68677L22.2509 8.70554L22.643 8.50455C22.7754 8.44111 22.9102 8.38254 23.0436 8.3212C23.3119 8.20142 23.5775 8.07572 23.8479 7.96094L23.4053 6.9082C23.069 7.05233 22.7375 7.20778 22.4035 7.3577L22.667 7.91737L23.1554 7.69624" stroke="#E2DCCB" stroke-width="0.197438" stroke-miterlimit="10"/>
<path d="M23.7965 9.1169L23.2768 9.35211L23.5419 9.91099C23.8603 9.76897 24.1758 9.6205 24.496 9.48242L24.0534 8.42969C23.781 8.54565 23.5132 8.67227 23.2429 8.79297C23.1086 8.85536 22.9716 8.91196 22.8397 8.97922L22.4444 9.18192L22.9623 10.1998L22.4862 10.4437C22.3264 10.5231 22.1758 10.6193 22.0201 10.7061L21.4563 9.71303C21.2084 9.859 20.9543 9.9951 20.7111 10.1488L19.9844 10.6152L20.6164 11.5662L21.4429 11.0378L21.1224 10.5088C20.9792 10.5961 20.8395 10.6893 20.6978 10.7792" stroke="#E2DCCB" stroke-width="0.197438" stroke-miterlimit="10"/>
<path d="M15.9014 12.5519L16.3416 12.1336L15.9258 11.6757L15.0781 12.4827L15.8824 13.2932L16.5385 12.6675C16.646 12.5612 16.7598 12.4617 16.8748 12.3637L17.2174 12.0667L16.4734 11.2005C16.6252 11.0711 16.7727 10.9365 16.9284 10.8118L17.3988 10.4415L18.1029 11.3405C18.5571 10.9673 19.047 10.6415 19.5231 10.2976L18.8835 9.35156L17.9891 9.98757L18.3566 10.4851L18.7931 10.1744" stroke="#E2DCCB" stroke-width="0.197438" stroke-miterlimit="10"/>
<path d="M19.6925 11.4424L19.2274 11.7731L19.5963 12.2696L20.4489 11.6628L19.8094 10.7168C19.3287 11.0627 18.8366 11.3935 18.3786 11.7697L19.0845 12.6673L18.6636 12.9979L18.2586 13.3477L17.5128 12.4831L17.1865 12.7658L17.0234 12.9073L16.8671 13.0563L16.2422 13.6522L17.0464 14.4628L17.7567 13.7856L17.3395 13.3289L16.9752 13.6765" stroke="#E2DCCB" stroke-width="0.197438" stroke-miterlimit="10"/>
<path d="M12.6197 16.344L12.9719 15.8492L12.4754 15.4804L11.7969 16.4343L12.7429 17.0739C13.0955 16.5831 13.4335 16.0812 13.8173 15.6136L12.9196 14.9077L13.2899 14.4374L13.6806 13.984L14.5452 14.7298L14.8337 14.3968L14.9781 14.2304L15.1301 14.0709L15.7383 13.4331L14.9276 12.6289L14.1705 13.4231L14.6272 13.8401L14.9968 13.4522" stroke="#E2DCCB" stroke-width="0.197438" stroke-miterlimit="10"/>
<path d="M16.1313 14.5242L15.7379 14.9375L16.1958 15.3533L16.9178 14.5952L16.1071 13.791L15.494 14.434C15.3898 14.5393 15.2924 14.6508 15.1963 14.7636L14.9054 15.0994L15.7716 15.8434C15.656 15.9793 15.5349 16.1106 15.4236 16.25L15.0929 16.671L14.1939 15.9669C13.828 16.4118 13.5092 16.8921 13.1719 17.3584L14.1179 17.998L14.6867 17.1987L14.1892 16.8312L13.8974 17.2414" stroke="#E2DCCB" stroke-width="0.197438" stroke-miterlimit="10"/>
<path d="M10.1551 20.7003L10.4058 20.1469L9.84696 19.8819C9.68704 20.2379 9.52145 20.5917 9.36719 20.9503L10.4199 21.3928C10.5383 21.1147 10.6674 20.8413 10.7907 20.5654C10.8544 20.4284 10.9123 20.2886 10.9809 20.1539L11.1878 19.7505L10.17 19.2327L10.4435 18.7C10.533 18.5215 10.6395 18.3524 10.7369 18.1781L11.73 18.7419C11.8789 18.4886 12.018 18.2296 12.1749 17.9812L12.6508 17.2395L11.6998 16.6074C11.5028 16.9157 11.3027 17.2221 11.109 17.5323L11.638 17.8529C11.7309 17.7003 11.8298 17.5514 11.9255 17.4006" stroke="#E2DCCB" stroke-width="0.197438" stroke-miterlimit="10"/>
<path d="M13.2323 18.2368C13.1316 18.3981 13.0222 18.5541 12.9285 18.7196L13.4585 19.0387C13.6381 18.7399 13.8333 18.4505 14.0193 18.1555L13.0683 17.5234L12.5885 18.2711C12.4327 18.5227 12.2909 18.7831 12.1413 19.0386L13.1354 19.6003C12.9504 19.9056 12.7949 20.2269 12.6312 20.5436L11.6123 20.0279L11.4152 20.4121C11.3531 20.5419 11.2957 20.6739 11.2358 20.8047C11.1186 21.0674 10.9952 21.3277 10.8828 21.5926L11.9355 22.0351C12.0645 21.7349 12.2041 21.4392 12.3371 21.1408L11.7775 20.8772L11.5699 21.3357" stroke="#E2DCCB" stroke-width="0.197438" stroke-miterlimit="10"/>
<path d="M8.56769 25.462L8.70471 24.87L8.10463 24.72C8.0175 25.1007 7.92549 25.4803 7.84375 25.862L8.96296 26.0888C9.02522 25.793 9.09748 25.4993 9.16434 25.2046C9.19962 25.0577 9.22976 24.9094 9.26938 24.7636L9.3935 24.3275L8.29391 24.0196C8.40355 23.6355 8.50714 23.2496 8.64271 22.8737L9.72704 23.2318C9.82286 22.9541 9.91237 22.6741 10.0135 22.3984L10.3373 21.5786L9.2811 21.1445C9.14829 21.4856 9.00758 21.8238 8.8824 22.1677L9.46392 22.3785C9.52065 22.2091 9.59252 22.0451 9.65623 21.8782" stroke="#E2DCCB" stroke-width="0.197438" stroke-miterlimit="10"/>
<path d="M11.1143 22.4386C11.0468 22.6163 10.9686 22.79 10.912 22.9716L11.4941 23.1808C11.5458 23.0143 11.6169 22.8546 11.6791 22.6919L11.8712 22.2056L10.815 21.7715L10.4886 22.5977C10.3892 22.8766 10.2973 23.1582 10.2012 23.4381L11.2862 23.7942C11.1634 24.1292 11.0773 24.4756 10.9772 24.8177L9.87692 24.512L9.75872 24.9272L9.66053 25.3476C9.59695 25.6282 9.52785 25.9078 9.46875 26.1893L10.588 26.4161C10.6564 26.0967 10.7343 25.7792 10.8065 25.4605L10.206 25.3122L10.0927 25.8025" stroke="#E2DCCB" stroke-width="0.197438" stroke-miterlimit="10"/>
<path d="M7.968 30.4383L7.98353 29.8314L7.36568 29.8017L7.33594 30.9715L8.47778 30.976C8.49542 30.3719 8.49608 29.7669 8.55544 29.1649L7.41676 29.0785L7.46256 28.4816C7.4798 28.2828 7.51047 28.0853 7.5339 27.887L8.66746 28.0253C8.70708 27.7342 8.73616 27.4415 8.7846 27.1519L8.93992 26.2844L7.819 26.0664C7.75543 26.4268 7.68711 26.7867 7.62854 27.1478L8.2402 27.2402C8.26613 27.0635 8.30141 26.8883 8.33168 26.7122" stroke="#E2DCCB" stroke-width="0.197438" stroke-miterlimit="10"/>
<path d="M9.84682 26.9762C9.81602 27.1638 9.7735 27.3495 9.75205 27.5385L10.364 27.6292C10.4137 27.2842 10.4843 26.9425 10.5426 26.5988L9.42167 26.3809L9.26504 27.2552C9.21897 27.5477 9.18791 27.8424 9.14842 28.1358L10.2822 28.2718C10.2625 28.449 10.2305 28.6248 10.2204 28.803L10.18 29.3366L9.04114 29.2527C8.98402 29.8259 8.98744 30.4024 8.96875 30.9777L10.1107 30.9822L10.1356 30.0011L9.51763 29.973L9.50499 30.4764" stroke="#E2DCCB" stroke-width="0.197438" stroke-miterlimit="10"/>
<path d="M8.33168 35.4378C8.29877 35.238 8.25429 35.0401 8.23112 34.8388L7.61919 34.9295C7.675 35.3158 7.75266 35.6988 7.819 36.0836L8.93992 35.8656L8.78013 34.9729C8.73314 34.6744 8.70115 34.3736 8.66101 34.0741L7.52719 34.21C7.50494 34.0117 7.47059 33.8145 7.45848 33.6152L7.41267 33.0183L8.55149 32.9343C8.49358 32.3491 8.49648 31.761 8.47778 31.1738L7.33594 31.1783L7.36371 32.2751L7.98156 32.2471L7.96787 31.7115" stroke="#E2DCCB" stroke-width="0.197438" stroke-miterlimit="10"/>
<path d="M9.50512 31.6717L9.51934 32.2423L10.1372 32.2126L10.1107 31.166L8.96875 31.1705C8.98639 31.7625 8.98665 32.3554 9.04496 32.9453L10.1836 32.859L10.2241 33.3926C10.2392 33.5703 10.2675 33.7465 10.2884 33.9236L9.15487 34.0618C9.19383 34.3469 9.222 34.6337 9.26951 34.9175L9.42167 35.7674L10.5426 35.5494C10.4865 35.2274 10.4248 34.9064 10.3721 34.5839L9.76047 34.6763C9.78482 34.8423 9.81839 35.0067 9.84669 35.172" stroke="#E2DCCB" stroke-width="0.197438" stroke-miterlimit="10"/>
<path d="M9.66378 40.2711C9.59178 40.0818 9.50925 39.8965 9.44857 39.7031L8.86652 39.9123C8.92536 40.0987 9.00368 40.2778 9.07357 40.4601L9.28878 41.0048L10.3449 40.5707L10.0118 39.7272C9.91031 39.4427 9.81633 39.1552 9.7184 38.8693L8.63341 39.2252C8.49731 38.8494 8.39873 38.4619 8.28711 38.0785L9.38736 37.7729L9.26679 37.349L9.1665 36.9199C9.10147 36.6334 9.03119 36.348 8.97077 36.0605L7.85156 36.2873C7.92777 36.6454 8.01438 37.0011 8.09586 37.358L8.69633 37.2096L8.57537 36.6873" stroke="#E2DCCB" stroke-width="0.197438" stroke-miterlimit="10"/>
<path d="M10.0847 36.348L10.2132 36.9037L10.8133 36.7537C10.7364 36.4137 10.6535 36.075 10.5801 35.7344L9.46094 35.9612C9.52201 36.2509 9.59296 36.5385 9.65838 36.8271C9.69299 36.9711 9.72235 37.1163 9.76117 37.2591L9.8828 37.6862L10.9824 37.3784C11.0805 37.7211 11.1715 38.066 11.2937 38.4011L10.2094 38.7592C10.3033 39.0312 10.3909 39.3056 10.4899 39.5757L10.8071 40.3788L11.8632 39.9447C11.7454 39.64 11.6188 39.3384 11.507 39.0313L10.9255 39.2422C10.9786 39.4013 11.0466 39.5551 11.1063 39.7117" stroke="#E2DCCB" stroke-width="0.197438" stroke-miterlimit="10"/>
<path d="M11.9253 44.746C11.818 44.5743 11.7022 44.4079 11.6022 44.2318L11.0723 44.5509C11.2734 44.8852 11.4907 45.2097 11.6997 45.5393L12.6507 44.9072L12.1611 44.144C12.0021 43.8871 11.8571 43.6216 11.7045 43.3607L10.7103 43.9225C10.5044 43.5803 10.3287 43.2215 10.1457 42.8666L11.1645 42.3509L10.9635 41.9588C10.9001 41.8264 10.8415 41.6916 10.7802 41.5581C10.6604 41.2899 10.5347 41.0243 10.4199 40.7539L9.36719 41.1964C9.51132 41.5327 9.66677 41.8643 9.81669 42.1982L10.3764 41.9347L10.1552 41.4465" stroke="#E2DCCB" stroke-width="0.197438" stroke-miterlimit="10"/>
<path d="M11.57 40.8147L11.8052 41.3343L12.3641 41.0693C12.2221 40.7508 12.0736 40.4353 11.9355 40.1152L10.8828 40.5578C10.9988 40.8302 11.1254 41.0979 11.2461 41.3683C11.3085 41.5026 11.3651 41.6396 11.4323 41.7715L11.635 42.1667L12.6529 41.6489L12.8968 42.125C12.9762 42.2848 13.0724 42.4354 13.1593 42.5911L12.1663 43.1548C12.3121 43.4028 12.4484 43.6569 12.6021 43.9001L13.0684 44.6268L14.0194 43.9947L13.4911 43.1683L12.9621 43.4888C13.0494 43.632 13.1426 43.7716 13.2325 43.9134" stroke="#E2DCCB" stroke-width="0.197438" stroke-miterlimit="10"/>
<path d="M14.9971 48.6957L14.5788 48.2556L14.1208 48.6714L14.9278 49.5191L15.7385 48.7148L15.1128 48.0587C15.0066 47.9511 14.907 47.8374 14.809 47.7224L14.512 47.3798L13.6458 48.1238C13.5164 47.9719 13.3818 47.8245 13.2571 47.6688L12.8869 47.1985L13.7859 46.4945C13.4126 46.0402 13.0868 45.5503 12.7429 45.0742L11.7969 45.7138L12.4329 46.6082L12.9304 46.2407L12.6197 45.8042" stroke="#E2DCCB" stroke-width="0.197438" stroke-miterlimit="10"/>
<path d="M13.8975 44.9088L14.2282 45.3738L14.7247 45.005L14.1179 44.1523L13.1719 44.7919C13.5178 45.2726 13.8486 45.7646 14.2247 46.2227L15.1224 45.5168L15.4529 45.9377L15.8028 46.3427L14.9382 47.0886L15.2209 47.4149L15.3624 47.578L15.5114 47.7343L16.1072 48.3592L16.9179 47.555L16.2407 46.8447L15.784 47.2617L16.1316 47.6261" stroke="#E2DCCB" stroke-width="0.197438" stroke-miterlimit="10"/>
<path d="M18.7931 51.9721L18.2985 51.6199L17.9296 52.1164L18.8835 52.7949L19.5231 51.8489C19.0323 51.4961 18.5304 51.1583 18.0629 50.7745L17.3569 51.6721L16.8867 51.3019L16.4332 50.9112L17.179 50.0466L16.846 49.758L16.6796 49.6136L16.5201 49.4616L15.8824 48.8535L15.0781 49.6641L15.8723 50.4213L16.2893 49.9646L15.9014 49.595" stroke="#E2DCCB" stroke-width="0.197438" stroke-miterlimit="10"/>
<path d="M16.9753 48.4699L17.3886 48.8634L17.8044 48.4054L17.0464 47.6836L16.2422 48.4941L16.8852 49.1073C16.9905 49.2115 17.102 49.3089 17.2148 49.405L17.5505 49.6959L18.2946 48.8297C18.4305 48.9452 18.5618 49.0663 18.7012 49.1777L19.1221 49.5083L18.4181 50.4073C18.8631 50.7732 19.3433 51.092 19.8096 51.4294L20.4492 50.4834L19.6498 49.9145L19.2823 50.412L19.6926 50.7039" stroke="#E2DCCB" stroke-width="0.197438" stroke-miterlimit="10"/>
<path d="M23.1554 54.4547L22.602 54.2041L22.3369 54.763C22.6931 54.9229 23.0468 55.0885 23.4053 55.2428L23.8479 54.19C23.5697 54.0717 23.2963 53.9424 23.0205 53.8192C22.8834 53.7555 22.7437 53.6976 22.609 53.629L22.2056 53.4221L21.6878 54.4399L21.1551 54.1663C20.9766 54.0768 20.8075 53.9703 20.6332 53.8729L21.1969 52.8798C20.9437 52.731 20.6846 52.5918 20.4363 52.4349L19.6946 51.959L19.0625 52.91C19.3708 53.107 19.6772 53.3071 19.9874 53.5008L20.3079 52.9718C20.1554 52.8789 20.0065 52.7801 19.8557 52.6844" stroke="#E2DCCB" stroke-width="0.197438" stroke-miterlimit="10"/>
<path d="M20.6978 51.371C20.859 51.4717 21.015 51.581 21.1806 51.6748L21.4996 51.1448C21.2009 50.9652 20.9114 50.77 20.6164 50.584L19.9844 51.535L20.732 52.0147C20.9837 52.1706 21.244 52.3124 21.4995 52.462L22.0613 51.4678C22.3665 51.6529 22.6878 51.8084 23.0045 51.9721L22.4888 52.991L22.8729 53.1881C23.0027 53.2502 23.1347 53.3076 23.2655 53.3675C23.5284 53.4847 23.7886 53.6081 24.0534 53.7206L24.496 52.6679C24.1957 52.5389 23.9 52.3994 23.6016 52.2663L23.338 52.826L23.7965 53.0335" stroke="#E2DCCB" stroke-width="0.197438" stroke-miterlimit="10"/>
<path d="M27.9189 56.0313L27.3269 55.8943L27.1769 56.4943C27.5576 56.5815 27.9372 56.6736 28.3189 56.7552L28.5457 55.636C28.2499 55.5738 27.9562 55.5015 27.6615 55.4346C27.5146 55.3994 27.3663 55.3692 27.2205 55.3296L26.7844 55.2055L26.4765 56.3051C26.0924 56.1954 25.7065 56.0918 25.3306 55.9563L25.6889 54.8719C25.4111 54.7761 25.1312 54.6866 24.8554 54.5855L24.0357 54.2617L23.6016 55.3179C23.9426 55.4507 24.2809 55.5914 24.6247 55.7166L24.8355 55.135C24.6661 55.0783 24.5021 55.0065 24.3352 54.9427" stroke="#E2DCCB" stroke-width="0.197438" stroke-miterlimit="10"/>
<path d="M24.8858 53.4932C25.0635 53.5607 25.2373 53.6389 25.4189 53.6955L25.6281 53.1134C25.4614 53.0617 25.3019 52.9906 25.1392 52.9284L24.6528 52.7363L24.2188 53.7925L25.045 54.1189C25.3239 54.2183 25.6054 54.3102 25.8854 54.4063L26.2414 53.3213C26.5764 53.4441 26.9229 53.5302 27.2649 53.6303L26.9593 54.7306L27.3745 54.8488L27.7949 54.947C28.0755 55.0105 28.3551 55.0797 28.6366 55.1387L28.8634 54.0195C28.5439 53.9511 28.2265 53.8732 27.9078 53.801L27.7595 54.4015L28.2498 54.5148" stroke="#E2DCCB" stroke-width="0.197438" stroke-miterlimit="10"/>
<path d="M32.8875 56.6439L32.2806 56.6284L32.2509 57.2462L33.4208 57.276L33.4252 56.1341C32.8211 56.1165 32.2161 56.1157 31.6141 56.0565L31.5277 57.1952L30.9308 57.1492C30.7321 57.132 30.5345 57.1013 30.3363 57.0779L30.4745 55.9443C30.1834 55.9047 29.8907 55.8756 29.6011 55.8272L28.7336 55.6719L28.5156 56.7928C28.876 56.8564 29.2359 56.9247 29.5971 56.9833L29.6895 56.3716C29.5127 56.3457 29.3375 56.3104 29.1614 56.2801" stroke="#E2DCCB" stroke-width="0.197438" stroke-miterlimit="10"/>
<path d="M29.4236 54.7445C29.6112 54.7753 29.7969 54.8178 29.9859 54.8392L30.0765 54.2274C29.7315 54.1777 29.3898 54.1071 29.0461 54.0488L28.8281 55.1697L29.7025 55.3264C29.995 55.3724 30.2897 55.4035 30.5831 55.443L30.719 54.3092C30.8962 54.3289 31.0721 54.3609 31.2503 54.371L31.7839 54.4115L31.6999 55.5503C32.2731 55.6073 32.8497 55.604 33.425 55.6227L33.4295 54.4808L32.4483 54.4558L32.4203 55.0738L32.9236 55.0864" stroke="#E2DCCB" stroke-width="0.197438" stroke-miterlimit="10"/>
<path d="M37.8968 56.2802C37.697 56.3131 37.499 56.3576 37.2978 56.3808L37.3885 56.9926C37.7748 56.9368 38.1578 56.8591 38.5426 56.7928L38.3246 55.6719L37.4319 55.8317C37.1334 55.8787 36.8326 55.9106 36.533 55.9508L36.6689 57.0846C36.4705 57.1069 36.2735 57.1412 36.0742 57.1533L35.4773 57.1991L35.3933 56.0603C34.8081 56.1182 34.22 56.1153 33.6328 56.134L33.6373 57.2759L34.734 57.2481L34.706 56.6302L34.1704 56.6439" stroke="#E2DCCB" stroke-width="0.197438" stroke-miterlimit="10"/>
<path d="M34.1307 55.0862L34.7013 55.072L34.6716 54.4541L33.625 54.4806L33.6295 55.6224C34.2215 55.6048 34.8144 55.6046 35.4043 55.5463L35.318 54.4076L35.8516 54.3672C36.0293 54.3521 36.2055 54.3238 36.3825 54.303L36.5208 55.4366C36.8059 55.3976 37.0927 55.3694 37.3764 55.3219L38.2263 55.1697L38.0084 54.0488C37.6864 54.1049 37.3654 54.1666 37.0429 54.2193L37.1353 54.8309C37.3013 54.8066 37.4657 54.773 37.631 54.7447" stroke="#E2DCCB" stroke-width="0.197438" stroke-miterlimit="10"/>
<path d="M42.7339 54.9429C42.5446 55.0149 42.3593 55.0974 42.1659 55.1581L42.3751 55.7401C42.5614 55.6813 42.7406 55.603 42.9229 55.5331L43.4675 55.3179L43.0334 54.2617L42.19 54.5949C41.9053 54.6963 41.6179 54.7903 41.3321 54.8883L41.6881 55.9732C41.3123 56.1093 40.9248 56.2079 40.5414 56.3195L40.2357 55.2193L39.8119 55.3399L39.3828 55.4402C39.0963 55.505 38.8109 55.5755 38.5234 55.6359L38.7502 56.7551C39.1081 56.6789 39.464 56.5923 39.8209 56.5108L39.6725 55.9103L39.1502 56.0313" stroke="#E2DCCB" stroke-width="0.197438" stroke-miterlimit="10"/>
<path d="M38.8011 54.5148L39.3569 54.3864L39.2068 53.7863C38.8668 53.8632 38.5281 53.9461 38.1875 54.0194L38.4143 55.1386C38.704 55.0775 38.9916 55.0066 39.2803 54.9412C39.4242 54.9066 39.5694 54.8772 39.7122 54.8384L40.1394 54.7168L39.8315 53.6172C40.1742 53.5191 40.5191 53.428 40.8542 53.3059L41.2125 54.3902C41.4844 54.2962 41.7589 54.2087 42.029 54.1097L42.832 53.7925L42.3979 52.7363C42.0932 52.8541 41.7915 52.9808 41.4846 53.0925L41.6954 53.674C41.8546 53.621 42.0083 53.5529 42.1649 53.4933" stroke="#E2DCCB" stroke-width="0.197438" stroke-miterlimit="10"/>
<path d="M47.203 52.6844C47.0314 52.7916 46.865 52.9075 46.6889 53.0075L47.0079 53.5374C47.3423 53.3363 47.6667 53.119 47.9963 52.91L47.3642 51.959L46.6011 52.4486C46.3441 52.6076 46.0787 52.7526 45.8178 52.9052L46.3795 53.8994C46.0373 54.1053 45.6785 54.281 45.3236 54.4639L44.8079 53.445L44.4158 53.646C44.2834 53.7095 44.1486 53.768 44.0152 53.8292C43.7469 53.949 43.4813 54.0747 43.2109 54.1895L43.6535 55.2422C43.9898 55.0981 44.3213 54.9427 44.6553 54.7927L44.3917 54.2331L43.9034 54.4542" stroke="#E2DCCB" stroke-width="0.197438" stroke-miterlimit="10"/>
<path d="M43.2776 53.0335L43.7972 52.7983L43.5321 52.2394C43.2137 52.3815 42.8982 52.5299 42.5781 52.668L43.0206 53.7207C43.293 53.6048 43.5608 53.478 43.8312 53.3573C43.9655 53.2949 44.1025 53.2383 44.2344 53.1711L44.6296 52.9684L44.1118 51.9505L44.5879 51.7066C44.7477 51.6272 44.8983 51.531 45.054 51.4442L45.6177 52.4371C45.8657 52.2913 46.1198 52.1551 46.363 52.0013L47.0897 51.535L46.4576 50.584L45.6312 51.1123L45.9517 51.6413C46.0949 51.5541 46.2345 51.4609 46.3763 51.371" stroke="#E2DCCB" stroke-width="0.197438" stroke-miterlimit="10"/>
<path d="M51.153 49.5948L50.7129 50.0131L51.1287 50.4711L51.9764 49.6641L51.172 48.8535L50.5158 49.4793C50.4083 49.5855 50.2946 49.685 50.1795 49.7831L49.8369 50.08L50.581 50.9462C50.4291 51.0756 50.2817 51.2103 50.126 51.3349L49.6555 51.7052L48.9515 50.8062C48.4972 51.1795 48.0073 51.5052 47.5312 51.8492L48.1708 52.7952L49.0652 52.1591L48.6977 51.6616L48.2612 51.9724" stroke="#E2DCCB" stroke-width="0.197438" stroke-miterlimit="10"/>
<path d="M47.358 50.7037L47.823 50.373L47.4542 49.8765L46.6016 50.4833L47.2411 51.4292C47.7218 51.0833 48.2138 50.7526 48.6719 50.3764L47.966 49.4788L48.3869 49.1483L48.7919 48.7985L49.5377 49.6631L49.864 49.3804L50.0271 49.239L50.1833 49.09L50.8083 48.4941L50.0041 47.6836L49.2938 48.3608L49.7109 48.8175L50.0751 48.4699" stroke="#E2DCCB" stroke-width="0.197438" stroke-miterlimit="10"/>
<path d="M54.4312 45.8041L54.079 46.2989L54.5755 46.6677L55.254 45.7138L54.308 45.0742C53.9553 45.565 53.6174 46.0669 53.2336 46.5345L54.1311 47.2404L53.7609 47.7107L53.3702 48.1641L52.5055 47.4182L52.217 47.7512L52.0726 47.9176L51.9206 48.0771L51.3125 48.7148L52.123 49.5191L52.8803 48.725L52.4235 48.308L52.0539 48.6959" stroke="#E2DCCB" stroke-width="0.197438" stroke-miterlimit="10"/>
<path d="M50.927 47.6262L51.3204 47.2129L50.8625 46.7971L50.1406 47.5551L50.9512 48.3593L51.5643 47.7164C51.6685 47.6111 51.7659 47.4996 51.862 47.3868L52.1529 47.051L51.2867 46.3069C51.4023 46.1711 51.5233 46.0397 51.6347 45.9003L51.9653 45.4794L52.8643 46.1834C53.2303 45.7386 53.5491 45.2583 53.8864 44.7919L52.9404 44.1523L52.3715 44.9517L52.8691 45.3192L53.1609 44.9089" stroke="#E2DCCB" stroke-width="0.197438" stroke-miterlimit="10"/>
<path d="M56.9019 41.4464L56.6511 41.9997L57.21 42.2648C57.3699 41.9087 57.5355 41.555 57.6898 41.1964L56.637 40.7539C56.5187 41.032 56.3896 41.3054 56.2662 41.5813C56.2025 41.7183 56.1446 41.8581 56.076 41.9928L55.8691 42.3962L56.887 42.914L56.6135 43.4467C56.524 43.6252 56.4175 43.7944 56.3202 43.9686L55.3271 43.4048C55.1782 43.6581 55.0391 43.9171 54.8822 44.1655L54.4062 44.9072L55.3572 45.5393C55.5543 45.231 55.7544 44.9246 55.9481 44.6143L55.4191 44.2938C55.3262 44.4464 55.2273 44.5953 55.1316 44.7461" stroke="#E2DCCB" stroke-width="0.197438" stroke-miterlimit="10"/>
<path d="M53.826 43.9134C53.9267 43.7522 54.0361 43.5962 54.1298 43.4306L53.5999 43.1115C53.4203 43.4103 53.225 43.6998 53.0391 43.9947L53.9901 44.6268L54.4698 43.8792C54.6257 43.6275 54.7674 43.3672 54.9171 43.1117L53.9229 42.5499C54.108 42.2447 54.2634 41.9234 54.4272 41.6067L55.4461 42.1224L55.6431 41.7383C55.7053 41.6085 55.7626 41.4765 55.8225 41.3457C55.9398 41.0829 56.0631 40.8226 56.1756 40.5578L55.1228 40.1152C54.9938 40.4155 54.8543 40.7112 54.7212 41.0096L55.2809 41.2731L55.4885 40.8147" stroke="#E2DCCB" stroke-width="0.197438" stroke-miterlimit="10"/>
<path d="M58.4884 36.6873L58.3514 37.2793L58.9515 37.4293C59.0386 37.0487 59.1306 36.6691 59.2124 36.2873L58.0932 36.0605C58.0309 36.3563 57.9587 36.65 57.8917 36.9447C57.8564 37.0916 57.8262 37.2399 57.7866 37.3858L57.6625 37.8218L58.7621 38.1297C58.6525 38.5138 58.5489 38.8997 58.4133 39.2756L57.329 38.9175C57.2331 39.1952 57.1436 39.4752 57.0425 39.7509L56.7188 40.5707L57.7749 41.0048C57.9077 40.6637 58.0484 40.3255 58.1736 39.9817L57.5921 39.7708C57.5353 39.9402 57.4635 40.1042 57.3998 40.2711" stroke="#E2DCCB" stroke-width="0.197438" stroke-miterlimit="10"/>
<path d="M55.9522 39.712C56.0197 39.5343 56.0979 39.3605 56.1545 39.1789L55.5724 38.9697C55.5207 39.1364 55.4496 39.2959 55.3874 39.4586L55.1953 39.9449L56.2515 40.379L56.5779 39.5528C56.6773 39.2739 56.7692 38.9924 56.8652 38.7124L55.7803 38.3563C55.9031 38.0214 55.9891 37.6749 56.0893 37.3328L57.1896 37.6385L57.3078 37.2233L57.406 36.8029C57.4695 36.5223 57.5386 36.2427 57.5977 35.9612L56.4785 35.7344C56.4101 36.0538 56.3322 36.3713 56.26 36.69L56.8605 36.8383L56.9738 36.348" stroke="#E2DCCB" stroke-width="0.197438" stroke-miterlimit="10"/>
<path d="M59.097 31.7115L59.0815 32.3184L59.6994 32.3482L59.7291 31.1783L58.5873 31.1738C58.5696 31.778 58.569 32.3829 58.5096 32.985L59.6483 33.0713L59.6024 33.6683C59.5851 33.867 59.5544 34.0646 59.531 34.2628L58.3975 34.1246C58.3578 34.4156 58.3288 34.7084 58.2803 34.9981L58.125 35.8656L59.2459 36.0836C59.3095 35.7232 59.3778 35.3633 59.4364 35.0021L58.8247 34.9097C58.7988 35.0865 58.7635 35.2617 58.7332 35.4378" stroke="#E2DCCB" stroke-width="0.197438" stroke-miterlimit="10"/>
<path d="M57.2114 35.172C57.2422 34.9845 57.2847 34.7987 57.3062 34.6097L56.6942 34.519C56.6445 34.864 56.5739 35.2057 56.5156 35.5494L57.6365 35.7674L57.7932 34.893C57.8392 34.6005 57.8703 34.3058 57.9098 34.0124L56.776 33.8764C56.7957 33.6993 56.8277 33.5234 56.8378 33.3452L56.8783 32.8116L58.0171 32.8956C58.0741 32.3223 58.0708 31.7458 58.0895 31.1705L56.9476 31.166L56.9227 32.1471L57.5406 32.1752L57.5532 31.6719" stroke="#E2DCCB" stroke-width="0.197438" stroke-miterlimit="10"/>
<path d="M58.7334 26.712C58.7663 26.9118 58.8108 27.1098 58.8339 27.3111L59.4457 27.2205C59.3899 26.8342 59.3123 26.4511 59.2459 26.0664L58.125 26.2844L58.2848 27.1771C58.3318 27.4756 58.3638 27.7763 58.4039 28.0759L59.5377 27.94C59.56 28.1383 59.5943 28.3355 59.6064 28.5346L59.6522 29.1316L58.5134 29.2155C58.5713 29.8007 58.5684 30.3888 58.5871 30.976L59.729 30.9715L59.7012 29.8747L59.0834 29.9027L59.097 30.4383" stroke="#E2DCCB" stroke-width="0.197438" stroke-miterlimit="10"/>
<path d="M57.5531 30.4765L57.5387 29.9059L56.9209 29.9357L56.9474 30.9822L58.0892 30.9777C58.0716 30.3857 58.0714 29.7928 58.0131 29.2029L56.8744 29.2892L56.834 28.7556C56.8189 28.5779 56.7906 28.4017 56.7698 28.2247L57.9033 28.0865C57.8644 27.8014 57.8362 27.5145 57.7887 27.2308L57.6365 26.3809L56.5156 26.5988C56.5717 26.9208 56.6334 27.2418 56.6861 27.5643L57.2977 27.4719C57.2734 27.3059 57.2398 27.1414 57.2115 26.9762" stroke="#E2DCCB" stroke-width="0.197438" stroke-miterlimit="10"/>
<path d="M57.3999 21.8782C57.4719 22.0675 57.5544 22.2528 57.6151 22.4462L58.1972 22.237C58.1383 22.0506 58.06 21.8715 57.9901 21.6892L57.7749 21.1445L56.7188 21.5786L57.0519 22.4221C57.1534 22.7068 57.2474 22.9941 57.3453 23.28L58.4303 22.9241C58.5664 23.2999 58.665 23.6874 58.7766 24.0708L57.6763 24.3765L57.7969 24.8003L57.8972 25.2294C57.9621 25.5159 58.0325 25.8013 58.0929 26.0888L59.2121 25.862C59.1359 25.5041 59.0493 25.1482 58.9678 24.7913L58.3674 24.9397L58.4883 25.462" stroke="#E2DCCB" stroke-width="0.197438" stroke-miterlimit="10"/>
<path d="M56.9738 25.8022L56.8454 25.2465L56.2453 25.3966C56.3222 25.7366 56.4051 26.0752 56.4784 26.4159L57.5976 26.1891C57.5365 25.8994 57.4656 25.6118 57.4002 25.3231C57.3655 25.1793 57.3362 25.0339 57.2974 24.8911L57.1757 24.464L56.0761 24.7719C55.9781 24.4291 55.887 24.0843 55.7649 23.7492L56.8492 23.391C56.7552 23.1191 56.6677 22.8446 56.5687 22.5745L56.2515 21.7715L55.1953 22.2056C55.3131 22.5103 55.4397 22.812 55.5515 23.1189L56.133 22.9081C56.08 22.7489 56.0119 22.5952 55.9523 22.4386" stroke="#E2DCCB" stroke-width="0.197438" stroke-miterlimit="10"/>
<path d="M55.1316 17.4007C55.2389 17.5724 55.3547 17.7387 55.4548 17.9149L55.9847 17.5958C55.7836 17.2615 55.5663 16.937 55.3572 16.6074L54.4062 17.2395L54.8959 18.0026C55.0549 18.2596 55.1998 18.5251 55.3525 18.7859L56.3467 18.2242C56.5527 18.5664 56.7282 18.9252 56.9112 19.2801L55.8924 19.7958L56.0934 20.1879C56.1569 20.3203 56.2154 20.4551 56.2766 20.5886C56.3964 20.8568 56.5221 21.1224 56.6369 21.3928L57.6896 20.9503C57.5455 20.614 57.3901 20.2824 57.2401 19.9485L56.6805 20.212L56.9016 20.7003" stroke="#E2DCCB" stroke-width="0.197438" stroke-miterlimit="10"/>
<path d="M55.4886 21.3356L55.2534 20.8159L54.6945 21.081C54.8365 21.3994 54.985 21.7149 55.1231 22.035L56.1758 21.5925C56.0599 21.32 55.9331 21.0523 55.8124 20.7819C55.75 20.6477 55.6934 20.5107 55.6262 20.3788L55.4234 19.9835L54.4056 20.5013L54.1617 20.0252C54.0823 19.8654 53.9861 19.7149 53.8992 19.5592L54.8922 18.9954C54.7464 18.7474 54.6101 18.4934 54.4564 18.2501L53.9901 17.5234L53.0391 18.1555L53.5674 18.982L54.0964 18.6615C54.0091 18.5183 53.9159 18.3786 53.826 18.2368" stroke="#E2DCCB" stroke-width="0.197438" stroke-miterlimit="10"/>
<path d="M52.0538 13.4522L52.4721 13.8924L52.93 13.4766L52.123 12.6289L51.3125 13.4331L51.9382 14.0893C52.0445 14.1968 52.144 14.3105 52.242 14.4256L52.539 14.7682L53.4052 14.0241C53.5346 14.176 53.6692 14.3234 53.7939 14.4792L54.1642 14.9495L53.2652 15.6535C53.6384 16.1078 53.9642 16.5977 54.3082 17.0739L55.2541 16.4343L54.618 15.5399L54.1205 15.9074L54.4312 16.3439" stroke="#E2DCCB" stroke-width="0.197438" stroke-miterlimit="10"/>
<path d="M53.1606 17.2414L52.83 16.7764L52.3335 17.1452L52.9403 17.9979L53.8863 17.3583C53.5404 16.8776 53.2096 16.3856 52.8334 15.9276L51.9359 16.6335L51.6053 16.2125L51.2555 15.8075L52.1201 15.0616L51.8374 14.7353L51.696 14.5722L51.547 14.416L50.9512 13.791L50.1406 14.5952L50.8178 15.3055L51.2746 14.8885L50.927 14.5242" stroke="#E2DCCB" stroke-width="0.197438" stroke-miterlimit="10"/>
<path d="M48.2612 10.1744L48.7559 10.5266L49.1247 10.0301L48.1708 9.35156L47.5312 10.2976C48.0221 10.6502 48.524 10.9882 48.9915 11.372L49.6974 10.4745L50.1677 10.8447L50.6211 11.2354L49.8752 12.1L50.2082 12.3885L50.3746 12.5329L50.534 12.685L51.1717 13.2931L51.9761 12.4825L51.1819 11.7253L50.7649 12.182L51.1528 12.5516" stroke="#E2DCCB" stroke-width="0.197438" stroke-miterlimit="10"/>
<path d="M50.0754 13.6761L49.6621 13.2827L49.2463 13.7406L50.0043 14.4626L50.8086 13.6519L50.1656 13.0388C50.0603 12.9345 49.9488 12.8371 49.836 12.7411L49.5002 12.4502L48.7561 13.3164C48.6203 13.2008 48.4889 13.0797 48.3495 12.9684L47.9286 12.6379L48.6327 11.7389C48.1876 11.3729 47.7075 11.0542 47.2411 10.7168L46.6016 11.6628L47.4009 12.2317L47.7684 11.7341L47.3581 11.4423" stroke="#E2DCCB" stroke-width="0.197438" stroke-miterlimit="10"/>
<path d="M43.9034 7.69611L44.4568 7.94686L44.7219 7.38798C44.3657 7.22805 44.012 7.06247 43.6535 6.9082L43.2109 7.96094C43.4891 8.07927 43.7624 8.20839 44.0383 8.33173C44.1754 8.39543 44.3151 8.45335 44.4498 8.52193L44.8532 8.72884L45.371 7.71112L45.9037 7.9845C46.0822 8.07401 46.2515 8.18049 46.4256 8.27789L45.8619 9.271C46.1151 9.41987 46.3742 9.559 46.6225 9.7159L47.3642 10.1919L47.9963 9.24086C47.688 9.04382 47.3816 8.84375 47.0714 8.65L46.7509 9.179C46.9034 9.27193 47.0523 9.37078 47.2031 9.46647" stroke="#E2DCCB" stroke-width="0.197438" stroke-miterlimit="10"/>
<path d="M46.3764 10.7792C46.2152 10.6785 46.0592 10.5691 45.8936 10.4754L45.5746 11.0053C45.8734 11.185 46.1628 11.3802 46.4578 11.5662L47.0898 10.6152L46.3421 10.1354C46.0904 9.97957 45.8301 9.83781 45.5746 9.68815L45.0128 10.6823C44.7076 10.4973 44.3863 10.3418 44.0696 10.1781L44.5853 9.15928L44.2012 8.96211C44.0714 8.89998 43.9394 8.8426 43.8086 8.78271C43.5457 8.66543 43.2855 8.5421 43.0206 8.42969L42.5781 9.48242C42.8784 9.61142 43.1741 9.75094 43.4725 9.88401L43.736 9.32434L43.2776 9.11677" stroke="#E2DCCB" stroke-width="0.197438" stroke-miterlimit="10"/>
<path d="M39.1502 6.11847L39.7422 6.25549L39.8922 5.65541C39.5115 5.56828 39.1319 5.47627 38.7502 5.39453L38.5234 6.51374C38.8192 6.576 39.1129 6.64826 39.4076 6.71513C39.5545 6.7504 39.7028 6.78054 39.8486 6.82016L40.2847 6.94428L40.5926 5.84469C40.9767 5.95433 41.3626 6.05792 41.7385 6.1935L41.3802 7.27782C41.658 7.37365 41.9379 7.46315 42.2137 7.56424L43.0334 7.88804L43.4675 6.83188C43.1265 6.69907 42.7882 6.55836 42.4444 6.43318L42.2337 7.0147C42.4031 7.07143 42.5671 7.1433 42.734 7.20701" stroke="#E2DCCB" stroke-width="0.197438" stroke-miterlimit="10"/>
<path d="M42.1651 8.65534C41.9874 8.58782 41.8136 8.50963 41.632 8.45303L41.4228 9.03508C41.5895 9.08681 41.749 9.15789 41.9117 9.22014L42.3981 9.41219L42.8322 8.35603L42.0059 8.0296C41.727 7.93022 41.4455 7.83835 41.1655 7.74226L40.8095 8.82724C40.4745 8.70444 40.128 8.61835 39.786 8.51819L40.0916 7.41794L39.6764 7.29974L39.256 7.20154C38.9754 7.13797 38.6958 7.06887 38.4143 7.00977L38.1875 8.12897C38.507 8.19742 38.8244 8.27534 39.1431 8.34747L39.2914 7.747L38.8011 7.63367" stroke="#E2DCCB" stroke-width="0.197438" stroke-miterlimit="10"/>
<path d="M34.1704 5.50706L34.7774 5.52259L34.8072 4.90475L33.6373 4.875L33.6328 6.01685C34.237 6.03448 34.8419 6.03514 35.444 6.09451L35.5303 4.95582L36.1272 5.00162C36.326 5.01887 36.5236 5.04953 36.7218 5.07296L36.5836 6.20652C36.8746 6.24614 37.1673 6.27523 37.4569 6.32366L38.3245 6.47898L38.5424 5.35806C38.182 5.29449 37.8222 5.22618 37.461 5.1676L37.3686 5.77926C37.5454 5.80519 37.7206 5.84047 37.8967 5.87074" stroke="#E2DCCB" stroke-width="0.197438" stroke-miterlimit="10"/>
<path d="M37.631 7.40359C37.4434 7.37279 37.2577 7.33028 37.0687 7.30882L36.978 7.92062C37.323 7.97037 37.6647 8.04092 38.0084 8.09923L38.2263 6.97831L37.352 6.82168C37.0595 6.77561 36.7648 6.74455 36.4714 6.70506L36.3354 7.83888C36.1583 7.81913 35.9824 7.78715 35.8042 7.77701L35.2706 7.7366L35.3546 6.59778C34.7813 6.54079 34.2048 6.54408 33.6295 6.52539L33.625 7.66737L34.6061 7.69225L34.6342 7.0744L34.1308 7.06176" stroke="#E2DCCB" stroke-width="0.197438" stroke-miterlimit="10"/>
<path d="M36.1529 13.8305C35.6933 14.8833 34.6545 15.5636 33.5066 15.5636C32.3585 15.5636 31.3197 14.8833 30.8602 13.8305L30.7734 13.8684C31.2481 14.9557 32.321 15.6582 33.5066 15.6582C34.6923 15.6582 35.7651 14.9556 36.2397 13.8684L36.1529 13.8305Z" fill="#E2DCCB"/>
<path d="M35.64 13.57C35.2724 14.412 34.4417 14.956 33.5236 14.956C32.6054 14.956 31.7745 14.412 31.4071 13.57L31.3203 13.6079C31.7029 14.4844 32.5677 15.0508 33.5236 15.0508C34.4793 15.0508 35.3441 14.4844 35.7267 13.6079L35.64 13.57Z" fill="#E2DCCB"/>
<path d="M31.9305 13.3116L31.8438 13.3495C32.1344 14.0152 32.7912 14.4453 33.5171 14.4453C34.243 14.4453 34.8997 14.0152 35.1903 13.3495L35.1036 13.3116C34.8281 13.9428 34.2052 14.3507 33.5171 14.3507C32.8288 14.3507 32.206 13.9428 31.9305 13.3116Z" fill="#E2DCCB"/>
<path d="M34.5751 13.0533C34.3916 13.4737 33.9769 13.7452 33.5184 13.7452C33.06 13.7452 32.6452 13.4737 32.4617 13.0533L32.375 13.0912C32.5735 13.5461 33.0223 13.8398 33.5184 13.8398C34.0144 13.8398 34.4632 13.5459 34.6617 13.0912L34.5751 13.0533Z" fill="#E2DCCB"/>
<path d="M34.0621 12.7889C33.9707 12.9984 33.7639 13.1339 33.5354 13.1339C33.3069 13.1339 33.1001 12.9984 33.0086 12.7889L32.9219 12.8268C33.0284 13.0708 33.2692 13.2285 33.5354 13.2285C33.8015 13.2285 34.0423 13.0708 34.1488 12.8268L34.0621 12.7889Z" fill="#E2DCCB"/>
<path d="M36.1529 9.64686C35.6933 10.6997 34.6545 11.38 33.5066 11.38C32.3585 11.38 31.3197 10.6997 30.8602 9.64686L30.7734 9.68477C31.2481 10.7721 32.321 11.4746 33.5066 11.4746C34.6923 11.4746 35.7651 10.772 36.2397 9.68477L36.1529 9.64686Z" fill="#E2DCCB"/>
<path d="M35.64 9.38836C35.2724 10.2304 34.4417 10.7744 33.5236 10.7744C32.6054 10.7744 31.7745 10.2304 31.4071 9.38836L31.3203 9.42627C31.7029 10.3028 32.5677 10.8691 33.5236 10.8691C34.4793 10.8691 35.3441 10.3028 35.7267 9.42627L35.64 9.38836Z" fill="#E2DCCB"/>
<path d="M31.9305 9.12999L31.8438 9.16789C32.1344 9.83352 32.7912 10.2637 33.5171 10.2637C34.243 10.2637 34.8997 9.83352 35.1903 9.16789L35.1036 9.12999C34.8281 9.76113 34.2052 10.169 33.5171 10.169C32.8288 10.169 32.206 9.76126 31.9305 9.12999Z" fill="#E2DCCB"/>
<path d="M34.5751 8.86575C34.3916 9.28616 33.9769 9.55771 33.5184 9.55771C33.06 9.55771 32.6452 9.28616 32.4617 8.86575L32.375 8.90366C32.5735 9.35856 33.0223 9.65234 33.5184 9.65234C34.0144 9.65234 34.4632 9.35842 34.6617 8.90366L34.5751 8.86575Z" fill="#E2DCCB"/>
<path d="M34.0621 8.60725C33.9707 8.81679 33.7639 8.95224 33.5354 8.95224C33.3069 8.95224 33.1001 8.81679 33.0086 8.60725L32.9219 8.64515C33.0284 8.88919 33.2692 9.04688 33.5354 9.04688C33.8015 9.04688 34.0423 8.88919 34.1488 8.64515L34.0621 8.60725Z" fill="#E2DCCB"/>
<path d="M33.4811 11.7172C33.0214 12.77 31.9827 13.4503 30.8348 13.4503C29.6867 13.4503 28.6478 12.77 28.1883 11.7172L28.1016 11.7551C28.5762 12.8424 29.6491 13.5449 30.8348 13.5449C32.0203 13.5449 33.0932 12.8423 33.5678 11.7551L33.4811 11.7172Z" fill="#E2DCCB"/>
<path d="M32.9447 11.4587C32.5772 12.3007 31.7464 12.8448 30.8283 12.8448C29.9101 12.8448 29.0792 12.3008 28.7117 11.4587L28.625 11.4966C29.0076 12.3731 29.8724 12.9395 30.8283 12.9395C31.784 12.9395 32.6488 12.3731 33.0314 11.4966L32.9447 11.4587Z" fill="#E2DCCB"/>
<path d="M32.4317 11.1964C32.1561 11.8275 31.5334 12.2354 30.8451 12.2354C30.1568 12.2354 29.534 11.8275 29.2585 11.1964L29.1719 11.2343C29.4625 11.9001 30.1193 12.3301 30.8452 12.3301C31.5711 12.3301 32.2279 11.8999 32.5184 11.2343L32.4317 11.1964Z" fill="#E2DCCB"/>
<path d="M31.8798 10.9379C31.6963 11.3583 31.2816 11.6298 30.8231 11.6298C30.3647 11.6298 29.9499 11.3582 29.7664 10.9379L29.6797 10.9758C29.8783 11.4307 30.327 11.7246 30.8231 11.7246C31.3191 11.7246 31.7679 11.4307 31.9664 10.9758L31.8798 10.9379Z" fill="#E2DCCB"/>
<path d="M31.3668 10.6756C31.2754 10.8852 31.0686 11.0206 30.8401 11.0206C30.6116 11.0206 30.4048 10.8852 30.3133 10.6756L30.2266 10.7135C30.333 10.9575 30.5739 11.1152 30.8401 11.1152C31.1062 11.1152 31.347 10.9575 31.4536 10.7135L31.3668 10.6756Z" fill="#E2DCCB"/>
<path d="M38.8717 11.7172C38.4121 12.77 37.3733 13.4503 36.2254 13.4503C35.0773 13.4503 34.0384 12.77 33.5789 11.7172L33.4922 11.7551C33.9668 12.8424 35.0397 13.5449 36.2254 13.5449C37.4111 13.5449 38.4838 12.8423 38.9584 11.7551L38.8717 11.7172Z" fill="#E2DCCB"/>
<path d="M38.3509 11.4587C37.9833 12.3007 37.1526 12.8448 36.2345 12.8448C35.3163 12.8448 34.4855 12.3008 34.118 11.4587L34.0312 11.4966C34.4139 12.3731 35.2787 12.9395 36.2345 12.9395C37.1903 12.9395 38.055 12.3731 38.4377 11.4966L38.3509 11.4587Z" fill="#E2DCCB"/>
<path d="M37.8225 11.1964C37.5468 11.8275 36.9241 12.2354 36.236 12.2354C35.5477 12.2354 34.9249 11.8275 34.6494 11.1964L34.5625 11.2343C34.8531 11.9001 35.5099 12.3301 36.2359 12.3301C36.9618 12.3301 37.6184 11.8999 37.9091 11.2343L37.8225 11.1964Z" fill="#E2DCCB"/>
<path d="M37.2937 10.9379C37.1102 11.3583 36.6955 11.6298 36.2372 11.6298C35.7787 11.6298 35.364 11.3582 35.1805 10.9379L35.0938 10.9758C35.2924 11.4307 35.7411 11.7246 36.2372 11.7246C36.7331 11.7246 37.182 11.4307 37.3805 10.9758L37.2937 10.9379Z" fill="#E2DCCB"/>
<path d="M36.7575 10.6756C36.666 10.8852 36.4592 11.0206 36.2307 11.0206C36.0022 11.0206 35.7954 10.8852 35.7039 10.6756L35.6172 10.7135C35.7237 10.9575 35.9645 11.1152 36.2307 11.1152C36.4968 11.1152 36.7376 10.9575 36.8442 10.7135L36.7575 10.6756Z" fill="#E2DCCB"/>
<path d="M36.1529 49.6598C35.6933 48.6069 34.6545 47.9267 33.5066 47.9267C32.3585 47.9267 31.3197 48.6069 30.8602 49.6598L30.7734 49.6219C31.2481 48.5345 32.321 47.832 33.5066 47.832C34.6923 47.832 35.7651 48.5346 36.2397 49.6219L36.1529 49.6598Z" fill="#E2DCCB"/>
<path d="M35.64 49.9202C35.2724 49.0782 34.4417 48.5342 33.5236 48.5342C32.6054 48.5342 31.7745 49.0782 31.4071 49.9202L31.3203 49.8823C31.7029 49.0058 32.5677 48.4395 33.5236 48.4395C34.4793 48.4395 35.3441 49.0058 35.7267 49.8823L35.64 49.9202Z" fill="#E2DCCB"/>
<path d="M31.9305 50.1786L31.8438 50.1407C32.1344 49.4751 32.7912 49.0449 33.5171 49.0449C34.243 49.0449 34.8997 49.4751 35.1903 50.1407L35.1036 50.1786C34.8281 49.5475 34.2052 49.1396 33.5171 49.1396C32.8288 49.1396 32.206 49.5475 31.9305 50.1786Z" fill="#E2DCCB"/>
<path d="M34.5751 50.4409C34.3916 50.0205 33.9769 49.7489 33.5184 49.7489C33.06 49.7489 32.6452 50.0205 32.4617 50.4409L32.375 50.403C32.5735 49.9481 33.0223 49.6543 33.5184 49.6543C34.0144 49.6543 34.4632 49.9482 34.6617 50.403L34.5751 50.4409Z" fill="#E2DCCB"/>
<path d="M34.0621 50.6994C33.9707 50.4898 33.7639 50.3544 33.5354 50.3544C33.3069 50.3544 33.1001 50.4898 33.0086 50.6994L32.9219 50.6615C33.0284 50.4175 33.2692 50.2598 33.5354 50.2598C33.8015 50.2598 34.0423 50.4175 34.1488 50.6615L34.0621 50.6994Z" fill="#E2DCCB"/>
<path d="M36.1529 53.8434C35.6933 52.7905 34.6545 52.1103 33.5066 52.1103C32.3585 52.1103 31.3197 52.7905 30.8602 53.8434L30.7734 53.8055C31.2481 52.7181 32.321 52.0156 33.5066 52.0156C34.6923 52.0156 35.7651 52.7182 36.2397 53.8055L36.1529 53.8434Z" fill="#E2DCCB"/>
<path d="M35.64 54.1019C35.2724 53.2599 34.4417 52.7159 33.5236 52.7159C32.6054 52.7159 31.7745 53.2599 31.4071 54.1019L31.3203 54.064C31.7029 53.1875 32.5677 52.6211 33.5236 52.6211C34.4793 52.6211 35.3441 53.1875 35.7267 54.064L35.64 54.1019Z" fill="#E2DCCB"/>
<path d="M31.9305 54.3642L31.8438 54.3262C32.1344 53.6606 32.7912 53.2305 33.5171 53.2305C34.243 53.2305 34.8997 53.6606 35.1903 54.3262L35.1036 54.3642C34.8281 53.733 34.2052 53.3251 33.5171 53.3251C32.8288 53.3251 32.206 53.7329 31.9305 54.3642Z" fill="#E2DCCB"/>
<path d="M34.5751 54.6225C34.3916 54.2021 33.9769 53.9306 33.5184 53.9306C33.06 53.9306 32.6452 54.2021 32.4617 54.6225L32.375 54.5846C32.5735 54.1297 33.0223 53.8359 33.5184 53.8359C34.0144 53.8359 34.4632 54.1299 34.6617 54.5846L34.5751 54.6225Z" fill="#E2DCCB"/>
<path d="M34.0621 54.881C33.9707 54.6715 33.7639 54.536 33.5354 54.536C33.3069 54.536 33.1001 54.6715 33.0086 54.881L32.9219 54.8431C33.0284 54.5991 33.2692 54.4414 33.5354 54.4414C33.8015 54.4414 34.0423 54.5991 34.1488 54.8431L34.0621 54.881Z" fill="#E2DCCB"/>
<path d="M33.4811 51.7731C33.0214 50.7202 31.9827 50.04 30.8348 50.04C29.6867 50.04 28.6478 50.7202 28.1883 51.7731L28.1016 51.7351C28.5762 50.6478 29.6491 49.9453 30.8348 49.9453C32.0203 49.9453 33.0932 50.6479 33.5678 51.7351L33.4811 51.7731Z" fill="#E2DCCB"/>
<path d="M32.9447 52.0355C32.5772 51.1935 31.7464 50.6493 30.8283 50.6493C29.9101 50.6493 29.0792 51.1933 28.7117 52.0355L28.625 51.9976C29.0076 51.1211 29.8724 50.5547 30.8283 50.5547C31.784 50.5547 32.6488 51.1211 33.0314 51.9976L32.9447 52.0355Z" fill="#E2DCCB"/>
<path d="M32.4317 52.2938C32.1561 51.6627 31.5334 51.2548 30.8451 51.2548C30.1568 51.2548 29.534 51.6627 29.2585 52.2938L29.1719 52.2559C29.4625 51.5902 30.1193 51.1602 30.8452 51.1602C31.5711 51.1602 32.2279 51.5903 32.5184 52.2559L32.4317 52.2938Z" fill="#E2DCCB"/>
<path d="M31.8798 52.5543C31.6963 52.1339 31.2816 51.8623 30.8231 51.8623C30.3647 51.8623 29.9499 52.134 29.7664 52.5543L29.6797 52.5164C29.8783 52.0615 30.327 51.7676 30.8231 51.7676C31.3191 51.7676 31.7679 52.0615 31.9664 52.5164L31.8798 52.5543Z" fill="#E2DCCB"/>
<path d="M31.3668 52.8166C31.2754 52.607 31.0686 52.4716 30.8401 52.4716C30.6116 52.4716 30.4048 52.607 30.3133 52.8166L30.2266 52.7787C30.333 52.5346 30.5739 52.377 30.8401 52.377C31.1062 52.377 31.347 52.5346 31.4536 52.7787L31.3668 52.8166Z" fill="#E2DCCB"/>
<path d="M38.8717 51.7731C38.4121 50.7202 37.3733 50.04 36.2254 50.04C35.0773 50.04 34.0384 50.7202 33.5789 51.7731L33.4922 51.7351C33.9668 50.6478 35.0397 49.9453 36.2254 49.9453C37.4111 49.9453 38.4838 50.6479 38.9584 51.7351L38.8717 51.7731Z" fill="#E2DCCB"/>
<path d="M38.3509 52.0355C37.9833 51.1935 37.1526 50.6493 36.2345 50.6493C35.3163 50.6493 34.4855 51.1933 34.118 52.0355L34.0312 51.9976C34.4139 51.1211 35.2787 50.5547 36.2345 50.5547C37.1903 50.5547 38.055 51.1211 38.4377 51.9976L38.3509 52.0355Z" fill="#E2DCCB"/>
<path d="M37.8225 52.2938C37.5468 51.6627 36.9241 51.2548 36.236 51.2548C35.5477 51.2548 34.9249 51.6627 34.6494 52.2938L34.5625 52.2559C34.8531 51.5902 35.5099 51.1602 36.2359 51.1602C36.9618 51.1602 37.6184 51.5903 37.9091 52.2559L37.8225 52.2938Z" fill="#E2DCCB"/>
<path d="M37.2937 52.5543C37.1102 52.1339 36.6955 51.8623 36.2372 51.8623C35.7787 51.8623 35.364 52.134 35.1805 52.5543L35.0938 52.5164C35.2924 52.0615 35.7411 51.7676 36.2372 51.7676C36.7331 51.7676 37.182 52.0615 37.3805 52.5164L37.2937 52.5543Z" fill="#E2DCCB"/>
<path d="M36.7575 52.8166C36.666 52.607 36.4592 52.4716 36.2307 52.4716C36.0022 52.4716 35.7954 52.607 35.7039 52.8166L35.6172 52.7787C35.7237 52.5346 35.9645 52.377 36.2307 52.377C36.4968 52.377 36.7376 52.5346 36.8442 52.7787L36.7575 52.8166Z" fill="#E2DCCB"/>
<path d="M32.1117 3.14012C32.86 3.88841 34.0732 3.88841 34.8216 3.14012C35.5699 2.39183 35.5699 1.17864 34.8216 0.430357C34.0733 -0.317931 32.86 -0.317931 32.1117 0.430357C31.3634 1.17864 31.3634 2.39183 32.1117 3.14012ZM33.4666 0.667413L34.5844 1.78517L33.4666 2.90293L32.3489 1.78517L33.4666 0.667413Z" fill="#E2DCCB"/>
<path d="M32.1117 63.1616C32.86 63.9099 34.0732 63.9099 34.8216 63.1616C35.5699 62.4133 35.5699 61.2001 34.8216 60.4518C34.0733 59.7036 32.86 59.7036 32.1117 60.4518C31.3634 61.2001 31.3634 62.4133 32.1117 63.1616ZM33.4666 60.6889L34.5844 61.8067L33.4666 62.9244L32.3489 61.8067L33.4666 60.6889Z" fill="#E2DCCB"/>
<path d="M5.61473 29.7836C6.36302 30.5319 6.36302 31.7451 5.61473 32.4935C4.86644 33.2418 3.65325 33.2418 2.90497 32.4935C2.15668 31.7452 2.15668 30.5319 2.90497 29.7836C3.65325 29.0353 4.86644 29.0353 5.61473 29.7836ZM3.14202 31.1385L4.25978 32.2563L5.37754 31.1385L4.25978 30.0208L3.14202 31.1385Z" fill="#E2DCCB"/>
<path d="M64.8491 29.7836C65.5974 30.5319 65.5974 31.7451 64.8491 32.4935C64.1008 33.2418 62.8876 33.2418 62.1393 32.4935C61.3911 31.7452 61.3911 30.5319 62.1393 29.7836C62.8876 29.0353 64.1008 29.0353 64.8491 29.7836ZM62.3764 31.1385L63.4942 32.2563L64.6119 31.1385L63.4942 30.0208L62.3764 31.1385Z" fill="#E2DCCB"/>
</g>
<g filter="url(#filter1_d_4122_445)">
<path d="M35.6467 29.6957L44.1927 19.5332H42.1674L34.7471 28.357L28.8203 19.5332H21.9844L30.9468 32.8765L21.9844 43.5332H24.0097L31.846 34.215L38.105 43.5332H44.9409L35.6462 29.6957H35.6467ZM32.8728 32.9938L31.9646 31.6652L24.7394 21.0928H27.8502L33.6807 29.6252L34.5888 30.9538L42.1683 42.0445H39.0579L32.8728 32.9944V32.9938Z" fill="#D8DFB2"/>
</g>
<defs>
<filter id="filter0_d_4122_445" x="0.403999" y="-1.41045" width="66.2623" height="66.2643" filterUnits="userSpaceOnUse" color-interpolation-filters="sRGB">
<feFlood flood-opacity="0" result="BackgroundImageFix"/>
<feColorMatrix in="SourceAlpha" type="matrix" values="0 0 0 0 0 0 0 0 0 0 0 0 0 0 0 0 0 0 127 0" result="hardAlpha"/>
<feOffset/>
<feGaussianBlur stdDeviation="2.548"/>
<feComposite in2="hardAlpha" operator="out"/>
<feColorMatrix type="matrix" values="0 0 0 0 0.898039 0 0 0 0 0.764706 0 0 0 0 0.517647 0 0 0 0.54 0"/>
<feBlend mode="normal" in2="BackgroundImageFix" result="effect1_dropShadow_4122_445"/>
<feBlend mode="normal" in="SourceGraphic" in2="effect1_dropShadow_4122_445" result="shape"/>
</filter>
<filter id="filter1_d_4122_445" x="17.9844" y="19.5332" width="30.9531" height="34" filterUnits="userSpaceOnUse" color-interpolation-filters="sRGB">
<feFlood flood-opacity="0" result="BackgroundImageFix"/>
<feColorMatrix in="SourceAlpha" type="matrix" values="0 0 0 0 0 0 0 0 0 0 0 0 0 0 0 0 0 0 127 0" result="hardAlpha"/>
<feOffset dy="6"/>
<feGaussianBlur stdDeviation="2"/>
<feComposite in2="hardAlpha" operator="out"/>
<feColorMatrix type="matrix" values="0 0 0 0 0 0 0 0 0 0 0 0 0 0 0 0 0 0 0.25 0"/>
<feBlend mode="normal" in2="BackgroundImageFix" result="effect1_dropShadow_4122_445"/>
<feBlend mode="normal" in="SourceGraphic" in2="effect1_dropShadow_4122_445" result="shape"/>
</filter>
<clipPath id="clip0_4122_445">
<rect width="65.8125" height="65.8125" fill="white" transform="translate(0.625)"/>
</clipPath>
</defs>
</svg>
