<svg width="67" height="66" viewBox="0 0 67 66" fill="none" xmlns="http://www.w3.org/2000/svg">
<g clip-path="url(#clip0_4122_663)">
<g filter="url(#filter0_d_4122_663)">
<path d="M33.3486 59.7578C17.8894 59.7578 5.3125 47.1808 5.3125 31.7217C5.3125 16.2624 17.8894 3.68555 33.3486 3.68555C48.8077 3.68555 61.3848 16.2624 61.3848 31.7217C61.3848 47.1808 48.8077 59.7578 33.3486 59.7578ZM33.3486 5.26505C18.7604 5.26505 6.892 17.1334 6.892 31.7217C6.892 46.3099 18.7604 58.1783 33.3486 58.1783C47.9369 58.1783 59.8053 46.3099 59.8053 31.7217C59.8053 17.1334 47.9369 5.26505 33.3486 5.26505Z" fill="#E2DCCB"/>
</g>
<path d="M14.1612 57.7932L14.4802 57.4743C14.6034 57.3511 14.665 57.1893 14.665 57.0274C14.665 56.8655 14.6034 56.7038 14.4802 56.5806L14.2709 56.3713C14.0245 56.1249 13.6236 56.1249 13.3772 56.3713L13.0591 56.6893L12.2458 55.8761L12.6239 55.4981C12.7306 55.3915 12.7838 55.2514 12.7838 55.1114C12.7838 54.9712 12.7303 54.8312 12.6239 54.7244L12.4812 54.5819C12.4275 54.528 12.3642 54.4876 12.2955 54.4605C12.3352 54.4221 12.3602 54.3684 12.3602 54.309C12.3602 54.2613 12.3436 54.2176 12.3167 54.1822H12.3902C12.5065 54.1822 12.6016 54.0871 12.6016 53.9709C12.6016 53.8546 12.5065 53.7595 12.3902 53.7595H12.1648V53.2879C12.2735 53.2796 12.3602 53.1889 12.3602 53.0782C12.3602 52.9673 12.2736 52.8768 12.1648 52.8685V50.2793H12.0238V52.869C11.9177 52.8799 11.8339 52.9693 11.8339 53.0782C11.8339 53.187 11.9177 53.2764 12.0238 53.2873V53.7596H11.7983C11.6821 53.7596 11.5869 53.8548 11.5869 53.971C11.5869 54.0872 11.6821 54.1824 11.7983 54.1824H11.8774C11.8506 54.2179 11.8339 54.2615 11.8339 54.3091C11.8339 54.3678 11.8582 54.421 11.897 54.4593C11.8269 54.4864 11.7621 54.5271 11.7072 54.582L11.5645 54.7245C11.3511 54.938 11.3512 55.2851 11.5645 55.4982L11.9426 55.8763L11.1293 56.6894L10.8113 56.3714C10.5649 56.125 10.1639 56.125 9.91752 56.3714L9.70824 56.5807C9.46184 56.8271 9.46184 57.2282 9.70824 57.4744L10.0272 57.7934L9.72785 58.0927C9.47026 58.3503 9.47026 58.7679 9.72785 59.0255L9.91752 59.2152C10.0541 59.3518 10.2422 59.4183 10.4381 59.3962C10.5897 59.3791 10.7273 59.2992 10.8352 59.1912L11.1293 58.8972L11.9172 59.6851L11.5448 60.0576C11.3382 60.2641 11.3382 60.6248 11.5448 60.8313L11.6874 60.974C11.9007 61.1872 12.2478 61.1872 12.461 60.974L12.6037 60.8313C12.7105 60.7245 12.7637 60.5845 12.7637 60.4444C12.7637 60.3044 12.7103 60.1642 12.6037 60.0576L12.2511 59.7048L13.0589 58.8971L13.3769 59.2151C13.4963 59.3344 13.655 59.4003 13.8238 59.4003C13.9925 59.4003 14.1512 59.3344 14.2706 59.2151L14.4799 59.0058C14.6031 58.8826 14.6647 58.7208 14.6647 58.5589C14.6647 58.397 14.6031 58.2352 14.4799 58.112L14.1612 57.7932ZM11.9324 57.7932L11.1304 58.5952L10.3295 57.7942L11.1315 56.9922L11.9324 57.7932ZM12.0943 57.955L12.8963 58.757L12.0943 59.559L11.2923 58.757L12.0943 57.955ZM13.0581 58.5951L12.2561 57.7931L13.0581 56.9911L13.8601 57.7931L13.0581 58.5951ZM12.0943 57.6313L11.2933 56.8303L12.0951 56.0283L12.8962 56.8294L12.0943 57.6313ZM13.5276 56.5217C13.6909 56.3584 13.9568 56.3584 14.1203 56.5217L14.3296 56.731C14.4929 56.8945 14.4929 57.1603 14.3296 57.3237L14.0107 57.6427L13.2087 56.8407L13.5276 56.5217ZM11.7154 54.8747L11.8581 54.7322C11.9213 54.669 12.0052 54.6342 12.0943 54.6342C12.1836 54.6342 12.2676 54.669 12.3306 54.7322L12.4733 54.8747C12.6036 55.005 12.6035 55.2169 12.4733 55.3473L12.0943 55.7262L11.7154 55.3473C11.5851 55.2171 11.5848 55.0052 11.7154 54.8747ZM9.85895 57.3237C9.6956 57.1603 9.6956 56.8945 9.85895 56.731L10.0682 56.5217C10.2316 56.3584 10.4975 56.3584 10.6608 56.5217L10.9797 56.8407L10.1777 57.6427L9.85895 57.3237ZM10.6609 59.0646C10.5818 59.1437 10.4765 59.1874 10.3647 59.1874C10.2528 59.1874 10.1475 59.1438 10.0684 59.0646L9.85908 58.8553C9.77747 58.7736 9.73654 58.6663 9.73654 58.559C9.73654 58.4518 9.77747 58.3445 9.85908 58.2627L10.178 57.9438L10.98 58.7458L10.6609 59.0646ZM12.4534 60.6807L12.3107 60.8234C12.1804 60.9536 11.9685 60.9536 11.8382 60.8234L11.6956 60.6807C11.6325 60.6175 11.5978 60.5337 11.5978 60.4444C11.5978 60.3552 11.6326 60.2713 11.6956 60.2082L12.0746 59.8292L12.4535 60.2082C12.5837 60.3385 12.5837 60.5504 12.4534 60.6807ZM14.3296 58.8553L14.1203 59.0646C14.0412 59.1437 13.9359 59.1874 13.824 59.1874C13.712 59.1874 13.6068 59.1438 13.5277 59.0646L13.2096 58.7466L14.0116 57.9446L14.3296 58.2626C14.4928 58.426 14.4929 58.6917 14.3296 58.8553Z" fill="#E2DCCB"/>
<path d="M12.1713 62.0332V61.8486H12.3968C12.513 61.8486 12.6082 61.7534 12.6082 61.6372C12.6082 61.5209 12.513 61.4258 12.3968 61.4258H11.805C11.6888 61.4258 11.5936 61.5209 11.5936 61.6372C11.5936 61.7534 11.6888 61.8486 11.805 61.8486H12.0304V62.0332H11.8069L11.5 63.96C11.5 63.96 11.81 64.1573 12.2046 64.1291C12.5991 64.1009 12.74 63.9036 12.74 63.9036L12.3819 62.0334H12.1713V62.0332Z" fill="#E2DCCB"/>
<path d="M55.8877 57.7932L56.2066 57.4743C56.3298 57.3511 56.3914 57.1893 56.3914 57.0274C56.3914 56.8655 56.3298 56.7038 56.2066 56.5806L55.9972 56.3713C55.7508 56.1249 55.3499 56.1249 55.1035 56.3713L54.7855 56.6893L53.9721 55.8761L54.3502 55.4981C54.4568 55.3915 54.5101 55.2514 54.5101 55.1114C54.5101 54.9712 54.4567 54.8312 54.3502 54.7244L54.2075 54.5819C54.1538 54.528 54.0905 54.4876 54.0218 54.4605C54.0615 54.4221 54.0865 54.3684 54.0865 54.309C54.0865 54.2613 54.0699 54.2176 54.043 54.1822H54.1165C54.2328 54.1822 54.3279 54.0871 54.3279 53.9709C54.3279 53.8546 54.2328 53.7595 54.1165 53.7595H53.8911V53.2879C53.9998 53.2796 54.0865 53.1889 54.0865 53.0782C54.0865 52.9673 53.9999 52.8768 53.8911 52.8685V50.2793H53.7502V52.869C53.6441 52.8799 53.5603 52.9693 53.5603 53.0782C53.5603 53.187 53.6441 53.2764 53.7502 53.2873V53.7596H53.5247C53.4085 53.7596 53.3134 53.8548 53.3134 53.971C53.3134 54.0872 53.4085 54.1824 53.5247 54.1824H53.6039C53.577 54.2179 53.5603 54.2615 53.5603 54.3091C53.5603 54.3678 53.5846 54.421 53.6235 54.4593C53.5533 54.4864 53.4885 54.5271 53.4338 54.582L53.2911 54.7245C53.0776 54.938 53.0777 55.2851 53.2911 55.4982L53.6691 55.8763L52.8558 56.6894L52.5378 56.3714C52.2914 56.125 51.8905 56.125 51.6441 56.3714L51.4348 56.5807C51.1884 56.8271 51.1884 57.2282 51.4348 57.4744L51.7537 57.7934L51.4544 58.0927C51.1968 58.3503 51.1968 58.7679 51.4544 59.0255L51.6441 59.2152C51.7807 59.3518 51.9689 59.4183 52.1647 59.3962C52.3163 59.3791 52.454 59.2992 52.5618 59.1912L52.8558 58.8972L53.6437 59.6851L53.2714 60.0576C53.0647 60.2641 53.0647 60.6248 53.2714 60.8313L53.4139 60.974C53.6273 61.1872 53.9744 61.1872 54.1876 60.974L54.3303 60.8313C54.437 60.7245 54.4903 60.5845 54.4903 60.4444C54.4903 60.3044 54.437 60.1642 54.3303 60.0576L53.9777 59.7048L54.7855 58.8971L55.1035 59.2151C55.2228 59.3344 55.3816 59.4003 55.5503 59.4003C55.7191 59.4003 55.8778 59.3344 55.9972 59.2151L56.2066 59.0058C56.3298 58.8826 56.3914 58.7208 56.3914 58.5589C56.3914 58.397 56.3298 58.2352 56.2066 58.112L55.8877 57.7932ZM53.6589 57.7932L52.8569 58.5952L52.0559 57.7942L52.8579 56.9922L53.6589 57.7932ZM53.8208 57.955L54.6228 58.757L53.8208 59.559L53.0188 58.757L53.8208 57.955ZM54.7847 58.5951L53.9827 57.7931L54.7847 56.9911L55.5866 57.7931L54.7847 58.5951ZM53.8208 57.6313L53.0197 56.8303L53.8216 56.0283L54.6226 56.8294L53.8208 57.6313ZM55.254 56.5217C55.4174 56.3584 55.6833 56.3584 55.8467 56.5217L56.0562 56.731C56.2195 56.8945 56.2195 57.1603 56.0562 57.3237L55.7372 57.6427L54.9352 56.8407L55.254 56.5217ZM53.4418 54.8747L53.5845 54.7322C53.6477 54.669 53.7317 54.6342 53.8208 54.6342C53.91 54.6342 53.9939 54.669 54.057 54.7322L54.1997 54.8747C54.33 55.005 54.3298 55.2169 54.1997 55.3473L53.8208 55.7262L53.4418 55.3473C53.3115 55.2171 53.3114 55.0052 53.4418 54.8747ZM51.5855 57.3237C51.4222 57.1603 51.4222 56.8945 51.5855 56.731L51.7948 56.5217C51.9581 56.3584 52.224 56.3584 52.3875 56.5217L52.7064 56.8407L51.9044 57.6427L51.5855 57.3237ZM52.3875 59.0646C52.3083 59.1437 52.2031 59.1874 52.0912 59.1874C51.9793 59.1874 51.874 59.1438 51.7949 59.0646L51.5856 58.8553C51.504 58.7736 51.4631 58.6663 51.4631 58.559C51.4631 58.4518 51.504 58.3445 51.5856 58.2627L51.9046 57.9438L52.7066 58.7458L52.3875 59.0646ZM54.1798 60.6807L54.0372 60.8234C53.9069 60.9536 53.6949 60.9536 53.5646 60.8234L53.4221 60.6807C53.3589 60.6175 53.3241 60.5337 53.3241 60.4444C53.3241 60.3552 53.3589 60.2713 53.4221 60.2082L53.8009 59.8292L54.1798 60.2082C54.3102 60.3385 54.3102 60.5504 54.1798 60.6807ZM56.056 58.8553L55.8466 59.0646C55.7675 59.1437 55.6622 59.1874 55.5503 59.1874C55.4384 59.1874 55.3331 59.1438 55.254 59.0646L54.9362 58.7466L55.7381 57.9446L56.0562 58.2626C56.2194 58.426 56.2195 58.6917 56.056 58.8553Z" fill="#E2DCCB"/>
<path d="M53.8822 62.0332V61.8486H54.1077C54.2239 61.8486 54.3191 61.7534 54.3191 61.6372C54.3191 61.5209 54.2239 61.4258 54.1077 61.4258H53.5159C53.3997 61.4258 53.3045 61.5209 53.3045 61.6372C53.3045 61.7534 53.3997 61.8486 53.5159 61.8486H53.7414V62.0332H53.5179L53.2109 63.96C53.2109 63.96 53.5209 64.1573 53.9154 64.1291C54.3099 64.1009 54.4508 63.9036 54.4508 63.9036L54.0927 62.0334H53.8822V62.0332Z" fill="#E2DCCB"/>
<path d="M28.9737 5.87074C29.1736 5.83784 29.3715 5.79335 29.5728 5.77018L29.4822 5.15826C29.0959 5.21407 28.7129 5.29172 28.3281 5.35806L28.5461 6.47898L29.4388 6.31919C29.7373 6.2722 30.0381 6.24021 30.3376 6.20007L30.2017 5.06625C30.4 5.04401 30.5972 5.00965 30.7965 4.99754L31.3934 4.95174L31.4774 6.09056C32.0626 6.03264 32.6507 6.03554 33.2379 6.01685L33.2334 4.875L32.1366 4.90277L32.1646 5.52062L32.7002 5.50693" stroke="#E2DCCB" stroke-width="0.197438" stroke-miterlimit="10"/>
<path d="M32.7361 7.06176L32.1657 7.07598L32.1954 7.69383L33.242 7.66737L33.2375 6.52539C32.6454 6.54303 32.0526 6.54329 31.4627 6.6016L31.549 7.74029L31.0154 7.7807C30.8377 7.79584 30.6615 7.82413 30.4844 7.84493L30.3462 6.71138C30.0611 6.75034 29.7743 6.77851 29.4905 6.82602L28.6406 6.97818L28.8586 8.0991C29.1805 8.04303 29.5016 7.9813 29.8241 7.92865L29.7317 7.31698C29.5657 7.34133 29.4013 7.3749 29.236 7.4032" stroke="#E2DCCB" stroke-width="0.197438" stroke-miterlimit="10"/>
<path d="M24.1477 7.20688C24.337 7.13488 24.5223 7.05235 24.7157 6.99154L24.5066 6.40949C24.3202 6.46833 24.141 6.54664 23.9587 6.61654L23.4141 6.83174L23.8482 7.8879L24.6916 7.55476C24.9762 7.45328 25.2637 7.3593 25.5495 7.26137L25.1936 6.17638C25.5694 6.04028 25.9569 5.9417 26.3404 5.83008L26.646 6.93033L27.0698 6.80976L27.4989 6.70946C27.7855 6.64444 28.0708 6.57415 28.3583 6.51374L28.1315 5.39453C27.7736 5.47074 27.4177 5.55735 27.0609 5.63883L27.2092 6.2393L27.7315 6.11834" stroke="#E2DCCB" stroke-width="0.197438" stroke-miterlimit="10"/>
<path d="M28.062 7.63354L27.5063 7.762L27.6563 8.36208C27.9963 8.28521 28.335 8.20229 28.6756 8.12897L28.4488 7.00977C28.1591 7.07084 27.8715 7.14179 27.5829 7.2072C27.4389 7.24182 27.2937 7.27117 27.1509 7.31L26.7238 7.43162L27.0316 8.53122C26.6889 8.62928 26.344 8.72036 26.0089 8.84251L25.6508 7.75819C25.3788 7.85217 25.1044 7.9397 24.8343 8.03868L24.0312 8.35589L24.4653 9.41205C24.7701 9.29425 25.0716 9.16763 25.3787 9.05588L25.1678 8.47436C25.0087 8.5274 24.855 8.59545 24.6983 8.65508" stroke="#E2DCCB" stroke-width="0.197438" stroke-miterlimit="10"/>
<path d="M19.6683 9.46634C19.8399 9.35906 20.0063 9.24323 20.1824 9.1432L19.8634 8.61327C19.529 8.8144 19.2045 9.03171 18.875 9.24073L19.5071 10.1917L20.2702 9.70208C20.5272 9.54307 20.7926 9.39815 21.0535 9.24547L20.4917 8.2513C20.834 8.04544 21.1928 7.86972 21.5476 7.68677L22.0634 8.70554L22.4555 8.50455C22.5879 8.44111 22.7227 8.38254 22.8561 8.3212C23.1244 8.20142 23.39 8.07572 23.6604 7.96094L23.2178 6.9082C22.8815 7.05233 22.55 7.20778 22.216 7.3577L22.4795 7.91737L22.9679 7.69624" stroke="#E2DCCB" stroke-width="0.197438" stroke-miterlimit="10"/>
<path d="M23.609 9.1169L23.0893 9.35211L23.3544 9.91099C23.6728 9.76897 23.9883 9.6205 24.3085 9.48242L23.8659 8.42969C23.5935 8.54565 23.3257 8.67227 23.0554 8.79297C22.9211 8.85536 22.7841 8.91196 22.6522 8.97922L22.2569 9.18192L22.7748 10.1998L22.2987 10.4437C22.1389 10.5231 21.9883 10.6193 21.8326 10.7061L21.2688 9.71303C21.0209 9.859 20.7668 9.9951 20.5236 10.1488L19.7969 10.6152L20.4289 11.5662L21.2554 11.0378L20.9349 10.5088C20.7917 10.5961 20.652 10.6893 20.5103 10.7792" stroke="#E2DCCB" stroke-width="0.197438" stroke-miterlimit="10"/>
<path d="M15.7139 12.5519L16.1541 12.1336L15.7383 11.6757L14.8906 12.4827L15.6949 13.2932L16.351 12.6675C16.4585 12.5612 16.5723 12.4617 16.6873 12.3637L17.0299 12.0667L16.2859 11.2005C16.4377 11.0711 16.5852 10.9365 16.7409 10.8118L17.2113 10.4415L17.9154 11.3405C18.3696 10.9673 18.8595 10.6415 19.3356 10.2976L18.696 9.35156L17.8016 9.98757L18.1691 10.4851L18.6056 10.1744" stroke="#E2DCCB" stroke-width="0.197438" stroke-miterlimit="10"/>
<path d="M19.505 11.4424L19.0399 11.7731L19.4088 12.2696L20.2614 11.6628L19.6219 10.7168C19.1412 11.0627 18.6491 11.3935 18.1911 11.7697L18.897 12.6673L18.4761 12.9979L18.0711 13.3477L17.3253 12.4831L16.999 12.7658L16.8359 12.9073L16.6796 13.0563L16.0547 13.6522L16.8589 14.4628L17.5692 13.7856L17.152 13.3289L16.7877 13.6765" stroke="#E2DCCB" stroke-width="0.197438" stroke-miterlimit="10"/>
<path d="M12.4322 16.344L12.7844 15.8492L12.2879 15.4804L11.6094 16.4343L12.5554 17.0739C12.908 16.5831 13.246 16.0812 13.6298 15.6136L12.7321 14.9077L13.1024 14.4374L13.4931 13.984L14.3577 14.7298L14.6462 14.3968L14.7906 14.2304L14.9426 14.0709L15.5508 13.4331L14.7401 12.6289L13.983 13.4231L14.4397 13.8401L14.8093 13.4522" stroke="#E2DCCB" stroke-width="0.197438" stroke-miterlimit="10"/>
<path d="M15.9438 14.5242L15.5504 14.9375L16.0083 15.3533L16.7303 14.5952L15.9196 13.791L15.3065 14.434C15.2023 14.5393 15.1049 14.6508 15.0088 14.7636L14.7179 15.0994L15.5841 15.8434C15.4685 15.9793 15.3474 16.1106 15.2361 16.25L14.9054 16.671L14.0064 15.9669C13.6405 16.4118 13.3217 16.8921 12.9844 17.3584L13.9304 17.998L14.4992 17.1987L14.0017 16.8312L13.7099 17.2414" stroke="#E2DCCB" stroke-width="0.197438" stroke-miterlimit="10"/>
<path d="M9.96759 20.7003L10.2183 20.1469L9.65946 19.8819C9.49954 20.2379 9.33395 20.5917 9.17969 20.9503L10.2324 21.3928C10.3508 21.1147 10.4799 20.8413 10.6032 20.5654C10.6669 20.4284 10.7248 20.2886 10.7934 20.1539L11.0003 19.7505L9.98247 19.2327L10.256 18.7C10.3455 18.5215 10.452 18.3524 10.5494 18.1781L11.5425 18.7419C11.6914 18.4886 11.8305 18.2296 11.9874 17.9812L12.4633 17.2395L11.5123 16.6074C11.3153 16.9157 11.1152 17.2221 10.9215 17.5323L11.4505 17.8529C11.5434 17.7003 11.6423 17.5514 11.738 17.4006" stroke="#E2DCCB" stroke-width="0.197438" stroke-miterlimit="10"/>
<path d="M13.0448 18.2368C12.9441 18.3981 12.8347 18.5541 12.741 18.7196L13.271 19.0387C13.4506 18.7399 13.6458 18.4505 13.8318 18.1555L12.8808 17.5234L12.401 18.2711C12.2452 18.5227 12.1034 18.7831 11.9538 19.0386L12.9479 19.6003C12.7629 19.9056 12.6074 20.2269 12.4437 20.5436L11.4248 20.0279L11.2277 20.4121C11.1656 20.5419 11.1082 20.6739 11.0483 20.8047C10.9311 21.0674 10.8077 21.3277 10.6953 21.5926L11.748 22.0351C11.877 21.7349 12.0166 21.4392 12.1496 21.1408L11.59 20.8772L11.3824 21.3357" stroke="#E2DCCB" stroke-width="0.197438" stroke-miterlimit="10"/>
<path d="M8.38019 25.462L8.51721 24.87L7.91713 24.72C7.83 25.1007 7.73799 25.4803 7.65625 25.862L8.77546 26.0888C8.83772 25.793 8.90998 25.4993 8.97684 25.2046C9.01212 25.0577 9.04226 24.9094 9.08188 24.7636L9.206 24.3275L8.10641 24.0196C8.21605 23.6355 8.31964 23.2496 8.45521 22.8737L9.53954 23.2318C9.63536 22.9541 9.72487 22.6741 9.82596 22.3984L10.1498 21.5786L9.0936 21.1445C8.96079 21.4856 8.82008 21.8238 8.6949 22.1677L9.27642 22.3785C9.33315 22.2091 9.40502 22.0451 9.46873 21.8782" stroke="#E2DCCB" stroke-width="0.197438" stroke-miterlimit="10"/>
<path d="M10.9268 22.4386C10.8593 22.6163 10.7811 22.79 10.7245 22.9716L11.3066 23.1808C11.3583 23.0143 11.4294 22.8546 11.4916 22.6919L11.6837 22.2056L10.6275 21.7715L10.3011 22.5977C10.2017 22.8766 10.1098 23.1582 10.0137 23.4381L11.0987 23.7942C10.9759 24.1292 10.8898 24.4756 10.7897 24.8177L9.68942 24.512L9.57122 24.9272L9.47303 25.3476C9.40945 25.6282 9.34035 25.9078 9.28125 26.1893L10.4005 26.4161C10.4689 26.0967 10.5468 25.7792 10.619 25.4605L10.0185 25.3122L9.90515 25.8025" stroke="#E2DCCB" stroke-width="0.197438" stroke-miterlimit="10"/>
<path d="M7.7805 30.4383L7.79603 29.8314L7.17818 29.8017L7.14844 30.9715L8.29028 30.976C8.30792 30.3719 8.30858 29.7669 8.36794 29.1649L7.22926 29.0785L7.27506 28.4816C7.2923 28.2828 7.32297 28.0853 7.3464 27.887L8.47996 28.0253C8.51958 27.7342 8.54866 27.4415 8.5971 27.1519L8.75242 26.2844L7.6315 26.0664C7.56793 26.4268 7.49961 26.7867 7.44104 27.1478L8.0527 27.2402C8.07863 27.0635 8.11391 26.8883 8.14418 26.7122" stroke="#E2DCCB" stroke-width="0.197438" stroke-miterlimit="10"/>
<path d="M9.65932 26.9762C9.62852 27.1638 9.586 27.3495 9.56455 27.5385L10.1765 27.6292C10.2262 27.2842 10.2968 26.9425 10.3551 26.5988L9.23417 26.3809L9.07754 27.2552C9.03147 27.5477 9.00041 27.8424 8.96092 28.1358L10.0947 28.2718C10.075 28.449 10.043 28.6248 10.0329 28.803L9.99246 29.3366L8.85364 29.2527C8.79652 29.8259 8.79994 30.4024 8.78125 30.9777L9.92323 30.9822L9.94811 30.0011L9.33013 29.973L9.31749 30.4764" stroke="#E2DCCB" stroke-width="0.197438" stroke-miterlimit="10"/>
<path d="M8.14418 35.4378C8.11127 35.238 8.06679 35.0401 8.04362 34.8388L7.43169 34.9295C7.4875 35.3158 7.56516 35.6988 7.6315 36.0836L8.75242 35.8656L8.59263 34.9729C8.54564 34.6744 8.51365 34.3736 8.47351 34.0741L7.33969 34.21C7.31744 34.0117 7.28309 33.8145 7.27098 33.6152L7.22517 33.0183L8.36399 32.9343C8.30608 32.3491 8.30898 31.761 8.29028 31.1738L7.14844 31.1783L7.17621 32.2751L7.79406 32.2471L7.78037 31.7115" stroke="#E2DCCB" stroke-width="0.197438" stroke-miterlimit="10"/>
<path d="M9.31762 31.6717L9.33184 32.2423L9.94969 32.2126L9.92323 31.166L8.78125 31.1705C8.79889 31.7625 8.79915 32.3554 8.85746 32.9453L9.99615 32.859L10.0366 33.3926C10.0517 33.5703 10.08 33.7465 10.1009 33.9236L8.96737 34.0618C9.00633 34.3469 9.0345 34.6337 9.08201 34.9175L9.23417 35.7674L10.3551 35.5494C10.299 35.2274 10.2373 34.9064 10.1846 34.5839L9.57297 34.6763C9.59732 34.8423 9.63089 35.0067 9.65919 35.172" stroke="#E2DCCB" stroke-width="0.197438" stroke-miterlimit="10"/>
<path d="M9.47628 40.2711C9.40428 40.0818 9.32175 39.8965 9.26107 39.7031L8.67902 39.9123C8.73786 40.0987 8.81618 40.2778 8.88607 40.4601L9.10128 41.0048L10.1574 40.5707L9.82429 39.7272C9.72281 39.4427 9.62883 39.1552 9.5309 38.8693L8.44591 39.2252C8.30981 38.8494 8.21123 38.4619 8.09961 38.0785L9.19986 37.7729L9.07929 37.349L8.979 36.9199C8.91397 36.6334 8.84369 36.348 8.78327 36.0605L7.66406 36.2873C7.74027 36.6454 7.82688 37.0011 7.90836 37.358L8.50883 37.2096L8.38787 36.6873" stroke="#E2DCCB" stroke-width="0.197438" stroke-miterlimit="10"/>
<path d="M9.89721 36.348L10.0257 36.9037L10.6258 36.7537C10.5489 36.4137 10.466 36.075 10.3926 35.7344L9.27344 35.9612C9.33451 36.2509 9.40546 36.5385 9.47088 36.8271C9.50549 36.9711 9.53485 37.1163 9.57367 37.2591L9.6953 37.6862L10.7949 37.3784C10.893 37.7211 10.984 38.066 11.1062 38.4011L10.0219 38.7592C10.1158 39.0312 10.2034 39.3056 10.3024 39.5757L10.6196 40.3788L11.6757 39.9447C11.5579 39.64 11.4313 39.3384 11.3195 39.0313L10.738 39.2422C10.7911 39.4013 10.8591 39.5551 10.9188 39.7117" stroke="#E2DCCB" stroke-width="0.197438" stroke-miterlimit="10"/>
<path d="M11.7378 44.746C11.6305 44.5743 11.5147 44.4079 11.4147 44.2318L10.8848 44.5509C11.0859 44.8852 11.3032 45.2097 11.5122 45.5393L12.4632 44.9072L11.9736 44.144C11.8146 43.8871 11.6696 43.6216 11.517 43.3607L10.5228 43.9225C10.3169 43.5803 10.1412 43.2215 9.95825 42.8666L10.977 42.3509L10.776 41.9588C10.7126 41.8264 10.654 41.6916 10.5927 41.5581C10.4729 41.2899 10.3472 41.0243 10.2324 40.7539L9.17969 41.1964C9.32382 41.5327 9.47927 41.8643 9.62919 42.1982L10.1889 41.9347L9.96773 41.4465" stroke="#E2DCCB" stroke-width="0.197438" stroke-miterlimit="10"/>
<path d="M11.3825 40.8147L11.6177 41.3343L12.1766 41.0693C12.0346 40.7508 11.8861 40.4353 11.748 40.1152L10.6953 40.5578C10.8113 40.8302 10.9379 41.0979 11.0586 41.3683C11.121 41.5026 11.1776 41.6396 11.2448 41.7715L11.4475 42.1667L12.4654 41.6489L12.7093 42.125C12.7887 42.2848 12.8849 42.4354 12.9718 42.5911L11.9788 43.1548C12.1246 43.4028 12.2609 43.6569 12.4146 43.9001L12.8809 44.6268L13.8319 43.9947L13.3036 43.1683L12.7746 43.4888C12.8619 43.632 12.9551 43.7716 13.045 43.9134" stroke="#E2DCCB" stroke-width="0.197438" stroke-miterlimit="10"/>
<path d="M14.8096 48.6957L14.3913 48.2556L13.9333 48.6714L14.7403 49.5191L15.551 48.7148L14.9253 48.0587C14.8191 47.9511 14.7195 47.8374 14.6215 47.7224L14.3245 47.3798L13.4583 48.1238C13.3289 47.9719 13.1943 47.8245 13.0696 47.6688L12.6994 47.1985L13.5984 46.4945C13.2251 46.0402 12.8993 45.5503 12.5554 45.0742L11.6094 45.7138L12.2454 46.6082L12.7429 46.2407L12.4322 45.8042" stroke="#E2DCCB" stroke-width="0.197438" stroke-miterlimit="10"/>
<path d="M13.71 44.9088L14.0407 45.3738L14.5372 45.005L13.9304 44.1523L12.9844 44.7919C13.3303 45.2726 13.6611 45.7646 14.0372 46.2227L14.9349 45.5168L15.2654 45.9377L15.6153 46.3427L14.7507 47.0886L15.0334 47.4149L15.1749 47.578L15.3239 47.7343L15.9197 48.3592L16.7304 47.555L16.0532 46.8447L15.5965 47.2617L15.9441 47.6261" stroke="#E2DCCB" stroke-width="0.197438" stroke-miterlimit="10"/>
<path d="M18.6056 51.9721L18.111 51.6199L17.7421 52.1164L18.696 52.7949L19.3356 51.8489C18.8448 51.4961 18.3429 51.1583 17.8754 50.7745L17.1694 51.6721L16.6992 51.3019L16.2457 50.9112L16.9915 50.0466L16.6585 49.758L16.4921 49.6136L16.3326 49.4616L15.6949 48.8535L14.8906 49.6641L15.6848 50.4213L16.1018 49.9646L15.7139 49.595" stroke="#E2DCCB" stroke-width="0.197438" stroke-miterlimit="10"/>
<path d="M16.7878 48.4699L17.2011 48.8634L17.6169 48.4054L16.8589 47.6836L16.0547 48.4941L16.6977 49.1073C16.803 49.2115 16.9145 49.3089 17.0273 49.405L17.363 49.6959L18.1071 48.8297C18.243 48.9452 18.3743 49.0663 18.5137 49.1777L18.9346 49.5083L18.2306 50.4073C18.6756 50.7732 19.1558 51.092 19.6221 51.4294L20.2617 50.4834L19.4623 49.9145L19.0948 50.412L19.5051 50.7039" stroke="#E2DCCB" stroke-width="0.197438" stroke-miterlimit="10"/>
<path d="M22.9679 54.4547L22.4145 54.2041L22.1494 54.763C22.5056 54.9229 22.8593 55.0885 23.2178 55.2428L23.6604 54.19C23.3822 54.0717 23.1088 53.9424 22.833 53.8192C22.6959 53.7555 22.5562 53.6976 22.4215 53.629L22.0181 53.4221L21.5003 54.4399L20.9676 54.1663C20.7891 54.0768 20.62 53.9703 20.4457 53.8729L21.0094 52.8798C20.7562 52.731 20.4971 52.5918 20.2488 52.4349L19.5071 51.959L18.875 52.91C19.1833 53.107 19.4897 53.3071 19.7999 53.5008L20.1204 52.9718C19.9679 52.8789 19.819 52.7801 19.6682 52.6844" stroke="#E2DCCB" stroke-width="0.197438" stroke-miterlimit="10"/>
<path d="M20.5103 51.371C20.6715 51.4717 20.8275 51.581 20.9931 51.6748L21.3121 51.1448C21.0134 50.9652 20.7239 50.77 20.4289 50.584L19.7969 51.535L20.5445 52.0147C20.7962 52.1706 21.0565 52.3124 21.312 52.462L21.8738 51.4678C22.179 51.6529 22.5003 51.8084 22.817 51.9721L22.3013 52.991L22.6854 53.1881C22.8152 53.2502 22.9472 53.3076 23.078 53.3675C23.3409 53.4847 23.6011 53.6081 23.8659 53.7206L24.3085 52.6679C24.0082 52.5389 23.7125 52.3994 23.4141 52.2663L23.1505 52.826L23.609 53.0335" stroke="#E2DCCB" stroke-width="0.197438" stroke-miterlimit="10"/>
<path d="M27.7314 56.0313L27.1394 55.8943L26.9894 56.4943C27.3701 56.5815 27.7497 56.6736 28.1314 56.7552L28.3582 55.636C28.0624 55.5738 27.7687 55.5015 27.474 55.4346C27.3271 55.3994 27.1788 55.3692 27.033 55.3296L26.5969 55.2055L26.289 56.3051C25.9049 56.1954 25.519 56.0918 25.1431 55.9563L25.5014 54.8719C25.2236 54.7761 24.9437 54.6866 24.6679 54.5855L23.8482 54.2617L23.4141 55.3179C23.7551 55.4507 24.0934 55.5914 24.4372 55.7166L24.648 55.135C24.4786 55.0783 24.3146 55.0065 24.1477 54.9427" stroke="#E2DCCB" stroke-width="0.197438" stroke-miterlimit="10"/>
<path d="M24.6983 53.4932C24.876 53.5607 25.0498 53.6389 25.2314 53.6955L25.4406 53.1134C25.2739 53.0617 25.1144 52.9906 24.9517 52.9284L24.4653 52.7363L24.0312 53.7925L24.8575 54.1189C25.1364 54.2183 25.4179 54.3102 25.6979 54.4063L26.0539 53.3213C26.3889 53.4441 26.7354 53.5302 27.0774 53.6303L26.7718 54.7306L27.187 54.8488L27.6074 54.947C27.888 55.0105 28.1676 55.0797 28.4491 55.1387L28.6759 54.0195C28.3564 53.9511 28.039 53.8732 27.7203 53.801L27.572 54.4015L28.0623 54.5148" stroke="#E2DCCB" stroke-width="0.197438" stroke-miterlimit="10"/>
<path d="M32.7 56.6439L32.0931 56.6284L32.0634 57.2462L33.2333 57.276L33.2377 56.1341C32.6336 56.1165 32.0286 56.1157 31.4266 56.0565L31.3402 57.1952L30.7433 57.1492C30.5446 57.132 30.347 57.1013 30.1488 57.0779L30.287 55.9443C29.9959 55.9047 29.7032 55.8756 29.4136 55.8272L28.5461 55.6719L28.3281 56.7928C28.6885 56.8564 29.0484 56.9247 29.4096 56.9833L29.502 56.3716C29.3252 56.3457 29.15 56.3104 28.9739 56.2801" stroke="#E2DCCB" stroke-width="0.197438" stroke-miterlimit="10"/>
<path d="M29.2361 54.7445C29.4237 54.7753 29.6094 54.8178 29.7984 54.8392L29.889 54.2274C29.544 54.1777 29.2023 54.1071 28.8586 54.0488L28.6406 55.1697L29.515 55.3264C29.8075 55.3724 30.1022 55.4035 30.3956 55.443L30.5315 54.3092C30.7087 54.3289 30.8846 54.3609 31.0628 54.371L31.5964 54.4115L31.5124 55.5503C32.0856 55.6073 32.6622 55.604 33.2375 55.6227L33.242 54.4808L32.2608 54.4558L32.2328 55.0738L32.7361 55.0864" stroke="#E2DCCB" stroke-width="0.197438" stroke-miterlimit="10"/>
<path d="M37.7093 56.2802C37.5095 56.3131 37.3115 56.3576 37.1103 56.3808L37.201 56.9926C37.5873 56.9368 37.9703 56.8591 38.3551 56.7928L38.1371 55.6719L37.2444 55.8317C36.9459 55.8787 36.6451 55.9106 36.3455 55.9508L36.4814 57.0846C36.283 57.1069 36.086 57.1412 35.8867 57.1533L35.2898 57.1991L35.2058 56.0603C34.6206 56.1182 34.0325 56.1153 33.4453 56.134L33.4498 57.2759L34.5465 57.2481L34.5185 56.6302L33.9829 56.6439" stroke="#E2DCCB" stroke-width="0.197438" stroke-miterlimit="10"/>
<path d="M33.9432 55.0862L34.5138 55.072L34.4841 54.4541L33.4375 54.4806L33.442 55.6224C34.034 55.6048 34.6269 55.6046 35.2168 55.5463L35.1305 54.4076L35.6641 54.3672C35.8418 54.3521 36.018 54.3238 36.195 54.303L36.3333 55.4366C36.6184 55.3976 36.9052 55.3694 37.1889 55.3219L38.0388 55.1697L37.8209 54.0488C37.4989 54.1049 37.1779 54.1666 36.8554 54.2193L36.9478 54.8309C37.1138 54.8066 37.2782 54.773 37.4435 54.7447" stroke="#E2DCCB" stroke-width="0.197438" stroke-miterlimit="10"/>
<path d="M42.5464 54.9429C42.3571 55.0149 42.1718 55.0974 41.9784 55.1581L42.1876 55.7401C42.3739 55.6813 42.5531 55.603 42.7354 55.5331L43.28 55.3179L42.8459 54.2617L42.0025 54.5949C41.7178 54.6963 41.4304 54.7903 41.1446 54.8883L41.5006 55.9732C41.1248 56.1093 40.7373 56.2079 40.3539 56.3195L40.0482 55.2193L39.6244 55.3399L39.1953 55.4402C38.9088 55.505 38.6234 55.5755 38.3359 55.6359L38.5627 56.7551C38.9206 56.6789 39.2765 56.5923 39.6334 56.5108L39.485 55.9103L38.9627 56.0313" stroke="#E2DCCB" stroke-width="0.197438" stroke-miterlimit="10"/>
<path d="M38.6136 54.5148L39.1694 54.3864L39.0193 53.7863C38.6793 53.8632 38.3406 53.9461 38 54.0194L38.2268 55.1386C38.5165 55.0775 38.8041 55.0066 39.0928 54.9412C39.2367 54.9066 39.3819 54.8772 39.5247 54.8384L39.9519 54.7168L39.644 53.6172C39.9867 53.5191 40.3316 53.428 40.6667 53.3059L41.025 54.3902C41.2969 54.2962 41.5714 54.2087 41.8415 54.1097L42.6445 53.7925L42.2104 52.7363C41.9057 52.8541 41.604 52.9808 41.2971 53.0925L41.5079 53.674C41.6671 53.621 41.8208 53.5529 41.9774 53.4933" stroke="#E2DCCB" stroke-width="0.197438" stroke-miterlimit="10"/>
<path d="M47.0155 52.6844C46.8439 52.7916 46.6775 52.9075 46.5014 53.0075L46.8204 53.5374C47.1548 53.3363 47.4792 53.119 47.8088 52.91L47.1767 51.959L46.4136 52.4486C46.1566 52.6076 45.8912 52.7526 45.6303 52.9052L46.192 53.8994C45.8498 54.1053 45.491 54.281 45.1361 54.4639L44.6204 53.445L44.2283 53.646C44.0959 53.7095 43.9611 53.768 43.8277 53.8292C43.5594 53.949 43.2938 54.0747 43.0234 54.1895L43.466 55.2422C43.8023 55.0981 44.1338 54.9427 44.4678 54.7927L44.2042 54.2331L43.7159 54.4542" stroke="#E2DCCB" stroke-width="0.197438" stroke-miterlimit="10"/>
<path d="M43.0901 53.0335L43.6097 52.7983L43.3446 52.2394C43.0262 52.3815 42.7107 52.5299 42.3906 52.668L42.8331 53.7207C43.1055 53.6048 43.3733 53.478 43.6437 53.3573C43.778 53.2949 43.915 53.2383 44.0469 53.1711L44.4421 52.9684L43.9243 51.9505L44.4004 51.7066C44.5602 51.6272 44.7108 51.531 44.8665 51.4442L45.4302 52.4371C45.6782 52.2913 45.9323 52.1551 46.1755 52.0013L46.9022 51.535L46.2701 50.584L45.4437 51.1123L45.7642 51.6413C45.9074 51.5541 46.047 51.4609 46.1888 51.371" stroke="#E2DCCB" stroke-width="0.197438" stroke-miterlimit="10"/>
<path d="M50.9655 49.5948L50.5254 50.0131L50.9412 50.4711L51.7889 49.6641L50.9845 48.8535L50.3283 49.4793C50.2208 49.5855 50.1071 49.685 49.992 49.7831L49.6494 50.08L50.3935 50.9462C50.2416 51.0756 50.0942 51.2103 49.9385 51.3349L49.468 51.7052L48.764 50.8062C48.3097 51.1795 47.8198 51.5052 47.3438 51.8492L47.9833 52.7952L48.8777 52.1591L48.5102 51.6616L48.0737 51.9724" stroke="#E2DCCB" stroke-width="0.197438" stroke-miterlimit="10"/>
<path d="M47.1705 50.7037L47.6355 50.373L47.2667 49.8765L46.4141 50.4833L47.0536 51.4292C47.5343 51.0833 48.0263 50.7526 48.4844 50.3764L47.7785 49.4788L48.1994 49.1483L48.6044 48.7985L49.3502 49.6631L49.6765 49.3804L49.8396 49.239L49.9958 49.09L50.6208 48.4941L49.8166 47.6836L49.1063 48.3608L49.5234 48.8175L49.8876 48.4699" stroke="#E2DCCB" stroke-width="0.197438" stroke-miterlimit="10"/>
<path d="M54.2437 45.8041L53.8915 46.2989L54.388 46.6677L55.0665 45.7138L54.1205 45.0742C53.7678 45.565 53.4299 46.0669 53.0461 46.5345L53.9436 47.2404L53.5734 47.7107L53.1827 48.1641L52.318 47.4182L52.0295 47.7512L51.8851 47.9176L51.7331 48.0771L51.125 48.7148L51.9355 49.5191L52.6928 48.725L52.236 48.308L51.8664 48.6959" stroke="#E2DCCB" stroke-width="0.197438" stroke-miterlimit="10"/>
<path d="M50.7395 47.6262L51.1329 47.2129L50.675 46.7971L49.9531 47.5551L50.7637 48.3593L51.3768 47.7164C51.481 47.6111 51.5784 47.4996 51.6745 47.3868L51.9654 47.051L51.0992 46.3069C51.2148 46.1711 51.3358 46.0397 51.4472 45.9003L51.7778 45.4794L52.6768 46.1834C53.0428 45.7386 53.3616 45.2583 53.6989 44.7919L52.7529 44.1523L52.184 44.9517L52.6816 45.3192L52.9734 44.9089" stroke="#E2DCCB" stroke-width="0.197438" stroke-miterlimit="10"/>
<path d="M56.7144 41.4464L56.4636 41.9997L57.0225 42.2648C57.1824 41.9087 57.348 41.555 57.5023 41.1964L56.4495 40.7539C56.3312 41.032 56.2021 41.3054 56.0787 41.5813C56.015 41.7183 55.9571 41.8581 55.8885 41.9928L55.6816 42.3962L56.6995 42.914L56.426 43.4467C56.3365 43.6252 56.23 43.7944 56.1327 43.9686L55.1396 43.4048C54.9907 43.6581 54.8516 43.9171 54.6947 44.1655L54.2188 44.9072L55.1697 45.5393C55.3668 45.231 55.5669 44.9246 55.7606 44.6143L55.2316 44.2938C55.1387 44.4464 55.0398 44.5953 54.9441 44.7461" stroke="#E2DCCB" stroke-width="0.197438" stroke-miterlimit="10"/>
<path d="M53.6385 43.9134C53.7392 43.7522 53.8486 43.5962 53.9423 43.4306L53.4124 43.1115C53.2328 43.4103 53.0375 43.6998 52.8516 43.9947L53.8026 44.6268L54.2823 43.8792C54.4382 43.6275 54.5799 43.3672 54.7296 43.1117L53.7354 42.5499C53.9205 42.2447 54.0759 41.9234 54.2397 41.6067L55.2586 42.1224L55.4556 41.7383C55.5178 41.6085 55.5751 41.4765 55.635 41.3457C55.7523 41.0829 55.8756 40.8226 55.9881 40.5578L54.9353 40.1152C54.8063 40.4155 54.6668 40.7112 54.5337 41.0096L55.0934 41.2731L55.301 40.8147" stroke="#E2DCCB" stroke-width="0.197438" stroke-miterlimit="10"/>
<path d="M58.3009 36.6873L58.1639 37.2793L58.764 37.4293C58.8511 37.0487 58.9431 36.6691 59.0249 36.2873L57.9057 36.0605C57.8434 36.3563 57.7712 36.65 57.7042 36.9447C57.6689 37.0916 57.6387 37.2399 57.5991 37.3858L57.475 37.8218L58.5746 38.1297C58.465 38.5138 58.3614 38.8997 58.2258 39.2756L57.1415 38.9175C57.0456 39.1952 56.9561 39.4752 56.855 39.7509L56.5312 40.5707L57.5874 41.0048C57.7202 40.6637 57.8609 40.3255 57.9861 39.9817L57.4046 39.7708C57.3478 39.9402 57.276 40.1042 57.2123 40.2711" stroke="#E2DCCB" stroke-width="0.197438" stroke-miterlimit="10"/>
<path d="M55.7647 39.712C55.8322 39.5343 55.9104 39.3605 55.967 39.1789L55.3849 38.9697C55.3332 39.1364 55.2621 39.2959 55.1999 39.4586L55.0078 39.9449L56.064 40.379L56.3904 39.5528C56.4898 39.2739 56.5817 38.9924 56.6777 38.7124L55.5928 38.3563C55.7156 38.0214 55.8016 37.6749 55.9018 37.3328L57.0021 37.6385L57.1203 37.2233L57.2185 36.8029C57.282 36.5223 57.3511 36.2427 57.4102 35.9612L56.291 35.7344C56.2226 36.0538 56.1447 36.3713 56.0725 36.69L56.673 36.8383L56.7863 36.348" stroke="#E2DCCB" stroke-width="0.197438" stroke-miterlimit="10"/>
<path d="M58.9095 31.7115L58.894 32.3184L59.5119 32.3482L59.5416 31.1783L58.3998 31.1738C58.3821 31.778 58.3815 32.3829 58.3221 32.985L59.4608 33.0713L59.4149 33.6683C59.3976 33.867 59.3669 34.0646 59.3435 34.2628L58.21 34.1246C58.1703 34.4156 58.1413 34.7084 58.0928 34.9981L57.9375 35.8656L59.0584 36.0836C59.122 35.7232 59.1903 35.3633 59.2489 35.0021L58.6372 34.9097C58.6113 35.0865 58.576 35.2617 58.5457 35.4378" stroke="#E2DCCB" stroke-width="0.197438" stroke-miterlimit="10"/>
<path d="M57.0239 35.172C57.0547 34.9845 57.0972 34.7987 57.1187 34.6097L56.5067 34.519C56.457 34.864 56.3864 35.2057 56.3281 35.5494L57.449 35.7674L57.6057 34.893C57.6517 34.6005 57.6828 34.3058 57.7223 34.0124L56.5885 33.8764C56.6082 33.6993 56.6402 33.5234 56.6503 33.3452L56.6908 32.8116L57.8296 32.8956C57.8866 32.3223 57.8833 31.7458 57.902 31.1705L56.7601 31.166L56.7352 32.1471L57.3531 32.1752L57.3657 31.6719" stroke="#E2DCCB" stroke-width="0.197438" stroke-miterlimit="10"/>
<path d="M58.5459 26.712C58.5788 26.9118 58.6233 27.1098 58.6464 27.3111L59.2582 27.2205C59.2024 26.8342 59.1248 26.4511 59.0584 26.0664L57.9375 26.2844L58.0973 27.1771C58.1443 27.4756 58.1763 27.7763 58.2164 28.0759L59.3502 27.94C59.3725 28.1383 59.4068 28.3355 59.4189 28.5346L59.4647 29.1316L58.3259 29.2155C58.3838 29.8007 58.3809 30.3888 58.3996 30.976L59.5415 30.9715L59.5137 29.8747L58.8959 29.9027L58.9095 30.4383" stroke="#E2DCCB" stroke-width="0.197438" stroke-miterlimit="10"/>
<path d="M57.3656 30.4765L57.3512 29.9059L56.7334 29.9357L56.7599 30.9822L57.9017 30.9777C57.8841 30.3857 57.8839 29.7928 57.8256 29.2029L56.6869 29.2892L56.6465 28.7556C56.6314 28.5779 56.6031 28.4017 56.5823 28.2247L57.7158 28.0865C57.6769 27.8014 57.6487 27.5145 57.6012 27.2308L57.449 26.3809L56.3281 26.5988C56.3842 26.9208 56.4459 27.2418 56.4986 27.5643L57.1102 27.4719C57.0859 27.3059 57.0523 27.1414 57.024 26.9762" stroke="#E2DCCB" stroke-width="0.197438" stroke-miterlimit="10"/>
<path d="M57.2124 21.8782C57.2844 22.0675 57.3669 22.2528 57.4276 22.4462L58.0097 22.237C57.9508 22.0506 57.8725 21.8715 57.8026 21.6892L57.5874 21.1445L56.5312 21.5786L56.8644 22.4221C56.9659 22.7068 57.0599 22.9941 57.1578 23.28L58.2428 22.9241C58.3789 23.2999 58.4775 23.6874 58.5891 24.0708L57.4888 24.3765L57.6094 24.8003L57.7097 25.2294C57.7746 25.5159 57.845 25.8013 57.9054 26.0888L59.0246 25.862C58.9484 25.5041 58.8618 25.1482 58.7803 24.7913L58.1799 24.9397L58.3008 25.462" stroke="#E2DCCB" stroke-width="0.197438" stroke-miterlimit="10"/>
<path d="M56.7863 25.8022L56.6579 25.2465L56.0578 25.3966C56.1347 25.7366 56.2176 26.0752 56.2909 26.4159L57.4101 26.1891C57.349 25.8994 57.2781 25.6118 57.2127 25.3231C57.178 25.1793 57.1487 25.0339 57.1099 24.8911L56.9882 24.464L55.8886 24.7719C55.7906 24.4291 55.6995 24.0843 55.5774 23.7492L56.6617 23.391C56.5677 23.1191 56.4802 22.8446 56.3812 22.5745L56.064 21.7715L55.0078 22.2056C55.1256 22.5103 55.2522 22.812 55.364 23.1189L55.9455 22.9081C55.8925 22.7489 55.8244 22.5952 55.7648 22.4386" stroke="#E2DCCB" stroke-width="0.197438" stroke-miterlimit="10"/>
<path d="M54.9441 17.4007C55.0514 17.5724 55.1672 17.7387 55.2673 17.9149L55.7972 17.5958C55.5961 17.2615 55.3788 16.937 55.1697 16.6074L54.2188 17.2395L54.7084 18.0026C54.8674 18.2596 55.0123 18.5251 55.165 18.7859L56.1592 18.2242C56.3652 18.5664 56.5407 18.9252 56.7237 19.2801L55.7049 19.7958L55.9059 20.1879C55.9694 20.3203 56.0279 20.4551 56.0891 20.5886C56.2089 20.8568 56.3346 21.1224 56.4494 21.3928L57.5021 20.9503C57.358 20.614 57.2026 20.2824 57.0526 19.9485L56.493 20.212L56.7141 20.7003" stroke="#E2DCCB" stroke-width="0.197438" stroke-miterlimit="10"/>
<path d="M55.3011 21.3356L55.0659 20.8159L54.507 21.081C54.649 21.3994 54.7975 21.7149 54.9356 22.035L55.9883 21.5925C55.8724 21.32 55.7456 21.0523 55.6249 20.7819C55.5625 20.6477 55.5059 20.5107 55.4387 20.3788L55.2359 19.9835L54.2181 20.5013L53.9742 20.0252C53.8948 19.8654 53.7986 19.7149 53.7117 19.5592L54.7047 18.9954C54.5589 18.7474 54.4226 18.4934 54.2689 18.2501L53.8026 17.5234L52.8516 18.1555L53.3799 18.982L53.9089 18.6615C53.8216 18.5183 53.7284 18.3786 53.6385 18.2368" stroke="#E2DCCB" stroke-width="0.197438" stroke-miterlimit="10"/>
<path d="M51.8663 13.4522L52.2846 13.8924L52.7425 13.4766L51.9355 12.6289L51.125 13.4331L51.7507 14.0893C51.857 14.1968 51.9565 14.3105 52.0545 14.4256L52.3515 14.7682L53.2177 14.0241C53.3471 14.176 53.4817 14.3234 53.6064 14.4792L53.9767 14.9495L53.0777 15.6535C53.4509 16.1078 53.7767 16.5977 54.1207 17.0739L55.0666 16.4343L54.4305 15.5399L53.933 15.9074L54.2437 16.3439" stroke="#E2DCCB" stroke-width="0.197438" stroke-miterlimit="10"/>
<path d="M52.9731 17.2414L52.6425 16.7764L52.146 17.1452L52.7528 17.9979L53.6988 17.3583C53.3529 16.8776 53.0221 16.3856 52.6459 15.9276L51.7484 16.6335L51.4178 16.2125L51.068 15.8075L51.9326 15.0616L51.6499 14.7353L51.5085 14.5722L51.3595 14.416L50.7637 13.791L49.9531 14.5952L50.6303 15.3055L51.0871 14.8885L50.7395 14.5242" stroke="#E2DCCB" stroke-width="0.197438" stroke-miterlimit="10"/>
<path d="M48.0737 10.1744L48.5684 10.5266L48.9372 10.0301L47.9833 9.35156L47.3438 10.2976C47.8346 10.6502 48.3365 10.9882 48.804 11.372L49.5099 10.4745L49.9802 10.8447L50.4336 11.2354L49.6877 12.1L50.0207 12.3885L50.1871 12.5329L50.3465 12.685L50.9842 13.2931L51.7886 12.4825L50.9944 11.7253L50.5774 12.182L50.9653 12.5516" stroke="#E2DCCB" stroke-width="0.197438" stroke-miterlimit="10"/>
<path d="M49.8879 13.6761L49.4746 13.2827L49.0588 13.7406L49.8168 14.4626L50.6211 13.6519L49.9781 13.0388C49.8728 12.9345 49.7613 12.8371 49.6485 12.7411L49.3127 12.4502L48.5686 13.3164C48.4328 13.2008 48.3014 13.0797 48.162 12.9684L47.7411 12.6379L48.4452 11.7389C48.0001 11.3729 47.52 11.0542 47.0536 10.7168L46.4141 11.6628L47.2134 12.2317L47.5809 11.7341L47.1706 11.4423" stroke="#E2DCCB" stroke-width="0.197438" stroke-miterlimit="10"/>
<path d="M43.7159 7.69611L44.2693 7.94686L44.5344 7.38798C44.1782 7.22805 43.8245 7.06247 43.466 6.9082L43.0234 7.96094C43.3016 8.07927 43.5749 8.20839 43.8508 8.33173C43.9879 8.39543 44.1276 8.45335 44.2623 8.52193L44.6657 8.72884L45.1835 7.71112L45.7162 7.9845C45.8947 8.07401 46.064 8.18049 46.2381 8.27789L45.6744 9.271C45.9276 9.41987 46.1867 9.559 46.435 9.7159L47.1767 10.1919L47.8088 9.24086C47.5005 9.04382 47.1941 8.84375 46.8839 8.65L46.5634 9.179C46.7159 9.27193 46.8648 9.37078 47.0156 9.46647" stroke="#E2DCCB" stroke-width="0.197438" stroke-miterlimit="10"/>
<path d="M46.1889 10.7792C46.0277 10.6785 45.8717 10.5691 45.7061 10.4754L45.3871 11.0053C45.6859 11.185 45.9753 11.3802 46.2703 11.5662L46.9023 10.6152L46.1546 10.1354C45.9029 9.97957 45.6426 9.83781 45.3871 9.68815L44.8253 10.6823C44.5201 10.4973 44.1988 10.3418 43.8821 10.1781L44.3978 9.15928L44.0137 8.96211C43.8839 8.89998 43.7519 8.8426 43.6211 8.78271C43.3582 8.66543 43.098 8.5421 42.8331 8.42969L42.3906 9.48242C42.6909 9.61142 42.9866 9.75094 43.285 9.88401L43.5485 9.32434L43.0901 9.11677" stroke="#E2DCCB" stroke-width="0.197438" stroke-miterlimit="10"/>
<path d="M38.9627 6.11847L39.5547 6.25549L39.7047 5.65541C39.324 5.56828 38.9444 5.47627 38.5627 5.39453L38.3359 6.51374C38.6317 6.576 38.9254 6.64826 39.2201 6.71513C39.367 6.7504 39.5153 6.78054 39.6611 6.82016L40.0972 6.94428L40.4051 5.84469C40.7892 5.95433 41.1751 6.05792 41.551 6.1935L41.1927 7.27782C41.4705 7.37365 41.7504 7.46315 42.0262 7.56424L42.8459 7.88804L43.28 6.83188C42.939 6.69907 42.6007 6.55836 42.2569 6.43318L42.0462 7.0147C42.2156 7.07143 42.3796 7.1433 42.5465 7.20701" stroke="#E2DCCB" stroke-width="0.197438" stroke-miterlimit="10"/>
<path d="M41.9776 8.65534C41.7999 8.58782 41.6261 8.50963 41.4445 8.45303L41.2353 9.03508C41.402 9.08681 41.5615 9.15789 41.7242 9.22014L42.2106 9.41219L42.6447 8.35603L41.8184 8.0296C41.5395 7.93022 41.258 7.83835 40.978 7.74226L40.622 8.82724C40.287 8.70444 39.9405 8.61835 39.5985 8.51819L39.9041 7.41794L39.4889 7.29974L39.0685 7.20154C38.7879 7.13797 38.5083 7.06887 38.2268 7.00977L38 8.12897C38.3195 8.19742 38.6369 8.27534 38.9556 8.34747L39.1039 7.747L38.6136 7.63367" stroke="#E2DCCB" stroke-width="0.197438" stroke-miterlimit="10"/>
<path d="M33.9829 5.50706L34.5899 5.52259L34.6197 4.90475L33.4498 4.875L33.4453 6.01685C34.0495 6.03448 34.6544 6.03514 35.2565 6.09451L35.3428 4.95582L35.9397 5.00162C36.1385 5.01887 36.3361 5.04953 36.5343 5.07296L36.3961 6.20652C36.6871 6.24614 36.9798 6.27523 37.2694 6.32366L38.137 6.47898L38.3549 5.35806C37.9945 5.29449 37.6347 5.22618 37.2735 5.1676L37.1811 5.77926C37.3579 5.80519 37.5331 5.84047 37.7092 5.87074" stroke="#E2DCCB" stroke-width="0.197438" stroke-miterlimit="10"/>
<path d="M37.4435 7.40359C37.2559 7.37279 37.0702 7.33028 36.8812 7.30882L36.7905 7.92062C37.1355 7.97037 37.4772 8.04092 37.8209 8.09923L38.0388 6.97831L37.1645 6.82168C36.872 6.77561 36.5773 6.74455 36.2839 6.70506L36.1479 7.83888C35.9708 7.81913 35.7949 7.78715 35.6167 7.77701L35.0831 7.7366L35.1671 6.59778C34.5938 6.54079 34.0173 6.54408 33.442 6.52539L33.4375 7.66737L34.4186 7.69225L34.4467 7.0744L33.9433 7.06176" stroke="#E2DCCB" stroke-width="0.197438" stroke-miterlimit="10"/>
<path d="M35.9654 13.8305C35.5058 14.8833 34.467 15.5636 33.3191 15.5636C32.171 15.5636 31.1322 14.8833 30.6727 13.8305L30.5859 13.8684C31.0606 14.9557 32.1335 15.6582 33.3191 15.6582C34.5048 15.6582 35.5776 14.9556 36.0522 13.8684L35.9654 13.8305Z" fill="#E2DCCB"/>
<path d="M35.4525 13.57C35.0849 14.412 34.2542 14.956 33.3361 14.956C32.4179 14.956 31.587 14.412 31.2196 13.57L31.1328 13.6079C31.5154 14.4844 32.3802 15.0508 33.3361 15.0508C34.2918 15.0508 35.1566 14.4844 35.5392 13.6079L35.4525 13.57Z" fill="#E2DCCB"/>
<path d="M31.743 13.3116L31.6562 13.3495C31.9469 14.0152 32.6037 14.4453 33.3296 14.4453C34.0555 14.4453 34.7122 14.0152 35.0028 13.3495L34.9161 13.3116C34.6406 13.9428 34.0177 14.3507 33.3296 14.3507C32.6413 14.3507 32.0185 13.9428 31.743 13.3116Z" fill="#E2DCCB"/>
<path d="M34.3876 13.0533C34.2041 13.4737 33.7894 13.7452 33.3309 13.7452C32.8725 13.7452 32.4577 13.4737 32.2742 13.0533L32.1875 13.0912C32.386 13.5461 32.8348 13.8398 33.3309 13.8398C33.8269 13.8398 34.2757 13.5459 34.4742 13.0912L34.3876 13.0533Z" fill="#E2DCCB"/>
<path d="M33.8746 12.7889C33.7832 12.9984 33.5764 13.1339 33.3479 13.1339C33.1194 13.1339 32.9126 12.9984 32.8211 12.7889L32.7344 12.8268C32.8409 13.0708 33.0817 13.2285 33.3479 13.2285C33.614 13.2285 33.8548 13.0708 33.9613 12.8268L33.8746 12.7889Z" fill="#E2DCCB"/>
<path d="M35.9654 9.64686C35.5058 10.6997 34.467 11.38 33.3191 11.38C32.171 11.38 31.1322 10.6997 30.6727 9.64686L30.5859 9.68477C31.0606 10.7721 32.1335 11.4746 33.3191 11.4746C34.5048 11.4746 35.5776 10.772 36.0522 9.68477L35.9654 9.64686Z" fill="#E2DCCB"/>
<path d="M35.4525 9.38836C35.0849 10.2304 34.2542 10.7744 33.3361 10.7744C32.4179 10.7744 31.587 10.2304 31.2196 9.38836L31.1328 9.42627C31.5154 10.3028 32.3802 10.8691 33.3361 10.8691C34.2918 10.8691 35.1566 10.3028 35.5392 9.42627L35.4525 9.38836Z" fill="#E2DCCB"/>
<path d="M31.743 9.12999L31.6562 9.16789C31.9469 9.83352 32.6037 10.2637 33.3296 10.2637C34.0555 10.2637 34.7122 9.83352 35.0028 9.16789L34.9161 9.12999C34.6406 9.76113 34.0177 10.169 33.3296 10.169C32.6413 10.169 32.0185 9.76126 31.743 9.12999Z" fill="#E2DCCB"/>
<path d="M34.3876 8.86575C34.2041 9.28616 33.7894 9.55771 33.3309 9.55771C32.8725 9.55771 32.4577 9.28616 32.2742 8.86575L32.1875 8.90366C32.386 9.35856 32.8348 9.65234 33.3309 9.65234C33.8269 9.65234 34.2757 9.35842 34.4742 8.90366L34.3876 8.86575Z" fill="#E2DCCB"/>
<path d="M33.8746 8.60725C33.7832 8.81679 33.5764 8.95224 33.3479 8.95224C33.1194 8.95224 32.9126 8.81679 32.8211 8.60725L32.7344 8.64515C32.8409 8.88919 33.0817 9.04688 33.3479 9.04688C33.614 9.04688 33.8548 8.88919 33.9613 8.64515L33.8746 8.60725Z" fill="#E2DCCB"/>
<path d="M33.2936 11.7172C32.8339 12.77 31.7952 13.4503 30.6473 13.4503C29.4992 13.4503 28.4603 12.77 28.0008 11.7172L27.9141 11.7551C28.3887 12.8424 29.4616 13.5449 30.6473 13.5449C31.8328 13.5449 32.9057 12.8423 33.3803 11.7551L33.2936 11.7172Z" fill="#E2DCCB"/>
<path d="M32.7572 11.4587C32.3897 12.3007 31.5589 12.8448 30.6408 12.8448C29.7226 12.8448 28.8917 12.3008 28.5242 11.4587L28.4375 11.4966C28.8201 12.3731 29.6849 12.9395 30.6408 12.9395C31.5965 12.9395 32.4613 12.3731 32.8439 11.4966L32.7572 11.4587Z" fill="#E2DCCB"/>
<path d="M32.2442 11.1964C31.9686 11.8275 31.3459 12.2354 30.6576 12.2354C29.9693 12.2354 29.3465 11.8275 29.071 11.1964L28.9844 11.2343C29.275 11.9001 29.9318 12.3301 30.6577 12.3301C31.3836 12.3301 32.0404 11.8999 32.3309 11.2343L32.2442 11.1964Z" fill="#E2DCCB"/>
<path d="M31.6923 10.9379C31.5088 11.3583 31.0941 11.6298 30.6356 11.6298C30.1772 11.6298 29.7624 11.3582 29.5789 10.9379L29.4922 10.9758C29.6908 11.4307 30.1395 11.7246 30.6356 11.7246C31.1316 11.7246 31.5804 11.4307 31.7789 10.9758L31.6923 10.9379Z" fill="#E2DCCB"/>
<path d="M31.1793 10.6756C31.0879 10.8852 30.8811 11.0206 30.6526 11.0206C30.4241 11.0206 30.2173 10.8852 30.1258 10.6756L30.0391 10.7135C30.1455 10.9575 30.3864 11.1152 30.6526 11.1152C30.9187 11.1152 31.1595 10.9575 31.2661 10.7135L31.1793 10.6756Z" fill="#E2DCCB"/>
<path d="M38.6842 11.7172C38.2246 12.77 37.1858 13.4503 36.0379 13.4503C34.8898 13.4503 33.8509 12.77 33.3914 11.7172L33.3047 11.7551C33.7793 12.8424 34.8522 13.5449 36.0379 13.5449C37.2236 13.5449 38.2963 12.8423 38.7709 11.7551L38.6842 11.7172Z" fill="#E2DCCB"/>
<path d="M38.1634 11.4587C37.7958 12.3007 36.9651 12.8448 36.047 12.8448C35.1288 12.8448 34.298 12.3008 33.9305 11.4587L33.8438 11.4966C34.2264 12.3731 35.0912 12.9395 36.047 12.9395C37.0028 12.9395 37.8675 12.3731 38.2502 11.4966L38.1634 11.4587Z" fill="#E2DCCB"/>
<path d="M37.635 11.1964C37.3593 11.8275 36.7366 12.2354 36.0485 12.2354C35.3602 12.2354 34.7374 11.8275 34.4619 11.1964L34.375 11.2343C34.6656 11.9001 35.3224 12.3301 36.0484 12.3301C36.7743 12.3301 37.4309 11.8999 37.7216 11.2343L37.635 11.1964Z" fill="#E2DCCB"/>
<path d="M37.1062 10.9379C36.9227 11.3583 36.508 11.6298 36.0497 11.6298C35.5912 11.6298 35.1765 11.3582 34.993 10.9379L34.9062 10.9758C35.1049 11.4307 35.5536 11.7246 36.0497 11.7246C36.5456 11.7246 36.9945 11.4307 37.193 10.9758L37.1062 10.9379Z" fill="#E2DCCB"/>
<path d="M36.57 10.6756C36.4785 10.8852 36.2717 11.0206 36.0432 11.0206C35.8147 11.0206 35.6079 10.8852 35.5164 10.6756L35.4297 10.7135C35.5362 10.9575 35.777 11.1152 36.0432 11.1152C36.3093 11.1152 36.5501 10.9575 36.6567 10.7135L36.57 10.6756Z" fill="#E2DCCB"/>
<path d="M35.9654 49.6598C35.5058 48.6069 34.467 47.9267 33.3191 47.9267C32.171 47.9267 31.1322 48.6069 30.6727 49.6598L30.5859 49.6219C31.0606 48.5345 32.1335 47.832 33.3191 47.832C34.5048 47.832 35.5776 48.5346 36.0522 49.6219L35.9654 49.6598Z" fill="#E2DCCB"/>
<path d="M35.4525 49.9202C35.0849 49.0782 34.2542 48.5342 33.3361 48.5342C32.4179 48.5342 31.587 49.0782 31.2196 49.9202L31.1328 49.8823C31.5154 49.0058 32.3802 48.4395 33.3361 48.4395C34.2918 48.4395 35.1566 49.0058 35.5392 49.8823L35.4525 49.9202Z" fill="#E2DCCB"/>
<path d="M31.743 50.1786L31.6562 50.1407C31.9469 49.4751 32.6037 49.0449 33.3296 49.0449C34.0555 49.0449 34.7122 49.4751 35.0028 50.1407L34.9161 50.1786C34.6406 49.5475 34.0177 49.1396 33.3296 49.1396C32.6413 49.1396 32.0185 49.5475 31.743 50.1786Z" fill="#E2DCCB"/>
<path d="M34.3876 50.4409C34.2041 50.0205 33.7894 49.7489 33.3309 49.7489C32.8725 49.7489 32.4577 50.0205 32.2742 50.4409L32.1875 50.403C32.386 49.9481 32.8348 49.6543 33.3309 49.6543C33.8269 49.6543 34.2757 49.9482 34.4742 50.403L34.3876 50.4409Z" fill="#E2DCCB"/>
<path d="M33.8746 50.6994C33.7832 50.4898 33.5764 50.3544 33.3479 50.3544C33.1194 50.3544 32.9126 50.4898 32.8211 50.6994L32.7344 50.6615C32.8409 50.4175 33.0817 50.2598 33.3479 50.2598C33.614 50.2598 33.8548 50.4175 33.9613 50.6615L33.8746 50.6994Z" fill="#E2DCCB"/>
<path d="M35.9654 53.8434C35.5058 52.7905 34.467 52.1103 33.3191 52.1103C32.171 52.1103 31.1322 52.7905 30.6727 53.8434L30.5859 53.8055C31.0606 52.7181 32.1335 52.0156 33.3191 52.0156C34.5048 52.0156 35.5776 52.7182 36.0522 53.8055L35.9654 53.8434Z" fill="#E2DCCB"/>
<path d="M35.4525 54.1019C35.0849 53.2599 34.2542 52.7159 33.3361 52.7159C32.4179 52.7159 31.587 53.2599 31.2196 54.1019L31.1328 54.064C31.5154 53.1875 32.3802 52.6211 33.3361 52.6211C34.2918 52.6211 35.1566 53.1875 35.5392 54.064L35.4525 54.1019Z" fill="#E2DCCB"/>
<path d="M31.743 54.3642L31.6562 54.3262C31.9469 53.6606 32.6037 53.2305 33.3296 53.2305C34.0555 53.2305 34.7122 53.6606 35.0028 54.3262L34.9161 54.3642C34.6406 53.733 34.0177 53.3251 33.3296 53.3251C32.6413 53.3251 32.0185 53.7329 31.743 54.3642Z" fill="#E2DCCB"/>
<path d="M34.3876 54.6225C34.2041 54.2021 33.7894 53.9306 33.3309 53.9306C32.8725 53.9306 32.4577 54.2021 32.2742 54.6225L32.1875 54.5846C32.386 54.1297 32.8348 53.8359 33.3309 53.8359C33.8269 53.8359 34.2757 54.1299 34.4742 54.5846L34.3876 54.6225Z" fill="#E2DCCB"/>
<path d="M33.8746 54.881C33.7832 54.6715 33.5764 54.536 33.3479 54.536C33.1194 54.536 32.9126 54.6715 32.8211 54.881L32.7344 54.8431C32.8409 54.5991 33.0817 54.4414 33.3479 54.4414C33.614 54.4414 33.8548 54.5991 33.9613 54.8431L33.8746 54.881Z" fill="#E2DCCB"/>
<path d="M33.2936 51.7731C32.8339 50.7202 31.7952 50.04 30.6473 50.04C29.4992 50.04 28.4603 50.7202 28.0008 51.7731L27.9141 51.7351C28.3887 50.6478 29.4616 49.9453 30.6473 49.9453C31.8328 49.9453 32.9057 50.6479 33.3803 51.7351L33.2936 51.7731Z" fill="#E2DCCB"/>
<path d="M32.7572 52.0355C32.3897 51.1935 31.5589 50.6493 30.6408 50.6493C29.7226 50.6493 28.8917 51.1933 28.5242 52.0355L28.4375 51.9976C28.8201 51.1211 29.6849 50.5547 30.6408 50.5547C31.5965 50.5547 32.4613 51.1211 32.8439 51.9976L32.7572 52.0355Z" fill="#E2DCCB"/>
<path d="M32.2442 52.2938C31.9686 51.6627 31.3459 51.2548 30.6576 51.2548C29.9693 51.2548 29.3465 51.6627 29.071 52.2938L28.9844 52.2559C29.275 51.5902 29.9318 51.1602 30.6577 51.1602C31.3836 51.1602 32.0404 51.5903 32.3309 52.2559L32.2442 52.2938Z" fill="#E2DCCB"/>
<path d="M31.6923 52.5543C31.5088 52.1339 31.0941 51.8623 30.6356 51.8623C30.1772 51.8623 29.7624 52.134 29.5789 52.5543L29.4922 52.5164C29.6908 52.0615 30.1395 51.7676 30.6356 51.7676C31.1316 51.7676 31.5804 52.0615 31.7789 52.5164L31.6923 52.5543Z" fill="#E2DCCB"/>
<path d="M31.1793 52.8166C31.0879 52.607 30.8811 52.4716 30.6526 52.4716C30.4241 52.4716 30.2173 52.607 30.1258 52.8166L30.0391 52.7787C30.1455 52.5346 30.3864 52.377 30.6526 52.377C30.9187 52.377 31.1595 52.5346 31.2661 52.7787L31.1793 52.8166Z" fill="#E2DCCB"/>
<path d="M38.6842 51.7731C38.2246 50.7202 37.1858 50.04 36.0379 50.04C34.8898 50.04 33.8509 50.7202 33.3914 51.7731L33.3047 51.7351C33.7793 50.6478 34.8522 49.9453 36.0379 49.9453C37.2236 49.9453 38.2963 50.6479 38.7709 51.7351L38.6842 51.7731Z" fill="#E2DCCB"/>
<path d="M38.1634 52.0355C37.7958 51.1935 36.9651 50.6493 36.047 50.6493C35.1288 50.6493 34.298 51.1933 33.9305 52.0355L33.8438 51.9976C34.2264 51.1211 35.0912 50.5547 36.047 50.5547C37.0028 50.5547 37.8675 51.1211 38.2502 51.9976L38.1634 52.0355Z" fill="#E2DCCB"/>
<path d="M37.635 52.2938C37.3593 51.6627 36.7366 51.2548 36.0485 51.2548C35.3602 51.2548 34.7374 51.6627 34.4619 52.2938L34.375 52.2559C34.6656 51.5902 35.3224 51.1602 36.0484 51.1602C36.7743 51.1602 37.4309 51.5903 37.7216 52.2559L37.635 52.2938Z" fill="#E2DCCB"/>
<path d="M37.1062 52.5543C36.9227 52.1339 36.508 51.8623 36.0497 51.8623C35.5912 51.8623 35.1765 52.134 34.993 52.5543L34.9062 52.5164C35.1049 52.0615 35.5536 51.7676 36.0497 51.7676C36.5456 51.7676 36.9945 52.0615 37.193 52.5164L37.1062 52.5543Z" fill="#E2DCCB"/>
<path d="M36.57 52.8166C36.4785 52.607 36.2717 52.4716 36.0432 52.4716C35.8147 52.4716 35.6079 52.607 35.5164 52.8166L35.4297 52.7787C35.5362 52.5346 35.777 52.377 36.0432 52.377C36.3093 52.377 36.5501 52.5346 36.6567 52.7787L36.57 52.8166Z" fill="#E2DCCB"/>
<path d="M31.9242 3.14012C32.6725 3.88841 33.8857 3.88841 34.6341 3.14012C35.3824 2.39183 35.3824 1.17864 34.6341 0.430357C33.8858 -0.317931 32.6725 -0.317931 31.9242 0.430357C31.1759 1.17864 31.1759 2.39183 31.9242 3.14012ZM33.2791 0.667413L34.3969 1.78517L33.2791 2.90293L32.1614 1.78517L33.2791 0.667413Z" fill="#E2DCCB"/>
<path d="M31.9242 63.1616C32.6725 63.9099 33.8857 63.9099 34.6341 63.1616C35.3824 62.4133 35.3824 61.2001 34.6341 60.4518C33.8858 59.7036 32.6725 59.7036 31.9242 60.4518C31.1759 61.2001 31.1759 62.4133 31.9242 63.1616ZM33.2791 60.6889L34.3969 61.8067L33.2791 62.9244L32.1614 61.8067L33.2791 60.6889Z" fill="#E2DCCB"/>
<path d="M5.42723 29.7836C6.17552 30.5319 6.17552 31.7451 5.42723 32.4935C4.67894 33.2418 3.46575 33.2418 2.71747 32.4935C1.96918 31.7452 1.96918 30.5319 2.71747 29.7836C3.46575 29.0353 4.67894 29.0353 5.42723 29.7836ZM2.95452 31.1385L4.07228 32.2563L5.19004 31.1385L4.07228 30.0208L2.95452 31.1385Z" fill="#E2DCCB"/>
<path d="M64.6616 29.7836C65.4099 30.5319 65.4099 31.7451 64.6616 32.4935C63.9133 33.2418 62.7001 33.2418 61.9518 32.4935C61.2036 31.7452 61.2036 30.5319 61.9518 29.7836C62.7001 29.0353 63.9133 29.0353 64.6616 29.7836ZM62.1889 31.1385L63.3067 32.2563L64.4244 31.1385L63.3067 30.0208L62.1889 31.1385Z" fill="#E2DCCB"/>
</g>
<path d="M29.9427 36.5339L38.5927 31.5339L29.9427 26.5339V36.5339ZM49.2094 23.4839C49.426 24.2672 49.576 25.3172 49.676 26.6505C49.7927 27.9839 49.8427 29.1339 49.8427 30.1339L49.9427 31.5339C49.9427 35.1839 49.676 37.8672 49.2094 39.5839C48.7927 41.0839 47.826 42.0505 46.326 42.4672C45.5427 42.6839 44.1094 42.8339 41.9094 42.9339C39.7427 43.0505 37.7594 43.1005 35.926 43.1005L33.276 43.2005C26.2927 43.2005 21.9427 42.9339 20.226 42.4672C18.726 42.0505 17.7594 41.0839 17.3427 39.5839C17.126 38.8005 16.976 37.7505 16.876 36.4172C16.7594 35.0839 16.7094 33.9339 16.7094 32.9339L16.6094 31.5339C16.6094 27.8839 16.876 25.2005 17.3427 23.4839C17.7594 21.9839 18.726 21.0172 20.226 20.6005C21.0094 20.3839 22.4427 20.2339 24.6427 20.1339C26.8094 20.0172 28.7927 19.9672 30.626 19.9672L33.276 19.8672C40.2594 19.8672 44.6094 20.1339 46.326 20.6005C47.826 21.0172 48.7927 21.9839 49.2094 23.4839Z" fill="#D8DFB2"/>
<defs>
<filter id="filter0_d_4122_663" x="0.216499" y="-1.41045" width="66.2623" height="66.2643" filterUnits="userSpaceOnUse" color-interpolation-filters="sRGB">
<feFlood flood-opacity="0" result="BackgroundImageFix"/>
<feColorMatrix in="SourceAlpha" type="matrix" values="0 0 0 0 0 0 0 0 0 0 0 0 0 0 0 0 0 0 127 0" result="hardAlpha"/>
<feOffset/>
<feGaussianBlur stdDeviation="2.548"/>
<feComposite in2="hardAlpha" operator="out"/>
<feColorMatrix type="matrix" values="0 0 0 0 0.898039 0 0 0 0 0.764706 0 0 0 0 0.517647 0 0 0 0.54 0"/>
<feBlend mode="normal" in2="BackgroundImageFix" result="effect1_dropShadow_4122_663"/>
<feBlend mode="normal" in="SourceGraphic" in2="effect1_dropShadow_4122_663" result="shape"/>
</filter>
<clipPath id="clip0_4122_663">
<rect width="65.8125" height="65.8125" fill="white" transform="translate(0.4375)"/>
</clipPath>
</defs>
</svg>
