<svg width="455" height="263" viewBox="0 0 455 263" fill="none" xmlns="http://www.w3.org/2000/svg">
<g filter="url(#filter0_n_4825_1479)">
<path d="M151.5 263.501C154.333 254.834 169.5 239.802 207.5 249.002C211.667 230.169 233.1 194.802 285.5 204.002C299.167 182.835 334.1 147.402 364.5 175.002C379.333 152.668 421.2 106.5 470 100.5V170C450.167 171.834 409.7 193.101 406.5 263.501H306.5C298.833 256.834 277.9 247.501 255.5 263.501H151.5Z" fill="#F2DD7C" fill-opacity="0.8"/>
<path d="M429 265.5C426.5 247.833 431.2 212 470 210V265.5H429Z" fill="#F2DD7C" fill-opacity="0.8"/>
<path d="M0 266.501C3.16666 260.167 19.8 247.001 61 245.001V263.501L0 266.501Z" fill="#F2DD7C" fill-opacity="0.8"/>
<path d="M71.5556 262.865C75.3561 260.068 79.4632 254.169 83 243.001C94.8333 242.334 120.4 245.501 128 263.501L71.5556 262.865Z" fill="#F2DD7C" fill-opacity="0.8"/>
<path d="M470 75C452.5 68 428 43.2 470 0V75Z" fill="#F2DD7C" fill-opacity="0.8"/>
</g>
<path d="M184.25 256.021C188.364 252.711 191.347 248.21 192.5 243.021C192.5 242.691 192.5 242.361 192.5 242.021C191.645 242.34 190.901 242.708 190.136 243.204C189.922 243.341 189.709 243.478 189.489 243.619C189.146 243.841 189.146 243.841 188.797 244.068C188.307 244.383 187.817 244.697 187.327 245.011C187.071 245.176 186.815 245.34 186.552 245.509C185.186 246.381 183.812 247.241 182.438 248.099C182.177 248.262 181.917 248.425 181.649 248.593C181.287 248.819 181.287 248.819 180.918 249.049C180.704 249.183 180.49 249.316 180.27 249.454C179.761 249.774 179.761 249.774 179.25 250.021C179.072 250.457 179.072 250.457 178.906 250.99C178.674 251.629 178.507 252.013 178.062 252.537C177.216 252.889 176.624 252.744 175.75 252.521C175.25 252.271 175.25 252.271 175 251.771C174.799 250.92 174.67 250.289 174.922 249.443C175.349 248.894 175.575 248.717 176.25 248.521C176.53 248.595 176.809 248.669 177.098 248.746C178.734 248.964 179.977 247.866 181.281 247.005C181.567 246.822 181.853 246.64 182.139 246.458C182.724 246.084 183.307 245.708 183.889 245.329C184.706 244.798 185.529 244.278 186.354 243.76C190.345 241.252 190.345 241.252 191.5 240.271C187.199 238.296 181.278 239.197 177 240.771C174.515 241.822 172.24 243.193 170.25 245.021C170.043 245.205 169.836 245.389 169.623 245.579C166.236 248.753 163.526 253.606 163 258.271C163.109 258.987 163.109 258.987 163.25 259.521C163.671 259.642 164.093 259.762 164.516 259.88C164.751 259.947 164.985 260.014 165.228 260.083C171.795 261.685 178.92 260.105 184.25 256.021Z" fill="#F2DD7C"/>
<path d="M196.75 237.021C201.808 235.588 206.024 231.811 208.58 227.273C211.558 221.696 212.285 215.535 210.543 209.451C209.408 205.848 209.408 205.848 208.553 205.163C207.033 204.773 205.155 206.02 203.847 206.778C198.231 210.194 194.427 215.286 192.781 221.646C191.826 226.655 192.515 231.618 194.5 236.271C194.665 236.271 194.83 236.271 195 236.271C195.763 234.437 196.522 232.601 197.275 230.762C197.625 229.908 197.976 229.055 198.331 228.204C198.674 227.382 199.012 226.558 199.347 225.733C199.476 225.419 199.606 225.105 199.738 224.792C199.922 224.354 200.101 223.912 200.279 223.471C200.382 223.221 200.485 222.97 200.592 222.712C200.784 221.871 200.609 221.538 200.25 220.771C200.294 219.927 200.343 219.283 200.781 218.552C201.509 218.116 202.161 218.065 203 218.021C203.673 218.221 203.908 218.376 204.282 218.967C204.54 219.624 204.508 220.016 204.406 220.709C204.379 220.908 204.351 221.108 204.322 221.314C204.286 221.54 204.286 221.54 204.25 221.771C203.587 222.04 202.929 222.295 202.25 222.521C201.973 223.017 201.973 223.017 201.714 223.677C201.615 223.923 201.517 224.169 201.416 224.423C201.312 224.691 201.208 224.96 201.101 225.236C200.992 225.51 200.883 225.784 200.771 226.067C200.423 226.946 200.079 227.827 199.734 228.709C199.501 229.299 199.268 229.89 199.035 230.48C198.519 231.785 198.006 233.091 197.495 234.398C197.326 234.828 197.15 235.255 196.969 235.679C196.75 236.271 196.75 236.271 196.75 237.021Z" fill="#F2DD7C"/>
<path d="M204 275.271C207.501 271.154 208.576 265.263 208.25 260.021C207.638 253.901 204.768 248.449 200.085 244.468C197.211 242.271 197.211 242.271 196.25 242.271C196.933 245.406 197.646 248.534 198.418 251.648C198.537 252.132 198.653 252.616 198.767 253.1C198.935 253.811 199.11 254.521 199.287 255.23C199.336 255.446 199.386 255.662 199.436 255.884C199.719 256.982 199.858 257.41 200.78 258.134C201.017 258.261 201.255 258.389 201.5 258.521C201.82 259.187 201.835 259.791 201.75 260.521C201.276 261.412 200.97 261.696 200.016 262.021C199.094 262.021 198.714 261.846 198 261.271C197.515 260.632 197.494 260.343 197.562 259.537C197.718 258.785 197.718 258.785 198.03 258.192C198.309 257.341 198.188 256.887 197.963 256.025C197.887 255.73 197.812 255.435 197.735 255.131C197.65 254.814 197.566 254.498 197.479 254.172C197.393 253.844 197.309 253.515 197.224 253.186C197.001 252.322 196.774 251.46 196.546 250.598C196.314 249.717 196.086 248.835 195.857 247.953C195.409 246.225 194.956 244.497 194.5 242.771C194.335 242.771 194.17 242.771 194 242.771C190.74 248.853 189.346 255.24 191.34 262.015C193.212 267.919 197.226 272.286 202.516 275.351C203.141 275.571 203.398 275.55 204 275.271Z" fill="#F2DD7C"/>
<path d="M191.5 238.521C191.072 237.593 190.607 237.14 189.797 236.505C189.426 236.21 189.426 236.21 189.048 235.909C188.917 235.805 188.786 235.701 188.651 235.594C187.976 235.051 187.316 234.489 186.656 233.927C186.521 233.813 186.387 233.699 186.248 233.581C185.544 232.985 184.843 232.387 184.142 231.788C183.348 231.11 182.55 230.44 181.75 229.771C181.556 229.604 181.363 229.437 181.163 229.265C180.057 228.357 179.468 228.188 178 228.271C177.068 227.834 177.068 227.834 176.5 227.021C176.376 225.928 176.377 225.441 177.031 224.537C177.708 223.974 177.708 223.974 178.5 223.88C179.451 224.059 179.853 224.3 180.5 225.021C180.527 225.297 180.555 225.573 180.583 225.858C180.788 226.979 181.108 227.265 181.969 227.99C182.219 228.204 182.47 228.418 182.728 228.638C182.982 228.847 183.237 229.056 183.5 229.271C183.721 229.454 183.943 229.637 184.171 229.826C184.617 230.191 185.064 230.555 185.513 230.918C186.353 231.606 187.177 232.312 188 233.021C189.098 233.965 190.199 234.907 191.312 235.834C191.53 236.015 191.748 236.197 191.973 236.384C192.5 236.771 192.5 236.771 193 236.771C192.508 230.069 189.887 224.487 184.75 220.021C179.405 216.025 173.859 214.881 167.25 215.271C166.832 215.346 166.414 215.427 166 215.521C165.697 220.817 167.489 226.511 171.032 230.494C171.593 231.099 172.171 231.685 172.75 232.271C172.899 232.438 173.047 232.604 173.2 232.776C177.94 237.986 184.944 238.726 191.5 238.521Z" fill="#F2DD7C"/>
<path d="M229.948 244.013C230.638 243.398 231.196 242.76 231.75 242.021C228.28 237.264 223.333 233.59 217.401 232.6C211.012 231.82 204.709 232.828 199.547 236.834C198.838 237.424 198.28 238.015 197.75 238.771C200.7 239.071 203.652 239.333 206.609 239.552C207.035 239.585 207.035 239.585 207.469 239.619C208.945 239.725 210.42 239.799 211.899 239.832C212.323 239.842 212.323 239.842 212.756 239.852C213.586 239.762 213.884 239.562 214.5 239.021C215.324 238.725 215.62 238.71 216.422 239.084C217.169 239.649 217.468 240.059 217.609 240.99C217.556 241.81 217.556 241.81 216.984 242.49C216.279 243.081 216.279 243.081 215.375 243.177C214.463 243.107 214.463 243.107 213.943 242.404C213.084 241.619 212.404 241.551 211.291 241.494C211.102 241.479 210.913 241.465 210.718 241.45C210.114 241.406 209.51 241.37 208.906 241.334C208.51 241.306 208.114 241.277 207.718 241.249C206.748 241.179 205.778 241.117 204.807 241.056C204.266 241.022 203.725 240.985 203.184 240.947C202.857 240.924 202.529 240.901 202.192 240.877C201.906 240.857 201.621 240.837 201.326 240.816C200.05 240.746 198.777 240.75 197.5 240.771C200.437 245.102 205.111 247.667 210.078 248.99C217.292 250.36 224.278 248.656 229.948 244.013Z" fill="#F2DD7C"/>
<path d="M422.25 221.021C426.364 217.711 429.347 213.21 430.5 208.021C430.5 207.691 430.5 207.361 430.5 207.021C429.645 207.34 428.901 207.708 428.136 208.204C427.922 208.341 427.709 208.478 427.489 208.619C427.146 208.841 427.146 208.841 426.797 209.068C426.307 209.383 425.817 209.697 425.327 210.011C425.071 210.176 424.815 210.34 424.552 210.509C423.186 211.381 421.812 212.241 420.438 213.099C420.177 213.262 419.917 213.425 419.649 213.593C419.287 213.819 419.287 213.819 418.918 214.049C418.704 214.183 418.49 214.316 418.27 214.454C417.761 214.774 417.761 214.774 417.25 215.021C417.072 215.457 417.072 215.457 416.906 215.99C416.674 216.629 416.507 217.013 416.062 217.537C415.216 217.889 414.624 217.744 413.75 217.521C413.25 217.271 413.25 217.271 413 216.771C412.799 215.92 412.67 215.289 412.922 214.443C413.349 213.894 413.575 213.717 414.25 213.521C414.53 213.595 414.809 213.669 415.098 213.746C416.734 213.964 417.977 212.866 419.281 212.005C419.567 211.822 419.853 211.64 420.139 211.458C420.724 211.084 421.307 210.708 421.889 210.329C422.706 209.798 423.529 209.278 424.354 208.76C428.345 206.252 428.345 206.252 429.5 205.271C425.199 203.296 419.278 204.197 415 205.771C412.515 206.822 410.24 208.193 408.25 210.021C408.043 210.205 407.836 210.389 407.623 210.579C404.236 213.753 401.526 218.606 401 223.271C401.109 223.987 401.109 223.987 401.25 224.521C401.671 224.642 402.093 224.762 402.516 224.88C402.751 224.947 402.985 225.014 403.228 225.083C409.795 226.685 416.92 225.105 422.25 221.021Z" fill="#F2DD7C"/>
<path d="M434.75 202.021C439.808 200.588 444.024 196.811 446.58 192.273C449.558 186.696 450.285 180.535 448.543 174.451C447.408 170.848 447.408 170.848 446.553 170.163C445.033 169.773 443.155 171.02 441.847 171.778C436.231 175.194 432.427 180.286 430.781 186.646C429.826 191.655 430.515 196.618 432.5 201.271C432.665 201.271 432.83 201.271 433 201.271C433.763 199.437 434.522 197.601 435.275 195.762C435.625 194.908 435.976 194.055 436.331 193.204C436.674 192.382 437.012 191.558 437.347 190.733C437.476 190.419 437.606 190.105 437.738 189.792C437.922 189.354 438.101 188.912 438.279 188.471C438.382 188.221 438.485 187.97 438.592 187.712C438.784 186.871 438.609 186.538 438.25 185.771C438.294 184.927 438.343 184.283 438.781 183.552C439.509 183.116 440.161 183.065 441 183.021C441.673 183.221 441.908 183.376 442.282 183.967C442.54 184.624 442.508 185.016 442.406 185.709C442.379 185.908 442.351 186.108 442.322 186.314C442.286 186.54 442.286 186.54 442.25 186.771C441.587 187.04 440.929 187.295 440.25 187.521C439.973 188.017 439.973 188.017 439.714 188.677C439.615 188.923 439.517 189.169 439.416 189.423C439.312 189.691 439.208 189.96 439.101 190.236C438.992 190.51 438.883 190.784 438.771 191.067C438.423 191.946 438.079 192.827 437.734 193.709C437.501 194.299 437.268 194.89 437.035 195.48C436.519 196.785 436.006 198.091 435.495 199.398C435.326 199.828 435.15 200.255 434.969 200.679C434.75 201.271 434.75 201.271 434.75 202.021Z" fill="#F2DD7C"/>
<path d="M442 240.271C445.501 236.154 446.576 230.263 446.25 225.021C445.638 218.901 442.768 213.449 438.085 209.468C435.211 207.271 435.211 207.271 434.25 207.271C434.933 210.406 435.646 213.534 436.418 216.648C436.537 217.132 436.653 217.616 436.767 218.1C436.935 218.811 437.11 219.521 437.287 220.23C437.336 220.446 437.386 220.662 437.436 220.884C437.719 221.982 437.858 222.41 438.78 223.134C439.017 223.261 439.255 223.389 439.5 223.521C439.82 224.187 439.835 224.791 439.75 225.521C439.276 226.412 438.97 226.696 438.016 227.021C437.094 227.021 436.714 226.846 436 226.271C435.515 225.632 435.494 225.343 435.562 224.537C435.718 223.785 435.718 223.785 436.03 223.192C436.309 222.341 436.188 221.887 435.963 221.025C435.887 220.73 435.812 220.435 435.735 220.131C435.65 219.814 435.566 219.498 435.479 219.172C435.393 218.844 435.309 218.515 435.224 218.186C435.001 217.322 434.774 216.46 434.546 215.598C434.314 214.717 434.086 213.835 433.857 212.953C433.409 211.225 432.956 209.497 432.5 207.771C432.335 207.771 432.17 207.771 432 207.771C428.74 213.853 427.346 220.24 429.34 227.015C431.212 232.919 435.226 237.286 440.516 240.351C441.141 240.571 441.398 240.55 442 240.271Z" fill="#F2DD7C"/>
<path d="M429.5 203.521C429.072 202.593 428.607 202.14 427.797 201.505C427.426 201.21 427.426 201.21 427.048 200.909C426.917 200.805 426.786 200.701 426.651 200.594C425.976 200.051 425.316 199.489 424.656 198.927C424.521 198.813 424.387 198.699 424.248 198.581C423.544 197.985 422.843 197.387 422.142 196.788C421.348 196.11 420.55 195.44 419.75 194.771C419.556 194.604 419.363 194.437 419.163 194.265C418.057 193.357 417.468 193.188 416 193.271C415.068 192.834 415.068 192.834 414.5 192.021C414.376 190.928 414.377 190.441 415.031 189.537C415.708 188.974 415.708 188.974 416.5 188.88C417.451 189.059 417.853 189.3 418.5 190.021C418.527 190.297 418.555 190.573 418.583 190.858C418.788 191.979 419.108 192.265 419.969 192.99C420.219 193.204 420.47 193.418 420.728 193.638C420.982 193.847 421.237 194.056 421.5 194.271C421.721 194.454 421.943 194.637 422.171 194.826C422.617 195.191 423.064 195.555 423.513 195.918C424.353 196.606 425.177 197.312 426 198.021C427.098 198.965 428.199 199.907 429.312 200.834C429.53 201.015 429.748 201.197 429.973 201.384C430.5 201.771 430.5 201.771 431 201.771C430.508 195.069 427.887 189.487 422.75 185.021C417.405 181.025 411.859 179.881 405.25 180.271C404.832 180.346 404.414 180.427 404 180.521C403.697 185.817 405.489 191.511 409.032 195.494C409.593 196.099 410.171 196.685 410.75 197.271C410.899 197.438 411.047 197.604 411.2 197.776C415.94 202.986 422.944 203.726 429.5 203.521Z" fill="#F2DD7C"/>
<path d="M467.948 209.013C468.638 208.398 469.196 207.76 469.75 207.021C466.28 202.264 461.333 198.59 455.401 197.6C449.012 196.82 442.709 197.828 437.547 201.834C436.838 202.424 436.28 203.015 435.75 203.771C438.7 204.071 441.652 204.333 444.609 204.552C445.035 204.585 445.035 204.585 445.469 204.619C446.945 204.725 448.42 204.799 449.899 204.832C450.323 204.842 450.323 204.842 450.756 204.852C451.586 204.762 451.884 204.562 452.5 204.021C453.324 203.725 453.62 203.71 454.422 204.084C455.169 204.649 455.468 205.059 455.609 205.99C455.556 206.81 455.556 206.81 454.984 207.49C454.279 208.081 454.279 208.081 453.375 208.177C452.463 208.107 452.463 208.107 451.943 207.404C451.084 206.619 450.404 206.551 449.291 206.494C449.102 206.479 448.913 206.465 448.718 206.45C448.114 206.406 447.51 206.37 446.906 206.334C446.51 206.306 446.114 206.277 445.718 206.249C444.748 206.179 443.778 206.117 442.807 206.056C442.266 206.022 441.725 205.985 441.184 205.947C440.857 205.924 440.529 205.901 440.192 205.877C439.906 205.857 439.621 205.837 439.326 205.816C438.05 205.746 436.777 205.75 435.5 205.771C438.437 210.102 443.111 212.667 448.078 213.99C455.292 215.36 462.278 213.656 467.948 209.013Z" fill="#F2DD7C"/>
<defs>
<filter id="filter0_n_4825_1479" x="0" y="0" width="470" height="266.5" filterUnits="userSpaceOnUse" color-interpolation-filters="sRGB">
<feFlood flood-opacity="0" result="BackgroundImageFix"/>
<feBlend mode="normal" in="SourceGraphic" in2="BackgroundImageFix" result="shape"/>
<feTurbulence type="fractalNoise" baseFrequency="0.3448275625705719 0.3448275625705719" stitchTiles="stitch" numOctaves="3" result="noise" seed="8533" />
<feColorMatrix in="noise" type="luminanceToAlpha" result="alphaNoise" />
<feComponentTransfer in="alphaNoise" result="coloredNoise1">
<feFuncA type="discrete" tableValues="0 0 0 0 0 0 0 0 0 0 0 0 0 0 0 0 0 0 0 1 1 1 1 1 1 1 1 1 1 1 0 0 0 0 0 0 0 0 0 0 0 0 0 0 0 0 0 0 0 0 0 0 0 0 0 0 0 0 0 0 0 0 0 0 0 0 0 0 0 0 0 0 0 0 0 0 0 0 0 0 0 0 0 0 0 0 0 0 0 0 0 0 0 0 0 0 0 0 0 0 "/>
</feComponentTransfer>
<feComposite operator="in" in2="shape" in="coloredNoise1" result="noise1Clipped" />
<feFlood flood-color="#EAD46E" result="color1Flood" />
<feComposite operator="in" in2="noise1Clipped" in="color1Flood" result="color1" />
<feMerge result="effect1_noise_4825_1479">
<feMergeNode in="shape" />
<feMergeNode in="color1" />
</feMerge>
</filter>
</defs>
</svg>
