<svg width="90" height="90" viewBox="0 0 90 90" fill="none" xmlns="http://www.w3.org/2000/svg">
<path d="M4.48692 46.6274C3.56595 47.5484 2.0728 47.5484 1.15167 46.6274C0.230695 45.7064 0.230695 44.2133 1.15167 43.2923C2.07264 42.3713 3.56595 42.3713 4.48692 43.2923C5.40789 44.2133 5.40789 45.7064 4.48692 46.6274ZM2.81929 43.5841L1.44359 44.9598L2.81929 46.3355L4.195 44.9598L2.81929 43.5841Z" fill="#F2DD7C"/>
<path d="M47.2604 4.02582C46.3394 4.94679 44.8462 4.94679 43.9251 4.02582C43.0041 3.10485 43.0041 1.6117 43.9251 0.690728C44.8461 -0.230242 46.3394 -0.230242 47.2604 0.690728C48.1813 1.6117 48.1813 3.10485 47.2604 4.02582ZM45.5927 0.982489L44.217 2.35819L45.5927 3.7339L46.9684 2.35819L45.5927 0.982489Z" fill="#F2DD7C"/>
<path d="M89.2838 46.6274C88.3628 47.5484 86.8697 47.5484 85.9485 46.6274C85.0276 45.7064 85.0276 44.2133 85.9485 43.2923C86.8695 42.3713 88.3628 42.3713 89.2838 43.2923C90.2048 44.2133 90.2048 45.7064 89.2838 46.6274ZM87.6162 43.5841L86.2405 44.9598L87.6162 46.3355L88.9919 44.9598L87.6162 43.5841Z" fill="#F2DD7C"/>
<path d="M46.8854 89.0258C45.9644 89.9468 44.4712 89.9468 43.5501 89.0258C42.6291 88.1049 42.6291 86.6117 43.5501 85.6907C44.4711 84.7698 45.9644 84.7698 46.8854 85.6907C47.8063 86.6117 47.8063 88.1049 46.8854 89.0258ZM45.2177 85.9825L43.842 87.3582L45.2177 88.7339L46.5934 87.3582L45.2177 85.9825Z" fill="#F2DD7C"/>
<rect x="-1.2" y="1.2" width="77.6" height="77.6" transform="matrix(-1 0 0 1 82.7797 5)" stroke="#F2DD7C" stroke-width="2.4"/>
<path d="M39.5781 33L50.7781 45.4593L39.5781 56.2" stroke="#F2DD7C" stroke-width="2.4" stroke-linecap="round"/>
</svg>
