<svg width="33" height="33" viewBox="0 0 33 33" fill="none" xmlns="http://www.w3.org/2000/svg">
<g opacity="0.4">
<path d="M5.2522 25.1372C5.3922 23.6072 5.55219 22.5971 5.74219 22.0771C6.30219 20.5971 7.44217 19.5272 9.16217 18.8572C10.3622 18.3972 11.7921 18.1472 13.4521 18.1072C13.7921 18.7772 14.2722 19.2372 14.8922 19.4872C14.9422 23.6772 13.6922 26.2871 11.1422 27.3271C10.6422 27.5171 9.63219 27.7072 8.12219 27.8972C6.61219 28.0772 5.40218 28.3772 4.48218 28.7872C4.84218 27.8772 5.10219 26.6572 5.24219 25.1372H5.2522ZM4.93219 9.33719C6.41219 8.99719 7.43219 8.84717 7.99219 8.87717C10.7322 9.00717 12.7822 11.0772 14.1422 15.0872C13.6622 15.4872 13.3822 16.0072 13.3022 16.6472C13.2722 16.7172 13.2722 16.7672 13.2822 16.8172C9.26217 18.1472 6.38217 17.7572 4.66217 15.6472C4.30217 15.2072 3.80219 14.2972 3.18219 12.9172C2.55219 11.5372 1.90219 10.4772 1.24219 9.74719C2.23219 9.80719 3.4622 9.66719 4.9422 9.33719H4.93219ZM16.0022 26.0072C15.3522 24.3272 15.4222 22.2172 16.1922 19.6572C16.8922 19.5472 17.4622 19.2372 17.8922 18.7172C21.1622 19.7172 23.1821 21.2072 23.9521 23.1872C24.1321 23.6672 24.2522 24.1772 24.2922 24.7072C24.3322 25.2372 24.2022 26.2572 23.9122 27.7372C23.6222 29.2172 23.5222 30.4572 23.6222 31.4372C22.8622 30.8272 21.8022 30.2172 20.4422 29.6072C19.0122 29.0272 18.0722 28.5672 17.6322 28.2172C16.8922 27.6472 16.3422 26.9072 15.9922 25.9972L16.0022 26.0072ZM14.4022 16.3972C14.5822 15.9972 14.8722 15.7172 15.2822 15.5672C15.5722 15.4572 15.8622 15.4272 16.1522 15.4772C16.7422 15.5772 17.1522 15.9172 17.3722 16.4972C17.5322 16.9072 17.5122 17.3172 17.3322 17.7272C17.1522 18.1472 16.8522 18.4272 16.4422 18.5872C16.0322 18.7472 15.6322 18.7272 15.2222 18.5372C14.8222 18.3472 14.5322 18.0372 14.3722 17.6072C14.2122 17.1972 14.2222 16.7972 14.4022 16.3972ZM13.5222 11.3272C12.7222 9.24718 12.8222 7.42718 13.8222 5.88718C14.1122 5.41718 14.8322 4.65718 15.9922 3.60718C17.0922 2.60718 17.8922 1.69719 18.4022 0.867188C18.4922 1.24719 18.6121 1.62717 18.7621 2.00717C19.0021 2.62717 19.4722 3.52716 20.1622 4.68716C20.7422 5.69716 21.1122 6.47719 21.2722 7.02719C21.9822 9.72719 20.6122 12.3172 17.1722 14.7972C16.5922 14.4372 15.9922 14.3472 15.3622 14.5072C14.5222 13.3972 13.9122 12.3472 13.5222 11.3372V11.3272ZM18.4521 17.4772C18.5721 16.8572 18.4522 16.2572 18.0922 15.6772C19.5322 13.5572 21.0422 12.1872 22.6222 11.5772C23.6522 11.1772 24.6822 11.1072 25.7222 11.3772C26.2622 11.4972 27.2022 11.9172 28.5422 12.6472C29.8822 13.3672 31.0321 13.8172 32.0121 13.9972C31.2821 14.4672 30.2921 15.4472 29.0121 16.9272C27.8821 18.2172 26.9022 19.0172 26.0622 19.3372C23.9322 20.1572 21.4022 19.5572 18.4722 17.5172V17.4772H18.4521Z" fill="url(#paint0_linear_4915_1541)"/>
<path d="M24.0419 32.22L23.4119 31.71C22.6819 31.12 21.6319 30.52 20.3119 29.93C18.8519 29.34 17.9019 28.87 17.4319 28.49C16.6519 27.89 16.0619 27.1 15.6919 26.13C15.0219 24.39 15.0819 22.18 15.8819 19.56L15.9419 19.36L16.1519 19.33C16.7719 19.24 17.2618 18.97 17.6418 18.51L17.7819 18.34L18.0019 18.41C21.3619 19.43 23.4719 21.01 24.2719 23.09C24.4719 23.6 24.5919 24.14 24.6319 24.71C24.6719 25.28 24.5519 26.3 24.2519 27.83C23.9719 29.28 23.8719 30.49 23.9719 31.43L24.0619 32.24L24.0419 32.22ZM16.4619 19.96C15.7719 22.34 15.7219 24.34 16.3219 25.89C16.6519 26.74 17.1619 27.43 17.8519 27.96C18.2719 28.3 19.1818 28.75 20.5818 29.31C21.6518 29.79 22.5518 30.27 23.2618 30.75C23.2618 29.88 23.3619 28.85 23.5919 27.68C23.8819 26.23 24.0019 25.24 23.9619 24.74C23.9219 24.24 23.8118 23.76 23.6418 23.32C22.9318 21.49 21.0418 20.07 18.0118 19.11C17.5918 19.55 17.0819 19.83 16.4719 19.96H16.4619ZM11.2819 27.66C10.7419 27.87 9.72188 28.06 8.17188 28.25C6.70187 28.43 5.5119 28.72 4.6319 29.11L3.87189 29.45L4.18188 28.68C4.53188 27.8 4.78187 26.61 4.91187 25.12C5.05187 23.55 5.22188 22.52 5.42188 21.98C6.41187 19.35 9.25189 17.89 13.4419 17.79H13.6519L13.7519 17.98C14.0519 18.58 14.4719 18.98 15.0219 19.2L15.2319 19.29V19.51C15.2819 23.83 13.9519 26.58 11.2819 27.66ZM5.04187 28.22C5.88187 27.94 6.90185 27.72 8.08185 27.58C9.56185 27.4 10.5519 27.22 11.0219 27.03C13.3619 26.08 14.5519 23.62 14.5519 19.72C14.0119 19.45 13.5819 19.03 13.2519 18.46C9.47189 18.59 6.92188 19.88 6.05188 22.2C5.87188 22.68 5.71185 23.68 5.58185 25.17C5.47185 26.36 5.29187 27.38 5.04187 28.22ZM26.1719 19.65C23.9419 20.51 21.2819 19.89 18.2719 17.79L18.1919 17.73L18.1219 17.54V17.41C18.2319 16.87 18.1219 16.36 17.8119 15.85L17.6919 15.66L17.8119 15.48C20.2619 11.87 23.0519 10.35 25.8019 11.04C26.3719 11.17 27.3218 11.59 28.7018 12.34C30.0018 13.04 31.1319 13.48 32.0719 13.65L32.9119 13.8L32.1919 14.27C31.4919 14.72 30.5118 15.69 29.2618 17.14C28.0818 18.48 27.0819 19.3 26.1819 19.65H26.1719ZM18.8119 17.34C21.5619 19.21 23.9619 19.78 25.9319 19.01C26.7119 18.71 27.6619 17.93 28.7519 16.69C29.7419 15.54 30.5519 14.7 31.2219 14.15C30.3819 13.91 29.4219 13.51 28.3719 12.94C27.0719 12.24 26.1518 11.82 25.6418 11.71C23.1918 11.09 20.7319 12.46 18.4919 15.7C18.7719 16.23 18.8819 16.78 18.8219 17.35L18.8119 17.34ZM16.5619 18.9C16.0719 19.09 15.5718 19.07 15.0818 18.84C14.6018 18.62 14.2519 18.24 14.0619 17.73C13.8719 17.24 13.8819 16.74 14.1019 16.26C14.3119 15.78 14.6719 15.44 15.1619 15.25C15.5019 15.12 15.8619 15.08 16.2119 15.14C16.9119 15.26 17.4219 15.69 17.6819 16.37C17.8719 16.86 17.8519 17.36 17.6319 17.86C17.4119 18.36 17.0519 18.71 16.5619 18.9ZM14.7119 16.53C14.5719 16.85 14.5619 17.16 14.6919 17.48C14.8219 17.83 15.0519 18.07 15.3719 18.22C16.0119 18.52 16.7318 18.24 17.0219 17.58C17.1719 17.25 17.1819 16.93 17.0519 16.61C16.8719 16.14 16.5719 15.89 16.0919 15.81C15.5219 15.71 14.9519 15.99 14.7119 16.54V16.53ZM13.7319 17.03L13.3918 17.14C9.24185 18.51 6.21186 18.08 4.40186 15.86C4.02186 15.4 3.52189 14.48 2.87189 13.06C2.26189 11.72 1.62187 10.68 0.981873 9.97998L0.421875 9.35999L1.25189 9.40997C2.20189 9.46997 3.41187 9.33 4.85187 9C6.37187 8.65 7.41189 8.5 8.00189 8.53C10.8819 8.66 13.0518 10.83 14.4518 14.97L14.5219 15.19L14.3519 15.34C13.9419 15.69 13.7019 16.13 13.6219 16.69V16.75L13.7119 17.02L13.7319 17.03ZM1.96185 10.1C2.48185 10.8 3.00188 11.7 3.49188 12.78C4.10188 14.13 4.59188 15.02 4.93188 15.43C6.52188 17.38 9.23187 17.76 12.9819 16.57C13.0719 15.95 13.3318 15.42 13.7618 15C12.4618 11.28 10.5219 9.33997 7.99188 9.21997C7.46188 9.18997 6.46185 9.33998 5.02185 9.66998C3.86185 9.92998 2.84186 10.08 1.97186 10.1H1.96185ZM17.1819 15.2L16.9919 15.08C16.4919 14.77 15.9819 14.69 15.4419 14.83L15.2219 14.89L15.0818 14.71C14.2318 13.59 13.5919 12.49 13.1919 11.46C12.3519 9.27999 12.4619 7.34997 13.5219 5.71997C13.8219 5.22997 14.5519 4.46 15.7519 3.37C16.8219 2.4 17.6119 1.49998 18.1019 0.699982L18.5319 0L18.7219 0.799988C18.8019 1.15999 18.9219 1.52999 19.0619 1.89999C19.2919 2.49999 19.7619 3.39 20.4419 4.53C21.0519 5.58 21.4218 6.36998 21.5818 6.94998C22.3318 9.78998 20.9019 12.53 17.3519 15.09L17.1719 15.22L17.1819 15.2ZM15.5019 14.12C16.0619 14.02 16.6118 14.12 17.1418 14.39C20.3218 12.05 21.5919 9.59999 20.9419 7.10999C20.7919 6.59999 20.4319 5.83999 19.8719 4.85999C19.1719 3.68999 18.6919 2.76998 18.4419 2.13998C18.3819 1.97998 18.3218 1.81998 18.2719 1.66998C17.7619 2.35998 17.0719 3.09 16.2219 3.87C15.0919 4.89999 14.3819 5.63999 14.1119 6.07999C13.1619 7.54999 13.0719 9.21997 13.8419 11.22C14.2019 12.14 14.7618 13.12 15.5118 14.14L15.5019 14.12Z" fill="url(#paint1_linear_4915_1541)"/>
</g>
<defs>
<linearGradient id="paint0_linear_4915_1541" x1="2.40768" y1="23.2379" x2="31.3238" y2="12.0917" gradientUnits="userSpaceOnUse">
<stop stop-color="#F3E868"/>
<stop offset="0.22" stop-color="#D18420"/>
<stop offset="0.29" stop-color="#FAC73B"/>
<stop offset="0.33" stop-color="#E9AB2D"/>
<stop offset="0.38" stop-color="#D28319"/>
<stop offset="0.43" stop-color="#E7A631"/>
<stop offset="0.47" stop-color="#F4BB41"/>
<stop offset="0.5" stop-color="#F9C447"/>
<stop offset="0.65" stop-color="#FFF5C3"/>
<stop offset="0.67" stop-color="#FEEFB3"/>
<stop offset="0.71" stop-color="#FCE18B"/>
<stop offset="0.77" stop-color="#FACA4B"/>
<stop offset="0.79" stop-color="#F9BF2A"/>
<stop offset="0.8" stop-color="#F8C02B"/>
<stop offset="0.82" stop-color="#F7D247"/>
<stop offset="0.85" stop-color="#F6DF5B"/>
<stop offset="0.87" stop-color="#F6E767"/>
<stop offset="0.9" stop-color="#F6EA6C"/>
<stop offset="1" stop-color="#F9F4C3"/>
</linearGradient>
<linearGradient id="paint1_linear_4915_1541" x1="1.66382" y1="23.5916" x2="32.1848" y2="11.8268" gradientUnits="userSpaceOnUse">
<stop stop-color="#853A19"/>
<stop offset="0.07" stop-color="#B97216"/>
<stop offset="0.18" stop-color="#FFE343"/>
<stop offset="0.23" stop-color="#B26E16"/>
<stop offset="0.29" stop-color="#E89F2E"/>
<stop offset="0.38" stop-color="#FFE84D"/>
<stop offset="0.45" stop-color="#DD9324"/>
<stop offset="0.53" stop-color="#DD9B24"/>
<stop offset="0.6" stop-color="#A96E17"/>
<stop offset="0.71" stop-color="#C38C21"/>
<stop offset="0.82" stop-color="#F4B630"/>
<stop offset="0.91" stop-color="#BF8335"/>
<stop offset="1" stop-color="#853A19"/>
</linearGradient>
</defs>
</svg>
