<svg width="69" height="71" viewBox="0 0 69 71" fill="none" xmlns="http://www.w3.org/2000/svg">
<path d="M47.4988 19.4808C43.385 22.7909 40.4018 27.2922 39.2488 32.4808C39.2488 32.8108 39.2488 33.1408 39.2488 33.4808C40.1036 33.1617 40.8475 32.7935 41.613 32.2982C41.8266 32.161 42.0402 32.0237 42.2603 31.8824C42.6026 31.6604 42.6026 31.6604 42.9519 31.4339C43.4417 31.1193 43.9316 30.8048 44.4216 30.4906C44.6775 30.3263 44.9335 30.162 45.1971 29.9928C46.5629 29.1205 47.9369 28.2613 49.3113 27.4027C49.5716 27.2397 49.8319 27.0767 50.1002 26.9088C50.4618 26.6829 50.4618 26.6829 50.8308 26.4525C51.0446 26.319 51.2583 26.1854 51.4785 26.0479C51.9875 25.7277 51.9875 25.7277 52.4988 25.4808C52.6765 25.0453 52.6765 25.0453 52.8425 24.5121C53.0743 23.873 53.2416 23.4893 53.6863 22.9652C54.5323 22.6127 55.1246 22.7583 55.9988 22.9808C56.4988 23.2308 56.4988 23.2308 56.7488 23.7308C56.9499 24.5816 57.0784 25.2129 56.8269 26.0589C56.3998 26.6081 56.1743 26.7853 55.4988 26.9808C55.2191 26.9067 54.9393 26.8326 54.6511 26.7562C53.0148 26.5375 51.772 27.6361 50.4675 28.4964C50.182 28.6795 49.8961 28.862 49.6099 29.044C49.0246 29.4175 48.4413 29.7939 47.8595 30.1728C47.0429 30.7039 46.2196 31.224 45.3943 31.7415C41.4041 34.2494 41.4041 34.2494 40.2488 35.2308C44.5494 37.2061 50.4712 36.3053 54.7488 34.7308C57.2334 33.6796 59.5088 32.309 61.4988 30.4808C61.7057 30.2968 61.9126 30.1128 62.1257 29.9232C65.5128 26.7485 68.2224 21.8959 68.7488 17.2308C68.6394 16.515 68.6394 16.515 68.4988 15.9808C68.0773 15.8596 67.6553 15.7402 67.2332 15.6214C66.9982 15.5547 66.7633 15.488 66.5212 15.4193C59.954 13.8169 52.8285 15.3968 47.4988 19.4808Z" fill="#F2DD7C"/>
<path d="M34.9988 38.4808C29.9404 39.914 25.7246 43.6906 23.1687 48.2289C20.1909 53.8055 19.4641 59.9666 21.2058 66.0511C22.3413 69.6543 22.3413 69.6543 23.196 70.3392C24.7154 70.7284 26.5937 69.4815 27.9021 68.724C33.5179 65.3082 37.3221 60.2156 38.9675 53.8558C39.9228 48.8464 39.234 43.8839 37.2488 39.2308C37.0838 39.2308 36.9188 39.2308 36.7488 39.2308C35.9853 41.0651 35.2266 42.9013 34.4738 44.7399C34.124 45.5937 33.7727 46.4467 33.4177 47.2982C33.0751 48.1202 32.7368 48.9437 32.4014 49.7686C32.2727 50.0829 32.1425 50.3966 32.0108 50.7096C31.8265 51.1483 31.648 51.5895 31.4698 52.0308C31.3666 52.2812 31.2633 52.5315 31.1569 52.7895C30.9645 53.6306 31.1401 53.9642 31.4988 54.7308C31.4551 55.5747 31.406 56.2187 30.9675 56.9496C30.2398 57.3862 29.588 57.4366 28.7488 57.4808C28.0755 57.2806 27.8406 57.1261 27.4666 56.5345C27.2084 55.8781 27.2406 55.4863 27.3425 54.7933C27.3702 54.5935 27.398 54.3937 27.4265 54.1878C27.4623 53.9616 27.4623 53.9616 27.4988 53.7308C28.1618 53.462 28.8197 53.2072 29.4988 52.9808C29.7754 52.4846 29.7754 52.4846 30.035 51.8248C30.1334 51.5786 30.2318 51.3324 30.3333 51.0787C30.4372 50.8105 30.5411 50.5423 30.6482 50.266C30.7569 49.9918 30.8657 49.7177 30.9777 49.4353C31.3259 48.5556 31.6702 47.6745 32.0144 46.7933C32.2474 46.2027 32.4806 45.6122 32.7141 45.0218C33.2297 43.7168 33.7429 42.4108 34.2539 41.104C34.4228 40.6741 34.5987 40.247 34.7803 39.8223C34.9988 39.2308 34.9988 39.2308 34.9988 38.4808Z" fill="#F2DD7C"/>
<path d="M27.7488 0.230808C24.2476 4.34755 23.1726 10.2388 23.4988 15.4808C24.111 21.6006 26.9803 27.053 31.6638 31.0335C34.5375 33.2308 34.5375 33.2308 35.4988 33.2308C34.8161 30.0953 34.1026 26.9682 33.3308 23.8534C33.2122 23.3701 33.096 22.8863 32.9819 22.402C32.8141 21.6904 32.6387 20.9811 32.4617 20.2718C32.4124 20.056 32.3631 19.8401 32.3124 19.6177C32.0294 18.5199 31.8904 18.092 30.969 17.3683C30.7313 17.2404 30.4937 17.1126 30.2488 16.9808C29.9285 16.3151 29.9133 15.711 29.9988 14.9808C30.4727 14.0898 30.7784 13.8058 31.7332 13.4808C32.6552 13.4808 33.0351 13.6559 33.7488 14.2308C34.2337 14.8701 34.2549 15.1587 34.1863 15.9652C34.0304 16.7166 34.0304 16.7166 33.7191 17.3102C33.4397 18.1608 33.561 18.6145 33.7863 19.4767C33.8614 19.7719 33.9365 20.0671 34.0139 20.3713C34.0985 20.6875 34.1831 21.0037 34.2703 21.3294C34.3554 21.6583 34.4402 21.9872 34.5246 22.3162C34.7473 23.1798 34.9746 24.0421 35.2028 24.9042C35.4351 25.785 35.6631 26.6669 35.8914 27.5487C36.3396 29.2772 36.7926 31.0044 37.2488 32.7308C37.4138 32.7308 37.5788 32.7308 37.7488 32.7308C41.0084 26.6484 42.4024 20.262 40.4092 13.4864C38.5365 7.58323 34.5224 3.2161 29.2332 0.15073C28.6076 -0.0687142 28.3506 -0.048538 27.7488 0.230808Z" fill="#F2DD7C"/>
<path d="M40.2488 36.9808C40.6771 37.909 41.1418 38.3619 41.9519 38.9964C42.3227 39.2918 42.3227 39.2918 42.7009 39.5931C42.8317 39.697 42.9625 39.8009 43.0973 39.9079C43.7728 40.4512 44.4323 41.0129 45.0925 41.5746C45.2274 41.6889 45.3623 41.8032 45.5012 41.921C46.2045 42.5173 46.9063 43.1152 47.6072 43.7142C48.4003 44.3913 49.1989 45.0616 49.9988 45.7308C50.1925 45.8977 50.3861 46.0647 50.5857 46.2367C51.6917 47.1445 52.2811 47.3139 53.7488 47.2308C54.6808 47.6676 54.6808 47.6676 55.2488 48.4808C55.3726 49.5742 55.3718 50.0607 54.7175 50.9652C54.0403 51.5278 54.0403 51.5278 53.2488 51.6214C52.2976 51.4431 51.8958 51.2018 51.2488 50.4808C51.2214 50.2046 51.194 49.9284 51.1658 49.6439C50.9608 48.5229 50.641 48.2364 49.78 47.5121C49.5296 47.2981 49.2792 47.0841 49.0212 46.8636C48.7663 46.6548 48.5114 46.446 48.2488 46.2308C48.0274 46.0478 47.806 45.8647 47.5779 45.6761C47.132 45.3104 46.6847 44.9466 46.2361 44.5843C45.3954 43.8962 44.5716 43.1903 43.7488 42.4808C42.6503 41.5364 41.5497 40.5951 40.4363 39.6683C40.2184 39.4866 40.0006 39.3048 39.7761 39.1175C39.2488 38.7308 39.2488 38.7308 38.7488 38.7308C39.2408 45.4327 41.8621 51.0148 46.9988 55.4808C52.3438 59.4765 57.8897 60.6206 64.4988 60.2308C64.917 60.1557 65.3344 60.075 65.7488 59.9808C66.0518 54.6845 64.26 48.9907 60.7163 45.008C60.156 44.4032 59.5783 43.8173 58.9988 43.2308C58.8502 43.0642 58.7017 42.8976 58.5486 42.7259C53.809 37.516 46.8043 36.7753 40.2488 36.9808Z" fill="#F2DD7C"/>
<path d="M1.80054 31.4886C1.11068 32.104 0.552719 32.7422 -0.0012207 33.4808C3.46851 38.2373 8.41613 41.9123 14.3479 42.9013C20.7371 43.6814 27.0402 42.6738 32.2019 38.6683C32.9109 38.0777 33.4688 37.4865 33.9988 36.7308C31.0486 36.4307 28.0967 36.1688 25.1394 35.9496C24.7139 35.9167 24.7139 35.9167 24.2798 35.8833C22.804 35.777 21.3287 35.7028 19.8494 35.6703C19.4254 35.6602 19.4254 35.6602 18.9929 35.6499C18.163 35.7401 17.8644 35.9399 17.2488 36.4808C16.4252 36.7765 16.1292 36.7915 15.3269 36.4183C14.58 35.8531 14.2811 35.4432 14.1394 34.5121C14.1926 33.6916 14.1926 33.6916 14.7644 33.0121C15.4701 32.4205 15.4701 32.4205 16.3738 32.3246C17.286 32.3952 17.286 32.3952 17.806 33.0982C18.6647 33.8824 19.3449 33.951 20.4578 34.0082C20.6469 34.0224 20.836 34.0367 21.0308 34.0514C21.6345 34.0958 22.2383 34.1322 22.8425 34.1683C23.2387 34.1961 23.6349 34.2244 24.031 34.2533C25.001 34.3227 25.9712 34.3852 26.9418 34.4454C27.483 34.4798 28.024 34.5168 28.565 34.555C28.8922 34.5779 29.2193 34.6008 29.5564 34.6244C29.8423 34.6446 30.1282 34.6648 30.4228 34.6856C31.6984 34.7554 32.9718 34.7522 34.2488 34.7308C31.3119 30.4003 26.6374 27.8349 21.6707 26.5121C14.4565 25.1414 7.4705 26.8455 1.80054 31.4886Z" fill="#F2DD7C"/>
</svg>
