<svg width="589" height="289" viewBox="0 0 589 289" fill="none" xmlns="http://www.w3.org/2000/svg">
<path d="M9.27204 204.779C5.84387 205.466 4.14071 205.819 0.734375 206.526C6.62995 187.124 15.5825 167.015 26.0853 149.484C29.0113 148.236 30.4743 147.612 33.4439 146.406C37.1122 139.668 39.0556 136.383 43.117 129.915C40.3221 131.288 38.9464 131.995 36.1952 133.409C47.4622 116.336 61.7426 99.3875 76.8309 85.2257C96.3955 68.2773 114.65 54.8226 136.813 41.0352C126.987 60.271 118.558 81.025 112.03 101.488C93.4696 107.706 84.4297 111.199 66.9613 118.811C62.3977 127.919 60.2797 132.577 56.3493 142.122C68.8173 137.818 75.1496 135.8 88.0325 131.995C81.7439 151.813 76.8309 172.713 73.5993 193.196C59.3626 195.442 52.2879 196.648 38.2914 199.185C35.2126 212.328 37.2214 218.712 43.3135 217.901C61.4151 215.51 70.5205 214.408 88.9059 212.391C86.3512 237.803 85.5214 263.36 86.3949 288.877C67.3107 288.877 57.7686 288.897 38.6844 288.918C33.0508 288.918 27.6357 286.402 22.6353 281.598C17.6569 276.794 13.4426 270.452 10.342 262.716C7.24134 254.98 5.34166 246.1 4.99229 236.097C4.64292 226.116 6.06223 215.697 9.29387 204.738L9.27204 204.779Z" fill="url(#paint0_linear_4696_8251)"/>
<path d="M213.977 9.72128C209.872 32.7212 206.334 55.5963 203.234 78.7417C202.033 78.9289 200.941 79.1784 199.937 79.4696C198.932 79.7607 197.993 80.3638 197.164 81.258C196.312 82.1522 195.526 83.6703 194.805 85.833C194.085 87.9957 193.473 91.0111 192.993 94.9415C188.386 131.417 186.115 168.038 184.543 204.721C183.604 232.754 183.56 260.807 184.368 288.839C171.638 288.839 165.284 288.839 152.554 288.839C134.911 210.461 113.665 118.399 139.671 39.1886C148.405 34.3432 152.903 32.0765 162.074 27.9174C155.611 64.5176 156.724 100.743 159.213 137.593C160.283 129.046 161.506 120.021 162.947 110.601C164.388 101.18 166.135 91.9677 168.144 82.9424C170.153 73.9172 172.468 65.4534 174.979 57.4679C177.49 49.4824 180.35 42.4119 183.407 36.1316C186.486 29.8514 189.761 24.6317 193.233 20.4102C196.705 16.1887 200.373 13.4645 204.369 12.2999C208.19 11.1978 210.112 10.6779 213.999 9.67969L213.977 9.72128Z" fill="url(#paint1_linear_4696_8251)"/>
<path d="M210.278 178.224C206.545 178.453 204.689 178.578 200.977 178.827C202.09 152.77 203.859 126.734 206.348 100.761C209.82 100.324 211.545 100.116 215.017 99.7001C215.803 90.5084 216.218 85.975 217.113 77.0537C213.728 77.5112 212.047 77.74 208.706 78.2391C211.589 54.9896 214.864 31.9689 218.685 8.84429C244.451 2.75119 271.003 -0.118598 297.511 0.297314C297.751 24.2122 297.97 48.1479 298.144 72.0628C277.008 71.8548 266.417 72.2499 245.696 73.9552C244.997 85.767 244.669 91.7978 244.102 104.067C258.404 103.09 265.588 102.778 280.086 102.528C279.803 126.921 279.628 151.335 279.497 175.729C264.299 175.874 256.722 176.061 241.634 176.644C241.176 193.218 244.254 201.619 250.696 201.453C269.802 200.995 279.431 200.891 298.647 200.974C298.69 230.255 298.647 259.514 298.603 288.794C279.519 288.794 269.955 288.794 250.871 288.794C245.237 288.794 239.844 285.696 234.734 279.602C229.603 273.509 225.105 265.337 221.305 255.23C217.506 245.123 214.536 233.353 212.506 220.044C210.475 206.735 209.733 192.781 210.278 178.203V178.224Z" fill="url(#paint2_linear_4696_8251)"/>
<path d="M406.354 204.654C407.381 232.708 407.468 260.782 406.616 288.835C401.529 288.835 398.996 288.835 393.93 288.835C389.978 288.835 386.353 286.734 382.991 282.555C379.628 278.375 376.724 272.697 374.191 265.585C371.658 258.473 369.649 250.197 368.121 240.859C366.592 231.522 365.74 221.561 365.588 211.059C365.369 197.563 365.216 190.867 364.802 177.683C363.513 143.619 361.832 109.556 358.797 75.5972C352.399 76.6578 347.595 79.486 344.385 84.0402C341.176 88.5737 338.905 94.9163 337.573 103.089C336.241 111.262 335.651 121.431 335.826 133.7C335.979 145.969 336.241 160.173 336.546 176.476C337.092 213.95 337.136 251.382 336.743 288.856C324.013 288.856 317.659 288.856 304.929 288.856C305.234 192.593 304.667 96.3512 302.68 0.109375C313.095 0.442104 318.248 0.816424 328.424 1.98097C328.839 7.09668 329.035 9.69613 329.428 14.9574C333.249 10.5279 336.94 7.72055 340.652 6.41043C344.342 5.10031 348.338 4.87156 352.639 5.70338C361.941 7.4918 366.527 8.57316 375.545 11.027C387.51 69.4625 393.188 128.584 396.419 187.976C396.616 192.323 396.987 195.608 397.577 197.833C398.166 200.059 398.887 201.618 399.738 202.554C400.612 203.469 401.638 204.051 402.795 204.28C403.974 204.509 405.175 204.654 406.398 204.717L406.354 204.654Z" fill="url(#paint3_linear_4696_8251)"/>
<path d="M469.895 194.444C470.31 198.478 470.834 201.618 471.511 203.843C472.188 206.068 472.974 207.69 473.869 208.73C474.765 209.77 475.769 210.331 476.861 210.435C477.953 210.539 479.154 210.664 480.464 210.789C482.691 236.763 483.346 262.861 482.429 288.897C477.341 288.897 474.808 288.897 469.743 288.897C465.79 288.897 462.166 286.942 458.847 282.991C455.506 279.04 452.624 273.696 450.091 266.937C447.558 260.178 445.505 252.339 443.846 243.459C442.186 234.579 441.16 225.138 440.701 215.198C440.112 202.429 439.697 196.107 438.671 183.651C435.898 151.418 431.683 119.205 425.045 87.4714C415.307 85.1215 410.394 84.0401 400.459 82.1061C396.594 59.3974 392.62 36.7926 387.117 14.375C408.538 20.8424 430.744 30.5955 449.829 41.9083C459.829 60.9986 468.432 81.6486 475.092 102.007C465.9 98.8673 461.249 97.3908 451.816 94.625C460.79 127.316 466.402 160.88 469.961 194.485L469.895 194.444Z" fill="url(#paint4_linear_4696_8251)"/>
<path d="M502.094 191.804C497.902 168.305 492.902 146.033 486.526 122.992C482.988 111.367 480.172 100.99 478.01 91.965C475.848 82.9397 474.32 75.8276 473.555 70.504C472.791 65.1803 472.769 61.8114 473.708 60.231C474.647 58.6505 476.656 59.2744 480.084 61.8114C491.679 70.4416 497.203 75.0998 507.641 84.9569C522.729 99.0979 537.053 116.025 548.32 133.099C539.105 128.336 534.389 126.07 524.781 121.703C522.052 120.455 519.366 119.082 516.746 117.523C514.126 115.984 512.182 115.298 510.894 115.485C509.606 115.693 509.235 117.294 509.693 120.372C510.173 123.449 512.117 129.168 515.239 137.715C534.236 143.871 543.494 147.24 561.465 154.476C572.492 174.253 577.077 184.755 583.955 206.507C587.362 217.237 588.934 227.427 588.716 237.18C588.497 246.954 586.707 255.647 583.672 263.237C580.636 270.807 576.466 277.025 571.509 281.745C566.553 286.466 561.137 288.94 555.504 288.94C536.42 288.94 526.878 288.92 507.793 288.899C508.601 263.715 507.662 238.47 504.911 213.411C520.764 215.22 528.646 216.198 544.28 218.298C546.093 218.548 547.927 218.839 549.761 219.213C551.595 219.587 553.146 219.317 554.39 218.444C555.635 217.591 556.421 215.782 556.683 213.12C556.945 210.437 556.465 206.32 555.111 200.788C534.192 196.858 523.559 195.049 502.073 191.784L502.094 191.804Z" fill="url(#paint5_linear_4696_8251)"/>
<defs>
<linearGradient id="paint0_linear_4696_8251" x1="68.7737" y1="41.0352" x2="68.7737" y2="288.918" gradientUnits="userSpaceOnUse">
<stop stop-color="white"/>
<stop offset="1" stop-color="#858585"/>
</linearGradient>
<linearGradient id="paint1_linear_4696_8251" x1="170.765" y1="9.67969" x2="170.765" y2="288.839" gradientUnits="userSpaceOnUse">
<stop stop-color="white"/>
<stop offset="1" stop-color="#858585"/>
</linearGradient>
<linearGradient id="paint2_linear_4696_8251" x1="249.821" y1="0.257812" x2="249.821" y2="288.794" gradientUnits="userSpaceOnUse">
<stop stop-color="white"/>
<stop offset="1" stop-color="#858585"/>
</linearGradient>
<linearGradient id="paint3_linear_4696_8251" x1="354.938" y1="0.109375" x2="354.938" y2="288.856" gradientUnits="userSpaceOnUse">
<stop stop-color="white"/>
<stop offset="1" stop-color="#858585"/>
</linearGradient>
<linearGradient id="paint4_linear_4696_8251" x1="434.974" y1="14.375" x2="434.974" y2="288.897" gradientUnits="userSpaceOnUse">
<stop stop-color="white"/>
<stop offset="1" stop-color="#858585"/>
</linearGradient>
<linearGradient id="paint5_linear_4696_8251" x1="530.864" y1="59.3672" x2="530.864" y2="288.94" gradientUnits="userSpaceOnUse">
<stop stop-color="white"/>
<stop offset="1" stop-color="#858585"/>
</linearGradient>
</defs>
</svg>
