<svg width="468" height="255" viewBox="0 0 468 255" fill="none" xmlns="http://www.w3.org/2000/svg">
<g filter="url(#filter0_n_4825_1480)">
<path d="M316.5 -8.59048C313.667 0.0757751 298.5 15.1083 260.5 5.90829C256.333 24.7416 234.9 60.1083 182.5 50.9083C168.833 72.0749 133.9 107.508 103.5 79.9082C88.6667 102.242 46.8 148.41 -2 154.41V84.9102C17.8333 83.0764 58.3 61.809 61.5 -8.59048H161.5C169.167 -1.92404 190.1 7.409 212.5 -8.59048H316.5Z" fill="#F2DD7C" fill-opacity="0.8"/>
<path d="M39 -10.5898C41.5 7.07683 36.8 42.9102 -2 44.9102V-10.5898H39Z" fill="#F2DD7C" fill-opacity="0.8"/>
<path d="M468 -11.5905C464.833 -5.25714 448.2 7.90952 407 9.90952V-8.59048L468 -11.5905Z" fill="#F2DD7C" fill-opacity="0.8"/>
<path d="M396.444 -7.95438C392.644 -5.15829 388.537 0.740723 385 11.9095C373.167 12.5762 347.6 9.40952 340 -8.59048L396.444 -7.95438Z" fill="#F2DD7C" fill-opacity="0.8"/>
<path d="M-2 179.91C15.5 186.91 40 211.71 -2 254.91V179.91Z" fill="#F2DD7C" fill-opacity="0.8"/>
</g>
<path d="M20.25 167.931C24.3638 164.621 27.347 160.12 28.5 154.931C28.5 154.601 28.5 154.271 28.5 153.931C27.6452 154.25 26.9013 154.618 26.1357 155.114C25.9222 155.251 25.7086 155.388 25.4885 155.53C25.1462 155.752 25.1462 155.752 24.7969 155.978C24.3071 156.293 23.8172 156.607 23.3271 156.921C23.0712 157.086 22.8153 157.25 22.5516 157.419C21.1858 158.291 19.8119 159.151 18.4375 160.009C18.1772 160.172 17.9168 160.335 17.6486 160.503C17.2869 160.729 17.2869 160.729 16.918 160.96C16.7042 161.093 16.4905 161.227 16.2703 161.364C15.7613 161.684 15.7613 161.684 15.25 161.931C15.0723 162.367 15.0723 162.367 14.9062 162.9C14.6745 163.539 14.5072 163.923 14.0625 164.447C13.2165 164.799 12.6242 164.654 11.75 164.431C11.25 164.181 11.25 164.181 11 163.681C10.7989 162.83 10.6704 162.199 10.9219 161.353C11.349 160.804 11.5745 160.627 12.25 160.431C12.5297 160.505 12.8095 160.579 13.0977 160.656C14.7339 160.875 15.9768 159.776 17.2812 158.916C17.5668 158.733 17.8527 158.55 18.1389 158.368C18.7242 157.994 19.3075 157.618 19.8893 157.239C20.7059 156.708 21.5292 156.188 22.3545 155.67C26.3447 153.163 26.3447 153.163 27.5 152.181C23.1994 150.206 17.2776 151.107 13 152.681C10.5154 153.732 8.24001 155.103 6.25 156.931C6.04311 157.115 5.83621 157.299 5.62305 157.489C2.23597 160.664 -0.473615 165.516 -1 170.181C-0.890625 170.897 -0.890625 170.897 -0.75 171.431C-0.328523 171.552 0.0934564 171.672 0.515625 171.791C0.750557 171.857 0.985488 171.924 1.22754 171.993C7.79481 173.595 14.9202 172.015 20.25 167.931Z" fill="#F2DD7C"/>
<path d="M32.75 148.931C37.8084 147.498 42.0242 143.721 44.5801 139.183C47.5578 133.606 48.2847 127.445 46.543 121.361C45.4075 117.758 45.4075 117.758 44.5527 117.073C43.0334 116.684 41.1551 117.93 39.8467 118.688C34.2309 122.104 30.4267 127.196 28.7812 133.556C27.826 138.566 28.5148 143.528 30.5 148.181C30.665 148.181 30.83 148.181 31 148.181C31.7634 146.347 32.5222 144.511 33.275 142.672C33.6248 141.818 33.9761 140.965 34.3311 140.114C34.6736 139.292 35.0119 138.468 35.3474 137.643C35.4761 137.329 35.6063 137.015 35.738 136.702C35.9223 136.264 36.1008 135.822 36.2789 135.381C36.3822 135.131 36.4854 134.88 36.5918 134.622C36.7843 133.781 36.6087 133.448 36.25 132.681C36.2937 131.837 36.3428 131.193 36.7812 130.462C37.509 130.026 38.1608 129.975 39 129.931C39.6733 130.131 39.9081 130.286 40.2822 130.877C40.5404 131.534 40.5082 131.926 40.4062 132.619C40.3785 132.818 40.3508 133.018 40.3223 133.224C40.2865 133.45 40.2865 133.45 40.25 133.681C39.5869 133.95 38.9291 134.205 38.25 134.431C37.9734 134.927 37.9734 134.927 37.7138 135.587C37.6154 135.833 37.5169 136.08 37.4155 136.333C37.3116 136.601 37.2077 136.87 37.1006 137.146C36.9919 137.42 36.8831 137.694 36.7711 137.977C36.4229 138.856 36.0786 139.737 35.7344 140.619C35.5014 141.209 35.2682 141.8 35.0347 142.39C34.5191 143.695 34.0059 145.001 33.4949 146.308C33.326 146.738 33.1501 147.165 32.9685 147.59C32.75 148.181 32.75 148.181 32.75 148.931Z" fill="#F2DD7C"/>
<path d="M40 187.181C43.5012 183.064 44.5762 177.173 44.25 171.931C43.6377 165.811 40.7685 160.359 36.085 156.378C33.2112 154.181 33.2112 154.181 32.25 154.181C32.9327 157.317 33.6462 160.444 34.418 163.559C34.5366 164.042 34.6528 164.526 34.7668 165.01C34.9347 165.722 35.1101 166.431 35.2871 167.14C35.3364 167.356 35.3857 167.572 35.4364 167.794C35.7194 168.892 35.8584 169.32 36.7798 170.044C37.0175 170.172 37.2551 170.299 37.5 170.431C37.8203 171.097 37.8355 171.701 37.75 172.431C37.276 173.322 36.9704 173.606 36.0156 173.931C35.0936 173.931 34.7137 173.756 34 173.181C33.515 172.542 33.4939 172.253 33.5625 171.447C33.7184 170.695 33.7184 170.695 34.0297 170.102C34.3091 169.251 34.1878 168.798 33.9625 167.935C33.8874 167.64 33.8123 167.345 33.7349 167.041C33.6503 166.725 33.5657 166.408 33.4785 166.083C33.3934 165.754 33.3086 165.425 33.2241 165.096C33.0015 164.232 32.7742 163.37 32.546 162.508C32.3137 161.627 32.0857 160.745 31.8574 159.863C31.4092 158.135 30.9561 156.408 30.5 154.681C30.335 154.681 30.17 154.681 30 154.681C26.7404 160.764 25.3464 167.15 27.3396 173.926C29.2123 179.829 33.2263 184.196 38.5156 187.261C39.1412 187.481 39.3981 187.461 40 187.181Z" fill="#F2DD7C"/>
<path d="M27.5 150.431C27.0717 149.503 26.607 149.05 25.7969 148.416C25.4261 148.12 25.4261 148.12 25.0478 147.819C24.917 147.715 24.7863 147.611 24.6515 147.504C23.976 146.961 23.3165 146.399 22.6562 145.837C22.5214 145.723 22.3865 145.609 22.2476 145.491C21.5443 144.895 20.8425 144.297 20.1416 143.698C19.3485 143.021 18.5498 142.35 17.75 141.681C17.5563 141.514 17.3626 141.347 17.1631 141.175C16.057 140.267 15.4677 140.098 14 140.181C13.068 139.744 13.068 139.744 12.5 138.931C12.3762 137.838 12.3769 137.351 13.0312 136.447C13.7084 135.884 13.7084 135.884 14.5 135.791C15.4512 135.969 15.853 136.21 16.5 136.931C16.5274 137.207 16.5548 137.484 16.583 137.768C16.788 138.889 17.1078 139.176 17.9687 139.9C18.2191 140.114 18.4695 140.328 18.7275 140.548C18.9824 140.757 19.2374 140.966 19.5 141.181C19.7214 141.364 19.9428 141.547 20.1709 141.736C20.6167 142.102 21.0641 142.465 21.5127 142.828C22.3534 143.516 23.1772 144.222 24 144.931C25.0984 145.876 26.1991 146.817 27.3125 147.744C27.5303 147.925 27.7482 148.107 27.9727 148.294C28.5 148.681 28.5 148.681 29 148.681C28.508 141.979 25.8867 136.397 20.75 131.931C15.4049 127.935 9.85909 126.791 3.25 127.181C2.83177 127.256 2.41436 127.337 2 127.431C1.69703 132.728 3.4888 138.421 7.03247 142.404C7.5928 143.009 8.1705 143.595 8.75 144.181C8.89856 144.348 9.04713 144.514 9.20019 144.686C13.9397 149.896 20.9445 150.637 27.5 150.431Z" fill="#F2DD7C"/>
<path d="M65.9482 155.923C66.6381 155.308 67.1961 154.67 67.75 153.931C64.2803 149.175 59.3326 145.5 53.4009 144.511C47.0116 143.731 40.7085 144.738 35.5469 148.744C34.8379 149.334 34.28 149.926 33.75 150.681C36.7002 150.981 39.6521 151.243 42.6094 151.462C43.0349 151.495 43.0349 151.495 43.469 151.529C44.9448 151.635 46.42 151.709 47.8994 151.742C48.3234 151.752 48.3234 151.752 48.7559 151.762C49.5857 151.672 49.8843 151.472 50.5 150.931C51.3236 150.636 51.6196 150.621 52.4219 150.994C53.1688 151.559 53.4677 151.969 53.6094 152.9C53.5562 153.72 53.5562 153.72 52.9844 154.4C52.2787 154.991 52.2787 154.991 51.375 155.087C50.4628 155.017 50.4628 155.017 49.9427 154.314C49.084 153.53 48.4038 153.461 47.291 153.404C47.1019 153.39 46.9128 153.375 46.718 153.361C46.1143 153.316 45.5105 153.28 44.9062 153.244C44.5101 153.216 44.1139 153.188 43.7178 153.159C42.7478 153.089 41.7776 153.027 40.807 152.967C40.2657 152.932 39.7248 152.895 39.1838 152.857C38.8566 152.834 38.5295 152.811 38.1924 152.788C37.9065 152.767 37.6206 152.747 37.326 152.726C36.0504 152.657 34.777 152.66 33.5 152.681C36.4369 157.012 41.1113 159.577 46.0781 160.9C53.2923 162.271 60.2783 160.566 65.9482 155.923Z" fill="#F2DD7C"/>
<path d="M183.25 38.9312C187.364 35.6211 190.347 31.1198 191.5 25.9312C191.5 25.6012 191.5 25.2712 191.5 24.9312C190.645 25.2503 189.901 25.6185 189.136 26.1138C188.922 26.251 188.709 26.3882 188.489 26.5296C188.146 26.7516 188.146 26.7516 187.797 26.9781C187.307 27.2927 186.817 27.6072 186.327 27.9214C186.071 28.0857 185.815 28.25 185.552 28.4192C184.186 29.2915 182.812 30.1507 181.438 31.0093C181.177 31.1723 180.917 31.3352 180.649 31.5031C180.287 31.729 180.287 31.729 179.918 31.9595C179.704 32.093 179.49 32.2265 179.27 32.3641C178.761 32.6843 178.761 32.6843 178.25 32.9312C178.072 33.3667 178.072 33.3667 177.906 33.8999C177.674 34.539 177.507 34.9227 177.062 35.4468C176.216 35.7993 175.624 35.6537 174.75 35.4312C174.25 35.1812 174.25 35.1812 174 34.6812C173.799 33.8303 173.67 33.1991 173.922 32.3531C174.349 31.8039 174.575 31.6267 175.25 31.4312C175.53 31.5053 175.809 31.5794 176.098 31.6558C177.734 31.8745 178.977 30.7758 180.281 29.9156C180.567 29.7325 180.853 29.55 181.139 29.368C181.724 28.9945 182.307 28.6181 182.889 28.2392C183.706 27.7081 184.529 27.188 185.354 26.6704C189.345 24.1626 189.345 24.1626 190.5 23.1812C186.199 21.2059 180.278 22.1067 176 23.6812C173.515 24.7324 171.24 26.103 169.25 27.9312C169.043 28.1152 168.836 28.2992 168.623 28.4888C165.236 31.6635 162.526 36.5161 162 41.1812C162.109 41.897 162.109 41.897 162.25 42.4312C162.671 42.5524 163.093 42.6718 163.516 42.7906C163.751 42.8573 163.985 42.924 164.228 42.9927C170.795 44.5951 177.92 43.0152 183.25 38.9312Z" fill="#F2DD7C"/>
<path d="M195.75 19.9312C200.808 18.498 205.024 14.7214 207.58 10.1831C210.558 4.60645 211.285 -1.55461 209.543 -7.63913C208.408 -11.2423 208.408 -11.2423 207.553 -11.9272C206.033 -12.3165 204.155 -11.0695 202.847 -10.312C197.231 -6.89619 193.427 -1.80361 191.781 4.55618C190.826 9.56561 191.515 14.5281 193.5 19.1812C193.665 19.1812 193.83 19.1812 194 19.1812C194.763 17.3469 195.522 15.5107 196.275 13.672C196.625 12.8183 196.976 11.9653 197.331 11.1137C197.674 10.2918 198.012 9.46824 198.347 8.64337C198.476 8.32908 198.606 8.01541 198.738 7.70239C198.922 7.26366 199.101 6.82246 199.279 6.3812C199.382 6.13082 199.485 5.88045 199.592 5.62249C199.784 4.78139 199.609 4.4478 199.25 3.68118C199.294 2.83724 199.343 2.19327 199.781 1.46243C200.509 1.02581 201.161 0.975353 202 0.931183C202.673 1.13135 202.908 1.28592 203.282 1.87747C203.54 2.53384 203.508 2.92572 203.406 3.61868C203.379 3.81849 203.351 4.01829 203.322 4.22415C203.286 4.45038 203.286 4.45038 203.25 4.68118C202.587 4.95 201.929 5.20482 201.25 5.43118C200.973 5.92738 200.973 5.92738 200.714 6.58719C200.615 6.83339 200.517 7.0796 200.416 7.33327C200.312 7.60148 200.208 7.86969 200.101 8.14603C199.992 8.42016 199.883 8.69429 199.771 8.97673C199.423 9.85637 199.079 10.7375 198.734 11.6187C198.501 12.2093 198.268 12.7998 198.035 13.3902C197.519 14.6952 197.006 16.0012 196.495 17.308C196.326 17.7378 196.15 18.165 195.969 18.5896C195.75 19.1812 195.75 19.1812 195.75 19.9312Z" fill="#F2DD7C"/>
<path d="M203 58.1812C206.501 54.0644 207.576 48.1732 207.25 42.9312C206.638 36.8114 203.768 31.359 199.085 27.3784C196.211 25.1812 196.211 25.1812 195.25 25.1812C195.933 28.3166 196.646 31.4438 197.418 34.5586C197.537 35.0419 197.653 35.5257 197.767 36.01C197.935 36.7216 198.11 37.4309 198.287 38.1402C198.336 38.356 198.386 38.5719 198.436 38.7943C198.719 39.892 198.858 40.32 199.78 41.0437C200.017 41.1715 200.255 41.2994 200.5 41.4312C200.82 42.0968 200.835 42.701 200.75 43.4312C200.276 44.3222 199.97 44.6062 199.016 44.9312C198.094 44.9312 197.714 44.7561 197 44.1812C196.515 43.5419 196.494 43.2533 196.562 42.4468C196.718 41.6953 196.718 41.6953 197.03 41.1018C197.309 40.2512 197.188 39.7975 196.963 38.9353C196.887 38.6401 196.812 38.3448 196.735 38.0407C196.65 37.7245 196.566 37.4083 196.479 37.0825C196.393 36.7537 196.309 36.4248 196.224 36.0958C196.001 35.2322 195.774 34.3699 195.546 33.5078C195.314 32.627 195.086 31.7451 194.857 30.8633C194.409 29.1348 193.956 27.4076 193.5 25.6812C193.335 25.6812 193.17 25.6812 193 25.6812C189.74 31.7636 188.346 38.15 190.34 44.9256C192.212 50.8288 196.226 55.1959 201.516 58.2613C202.141 58.4807 202.398 58.4605 203 58.1812Z" fill="#F2DD7C"/>
<path d="M190.5 21.4312C190.072 20.503 189.607 20.0501 188.797 19.4156C188.426 19.1202 188.426 19.1202 188.048 18.8189C187.917 18.715 187.786 18.6111 187.651 18.5041C186.976 17.9608 186.316 17.399 185.656 16.8374C185.521 16.7231 185.387 16.6088 185.248 16.491C184.544 15.8947 183.843 15.2968 183.142 14.6978C182.348 14.0206 181.55 13.3504 180.75 12.6812C180.556 12.5142 180.363 12.3473 180.163 12.1753C179.057 11.2675 178.468 11.0981 177 11.1812C176.068 10.7444 176.068 10.7444 175.5 9.93118C175.376 8.83777 175.377 8.35129 176.031 7.4468C176.708 6.88421 176.708 6.88421 177.5 6.79055C178.451 6.96889 178.853 7.21022 179.5 7.93118C179.527 8.20736 179.555 8.48354 179.583 8.76809C179.788 9.88912 180.108 10.1755 180.969 10.8999C181.219 11.1139 181.47 11.3279 181.728 11.5484C181.982 11.7572 182.237 11.966 182.5 12.1812C182.721 12.3642 182.943 12.5473 183.171 12.7359C183.617 13.1015 184.064 13.4654 184.513 13.8277C185.353 14.5158 186.177 15.2217 187 15.9312C188.098 16.8756 189.199 17.8168 190.312 18.7437C190.53 18.9254 190.748 19.1072 190.973 19.2945C191.5 19.6812 191.5 19.6812 192 19.6812C191.508 12.9793 188.887 7.39724 183.75 2.93117C178.405 -1.06452 172.859 -2.20861 166.25 -1.81883C165.832 -1.74373 165.414 -1.66297 165 -1.56883C164.697 3.72753 166.489 9.4213 170.032 13.404C170.593 14.0088 171.171 14.5947 171.75 15.1812C171.899 15.3478 172.047 15.5144 172.2 15.6861C176.94 20.896 183.944 21.6367 190.5 21.4312Z" fill="#F2DD7C"/>
<path d="M228.948 26.9234C229.638 26.308 230.196 25.6698 230.75 24.9312C227.28 20.1747 222.333 16.4997 216.401 15.5106C210.012 14.7306 203.709 15.7382 198.547 19.7437C197.838 20.3343 197.28 20.9255 196.75 21.6812C199.7 21.9813 202.652 22.2432 205.609 22.4624C206.035 22.4952 206.035 22.4952 206.469 22.5287C207.945 22.635 209.42 22.7092 210.899 22.7417C211.323 22.7518 211.323 22.7518 211.756 22.7621C212.586 22.6719 212.884 22.4721 213.5 21.9312C214.324 21.6355 214.62 21.6205 215.422 21.9937C216.169 22.5589 216.468 22.9688 216.609 23.8999C216.556 24.7204 216.556 24.7204 215.984 25.3999C215.279 25.9915 215.279 25.9915 214.375 26.0874C213.463 26.0168 213.463 26.0168 212.943 25.3137C212.084 24.5296 211.404 24.461 210.291 24.4038C210.102 24.3895 209.913 24.3753 209.718 24.3605C209.114 24.3162 208.51 24.2798 207.906 24.2437C207.51 24.2159 207.114 24.1876 206.718 24.1587C205.748 24.0893 204.778 24.0268 203.807 23.9666C203.266 23.9322 202.725 23.8952 202.184 23.857C201.857 23.8341 201.529 23.8112 201.192 23.7876C200.906 23.7674 200.621 23.7472 200.326 23.7264C199.05 23.6566 197.777 23.6598 196.5 23.6812C199.437 28.0117 204.111 30.5771 209.078 31.8999C216.292 33.2705 223.278 31.5665 228.948 26.9234Z" fill="#F2DD7C"/>
<defs>
<filter id="filter0_n_4825_1480" x="-2" y="-11.5898" width="470" height="266.5" filterUnits="userSpaceOnUse" color-interpolation-filters="sRGB">
<feFlood flood-opacity="0" result="BackgroundImageFix"/>
<feBlend mode="normal" in="SourceGraphic" in2="BackgroundImageFix" result="shape"/>
<feTurbulence type="fractalNoise" baseFrequency="0.3448275625705719 0.3448275625705719" stitchTiles="stitch" numOctaves="3" result="noise" seed="8533" />
<feColorMatrix in="noise" type="luminanceToAlpha" result="alphaNoise" />
<feComponentTransfer in="alphaNoise" result="coloredNoise1">
<feFuncA type="discrete" tableValues="0 0 0 0 0 0 0 0 0 0 0 0 0 0 0 0 0 0 0 1 1 1 1 1 1 1 1 1 1 1 0 0 0 0 0 0 0 0 0 0 0 0 0 0 0 0 0 0 0 0 0 0 0 0 0 0 0 0 0 0 0 0 0 0 0 0 0 0 0 0 0 0 0 0 0 0 0 0 0 0 0 0 0 0 0 0 0 0 0 0 0 0 0 0 0 0 0 0 0 0 "/>
</feComponentTransfer>
<feComposite operator="in" in2="shape" in="coloredNoise1" result="noise1Clipped" />
<feFlood flood-color="#EAD46E" result="color1Flood" />
<feComposite operator="in" in2="noise1Clipped" in="color1Flood" result="color1" />
<feMerge result="effect1_noise_4825_1480">
<feMergeNode in="shape" />
<feMergeNode in="color1" />
</feMerge>
</filter>
</defs>
</svg>
