<svg width="25" height="30" fill="none" xmlns="http://www.w3.org/2000/svg">
    <path
        d="M.179 9.033c.981-3.068 4.77-5.802 9.5-4.5.203-1.436 1.825-3.793 4.5-4.5 1.535 1.158 5.7 4 10.5 6-.718.443-2.38 2.01-3.5 4.5 0 0 .142-1.536-.679-2.533-1.179-1.503-3.679-1.503-4.5-1.5-.321 0-1.037.718 0 1 .465.126 1.455.278 2 .5.585.083.736.223 1 .5.976 1.024-1.203 3.44-2.321 4.533-1.44 1.626-4.351 1.666-5.5.5-1.266-1.284-1-2-1-3 .421-1.707 2.471-2.782 4.5-.5.166.167.6.4 1 0 .5-.5 0-1-1-2-.5-.5-1.772-1.069-3-1-1.42.08-3.754 2.207-3.5 5 .032 1.88 2.466 3.917 6.5 3.5-.214.808-.682 2.801-.5 4.5.053.497 1.321 2.997.821 2.997-.946 0-2.434-1.252-2.5-3.53-.104-.954.335-1.472 0-1.97-.59-.877-.932.214-1 .5-.051.219-.42 1.62 0 2.97.238 1.107 1.036 2.067 1.5 2.53 1 1 3.218 1.31 3.679 1.503.372.157.738.821 2.5 3-3.484 2.558-10.172 1.981-11.5-7-3.58-.078-8.702-3.986-7.5-12z"
        fill="#ffdfd0" />
</svg>