<svg width="17" height="25" fill="none" xmlns="http://www.w3.org/2000/svg">
    <path
        d="M15.5 21c-.258 1.276.394 2.165 1 2.5-2.27 1.577-7.325 1.69-10.124.043-1.287-.758-1.63-2.344-1.696-3.836l-.055-1.266c-6.481-3.818-4.887-9.725 1.69-11.633C4.132 3.802 5.929 1.598 7.8.793c1.36.166 2.556.07 2.984 0C8.48 3.303 8.743 7.66 10.5 9.5l-2.005.28C6.66 10.211 5 11 4.668 12.917c-.312 1.804.214 3.02 1.41 3.58a.411.411 0 00.435-.063.445.445 0 00.058-.63l-.256-.305c-1.325-1.675-.618-2.655.557-3.525.276-.205.615-.304.96-.304 1.147 0 1.962 1.105 1.843 2.246-.528 5.071 2.788 7.5 5.825 7.083z"
        fill="#ffdfd0" />
</svg>