<svg width="23" height="23" fill="none" xmlns="http://www.w3.org/2000/svg">
    <path
        d="M11.338 10.672c-.5-.5-.5-1-.5-3 0-.334-.1-1-.5-1-.5 0-.5 0-1 .5-.167.166 0 .7 0 1.5 0 1 0 2 1 3s2.5 1.5 3.5 1.5 2.5 0 5.5-4l3.5 4.5c-1 .666-3.3 2.5-4.5 4.5-2.273-.553-6.821.446-9.5 4.5-.504-.222-1.882-1.224-2.5-3-.054-.937-.142-1.47 0-2.5-1.333-.667-4.4-2.8-6-6-.983-2.808.032-5.785 5-6-.18-1.555.789-3.761 3-4.5.511-.327 3.014-.896 4.5-.5 1.45.386 2.852 1.088 3.5 2 .725 1.019 1.24 3.02 1.5 4.5 0 .5-.1 1.7-.5 2.5-.5 1-1 1.5-1.5 2s-1 .5-1.5.5h-1c-.5 0-1.5-.5-2-1z"
        fill="#ffdfd0" />
</svg>