<svg width="31" height="31" fill="none" xmlns="http://www.w3.org/2000/svg">
    <path
        d="M10.559 8.325C7.591 12.092 5.196 13.446.95 15.05l-.36 2.865c.535 1.877 1.129 2.706 2.992 3.571-3.334 6.6 4.529 11.254 9.37 7.59 5.396.904 7.583-.051 9.69-4.885l1.794-6.795c1.448-6.533 4.75-10.39 6.392-15.983C27.186 7.976 21.723 9.12 18 13.84c.546.579.862 1.06 1.106 1.658.334.82.344 1.737.233 2.617-.113.898-.362 1.801-.925 2.51-.414.52-.862.914-1.423 1.289-.85.567-1.902.717-2.915.589l-1.04-.13c-.92-.117-1.812-.463-2.48-1.107-.857-.827-1.358-1.617-1.697-2.877a2.762 2.762 0 01-.06-1.064c.08-.629.268-1.362.86-1.586a.512.512 0 01.513.075c.522.373.554 1.122.474 1.758l-.003.023c-.042.33-.034.668.055.99.233.849.562 1.355 1.209 1.837.334.248.74.375 1.153.427l.263.033c1.233.155 2.588.079 3.439-.828 1.68-1.791 1.276-4.66-1.264-6.224 1.485-1.798 1.183-2.977-.59-5.263-1.371-1.292-2.37-1.173-4.35-.242z"
        fill="#ffdfd0" />
    <path
        d="M17.648 11.66c.272-2.203-.45-3.422-3.053-5.574 4.496-3.402 8.122.106 15.04-5.128-3.589 4.89-6.535 7.024-11.987 10.701z"
        fill="#ffdfd0" />
</svg>