<svg width="27" height="26" fill="none" xmlns="http://www.w3.org/2000/svg">
    <path
        d="M10.067.744L2.894 2.69C1.65 3.478 1.144 4.194.627 6.023c-.66 2.633-.22 4.096 1.985 6.676l-.674.946a6.334 6.334 0 00-1.154 3.178c-.064.82.005 1.657.343 2.407 1.05 2.335 2.59 2.865 5.767 2.831-.048 2.939 1.143 3.668 4.712 3.88 3.848-.028 5.596-.763 7.368-4.438 3.714-.762 5.438-1.605 7.37-4.439.49-1.109.407-1.44-.92-1.075-3.264 3.255-9.856 1.715-12.726-4.005l-1.843-.145a2.15 2.15 0 00-2.313 1.977l-.05.64a1.707 1.707 0 001.57 1.835l.477.037a2.686 2.686 0 001.52-.333l.465-.26c.263-.147.563-.275.855-.197.235.063.353.219.411.482.08.358-.082.72-.324.995l-.284.323a3 3 0 01-2.487 1.009l-.556-.044a3.005 3.005 0 01-2.249-1.307 5.026 5.026 0 01-.85-3.209c.088-1.119.51-2.233 1.395-2.924 1.301-1.016 2.489-1.183 4.42-.873l.233-2.991c-2.047-1.152-2.845-2.32-3.02-6.255z"
        fill="#ffdfd0" />
</svg>