<svg width="19" height="25" fill="none" xmlns="http://www.w3.org/2000/svg">
    <path
        d="M.021 12.53c-.18-3.126.678-6.435 6.5-7.5.291-1.605 1.758-4.392 4.5-5 .292.1 2.326 1.415 7.979 1.5-.385.36-1.15.505-1.479 1.5-.97 1.525-.977 3.594-.021 4.47-2.111-.342-3.16 1.102-4 2-.932.996-1.5 2.908-1.5 3.5 0 1.5-.979 2.03-1.479 2.03-1.103-.192-2.71-1.035-3-2-.285-.455 0-2 0-2s-.012-.666 1-1H10c1 0 .939-.79.521-1-.333-.166-1.1-.5-1.5-.5-.5 0-1.5 0-2 .5-.845.846-.812 1.537-1 2-.196.485-.118 1.452 0 2 .13.606 1.92 2.542 3 3 1.08.46 1.479.5 1.479.5s1.88.114 2 .47c.333.667 1.421 1.8 3.021 3-.498.613-.8 2.587.479 4-2.318.9-8.089 1.268-10.979-2.97-.315-.672-.262-1.128 0-2-.333 0-1.4-.3-3-1.5-2-1.5-1.914-3.502-2-5z"
        fill="#ffdfd0" />
</svg>