<svg width="567" height="150" viewBox="0 0 567 150" fill="none" xmlns="http://www.w3.org/2000/svg">
<path d="M128.252 0.0656414C127.762 6.88097 125.152 12.5394 122.439 18.7531C118.972 26.7529 115.88 34.7484 113.252 43.0656C118.897 43.1307 118.897 43.1307 123.881 40.8274C124.954 39.6535 126.018 38.4715 127.076 37.2844C143.021 21.0241 167.981 8.95636 190.252 5.06564C193.181 5.46799 193.181 5.46799 195.252 6.06564C194.72 10.6652 192.682 13.8304 190.127 17.5656C182.242 28.1818 182.242 28.1818 178.252 40.0656C181.996 40.6336 183.225 40.0839 186.416 37.9055C187.578 36.9481 188.731 35.98 189.877 35.0031C191.113 33.9916 192.353 32.9838 193.596 31.9797C194.209 31.4837 194.823 30.9878 195.455 30.4768C206.165 22.0656 206.165 22.0656 212.252 22.0656C212.582 23.7156 212.912 25.3656 213.252 27.0656C213.918 26.6183 214.585 26.171 215.271 25.7102C235.417 12.4957 256.546 9.38726 280.252 8.06564C280.912 9.38564 281.572 10.7056 282.252 12.0656C278.384 13.4491 274.569 14.4489 270.543 15.2561C256.432 18.1709 238.961 24.1605 230.521 36.6203C228.891 39.7604 228.752 41.5645 229.252 45.0656C231.748 49.9612 234.037 52.3274 239.252 54.0656C257.954 57.7793 275.232 49.219 290.405 39.0849C296.595 34.8428 302.549 30.327 308.457 25.7038C327.523 10.9289 347.642 0.879371 372.252 3.06564C378.679 4.10105 385.39 6.58489 390.252 11.0656C390.967 13.2258 390.967 13.2258 391.252 15.0656C387.405 16.4505 384.231 15.6371 380.252 15.0656C357.124 13.6849 334.361 20.2917 316.689 35.6906C313.069 38.9837 309.897 42.2269 308.783 47.1281C308.723 50.8653 309.023 52.7021 311.064 55.9406C319.674 61.6806 332.232 60.6273 342.314 61.1281C345.285 61.2824 348.255 61.4406 351.224 61.6008C351.928 61.6382 352.631 61.6757 353.356 61.7142C358.677 62.0076 363.956 62.4726 369.252 63.0656C369.582 64.3856 369.912 65.7056 370.252 67.0656C348.126 79.5049 323.301 79.2913 299.17 73.8576C285.092 70.6598 285.092 70.6598 271.252 73.0656C278.783 79.0838 285.148 83.8383 294.865 85.4758C297.442 85.9246 299.796 86.4628 302.295 87.1867C302.974 87.3835 303.654 87.5802 304.354 87.7829C306.281 88.3501 308.208 88.9206 310.135 89.4914C313.403 90.4675 313.403 90.4675 316.252 88.0656C317.572 88.0656 318.892 88.0656 320.252 88.0656C320.374 89.2334 320.374 89.2334 320.498 90.4248C320.983 93.1436 320.983 93.1436 323.007 94.3608C323.767 94.6772 324.527 94.9936 325.31 95.3195C326.162 95.6925 327.014 96.0654 327.892 96.4497C328.815 96.8386 329.738 97.2275 330.689 97.6281C348.27 105.536 363.61 116.424 377.252 130.066C377.377 132.691 377.377 132.691 377.252 135.066C371.843 135.789 366.48 136.302 361.033 136.601C360.29 136.644 359.546 136.687 358.78 136.731C356.438 136.866 354.095 136.997 351.752 137.128C350.15 137.22 348.549 137.311 346.947 137.404C343.049 137.627 339.15 137.847 335.252 138.066C340.964 148.307 340.964 148.307 349.502 156.128C350.633 156.928 351.759 157.736 352.881 158.55C353.442 158.957 354.002 159.363 354.58 159.782C374.155 174.811 388.549 198.957 396.252 222.066C397.737 220.086 397.737 220.086 399.252 218.066C402.252 219.066 402.252 219.066 403.252 221.066C403.301 222.81 403.288 224.556 403.244 226.3C403.227 227.349 403.21 228.399 403.193 229.48C403.149 231.688 403.097 233.897 403.037 236.105C402.902 244.011 402.902 244.011 406.252 251.066C408.481 252.807 408.481 252.807 411.252 253.066C414.93 251.889 416.757 250.732 419.064 247.628C422.055 238.656 421.324 228.668 421.189 219.316C420.969 181.454 426.415 144.668 453.627 116.253C465.925 104.335 465.925 104.335 473.072 103.89C473.791 103.948 474.511 104.006 475.252 104.066C474.732 108.037 473.816 109.933 471.002 112.753C465.803 118.467 462.024 124.425 461.752 132.316C461.995 136.507 462.786 139.579 465.252 143.066C468.006 145.361 469.911 146.006 473.439 146.628C480.965 145.518 486.513 141.351 491.377 135.628C507.533 113.825 514.235 86.163 510.91 59.3083C509.521 50.3597 507.563 41.6069 503.986 33.257C503.148 30.7547 503.122 28.6874 503.252 26.0656C510.605 26.9041 514.681 32.8885 519.107 38.3586C535.286 60.4608 542.199 86.1811 538.01 113.351C536.226 122.093 533.046 130.335 529.502 138.503C526.977 144.462 525.055 149.604 527.502 155.941C529.049 159.259 529.049 159.259 532.252 161.066C536.86 161.821 540.395 161.502 544.564 159.378C552.625 152.442 555.11 142.921 558.252 133.066C560.146 133.398 560.146 133.398 562.252 134.066C567.242 142.013 567.099 150.931 565.127 159.816C561.693 172.352 555.286 181 546.252 190.066C544.984 191.358 543.718 192.651 542.451 193.945C532.312 204.226 532.312 204.226 527.588 208.152C517.915 216.319 509.513 229.232 508.252 242.066C508.172 248.06 509.116 252.495 513.252 257.066C517.199 259.542 520.085 260.397 524.627 259.628C531.351 257.735 537.18 254.153 541.127 248.316C545.994 239.406 546.677 231.106 546.252 221.066C547.902 220.736 549.552 220.406 551.252 220.066C559.53 235.484 560.202 249.811 555.369 266.464C555 267.653 554.632 268.841 554.252 270.066C553.986 270.945 553.721 271.824 553.447 272.73C548.964 285.495 539.843 296.752 531.945 307.553C522.665 320.293 514.488 333.53 510.795 349.019C510.252 351.066 510.252 351.066 509.252 352.066C507.232 352.138 505.21 352.149 503.189 352.128C502.085 352.119 500.98 352.11 499.842 352.101C498.56 352.083 498.56 352.083 497.252 352.066C497.912 351.076 498.572 350.086 499.252 349.066C499.389 346.416 499.389 346.416 499.064 343.566C498.95 342.127 498.95 342.127 498.834 340.659C498.169 337.699 497.588 336.925 495.252 335.066C494.505 334.464 493.759 333.862 492.99 333.241C491.789 332.319 491.789 332.319 490.564 331.378C489.756 330.756 488.948 330.133 488.115 329.491C487.5 329.021 486.885 328.55 486.252 328.066C486.132 328.662 486.012 329.259 485.888 329.874C484.48 334.721 481.157 337.553 476.939 339.941C476.052 340.312 475.166 340.683 474.252 341.066C476.173 345.197 478.294 348.598 481.252 352.066C478.612 352.066 475.972 352.066 473.252 352.066C473.252 351.406 473.252 350.746 473.252 350.066C472.592 350.066 471.932 350.066 471.252 350.066C471.252 350.726 471.252 351.386 471.252 352.066C469.272 352.066 467.292 352.066 465.252 352.066C466.737 346.621 466.737 346.621 468.252 341.066C467.221 340.983 466.189 340.901 465.127 340.816C459.705 339.766 455.924 337.146 452.252 333.066C449.258 336.241 448.267 337.909 448.209 342.359C448.475 345.61 448.811 348.833 449.252 352.066C447.602 352.066 445.952 352.066 444.252 352.066C439.846 329.49 438.946 306.943 438.877 284.003C438.869 282.931 438.861 281.859 438.854 280.755C438.66 246.925 443.058 212.417 466.795 186.456C487.752 166.066 487.752 166.066 498.252 166.066C499.364 169.426 499.116 171.683 498.326 175.109C498.106 176.102 497.886 177.095 497.66 178.118C497.422 179.153 497.184 180.187 496.939 181.253C493.116 197.887 491.899 213.975 491.936 231C491.939 233.969 491.916 236.936 491.89 239.904C491.802 264.825 495.901 289.175 500.093 313.665C500.682 317.111 501.262 320.559 501.844 324.007C502.972 330.695 504.109 337.381 505.252 344.066C505.469 343.533 505.687 343 505.911 342.451C506.919 339.991 507.937 337.534 508.955 335.077C509.297 334.24 509.638 333.402 509.991 332.539C515.149 320.139 522.724 309.613 530.845 299.003C544.911 280.462 553.057 261.552 552.252 238.066C551.779 239.128 551.306 240.19 550.818 241.284C546.155 251.388 541.666 258.118 532.002 264.066C525.375 265.833 517.492 266.694 511.189 263.441C507.166 260.188 504.884 256.963 503.252 252.066C502.113 235.788 506.058 224.026 516.553 211.269C522.007 205.143 527.881 199.532 533.877 193.941C546.122 182.492 559.518 169.776 560.357 151.808C560.374 149.894 560.32 147.979 560.252 146.066C560.033 146.623 559.813 147.179 559.588 147.753C556.558 155.044 553.327 161.884 546.002 165.566C540.161 167.786 534.207 168.286 528.377 165.878C524.559 162.622 521.47 159.324 520.978 154.23C520.719 145.184 522.449 139.158 526.252 131.066C535.547 108.065 535.384 84.7758 526.006 61.882C523.376 55.9019 519.896 50.4741 516.252 45.0656C515.592 44.0756 514.932 43.0856 514.252 42.0656C514.385 42.8391 514.517 43.6125 514.654 44.4094C514.831 45.451 515.007 46.4925 515.189 47.5656C515.363 48.5866 515.537 49.6075 515.717 50.6594C520.321 79.9661 516.07 110.082 499.24 135.05C492.854 143.33 485.945 150.707 475.252 152.378C469.947 152.71 465.484 151.294 461.252 148.066C456.153 141.6 455.779 134.965 456.252 127.066C456.738 124.603 457.408 122.438 458.252 120.066C433.707 145.236 427.571 178.342 426.99 212.238C426.973 213.218 426.956 214.199 426.938 215.209C426.858 220.152 426.81 225.093 426.805 230.036C426.789 231.882 426.772 233.728 426.756 235.573C426.764 236.412 426.772 237.251 426.781 238.115C426.687 245.467 424.455 250.548 419.627 256.066C415.068 258.767 411.425 259.241 406.252 258.066C402.279 255.771 399.711 253.444 398.252 249.066C397.228 286.012 406.505 316.544 428.696 346.205C432.252 350.966 432.252 350.966 432.252 352.066C429.115 352.523 429.115 352.523 425.252 352.066C422.78 350.001 421.173 347.447 419.439 344.753C418.928 343.988 418.417 343.224 417.89 342.436C405.136 322.964 396.478 302.198 393.252 279.066C393.147 278.437 393.043 277.809 392.935 277.162C392.226 272.266 392.322 267.624 392.611 262.687C392.708 260.652 392.8 258.617 392.89 256.582C392.965 255.193 393.061 253.805 393.178 252.419C393.555 247.765 393.615 243.597 392.252 239.066C388.404 235.255 384.206 233.161 379.252 231.066C378.38 230.69 377.508 230.314 376.61 229.927C374.853 229.23 373.056 228.632 371.252 228.066C372.871 242.799 374.996 254.799 383.128 267.276C398.15 291.198 404.002 324.364 400.252 352.066C396.242 352.58 393.963 352.169 390.779 349.8C389.57 348.82 388.374 347.825 387.189 346.816C386.591 346.325 385.992 345.833 385.375 345.327C384.248 344.401 383.125 343.469 382.009 342.53C379.784 340.676 377.514 338.875 375.252 337.066C374.922 342.016 374.592 346.966 374.252 352.066C370.292 352.066 366.332 352.066 362.252 352.066C365.252 350.066 365.252 350.066 368.252 350.066C366.445 344.455 364.925 340.921 360.252 337.066C355.002 335.316 350.895 335.244 346.002 337.691C342.196 340.978 339.842 344.295 338.252 349.066C339.201 349.189 340.149 349.313 341.127 349.441C344.252 350.066 344.252 350.066 346.252 352.066C338.662 352.066 331.072 352.066 323.252 352.066C326.462 349.658 328.602 348.384 332.252 347.066C330.17 341.478 327.869 336.874 322.252 334.066C317.664 333.506 314.152 333.641 309.939 335.628C306.691 338.574 305.208 341.154 303.252 345.066C302.922 345.726 302.592 346.386 302.252 347.066C303.159 347.148 304.067 347.231 305.002 347.316C308.252 348.066 308.252 348.066 312.252 352.066C303.342 352.066 294.432 352.066 285.252 352.066C289.824 347.493 291.263 347.263 297.252 346.066C293.645 337.389 293.645 337.389 286.252 332.066C281.607 331.28 278.242 331.617 273.939 333.566C270.593 336.678 268.977 339.884 267.252 344.066C267.794 344.308 268.337 344.55 268.896 344.8C276.002 348.129 276.002 348.129 278.252 352.066C269.68 352.351 269.68 352.351 266.252 350.066C266.252 350.726 266.252 351.386 266.252 352.066C264.602 352.066 262.952 352.066 261.252 352.066C261.582 343.156 261.912 334.246 262.252 325.066C239.259 323.453 239.259 323.453 216.252 322.066C216.227 322.797 216.202 323.528 216.176 324.281C216.06 327.605 215.937 330.929 215.814 334.253C215.775 335.404 215.736 336.554 215.695 337.739C215.653 338.851 215.611 339.963 215.568 341.109C215.532 342.13 215.495 343.151 215.457 344.203C215.263 346.904 214.847 349.427 214.252 352.066C212.602 352.066 210.952 352.066 209.252 352.066C209.312 351.063 209.373 350.061 209.435 349.029C210.539 330.459 211.462 311.89 211.551 293.284C211.56 291.627 211.573 289.971 211.592 288.315C211.784 269.847 209.797 251.696 201.252 235.066C200.255 235.089 200.255 235.089 199.239 235.113C180.728 235.494 163.569 235.426 149.146 222.179C145.588 218.21 142.914 213.666 140.252 209.066C121.185 223.576 113.339 253.205 104.911 274.741C100.308 286.499 95.6286 298.225 90.9436 309.95C89.3272 313.996 87.715 318.043 86.1064 322.092C85.3376 324.025 84.5673 325.958 83.7962 327.89C82.8467 330.27 81.8997 332.651 80.9555 335.033C78.6251 340.86 76.1594 346.504 73.2518 352.066C71.6018 352.066 69.9518 352.066 68.2518 352.066C70.3094 345.612 72.6756 339.33 75.2518 333.066C74.6986 332.888 74.1454 332.71 73.5754 332.527C68.2645 330.794 63.0904 328.86 57.9354 326.71C56.8225 326.25 56.8225 326.25 55.6871 325.781C53.3533 324.817 51.0213 323.847 48.6893 322.878C47.0924 322.217 45.4954 321.556 43.8983 320.896C40.0148 319.289 36.1328 317.678 32.2518 316.066C31.8638 317.302 31.4758 318.538 31.076 319.812C29.0992 325.742 26.5909 331.415 24.0643 337.128C23.6009 338.185 23.1374 339.241 22.66 340.329C21.5274 342.91 20.3913 345.488 19.2518 348.066C22.2218 349.551 22.2218 349.551 25.2518 351.066C25.2518 351.396 25.2518 351.726 25.2518 352.066C20.9618 352.066 16.6718 352.066 12.2518 352.066C13.0164 348.243 13.7279 345.682 15.3143 342.253C15.6765 341.463 16.0387 340.673 16.4119 339.859C16.8277 338.971 16.8277 338.971 17.2518 338.066C16.5711 338.396 15.8905 338.726 15.1893 339.066C11.7133 340.249 8.90214 340.272 5.25177 340.066C4.59177 339.736 3.93177 339.406 3.25177 339.066C3.16228 343.54 3.39433 347.671 4.25177 352.066C2.60177 352.066 0.951767 352.066 -0.74823 352.066C-1.40823 350.416 -2.06823 348.766 -2.74823 347.066C-3.49073 347.561 -4.23323 348.056 -4.99823 348.566C-9.86417 351.069 -15.4341 350.298 -20.7482 350.066C-20.7482 350.726 -20.7482 351.386 -20.7482 352.066C-23.3882 352.066 -26.0282 352.066 -28.7482 352.066C-28.0882 350.746 -27.4282 349.426 -26.7482 348.066C-27.1581 347.618 -27.5681 347.171 -27.9904 346.71C-32.2431 341.939 -34.7482 338.674 -34.7482 332.066C-35.5835 332.499 -35.5835 332.499 -36.4357 332.941C-41.8688 335.584 -45.7128 336.595 -51.7482 336.066C-52.4082 335.736 -53.0682 335.406 -53.7482 335.066C-53.4756 341.84 -52.5577 346.413 -48.7482 352.066C-51.0582 352.066 -53.3682 352.066 -55.7482 352.066C-57.4709 348.77 -59.0427 345.734 -59.7482 342.066C-60.5114 342.561 -61.2745 343.056 -62.0607 343.566C-67.0292 345.587 -71.4547 345.32 -76.7482 345.066C-77.0782 347.376 -77.4082 349.686 -77.7482 352.066C-82.4149 352.066 -87.0816 352.066 -91.7482 352.066C-91.7482 350.746 -91.7482 349.426 -91.7482 348.066C-90.7995 347.633 -89.8507 347.199 -88.8732 346.753C-85.5478 345.273 -85.5478 345.273 -83.7482 342.066C-84.5526 341.158 -85.357 340.251 -86.1857 339.316C-88.1597 336.963 -89.387 335.196 -89.7482 332.066C-90.4082 332.066 -91.0682 332.066 -91.7482 332.066C-91.7482 319.526 -91.7482 306.986 -91.7482 294.066C-91.0882 294.066 -90.4282 294.066 -89.7482 294.066C-90.2372 293.223 -90.2372 293.223 -90.736 292.363C-91.8684 289.793 -91.9794 288.094 -91.9435 285.3C-91.9371 284.411 -91.9307 283.521 -91.924 282.605C-91.8989 281.224 -91.8989 281.224 -91.8732 279.816C-91.8642 278.88 -91.8552 277.944 -91.8459 276.98C-91.8224 274.675 -91.7895 272.37 -91.7482 270.066C-91.0882 270.066 -90.4282 270.066 -89.7482 270.066C-89.6876 270.646 -89.6271 271.226 -89.5646 271.823C-89.4808 272.605 -89.3971 273.386 -89.3107 274.191C-89.2295 274.956 -89.1483 275.722 -89.0646 276.511C-88.9602 277.354 -88.8558 278.197 -88.7482 279.066C-88.5857 280.448 -88.5857 280.448 -88.4199 281.858C-87.6864 285.361 -86.4604 287.844 -84.6857 290.941C-84.1379 291.907 -83.59 292.874 -83.0256 293.87C-82.6041 294.595 -82.1825 295.319 -81.7482 296.066C-80.1159 292.381 -78.4937 288.693 -76.8732 285.003C-76.413 283.965 -75.9528 282.926 -75.4787 281.857C-75.034 280.842 -74.5892 279.826 -74.131 278.78C-73.7226 277.854 -73.3141 276.927 -72.8932 275.972C-70.6826 270.361 -69.4511 264.82 -68.695 258.849C-68.6069 258.165 -68.5189 257.481 -68.4281 256.776C-68.1414 254.539 -67.8626 252.3 -67.5842 250.062C-67.3856 248.494 -67.1867 246.927 -66.9874 245.359C-66.5722 242.084 -66.1607 238.809 -65.7521 235.533C-65.2294 231.343 -64.6985 227.155 -64.165 222.967C-63.7538 219.734 -63.3463 216.501 -62.94 213.267C-62.7456 211.723 -62.5503 210.179 -62.3539 208.635C-62.0798 206.475 -61.8106 204.314 -61.5427 202.153C-61.3888 200.926 -61.235 199.7 -61.0764 198.436C-60.7696 195.285 -60.6868 192.228 -60.7482 189.066C-61.4353 189.487 -62.1224 189.909 -62.8303 190.343C-63.7313 190.891 -64.6324 191.439 -65.5607 192.003C-66.4541 192.548 -67.3474 193.094 -68.2678 193.655C-72.3439 195.973 -75.498 196.227 -80.1232 196.253C-81.2447 196.267 -82.3662 196.282 -83.5217 196.296C-86.6971 196.069 -88.8906 195.42 -91.7482 194.066C-91.7482 192.086 -91.7482 190.106 -91.7482 188.066C-90.7995 188.396 -89.8507 188.726 -88.8732 189.066C-81.3959 191.066 -75.948 191.024 -69.102 187.249C-64.1429 184.53 -64.1429 184.53 -59.7482 181.066C-60.3077 181.21 -60.8671 181.354 -61.4435 181.503C-69.1441 183.286 -79.1442 185.312 -86.4787 181.734C-90.536 178.752 -90.536 178.752 -91.7482 177.066C-92.0412 174.366 -92.0412 174.366 -91.9357 171.378C-91.9087 170.384 -91.8816 169.39 -91.8537 168.366C-91.8189 167.607 -91.7841 166.848 -91.7482 166.066C-90.7115 167.621 -89.682 169.185 -88.7756 170.82C-86.7209 174.229 -84.8597 176.513 -80.9982 177.753C-75.4818 178.649 -70.3728 176.986 -65.0644 175.607C-58.0828 173.807 -52.1474 172.933 -45.1857 175.253C-42.7482 177.066 -42.7482 177.066 -41.7482 182.066C-46.6982 183.056 -46.6982 183.056 -51.7482 184.066C-51.3357 185.489 -50.9232 186.912 -50.4982 188.378C-50.1502 189.579 -50.1502 189.579 -49.7951 190.804C-48.253 195.609 -46.4936 200.332 -44.7482 205.066C-44.4255 204.269 -44.1027 203.472 -43.7702 202.651C-42.5676 199.683 -41.3635 196.716 -40.1584 193.75C-39.638 192.468 -39.1181 191.186 -38.5988 189.903C-37.8507 188.056 -37.1003 186.209 -36.3498 184.363C-35.6742 182.697 -35.6742 182.697 -34.985 180.998C-33.7482 178.066 -33.7482 178.066 -32.7164 176.129C-31.7393 174.047 -31.3351 172.388 -31.0209 170.119C-30.8549 168.958 -30.8549 168.958 -30.6855 167.774C-30.5727 166.934 -30.4599 166.095 -30.3437 165.23C-30.1555 163.892 -30.1555 163.892 -29.9634 162.528C-29.5505 159.583 -29.1475 156.637 -28.7443 153.691C-28.4588 151.643 -28.1726 149.596 -27.8857 147.549C-27.132 142.159 -26.3864 136.768 -25.6429 131.376C-24.4513 122.747 -23.2473 114.118 -22.0436 105.49C-21.6241 102.475 -21.2079 99.459 -20.7923 96.4431C-20.536 94.5959 -20.2797 92.7487 -20.0234 90.9016C-19.8511 89.6422 -19.8511 89.6422 -19.6754 88.3573C-18.555 80.3194 -18.555 80.3194 -17.7482 78.0656C-16.7582 77.7356 -15.7682 77.4056 -14.7482 77.0656C-11.598 81.5106 -10.716 85.8432 -9.70526 91.0852C-9.53194 91.9437 -9.35861 92.8023 -9.18004 93.6869C-8.63131 96.4156 -8.09586 99.1467 -7.56073 101.878C-7.18986 103.734 -6.81812 105.591 -6.4455 107.447C-5.53638 111.984 -4.63915 116.524 -3.74823 121.066C-3.08823 121.066 -2.42823 121.066 -1.74823 121.066C3.5436 115.124 5.48489 108.687 7.06427 101.066C12.9634 75.5207 23.0941 50.9644 36.7518 28.5656C37.1487 27.9069 37.5457 27.2481 37.9547 26.5693C39.5637 24.0519 40.6864 22.3125 43.4705 21.0969C44.0583 21.0866 44.6461 21.0763 45.2518 21.0656C46.2518 22.0656 46.2518 22.0656 46.372 24.1221C46.3698 25.0258 46.3676 25.9296 46.3653 26.8608C46.3652 27.8818 46.3651 28.9028 46.3651 29.9547C46.3599 31.0651 46.3548 32.1755 46.3494 33.3195C46.3473 35.0154 46.3473 35.0154 46.3451 36.7456C46.3395 40.3731 46.327 44.0006 46.3143 47.6281C46.3092 50.0806 46.3047 52.5331 46.3006 54.9856C46.2896 61.0123 46.2728 67.039 46.2518 73.0656C47.3876 72.2938 48.5183 71.5143 49.6468 70.7317C50.5921 70.0818 50.5921 70.0818 51.5565 69.4188C53.9801 67.4843 54.9352 65.4004 56.1268 62.5656C67.9643 37.0478 89.8709 17.6152 114.252 4.50314C115.472 3.8398 115.472 3.8398 116.717 3.16305C117.492 2.75837 118.266 2.35368 119.064 1.93674C119.751 1.57507 120.438 1.21341 121.146 0.840788C123.622 -0.0707341 125.634 -0.0711392 128.252 0.0656414ZM83.1268 33.6906C74.8364 41.986 66.1641 51.8231 62.2518 63.0656C68.3393 61.2839 73.6352 59.3646 77.3338 54.1047C77.9049 52.9781 78.4759 51.8514 79.0643 50.6906C81.9211 45.3188 84.9996 40.2312 88.5018 35.2531C88.914 34.6487 89.3263 34.0443 89.751 33.4216C92.7079 29.2756 92.7079 29.2756 95.5486 28.1789C96.1107 28.1415 96.6727 28.1042 97.2518 28.0656C95.128 33.4947 92.4483 38.0391 89.1268 42.8156C85.6837 47.6682 85.6837 47.6682 83.2518 53.0656C88.7013 52.6854 90.6829 51.1082 94.2518 47.0656C96.3141 43.8225 96.3141 43.8225 98.0643 40.3781C98.9711 38.6708 98.9711 38.6708 99.8963 36.9289C101.394 34.2924 101.394 34.2924 101.252 32.0656C102.572 32.0656 103.892 32.0656 105.252 32.0656C103.699 37.1203 102.108 41.5766 99.2518 46.0656C99.2518 46.7256 99.2518 47.3856 99.2518 48.0656C102.703 47.677 102.703 47.677 106.252 46.0656C107.4 43.3965 108.341 40.8145 109.252 38.0656C109.889 36.3762 110.535 34.6901 111.189 33.007C111.527 32.126 111.865 31.2449 112.213 30.3371C112.904 28.5345 113.597 26.7325 114.291 24.9309C116.426 19.3533 118.417 13.7492 120.252 8.06564C107.674 8.06564 91.5371 25.4734 83.1268 33.6906ZM317.252 26.0656C321.023 26.0656 322.449 24.8762 325.627 22.8781C340.15 14.2273 355.669 11.1789 372.252 9.06564C372.252 8.73564 372.252 8.40564 372.252 8.06564C351.014 7.19881 333.854 12.5131 317.252 26.0656ZM178.502 13.5656C177.429 14.0606 176.357 14.5556 175.252 15.0656C175.912 15.3956 176.572 15.7256 177.252 16.0656C175.76 20.1342 173.57 21.2752 169.814 23.2531C161.713 27.7765 154.723 33.4293 148.252 40.0656C152.128 40.5723 155.73 41.0389 159.133 38.863C160.866 37.192 162.444 35.4643 164.002 33.6281C169.584 27.2758 169.584 27.2758 173.142 26.1555C173.839 26.1258 174.535 26.0962 175.252 26.0656C174.71 29.8597 173.247 31.2578 170.314 33.6281C167.721 35.741 166.135 37.2411 164.252 40.0656C166.562 40.0656 168.872 40.0656 171.252 40.0656C173.191 36.5249 175.128 32.9829 177.064 29.4406C177.885 27.9421 177.885 27.9421 178.722 26.4133C181.315 21.6684 183.887 16.9284 186.252 12.0656C182.711 12.0656 181.506 12.1791 178.502 13.5656ZM227.063 24.1169C214.988 30.4409 205.865 39.7201 200.252 52.0656C199.91 52.8107 199.569 53.5558 199.217 54.3235C194.157 67.8312 197.421 84.6038 199.184 98.4619C200.914 112.294 201.991 128.242 193.252 140.066C188.642 144.236 185.696 145.482 179.576 145.413C175.558 144.812 173.969 143.048 171.252 140.066C169.403 136.352 169.037 133.477 169.162 129.355C169.182 128.274 169.202 127.194 169.222 126.081C169.283 123.829 169.349 121.576 169.418 119.323C169.552 111.561 168.768 106.93 164.502 100.378C161.605 97.4013 159.015 95.8446 155.252 94.0656C153.767 94.5606 153.767 94.5606 152.252 95.0656C152.638 95.6715 153.025 96.2774 153.424 96.9016C162.789 111.97 166.387 126.615 162.424 144.093C160.128 152.51 155.981 160.358 152.231 168.2C151.582 169.557 150.935 170.916 150.29 172.275C149.436 174.067 148.567 175.852 147.697 177.636C143.838 186.792 142.276 197.632 145.189 207.316C149.762 217.273 158.868 223.918 168.662 228.093C174.813 230.156 180.886 230.336 187.314 230.378C188.16 230.384 189.007 230.389 189.878 230.395C194.547 230.544 194.547 230.544 198.252 228.066C197.922 227.406 197.592 226.746 197.252 226.066C196.413 214.944 197.272 206.828 204.314 197.941C213.346 188.523 224.667 184.841 236.752 181.003C250.461 176.618 262.685 172.3 273.252 162.066C272.922 161.406 272.592 160.746 272.252 160.066C271.132 160.632 270.011 161.197 268.857 161.78C267.385 162.521 265.912 163.262 264.439 164.003C263.701 164.376 262.963 164.75 262.203 165.134C261.491 165.492 260.779 165.849 260.045 166.218C259.063 166.713 259.063 166.713 258.061 167.218C250.959 170.546 240.434 170.463 233.013 167.984C230.672 166.78 228.475 165.472 226.252 164.066C225.262 163.736 224.272 163.406 223.252 163.066C222.189 161.253 222.189 161.253 221.252 159.066C220.901 158.488 220.551 157.911 220.189 157.316C217.51 150.886 217.901 144.496 220.252 138.066C224.518 129.087 231.353 124.756 240.498 121.468C245.15 119.97 249.646 119.385 254.502 119.003C255.354 118.925 256.206 118.847 257.083 118.766C261.675 118.348 266.271 117.987 270.869 117.64C284.048 116.771 284.048 116.771 296.252 112.066C296.873 111.71 297.494 111.354 298.135 110.988C300.433 109.555 302.023 108.522 303.252 106.066C300.737 107.069 298.224 108.077 295.717 109.101C294.466 109.609 294.466 109.609 293.189 110.128C292.353 110.47 291.516 110.811 290.654 111.163C282.418 114.257 272.827 114.473 264.627 111.191C263.154 110.512 261.694 109.806 260.252 109.066C259.523 108.728 258.795 108.39 258.045 108.042C255.663 106.745 255.288 105.553 254.252 103.066C253.736 102.199 253.221 101.333 252.689 100.441C250.018 94.1682 249.451 88.4044 251.627 81.8781C254.729 75.098 260.433 71.0008 267.189 68.1281C278.874 64.9415 290.823 66.991 302.377 69.5656C320.744 73.5971 338.225 73.5522 356.252 68.0656C356.252 67.7356 356.252 67.4056 356.252 67.0656C355.112 66.9905 353.973 66.9153 352.799 66.8379C348.541 66.5538 344.285 66.2536 340.029 65.9487C338.192 65.8194 336.355 65.6943 334.518 65.5737C331.866 65.3989 329.215 65.2083 326.564 65.0149C325.752 64.9647 324.941 64.9146 324.104 64.8629C317.741 64.3749 311.876 63.219 306.814 59.0656C303.375 54.6638 303.682 49.3941 304.252 44.0656C306.036 38.5491 309.419 34.3244 313.252 30.0656C310.398 31.4076 307.937 32.932 305.416 34.8235C304.325 35.6327 304.325 35.6327 303.212 36.4582C302.441 37.0299 301.671 37.6016 300.877 38.1906C283.248 51.0487 263.451 62.509 240.721 59.6008C233.68 58.0745 229.352 54.9046 225.252 49.0656C223.748 44.5557 223.278 40.4017 225.123 35.9758C229.274 28.884 235.424 24.3957 242.252 20.0656C236.978 18.3078 231.874 21.7807 227.063 24.1169ZM139.939 33.3781C139.395 33.7982 138.85 34.2183 138.29 34.6511C135.766 36.6606 134.06 38.3539 132.252 41.0656C136.091 41.1266 139.786 41.1643 142.951 38.7922C144.038 37.6254 145.106 36.44 146.158 35.2414C149.355 31.9192 153.036 29.2847 156.721 26.5307C159.406 24.5157 161.972 22.538 164.252 20.0656C156.347 20.0656 145.988 28.7099 139.939 33.3781ZM315.252 27.0656C314.262 28.5506 314.262 28.5506 313.252 30.0656C314.572 29.4056 315.892 28.7456 317.252 28.0656C316.592 27.7356 315.932 27.4056 315.252 27.0656ZM201.775 32.4719C201.105 32.9682 200.435 33.4645 199.744 33.9758C198.696 34.7628 198.696 34.7628 197.627 35.5656C196.92 36.0903 196.214 36.6149 195.486 37.1555C193.738 38.4547 191.994 39.7582 190.252 41.0656C193.439 43.1907 195.517 43.5677 199.252 44.0656C200.594 42.3013 201.925 40.529 203.252 38.7531C203.994 37.767 204.737 36.7809 205.502 35.7649C207.524 33.1822 207.524 33.1822 207.252 30.0656C204.652 30.0656 203.846 30.9272 201.775 32.4719ZM40.2518 33.0656C30.9235 50.3879 22.6556 67.6169 16.3143 86.2531C16.0193 87.1144 15.7244 87.9757 15.4205 88.863C13.7454 93.9544 12.7383 98.7258 12.2518 104.066C12.9943 103.323 13.7368 102.581 14.5018 101.816C16.0595 100.258 17.6465 98.7251 19.3145 97.2861C21.7351 94.5116 22.2216 92.3751 22.9979 88.7883C23.2782 87.5514 23.5586 86.3146 23.8475 85.0403C24.1294 83.7365 24.41 82.4325 24.6893 81.1281C26.8222 71.3466 29.3872 62.2999 33.2518 53.0656C34.2418 53.0656 35.2318 53.0656 36.2518 53.0656C35.1161 58.847 33.5561 64.3973 31.7518 70.0031C29.8356 75.9676 28.2499 81.8685 27.2518 88.0656C28.5867 87.4023 29.9196 86.7347 31.2518 86.0656C32.0953 85.6905 32.9388 85.3154 33.8079 84.9289C37.2066 82.9436 39.0306 81.3531 41.2518 78.0656C42.9829 70.6058 42.1864 62.6522 41.8768 55.0656C41.8266 52.9342 41.7809 50.8027 41.7401 48.6711C41.6302 43.4668 41.4633 38.2668 41.2518 33.0656C40.9218 33.0656 40.5918 33.0656 40.2518 33.0656ZM141.252 54.0656C139.032 57.396 138.899 59.0989 139.537 63.007C140.917 66.9817 143.718 68.9774 147.252 71.0656C154.949 74.6318 154.949 74.6318 163.252 75.0656C164.583 73.4901 164.583 73.4901 165.439 71.3781C168.38 66.0383 172.767 64.2808 178.252 62.0656C178.252 61.4056 178.252 60.7456 178.252 60.0656C176.595 58.6551 176.595 58.6551 174.502 57.2531C169.853 53.8772 166.605 50.3604 164.252 45.0656C155.152 44.3916 147.196 46.8213 141.252 54.0656ZM170.252 45.0656C171.364 49.7911 173.957 51.8762 177.744 54.5735C182.33 57.3023 187.269 59.1886 192.252 61.0656C193.827 58.1794 194.715 55.5322 195.377 52.3156C195.544 51.5164 195.712 50.7172 195.885 49.8938C196.006 49.2905 196.127 48.6872 196.252 48.0656C183.353 45.485 183.353 45.485 170.252 45.0656ZM118.689 47.9406C117.368 48.2012 117.368 48.2012 116.02 48.467C112.144 49.2788 109.6 49.8337 106.252 52.0656C112.371 58.1848 120.618 59.2433 128.939 59.2531C130.711 59.2059 132.482 59.149 134.252 59.0656C134.633 58.1607 134.633 58.1607 135.021 57.2375C135.365 56.4383 135.71 55.6391 136.064 54.8156C136.401 54.0267 136.737 53.2378 137.084 52.425C138.254 50.0616 139.607 48.1202 141.252 46.0656C133.493 45.4979 126.274 46.4247 118.689 47.9406ZM85.2518 62.0656C81.8654 66.2986 80.351 69.6058 80.2518 75.0656C81.5201 78.3485 82.8044 79.736 85.6268 81.8156C92.0873 84.0434 99.5071 84.7439 106.314 83.8156C110.462 81.3445 110.736 78.3978 112.076 73.9055C113.732 69.9065 116.259 67.8889 119.642 65.3078C120.173 64.8979 120.705 64.488 121.252 64.0656C121.252 63.7356 121.252 63.4056 121.252 63.0656C120.395 62.8465 119.537 62.6274 118.654 62.4016C111.328 60.3699 106.678 58.3712 101.252 53.0656C95.7821 53.0656 89.0629 58.4723 85.2518 62.0656ZM78.2518 61.0656C79.2518 63.0656 79.2518 63.0656 79.2518 63.0656L78.2518 61.0656ZM71.2518 65.0656C70.468 65.3634 69.6843 65.6612 68.8768 65.968C60.6963 69.3887 53.4128 74.9158 46.2518 80.0656C49.0903 82.9041 51.2941 82.7575 55.2518 83.0656C62.5513 82.1206 69.6576 80.3627 76.2518 77.0656C76.2105 76.055 76.1693 75.0444 76.1268 74.0031C76.2575 69.8849 76.9843 66.9473 78.2518 63.0656C75.5765 63.0656 73.7161 64.0341 71.2518 65.0656ZM117.631 72.5617C114.813 75.6349 114.229 77.9572 114.314 82.0656C115.794 86.7997 118.809 89.0805 122.814 91.8156C126.597 93.7554 129.773 94.1903 134.002 94.1281C135.201 94.1146 135.201 94.1146 136.424 94.1008C137.027 94.0892 137.63 94.0776 138.252 94.0656C138.546 93.2129 138.546 93.2129 138.846 92.343C141.353 85.8696 144.748 82.2204 150.252 78.0656C148.227 75.8443 148.227 75.8443 144.939 74.3156C140.545 71.8756 137.52 68.6024 135.252 64.0656C128.525 64.0656 122.445 68.105 117.631 72.5617ZM171.252 70.3781C169.015 73.3832 167.846 75.3538 167.252 79.0656C168.903 85.5509 172.799 89.3304 178.252 93.0656C180.909 94.3424 183.418 95.2054 186.252 96.0656C186.85 95.1375 187.448 94.2094 188.064 93.2531C190.252 90.0656 190.252 90.0656 191.882 88.6696C193.781 86.4458 193.533 85.0964 193.361 82.2141C193.286 80.8142 193.286 80.8142 193.209 79.386C193.106 77.928 193.106 77.928 193.002 76.4406C192.949 75.461 192.896 74.4813 192.842 73.4719C192.966 68.9214 192.966 68.9214 191.252 65.0656C184.009 64.4492 177.062 65.8991 171.252 70.3781ZM263.252 75.0656C263.401 84.1963 267.188 90.8307 273.482 97.3899C274.066 97.9429 274.65 98.4959 275.252 99.0656C276.706 98.6016 276.706 98.6016 278.189 98.1281C282.488 96.886 286.805 96.4488 291.252 96.0656C287.549 92.2161 283.651 88.8461 279.439 85.5656C278.824 85.0844 278.209 84.6032 277.575 84.1074C270.915 78.2057 270.915 78.2057 263.252 75.0656ZM154.752 81.8156C153.793 82.1405 152.834 82.4653 151.846 82.8C149.023 84.1772 147.891 85.4293 146.252 88.0656C147.286 88.1778 147.286 88.1778 148.342 88.2922C156.658 89.4559 161.965 92.4788 168.334 97.8078C168.967 98.2229 169.6 98.638 170.252 99.0656C172.986 98.3561 172.986 98.3561 175.252 97.0656C174.551 96.5913 173.849 96.1169 173.127 95.6281C168.494 91.4991 164.437 86.2737 163.252 80.0656C159.988 80.0656 157.824 80.7421 154.752 81.8156ZM257.252 81.0656C255.117 84.8909 253.746 87.642 254.252 92.0656C255.234 93.2713 255.234 93.2713 257.099 93.1633C259.15 93.1307 261.201 93.0982 263.252 93.0656C262.963 92.385 262.674 91.7044 262.377 91.0031C261.126 87.7367 260.177 84.4372 259.252 81.0656C258.592 81.0656 257.932 81.0656 257.252 81.0656ZM74.033 83.4016C68.871 88.0156 64.9324 92.2071 63.2518 99.0656C63.1322 102.653 63.1582 104.809 65.5643 107.573C70.147 111.583 73.9168 112.338 79.7557 112.3C83.8196 111.918 87.4776 110.565 91.2518 109.066C91.3497 108.269 91.4477 107.472 91.5486 106.652C92.4324 100.389 93.2205 95.9788 97.2518 91.0656C97.9118 90.0756 98.5718 89.0856 99.2518 88.0656C98.5505 88.0399 97.8493 88.0141 97.1268 87.9875C91.3768 87.6438 86.9982 86.9361 82.0057 84.0031C78.056 81.865 78.056 81.865 74.033 83.4016ZM40.2518 84.0656C34.3112 90.1898 29.2662 96.4875 28.7518 105.316C29.331 109.66 29.9191 111.233 33.2518 114.066C39.8463 117.063 44.5309 115.583 51.2401 113.292C54.6811 111.891 57.3608 110.378 60.2518 108.066C60.1448 107.437 60.0378 106.808 59.9276 106.159C58.7896 98.0346 60.5929 93.3194 64.2518 86.0656C63.022 86.0888 61.7922 86.1121 60.5252 86.136C58.8924 86.1547 57.2596 86.1729 55.6268 86.1906C54.8185 86.2074 54.0103 86.2242 53.1776 86.2414C48.4508 86.2799 44.6979 85.893 40.2518 84.0656ZM110.252 87.0656C101.41 92.4072 101.41 92.4072 96.2518 101.066C95.7538 105.464 95.9064 107.504 98.2518 111.316C102.09 115.337 106.505 116.889 111.99 117.241C114.42 117.252 116.826 117.2 119.252 117.066C119.49 115.853 119.49 115.853 119.732 114.616C121.13 108.215 122.056 104.167 127.252 100.066C127.582 99.4056 127.912 98.7456 128.252 98.0656C127.6 97.8349 126.947 97.6042 126.275 97.3664C119.581 94.8685 115.3 92.1137 110.252 87.0656ZM294.252 91.0656C295.015 91.8288 295.778 92.5919 296.564 93.3781C298.46 95.274 300.356 97.1698 302.252 99.0656C302.871 98.7563 303.489 98.4469 304.127 98.1281C305.502 97.4406 306.877 96.7531 308.252 96.0656C308.252 95.4056 308.252 94.7456 308.252 94.0656C306.482 93.5609 304.711 93.062 302.939 92.5656C301.953 92.2872 300.967 92.0088 299.951 91.7219C297.229 90.9475 297.229 90.9475 294.252 91.0656ZM193.252 93.0656C190.545 95.6593 189.967 97.8144 189.814 101.441C189.956 105.947 191.301 108.594 194.252 112.066C194.912 112.396 195.572 112.726 196.252 113.066C196.138 110.481 196.011 107.899 195.877 105.316C195.846 104.586 195.815 103.856 195.783 103.105C195.577 99.3262 195.337 96.2862 193.252 93.0656ZM143.252 94.0656C143.503 99.2174 145.256 101.905 148.619 105.585C150.654 107.43 152.604 108.365 155.252 109.066C152.67 103.405 149.898 98.3134 145.252 94.0656C144.592 94.0656 143.932 94.0656 143.252 94.0656ZM-15.7482 95.0656C-16.8176 102.558 -17.8787 110.051 -18.9293 117.545C-19.4174 121.025 -19.9083 124.505 -20.4057 127.984C-20.9775 131.984 -21.537 135.986 -22.0959 139.988C-22.276 141.236 -22.4562 142.484 -22.6418 143.769C-22.802 144.93 -22.9623 146.091 -23.1274 147.287C-23.2717 148.309 -23.4161 149.33 -23.5648 150.383C-23.7382 152.919 -23.5359 154.67 -22.7482 157.066C-19.4971 152.049 -18.1231 148.188 -17.9201 142.163C-17.8814 141.441 -17.8426 140.718 -17.8027 139.974C-17.6843 137.692 -17.5909 135.411 -17.4982 133.128C-17.4218 131.57 -17.3437 130.012 -17.2639 128.454C-17.073 124.659 -16.9045 120.863 -16.7482 117.066C-15.7582 116.736 -14.7682 116.406 -13.7482 116.066C-13.7482 123.656 -13.7482 131.246 -13.7482 139.066C-10.1141 135.464 -10.1141 135.464 -7.74823 131.066C-7.78907 123.501 -9.63745 115.932 -11.1857 108.566C-11.4029 107.483 -11.6201 106.4 -11.8439 105.284C-12.0586 104.253 -12.2732 103.222 -12.4943 102.159C-12.7833 100.762 -12.7833 100.762 -13.0781 99.3371C-13.6025 96.8926 -13.6025 96.8926 -15.7482 95.0656ZM257.252 98.0656C259.29 102.864 262.745 105.575 267.252 108.066C270.157 108.126 270.157 108.126 272.252 107.066C272.582 105.746 272.912 104.426 273.252 103.066C267.857 99.981 263.462 98.5092 257.252 98.0656ZM314.83 99.4563C314.172 100.377 314.172 100.377 313.502 101.316C312.829 102.221 312.829 102.221 312.142 103.144C310.992 105.626 311.389 106.506 312.252 109.066C314.216 112.466 316.435 115.512 320.299 116.689C322.64 116.911 324.901 116.933 327.252 116.878C328.938 116.9 330.624 116.928 332.31 116.96C333.557 116.975 333.557 116.975 334.829 116.99C340.758 117.175 347.925 117.402 353.252 120.066C353.252 120.726 353.252 121.386 353.252 122.066C349.371 122.134 345.816 122.152 341.971 121.566C338.037 121.037 334.281 120.968 330.314 121.003C329.289 121.01 329.289 121.01 328.242 121.017C326.579 121.028 324.915 121.046 323.252 121.066C323.912 122.386 324.572 123.706 325.252 125.066C338.617 125.561 338.617 125.561 352.252 126.066C352.252 127.386 352.252 128.706 352.252 130.066C344.662 129.736 337.072 129.406 329.252 129.066C329.582 130.056 329.912 131.046 330.252 132.066C343.294 132.189 356.235 131.89 369.252 131.066C360.937 120.893 350.863 114.193 339.564 107.691C338.698 107.191 337.832 106.691 336.939 106.176C325.932 99.1296 325.932 99.1296 314.83 99.4563ZM17.9107 105.147C12.1433 111.011 7.19964 117.51 2.25177 124.066C2.58177 124.726 2.91177 125.386 3.25177 126.066C12.2157 125.776 18.9725 122.523 25.3768 116.191C25.9955 115.489 26.6143 114.788 27.2518 114.066C26.9218 113.447 26.5918 112.828 26.2518 112.191C24.8479 107.804 25.0921 103.634 25.2518 99.0656C22.5479 99.0656 19.7613 103.309 17.9107 105.147ZM128.646 104.597C125.545 108.307 124.001 110.518 124.377 115.316C124.886 119.141 125.778 121.888 128.517 124.78C132.282 127.57 137.504 130.066 142.252 130.066C142.471 129.33 142.69 128.594 142.916 127.835C144.986 121.466 146.615 117.781 152.252 114.066C151.53 113.509 150.808 112.952 150.064 112.378C145.184 108.365 141.829 104.898 139.252 99.0656C135.609 99.0656 131.168 102.192 128.646 104.597ZM172.252 103.066C172.415 103.852 172.579 104.638 172.748 105.448C173.378 109.974 173.359 114.379 173.314 118.941C173.31 119.82 173.305 120.699 173.301 121.605C173.289 123.758 173.271 125.912 173.252 128.066C175.232 129.056 177.212 130.046 179.252 131.066C179.84 129.704 179.84 129.704 180.439 128.316C183.018 123.691 185.633 121.677 190.564 119.816C191.451 119.568 192.338 119.321 193.252 119.066C192.842 118.52 192.432 117.975 192.01 117.413C188.126 111.979 186.299 107.662 185.252 101.066C183.836 101.011 182.419 100.973 181.002 100.941C179.818 100.906 179.818 100.906 178.611 100.87C176.044 101.083 174.46 101.779 172.252 103.066ZM278.252 104.066C276.905 106.637 276.905 106.637 276.252 109.066C283.218 109.591 288.945 108.103 295.252 105.066C295.582 104.406 295.912 103.746 296.252 103.066C290.235 100.057 283.58 99.5207 278.252 104.066ZM62.2518 113.066C57.031 118.668 54.7008 122.81 54.8729 130.589C55.5125 134.77 57.0673 136.297 60.2518 139.066C65.2173 141.661 69.9228 141.263 75.2518 140.066C78.6877 138.643 78.6877 138.643 81.2518 137.066C81.1448 136.471 81.0378 135.877 80.9276 135.265C79.9097 128.227 80.9974 122.765 83.2518 116.066C82.6227 116.1 81.9937 116.135 81.3455 116.171C75.1483 116.367 70.9457 115.463 65.2518 113.066C64.2618 113.066 63.2718 113.066 62.2518 113.066ZM90.7166 115.421C86.8693 120.036 84.2008 123.263 84.3143 129.503C85.6127 134.437 87.7151 137.546 92.0447 140.14C97.2628 142.442 101.736 142.125 107.252 141.066C107.289 140.197 107.327 139.328 107.365 138.433C108.018 126.987 108.018 126.987 111.252 122.066C110.516 121.823 109.78 121.581 109.021 121.331C103.673 119.494 99.5564 117.832 95.2518 114.066C92.2853 113.735 92.2853 113.735 90.7166 115.421ZM297.939 115.941C291.796 119.068 286.072 120.364 279.252 121.066C279.252 125.065 280.978 126.868 283.252 130.066C284.002 129.959 284.752 129.852 285.525 129.741C292.855 128.883 298.377 129.373 305.252 132.066C305.088 131.217 304.924 130.369 304.756 129.495C304.242 126.001 304.153 122.719 304.189 119.191C304.198 118.038 304.207 116.886 304.217 115.698C304.228 114.83 304.24 113.961 304.252 113.066C302.123 113.066 299.733 114.968 297.939 115.941ZM309.252 115.066C307.076 119.417 307.803 124.468 309.076 128.999C310.508 133.008 311.884 136.513 314.252 140.066C316.879 140.287 319.261 140.347 321.877 140.253C322.583 140.24 323.29 140.226 324.017 140.212C325.763 140.177 327.507 140.123 329.252 140.066C327.775 135.653 325.362 132.295 322.502 128.691C322.055 128.121 321.608 127.551 321.148 126.963C319.858 125.324 318.557 123.693 317.252 122.066C316.618 121.273 315.983 120.48 315.33 119.663C314.025 118.084 312.647 116.566 311.252 115.066C310.592 115.066 309.932 115.066 309.252 115.066ZM150.252 121.066C147.381 124.511 146.718 127.515 146.896 132.011C147.828 137.397 151.25 141.492 155.252 145.066C156.242 144.736 157.232 144.406 158.252 144.066C161.864 135.585 160.789 125.63 158.252 117.066C154.867 117.066 152.883 119.079 150.252 121.066ZM30.2518 118.066C24.7604 127.513 24.7604 127.513 24.2518 138.066C25.884 141.738 27.7278 144.108 31.2518 146.066C37.2243 147.705 41.793 146.686 47.2518 144.066C49.4703 142.534 51.2866 140.93 53.2518 139.066C52.9243 138.402 52.5969 137.738 52.2596 137.054C51.0275 133.401 51.0322 130.055 51.1268 126.253C51.1358 125.56 51.1448 124.867 51.1541 124.154C51.1775 122.457 51.2134 120.761 51.2518 119.066C50.071 119.077 48.8902 119.089 47.6736 119.101C46.1163 119.11 44.5591 119.119 43.0018 119.128C42.2245 119.137 41.4472 119.145 40.6463 119.154C39.5152 119.158 39.5152 119.158 38.3611 119.163C37.3242 119.171 37.3242 119.171 36.2664 119.179C34.152 119.06 32.2854 118.642 30.2518 118.066ZM114.252 126.066C111.844 130.026 110.913 133.016 111.564 137.566C113.059 143.031 116.684 145.973 121.252 149.066C124.344 150.646 125.79 151.066 129.252 151.066C129.35 150.269 129.448 149.472 129.549 148.652C130.425 142.439 131.2 137.928 135.252 133.066C134.056 132.55 132.859 132.034 131.627 131.503C127.552 129.502 125.184 127.054 122.478 123.456C121.871 122.768 121.871 122.768 121.252 122.066C117.961 122.066 116.58 123.851 114.252 126.066ZM262.252 122.066C262.252 122.396 262.252 122.726 262.252 123.066C265.882 123.396 269.512 123.726 273.252 124.066C273.252 123.406 273.252 122.746 273.252 122.066C269.622 122.066 265.992 122.066 262.252 122.066ZM251.252 123.066C251.912 124.386 252.572 125.706 253.252 127.066C255.562 126.076 257.872 125.086 260.252 124.066C260.252 123.736 260.252 123.406 260.252 123.066C257.282 123.066 254.312 123.066 251.252 123.066ZM186.252 127.066C183.225 130.799 182.61 134.318 182.252 139.066C182.582 139.726 182.912 140.386 183.252 141.066C187.716 139.702 189.708 137.967 192.252 134.066C193.945 130.36 195.252 127.169 195.252 123.066C191.776 123.066 189.008 125.109 186.252 127.066ZM13.7518 128.566C8.4893 130.2 3.721 130.38 -1.74823 130.066C-5.33866 138.31 -6.96183 144.409 -3.62323 152.941C-1.0595 155.846 1.4886 157.344 5.25177 158.066C12.8009 157.997 17.8053 153.881 23.2518 149.066C22.7503 146.364 22.2238 143.996 21.1893 141.441C19.8571 136.645 20.0934 132.011 20.2518 127.066C17.8127 127.066 16.062 127.776 13.7518 128.566ZM228.377 133.316C225.689 136.794 224.975 139.762 225.252 144.066C226.092 147.951 227.137 151.062 230.127 153.753C232.389 154.324 232.389 154.324 234.49 152.628C237.685 150.821 239.922 150.578 243.564 150.378C244.633 150.312 245.702 150.247 246.803 150.179C247.611 150.142 248.419 150.104 249.252 150.066C249.24 148.945 249.229 147.825 249.217 146.671C249.207 145.198 249.198 143.726 249.189 142.253C249.181 141.515 249.173 140.777 249.164 140.017C249.149 136.766 249.216 134.172 250.252 131.066C241.623 125.052 235.946 127.392 228.377 133.316ZM255.252 132.066C252.619 136.481 251.776 139.879 252.658 144.999C253.693 148.602 255.397 151.822 257.252 155.066C258.015 154.736 258.778 154.406 259.564 154.066C263.826 152.91 267.478 152.999 271.861 153.191C274.44 153.323 274.44 153.323 276.252 151.066C276.661 149.143 276.983 147.201 277.252 145.253C277.813 141.22 278.598 137.794 280.252 134.066C278.983 133.249 277.712 132.438 276.439 131.628C275.732 131.176 275.024 130.723 274.295 130.257C267.606 126.357 260.895 126.948 255.252 132.066ZM284.252 137.066C281.125 141.859 280.631 145.504 281.603 151.081C282.472 155.056 283.439 157.997 286.252 161.066C287.242 160.736 288.232 160.406 289.252 160.066C295.467 159.644 299.536 160.616 305.252 163.066C305.361 162.113 305.471 161.16 305.584 160.179C305.742 158.925 305.901 157.67 306.064 156.378C306.215 155.137 306.366 153.895 306.521 152.616C307.242 149.113 308.334 147.03 310.252 144.066C309.642 140.811 307.528 139.36 305.002 137.441C297.58 132.436 291.425 131.14 284.252 137.066ZM136.252 139.066C133.963 142.335 134.074 145.145 134.252 149.066C136.002 148.951 137.752 148.823 139.502 148.691C140.476 148.621 141.451 148.551 142.455 148.48C145.148 148.081 146.921 147.431 149.252 146.066C148.902 145.523 148.553 144.98 148.193 144.421C147.738 143.706 147.283 142.99 146.814 142.253C146.362 141.545 145.909 140.838 145.443 140.109C144.252 138.066 144.252 138.066 143.252 135.066C140.048 135.066 138.565 136.983 136.252 139.066ZM175.252 136.066C175.912 137.386 176.572 138.706 177.252 140.066C177.582 138.746 177.912 137.426 178.252 136.066C177.262 136.066 176.272 136.066 175.252 136.066ZM84.2518 141.066C81.0567 145.958 79.471 149.043 80.2518 155.066C82.2148 159.646 85.3457 162.136 89.2518 165.066C92.0533 165.999 93.9062 166.229 96.8143 166.253C97.5993 166.267 98.3844 166.282 99.1932 166.296C101.476 166.257 101.476 166.257 103.252 164.066C102.901 163.117 102.551 162.168 102.189 161.191C100.788 156.419 101.53 151.911 102.252 147.066C101.516 146.884 100.78 146.702 100.021 146.515C94.9648 145.212 90.6216 144.026 86.2518 141.066C85.5918 141.066 84.9318 141.066 84.2518 141.066ZM56.2518 143.066C52.9171 148.346 52.5109 152.996 53.2518 159.066C54.9625 163.298 57.099 165.22 61.2518 167.066C67.2237 168.436 71.8734 168.247 77.2518 165.066C77.9118 164.076 78.5718 163.086 79.2518 162.066C78.7568 161.323 78.2618 160.581 77.7518 159.816C75.2483 154.95 76.0196 149.38 76.2518 144.066C75.227 144.077 74.2022 144.089 73.1463 144.101C71.7856 144.11 70.4249 144.119 69.0643 144.128C68.3907 144.137 67.7172 144.145 67.0233 144.154C63.2974 144.172 59.873 143.959 56.2518 143.066ZM312.252 149.066C309.297 154.132 309.474 160.094 310.928 165.648C311.647 167.814 312.409 169.945 313.252 172.066C313.881 172.019 314.51 171.973 315.158 171.925C323.125 171.589 327.747 173.729 334.252 178.066C334.278 177.364 334.303 176.663 334.33 175.941C334.676 170.149 335.384 165.809 338.412 160.82C339.54 158.788 339.54 158.788 339.252 155.066C335.39 149.211 330.014 145.122 323.068 143.581C317.737 143.218 315.373 144.934 312.252 149.066ZM-11.7482 146.066C-13.7548 149.854 -15.7524 153.647 -17.7482 157.441C-18.3206 158.521 -18.8929 159.601 -19.4826 160.714C-20.024 161.745 -20.5654 162.777 -21.1232 163.839C-21.626 164.792 -22.1287 165.745 -22.6467 166.727C-23.8903 168.936 -23.8903 168.936 -23.7482 171.066C-16.2805 170.551 -12.5624 168.461 -6.81073 163.566C-4.5361 161.349 -4.5361 161.349 -4.74823 159.066C-5.7586 156.962 -5.7586 156.962 -7.24823 154.691C-8.9142 151.775 -9.36308 149.378 -9.74823 146.066C-10.4082 146.066 -11.0682 146.066 -11.7482 146.066ZM109.252 146.066C107.009 148.629 105.321 150.675 105.146 154.175C105.512 157.57 105.796 159.609 108.252 162.066C109.503 161.297 110.753 160.526 112.002 159.753C112.698 159.324 113.394 158.895 114.111 158.452C116.234 157.077 118.246 155.606 120.252 154.066C119.403 153.451 119.403 153.451 118.537 152.823C117.803 152.285 117.07 151.746 116.314 151.191C115.583 150.657 114.852 150.123 114.099 149.573C112.252 148.066 112.252 148.066 111.252 146.066C110.592 146.066 109.932 146.066 109.252 146.066ZM42.7518 150.128C37.7992 151.43 33.2575 150.825 28.2518 150.066C25.5712 155.427 24.6798 159.06 25.2518 165.066C27.0347 170.216 29.3592 172.665 34.2518 175.066C40.5451 175.878 45.0003 174.639 50.2518 171.066C52.226 169 52.226 169 53.2518 167.066C52.6124 166.138 51.973 165.209 51.3143 164.253C48.531 159.473 48.4479 154.488 48.2518 149.066C45.9611 148.969 45.9611 148.969 42.7518 150.128ZM149.252 152.066C149.252 154.376 149.252 156.686 149.252 159.066C150.242 159.561 150.242 159.561 151.252 160.066C153.453 156.261 153.453 156.261 154.252 152.066C152.602 152.066 150.952 152.066 149.252 152.066ZM131.064 155.503C130.34 155.733 129.617 155.963 128.871 156.2C124.984 157.438 124.984 157.438 121.252 159.066C122.586 162.508 124.064 165.818 125.713 169.12C126.185 170.065 126.656 171.01 127.142 171.984C127.632 172.959 128.122 173.935 128.627 174.941C129.109 175.909 129.591 176.877 130.088 177.874C132.669 183.03 135.33 188.095 138.252 193.066C138.582 193.066 138.912 193.066 139.252 193.066C139.633 191.581 139.633 191.581 140.021 190.066C140.369 188.732 140.716 187.399 141.064 186.066C141.23 185.417 141.396 184.769 141.566 184.101C142.475 180.636 143.515 177.417 144.939 174.128C146.689 169.596 146.203 165.779 145.439 161.066C145.33 160.291 145.221 159.516 145.109 158.718C144.841 156.831 144.549 154.948 144.252 153.066C139.47 152.699 135.542 154.032 131.064 155.503ZM231.252 161.066C232.091 163.228 232.091 163.228 234.252 164.128C239.229 165.683 244.031 166.491 249.189 165.503C252.066 163.498 252.455 161.397 253.252 158.066C249.273 154.883 245.702 154.451 240.767 154.562C236.568 155.403 234.048 157.954 231.252 161.066ZM259.252 160.066C258.922 160.726 258.592 161.386 258.252 162.066C261.711 160.816 264.399 159.39 267.252 157.066C263.644 157.066 262.189 158.056 259.252 160.066ZM16.4393 159.503C11.2955 161.784 5.80083 161.801 0.25177 162.066C-2.08531 167.394 -3.02454 172.478 -1.02557 178.097C1.02618 182.018 3.12949 184.473 7.25177 186.066C12.6205 186.672 16.0759 186.266 20.6424 183.355C23.2968 181.229 25.2143 178.782 27.2518 176.066C26.633 175.344 26.0143 174.622 25.3768 173.878C21.538 168.797 20.8815 164.258 20.2518 158.066C18.8737 157.99 18.8737 157.99 16.4393 159.503ZM278.252 162.066C277.874 162.562 277.496 163.058 277.107 163.57C271.229 170.825 264.01 175.809 255.252 179.066C255.582 179.726 255.912 180.386 256.252 181.066C257.273 180.818 257.273 180.818 258.314 180.566C264.48 179.516 269.404 180.156 275.252 182.066C275.35 181.364 275.448 180.663 275.549 179.941C276.552 173.578 278.078 168.672 281.252 163.066C280.262 162.736 279.272 162.406 278.252 162.066ZM342.252 162.066C337.707 169.772 337.813 176.57 339.681 185.097C340.076 187.05 340.076 187.05 341.252 188.066C343.694 188.604 346.149 189.029 348.611 189.468C351.31 190.079 353.714 190.975 356.252 192.066C352.565 181.667 348.407 171.828 343.252 162.066C342.922 162.066 342.592 162.066 342.252 162.066ZM98.2518 176.066C101.908 180.544 105.649 184.438 110.049 188.183C112.489 190.269 114.871 192.411 117.252 194.566C118.09 195.318 118.928 196.071 119.791 196.847C121.376 198.276 122.955 199.713 124.525 201.159C125.219 201.788 125.912 202.418 126.627 203.066C127.233 203.623 127.838 204.179 128.463 204.753C130.438 206.202 131.823 206.783 134.252 207.066C136.499 205.714 136.499 205.714 138.252 204.066C136.42 199.14 134.046 194.504 131.689 189.816C131.252 188.943 130.814 188.07 130.364 187.17C126.118 178.735 121.714 170.387 117.252 162.066C111.025 162.066 102.495 172.113 98.2518 176.066ZM283.002 169.566C280.635 172.947 280.113 175.473 280.127 179.503C280.124 180.265 280.122 181.027 280.119 181.812C280.249 184.019 280.643 185.945 281.252 188.066C282.109 188.103 282.966 188.14 283.849 188.179C290.304 188.55 295.522 189.001 301.252 192.066C301.422 191.341 301.592 190.617 301.767 189.87C303.989 181.008 303.989 181.008 306.564 177.691C308.547 175.22 308.547 175.22 307.939 172.503C305.105 168.409 301.807 165.782 296.967 164.425C290.553 163.44 287.387 164.693 283.002 169.566ZM350.252 164.066C352.757 172.415 355.832 177.937 362.158 183.921C366.897 188.775 373.977 196.937 374.439 203.878C374.377 204.6 374.316 205.322 374.252 206.066C370.187 204.711 369.765 202.841 367.752 199.128C365.26 194.425 365.26 194.425 361.252 191.066C361.625 192.8 362.027 194.528 362.439 196.253C362.66 197.216 362.88 198.179 363.107 199.171C365.641 205.58 372.623 210.153 377.787 214.605C382.055 218.432 382.055 218.432 383.142 221.941C383.197 222.993 383.197 222.993 383.252 224.066C378.955 222.676 376.545 220.685 373.439 217.441C372.649 216.623 371.859 215.806 371.045 214.964C370.453 214.338 369.861 213.711 369.252 213.066C368.345 215.513 368.24 216.999 368.701 219.589C371.012 223.279 374.1 224.166 378.064 225.691C379.489 226.263 380.912 226.838 382.334 227.417C383.346 227.826 383.346 227.826 384.379 228.242C386.801 229.307 388.996 230.69 391.252 232.066C391.912 232.066 392.572 232.066 393.252 232.066C388.201 206.666 372.688 183.883 354.252 166.066C352.085 164.748 352.085 164.748 350.252 164.066ZM83.2518 167.066C80.737 170.838 80.8038 172.586 81.2518 177.066C82.3841 179.601 83.7245 181.727 85.2518 184.066C89.4699 180.096 92.864 175.757 96.2518 171.066C95.5647 170.861 94.8776 170.656 94.1697 170.445C93.2687 170.175 92.3676 169.906 91.4393 169.628C90.5459 169.361 89.6526 169.094 88.7322 168.82C86.897 168.262 85.0714 167.672 83.2518 167.066ZM-12.9592 173.093C-16.204 174.857 -18.8166 175.181 -22.4357 175.128C-23.6481 175.115 -23.6481 175.115 -24.8849 175.101C-25.8073 175.083 -25.8073 175.083 -26.7482 175.066C-28.3097 180.632 -28.5218 185.908 -26.5607 191.378C-23.549 195.844 -21.1873 197.688 -15.9357 199.066C-11.1408 199.437 -7.5934 197.845 -3.74823 195.066C-1.83411 193.161 -0.345047 191.261 1.25177 189.066C0.84185 188.532 0.431923 187.998 0.00958252 187.448C-4.08011 181.793 -5.9108 176.982 -6.74823 170.066C-9.07085 170.066 -11.0078 171.935 -12.9592 173.093ZM57.2518 171.066C55.4134 176.484 54.7461 179.942 57.1541 185.238C59.5926 189.299 62.1117 191.456 66.5838 192.73C73.0197 193.738 76.7534 192.426 82.2518 189.066C81.954 188.474 81.6562 187.882 81.3494 187.273C78.6587 181.863 76.8688 177.113 76.2518 171.066C75.5505 171.149 74.8493 171.233 74.1268 171.32C68.2522 171.95 63.0779 172.055 57.2518 171.066ZM487.689 176.566C487.049 177.03 486.408 177.494 485.748 177.972C485.254 178.333 484.76 178.694 484.252 179.066C484.374 180.98 484.374 180.98 485.252 183.066C486.902 184.056 488.552 185.046 490.252 186.066C490.912 182.106 491.572 178.146 492.252 174.066C490.439 174.066 489.108 175.534 487.689 176.566ZM47.4393 177.566C42.2632 179.872 36.7999 179.312 31.2518 179.066C29.7138 183.68 29.3295 188.449 30.9705 193.105C33.0455 197.037 35.0863 199.526 39.2518 201.066C45.7899 202.071 50.2792 201.122 55.7557 197.452C57.5308 196.03 57.5308 196.03 58.2518 193.066C57.633 192.488 57.0143 191.911 56.3768 191.316C53.1221 187.869 52.0408 185.008 51.6268 180.316C51.552 179.516 51.4772 178.717 51.4002 177.894C51.3512 177.29 51.3022 176.687 51.2518 176.066C49.8676 175.987 49.8676 175.987 47.4393 177.566ZM308.252 182.066C305.281 187.877 305.499 194.868 307.252 201.066C307.881 201.08 308.51 201.094 309.158 201.109C315.069 201.438 318.849 202.528 323.658 206.007C325.211 207.25 325.211 207.25 327.252 207.066C327.434 206.402 327.615 205.738 327.803 205.054C329.623 198.659 331.427 193.77 336.252 189.066C331.345 182.086 327.519 177.006 318.752 175.441C313.958 176.297 311.372 178.397 308.252 182.066ZM94.2518 181.066C88.3716 187.969 83.6192 195.122 79.2518 203.066C82.7397 205.896 86.5733 207.936 90.5369 210.007C91.2344 210.375 91.9319 210.744 92.6506 211.123C94.8701 212.295 97.092 213.462 99.3143 214.628C101.54 215.799 103.765 216.97 105.989 218.144C107.37 218.872 108.752 219.599 110.136 220.324C112.939 221.801 115.612 223.306 118.252 225.066C119.242 225.066 120.232 225.066 121.252 225.066C122.888 222.976 122.888 222.976 124.314 220.316C124.821 219.434 125.327 218.552 125.849 217.644C127.031 215.471 128.166 213.288 129.252 211.066C119.348 201.775 119.348 201.775 109.193 192.761C105.884 189.871 102.674 186.871 99.451 183.886C97.2971 181.88 97.2971 181.88 94.2518 181.066ZM242.002 183.503C240.664 183.934 240.664 183.934 239.299 184.374C238.285 184.716 238.285 184.716 237.252 185.066C237.829 186.138 238.407 187.211 239.002 188.316C239.327 188.919 239.651 189.522 239.986 190.144C241.489 192.426 243.275 194.188 245.252 196.066C246.257 194.277 247.256 192.484 248.252 190.691C248.809 189.693 249.366 188.695 249.939 187.667C251.402 185.254 251.402 185.254 251.252 183.066C247.705 181.814 245.529 182.343 242.002 183.503ZM475.318 185.769C474.145 186.946 472.977 188.128 471.814 189.316C471.228 189.902 470.643 190.489 470.039 191.093C464.656 195.847 464.656 195.847 462.252 202.066C465.481 204.353 468.321 204.282 472.162 203.667C477.243 202.205 480.474 199.019 483.752 195.003C485.408 192.309 485.408 192.309 485.252 190.003C483.888 187.362 482.258 185.254 480.252 183.066C477.832 182.84 477.832 182.84 475.318 185.769ZM253.439 190.128C250.597 193.945 250.129 195.519 250.189 200.191C250.198 201.101 250.207 202.011 250.217 202.948C250.228 203.647 250.24 204.346 250.252 205.066C251.429 205.013 251.429 205.013 252.631 204.96C259.023 204.795 263.607 204.987 269.252 208.066C269.458 206.766 269.664 205.467 269.877 204.128C271.074 198.584 273.884 194.546 277.252 190.066C271.924 185.563 271.924 185.563 265.377 183.753C260.176 184.273 256.788 186.192 253.439 190.128ZM20.8143 188.066C15.9681 190.563 11.5934 190.46 6.25177 190.066C4.39183 193.786 4.81423 198.006 5.25177 202.066C6.51659 205.778 8.48969 208.391 11.4393 211.003C16.0462 212.744 20.6316 213.094 25.283 211.269C28.3115 209.601 31.0071 207.706 33.2518 205.066C32.1094 202.59 30.89 200.58 29.2518 198.378C26.8258 194.36 26.0256 190.647 25.2518 186.066C23.733 185.982 23.733 185.982 20.8143 188.066ZM231.252 187.066C219.919 191.4 209.353 196.168 203.092 207.089C202.056 209.168 202.056 209.168 202.252 212.066C205.075 210.752 207.391 209.288 209.791 207.308C210.45 206.768 211.108 206.228 211.787 205.672C212.477 205.101 213.166 204.529 213.877 203.941C215.306 202.767 216.736 201.594 218.166 200.421C218.861 199.849 219.556 199.277 220.272 198.688C224.234 195.441 228.244 192.255 232.252 189.066C231.922 188.406 231.592 187.746 231.252 187.066ZM-32.7482 189.066C-34.0903 192.166 -35.4204 195.272 -36.7482 198.378C-37.1298 199.259 -37.5114 200.14 -37.9045 201.048C-38.2654 201.896 -38.6264 202.743 -38.9982 203.616C-39.3334 204.397 -39.6685 205.177 -40.0139 205.981C-40.9144 208.169 -40.9144 208.169 -40.7482 211.066C-35.0159 211.524 -32.1953 210.722 -27.7482 207.066C-25.4255 204.456 -25.4255 204.456 -23.7482 202.066C-24.1581 201.546 -24.5681 201.027 -24.9904 200.491C-27.8246 196.823 -30.3465 193.551 -31.7482 189.066C-32.0782 189.066 -32.4082 189.066 -32.7482 189.066ZM280.252 195.066C276.03 199.006 274.564 202.326 273.318 207.917C273.235 210.615 273.622 211.91 275.252 214.066C277.471 214.658 277.471 214.658 280.002 214.628C284.432 214.884 287.361 215.828 291.252 218.066C291.912 218.066 292.572 218.066 293.252 218.066C293.483 217.402 293.713 216.738 293.951 216.054C295.978 210.567 297.738 206.827 302.252 203.066C300.473 198.7 297.736 195.224 293.392 193.198C288.203 191.569 285.005 192.196 280.252 195.066ZM334.252 198.066C331.438 203.631 330.827 208.911 331.252 215.066C331.582 216.056 331.912 217.046 332.252 218.066C334.385 218.912 334.385 218.912 336.939 219.441C342.921 221.058 345.906 223.72 350.252 228.066C350.711 227.09 351.17 226.114 351.642 225.109C352.262 223.823 352.881 222.538 353.502 221.253C353.802 220.611 354.102 219.968 354.412 219.306C356.194 215.647 357.72 213.167 361.252 211.066C360.316 204.896 357.299 199.687 352.545 195.597C345.852 191.367 339.19 191.631 334.252 198.066ZM229.127 197.816C228.509 198.304 227.891 198.793 227.254 199.296C220.764 204.435 214.302 209.608 207.845 214.788C205.649 216.549 203.45 218.308 201.252 220.066C201.574 224.253 202.747 227.198 204.803 230.788C205.259 231.591 205.716 232.395 206.187 233.222C206.538 233.83 206.89 234.439 207.252 235.066C221.639 228.849 235.978 222.538 250.252 216.066C246.379 207.791 242.572 199.815 236.252 193.066C233.837 193.066 231.026 196.305 229.127 197.816ZM-55.7482 195.066C-56.6081 201.649 -57.4619 208.232 -58.3117 214.817C-58.6014 217.055 -58.8924 219.294 -59.1848 221.532C-59.6053 224.754 -60.021 227.976 -60.4357 231.198C-60.567 232.196 -60.6982 233.193 -60.8334 234.22C-61.4271 238.868 -61.9143 243.368 -61.7482 248.066C-58.5521 243.271 -56.5173 237.928 -54.3056 232.626C-53.7294 231.261 -53.1407 229.902 -52.539 228.548C-49.1236 220.85 -46.5779 214.768 -49.7272 206.434C-50.2326 205.261 -50.2326 205.261 -50.7482 204.066C-51.3229 202.34 -51.8872 200.612 -52.4357 198.878C-52.8701 197.606 -53.3063 196.335 -53.7482 195.066C-54.4082 195.066 -55.0682 195.066 -55.7482 195.066ZM62.2518 197.066C61.8648 203.45 61.8433 207.027 66.2518 212.066C67.2418 212.396 68.2318 212.726 69.2518 213.066C71.8918 207.786 74.5318 202.506 77.2518 197.066C72.3018 197.066 67.3518 197.066 62.2518 197.066ZM-3.74823 200.003C-8.48241 202.777 -13.3528 203.066 -18.7482 203.066C-20.3618 206.293 -20.1975 209.567 -19.7482 213.066C-18.3281 217.099 -16.2145 219.643 -13.0607 222.503C-8.7848 224.52 -5.39686 224.9 -0.74823 224.066C3.18898 221.986 6.33382 219.433 9.25177 216.066C9.25177 215.406 9.25177 214.746 9.25177 214.066C8.48865 213.509 7.72552 212.952 6.93927 212.378C2.54599 208.598 1.1035 203.687 0.25177 198.066C-1.20343 197.975 -1.20343 197.975 -3.74823 200.003ZM485.252 200.066C484.427 200.829 483.602 201.592 482.752 202.378C478.192 206.192 472.951 207.698 467.252 209.066C467.55 216.606 468.599 221.283 474.002 226.878C477.405 228.674 480.412 228.818 484.252 229.066C484.912 228.736 485.572 228.406 486.252 228.066C486.478 224.15 486.68 220.233 486.877 216.316C486.973 214.649 486.973 214.649 487.072 212.948C487.124 211.879 487.175 210.809 487.228 209.706C487.281 208.722 487.333 207.737 487.387 206.723C487.246 203.956 486.677 202.411 485.252 200.066ZM53.3768 203.566C48.4814 205.742 43.5043 205.322 38.2518 205.066C36.9401 210.789 37.2335 214.924 40.2518 220.066C43.6991 223.779 46.8567 225.947 51.9393 226.378C56.7215 226.317 59.3657 224.809 63.2518 222.066C65.1551 219.98 65.1551 219.98 66.2518 218.066C65.4886 217.364 64.7255 216.663 63.9393 215.941C60.0344 211.763 58.0822 207.713 57.2518 202.066C55.8591 201.989 55.8591 201.989 53.3768 203.566ZM303.252 208.066C298.931 212.71 297.083 216.966 297.189 223.316C297.21 224.553 297.231 225.791 297.252 227.066C297.881 227.14 298.51 227.215 299.158 227.292C305.933 228.333 310.146 230.53 315.252 235.066C315.615 234.318 315.979 233.57 316.353 232.8C319.296 227.035 321.383 223 327.252 220.066C325.063 213.986 322.372 209.042 316.33 206.144C311.203 204.514 307.903 205.17 303.252 208.066ZM459.252 206.066C455.213 211.781 452.959 217.292 451.252 224.066C456.496 220.177 460.102 216.328 462.252 210.066C462.252 209.076 462.252 208.086 462.252 207.066C461.262 206.736 460.272 206.406 459.252 206.066ZM76.2518 208.066C74.4305 211.957 72.6213 215.855 70.8143 219.753C70.298 220.856 69.7817 221.959 69.2498 223.095C68.7567 224.162 68.2637 225.228 67.7557 226.327C67.3001 227.307 66.8445 228.286 66.3751 229.295C65.3178 231.903 64.6963 234.295 64.2518 237.066C74.9332 241.704 85.6356 246.281 96.4393 250.628C97.2936 250.974 98.1479 251.32 99.0281 251.677C99.8174 251.992 100.607 252.307 101.42 252.632C102.113 252.91 102.807 253.188 103.522 253.474C105.262 254.174 105.262 254.174 107.252 254.066C108.928 250.466 110.591 246.86 112.252 243.253C112.729 242.229 113.206 241.205 113.697 240.15C114.148 239.167 114.599 238.184 115.064 237.171C115.483 236.265 115.902 235.359 116.334 234.426C117.433 232.022 117.433 232.022 117.252 229.066C116.568 228.714 115.884 228.362 115.179 227.999C91.1561 215.622 91.1561 215.622 80.6307 209.359C78.4102 207.906 78.4102 207.906 76.2518 208.066ZM254.252 209.066C252.888 213.158 254.485 215.536 256.189 219.253C256.48 219.907 256.771 220.562 257.07 221.236C257.789 222.849 258.519 224.458 259.252 226.066C259.845 225.299 260.438 224.532 261.049 223.741C263.563 220.687 266.167 218.52 269.252 216.066C268.489 215.096 267.726 214.127 266.939 213.128C266.51 212.583 266.081 212.038 265.638 211.476C263.183 208.978 260.977 209.061 257.564 209.003C256.471 209.024 255.378 209.044 254.252 209.066ZM-28.6857 213.003C-32.6141 215.323 -36.21 215.652 -40.7092 215.89C-42.7419 215.845 -42.7419 215.845 -43.7482 217.066C-44.1597 222.312 -43.6332 225.642 -40.7482 230.066C-37.3227 233.455 -34.3971 235.939 -29.4982 236.316C-24.7962 236.002 -21.5976 234.978 -18.2639 231.53C-17.0441 230.081 -15.8902 228.577 -14.7482 227.066C-15.454 226.339 -15.454 226.339 -16.174 225.597C-20.4859 220.955 -22.9072 217.13 -24.7482 211.066C-26.1956 210.974 -26.1956 210.974 -28.6857 213.003ZM28.8143 214.003C24.6288 216.164 20.9228 216.607 16.2557 216.792C15.5944 216.882 14.9331 216.973 14.2518 217.066C12.4996 220.57 13.4414 224.334 14.2518 228.066C16.5096 232.42 18.6552 235.227 23.2518 237.066C27.9122 237.777 31.9062 237.578 36.1268 235.378C39.1831 233.116 40.645 231.468 42.2518 228.066C41.4886 227.529 40.7255 226.993 39.9393 226.441C35.3565 222.391 33.9623 218.034 33.2518 212.066C31.7393 211.984 31.7393 211.984 28.8143 214.003ZM362.252 216.066C361.468 216.953 360.684 217.839 359.877 218.753C359.436 219.252 358.995 219.751 358.541 220.265C355.591 224.386 354.955 228.397 354.627 233.378C354.515 234.981 354.515 234.981 354.4 236.616C354.351 237.425 354.302 238.233 354.252 239.066C355.265 239.447 355.265 239.447 356.299 239.835C357.191 240.179 358.083 240.524 359.002 240.878C360.324 241.383 360.324 241.383 361.674 241.898C364.182 243.034 366.125 244.331 368.252 246.066C368.082 230.065 368.082 230.065 362.252 216.066ZM266.638 223.905C263.865 227.975 262.622 231.029 263.252 236.066C263.976 236.164 264.701 236.262 265.447 236.363C271.396 237.283 275.553 238.256 280.252 242.066C280.615 241.462 280.979 240.859 281.353 240.238C284.496 235.241 287.055 231.911 292.252 229.066C290.917 224.395 288.419 221.472 284.252 219.066C277.529 216.663 271.314 218.573 266.638 223.905ZM462.252 220.066C461.478 221.148 461.478 221.148 460.689 222.253C458.264 225.052 456.877 225.844 453.627 227.378C450.334 229.12 448.601 230.274 447.439 233.878C446.729 238.696 448.481 242.209 451.252 246.066C454.035 248.999 455.783 249.938 459.689 251.003C463.918 251.077 465.756 250.421 469.252 248.066C473.832 243.592 475.578 239.189 477.252 233.066C474.269 231.541 471.434 230.126 468.252 229.066C467.189 226.753 467.189 226.753 466.252 224.066C465.6 222.725 464.938 221.389 464.252 220.066C463.592 220.066 462.932 220.066 462.252 220.066ZM241.381 224.398C240.621 224.749 239.862 225.101 239.08 225.464C236.653 226.591 234.233 227.734 231.814 228.878C229.397 230.008 226.979 231.134 224.56 232.26C223.056 232.962 221.553 233.666 220.052 234.374C219.365 234.697 218.677 235.021 217.969 235.354C217.37 235.637 216.772 235.92 216.155 236.211C213.883 237.231 211.564 238.141 209.252 239.066C210.902 244.346 212.552 249.626 214.252 255.066C224.617 253.663 234.857 251.905 245.127 249.941C246.605 249.66 248.082 249.38 249.56 249.101C253.125 248.426 256.688 247.747 260.252 247.066C259.195 240.68 258.007 234.559 255.877 228.441C255.477 227.252 255.078 226.064 254.666 224.839C253.58 221.962 253.58 221.962 251.388 221.31C247.707 220.889 244.627 222.845 241.381 224.398ZM326.252 226.066C321.345 231.087 319.382 235.487 319.127 242.503C319.168 243.349 319.209 244.194 319.252 245.066C321.015 245.375 321.015 245.375 322.814 245.691C328.65 247.121 332.123 250.937 336.252 255.066C336.78 254.052 336.78 254.052 337.318 253.019C340.599 247.091 343.013 243.811 349.252 241.066C348.629 234.53 346.021 230.835 341.439 226.253C336.001 222.521 331.492 221.791 326.252 226.066ZM3.68927 226.503C-0.763657 228.527 -4.90957 228.788 -9.74823 229.066C-11.028 233.719 -10.6425 236.816 -8.84198 241.167C-6.71819 244.854 -3.53805 247.171 0.25177 249.066C6.21957 249.683 9.65682 248.916 14.619 245.511C16.7534 243.622 17.6202 241.829 18.2518 239.066C17.4886 238.529 16.7255 237.993 15.9393 237.441C12.075 234.026 10.2207 230.104 9.25177 225.066C6.19815 224.821 6.19815 224.821 3.68927 226.503ZM-47.7482 228.066C-48.7218 230.245 -49.6924 232.426 -50.6584 234.609C-51.3262 236.114 -51.9994 237.617 -52.6818 239.116C-53.9538 241.959 -54.7482 243.912 -54.7482 247.066C-49.0116 247.525 -46.2445 246.642 -41.7482 243.066C-39.9543 241.442 -39.9543 241.442 -38.7482 240.066C-39.9907 236.338 -41.9557 234.792 -44.7482 232.066C-45.7764 230.754 -46.7891 229.429 -47.7482 228.066ZM60.2518 229.066C59.4087 229.311 59.4087 229.311 58.5486 229.562C56.1212 230.094 53.9829 230.165 51.5018 230.128C50.7025 230.119 49.9033 230.11 49.0799 230.101C48.4766 230.089 47.8733 230.078 47.2518 230.066C45.9675 234.736 46.4952 237.724 48.0721 242.136C49.6733 244.755 51.8017 246.258 54.2518 248.066C55.4487 245.278 56.6346 242.486 57.8143 239.691C58.1565 238.897 58.4988 238.103 58.8514 237.284C59.1704 236.524 59.4895 235.763 59.8182 234.98C60.2659 233.927 60.2659 233.927 60.7227 232.853C61.4965 230.986 61.4965 230.986 60.2518 229.066ZM286.939 238.816C284.888 242.767 284.556 245.651 284.252 250.066C285.448 250.313 286.644 250.561 287.877 250.816C293.395 252.193 297.325 255.023 301.252 259.066C301.706 258.269 301.706 258.269 302.17 257.456C305.328 252.131 308.146 248.101 314.252 246.066C312.734 240.269 310.254 236.343 305.439 232.691C297.365 230.384 292.27 232.477 286.939 238.816ZM482.252 234.066C482.776 238.683 483.327 240.166 486.252 244.066C486.252 240.436 486.252 236.806 486.252 233.066C484.177 232.917 484.177 232.917 482.252 234.066ZM-17.4982 236.941C-23.2403 239.812 -27.3477 240.472 -33.7482 240.066C-34.103 245.053 -34.3336 248.895 -32.0607 253.441C-28.9225 257.003 -26.4829 259.538 -21.8732 260.941C-16.5231 261.155 -12.9801 260.062 -8.81073 256.691C-6.33635 254.098 -6.33635 254.098 -6.74823 250.066C-7.73823 249.736 -8.72823 249.406 -9.74823 249.066C-11.4349 246.323 -12.3855 243.369 -13.3732 240.316C-13.7638 239.117 -13.7638 239.117 -14.1623 237.894C-14.3557 237.29 -14.549 236.687 -14.7482 236.066C-15.9253 235.991 -15.9253 235.991 -17.4982 236.941ZM37.8143 239.003C33.0696 241.44 28.5218 241.85 23.2518 242.066C22.71 248.703 23.3274 252.615 27.2518 258.066C30.4714 260.993 33.1431 261.959 37.5018 262.378C42.9208 261.927 46.4579 260.033 50.1893 255.941C51.4161 254.135 51.4161 254.135 51.2518 252.066C50.4886 251.488 49.7255 250.911 48.9393 250.316C44.6417 246.718 43.0554 242.53 42.2518 237.066C40.7393 236.984 40.7393 236.984 37.8143 239.003ZM264.252 241.066C264.534 243.338 264.828 245.608 265.127 247.878C265.289 249.143 265.452 250.407 265.619 251.71C266.047 255.183 266.047 255.183 268.252 258.066C269.139 257.282 270.026 256.498 270.939 255.691C273.559 253.494 275.969 252.128 279.252 251.066C277.187 246.018 275.136 243.556 270.252 241.066C268.253 241.002 266.25 240.993 264.252 241.066ZM61.2518 242.066C57.2918 252.296 53.3318 262.526 49.2518 273.066C51.2736 275.087 52.4041 275.664 55.0113 276.67C55.7823 276.97 56.5532 277.27 57.3476 277.579C58.1809 277.897 59.0143 278.215 59.8729 278.542C60.7286 278.872 61.5843 279.202 62.4659 279.543C64.2764 280.239 66.088 280.934 67.9005 281.625C70.6775 282.686 73.4501 283.758 76.2225 284.831C77.9807 285.506 79.7391 286.181 81.4979 286.855C82.7448 287.337 82.7448 287.337 84.017 287.83C84.7911 288.124 85.5653 288.418 86.3629 288.72C87.043 288.981 87.7231 289.241 88.4239 289.51C90.4117 290.211 90.4117 290.211 93.2518 290.066C94.9889 285.834 96.716 281.598 98.4337 277.358C99.0197 275.916 99.6086 274.474 100.2 273.034C101.049 270.967 101.888 268.896 102.724 266.823C102.992 266.178 103.26 265.532 103.535 264.866C104.167 263.288 104.717 261.679 105.252 260.066C103.983 257.527 103.11 257.409 100.514 256.37C99.7229 256.05 98.9318 255.729 98.1168 255.4C97.2564 255.06 96.396 254.72 95.5096 254.37C94.6303 254.018 93.751 253.666 92.845 253.303C90.9818 252.558 89.1171 251.817 87.2513 251.079C84.3923 249.947 81.5386 248.802 78.6854 247.655C76.8771 246.935 75.0685 246.215 73.2596 245.495C71.9751 244.98 71.9751 244.98 70.6646 244.454C69.8673 244.14 69.0699 243.826 68.2484 243.503C67.5474 243.224 66.8465 242.946 66.1244 242.66C64.1026 241.914 64.1026 241.914 61.2518 242.066ZM478.252 244.066C477.143 245.297 476.089 246.577 475.064 247.878C471.743 251.82 469.116 253.477 464.252 255.066C464.687 260.505 465.651 263.911 469.252 268.066C473.191 270.909 476.171 272.101 481.064 271.941C484.373 271.212 484.373 271.212 487.252 269.066C487.656 266.111 487.656 266.111 487.502 262.753C487.486 261.623 487.471 260.492 487.455 259.327C487.053 252.867 486.076 250.528 481.252 246.066C480.922 245.406 480.592 244.746 480.252 244.066C479.592 244.066 478.932 244.066 478.252 244.066ZM347.252 247.066C341.669 252.249 340.12 257.688 339.252 265.066C339.904 265.345 340.556 265.625 341.228 265.913C347.468 268.775 351.149 271.56 355.252 277.066C355.829 276.344 356.407 275.622 357.002 274.878C357.744 273.95 358.487 273.022 359.252 272.066C359.85 271.199 360.448 270.333 361.064 269.441C363.894 266.369 366.354 265.49 370.252 264.066C369.329 257.189 367.369 251.912 362.252 247.066C356.785 243.462 352.909 243.543 347.252 247.066ZM-43.1857 249.503C-47.9816 251.607 -52.5628 251.798 -57.7482 252.066C-58.0377 257.662 -57.9571 261.252 -54.7482 266.066C-51.0412 269.945 -48.0587 271.861 -42.7639 272.195C-38.5555 271.925 -35.195 270.505 -32.2014 267.527C-30.9888 266.089 -29.8602 264.582 -28.7482 263.066C-29.5114 262.509 -30.2745 261.952 -31.0607 261.378C-35.4567 257.596 -37.091 253.547 -38.7482 248.066C-40.9327 247.896 -40.9327 247.896 -43.1857 249.503ZM446.252 248.066C442.989 251.328 444.194 260.308 444.184 264.777C444.192 268.207 444.216 271.636 444.252 275.066C450.46 273.182 453.593 270.79 457.002 265.191C458.361 261.792 458.889 258.698 459.252 255.066C458.035 254.653 456.818 254.241 455.564 253.816C451.884 252.45 449.183 250.722 446.252 248.066ZM17.2518 249.066C16.5673 249.536 15.8828 250.007 15.1776 250.491C11.8563 252.278 9.1666 252.764 5.43927 253.253C3.69711 253.491 3.69711 253.491 1.91974 253.734C1.03931 253.843 0.158882 253.953 -0.74823 254.066C-1.03767 259.662 -0.9571 263.252 2.25177 268.066C5.90551 271.889 8.9287 273.914 14.1658 274.265C19.456 273.76 23.2537 271.164 26.7518 267.316C27.2468 266.573 27.7418 265.831 28.2518 265.066C27.5093 264.406 26.7668 263.746 26.0018 263.066C23.261 260.348 21.7403 257.419 20.1463 253.933C19.1835 251.811 19.1835 251.811 17.2518 249.066ZM306.939 256.816C304.888 260.767 304.556 263.651 304.252 268.066C304.832 268.201 305.412 268.336 306.01 268.476C312.324 270.216 315.518 272.721 319.252 278.066C321.064 276.315 322.494 274.715 323.939 272.628C326.93 269.314 330.205 267.824 334.252 266.066C333.644 259.683 331.335 255.864 326.502 251.691C318.53 247.705 312.587 250.1 306.939 256.816ZM247.556 253.562C246.727 253.715 245.898 253.868 245.044 254.025C243.297 254.349 241.55 254.674 239.804 255.001C237.13 255.503 234.455 255.997 231.779 256.489C230.08 256.805 228.381 257.121 226.681 257.437C225.881 257.585 225.081 257.733 224.257 257.885C221.176 258.465 218.23 259.073 215.252 260.066C215.912 267.326 216.572 274.586 217.252 282.066C223.463 282.089 229.674 282.108 235.886 282.121C237.999 282.126 240.113 282.132 242.227 282.141C245.262 282.153 248.298 282.159 251.334 282.163C252.281 282.168 253.228 282.174 254.203 282.179C255.084 282.179 255.965 282.179 256.872 282.179C257.647 282.181 258.422 282.184 259.221 282.186C261.456 282.142 261.456 282.142 264.252 281.066C263.945 276.794 263.631 272.524 263.314 268.253C263.184 266.431 263.184 266.431 263.051 264.572C262.92 262.826 262.92 262.826 262.787 261.046C262.708 259.973 262.63 258.899 262.549 257.793C262.339 254.975 262.339 254.975 261.252 252.066C256.541 251.841 252.161 252.694 247.556 253.562ZM271.252 261.066C269.831 263.997 268.93 266.884 268.252 270.066C268.843 270.236 269.435 270.406 270.045 270.581C275.979 272.401 279.832 274.646 284.252 279.066C284.58 278.607 284.909 278.148 285.248 277.675C289.221 272.55 293.186 270.236 299.252 268.066C297.342 262.938 295.52 259.694 291.252 256.066C283.338 253.428 276.816 254.6 271.252 261.066ZM-9.12323 262.503C-13.9518 264.584 -18.5406 264.797 -23.7482 265.066C-25.0269 270.761 -24.6658 273.983 -21.7482 279.066C-18.2453 282.68 -15.1814 284.917 -10.1232 285.441C-5.16323 285.386 -1.41292 283.335 2.25177 280.066C3.47904 277.989 3.47904 277.989 4.25177 276.066C3.48865 275.344 2.72552 274.622 1.93927 273.878C-1.78936 269.976 -3.87928 266.097 -5.74823 261.066C-7.06834 260.979 -7.06834 260.979 -9.12323 262.503ZM-62.7482 264.066C-65.0582 270.006 -67.3682 275.946 -69.7482 282.066C-61.1322 282.171 -61.1322 282.171 -54.7482 278.066C-53.5506 276.005 -53.5506 276.005 -52.7482 274.066C-53.2419 273.511 -53.7357 272.957 -54.2443 272.386C-54.885 271.661 -55.5257 270.937 -56.1857 270.191C-57.1429 269.112 -57.1429 269.112 -58.1193 268.011C-59.7482 266.066 -59.7482 266.066 -60.7482 264.066C-61.4082 264.066 -62.0682 264.066 -62.7482 264.066ZM375.252 265.066C374.804 271.683 376.082 275.809 379.002 281.691C384.554 293.482 388.439 305.267 388.314 318.441C388.305 319.686 388.296 320.931 388.287 322.214C388.275 323.155 388.264 324.096 388.252 325.066C387.262 324.736 386.272 324.406 385.252 324.066C385.165 322.952 385.079 321.838 384.99 320.691C383.994 309.391 382.695 296.731 376.252 287.066C375.641 297.907 376.559 306.868 380.06 317.163C381.374 321.108 381.851 324.933 382.252 329.066C380.33 328.355 380.33 328.355 378.252 327.066C377.424 324.902 377.424 324.902 377.002 322.441C376.852 321.623 376.703 320.806 376.549 319.964C376.451 319.338 376.353 318.711 376.252 318.066C375.922 318.066 375.592 318.066 375.252 318.066C374.191 325.571 374.191 325.571 376.869 332.363C379.228 334.461 381.656 336.268 384.252 338.066C385.246 338.813 386.24 339.561 387.263 340.331C391.41 344.041 391.41 344.041 396.252 346.066C396.999 317.533 390.849 289.779 376.252 265.066C375.922 265.066 375.592 265.066 375.252 265.066ZM461.252 266.066C460.383 267.473 459.532 268.892 458.689 270.316C455.517 275.217 452.622 276.936 447.252 279.066C449.354 285.483 451.517 290.327 457.127 294.441C461.705 295.787 465.681 295.632 469.939 293.503C474.254 290.75 476.573 287.02 477.713 282.058C477.961 280.403 478.116 278.734 478.252 277.066C477.599 276.858 476.947 276.651 476.275 276.437C470.498 274.4 466.979 272.404 463.31 267.456C462.961 266.997 462.612 266.538 462.252 266.066C461.922 266.066 461.592 266.066 461.252 266.066ZM39.1893 265.941C37.5631 266.215 37.5631 266.215 35.9041 266.495C33.3411 266.795 33.3411 266.795 32.2518 268.066C32.1889 274.036 33.3098 278.428 37.2518 283.066C38.2418 283.396 39.2318 283.726 40.2518 284.066C42.5618 278.126 44.8718 272.186 47.2518 266.066C44.3593 264.619 42.343 265.392 39.1893 265.941ZM368.252 269.066C362.843 274.638 358.252 279.894 358.252 288.066C359.879 288.684 361.507 289.303 363.135 289.921C365.252 291.066 365.252 291.066 371.252 296.066C371.252 287.486 371.252 278.906 371.252 270.066C370.262 269.736 369.272 269.406 368.252 269.066ZM325.885 276.745C323.668 280.386 322.663 283.851 322.252 288.066C323.469 288.458 324.686 288.849 325.939 289.253C331.583 291.367 334.837 295.213 338.252 300.066C338.809 299.158 339.366 298.251 339.939 297.316C343.641 292.113 347.118 289.777 353.252 288.066C352.355 281.249 350.504 276.642 345.252 272.066C337.969 267.98 331.024 270.431 325.885 276.745ZM-32.8107 273.503C-37.5185 276.007 -42.4834 276.066 -47.7482 276.066C-49.2968 280.43 -48.354 283.709 -46.842 287.909C-44.831 291.874 -41.7039 294.088 -37.7482 296.066C-32.1044 296.442 -28.6503 296.185 -23.7482 293.066C-21.434 291.004 -21.434 291.004 -19.7482 289.066C-20.5234 285.913 -20.5234 285.913 -23.1232 283.941C-26.4526 280.294 -27.4895 276.763 -28.7482 272.066C-30.8938 271.875 -30.8938 271.875 -32.8107 273.503ZM292.252 276.066C288.898 279.991 287.252 282.85 287.252 288.066C289.046 288.592 289.046 288.592 290.877 289.128C295.188 290.703 297.33 293.003 300.025 296.64C300.43 297.11 300.835 297.581 301.252 298.066C301.912 298.066 302.572 298.066 303.252 298.066C304.171 296.998 305.038 295.885 305.877 294.753C309.207 290.681 312.26 289.529 317.252 288.066C316.773 283.039 315.529 279.931 312.252 276.066C305.133 271.329 299.313 271.032 292.252 276.066ZM23.8143 275.503C19.0184 277.607 14.4372 277.798 9.25177 278.066C7.75973 283.491 8.63673 287.233 11.2518 292.066C15.0682 296.537 15.0682 296.537 20.4236 298.304C27.4047 298.505 30.9408 297.156 36.1268 292.316C36.498 291.903 36.8693 291.491 37.2518 291.066C36.5918 289.746 35.9318 288.426 35.2518 287.066C34.5918 287.066 33.9318 287.066 33.2518 287.066C31.7462 284.212 30.6196 281.384 29.6268 278.316C29.2362 277.117 29.2362 277.117 28.8377 275.894C28.6443 275.29 28.451 274.687 28.2518 274.066C26.0673 273.896 26.0673 273.896 23.8143 275.503ZM268.252 275.066C268.582 281.006 268.912 286.946 269.252 293.066C271.892 291.746 274.532 290.426 277.252 289.066C278.572 288.736 279.892 288.406 281.252 288.066C280.976 284.108 280.511 282.366 277.877 279.316C273.687 275.661 273.687 275.661 268.252 275.066ZM483.252 276.066C484.529 281.058 486.425 283.642 490.252 287.066C489.922 283.436 489.592 279.806 489.252 276.066C485.505 274.668 485.505 274.668 483.252 276.066ZM47.2518 278.066C45.3722 282.582 43.5027 287.103 41.6426 291.628C41.0081 293.167 40.3707 294.706 39.7305 296.243C38.8123 298.449 37.9041 300.659 36.9979 302.87C36.7083 303.56 36.4188 304.25 36.1205 304.96C35.4381 306.639 34.837 308.35 34.2518 310.066C35.5057 312.574 36.3307 312.709 38.8819 313.761C39.6497 314.082 40.4175 314.402 41.2086 314.732C42.044 315.071 42.8794 315.411 43.7401 315.761C44.5948 316.113 45.4495 316.466 46.3302 316.829C48.1421 317.573 49.9554 318.314 51.7701 319.052C54.5463 320.183 57.3162 321.329 60.0858 322.476C61.8452 323.197 63.6049 323.917 65.3651 324.636C66.1944 324.98 67.0236 325.323 67.8781 325.677C68.6553 325.991 69.4326 326.305 70.2335 326.629C70.9144 326.907 71.5953 327.185 72.2969 327.472C74.5491 328.259 74.5491 328.259 78.2518 328.066C79.9674 323.851 81.6762 319.633 83.3787 315.413C83.9589 313.978 84.5409 312.543 85.1248 311.109C85.9637 309.049 86.7959 306.985 87.6268 304.921C87.8893 304.28 88.1517 303.64 88.4222 302.98C89.5478 300.167 90.2518 298.128 90.2518 295.066C86.0867 293.353 81.9194 291.647 77.7518 289.941C76.5981 289.466 75.4444 288.992 74.2557 288.503C65.3166 284.849 56.3088 281.415 47.2518 278.066ZM-56.6232 284.503C-61.4699 286.648 -66.5149 286.791 -71.7482 287.066C-72.0377 292.663 -71.9328 296.234 -68.7482 301.066C-65.0539 304.865 -61.0218 306.765 -55.7482 307.066C-50.701 306.104 -47.0509 304.056 -43.7482 300.066C-44.9266 297.28 -46.206 295.551 -48.2482 293.253C-51.0188 290.058 -51.8462 287.166 -52.7482 283.066C-54.1349 282.991 -54.1349 282.991 -56.6232 284.503ZM-0.18573 287.003C-4.93036 289.44 -9.47824 289.85 -14.7482 290.066C-15.193 295.514 -15.1697 299.902 -12.0685 304.554C-9.11595 307.935 -6.06352 309.865 -1.5412 310.257C3.914 309.95 8.52885 308.176 12.2518 304.066C12.9692 301.976 12.9692 301.976 13.2518 300.066C12.5093 299.633 11.7668 299.199 11.0018 298.753C7.02343 294.865 5.86708 290.3 4.25177 285.066C2.73931 284.984 2.73931 284.984 -0.18573 287.003ZM481.252 286.066C480.9 286.669 480.548 287.272 480.185 287.894C476.797 293.378 474.124 296.365 468.252 299.066C469.057 304.903 471.859 308.274 476.252 312.066C479.613 313.855 482.517 314.498 486.244 313.57C489.047 312.447 491.115 311.202 493.252 309.066C493.349 306.296 493.349 306.296 493.002 303.191C492.914 302.141 492.826 301.092 492.736 300.011C492.277 297.22 491.784 295.42 490.252 293.066C488.285 291.684 486.283 290.351 484.252 289.066C483.231 288.087 482.225 287.091 481.252 286.066ZM233.439 286.566C231.861 286.614 230.282 286.662 228.703 286.71C224.886 286.826 221.069 286.946 217.252 287.066C216.922 296.966 216.592 306.866 216.252 317.066C220.695 317.355 225.138 317.641 229.582 317.92C231.087 318.016 232.592 318.113 234.096 318.211C243.835 318.848 253.488 319.206 263.252 319.066C264.127 308.037 264.366 297.127 264.252 286.066C253.97 285.984 243.715 286.241 233.439 286.566ZM445.252 291.066C443.588 294.393 444.109 298.099 444.127 301.753C444.123 302.544 444.119 303.335 444.115 304.15C444.123 308.893 444.463 313.388 445.252 318.066C448.239 319.38 449.501 318.989 452.689 318.003C456.483 316.18 459.275 313.81 461.252 310.066C462.2 306.761 462.801 303.471 463.252 300.066C462.273 299.845 462.273 299.845 461.275 299.62C454.816 297.963 451.66 296.025 447.252 291.066C446.592 291.066 445.932 291.066 445.252 291.066ZM274.252 296.066C270.993 299.324 270.019 301.606 269.252 306.066C269.843 306.357 270.435 306.648 271.045 306.948C276.344 309.697 279.757 312.219 283.252 317.066C283.853 316.486 283.853 316.486 284.467 315.894C289.002 311.739 293.529 309.272 299.252 307.066C297.737 301.301 296.629 297.266 291.252 294.066C284.641 290.841 280.149 292.336 274.252 296.066ZM307.877 298.378C305.927 301.604 305.113 304.405 304.252 308.066C305.469 308.437 306.686 308.808 307.939 309.191C312.534 310.89 314.411 313.139 317.252 317.066C317.912 317.726 318.572 318.386 319.252 319.066C319.853 318.36 319.853 318.36 320.467 317.64C324.924 312.758 328.839 310.592 335.252 309.066C334.116 302.59 332.208 298.483 327.252 294.066C319.987 290.087 313.424 292.976 307.877 298.378ZM346.252 296.066C342.444 299.911 340.651 303.606 340.252 309.066C340.771 309.285 341.291 309.504 341.826 309.73C347.043 312.102 349.852 314.466 353.252 319.066C353.912 319.726 354.572 320.386 355.252 321.066C355.58 320.607 355.909 320.148 356.248 319.675C360.221 314.55 364.186 312.236 370.252 310.066C370.136 303.568 368.588 300.394 364.096 295.698C358.007 290.306 352.461 291.938 346.252 296.066ZM-24.1857 298.066C-29.0319 300.563 -33.4066 300.46 -38.7482 300.066C-39.103 305.053 -39.3336 308.895 -37.0607 313.441C-33.0764 317.963 -30.1497 320.714 -23.8732 321.238C-18.5737 320.809 -14.2932 317.862 -10.7482 314.066C-11.8294 311.633 -12.9073 309.886 -14.6857 307.878C-17.3814 304.202 -18.4986 300.411 -19.7482 296.066C-21.267 295.982 -21.267 295.982 -24.1857 298.066ZM-87.7482 298.066C-87.7482 302.026 -87.7482 305.986 -87.7482 310.066C-84.3853 306.48 -84.3853 306.48 -84.9357 302.941C-85.5243 299.964 -85.5243 299.964 -87.7482 298.066ZM-76.7482 298.066C-77.9194 300.689 -79.0853 303.314 -80.2482 305.941C-80.5821 306.687 -80.916 307.433 -81.2599 308.202C-81.5758 308.918 -81.8916 309.633 -82.217 310.37C-82.6569 311.36 -82.6569 311.36 -83.1057 312.37C-83.8663 314.075 -83.8663 314.075 -83.7482 316.066C-77.6906 316.483 -74.558 316.188 -69.7482 312.066C-68.5884 309.997 -68.5884 309.997 -67.7482 308.066C-68.6841 306.96 -69.622 305.856 -70.5607 304.753C-71.0828 304.138 -71.6049 303.523 -72.1428 302.89C-73.6204 301.211 -75.1597 299.639 -76.7482 298.066ZM23.5643 302.566C22.5704 302.658 21.5765 302.751 20.5526 302.847C19.4137 302.955 19.4137 302.955 18.2518 303.066C17.8887 308.169 17.669 311.94 20.0643 316.566C22.1868 319.211 22.1868 319.211 25.2518 321.066C26.4227 318.276 27.5887 315.484 28.7518 312.691C29.0856 311.897 29.4195 311.103 29.7635 310.284C30.0793 309.524 30.3951 308.763 30.7205 307.98C31.0138 307.278 31.307 306.576 31.6092 305.853C32.3645 304.069 32.3645 304.069 32.2518 302.066C29.3158 302.066 26.4862 302.291 23.5643 302.566ZM-44.7482 307.066C-45.4907 307.54 -46.2332 308.014 -46.9982 308.503C-51.8528 310.989 -57.403 310.815 -62.7482 311.066C-63.0377 316.662 -62.9571 320.252 -59.7482 325.066C-55.7688 329.329 -52.766 330.859 -46.924 331.202C-42.4597 330.922 -39.6542 328.852 -36.3732 326.003C-34.534 324.232 -34.534 324.232 -34.7482 322.066C-35.5114 321.323 -36.2745 320.581 -37.0607 319.816C-39.8071 317.005 -41.1574 314.626 -42.7482 311.066C-43.1401 310.282 -43.532 309.498 -43.9357 308.691C-44.2039 308.154 -44.472 307.618 -44.7482 307.066ZM466.252 309.066C465.984 309.657 465.716 310.249 465.439 310.859C462.416 316.954 459.345 320.057 453.252 323.066C455.472 329.356 458.102 332.991 464.252 336.066C469.483 336.509 473.236 336.35 477.709 333.464C481.569 329.965 483.138 325.662 483.502 320.566C483.419 319.741 483.337 318.916 483.252 318.066C482.056 317.818 480.859 317.571 479.627 317.316C474.109 315.939 470.179 313.108 466.252 309.066ZM12.2518 310.066C11.468 310.54 10.6843 311.014 9.87677 311.503C4.81377 313.685 -0.262871 314.066 -5.74823 314.066C-6.33951 320.478 -6.07703 325.117 -2.22479 330.433C0.600471 333.557 3.15812 334.947 7.38849 335.187C12.9013 334.897 17.4819 333.228 21.2518 329.066C22.1736 327.099 22.1736 327.099 22.2518 325.066C20.6081 323.376 18.9375 321.713 17.2518 320.066C16.1804 317.764 15.1719 315.432 14.2518 313.066C13.5918 312.076 12.9318 311.086 12.2518 310.066ZM268.252 311.066C267.757 321.461 267.757 321.461 267.252 332.066C271.707 329.591 271.707 329.591 276.252 327.066C277.572 326.736 278.892 326.406 280.252 326.066C279.775 321.056 278.396 317.996 275.252 314.066C272.043 311.687 272.043 311.687 268.252 311.066ZM289.439 317.941C287.386 320.873 286.561 322.556 286.252 326.066C287.54 326.904 288.832 327.737 290.127 328.566C291.206 329.262 291.206 329.262 292.306 329.972C294.17 331.229 294.17 331.229 296.252 331.066C297.252 333.066 298.252 335.066 299.252 337.066C300.572 336.406 301.892 335.746 303.252 335.066C303.252 334.406 303.252 333.746 303.252 333.066C306.106 331.56 308.933 330.433 312.002 329.441C312.801 329.18 313.6 328.92 314.424 328.652C315.027 328.458 315.63 328.265 316.252 328.066C315.85 322.579 313.955 319.008 310.252 315.066C302.725 310.101 295.447 311.243 289.439 317.941ZM326.252 318.066C322.635 322.639 322.635 322.639 321.252 328.066C321.771 328.285 322.291 328.504 322.826 328.73C328.043 331.102 330.852 333.466 334.252 338.066C334.912 338.726 335.572 339.386 336.252 340.066C336.747 339.323 337.242 338.581 337.752 337.816C340.875 334.38 344.078 332.933 348.252 331.066C349.588 330.405 350.922 329.739 352.252 329.066C349.546 320.821 349.546 320.821 343.396 314.956C337.146 312.361 331.193 313.573 326.252 318.066ZM489.252 317.066C489.653 322.685 491.432 325.152 495.252 329.066C495.912 329.066 496.572 329.066 497.252 329.066C496.592 324.446 495.932 319.826 495.252 315.066C492.789 315.066 491.4 315.92 489.252 317.066ZM361.252 320.066C358.999 322.779 357.124 325.482 357.42 329.148C358.521 331.685 359.622 332.099 362.127 333.191C364.737 334.356 366.845 335.461 369.252 337.066C370.429 332.441 370.366 327.987 370.314 323.253C370.31 322.465 370.305 321.677 370.301 320.864C370.289 318.931 370.271 316.999 370.252 315.066C367.127 315.066 363.607 318.24 361.252 320.066ZM-71.1232 318.503C-75.3396 320.321 -78.9116 320.597 -83.4553 320.855C-85.7116 320.816 -85.7116 320.816 -86.7482 322.066C-87.1347 327.585 -85.9741 331.365 -82.3732 335.566C-79.659 338.476 -77.7568 339.832 -73.6974 340.304C-68.195 340.484 -65.0493 339.842 -60.7482 336.066C-59.3595 333.965 -59.3595 333.965 -58.7482 332.066C-59.4907 331.447 -60.2332 330.828 -60.9982 330.191C-64.684 326.568 -66.0834 321.856 -67.7482 317.066C-69.0683 316.979 -69.0683 316.979 -71.1232 318.503ZM-14.2482 322.503C-19.316 324.766 -24.2437 325.066 -29.7482 325.066C-30.103 330.053 -30.3336 333.895 -28.0607 338.441C-24.7005 342.255 -22.3496 344.621 -17.3732 346.003C-11.56 346.103 -8.05646 344.263 -3.81073 340.378C-3.1301 339.615 -2.44948 338.852 -1.74823 338.066C-2.14655 337.593 -2.54487 337.119 -2.95526 336.632C-6.90533 331.702 -9.1386 327.165 -10.7482 321.066C-12.0844 320.983 -12.0844 320.983 -14.2482 322.503ZM446.252 323.066C446.252 325.706 446.252 328.346 446.252 331.066C448.016 327.978 448.252 326.833 448.252 323.066C447.592 323.066 446.932 323.066 446.252 323.066Z" fill="#D69B65"/>
</svg>
