<svg width="102" height="102" viewBox="0 0 102 102" fill="none" xmlns="http://www.w3.org/2000/svg">
<g clip-path="url(#clip0_4656_280)">
<g filter="url(#filter0_d_4656_280)">
<path d="M50.6301 91.9364C26.8466 91.9364 7.49756 72.5871 7.49756 48.8039C7.49756 25.0205 26.8466 5.67139 50.6301 5.67139C74.4133 5.67139 93.7626 25.0205 93.7626 48.8039C93.7626 72.5871 74.4133 91.9364 50.6301 91.9364ZM50.6301 8.10139C28.1866 8.10139 9.92756 26.3604 9.92756 48.8039C9.92756 71.2474 28.1866 89.5064 50.6301 89.5064C73.0735 89.5064 91.3326 71.2474 91.3326 48.8039C91.3326 26.3604 73.0735 8.10139 50.6301 8.10139Z" fill="#D69B65"/>
</g>
<path d="M21.117 88.9142L21.6077 88.4235C21.7972 88.234 21.892 87.9851 21.892 87.736C21.892 87.4869 21.7972 87.2381 21.6077 87.0485L21.2857 86.7266C20.9066 86.3475 20.2898 86.3475 19.9107 86.7266L19.4215 87.2158L18.1702 85.9648L18.7518 85.3832C18.916 85.2191 18.9979 85.0037 18.9979 84.7882C18.9979 84.5726 18.9156 84.3571 18.7518 84.1929L18.5323 83.9736C18.4497 83.8907 18.3523 83.8286 18.2466 83.7869C18.3077 83.7277 18.3462 83.6451 18.3462 83.5538C18.3462 83.4805 18.3207 83.4133 18.2792 83.3588H18.3924C18.5712 83.3588 18.7176 83.2124 18.7176 83.0336C18.7176 82.8548 18.5712 82.7083 18.3924 82.7083H18.0455V81.9828C18.2128 81.97 18.3462 81.8305 18.3462 81.6602C18.3462 81.4897 18.213 81.3504 18.0455 81.3376V77.3542H17.8286V81.3384C17.6654 81.3552 17.5364 81.4927 17.5364 81.6602C17.5364 81.8277 17.6654 81.9652 17.8286 81.982V82.7086H17.4817C17.3029 82.7086 17.1565 82.855 17.1565 83.0338C17.1565 83.2126 17.3029 83.359 17.4817 83.359H17.6034C17.5621 83.4137 17.5364 83.4807 17.5364 83.554C17.5364 83.6443 17.5739 83.7261 17.6336 83.785C17.5257 83.8268 17.4261 83.8893 17.3416 83.9738L17.1221 84.1931C16.7936 84.5215 16.7938 85.0555 17.1221 85.3834L17.7037 85.965L16.4524 87.216L15.9632 86.7268C15.5841 86.3477 14.9673 86.3477 14.5882 86.7268L14.2662 87.0487C13.8872 87.4278 13.8872 88.0448 14.2662 88.4237L14.7569 88.9144L14.2964 89.3749C13.9001 89.7711 13.9001 90.4137 14.2964 90.81L14.5882 91.1018C14.7984 91.312 15.0878 91.4142 15.3891 91.3802C15.6224 91.3539 15.834 91.231 16 91.0649L16.4524 90.6125L17.6646 91.8247L17.0917 92.3978C16.7738 92.7155 16.7738 93.2703 17.0917 93.5881L17.311 93.8076C17.6393 94.1356 18.1733 94.1356 18.5013 93.8076L18.7208 93.5881C18.8851 93.4238 18.9669 93.2084 18.9669 92.9929C18.9669 92.7775 18.8849 92.5618 18.7208 92.3978L18.1783 91.8551L19.4211 90.6123L19.9103 91.1016C20.094 91.2852 20.3382 91.3865 20.5978 91.3865C20.8574 91.3865 21.1016 91.2852 21.2853 91.1016L21.6073 90.7796C21.7968 90.5901 21.8916 90.3412 21.8916 90.0921C21.8916 89.843 21.7968 89.5942 21.6073 89.4046L21.117 88.9142ZM17.6881 88.9142L16.4543 90.148L15.222 88.9156L16.4559 87.6818L17.6881 88.9142ZM17.9372 89.163L19.171 90.3969L17.9372 91.6307L16.7033 90.3969L17.9372 89.163ZM19.4199 90.1478L18.186 88.914L19.4199 87.6801L20.6537 88.914L19.4199 90.1478ZM17.9372 88.6651L16.7047 87.4327L17.9384 86.1988L19.1708 87.4313L17.9372 88.6651ZM20.1422 86.958C20.3935 86.7067 20.8025 86.7067 21.054 86.958L21.376 87.28C21.6273 87.5315 21.6273 87.9403 21.376 88.1918L20.8854 88.6825L19.6515 87.4487L20.1422 86.958ZM17.3542 84.4241L17.5737 84.2048C17.6709 84.1076 17.8001 84.0542 17.9372 84.0542C18.0745 84.0542 18.2037 84.1076 18.3007 84.2048L18.5202 84.4241C18.7206 84.6246 18.7204 84.9506 18.5202 85.1511L17.9372 85.7341L17.3542 85.1511C17.1537 84.9508 17.1533 84.6248 17.3542 84.4241ZM14.4981 88.1918C14.2468 87.9403 14.2468 87.5315 14.4981 87.28L14.8201 86.958C15.0714 86.7067 15.4804 86.7067 15.7317 86.958L16.2224 87.4487L14.9886 88.6825L14.4981 88.1918ZM15.7319 90.8701C15.6102 90.9918 15.4482 91.059 15.2761 91.059C15.104 91.059 14.942 90.992 14.8203 90.8701L14.4983 90.5481C14.3728 90.4224 14.3098 90.2573 14.3098 90.0923C14.3098 89.9273 14.3728 89.7622 14.4983 89.6365L14.989 89.1458L16.2228 90.3797L15.7319 90.8701ZM18.4896 93.3564L18.2701 93.5759C18.0696 93.7762 17.7436 93.7762 17.5431 93.5759L17.3238 93.3564C17.2266 93.2592 17.1733 93.1302 17.1733 92.9929C17.1733 92.8556 17.2268 92.7266 17.3238 92.6294L17.9068 92.0464L18.4898 92.6294C18.6901 92.8299 18.6901 93.1559 18.4896 93.3564ZM21.376 90.5481L21.054 90.8701C20.9323 90.9918 20.7703 91.059 20.5982 91.059C20.4259 91.059 20.2641 90.992 20.1424 90.8701L19.6529 90.3809L20.8868 89.147L21.376 89.6363C21.6271 89.8876 21.6273 90.2964 21.376 90.5481Z" fill="#D69B65"/>
<path d="M18.0381 95.4345V95.1504H18.385C18.5638 95.1504 18.7102 95.004 18.7102 94.8252C18.7102 94.6464 18.5638 94.5 18.385 94.5H17.4746C17.2958 94.5 17.1493 94.6464 17.1493 94.8252C17.1493 95.004 17.2958 95.1504 17.4746 95.1504H17.8214V95.4345H17.4776L17.0054 98.3987C17.0054 98.3987 17.4823 98.7023 18.0894 98.6589C18.6962 98.6156 18.9131 98.3121 18.9131 98.3121L18.3621 95.4347H18.0381V95.4345Z" fill="#D69B65"/>
<path d="M85.3092 88.9142L85.7999 88.4235C85.9894 88.234 86.0842 87.9851 86.0842 87.736C86.0842 87.4869 85.9894 87.2381 85.7999 87.0485L85.4777 86.7266C85.0986 86.3475 84.4818 86.3475 84.1027 86.7266L83.6135 87.2158L82.3622 85.9648L82.9438 85.3832C83.1078 85.2191 83.1898 85.0037 83.1898 84.7882C83.1898 84.5726 83.1076 84.3571 82.9438 84.1929L82.7243 83.9736C82.6417 83.8907 82.5443 83.8286 82.4386 83.7869C82.4997 83.7277 82.5382 83.6451 82.5382 83.5538C82.5382 83.4805 82.5127 83.4133 82.4712 83.3588H82.5844C82.7632 83.3588 82.9096 83.2124 82.9096 83.0336C82.9096 82.8548 82.7632 82.7083 82.5844 82.7083H82.2375V81.9828C82.4047 81.97 82.5382 81.8305 82.5382 81.6602C82.5382 81.4897 82.4049 81.3504 82.2375 81.3376V77.3542H82.0208V81.3384C81.8576 81.3552 81.7286 81.4927 81.7286 81.6602C81.7286 81.8277 81.8576 81.9652 82.0208 81.982V82.7086H81.6739C81.4951 82.7086 81.3487 82.855 81.3487 83.0338C81.3487 83.2126 81.4951 83.359 81.6739 83.359H81.7956C81.7543 83.4137 81.7286 83.4807 81.7286 83.554C81.7286 83.6443 81.7661 83.7261 81.8258 83.785C81.7179 83.8268 81.6182 83.8893 81.534 83.9738L81.3145 84.1931C80.986 84.5215 80.9862 85.0555 81.3145 85.3834L81.8961 85.965L80.6448 87.216L80.1556 86.7268C79.7765 86.3477 79.1597 86.3477 78.7806 86.7268L78.4586 87.0487C78.0795 87.4278 78.0795 88.0448 78.4586 88.4237L78.9493 88.9144L78.4888 89.3749C78.0925 89.7711 78.0925 90.4137 78.4888 90.81L78.7806 91.1018C78.9908 91.312 79.2804 91.4142 79.5815 91.3802C79.8148 91.3539 80.0266 91.231 80.1924 91.0649L80.6448 90.6125L81.857 91.8247L81.2841 92.3978C80.9662 92.7155 80.9662 93.2703 81.2841 93.5881L81.5034 93.8076C81.8317 94.1356 82.3657 94.1356 82.6937 93.8076L82.9132 93.5881C83.0775 93.4238 83.1595 93.2084 83.1595 92.9929C83.1595 92.7775 83.0775 92.5618 82.9132 92.3978L82.3707 91.8551L83.6135 90.6123L84.1027 91.1016C84.2864 91.2852 84.5306 91.3865 84.7902 91.3865C85.0498 91.3865 85.294 91.2852 85.4777 91.1016L85.7999 90.7796C85.9894 90.5901 86.0842 90.3412 86.0842 90.0921C86.0842 89.843 85.9894 89.5942 85.7999 89.4046L85.3092 88.9142ZM81.8803 88.9142L80.6464 90.148L79.4142 88.9156L80.6481 87.6818L81.8803 88.9142ZM82.1293 89.163L83.3632 90.3969L82.1293 91.6307L80.8955 90.3969L82.1293 89.163ZM83.6123 90.1478L82.3784 88.914L83.6123 87.6801L84.8461 88.914L83.6123 90.1478ZM82.1293 88.6651L80.8969 87.4327L82.1306 86.1988L83.363 87.4313L82.1293 88.6651ZM84.3344 86.958C84.5857 86.7067 84.9947 86.7067 85.2462 86.958L85.5684 87.28C85.8197 87.5315 85.8197 87.9403 85.5684 88.1918L85.0777 88.6825L83.8439 87.4487L84.3344 86.958ZM81.5463 84.4241L81.7659 84.2048C81.8631 84.1076 81.9923 84.0542 82.1293 84.0542C82.2666 84.0542 82.3956 84.1076 82.4928 84.2048L82.7123 84.4241C82.9128 84.6246 82.9124 84.9506 82.7123 85.1511L82.1293 85.7341L81.5463 85.1511C81.3459 84.9508 81.3457 84.6248 81.5463 84.4241ZM78.6905 88.1918C78.4392 87.9403 78.4392 87.5315 78.6905 87.28L79.0125 86.958C79.2638 86.7067 79.6728 86.7067 79.9243 86.958L80.415 87.4487L79.1812 88.6825L78.6905 88.1918ZM79.9243 90.8701C79.8024 90.9918 79.6406 91.059 79.4685 91.059C79.2964 91.059 79.1344 90.992 79.0127 90.8701L78.6907 90.5481C78.5651 90.4224 78.5022 90.2573 78.5022 90.0923C78.5022 89.9273 78.5651 89.7622 78.6907 89.6365L79.1813 89.1458L80.4152 90.3797L79.9243 90.8701ZM82.6818 93.3564L82.4623 93.5759C82.2618 93.7762 81.9358 93.7762 81.7353 93.5759L81.516 93.3564C81.4188 93.2592 81.3653 93.1302 81.3653 92.9929C81.3653 92.8556 81.4188 92.7266 81.516 92.6294L82.0988 92.0464L82.6818 92.6294C82.8822 92.8299 82.8822 93.1559 82.6818 93.3564ZM85.5682 90.5481L85.246 90.8701C85.1243 90.9918 84.9623 91.059 84.7902 91.059C84.6181 91.059 84.4561 90.992 84.3344 90.8701L83.8453 90.3809L85.0792 89.147L85.5684 89.6363C85.8195 89.8876 85.8197 90.2964 85.5682 90.5481Z" fill="#D69B65"/>
<path d="M82.2447 95.4345V95.1504H82.5915C82.7704 95.1504 82.9168 95.004 82.9168 94.8252C82.9168 94.6464 82.7704 94.5 82.5915 94.5H81.6811C81.5023 94.5 81.3559 94.6464 81.3559 94.8252C81.3559 95.004 81.5023 95.1504 81.6811 95.1504H82.028V95.4345H81.6841L81.2119 98.3987C81.2119 98.3987 81.6888 98.7023 82.2957 98.6589C82.9026 98.6156 83.1195 98.3121 83.1195 98.3121L82.5685 95.4347H82.2447V95.4345Z" fill="#D69B65"/>
<path d="M43.898 9.02874C44.2054 8.97811 44.51 8.90967 44.8196 8.87403L44.6803 7.93261C44.086 8.01847 43.4967 8.13794 42.9048 8.24L43.2401 9.96449L44.6135 9.71866C45.0728 9.64636 45.5355 9.59716 45.9964 9.53539L45.7872 7.79106C46.0923 7.75684 46.3957 7.70398 46.7023 7.68535L47.6206 7.61488L47.7498 9.36691C48.6501 9.27781 49.5549 9.28227 50.4582 9.25351L50.4514 7.49683L48.7639 7.53955L48.8071 8.49009L49.631 8.46903" stroke="#D69B65" stroke-width="0.30375" stroke-miterlimit="10"/>
<path d="M49.6836 10.8603L48.806 10.8822L48.8517 11.8327L50.4618 11.792L50.4549 10.0352C49.5441 10.0623 48.632 10.0627 47.7244 10.1524L47.8573 11.9042L47.0363 11.9664C46.7629 11.9897 46.4918 12.0332 46.2194 12.0652L46.0068 10.3213C45.5682 10.3812 45.1269 10.4246 44.6904 10.4977L43.3828 10.7318L43.7182 12.4562C44.2135 12.37 44.7074 12.275 45.2035 12.194L45.0613 11.253C44.806 11.2905 44.5531 11.3421 44.2987 11.3856" stroke="#D69B65" stroke-width="0.30375" stroke-miterlimit="10"/>
<path d="M36.471 11.0846C36.7622 10.9738 37.0473 10.8469 37.3448 10.7533L37.023 9.85786C36.7363 9.94838 36.4607 10.0689 36.1802 10.1764L35.3423 10.5075L36.0101 12.1323L37.3078 11.6198C37.7456 11.4637 38.1878 11.3191 38.6276 11.1684L38.0801 9.49924C38.6582 9.28985 39.2544 9.13818 39.8443 8.96646L40.3145 10.6592L40.9665 10.4737L41.6267 10.3194C42.0675 10.2193 42.5065 10.1112 42.9488 10.0182L42.5999 8.29639C42.0493 8.41363 41.5017 8.54688 40.9528 8.67223L41.181 9.59603L41.9845 9.40993" stroke="#D69B65" stroke-width="0.30375" stroke-miterlimit="10"/>
<path d="M42.4997 11.7433L41.6448 11.941L41.8756 12.8642C42.3987 12.7459 42.9197 12.6183 43.4438 12.5055L43.0949 10.7837C42.6492 10.8777 42.2067 10.9868 41.7626 11.0874C41.5411 11.1407 41.3177 11.1859 41.098 11.2456L40.4409 11.4327L40.9146 13.1244C40.3873 13.2753 39.8567 13.4154 39.3411 13.6033L38.7901 11.9351C38.3718 12.0797 37.9496 12.2144 37.534 12.3666L36.2986 12.8547L36.9664 14.4795C37.4352 14.2983 37.8991 14.1035 38.3716 13.9316L38.0472 13.0369C37.8024 13.1185 37.5658 13.2232 37.3249 13.3149" stroke="#D69B65" stroke-width="0.30375" stroke-miterlimit="10"/>
<path d="M29.5872 14.5594C29.8512 14.3943 30.1072 14.2161 30.3781 14.0622L29.8873 13.247C29.3729 13.5564 28.8736 13.8907 28.3667 14.2123L29.3391 15.6753L30.5132 14.922C30.9085 14.6774 31.3169 14.4545 31.7183 14.2196L30.854 12.6901C31.3805 12.3734 31.9325 12.103 32.4785 11.8216L33.2719 13.3889L33.8751 13.0797C34.0788 12.9821 34.2862 12.892 34.4915 12.7976C34.9042 12.6133 35.3129 12.42 35.7288 12.2434L35.048 10.6238C34.5306 10.8455 34.0205 11.0847 33.5068 11.3153L33.9122 12.1763L34.6634 11.8361" stroke="#D69B65" stroke-width="0.30375" stroke-miterlimit="10"/>
<path d="M35.6238 14.0223L34.8244 14.3842L35.2322 15.244C35.7221 15.0255 36.2074 14.7971 36.6999 14.5847L36.0191 12.9651C35.5999 13.1435 35.1881 13.3383 34.7721 13.524C34.5656 13.62 34.3548 13.707 34.1519 13.8105L33.5438 14.1224L34.3404 15.6883L33.608 16.0635C33.3621 16.1856 33.1305 16.3337 32.8909 16.4673L32.0236 14.9395C31.6421 15.164 31.2513 15.3734 30.877 15.6099L29.759 16.3274L30.7314 17.7905L32.0029 16.9776L31.5098 16.1638C31.2895 16.298 31.0747 16.4414 30.8566 16.5797" stroke="#D69B65" stroke-width="0.30375" stroke-miterlimit="10"/>
<path d="M23.4971 19.3091L24.1743 18.6655L23.5346 17.961L22.2305 19.2026L23.4677 20.4496L24.4772 19.4869C24.6426 19.3235 24.8176 19.1704 24.9946 19.0195L25.5217 18.5627L24.377 17.23C24.6107 17.031 24.8375 16.8238 25.077 16.632L25.8007 16.0624L26.8839 17.4455C27.5827 16.8712 28.3365 16.37 29.0689 15.8409L28.0849 14.3855L26.709 15.364L27.2743 16.1294L27.9458 15.6513" stroke="#D69B65" stroke-width="0.30375" stroke-miterlimit="10"/>
<path d="M29.3245 17.6042L28.6091 18.1129L29.1765 18.8767L30.4883 17.9432L29.5043 16.4878C28.7648 17.02 28.0078 17.5288 27.3031 18.1076L28.3891 19.4886L27.7415 19.9971L27.1185 20.5354L25.9711 19.2051L25.4691 19.6401L25.2182 19.8578L24.9778 20.087L24.0164 21.0037L25.2536 22.2509L26.3463 21.2091L25.7046 20.5064L25.1441 21.0412" stroke="#D69B65" stroke-width="0.30375" stroke-miterlimit="10"/>
<path d="M18.465 25.1426L19.0069 24.3814L18.2431 23.814L17.1992 25.2815L18.6546 26.2654C19.1971 25.5103 19.7171 24.7382 20.3076 24.0189L18.9265 22.9329L19.4962 22.2094L20.0972 21.5117L21.4274 22.6591L21.8713 22.1468L22.0934 21.8908L22.3273 21.6454L23.2629 20.6643L22.0157 19.427L20.8509 20.6489L21.5536 21.2904L22.1222 20.6936" stroke="#D69B65" stroke-width="0.30375" stroke-miterlimit="10"/>
<path d="M23.8477 22.3425L23.2424 22.9784L23.9469 23.6181L25.0576 22.4519L23.8104 21.2146L22.8672 22.2038C22.7068 22.3658 22.557 22.5373 22.4091 22.7109L21.9616 23.2274L23.2943 24.3722C23.1165 24.5812 22.9302 24.7833 22.7588 24.9977L22.2502 25.6453L20.8671 24.5621C20.3041 25.2466 19.8137 25.9855 19.2947 26.703L20.75 27.6869L21.6253 26.4571L20.8598 25.8917L20.4109 26.5229" stroke="#D69B65" stroke-width="0.30375" stroke-miterlimit="10"/>
<path d="M14.6414 31.8458L15.0271 30.9945L14.1673 30.5867C13.9213 31.1344 13.6665 31.6787 13.4292 32.2304L15.0488 32.9112C15.2308 32.4833 15.4295 32.0627 15.6192 31.6382C15.7172 31.4274 15.8063 31.2124 15.9118 31.0052L16.2302 30.3846L14.6642 29.5879L15.085 28.7684C15.2227 28.4938 15.3866 28.2336 15.5364 27.9655L17.0643 28.8328C17.2933 28.4432 17.5073 28.0447 17.7487 27.6626L18.481 26.5215L17.0179 25.5491C16.7148 26.0233 16.407 26.4947 16.1089 26.972L16.9227 27.4651C17.0657 27.2304 17.2178 27.0014 17.365 26.7693" stroke="#D69B65" stroke-width="0.30375" stroke-miterlimit="10"/>
<path d="M19.3783 28.0512C19.2234 28.2992 19.0551 28.5392 18.9109 28.7939L19.7262 29.2848C20.0026 28.8251 20.3029 28.3798 20.589 27.926L19.126 26.9536L18.3879 28.1038C18.1481 28.491 17.93 28.8915 17.6998 29.2846L19.2293 30.1489C18.9445 30.6185 18.7054 31.1128 18.4535 31.6L16.8859 30.8066L16.5828 31.3977C16.4872 31.5973 16.3989 31.8005 16.3068 32.0017C16.1263 32.4059 15.9366 32.8063 15.7637 33.2139L17.3833 33.8947C17.5817 33.4328 17.7964 32.9778 18.0011 32.5187L17.1401 32.1133L16.8207 32.8186" stroke="#D69B65" stroke-width="0.30375" stroke-miterlimit="10"/>
<path d="M12.206 39.1683L12.4168 38.2577L11.4936 38.0268C11.3596 38.6125 11.218 39.1965 11.0923 39.7837L12.8141 40.1326C12.9099 39.6776 13.0211 39.2258 13.124 38.7724C13.1782 38.5464 13.2246 38.3182 13.2856 38.0939L13.4765 37.423L11.7848 36.9493C11.9535 36.3584 12.1129 35.7647 12.3215 35.1864L13.9897 35.7374C14.1371 35.3101 14.2748 34.8794 14.4303 34.4551L14.9284 33.194L13.3036 32.5261C13.0993 33.0508 12.8828 33.5712 12.6902 34.1002L13.5849 34.4246C13.6721 34.1639 13.7827 33.9116 13.8807 33.6549" stroke="#D69B65" stroke-width="0.30375" stroke-miterlimit="10"/>
<path d="M16.1271 34.5192C16.0232 34.7926 15.9029 35.0599 15.8159 35.3393L16.7113 35.6611C16.7909 35.4049 16.9003 35.1593 16.996 34.909L17.2915 34.1608L15.6666 33.4929L15.1644 34.764C15.0115 35.1931 14.8702 35.6263 14.7224 36.057L16.3916 36.6047C16.2026 37.1201 16.0702 37.6531 15.9161 38.1794L14.2234 37.7092L14.0416 38.3479L13.8905 38.9946C13.7927 39.4264 13.6864 39.8565 13.5955 40.2896L15.3173 40.6385C15.4226 40.1471 15.5425 39.6586 15.6535 39.1684L14.7297 38.9402L14.5553 39.6945" stroke="#D69B65" stroke-width="0.30375" stroke-miterlimit="10"/>
<path d="M11.2766 46.8249L11.3005 45.8912L10.35 45.8454L10.3042 47.6452L12.0609 47.6521C12.088 46.7227 12.089 45.792 12.1804 44.8657L10.4285 44.7329L10.499 43.8145C10.5255 43.5088 10.5727 43.2048 10.6088 42.8999L12.3527 43.1125C12.4136 42.6648 12.4584 42.2144 12.5329 41.7689L12.7719 40.4342L11.0474 40.0989C10.9496 40.6533 10.8445 41.207 10.7544 41.7626L11.6954 41.9048C11.7353 41.6328 11.7895 41.3633 11.8361 41.0923" stroke="#D69B65" stroke-width="0.30375" stroke-miterlimit="10"/>
<path d="M14.1863 41.4982C14.1389 41.7867 14.0735 42.0725 14.0405 42.3633L14.9819 42.5028C15.0585 41.972 15.167 41.4463 15.2567 40.9176L13.5323 40.5823L13.2913 41.9275C13.2204 42.3774 13.1726 42.8308 13.1119 43.2822L14.8562 43.4914C14.8258 43.764 14.7766 44.0345 14.761 44.3087L14.6989 45.1296L12.9468 45.0004C12.8589 45.8823 12.8642 46.7693 12.8354 47.6544L14.5923 47.6613L14.6306 46.1518L13.6799 46.1087L13.6604 46.8831" stroke="#D69B65" stroke-width="0.30375" stroke-miterlimit="10"/>
<path d="M11.8361 54.516C11.7855 54.2086 11.717 53.9041 11.6814 53.5945L10.74 53.734C10.8258 54.3283 10.9453 54.9176 11.0474 55.5095L12.7719 55.1742L12.526 53.8008C12.4537 53.3415 12.4045 52.8788 12.3428 52.4179L10.5984 52.6271C10.5642 52.322 10.5114 52.0186 10.4927 51.712L10.4223 50.7937L12.1743 50.6645C12.0852 49.7642 12.0896 48.8594 12.0609 47.9561L10.3042 47.9629L10.3469 49.6504L11.2975 49.6072L11.2764 48.7833" stroke="#D69B65" stroke-width="0.30375" stroke-miterlimit="10"/>
<path d="M13.6606 48.7236L13.6825 49.6014L14.633 49.5556L14.5923 47.9456L12.8354 47.9524C12.8626 48.8633 12.863 49.7753 12.9527 50.683L14.7045 50.5501L14.7667 51.371C14.79 51.6444 14.8335 51.9156 14.8657 52.1879L13.1218 52.4006C13.1817 52.8392 13.2251 53.2804 13.2982 53.717L13.5323 55.0246L15.2567 54.6892C15.1705 54.1939 15.0755 53.7 14.9945 53.2039L14.0535 53.346C14.0909 53.6014 14.1426 53.8543 14.1861 54.1086" stroke="#D69B65" stroke-width="0.30375" stroke-miterlimit="10"/>
<path d="M13.8959 61.9521C13.7852 61.6609 13.6582 61.3758 13.5648 61.0783L12.6694 61.4001C12.7599 61.6869 12.8804 61.9625 12.9879 62.2429L13.319 63.0809L14.9439 62.413L14.4313 61.1154C14.2752 60.6776 14.1306 60.2353 13.98 59.7955L12.3108 60.3431C12.1014 59.7649 11.9497 59.1688 11.778 58.5789L13.4707 58.1087L13.2852 57.4566L13.1309 56.7965C13.0308 56.3556 12.9227 55.9166 12.8298 55.4744L11.1079 55.8233C11.2252 56.3741 11.3584 56.9214 11.4837 57.4704L12.4076 57.2422L12.2215 56.4387" stroke="#D69B65" stroke-width="0.30375" stroke-miterlimit="10"/>
<path d="M14.5566 55.914L14.7542 56.769L15.6774 56.5381C15.5591 56.0151 15.4316 55.494 15.3188 54.97L13.5969 55.3189C13.6909 55.7646 13.8 56.207 13.9007 56.6511C13.9539 56.8727 13.9991 57.096 14.0588 57.3157L14.2459 57.9728L15.9376 57.4992C16.0885 58.0265 16.2286 58.5571 16.4165 59.0726L14.7483 59.6236C14.8929 60.042 15.0276 60.4642 15.1799 60.8797L15.6679 62.1152L17.2928 61.4473C17.1115 60.9786 16.9167 60.5146 16.7448 60.0422L15.8501 60.3666C15.9317 60.6114 16.0364 60.8479 16.1282 61.0889" stroke="#D69B65" stroke-width="0.30375" stroke-miterlimit="10"/>
<path d="M17.3648 68.8372C17.1997 68.5731 17.0215 68.3172 16.8676 68.0462L16.0524 68.5371C16.3618 69.0514 16.6961 69.5506 17.0177 70.0577L18.4808 69.0852L17.7275 67.9111C17.4828 67.5159 17.2599 67.1074 17.025 66.7061L15.4955 67.5703C15.1788 67.0438 14.9085 66.4918 14.627 65.9459L16.1943 65.1525L15.8851 64.5492C15.7875 64.3455 15.6974 64.1382 15.603 63.9328C15.4188 63.5201 15.2254 63.1115 15.0488 62.6956L13.4292 63.3764C13.6509 63.8937 13.8901 64.4039 14.1207 64.9176L14.9818 64.5122L14.6416 63.7611" stroke="#D69B65" stroke-width="0.30375" stroke-miterlimit="10"/>
<path d="M16.8209 62.789L17.1828 63.5884L18.0426 63.1806C17.8241 62.6908 17.5957 62.2054 17.3833 61.7129L15.7637 62.3937C15.9421 62.8129 16.1369 63.2248 16.3226 63.6407C16.4186 63.8472 16.5056 64.058 16.6091 64.2609L16.921 64.8691L18.4869 64.0724L18.8621 64.8049C18.9842 65.0507 19.1323 65.2824 19.2659 65.5219L17.7382 66.3892C17.9626 66.7707 18.1722 67.1616 18.4087 67.5358L19.1262 68.6538L20.5892 67.6814L19.7764 66.4099L18.9626 66.903C19.0968 67.1233 19.2402 67.3381 19.3785 67.5562" stroke="#D69B65" stroke-width="0.30375" stroke-miterlimit="10"/>
<path d="M22.1226 74.9134L21.4791 74.2362L20.7746 74.8759L22.0161 76.18L23.2633 74.9427L22.3006 73.9333C22.1372 73.7678 21.9841 73.5929 21.8332 73.4159L21.3764 72.8888L20.0437 74.0335C19.8447 73.7998 19.6375 73.573 19.4458 73.3335L18.8761 72.6099L20.2592 71.5268C19.6849 70.8279 19.1837 70.0742 18.6546 69.3418L17.1992 70.3257L18.1777 71.7017L18.9431 71.1364L18.465 70.4649" stroke="#D69B65" stroke-width="0.30375" stroke-miterlimit="10"/>
<path d="M20.4111 69.0852L20.9197 69.8006L21.6836 69.2332L20.75 67.9214L19.2947 68.9053C19.8268 69.6449 20.3357 70.4018 20.9145 71.1065L22.2955 70.0205L22.804 70.6681L23.3422 71.2912L22.012 72.4388L22.447 72.9408L22.6647 73.1917L22.8939 73.432L23.8106 74.3935L25.0578 73.1562L24.016 72.0635L23.3133 72.705L23.8481 73.2656" stroke="#D69B65" stroke-width="0.30375" stroke-miterlimit="10"/>
<path d="M27.9458 79.9563L27.1848 79.4144L26.6174 80.1782L28.0849 81.2221L29.0689 79.7667C28.3138 79.224 27.5416 78.7042 26.8224 78.1137L25.7364 79.4948L25.0128 78.9252L24.3152 78.3241L25.4626 76.9939L24.9502 76.55L24.6943 76.3279L24.4489 76.094L23.4677 75.1584L22.2305 76.4054L23.4524 77.5704L24.0939 76.8678L23.4971 76.2991" stroke="#D69B65" stroke-width="0.30375" stroke-miterlimit="10"/>
<path d="M25.1443 74.5664L25.7801 75.1717L26.4198 74.4672L25.2536 73.3567L24.0164 74.6037L25.0056 75.5469C25.1676 75.7073 25.3391 75.8572 25.5126 76.005L26.0292 76.4525L27.1739 75.1199C27.3829 75.2977 27.585 75.484 27.7995 75.6553L28.4471 76.1639L27.3639 77.547C28.0485 78.11 28.7873 78.6004 29.5047 79.1194L30.4887 77.6641L29.2589 76.7889L28.6935 77.5543L29.3247 78.0033" stroke="#D69B65" stroke-width="0.30375" stroke-miterlimit="10"/>
<path d="M34.6634 83.77L33.8121 83.3845L33.4043 84.2443C33.9523 84.4903 34.4964 84.7451 35.048 84.9824L35.7288 83.3628C35.3009 83.1807 34.8803 82.9819 34.4559 82.7924C34.2451 82.6943 34.03 82.6052 33.8229 82.4997L33.2022 82.1814L32.4056 83.7471L31.586 83.3263C31.3115 83.1886 31.0512 83.0248 30.7831 82.875L31.6504 81.3471C31.2608 81.1181 30.8623 80.904 30.4802 80.6627L29.3391 79.9304L28.3667 81.3935C28.841 81.6966 29.3124 82.0044 29.7897 82.3025L30.2828 81.4887C30.0481 81.3457 29.819 81.1936 29.587 81.0464" stroke="#D69B65" stroke-width="0.30375" stroke-miterlimit="10"/>
<path d="M30.8566 79.0284C31.1046 79.1833 31.3446 79.3516 31.5994 79.4957L32.0902 78.6805C31.6305 78.4041 31.1852 78.1038 30.7314 77.8176L29.759 79.2807L30.9092 80.0188C31.2964 80.2586 31.697 80.4767 32.09 80.7069L32.9543 79.1774C33.4239 79.4621 33.9182 79.7013 34.4054 79.9532L33.612 81.5207L34.2029 81.8239C34.4026 81.9195 34.6057 82.0078 34.807 82.0999C35.2113 82.2803 35.6117 82.4701 36.0191 82.6432L36.6999 81.0236C36.238 80.8252 35.783 80.6105 35.3239 80.4058L34.9185 81.2668L35.6238 81.5862" stroke="#D69B65" stroke-width="0.30375" stroke-miterlimit="10"/>
<path d="M41.9843 86.1973L41.0736 85.9865L40.8428 86.9097C41.4284 87.0437 42.0124 87.1855 42.5997 87.311L42.9486 85.5892C42.4936 85.4934 42.0418 85.3822 41.5884 85.2793C41.3624 85.2251 41.1342 85.1787 40.9098 85.1177L40.2389 84.9268L39.7653 86.6185C39.1744 86.4498 38.5807 86.2904 38.0023 86.0818L38.5535 84.4136C38.1263 84.2662 37.6955 84.1285 37.2713 83.973L36.0101 83.4749L35.3423 85.0997C35.867 85.304 36.3874 85.5205 36.9163 85.7131L37.2407 84.8184C36.9801 84.7312 36.7278 84.6206 36.471 84.5226" stroke="#D69B65" stroke-width="0.30375" stroke-miterlimit="10"/>
<path d="M37.3249 82.2925C37.5982 82.3964 37.8655 82.5167 38.145 82.6038L38.4668 81.7083C38.2104 81.6288 37.965 81.5194 37.7147 81.4236L36.9664 81.1282L36.2986 82.753L37.5697 83.2552C37.9988 83.4081 38.4319 83.5495 38.8626 83.6973L39.4104 82.0281C39.9258 82.217 40.4587 82.3494 40.985 82.5036L40.5148 84.1963L41.1535 84.3781L41.8003 84.5292C42.232 84.627 42.6621 84.7333 43.0953 84.8242L43.4442 83.1023C42.9527 82.997 42.4643 82.8772 41.9741 82.7662L41.7458 83.69L42.5001 83.8644" stroke="#D69B65" stroke-width="0.30375" stroke-miterlimit="10"/>
<path d="M49.6308 87.1393L48.6971 87.1154L48.6513 88.0659L50.4512 88.1117L50.458 86.355C49.5286 86.3278 48.5979 86.3266 47.6716 86.2355L47.5388 87.9873L46.6205 87.9167C46.3147 87.8901 46.0107 87.843 45.7058 87.8069L45.9184 86.063C45.4707 86.002 45.0203 85.9573 44.5748 85.8827L43.2401 85.6438L42.9048 87.3683C43.4592 87.4661 44.0129 87.5712 44.5685 87.6613L44.7107 86.7203C44.4387 86.6804 44.1692 86.6261 43.8983 86.5796" stroke="#D69B65" stroke-width="0.30375" stroke-miterlimit="10"/>
<path d="M44.2989 84.2213C44.5875 84.2687 44.8732 84.3341 45.164 84.3671L45.3033 83.4259C44.7726 83.3494 44.2469 83.2408 43.7182 83.1511L43.3828 84.8756L44.728 85.1166C45.178 85.1875 45.6314 85.2353 46.0827 85.296L46.2919 83.5517C46.5645 83.582 46.835 83.6313 47.1092 83.6468L47.9302 83.709L47.801 85.461C48.6828 85.5487 49.5698 85.5437 50.4549 85.5724L50.4618 83.8157L48.9524 83.7773L48.9092 84.728L49.6836 84.7474" stroke="#D69B65" stroke-width="0.30375" stroke-miterlimit="10"/>
<path d="M57.3293 86.5797C57.0219 86.6304 56.7173 86.6988 56.4077 86.7345L56.5472 87.6757C57.1416 87.5898 57.7308 87.4703 58.3227 87.3683L57.9874 85.6438L56.614 85.8896C56.1548 85.9619 55.6921 86.0111 55.2312 86.0729L55.4402 87.8172C55.135 87.8515 54.8318 87.9043 54.5253 87.9229L53.6069 87.9934L53.4777 86.2414C52.5774 86.3305 51.6726 86.326 50.7693 86.3548L50.7762 88.1115L52.4634 88.0687L52.4203 87.1182L51.5963 87.1393" stroke="#D69B65" stroke-width="0.30375" stroke-miterlimit="10"/>
<path d="M51.5334 84.747L52.4112 84.7252L52.3654 83.7746L50.7554 83.8153L50.7623 85.572C51.6731 85.5449 52.5852 85.5447 53.4928 85.455L53.3599 83.7031L54.1809 83.641C54.4542 83.6177 54.7254 83.5741 54.9977 83.5422L55.2104 85.2861C55.649 85.2261 56.0902 85.1828 56.5268 85.1097L57.8344 84.8756L57.499 83.1511C57.0037 83.2374 56.5098 83.3324 56.0137 83.4134L56.1558 84.3544C56.4112 84.3169 56.6641 84.2653 56.9185 84.2217" stroke="#D69B65" stroke-width="0.30375" stroke-miterlimit="10"/>
<path d="M64.7637 84.5228C64.4725 84.6336 64.1874 84.7605 63.8899 84.8539L64.2117 85.7493C64.4984 85.6588 64.774 85.5383 65.0545 85.4308L65.8924 85.0997L65.2246 83.4749L63.927 83.9874C63.489 84.1435 63.0469 84.2881 62.6071 84.4387L63.1548 86.108C62.5767 86.3173 61.9805 86.469 61.3907 86.6407L60.9205 84.948L60.2684 85.1335L59.6083 85.2878C59.1674 85.3877 58.7284 85.496 58.2861 85.589L58.635 87.3108C59.1856 87.1936 59.7332 87.0603 60.2822 86.935L60.054 86.0112L59.2504 86.1973" stroke="#D69B65" stroke-width="0.30375" stroke-miterlimit="10"/>
<path d="M58.7238 83.8644L59.5788 83.6667L59.3479 82.7435C58.8249 82.8618 58.3039 82.9894 57.7798 83.1021L58.1287 84.824C58.5744 84.73 59.0169 84.6209 59.4609 84.5203C59.6825 84.467 59.9058 84.4218 60.1255 84.3621L60.7827 84.175L60.309 82.4833C60.8363 82.3324 61.3669 82.1923 61.8824 82.0044L62.4336 83.6726C62.852 83.528 63.2742 83.3933 63.6897 83.2411L64.9252 82.753L64.2574 81.1282C63.7886 81.3094 63.3244 81.5042 62.8522 81.6761L63.1766 82.5708C63.4214 82.4892 63.658 82.3845 63.8989 82.2928" stroke="#D69B65" stroke-width="0.30375" stroke-miterlimit="10"/>
<path d="M71.647 81.0464C71.3829 81.2114 71.127 81.3896 70.856 81.5435L71.3469 82.3588C71.8612 82.0494 72.3604 81.7151 72.8675 81.3935L71.8951 79.9304L70.721 80.6837C70.3257 80.9283 69.9172 81.1513 69.5159 81.3862L70.3802 82.9157C69.8537 83.2324 69.3016 83.5027 68.7557 83.7842L67.9623 82.2166L67.3591 82.5259C67.1553 82.6235 66.948 82.7136 66.7426 82.8077C66.33 82.992 65.9213 83.1854 65.5054 83.362L66.1862 84.9816C66.7036 84.7598 67.2137 84.5207 67.7274 84.29L67.322 83.429L66.5707 83.7692" stroke="#D69B65" stroke-width="0.30375" stroke-miterlimit="10"/>
<path d="M65.5971 81.5862L66.3965 81.2243L65.9887 80.3645C65.4989 80.583 65.0135 80.8114 64.521 81.0238L65.2018 82.6434C65.6208 82.465 66.0329 82.27 66.4488 82.0843C66.6553 81.9883 66.8661 81.9012 67.069 81.7978L67.6772 81.4859L66.8805 79.92L67.613 79.5447C67.8588 79.4226 68.0905 79.2746 68.33 79.141L69.1973 80.6686C69.5788 80.4443 69.9697 80.2347 70.3439 79.9981L71.4619 79.2807L70.4895 77.8176L69.218 78.6305L69.7111 79.4443C69.9314 79.31 70.1462 79.1667 70.3643 79.0284" stroke="#D69B65" stroke-width="0.30375" stroke-miterlimit="10"/>
<path d="M77.7236 76.2989L77.0464 76.9425L77.6861 77.647L78.9902 76.4054L77.7528 75.1584L76.7433 76.1211C76.5779 76.2845 76.4029 76.4376 76.2259 76.5885L75.6988 77.0453L76.8435 78.378C76.6099 78.577 76.3831 78.7842 76.1435 78.976L75.4198 79.5456L74.3366 78.1625C73.6378 78.7368 72.8841 79.238 72.1516 79.7671L73.1356 81.2225L74.5116 80.244L73.9462 79.4786L73.2747 79.9567" stroke="#D69B65" stroke-width="0.30375" stroke-miterlimit="10"/>
<path d="M71.881 78.0031L72.5965 77.4942L72.0291 76.7303L70.7173 77.6639L71.7012 79.1192C72.4408 78.5871 73.1977 78.0782 73.9024 77.4994L72.8164 76.1186L73.464 75.6101L74.0871 75.0719L75.2344 76.4021L75.7364 75.9671L75.9873 75.7496L76.2277 75.5204L77.1892 74.6037L75.9519 73.3567L74.8592 74.3986L75.5009 75.1012L76.0613 74.5664" stroke="#D69B65" stroke-width="0.30375" stroke-miterlimit="10"/>
<path d="M82.7617 70.4644L82.2198 71.2256L82.9836 71.793L84.0275 70.3255L82.5721 69.3416C82.0294 70.0967 81.5096 70.8688 80.9191 71.5881L82.3 72.6741L81.7303 73.3976L81.1293 74.0952L79.7991 72.9477L79.3552 73.46L79.1331 73.716L78.8992 73.9614L77.9636 74.9425L79.2106 76.1798L80.3756 74.9581L79.6729 74.3166L79.1043 74.9133" stroke="#D69B65" stroke-width="0.30375" stroke-miterlimit="10"/>
<path d="M77.3733 73.2638L77.9786 72.628L77.2741 71.9883L76.1636 73.1545L77.4106 74.3917L78.3538 73.4025C78.5142 73.2405 78.664 73.069 78.8119 72.8955L79.2594 72.3789L77.9267 71.2342C78.1045 71.0252 78.2908 70.8231 78.4622 70.6086L78.9708 69.961L80.3539 71.0442C80.9169 70.3598 81.4073 69.6208 81.9263 68.9034L80.471 67.9194L79.5957 69.1492L80.3612 69.7146L80.8101 69.0834" stroke="#D69B65" stroke-width="0.30375" stroke-miterlimit="10"/>
<path d="M86.5796 63.7609L86.1939 64.6122L87.0537 65.0201C87.2997 64.4721 87.5545 63.928 87.7918 63.3764L86.1722 62.6956C85.9902 63.1234 85.7915 63.544 85.6018 63.9685C85.5037 64.1793 85.4147 64.3943 85.3092 64.6015L84.9908 65.2222L86.5567 66.0188L86.136 66.8383C85.9983 67.1129 85.8344 67.3733 85.6848 67.6412L84.1569 66.7739C83.9279 67.1635 83.7139 67.562 83.4725 67.9442L82.7402 69.0852L84.2033 70.0577C84.5064 69.5834 84.8142 69.112 85.1123 68.6347L84.2985 68.1416C84.1555 68.3763 84.0034 68.6053 83.8562 68.8374" stroke="#D69B65" stroke-width="0.30375" stroke-miterlimit="10"/>
<path d="M81.8274 67.5562C81.9824 67.3082 82.1506 67.0682 82.2948 66.8135L81.4796 66.3226C81.2031 66.7823 80.9028 67.2276 80.6167 67.6814L82.0798 68.6538L82.8179 67.5036C83.0576 67.1164 83.2757 66.7159 83.506 66.3228L81.9765 65.4585C82.2612 64.9889 82.5004 64.4946 82.7523 64.0074L84.3198 64.8008L84.623 64.2099C84.7185 64.0103 84.8068 63.8071 84.899 63.6059C85.0794 63.2017 85.2691 62.8011 85.4421 62.3937L83.8225 61.7129C83.624 62.1748 83.4094 62.6298 83.2046 63.0889L84.0657 63.4943L84.385 62.789" stroke="#D69B65" stroke-width="0.30375" stroke-miterlimit="10"/>
<path d="M89.0139 56.4387L88.8031 57.3493L89.7263 57.5802C89.8603 56.9945 90.0019 56.4105 90.1276 55.8233L88.4058 55.4744C88.31 55.9294 88.1988 56.3812 88.0957 56.8346C88.0415 57.0605 87.9951 57.2888 87.9341 57.5131L87.7432 58.184L89.4349 58.6577C89.2662 59.2486 89.1068 59.8423 88.8982 60.4206L87.23 59.8696C87.0826 60.2969 86.9449 60.7276 86.7894 61.1519L86.2913 62.413L87.9161 63.0809C88.1204 62.5562 88.3369 62.0358 88.5295 61.5068L87.6348 61.1824C87.5476 61.4431 87.437 61.6954 87.339 61.9521" stroke="#D69B65" stroke-width="0.30375" stroke-miterlimit="10"/>
<path d="M85.1072 61.0893C85.2111 60.8159 85.3314 60.5486 85.4185 60.2692L84.523 59.9474C84.4434 60.2038 84.3341 60.4492 84.2383 60.6995L83.9429 61.4477L85.5677 62.1156L86.0699 60.8445C86.2228 60.4154 86.3642 59.9823 86.512 59.5515L84.8428 59.0038C85.0317 58.4884 85.1641 57.9554 85.3182 57.4291L87.0109 57.8993L87.1928 57.2607L87.3439 56.6139C87.4417 56.1821 87.548 55.752 87.6389 55.3189L85.917 54.97C85.8117 55.4614 85.6919 55.9499 85.5809 56.4401L86.5047 56.6683L86.679 55.914" stroke="#D69B65" stroke-width="0.30375" stroke-miterlimit="10"/>
<path d="M89.9518 48.7833L89.9279 49.717L90.8784 49.7628L90.9242 47.9629L89.1675 47.9561C89.1403 48.8855 89.1393 49.8162 89.048 50.7425L90.7998 50.8753L90.7292 51.7936C90.7026 52.0994 90.6555 52.4034 90.6194 52.7083L88.8755 52.4957C88.8145 52.9434 88.7698 53.3938 88.6952 53.8395L88.4563 55.1742L90.1808 55.5095C90.2786 54.9551 90.3837 54.4014 90.4738 53.8458L89.5328 53.7036C89.4929 53.9756 89.4386 54.2451 89.3921 54.516" stroke="#D69B65" stroke-width="0.30375" stroke-miterlimit="10"/>
<path d="M87.0377 54.1086C87.0851 53.8201 87.1505 53.5344 87.1835 53.2436L86.2421 53.104C86.1655 53.6348 86.057 54.1605 85.9673 54.6892L87.6918 55.0246L87.9328 53.6793C88.0036 53.2294 88.0514 52.776 88.1122 52.3246L86.3678 52.1154C86.3982 51.8429 86.4474 51.5723 86.463 51.2981L86.5252 50.4772L88.2772 50.6064C88.3649 49.7245 88.3598 48.8376 88.3886 47.9524L86.6319 47.9456L86.5936 49.455L87.5442 49.4981L87.5636 48.7238" stroke="#D69B65" stroke-width="0.30375" stroke-miterlimit="10"/>
<path d="M89.3922 41.0921C89.4429 41.3995 89.5113 41.7041 89.547 42.0137L90.4882 41.8744C90.4023 41.2801 90.2828 40.6908 90.1808 40.0989L88.4563 40.4342L88.7021 41.8076C88.7744 42.2668 88.8236 42.7296 88.8854 43.1904L90.6297 42.9813C90.664 43.2864 90.7168 43.5898 90.7354 43.8962L90.8059 44.8145L89.0539 44.9437C89.143 45.844 89.1385 46.7488 89.1673 47.6521L90.924 47.6452L90.8812 45.9578L89.9307 46.0009L89.9518 46.8249" stroke="#D69B65" stroke-width="0.30375" stroke-miterlimit="10"/>
<path d="M87.5634 46.8833L87.5413 46.0054L86.5908 46.0512L86.6315 47.6613L88.3882 47.6544C88.361 46.7435 88.3608 45.8315 88.2711 44.9239L86.5193 45.0567L86.4571 44.2358C86.4338 43.9624 86.3903 43.6913 86.3583 43.4189L88.1022 43.2063C88.0423 42.7677 87.999 42.3264 87.9259 41.8898L87.6918 40.5823L85.9673 40.9176C86.0536 41.4129 86.1485 41.9068 86.2295 42.403L87.1705 42.2608C87.1331 42.0054 87.0814 41.7523 87.0379 41.4982" stroke="#D69B65" stroke-width="0.30375" stroke-miterlimit="10"/>
<path d="M87.3392 33.6549C87.45 33.9461 87.5769 34.2312 87.6703 34.5286L88.5657 34.2069C88.4752 33.9201 88.3547 33.6445 88.2472 33.3641L87.9161 32.5261L86.2913 33.194L86.8038 34.4916C86.9599 34.9296 87.1045 35.3717 87.2552 35.8115L88.9244 35.2639C89.1338 35.8421 89.2854 36.4382 89.4571 37.0281L87.7644 37.4983L87.9499 38.1504L88.1042 38.8105C88.2041 39.2513 88.3124 39.6904 88.4054 40.1326L90.1272 39.7837C90.01 39.2331 89.8767 38.6856 89.7514 38.1366L88.8276 38.3648L89.0137 39.1683" stroke="#D69B65" stroke-width="0.30375" stroke-miterlimit="10"/>
<path d="M86.679 39.6941L86.4814 38.8391L85.5582 39.07C85.6765 39.593 85.8041 40.1141 85.9168 40.6381L87.6387 40.2892C87.5447 39.8435 87.4356 39.4011 87.335 38.957C87.2817 38.7356 87.2365 38.5121 87.1768 38.2924L86.9897 37.6353L85.298 38.1089C85.1471 37.5816 85.007 37.051 84.8191 36.5355L86.4873 35.9845C86.3427 35.5661 86.208 35.1439 86.0558 34.7284L85.5677 33.4929L83.9429 34.1608C84.1241 34.6296 84.3189 35.0937 84.4908 35.5659L85.3855 35.2415C85.3039 34.9967 85.1992 34.7602 85.1075 34.5192" stroke="#D69B65" stroke-width="0.30375" stroke-miterlimit="10"/>
<path d="M83.8562 26.7695C84.0212 27.0336 84.1995 27.2896 84.3534 27.5605L85.1686 27.0696C84.8592 26.5553 84.5249 26.0561 84.2033 25.5491L82.7402 26.5215L83.4935 27.6956C83.7382 28.0909 83.9611 28.4993 84.196 28.9006L85.7255 28.0364C86.0424 28.5629 86.3125 29.1149 86.594 29.6608L85.0267 30.4542L85.3359 31.0575C85.4335 31.2612 85.5236 31.4686 85.6178 31.6739C85.802 32.0866 85.9954 32.4952 86.172 32.9112L87.7916 32.2304C87.5699 31.713 87.3307 31.2029 87.1001 30.6891L86.239 31.0945L86.5792 31.8458" stroke="#D69B65" stroke-width="0.30375" stroke-miterlimit="10"/>
<path d="M84.3852 32.8184L84.0234 32.0189L83.1635 32.4268C83.382 32.9166 83.6105 33.402 83.8229 33.8945L85.4425 33.2137C85.2641 32.7945 85.0691 32.3826 84.8834 31.9667C84.7874 31.7602 84.7003 31.5493 84.5968 31.3464L84.285 30.7383L82.7191 31.535L82.3438 30.8025C82.2217 30.5567 82.0737 30.325 81.94 30.0855L83.4677 29.2182C83.2433 28.8367 83.0337 28.4458 82.7972 28.0716L82.0798 26.9536L80.6167 27.926L81.4295 29.1975L82.2434 28.7044C82.1091 28.4841 81.9658 28.2693 81.8274 28.0512" stroke="#D69B65" stroke-width="0.30375" stroke-miterlimit="10"/>
<path d="M79.1041 20.6936L79.7476 21.3708L80.4521 20.7311L79.2106 19.427L77.9636 20.6643L78.9263 21.6737C79.0897 21.8392 79.2428 22.0141 79.3937 22.1911L79.8505 22.7182L81.1832 21.5735C81.3822 21.8072 81.5894 22.034 81.7812 22.2735L82.3508 22.9971L80.9677 24.0803C81.542 24.7791 82.0432 25.5328 82.5723 26.2654L84.0277 25.2815L83.049 23.9055L82.2836 24.4709L82.7617 25.1424" stroke="#D69B65" stroke-width="0.30375" stroke-miterlimit="10"/>
<path d="M80.8097 26.5229L80.3011 25.8075L79.5372 26.3749L80.4708 27.6867L81.9261 26.7028C81.3939 25.9632 80.8851 25.2063 80.3063 24.5016L78.9255 25.5876L78.417 24.94L77.8787 24.3169L79.209 23.1693L78.774 22.6673L78.5565 22.4164L78.3273 22.1761L77.4106 21.2146L76.1636 22.4519L77.2054 23.5446L77.9081 22.903L77.3733 22.3425" stroke="#D69B65" stroke-width="0.30375" stroke-miterlimit="10"/>
<path d="M73.2747 15.6513L74.0357 16.1932L74.6031 15.4294L73.1356 14.3855L72.1516 15.8409C72.9067 16.3834 73.6789 16.9034 74.3981 17.4939L75.4842 16.113L76.2077 16.6827L76.9053 17.2837L75.7577 18.6139L76.2701 19.0578L76.526 19.2799L76.7712 19.5138L77.7524 20.4494L78.9898 19.2024L77.768 18.0374L77.1264 18.7401L77.7232 19.3087" stroke="#D69B65" stroke-width="0.30375" stroke-miterlimit="10"/>
<path d="M76.0617 21.0406L75.4258 20.4353L74.7861 21.1398L75.9523 22.2505L77.1896 21.0033L76.2004 20.0601C76.0384 19.8997 75.8669 19.7499 75.6933 19.602L75.1767 19.1545L74.032 20.4872C73.823 20.3094 73.6209 20.1231 73.4065 19.9518L72.7589 19.4433L73.8421 18.0602C73.1574 17.4973 72.4187 17.0068 71.7012 16.4878L70.7173 17.9432L71.9471 18.8184L72.5124 18.0529L71.8813 17.604" stroke="#D69B65" stroke-width="0.30375" stroke-miterlimit="10"/>
<path d="M66.5707 11.8359L67.422 12.2217L67.8299 11.3619C67.2819 11.1159 66.7378 10.8611 66.1862 10.6238L65.5054 12.2434C65.9333 12.4254 66.3538 12.6241 66.7783 12.8138C66.9891 12.9118 67.2041 13.0009 67.4113 13.1064L68.032 13.4248L68.8286 11.859L69.6481 12.2796C69.9227 12.4173 70.1831 12.5811 70.451 12.731L69.5837 14.2589C69.9733 14.4879 70.3719 14.7019 70.754 14.9433L71.8951 15.6755L72.8675 14.2125C72.3932 13.9093 71.9218 13.6015 71.4445 13.3035L70.9514 14.1173C71.1861 14.2603 71.4151 14.4124 71.6472 14.5596" stroke="#D69B65" stroke-width="0.30375" stroke-miterlimit="10"/>
<path d="M70.3645 16.5797C70.1165 16.4248 69.8765 16.2565 69.6218 16.1123L69.1309 16.9276C69.5906 17.204 70.0359 17.5043 70.4897 17.7905L71.4621 16.3274L70.3117 15.5893C69.9245 15.3495 69.524 15.1314 69.1309 14.9012L68.2666 16.4307C67.797 16.146 67.3027 15.9068 66.8155 15.6549L67.6089 14.0875L67.018 13.7842C66.8184 13.6886 66.6152 13.6003 66.414 13.5082C66.0096 13.3278 65.6092 13.138 65.2018 12.9651L64.521 14.5847C64.9829 14.7831 65.4379 14.9978 65.897 15.2025L66.3024 14.3415L65.5971 14.0221" stroke="#D69B65" stroke-width="0.30375" stroke-miterlimit="10"/>
<path d="M59.2504 9.41014L60.1611 9.62094L60.3919 8.69774C59.8063 8.56369 59.2223 8.42214 58.635 8.29639L58.2861 10.0182C58.7412 10.114 59.1929 10.2252 59.6463 10.3281C59.8723 10.3823 60.1005 10.4287 60.3249 10.4897L60.9958 10.6806L61.4694 8.98894C62.0603 9.15762 62.6541 9.31699 63.2324 9.52556L62.6812 11.1938C63.1085 11.3412 63.5392 11.4789 63.9634 11.6344L65.2246 12.1325L65.8924 10.5077C65.3678 10.3034 64.8473 10.0869 64.3184 9.89431L63.9942 10.789C64.2548 10.8762 64.5071 10.9868 64.7639 11.0848" stroke="#D69B65" stroke-width="0.30375" stroke-miterlimit="10"/>
<path d="M63.8991 13.3153C63.6258 13.2115 63.3585 13.0912 63.079 13.0041L62.7572 13.8996C63.0136 13.9791 63.259 14.0885 63.5093 14.1843L64.2576 14.4797L64.9254 12.8549L63.6543 12.3527C63.2252 12.1998 62.7921 12.0584 62.3613 11.9106L61.8136 13.5798C61.2982 13.3909 60.7652 13.2584 60.2389 13.1043L60.7092 11.4116L60.0705 11.2298L59.4237 11.0787C58.992 10.9809 58.5618 10.8746 58.1287 10.7837L57.7798 12.5055C58.2713 12.6108 58.7597 12.7307 59.2499 12.8417L59.4782 11.9179L58.7238 11.7435" stroke="#D69B65" stroke-width="0.30375" stroke-miterlimit="10"/>
<path d="M51.5963 8.46923L52.5302 8.49313L52.576 7.54259L50.7762 7.49683L50.7693 9.25351C51.6988 9.28065 52.6295 9.28166 53.5557 9.37299L53.6885 7.62116L54.6069 7.69163C54.9126 7.71816 55.2166 7.76534 55.5216 7.80139L55.3089 9.54532C55.7567 9.60627 56.207 9.65102 56.6525 9.72554L57.9872 9.96449L58.3225 8.24C57.7681 8.14219 57.2145 8.0371 56.6588 7.94698L56.5166 8.888C56.7886 8.92789 57.0581 8.98216 57.3291 9.02874" stroke="#D69B65" stroke-width="0.30375" stroke-miterlimit="10"/>
<path d="M56.9185 11.3845C56.6299 11.3371 56.3442 11.2717 56.0534 11.2387L55.9139 12.1799C56.4446 12.2565 56.9703 12.365 57.499 12.4547L57.8344 10.7302L56.4892 10.4893C56.0392 10.4184 55.5858 10.3706 55.1344 10.3099L54.9253 12.0542C54.6527 12.0238 54.3821 11.9746 54.108 11.959L53.287 11.8969L53.4162 10.1448C52.5343 10.0571 51.6474 10.0622 50.7623 10.0334L50.7554 11.7903L52.2648 11.8286L52.3079 10.8781L51.5336 10.8586" stroke="#D69B65" stroke-width="0.30375" stroke-miterlimit="10"/>
<path d="M54.6678 21.2728C53.9606 22.8926 52.3625 23.9391 50.5965 23.9391C48.8301 23.9391 47.232 22.8926 46.525 21.2728L46.3916 21.3311C47.1218 23.004 48.7724 24.0847 50.5965 24.0847C52.4206 24.0847 54.071 23.0038 54.8012 21.3311L54.6678 21.2728Z" fill="#D69B65"/>
<path d="M53.8561 20.8735C53.2905 22.1689 52.0125 23.0058 50.6001 23.0058C49.1875 23.0058 47.9093 22.1689 47.3439 20.8735L47.2104 20.9318C47.7991 22.2803 49.1295 23.1516 50.6001 23.1516C52.0704 23.1516 53.4009 22.2803 53.9895 20.9318L53.8561 20.8735Z" fill="#D69B65"/>
<path d="M48.1564 20.4722L48.0229 20.5305C48.4701 21.5545 49.4805 22.2163 50.5973 22.2163C51.7141 22.2163 52.7244 21.5545 53.1715 20.5305L53.0381 20.4722C52.6142 21.4432 51.656 22.0707 50.5973 22.0707C49.5385 22.0707 48.5802 21.4432 48.1564 20.4722Z" fill="#D69B65"/>
<path d="M52.2271 20.0731C51.9448 20.7198 51.3067 21.1376 50.6014 21.1376C49.8961 21.1376 49.258 20.7198 48.9757 20.0731L48.8423 20.1314C49.1477 20.8312 49.8382 21.2832 50.6014 21.2832C51.3644 21.2832 52.055 20.831 52.3603 20.1314L52.2271 20.0731Z" fill="#D69B65"/>
<path d="M51.409 19.6716C51.2683 19.9939 50.9502 20.2023 50.5986 20.2023C50.2471 20.2023 49.929 19.9939 49.7882 19.6716L49.6548 19.7299C49.8186 20.1053 50.1892 20.3479 50.5986 20.3479C51.0081 20.3479 51.3785 20.1053 51.5423 19.7299L51.409 19.6716Z" fill="#D69B65"/>
<path d="M54.6678 14.8414C53.9606 16.4612 52.3625 17.5077 50.5965 17.5077C48.8301 17.5077 47.232 16.4612 46.525 14.8414L46.3916 14.8997C47.1218 16.5726 48.7724 17.6533 50.5965 17.6533C52.4206 17.6533 54.071 16.5724 54.8012 14.8997L54.6678 14.8414Z" fill="#D69B65"/>
<path d="M53.8561 14.4421C53.2905 15.7375 52.0125 16.5744 50.6001 16.5744C49.1875 16.5744 47.9093 15.7375 47.3439 14.4421L47.2104 14.5004C47.7991 15.8489 49.1295 16.7202 50.6001 16.7202C52.0704 16.7202 53.4009 15.8489 53.9895 14.5004L53.8561 14.4421Z" fill="#D69B65"/>
<path d="M48.1564 14.0408L48.0229 14.0991C48.4701 15.1231 49.4805 15.7849 50.5973 15.7849C51.7141 15.7849 52.7244 15.1231 53.1715 14.0991L53.0381 14.0408C52.6142 15.0118 51.656 15.6393 50.5973 15.6393C49.5385 15.6393 48.5802 15.012 48.1564 14.0408Z" fill="#D69B65"/>
<path d="M52.2271 13.6417C51.9448 14.2885 51.3067 14.7062 50.6014 14.7062C49.8961 14.7062 49.258 14.2885 48.9757 13.6417L48.8423 13.7C49.1477 14.3998 49.8382 14.8518 50.6014 14.8518C51.3644 14.8518 52.055 14.3996 52.3603 13.7L52.2271 13.6417Z" fill="#D69B65"/>
<path d="M51.409 13.2402C51.2683 13.5625 50.9502 13.7709 50.5986 13.7709C50.2471 13.7709 49.929 13.5625 49.7882 13.2402L49.6548 13.2985C49.8186 13.6739 50.1892 13.9165 50.5986 13.9165C51.0081 13.9165 51.3785 13.6739 51.5423 13.2985L51.409 13.2402Z" fill="#D69B65"/>
<path d="M50.5472 18.0216C49.84 19.6414 48.2419 20.6879 46.4759 20.6879C44.7097 20.6879 43.1114 19.6414 42.4044 18.0216L42.271 18.0799C43.0012 19.7528 44.6518 20.8335 46.4759 20.8335C48.2998 20.8335 49.9504 19.7526 50.6806 18.0799L50.5472 18.0216Z" fill="#D69B65"/>
<path d="M49.734 17.6223C49.1686 18.9177 47.8905 19.7548 46.478 19.7548C45.0654 19.7548 43.7872 18.9179 43.2218 17.6223L43.0884 17.6806C43.677 19.029 45.0075 19.9004 46.478 19.9004C47.9484 19.9004 49.2788 19.029 49.8675 17.6806L49.734 17.6223Z" fill="#D69B65"/>
<path d="M48.9223 17.221C48.4983 18.1919 47.5403 18.8195 46.4814 18.8195C45.4225 18.8195 44.4643 18.1919 44.0405 17.221L43.9072 17.2793C44.3543 18.3035 45.3648 18.9651 46.4816 18.9651C47.5984 18.9651 48.6089 18.3033 49.0558 17.2793L48.9223 17.221Z" fill="#D69B65"/>
<path d="M48.1045 16.8216C47.8222 17.4684 47.1842 17.8862 46.4788 17.8862C45.7735 17.8862 45.1355 17.4682 44.8532 16.8216L44.7197 16.88C45.0253 17.5798 45.7156 18.032 46.4788 18.032C47.2419 18.032 47.9324 17.5798 48.2378 16.88L48.1045 16.8216Z" fill="#D69B65"/>
<path d="M47.2865 16.4196C47.1457 16.742 46.8276 16.9503 46.4761 16.9503C46.1245 16.9503 45.8064 16.742 45.6657 16.4196L45.5322 16.4779C45.696 16.8534 46.0666 17.0959 46.4761 17.0959C46.8855 17.0959 47.2559 16.8534 47.4199 16.4779L47.2865 16.4196Z" fill="#D69B65"/>
<path d="M58.8475 18.0216C58.1403 19.6414 56.5422 20.6879 54.7762 20.6879C53.01 20.6879 51.4117 19.6414 50.7047 18.0216L50.5713 18.0799C51.3015 19.7528 52.9521 20.8335 54.7762 20.8335C56.6003 20.8335 58.2507 19.7526 58.9809 18.0799L58.8475 18.0216Z" fill="#D69B65"/>
<path d="M58.0294 17.6223C57.4639 18.9177 56.1859 19.7548 54.7734 19.7548C53.3608 19.7548 52.0826 18.9179 51.5172 17.6223L51.3838 17.6806C51.9725 19.029 53.3029 19.9004 54.7734 19.9004C56.2438 19.9004 57.5742 19.029 58.1629 17.6806L58.0294 17.6223Z" fill="#D69B65"/>
<path d="M57.218 17.221C56.7939 18.1919 55.8359 18.8195 54.7772 18.8195C53.7183 18.8195 52.7601 18.1919 52.3363 17.221L52.2026 17.2793C52.6498 18.3035 53.6602 18.9651 54.777 18.9651C55.8938 18.9651 56.9041 18.3033 57.3512 17.2793L57.218 17.221Z" fill="#D69B65"/>
<path d="M56.4066 16.8216C56.1243 17.4684 55.4862 17.8862 54.7811 17.8862C54.0758 17.8862 53.4377 17.4682 53.1554 16.8216L53.022 16.88C53.3275 17.5798 54.0179 18.032 54.7811 18.032C55.5441 18.032 56.2346 17.5798 56.54 16.88L56.4066 16.8216Z" fill="#D69B65"/>
<path d="M55.5887 16.4196C55.448 16.742 55.1299 16.9503 54.7783 16.9503C54.4268 16.9503 54.1087 16.742 53.9679 16.4196L53.8345 16.4779C53.9983 16.8534 54.3689 17.0959 54.7783 17.0959C55.1878 17.0959 55.5582 16.8534 55.7222 16.4779L55.5887 16.4196Z" fill="#D69B65"/>
<path d="M54.6678 76.3983C53.9606 74.7785 52.3625 73.732 50.5965 73.732C48.8301 73.732 47.232 74.7785 46.525 76.3983L46.3916 76.34C47.1218 74.6672 48.7724 73.5864 50.5965 73.5864C52.4206 73.5864 54.071 74.6674 54.8012 76.34L54.6678 76.3983Z" fill="#D69B65"/>
<path d="M53.8561 76.8006C53.2905 75.5052 52.0125 74.6683 50.6001 74.6683C49.1875 74.6683 47.9093 75.5052 47.3439 76.8006L47.2104 76.7423C47.7991 75.3938 49.1295 74.5225 50.6001 74.5225C52.0704 74.5225 53.4009 75.3938 53.9895 76.7423L53.8561 76.8006Z" fill="#D69B65"/>
<path d="M48.1564 77.1997L48.0229 77.1414C48.4701 76.1173 49.4805 75.4556 50.5973 75.4556C51.7141 75.4556 52.7244 76.1173 53.1715 77.1414L53.0381 77.1997C52.6142 76.2287 51.656 75.6012 50.5973 75.6012C49.5385 75.6012 48.5802 76.2287 48.1564 77.1997Z" fill="#D69B65"/>
<path d="M52.2271 77.6008C51.9448 76.954 51.3067 76.5362 50.6014 76.5362C49.8961 76.5362 49.258 76.954 48.9757 77.6008L48.8423 77.5424C49.1477 76.8426 49.8382 76.3906 50.6014 76.3906C51.3644 76.3906 52.055 76.8428 52.3603 77.5424L52.2271 77.6008Z" fill="#D69B65"/>
<path d="M51.409 78.0003C51.2683 77.6779 50.9502 77.4696 50.5986 77.4696C50.2471 77.4696 49.929 77.6779 49.7882 78.0003L49.6548 77.942C49.8186 77.5666 50.1892 77.324 50.5986 77.324C51.0081 77.324 51.3785 77.5666 51.5423 77.942L51.409 78.0003Z" fill="#D69B65"/>
<path d="M54.6678 82.8314C53.9606 81.2116 52.3625 80.1651 50.5965 80.1651C48.8301 80.1651 47.232 81.2116 46.525 82.8314L46.3916 82.7731C47.1218 81.1003 48.7724 80.0195 50.5965 80.0195C52.4206 80.0195 54.071 81.1005 54.8012 82.7731L54.6678 82.8314Z" fill="#D69B65"/>
<path d="M53.8561 83.2308C53.2905 81.9354 52.0125 81.0984 50.6001 81.0984C49.1875 81.0984 47.9093 81.9354 47.3439 83.2308L47.2104 83.1724C47.7991 81.824 49.1295 80.9526 50.6001 80.9526C52.0704 80.9526 53.4009 81.824 53.9895 83.1724L53.8561 83.2308Z" fill="#D69B65"/>
<path d="M48.1564 83.6321L48.0229 83.5738C48.4701 82.5497 49.4805 81.8879 50.5973 81.8879C51.7141 81.8879 52.7244 82.5497 53.1715 83.5738L53.0381 83.6321C52.6142 82.6611 51.656 82.0335 50.5973 82.0335C49.5385 82.0335 48.5802 82.6609 48.1564 83.6321Z" fill="#D69B65"/>
<path d="M52.2271 84.0331C51.9448 83.3864 51.3067 82.9686 50.6014 82.9686C49.8961 82.9686 49.258 83.3864 48.9757 84.0331L48.8423 83.9748C49.1477 83.275 49.8382 82.823 50.6014 82.823C51.3644 82.823 52.055 83.2752 52.3603 83.9748L52.2271 84.0331Z" fill="#D69B65"/>
<path d="M51.409 84.4327C51.2683 84.1103 50.9502 83.9019 50.5986 83.9019C50.2471 83.9019 49.929 84.1103 49.7882 84.4327L49.6548 84.3744C49.8186 83.9989 50.1892 83.7563 50.5986 83.7563C51.0081 83.7563 51.3785 83.9989 51.5423 84.3744L51.409 84.4327Z" fill="#D69B65"/>
<path d="M50.5472 79.651C49.84 78.0312 48.2419 76.9847 46.4759 76.9847C44.7097 76.9847 43.1114 78.0312 42.4044 79.651L42.271 79.5927C43.0012 77.9199 44.6518 76.8391 46.4759 76.8391C48.2998 76.8391 49.9504 77.9201 50.6806 79.5927L50.5472 79.651Z" fill="#D69B65"/>
<path d="M49.734 80.0523C49.1686 78.7569 47.8905 77.9198 46.478 77.9198C45.0654 77.9198 43.7872 78.7567 43.2218 80.0523L43.0884 79.994C43.677 78.6455 45.0075 77.7742 46.478 77.7742C47.9484 77.7742 49.2788 78.6455 49.8675 79.994L49.734 80.0523Z" fill="#D69B65"/>
<path d="M48.9223 80.4517C48.4983 79.4807 47.5403 78.8531 46.4814 78.8531C45.4225 78.8531 44.4643 79.4807 44.0405 80.4517L43.9072 80.3933C44.3543 79.3691 45.3648 78.7075 46.4816 78.7075C47.5984 78.7075 48.6089 79.3693 49.0558 80.3933L48.9223 80.4517Z" fill="#D69B65"/>
<path d="M48.1045 80.8529C47.8222 80.2061 47.1842 79.7884 46.4788 79.7884C45.7735 79.7884 45.1355 80.2063 44.8532 80.8529L44.7197 80.7946C45.0253 80.0948 45.7156 79.6426 46.4788 79.6426C47.2419 79.6426 47.9324 80.0948 48.2378 80.7946L48.1045 80.8529Z" fill="#D69B65"/>
<path d="M47.2865 81.2523C47.1457 80.9299 46.8276 80.7215 46.4761 80.7215C46.1245 80.7215 45.8064 80.9299 45.6657 81.2523L45.5322 81.194C45.696 80.8185 46.0666 80.5759 46.4761 80.5759C46.8855 80.5759 47.2559 80.8185 47.4199 81.194L47.2865 81.2523Z" fill="#D69B65"/>
<path d="M58.8475 79.651C58.1403 78.0312 56.5422 76.9847 54.7762 76.9847C53.01 76.9847 51.4117 78.0312 50.7047 79.651L50.5713 79.5927C51.3015 77.9199 52.9521 76.8391 54.7762 76.8391C56.6003 76.8391 58.2507 77.9201 58.9809 79.5927L58.8475 79.651Z" fill="#D69B65"/>
<path d="M58.0294 80.0523C57.4639 78.7569 56.1859 77.9198 54.7734 77.9198C53.3608 77.9198 52.0826 78.7567 51.5172 80.0523L51.3838 79.994C51.9725 78.6455 53.3029 77.7742 54.7734 77.7742C56.2438 77.7742 57.5742 78.6455 58.1629 79.994L58.0294 80.0523Z" fill="#D69B65"/>
<path d="M57.218 80.4517C56.7939 79.4807 55.8359 78.8531 54.7772 78.8531C53.7183 78.8531 52.7601 79.4807 52.3363 80.4517L52.2026 80.3933C52.6498 79.3691 53.6602 78.7075 54.777 78.7075C55.8938 78.7075 56.9041 79.3693 57.3512 80.3933L57.218 80.4517Z" fill="#D69B65"/>
<path d="M56.4066 80.8529C56.1243 80.2061 55.4862 79.7884 54.7811 79.7884C54.0758 79.7884 53.4377 80.2063 53.1554 80.8529L53.022 80.7946C53.3275 80.0948 54.0179 79.6426 54.7811 79.6426C55.5441 79.6426 56.2346 80.0948 56.54 80.7946L56.4066 80.8529Z" fill="#D69B65"/>
<path d="M55.5887 81.2523C55.448 80.9299 55.1299 80.7215 54.7783 80.7215C54.4268 80.7215 54.1087 80.9299 53.9679 81.2523L53.8345 81.194C53.9983 80.8185 54.3689 80.5759 54.7783 80.5759C55.1878 80.5759 55.5582 80.8185 55.7222 81.194L55.5887 81.2523Z" fill="#D69B65"/>
<path d="M48.4451 4.83037C49.5963 5.98158 51.4627 5.98158 52.6141 4.83037C53.7653 3.67916 53.7653 1.81272 52.6141 0.661505C51.4629 -0.489707 49.5963 -0.489707 48.4451 0.661505C47.2938 1.81272 47.2938 3.67916 48.4451 4.83037ZM50.5296 1.02621L52.2492 2.74584L50.5296 4.46547L48.81 2.74584L50.5296 1.02621Z" fill="#D69B65"/>
<path d="M48.4451 97.1705C49.5963 98.3217 51.4627 98.3217 52.6141 97.1705C53.7653 96.0192 53.7653 94.1528 52.6141 93.0016C51.4629 91.8504 49.5963 91.8504 48.4451 93.0016C47.2938 94.1528 47.2938 96.0192 48.4451 97.1705ZM50.5296 93.3663L52.2492 95.0859L50.5296 96.8056L48.81 95.0859L50.5296 93.3663Z" fill="#D69B65"/>
<path d="M7.66191 45.8179C8.81313 46.9691 8.81313 48.8355 7.66191 49.9869C6.5107 51.1381 4.64426 51.1381 3.49305 49.9869C2.34184 48.8357 2.34184 46.9691 3.49305 45.8179C4.64426 44.6667 6.5107 44.6667 7.66191 45.8179ZM3.85775 47.9024L5.57738 49.622L7.29701 47.9024L5.57738 46.1828L3.85775 47.9024Z" fill="#D69B65"/>
<path d="M98.7869 45.8179C99.9381 46.9691 99.9381 48.8355 98.7869 49.9869C97.6357 51.1381 95.7693 51.1381 94.618 49.9869C93.4668 48.8357 93.4668 46.9691 94.618 45.8179C95.7693 44.6667 97.6357 44.6667 98.7869 45.8179ZM94.9827 47.9024L96.7024 49.622L98.422 47.9024L96.7024 46.1828L94.9827 47.9024Z" fill="#D69B65"/>
<g clip-path="url(#clip1_4656_280)">
<path d="M51.5867 45.1103L59.7805 36.9164C60.4639 36.2331 61.572 36.2332 62.2554 36.9164C62.8822 37.5432 62.9342 38.5262 62.4122 39.2124L62.4018 39.2256L62.3908 39.2394L62.2782 39.3671L62.2672 39.3795L54.0615 47.5852L62.2533 55.7728L62.3735 55.9054C62.9344 56.5926 62.8942 57.6068 62.2533 58.2477C61.6267 58.8741 60.6438 58.9268 59.9573 58.4044L59.9442 58.3941L59.9318 58.383L59.8033 58.2712L59.7909 58.2601L59.7792 58.2484L51.5867 50.06L43.3969 58.2498C42.7135 58.9332 41.6055 58.9332 40.9221 58.2498C40.2956 57.6231 40.2441 56.6407 40.766 55.9544L40.7764 55.9399L40.7874 55.9275L40.8993 55.7991L40.9103 55.7866L49.1118 47.5852L40.92 39.3961C40.2368 38.713 40.236 37.6054 40.9193 36.9219C41.5459 36.2954 42.5288 36.2429 43.2153 36.7652L43.2416 36.7859L43.3693 36.8985L43.3824 36.9088L43.3949 36.9212L51.5867 45.1103Z" fill="#D69B65" stroke="#D69B65"/>
</g>
</g>
<defs>
<filter id="filter0_d_4656_280" x="-0.342442" y="-2.16861" width="101.945" height="101.945" filterUnits="userSpaceOnUse" color-interpolation-filters="sRGB">
<feFlood flood-opacity="0" result="BackgroundImageFix"/>
<feColorMatrix in="SourceAlpha" type="matrix" values="0 0 0 0 0 0 0 0 0 0 0 0 0 0 0 0 0 0 127 0" result="hardAlpha"/>
<feOffset/>
<feGaussianBlur stdDeviation="3.92"/>
<feComposite in2="hardAlpha" operator="out"/>
<feColorMatrix type="matrix" values="0 0 0 0 0.898039 0 0 0 0 0.764706 0 0 0 0 0.517647 0 0 0 0.54 0"/>
<feBlend mode="normal" in2="BackgroundImageFix" result="effect1_dropShadow_4656_280"/>
<feBlend mode="normal" in="SourceGraphic" in2="effect1_dropShadow_4656_280" result="shape"/>
</filter>
<clipPath id="clip0_4656_280">
<rect width="101.25" height="101.25" fill="white"/>
</clipPath>
<clipPath id="clip1_4656_280">
<rect width="40" height="40" fill="white" transform="translate(32 28)"/>
</clipPath>
</defs>
</svg>
