<svg width="12" height="12" viewBox="0 0 12 12" fill="none" xmlns="http://www.w3.org/2000/svg">
<path d="M1.37287 0.343146C1.08886 0.059128 0.628372 0.059128 0.344354 0.343146C0.0603363 0.627164 0.0603366 1.08765 0.344354 1.37166L4.97269 6L0.344354 10.6283C0.0603366 10.9124 0.0603363 11.3728 0.344354 11.6569C0.628372 11.9409 1.08886 11.9409 1.37287 11.6569L6.00121 7.02852L10.6295 11.6569C10.9136 11.9409 11.374 11.9409 11.6581 11.6569C11.9421 11.3728 11.9421 10.9124 11.6581 10.6283L7.02973 6L11.6581 1.37166C11.9421 1.08765 11.9421 0.627164 11.6581 0.343146C11.374 0.059128 10.9136 0.0591284 10.6295 0.343146L6.00121 4.97148L1.37287 0.343146Z" fill="#F5F5F5" stroke="#F5F5F5" stroke-width="0.2" stroke-linecap="round" stroke-linejoin="round"/>
</svg>
