<svg width="34" height="36" viewBox="0 0 34 36" fill="none" xmlns="http://www.w3.org/2000/svg">
<path d="M22.1623 33.92V20.4796C22.1623 20.034 21.9853 19.6067 21.6702 19.2916C21.3552 18.9766 20.9278 18.7996 20.4823 18.7996H13.7621C13.3165 18.7996 12.8892 18.9766 12.5741 19.2916C12.259 19.6067 12.082 20.034 12.082 20.4796V33.92" stroke="white" stroke-width="3.36" stroke-linecap="round" stroke-linejoin="round"/>
<path d="M2 15.4395C1.99988 14.9507 2.1064 14.4678 2.31213 14.0244C2.51786 13.581 2.81784 13.1879 3.19115 12.8724L14.9515 2.79379C15.5579 2.28122 16.3264 2 17.1204 2C17.9145 2 18.6829 2.28122 19.2894 2.79379L31.0497 12.8724C31.423 13.1879 31.723 13.581 31.9287 14.0244C32.1344 14.4678 32.2409 14.9507 32.2408 15.4395V30.5599C32.2408 31.4511 31.8868 32.3057 31.2567 32.9358C30.6265 33.566 29.7719 33.92 28.8807 33.92H5.36009C4.46894 33.92 3.61429 33.566 2.98415 32.9358C2.35401 32.3057 2 31.4511 2 30.5599V15.4395Z" stroke="white" stroke-width="3.36" stroke-linecap="round" stroke-linejoin="round"/>
</svg>
