<svg width="38" height="38" viewBox="0 0 38 38" fill="none" xmlns="http://www.w3.org/2000/svg">
<path d="M20.48 2C24.4901 2 28.3359 3.593 31.1715 6.42855C34.007 9.26409 35.6 13.1099 35.6 17.12M20.48 8.72C22.7078 8.72 24.8444 9.605 26.4197 11.1803C27.995 12.7556 28.88 14.8922 28.88 17.12M21.8778 26.4742C22.2247 26.6336 22.6156 26.67 22.986 26.5775C23.3565 26.4849 23.6843 26.269 23.9156 25.9652L24.512 25.184C24.825 24.7667 25.2308 24.428 25.6974 24.1947C26.1639 23.9614 26.6784 23.84 27.2 23.84H32.24C33.1311 23.84 33.9858 24.194 34.6159 24.8241C35.246 25.4542 35.6 26.3089 35.6 27.2V32.24C35.6 33.1311 35.246 33.9858 34.6159 34.6159C33.9858 35.246 33.1311 35.6 32.24 35.6C24.2199 35.6 16.5282 32.414 10.8571 26.7429C5.18599 21.0718 2 13.3801 2 5.36C2 4.46887 2.354 3.61424 2.98412 2.98412C3.61424 2.354 4.46887 2 5.36 2H10.4C11.2911 2 12.1458 2.354 12.7759 2.98412C13.406 3.61424 13.76 4.46887 13.76 5.36V10.4C13.76 10.9216 13.6386 11.4361 13.4053 11.9026C13.172 12.3692 12.8333 12.775 12.416 13.088L11.6298 13.6777C11.3213 13.9132 11.104 14.2482 11.0145 14.6258C10.9251 15.0034 10.9692 15.4003 11.1392 15.7491C13.4352 20.4126 17.2114 24.1841 21.8778 26.4742Z" stroke="white" stroke-width="3.36" stroke-linecap="round" stroke-linejoin="round"/>
</svg>
