<svg width="550" height="211" viewBox="0 0 550 211" fill="none" xmlns="http://www.w3.org/2000/svg">
<path d="M188.249 -185.727C190.267 -185.661 192.285 -185.596 194.304 -185.531C190.923 -181.439 187.436 -177.655 183.616 -173.969C175.525 -165.975 168.859 -156.794 162.304 -147.531C165.531 -144.9 168.805 -142.439 172.253 -140.105C173.184 -139.473 174.115 -138.841 175.075 -138.189C176.518 -137.214 176.518 -137.214 177.991 -136.219C185.136 -131.379 192.249 -126.502 199.304 -121.531C200.103 -122.535 200.902 -123.54 201.725 -124.574C207.761 -132.104 213.851 -139.468 220.607 -146.368C222.498 -148.339 224.127 -150.189 225.382 -152.625C225.481 -154.72 225.481 -154.72 223.679 -156.609C222.895 -157.326 222.111 -158.043 221.304 -158.781C218.399 -161.529 215.588 -164.24 212.991 -167.281C209.194 -171.717 205.211 -175.972 201.214 -180.228C197.304 -184.423 197.304 -184.423 197.304 -185.531C201.376 -185.891 203.557 -186.074 206.929 -183.625C208.104 -182.341 208.104 -182.341 209.304 -181.031C210.158 -180.113 211.013 -179.196 211.893 -178.25C212.689 -177.353 213.484 -176.456 214.304 -175.531C214.924 -174.84 215.544 -174.149 216.182 -173.438C217.297 -172.175 218.403 -170.904 219.499 -169.625C223.028 -165.53 226.679 -161.542 230.304 -157.531C233.008 -158.798 235.258 -160.163 237.554 -162.07C238.157 -162.565 238.76 -163.06 239.381 -163.569C240.016 -164.093 240.65 -164.617 241.304 -165.156C247.724 -170.386 254.301 -175.098 261.304 -179.531C260.644 -181.511 259.984 -183.491 259.304 -185.531C262.179 -185.656 262.179 -185.656 265.304 -185.531C265.964 -184.871 266.624 -184.211 267.304 -183.531C268.789 -184.521 268.789 -184.521 270.304 -185.531C272.906 -185.673 275.395 -185.719 277.991 -185.656C279.044 -185.643 279.044 -185.643 280.118 -185.629C281.847 -185.605 283.575 -185.57 285.304 -185.531C286.111 -181.603 286.398 -178.617 285.429 -174.719C285.154 -173.564 285.154 -173.564 284.874 -172.387C284.304 -170.531 284.304 -170.531 283.304 -169.531C285.198 -169.193 287.095 -168.861 288.991 -168.531C290.047 -168.346 291.103 -168.16 292.19 -167.969C294.953 -167.581 297.521 -167.449 300.304 -167.531C300.634 -166.211 300.964 -164.891 301.304 -163.531C304.993 -168.173 306.834 -172.502 306.304 -178.531C305.431 -180.943 304.393 -183.203 303.304 -185.531C307.553 -185.618 311.803 -185.672 316.054 -185.719C317.26 -185.744 318.467 -185.769 319.71 -185.795C320.87 -185.805 322.03 -185.814 323.225 -185.824C324.828 -185.848 324.828 -185.848 326.463 -185.872C329.635 -185.492 330.976 -184.66 333.304 -182.531C335.994 -183.751 335.994 -183.751 338.304 -185.531C340.303 -185.572 342.304 -185.574 344.304 -185.531C343.974 -184.541 343.644 -183.551 343.304 -182.531C343.944 -182.445 344.585 -182.359 345.245 -182.27C351.564 -181.243 355.368 -179.609 360.304 -175.531C364.356 -180.166 364.356 -180.166 367.304 -185.531C368.954 -185.531 370.604 -185.531 372.304 -185.531C371.974 -183.881 371.644 -182.231 371.304 -180.531C372.04 -180.808 372.776 -181.086 373.534 -181.371C374.51 -181.733 375.486 -182.096 376.491 -182.469C377.454 -182.828 378.417 -183.188 379.409 -183.559C386.085 -185.802 392.51 -185.749 399.491 -185.781C400.577 -185.802 401.663 -185.823 402.782 -185.844C409.803 -185.877 415.717 -184.986 422.304 -182.531C422.304 -183.521 422.304 -184.511 422.304 -185.531C423.954 -185.531 425.604 -185.531 427.304 -185.531C427.304 -183.551 427.304 -181.571 427.304 -179.531C427.943 -179.284 428.582 -179.036 429.241 -178.781C431.304 -177.531 431.304 -177.531 432.054 -175.406C432.136 -174.788 432.219 -174.169 432.304 -173.531C431.334 -173.408 430.365 -173.284 429.366 -173.156C427.85 -172.847 427.85 -172.847 426.304 -172.531C425.974 -171.871 425.644 -171.211 425.304 -170.531C426.1 -170.494 426.897 -170.456 427.718 -170.418C433.689 -170.048 438.015 -169.515 443.304 -166.531C447.486 -167.926 448.215 -170.196 450.229 -173.965C451.856 -177.851 452.104 -181.338 452.304 -185.531C453.954 -185.531 455.604 -185.531 457.304 -185.531C457.634 -182.891 457.964 -180.251 458.304 -177.531C459.616 -178.677 460.929 -179.823 462.241 -180.969C463.337 -181.926 463.337 -181.926 464.456 -182.902C465.425 -183.757 466.39 -184.618 467.304 -185.531C469.974 -185.672 472.628 -185.574 475.304 -185.531C471.416 -180.551 467.155 -176.566 462.304 -172.531C461.763 -172.079 461.223 -171.626 460.666 -171.16C444.465 -157.625 427.527 -145.808 409.477 -134.871C406.702 -133.161 403.997 -131.367 401.304 -129.531C429.804 -139.348 458.298 -155.017 474.929 -181.156C476.597 -183.656 476.597 -183.656 478.304 -185.531C482.241 -186.156 482.241 -186.156 485.304 -185.531C482.567 -180.433 479.551 -176.126 475.741 -171.781C475.213 -171.176 474.685 -170.57 474.141 -169.946C464.764 -159.295 454.931 -150.643 443.304 -142.531C445.833 -142.531 447.926 -143.346 450.306 -144.134C458.802 -146.942 467.289 -148.901 476.072 -150.556C493.114 -153.796 509.015 -157.1 523.304 -167.531C522.503 -167.206 522.503 -167.206 521.686 -166.875C513.751 -163.91 506.012 -163.078 498.057 -166.484C493.573 -169.161 490.648 -173.52 489.304 -178.531C489.227 -180.863 489.212 -183.2 489.304 -185.531C490.954 -185.531 492.604 -185.531 494.304 -185.531C494.402 -184.928 494.499 -184.325 494.6 -183.703C495.509 -178.845 496.136 -175.596 500.304 -172.531C503.882 -170.252 506.867 -170.323 511.054 -170.406C512.224 -170.424 513.395 -170.442 514.6 -170.461C515.492 -170.484 516.385 -170.507 517.304 -170.531C517.487 -171.865 517.487 -171.865 517.675 -173.227C518.254 -176.272 519.056 -178.617 520.366 -181.406C520.728 -182.187 521.091 -182.969 521.464 -183.773C521.741 -184.354 522.018 -184.934 522.304 -185.531C524.284 -185.531 526.264 -185.531 528.304 -185.531C526.819 -181.076 526.819 -181.076 525.304 -176.531C526.108 -177.459 526.912 -178.387 527.741 -179.344C528.194 -179.866 528.646 -180.388 529.112 -180.926C530.512 -182.638 530.512 -182.638 531.304 -185.531C536.584 -185.531 541.864 -185.531 547.304 -185.531C546.974 -181.241 546.644 -176.951 546.304 -172.531C548.614 -176.821 550.924 -181.111 553.304 -185.531C558.914 -185.531 564.524 -185.531 570.304 -185.531C570.304 -184.871 570.304 -184.211 570.304 -183.531C566.344 -183.531 562.384 -183.531 558.304 -183.531C559.667 -174.852 559.667 -174.852 564.304 -167.531C567.404 -165.646 567.404 -165.646 570.304 -164.531C570.304 -162.881 570.304 -161.231 570.304 -159.531C569.314 -159.531 568.324 -159.531 567.304 -159.531C566.08 -155.098 566.08 -155.098 567.145 -150.812C567.517 -150.225 567.889 -149.637 568.272 -149.031C571.112 -143.666 570.747 -138.47 570.554 -132.531C570.536 -131.47 570.518 -130.409 570.499 -129.316C570.452 -126.72 570.387 -124.126 570.304 -121.531C566.406 -126.399 566.406 -126.399 564.733 -128.559C558.223 -136.557 549.542 -141.859 539.304 -143.531C526.38 -144.607 515.576 -143.105 505.366 -134.5C496.118 -125.672 491.587 -114.984 489.304 -102.531C491.289 -102.596 493.275 -102.661 495.261 -102.727C497.304 -102.531 497.304 -102.531 500.304 -100.531C499.974 -99.2113 499.644 -97.8913 499.304 -96.5312C498.386 -96.5777 497.468 -96.6241 496.522 -96.6719C486.235 -97.0137 486.235 -97.0137 477.304 -92.5312C472.195 -87.6494 469.547 -82.0928 469.171 -75.0469C469.504 -68.7416 471.309 -63.4591 475.304 -58.5312C482.683 -52.2881 489.408 -50.0588 499.003 -50.2109C504.965 -50.7895 509.394 -52.8542 513.866 -56.7812C514.34 -57.3587 514.815 -57.9362 515.304 -58.5312C514.809 -59.4388 514.314 -60.3463 513.804 -61.2812C512.304 -64.5312 512.304 -64.5312 512.304 -68.5312C514.604 -68.3711 514.604 -68.3711 517.304 -67.5312C518.972 -65.1602 518.972 -65.1602 520.491 -62.0938C527.275 -49.7446 537.348 -41.7 550.616 -37.2188C557.146 -35.3452 563.543 -34.8079 570.304 -34.5312C570.538 -30.5323 570.679 -26.535 570.804 -22.5312C570.871 -21.4059 570.938 -20.2805 571.007 -19.1211C571.201 -10.8147 571.201 -10.8147 568.487 -6.93359C566.515 -4.96149 564.537 -3.19815 562.304 -1.53125C563.067 -0.561874 563.83 0.407501 564.616 1.40625C565.045 1.95152 565.475 2.4968 565.917 3.05859C567.36 4.7403 567.36 4.7403 570.304 5.46875C571.327 9.58325 571.533 13.3962 569.303 17.1553C566.025 21.6033 562.198 25.5613 558.304 29.4688C557.43 30.3466 556.556 31.2245 555.655 32.1289C536.246 50.4932 511.201 68.9336 483.491 68.7812C482.522 68.78 481.553 68.7787 480.555 68.7773C473.8 68.6865 467.629 68.0109 461.304 65.4688C461.174 66.4297 461.174 66.4297 461.042 67.4102C460.016 73.7251 458.46 77.5853 454.304 82.4688C453.644 82.7987 452.984 83.1288 452.304 83.4688C453.294 84.1288 454.284 84.7888 455.304 85.4688C456.168 89.7077 455.579 93.6743 454.179 97.7188C451.329 101.898 448.198 104.837 443.304 106.469C438.464 106.858 433.542 107.118 429.304 104.469C428.491 102.344 428.491 102.344 428.304 100.469C431.314 99.5345 432.17 99.4243 435.304 100.469C440.281 100.837 443.348 100.633 447.304 97.4688C449.066 94.5589 449.631 92.0881 449.929 88.7188C450.003 87.9195 450.078 87.1203 450.155 86.2969C450.204 85.6936 450.253 85.0903 450.304 84.4688C449.334 84.8194 448.365 85.17 447.366 85.5312C442.477 86.9482 436.901 86.7675 432.304 84.4688C432.174 85.6463 432.174 85.6463 432.042 86.8477C430.944 95.0579 429.431 100.27 422.804 105.406C415.796 107.534 408.143 107.8 401.491 104.469C400.439 103.809 399.387 103.149 398.304 102.469C407.29 117.745 418.488 127.701 435.843 132.68C445.247 134.824 454.079 135.809 463.741 135.781C464.879 135.797 466.016 135.813 467.188 135.83C476.039 135.835 485.511 135.098 493.304 130.469C493.634 129.809 493.964 129.149 494.304 128.469C487.649 128.819 481.845 130.455 475.622 132.741C472.051 134.022 469.102 134.751 465.304 134.469C465.809 123.101 473.468 114.09 481.304 106.469C492.849 96.0032 505.346 95.3047 520.241 95.4062C521.497 95.4108 522.753 95.4153 524.048 95.4199C527.133 95.4316 530.218 95.4481 533.304 95.4688C533.036 93.7039 532.753 91.9413 532.464 90.1797C532.308 89.1979 532.152 88.2161 531.991 87.2046C530.994 83.2376 529.058 81.4349 526.304 78.4688C525.491 75.5938 525.491 75.5938 525.304 73.4688C527.604 73.2422 527.604 73.2422 530.304 73.4688C534.368 77.0832 537.179 82.1838 538.304 87.4688C538.381 89.8008 538.393 92.1371 538.304 94.4688C538.304 95.1288 538.304 95.7888 538.304 96.4688C541.793 97.6421 544.651 98.0701 548.304 97.4688C551.407 95.0678 553.939 92.326 556.546 89.418C560.216 85.3407 564.619 82.293 569.304 79.4688C569.634 79.4688 569.964 79.4688 570.304 79.4688C570.663 82.1172 570.663 82.1172 570.304 85.4688C568.417 87.6337 566.738 89.2951 564.554 91.0938C563.475 92.0228 562.397 92.9525 561.319 93.8828C560.324 94.7362 559.329 95.5895 558.304 96.4688C556.984 97.7888 555.664 99.1088 554.304 100.469C562.224 103.934 562.224 103.934 570.304 107.469C570.304 109.449 570.304 111.429 570.304 113.469C569.655 113.212 569.007 112.955 568.339 112.69C551.178 105.94 536.566 101.292 518.054 101.094C516.964 101.079 515.874 101.065 514.751 101.051C502.37 101.127 492.109 103.821 483.108 112.613C479.096 116.958 476.146 121.305 473.304 126.469C474.145 126.226 474.987 125.984 475.854 125.734C495.164 120.521 515.83 117.261 535.866 117.281C536.722 117.282 537.577 117.283 538.459 117.284C544.219 117.338 549.894 117.677 555.616 118.344C556.29 118.422 556.965 118.501 557.659 118.581C562.04 119.155 566.096 120.173 570.304 121.469C570.304 123.119 570.304 124.769 570.304 126.469C569.758 126.378 569.212 126.287 568.649 126.193C538.11 120.837 538.11 120.837 508.304 126.469C509.087 127.314 509.871 128.16 510.679 129.031C514.483 133.657 515.584 138.166 515.054 144.094C514.577 147.455 513.792 150.392 512.304 153.469C515.604 153.799 518.904 154.129 522.304 154.469C522.365 153.438 522.427 152.406 522.491 151.344C523.43 146.865 524.798 144.303 528.304 141.469C540.131 134.132 556.545 130.771 570.304 130.469C570.304 132.119 570.304 133.769 570.304 135.469C569.751 135.559 569.199 135.648 568.63 135.741C556.232 137.803 544.906 140.647 533.304 145.469C532.314 145.799 531.324 146.129 530.304 146.469C529.085 148.973 529.085 148.973 528.304 151.469C528.895 151.616 529.487 151.763 530.097 151.914C536.053 153.605 538.813 155.342 542.304 160.469C543.819 163.499 543.474 166.12 543.304 169.469C542.304 172.406 542.304 172.406 541.304 174.469C548.809 175.19 554.76 173.157 561.304 169.469C563.7 167.453 565.794 165.377 567.878 163.043C568.348 162.523 568.819 162.004 569.304 161.469C569.634 161.469 569.964 161.469 570.304 161.469C570.8 164.616 571.056 166.442 570.304 169.469C565.357 175.431 557.741 178.843 550.304 180.469C548.349 180.56 546.393 180.649 544.436 180.683C538.555 180.613 538.555 180.613 533.343 182.879C531.875 185.045 531.084 186.969 530.304 189.469C529.993 190.443 529.682 191.418 529.362 192.422C527.829 197.894 527.058 202.81 527.304 208.469C526.974 209.129 526.644 209.789 526.304 210.469C523.481 210.166 522.365 209.528 520.304 207.531C513.357 196.894 512.12 184.886 513.304 172.469C514.291 168.295 515.605 164.404 517.304 160.469C512.508 158.903 508.38 157.667 503.304 158.469C494.541 163.74 491.711 172.038 489.304 181.469C487.054 181.531 487.054 181.531 484.304 180.469C479.171 174.139 479.367 165.234 480.011 157.497C480.947 151.007 483.692 144.886 487.304 139.469C486.735 139.61 486.166 139.752 485.58 139.897C478.379 141.529 471.48 141.773 464.116 141.719C462.914 141.72 461.711 141.721 460.472 141.722C454.32 141.683 448.681 141.331 442.679 140.031C432.62 138.357 422.869 142.657 413.357 145.573C398.086 150.051 382.077 151.772 366.304 153.469C365.006 153.616 365.006 153.616 363.682 153.765C355.792 154.584 347.918 154.67 339.991 154.656C339.288 154.655 338.584 154.654 337.86 154.653C278.986 154.484 223.185 136.322 179.304 96.4688C178.888 96.8207 178.473 97.1726 178.046 97.5352C165.617 107.494 150.402 113.785 134.304 112.469C131.179 111.969 131.179 111.969 129.304 111.469C129.634 112.129 129.964 112.789 130.304 113.469C131.41 124.774 128.584 134.314 121.991 143.527C115.816 150.632 107.786 151.979 98.8036 152.781C97.9786 152.678 97.1536 152.575 96.3036 152.469C95.3136 150.984 95.3136 150.984 94.3036 149.469C96.6982 146.978 99.18 144.756 101.866 142.594C105.033 139.929 106.734 137.347 108.304 133.469C107.437 133.128 107.437 133.128 106.554 132.781C102.922 130.663 100.824 128.212 99.6082 124.141C99.113 121.923 98.6748 119.711 98.3036 117.469C97.1486 117.448 95.9936 117.427 94.8036 117.406C89.227 116.743 86.1064 113.331 82.3036 109.469C81.7325 108.94 81.1614 108.412 80.5731 107.867C79.3036 106.469 79.3036 106.469 79.3036 104.469C72.8625 105.428 68.8488 106.707 64.3036 111.469C61.4293 116.13 60.9134 119.982 61.1161 125.344C61.1296 126.032 61.1431 126.72 61.1571 127.43C61.1921 129.11 61.2459 130.789 61.3036 132.469C56.8441 134.031 53.9705 132.628 49.7801 130.836C44.9077 128.146 42.2158 124.459 39.9286 119.469C38.973 114.882 38.8162 110.931 40.3036 106.469C33.0833 107.311 28.1143 108.838 23.3036 114.469C20.7533 118.602 19.5153 122.808 18.3036 127.469C15.8369 127.129 14.5547 126.71 12.7411 124.969C8.96219 118.397 7.74721 111.659 7.80356 104.156C7.80493 103.334 7.8063 102.512 7.80771 101.664C7.98634 94.5128 9.83157 88.7411 13.3036 82.4688C13.6336 81.8087 13.9636 81.1487 14.3036 80.4688C13.7725 80.8787 13.2414 81.2886 12.6942 81.7109C11.6346 82.5192 11.6346 82.5192 10.5536 83.3438C9.85747 83.8774 9.16137 84.4111 8.44419 84.9609C6.45634 86.3611 4.50513 87.4473 2.30356 88.4688C-0.425263 84.3755 -0.181081 81.2683 0.303561 76.4688C2.11683 67.6662 8.06808 61.7214 15.3661 56.9062C25.1986 50.9822 34.6187 45.3648 46.3036 45.2188C47.5204 45.193 48.7373 45.1672 49.9911 45.1406C60.3564 45.5848 69.4326 49.6133 78.5536 54.2188C80.7427 55.2962 82.9328 56.3717 85.1239 57.4453C86.1774 57.9638 87.2308 58.4824 88.3163 59.0166C92.3173 60.9615 96.3541 62.8086 100.429 64.5938C101.607 65.112 102.785 65.6302 103.999 66.1641C111.85 69.2637 120.946 71.9709 129.198 68.7231C134.303 66.2264 139.087 63.1833 143.581 59.707C145.304 58.4688 145.304 58.4688 147.304 58.4688C146.747 57.5226 146.19 56.5764 145.616 55.6016C124.304 18.8938 124.304 18.8938 124.304 2.46875C123.449 2.35468 123.449 2.35468 122.577 2.23828C115.817 -0.0500336 111.069 -8.45499 107.929 -14.4688C101.388 -28.8044 99.5528 -44.4318 104.983 -59.5078C109.184 -69.1272 114.927 -79.3657 124.386 -84.707C127.518 -87.6861 128.125 -91.5816 129.304 -95.6562C138.426 -124.813 154.641 -150.873 175.229 -173.273C177.839 -176.114 180.367 -179.023 182.893 -181.938C186.051 -185.506 186.051 -185.506 188.249 -185.727ZM274.389 -182.125C273.629 -181.629 272.868 -181.132 272.085 -180.621C271.291 -180.096 270.497 -179.572 269.679 -179.031C268.476 -178.244 268.476 -178.244 267.249 -177.441C265.264 -176.142 263.283 -174.839 261.304 -173.531C263.623 -171.985 265.833 -170.669 268.304 -169.406C269.324 -168.876 269.324 -168.876 270.366 -168.336C272.416 -167.339 272.416 -167.339 275.304 -167.531C278.545 -170.871 280.285 -173.995 281.304 -178.531C281.01 -181.803 281.01 -181.803 280.304 -184.531C277.664 -184.531 276.59 -183.57 274.389 -182.125ZM541.304 -184.531C542.304 -181.531 542.304 -181.531 542.304 -181.531L541.304 -184.531ZM311.304 -182.531C311.327 -181.914 311.35 -181.296 311.374 -180.66C311.502 -174.652 310.872 -169.329 309.304 -163.531C310.265 -163.293 310.265 -163.293 311.245 -163.051C317.255 -161.43 321.453 -159.433 326.304 -155.531C330.345 -160.289 333.422 -164.008 333.304 -170.531C331.579 -176.413 329.108 -179.055 324.304 -182.531C321.937 -183.714 320.436 -183.665 317.804 -183.656C317.009 -183.659 316.215 -183.661 315.397 -183.664C313.244 -183.664 313.244 -183.664 311.304 -182.531ZM339.304 -155.531C338.231 -154.69 337.158 -153.851 336.085 -153.012C331.757 -149.624 327.435 -146.229 323.136 -142.805C313.859 -135.417 304.71 -128.284 294.304 -122.531C293.52 -122.08 292.736 -121.629 291.929 -121.164C285.889 -118.037 280.01 -117.738 273.304 -118.531C268.961 -120.055 266.695 -121.636 264.304 -125.531C262.858 -133.854 264.747 -139.683 269.304 -146.531C269.989 -147.855 270.661 -149.186 271.304 -150.531C260.221 -145.414 250.431 -133.445 242.554 -124.281C227.218 -106.446 209.401 -94.757 185.493 -92.8907C180.483 -92.544 175.472 -92.2347 170.459 -91.95C155.289 -91.064 139.896 -89.9187 127.304 -80.5312C126.61 -80.0298 125.917 -79.5284 125.202 -79.0117C116.084 -71.777 109.409 -60.9791 107.304 -49.5312C105.741 -34.6092 108.473 -21.8855 117.304 -9.53125C118.89 -7.69594 120.48 -6.14009 122.304 -4.53125C125.044 -5.83788 127.493 -7.31322 129.991 -9.03125C137.202 -13.5663 145.547 -14.6028 153.872 -13.0532C161.942 -11.165 169.077 -8.12465 176.554 -4.59375C189.041 1.12558 200.396 5.77274 214.304 5.46875C212.819 4.47874 212.819 4.47874 211.304 3.46875C205.651 -0.748199 201.665 -4.43512 200.304 -11.5312C199.357 -18.2555 200.667 -23.795 204.304 -29.5312C209.746 -36.1869 217.364 -38.7543 225.632 -40.0547C238.273 -40.809 250.334 -37.174 262.458 -34.0107C274.293 -30.9317 285.421 -29.1577 297.679 -29.2188C298.867 -29.2244 300.056 -29.23 301.281 -29.2358C315.285 -29.4297 327.692 -32.4046 340.304 -38.5312C340.634 -39.1913 340.964 -39.8513 341.304 -40.5312C340.337 -40.5454 339.37 -40.5596 338.374 -40.5742C328.728 -40.9276 320.821 -41.9037 313.741 -49.1562C310.451 -54.5918 310.739 -60.3616 311.304 -66.5312C313.79 -74.6791 319.727 -80.6756 326.804 -85.0938C327.412 -85.478 328.02 -85.8622 328.646 -86.2581C334.557 -89.8774 340.693 -92.4452 347.304 -94.5312C348.4 -94.8812 348.4 -94.8812 349.518 -95.2383C371.528 -101.11 391.794 -94.8028 412.495 -87.4392C422.067 -84.3443 432.019 -84.5095 441.304 -88.5312C442.667 -89.4894 444.01 -90.4797 445.304 -91.5312C444.265 -91.4848 443.226 -91.4384 442.155 -91.3906C433.138 -91.107 425.122 -91.0793 417.624 -96.8164C414.365 -100.121 413.364 -103.691 413.108 -108.172C413.848 -117.104 420.416 -125.212 426.991 -130.844C427.832 -131.519 427.832 -131.519 428.69 -132.207C430.337 -133.559 431.82 -135.003 433.304 -136.531C429.372 -135.303 425.646 -133.835 421.902 -132.12C403.042 -123.505 384.498 -119.346 363.741 -119.094C362.647 -119.071 361.553 -119.049 360.425 -119.026C353.104 -119.047 346.288 -119.882 340.684 -125.014C337.034 -129.19 335.923 -132.767 336.034 -138.289C337.03 -146.578 342.017 -152.438 348.304 -157.531C361.818 -167.34 376.018 -173.882 392.304 -177.531C393.109 -177.718 393.915 -177.905 394.745 -178.098C398.187 -178.681 401.636 -178.891 405.116 -179.094C405.809 -179.137 406.502 -179.18 407.216 -179.225C408.911 -179.33 410.607 -179.431 412.304 -179.531C412.304 -179.861 412.304 -180.191 412.304 -180.531C385.71 -186.441 359.374 -171.508 339.304 -155.531ZM540.304 -181.531C537.642 -176.985 536.816 -173.793 537.304 -168.531C537.928 -167.178 538.587 -165.839 539.304 -164.531C539.642 -166.426 539.974 -168.322 540.304 -170.219C540.489 -171.274 540.675 -172.33 540.866 -173.418C541.254 -176.18 541.386 -178.749 541.304 -181.531C540.974 -181.531 540.644 -181.531 540.304 -181.531ZM336.304 -175.531C336.315 -174.628 336.327 -173.724 336.339 -172.793C336.348 -171.613 336.357 -170.434 336.366 -169.219C336.378 -168.047 336.389 -166.875 336.401 -165.668C336.304 -162.531 336.304 -162.531 335.304 -159.531C338 -160.828 340.493 -162.245 342.975 -163.914C343.639 -164.359 344.303 -164.804 344.987 -165.262C345.669 -165.722 346.351 -166.182 347.054 -166.656C348.1 -167.358 348.1 -167.358 349.167 -168.074C350.88 -169.224 352.592 -170.378 354.304 -171.531C353.579 -174.855 353.579 -174.855 350.116 -176.219C344.979 -178.219 341.156 -178.14 336.304 -175.531ZM396.304 -173.531C396.304 -172.871 396.304 -172.211 396.304 -171.531C396.944 -171.505 397.585 -171.48 398.245 -171.453C402.785 -171.155 406.304 -170.851 410.179 -168.344C413.035 -166.227 413.035 -166.227 415.491 -166.969C417.781 -168.943 419.542 -171.078 421.304 -173.531C421.304 -173.861 421.304 -174.191 421.304 -174.531C408.558 -176.281 408.558 -176.281 396.304 -173.531ZM553.304 -174.531C551.965 -172.076 550.633 -169.617 549.304 -167.156C548.922 -166.458 548.54 -165.759 548.147 -165.039C546.046 -161.488 546.046 -161.488 545.304 -157.531C550.063 -156.222 553.159 -156.732 557.6 -158.562C559.815 -159.822 560.63 -161.089 561.304 -163.531C560.52 -164.418 559.736 -165.305 558.929 -166.219C556.732 -168.838 555.366 -171.248 554.304 -174.531C553.974 -174.531 553.644 -174.531 553.304 -174.531ZM385.304 -171.531C385.964 -170.871 386.624 -170.211 387.304 -169.531C387.634 -170.191 387.964 -170.851 388.304 -171.531C387.314 -171.531 386.324 -171.531 385.304 -171.531ZM544.304 -170.531C545.304 -168.531 545.304 -168.531 545.304 -168.531L544.304 -170.531ZM378.304 -169.531C369.33 -166.187 369.33 -166.187 362.483 -159.91C361.25 -156.763 360.304 -153.927 360.304 -150.531C360.979 -150.422 361.655 -150.312 362.35 -150.199C363.688 -149.961 363.688 -149.961 365.054 -149.719C365.935 -149.568 366.817 -149.417 367.725 -149.262C370.504 -148.475 372.065 -147.308 374.304 -145.531C374.964 -145.531 375.624 -145.531 376.304 -145.531C376.304 -144.871 376.304 -144.211 376.304 -143.531C381.137 -145.576 383.217 -148.819 385.304 -153.531C386.084 -157.471 385.7 -160.639 384.054 -164.344C382.307 -166.527 380.557 -167.906 378.304 -169.531ZM532.304 -168.531C528.396 -164.571 527.759 -161.705 527.554 -156.219C527.497 -154.964 527.44 -153.71 527.382 -152.418C527.356 -151.465 527.33 -150.513 527.304 -149.531C529.614 -149.531 531.924 -149.531 534.304 -149.531C533.974 -155.801 533.644 -162.071 533.304 -168.531C532.974 -168.531 532.644 -168.531 532.304 -168.531ZM250.304 -165.531C250.387 -164.758 250.471 -163.984 250.557 -163.188C251.156 -157.067 251.353 -151.594 250.304 -145.531C253.151 -144.974 254.539 -144.796 257.304 -145.531C260.044 -147.6 262.437 -149.852 264.874 -152.27C267.221 -154.454 269.503 -155.992 272.304 -157.531C272.009 -161.066 271.555 -162.293 268.929 -164.781C262.861 -168.827 256.711 -168.356 250.304 -165.531ZM390.304 -165.531C389.316 -162.568 389.256 -160.849 389.366 -157.781C389.426 -153.273 388.78 -149.775 387.304 -145.531C388.1 -145.361 388.897 -145.191 389.718 -145.016C395.72 -143.643 400.481 -142.416 405.304 -138.531C410.439 -143.57 414.223 -148.071 414.304 -155.531C413.148 -159.938 411.997 -161.933 408.554 -164.906C402.06 -168.153 396.973 -167.831 390.304 -165.531ZM418.304 -162.531C416.832 -159.587 417.454 -157.157 417.741 -153.906C417.843 -152.718 417.945 -151.529 418.05 -150.305C418.133 -149.389 418.217 -148.474 418.304 -147.531C423.566 -149.197 427.695 -152.462 432.116 -155.656C432.904 -156.22 433.693 -156.783 434.505 -157.363C436.441 -158.748 438.374 -160.137 440.304 -161.531C433.424 -167.138 426.032 -165.951 418.304 -162.531ZM233.304 -151.531C231.466 -149.596 229.898 -147.675 228.304 -145.531C230.073 -145.027 231.844 -144.528 233.616 -144.031C234.602 -143.753 235.588 -143.474 236.604 -143.188C239.326 -142.413 239.326 -142.413 242.304 -142.531C246.29 -147.104 247.361 -151.495 247.304 -157.531C246.974 -158.521 246.644 -159.511 246.304 -160.531C241.554 -160.531 236.717 -154.556 233.304 -151.531ZM292.304 -160.531C289.598 -159.206 289.598 -159.206 286.804 -157.281C285.365 -156.345 285.365 -156.345 283.897 -155.391C278.96 -151.851 277.776 -149.535 276.304 -143.531C277.1 -143.361 277.897 -143.191 278.718 -143.016C284.72 -141.643 289.481 -140.416 294.304 -136.531C297.987 -141.359 300.096 -145.241 299.733 -151.414C299.049 -154.786 297.541 -156.974 295.304 -159.531C294.314 -159.861 293.324 -160.191 292.304 -160.531ZM517.304 -157.531C515.896 -154.972 514.87 -152.4 514.304 -149.531C514.634 -148.541 514.964 -147.551 515.304 -146.531C517.614 -147.191 519.924 -147.851 522.304 -148.531C522.634 -152.491 522.964 -156.451 523.304 -160.531C520.797 -160.531 519.208 -158.982 517.304 -157.531ZM303.304 -157.531C303.315 -156.579 303.327 -155.626 303.339 -154.645C303.348 -153.39 303.357 -152.136 303.366 -150.844C303.378 -149.602 303.389 -148.361 303.401 -147.082C303.318 -144.069 303.012 -141.448 302.304 -138.531C306.81 -137.28 306.81 -137.28 311.194 -138.48C313.127 -139.897 314.937 -141.39 316.741 -142.969C317.377 -143.498 318.013 -144.027 318.669 -144.572C320.229 -145.874 321.768 -147.2 323.304 -148.531C321.729 -152.914 320.191 -154.877 316.304 -157.531C312.183 -158.905 307.306 -159.533 303.304 -157.531ZM356.304 -157.531C353.994 -155.881 351.684 -154.231 349.304 -152.531C349.634 -151.541 349.964 -150.551 350.304 -149.531C353.671 -150.925 355.29 -152.51 357.304 -155.531C356.974 -156.191 356.644 -156.851 356.304 -157.531ZM500.679 -151.031C498.245 -150.206 495.811 -149.381 493.304 -148.531C493.964 -143.251 494.624 -137.971 495.304 -132.531C496.992 -133.983 498.678 -135.437 500.354 -136.902C502.304 -138.531 502.304 -138.531 504.034 -139.691C507.813 -142.295 508.808 -144.515 509.679 -148.844C509.911 -150.403 510.127 -151.965 510.304 -153.531C506.938 -153.531 503.838 -152.109 500.679 -151.031ZM556.304 -153.531C553.909 -153.462 551.512 -153.447 549.116 -153.469C547.844 -153.478 546.571 -153.487 545.261 -153.496C543.797 -153.513 543.797 -153.513 542.304 -153.531C541.974 -151.881 541.644 -150.231 541.304 -148.531C542.138 -148.24 542.972 -147.949 543.831 -147.648C551.035 -145.024 557.142 -142.079 563.304 -137.531C564.294 -136.871 565.284 -136.211 566.304 -135.531C566.964 -136.851 567.624 -138.171 568.304 -139.531C567.52 -140.336 566.736 -141.14 565.929 -141.969C562.732 -145.745 562.018 -149.734 561.304 -154.531C559.093 -154.637 559.093 -154.637 556.304 -153.531ZM344.304 -147.531C341.124 -142.663 339.432 -139.524 340.304 -133.531C342.168 -130.148 342.168 -130.148 344.304 -127.531C347.6 -128.26 347.6 -128.26 349.054 -131.594C350.749 -135.93 350.339 -139.021 349.304 -143.531C348.033 -146.011 348.033 -146.011 346.304 -147.531C345.644 -147.531 344.984 -147.531 344.304 -147.531ZM354.304 -144.531C354.365 -143.438 354.427 -142.345 354.491 -141.219C354.521 -135.735 352.909 -130.731 351.304 -125.531C351.979 -125.398 352.655 -125.266 353.35 -125.129C354.242 -124.952 355.134 -124.776 356.054 -124.594C357.376 -124.333 357.376 -124.333 358.725 -124.066C360.286 -123.742 361.841 -123.384 363.378 -122.961C366.801 -122.197 369.982 -122.405 373.304 -123.531C376.09 -126.994 376.304 -129.099 376.304 -133.531C375.501 -137.952 373.64 -140.479 370.304 -143.531C364.462 -146.549 360.444 -147.186 354.304 -144.531ZM426.128 -124.516C421.27 -119.232 417.159 -112.896 417.304 -105.531C419.117 -100.945 422.093 -98.9371 426.304 -96.5312C435.153 -93.7475 444.191 -95.4152 452.304 -99.5312C458.145 -103.224 458.145 -103.224 462.304 -108.531C464.366 -109.156 464.366 -109.156 466.304 -109.531C465.157 -101.942 460.354 -95.6604 454.413 -90.9414C443.866 -83.8904 432.996 -80.2345 420.304 -81.5312C412.02 -83.2051 404.093 -85.921 396.116 -88.6562C376.982 -95.1863 357.661 -95.3813 339.046 -86.9062C328.479 -81.6077 318.799 -75.7088 314.811 -63.9805C313.98 -59.9732 314.224 -57.0874 316.304 -53.5312C320.277 -49.1409 323.939 -45.9687 329.948 -45.1875C342.471 -44.5699 352.149 -50.0899 361.436 -58.1484C363.412 -59.6118 364.901 -60.1148 367.304 -60.5312C366.6 -53.2618 360.506 -48.1855 355.304 -43.5312C344.935 -35.3668 333.003 -29.9197 320.304 -26.5312C320.304 -26.2012 320.304 -25.8712 320.304 -25.5312C339.956 -22.6727 358.968 -26.9785 375.304 -38.5312C382.488 -44.344 389.162 -50.8186 394.304 -58.5312C395.294 -58.5312 396.284 -58.5312 397.304 -58.5312C396.691 -53.5051 395.641 -48.7759 394.202 -43.918C393.79 -42.4916 393.379 -41.0651 392.968 -39.6387C392.32 -37.4149 391.671 -35.1918 391.018 -32.9695C390.386 -30.8082 389.762 -28.6445 389.139 -26.4805C388.941 -25.8128 388.742 -25.1451 388.537 -24.4572C387.361 -20.9458 387.361 -20.9458 388.304 -17.5312C392.276 -20.8333 396.09 -24.1402 399.429 -28.0938C402.843 -32.1294 406.547 -35.8185 410.304 -39.5312C415.719 -44.8758 415.719 -44.8758 420.804 -50.5312C424.652 -55.0867 428.944 -59.1965 433.179 -63.3875C436.834 -67.019 440.311 -70.727 443.655 -74.6484C445.703 -76.9878 447.828 -79.2354 449.991 -81.4688C450.717 -82.2203 451.443 -82.9718 452.19 -83.7461C454.304 -85.5312 454.304 -85.5312 458.304 -86.5312C457.644 -81.2513 456.984 -75.9713 456.304 -70.5312C458.365 -72.5922 458.879 -73.6884 459.841 -76.3689C460.129 -77.1634 460.417 -77.9579 460.714 -78.7765C461.022 -79.643 461.33 -80.5095 461.647 -81.4023C461.973 -82.3042 462.299 -83.206 462.634 -84.1352C463.696 -87.0779 464.75 -90.0232 465.804 -92.9688C466.889 -95.9851 467.976 -99.0007 469.063 -102.016C469.786 -104.021 470.508 -106.026 471.23 -108.031C473.314 -113.817 475.426 -119.593 477.585 -125.352C477.824 -125.989 478.062 -126.627 478.308 -127.284C479.386 -130.158 480.469 -133.029 481.559 -135.898C481.929 -136.882 482.298 -137.865 482.679 -138.879C483.154 -140.132 483.154 -140.132 483.639 -141.41C484.453 -143.638 484.453 -143.638 484.304 -146.531C464.754 -146.531 440.529 -137.719 426.128 -124.516ZM158.304 -142.531C148.635 -130.621 133.304 -106.202 133.304 -90.5312C134.562 -90.82 135.82 -91.1087 137.116 -91.4062C138.844 -91.7852 140.574 -92.16 142.304 -92.5312C143.476 -92.7837 143.476 -92.7837 144.671 -93.0413C152.673 -94.63 160.671 -95.1421 168.804 -95.5938C171.481 -95.7463 174.158 -95.9051 176.835 -96.0664C178.006 -96.1322 179.177 -96.1981 180.384 -96.2659C183.365 -96.4244 183.365 -96.4244 186.304 -97.5312C188.357 -100.299 189.905 -103.384 191.554 -106.406C192.025 -107.235 192.497 -108.064 192.983 -108.918C193.424 -109.716 193.865 -110.514 194.319 -111.336C194.724 -112.068 195.129 -112.8 195.547 -113.554C196.604 -115.689 196.604 -115.689 195.304 -118.531C193.803 -119.874 193.803 -119.874 191.901 -121.075C191.184 -121.555 190.466 -122.035 189.727 -122.53C188.558 -123.295 188.558 -123.295 187.366 -124.074C186.571 -124.603 185.776 -125.131 184.956 -125.676C183.274 -126.791 181.589 -127.903 179.902 -129.011C177.309 -130.715 174.724 -132.43 172.139 -134.146C170.507 -135.227 168.874 -136.307 167.241 -137.387C166.462 -137.902 165.683 -138.418 164.88 -138.949C164.163 -139.42 163.445 -139.891 162.706 -140.376C161.754 -141.002 161.754 -141.002 160.784 -141.64C159.449 -142.617 159.449 -142.617 158.304 -142.531ZM488.304 -142.531C485.996 -136.305 483.7 -130.075 481.413 -123.842C480.633 -121.721 479.85 -119.6 479.064 -117.481C477.938 -114.44 476.821 -111.396 475.706 -108.352C475.173 -106.923 475.173 -106.923 474.63 -105.466C474.149 -104.145 474.149 -104.145 473.659 -102.797C473.372 -102.02 473.086 -101.243 472.791 -100.442C472.065 -98.4641 472.065 -98.4641 473.304 -96.5312C474.1 -96.9296 474.1 -96.9296 474.913 -97.3359C481.304 -100.531 481.304 -100.531 483.507 -101.289C485.594 -102.441 485.594 -102.441 485.991 -105.219C486.094 -106.312 486.197 -107.405 486.304 -108.531C486.837 -112.989 487.561 -116.543 489.491 -120.594C492.652 -127.759 490.857 -135.118 489.304 -142.531C488.974 -142.531 488.644 -142.531 488.304 -142.531ZM217.304 -135.531C217.613 -134.768 217.922 -134.005 218.241 -133.219C219.854 -129.138 220.537 -125.712 220.866 -121.344C220.95 -120.257 221.034 -119.17 221.12 -118.051C221.181 -117.219 221.241 -116.388 221.304 -115.531C231.432 -116.849 236.203 -123.05 242.304 -130.531C240.688 -134.926 239.39 -137.044 235.304 -139.531C227.984 -141.64 223.682 -139.308 217.304 -135.531ZM380.304 -138.531C380.315 -137.94 380.327 -137.348 380.339 -136.738C380.387 -132.529 380.364 -128.639 379.304 -124.531C384.483 -126 388.647 -128.346 393.179 -131.156C393.867 -131.576 394.555 -131.997 395.264 -132.43C396.947 -133.458 398.626 -134.494 400.304 -135.531C396.692 -139.308 393.47 -140.635 388.241 -140.781C384.668 -140.554 383.278 -140.201 380.304 -138.531ZM247.304 -139.531C246.314 -138.046 246.314 -138.046 245.304 -136.531C246.294 -136.531 247.284 -136.531 248.304 -136.531C248.964 -137.521 249.624 -138.511 250.304 -139.531C249.314 -139.531 248.324 -139.531 247.304 -139.531ZM271.304 -136.531C272.294 -131.911 273.284 -127.291 274.304 -122.531C280.241 -121.344 283.808 -122.233 289.304 -124.531C291.876 -126.508 291.876 -126.508 293.304 -128.531C290.113 -133.864 290.113 -133.864 285.304 -137.531C279.704 -138.794 276.787 -138.725 271.304 -136.531ZM299.304 -133.531C298.314 -133.036 298.314 -133.036 297.304 -132.531C297.304 -131.871 297.304 -131.211 297.304 -130.531C298.954 -131.191 300.604 -131.851 302.304 -132.531C301.314 -132.861 300.324 -133.191 299.304 -133.531ZM267.304 -132.531C268.304 -130.531 268.304 -130.531 268.304 -130.531L267.304 -132.531ZM213.304 -130.531C207.694 -124.33 203.088 -117.978 199.304 -110.531C204.254 -110.531 209.204 -110.531 214.304 -110.531C216.612 -115.149 217.975 -118.828 216.694 -123.984C215.957 -126.196 215.172 -128.368 214.304 -130.531C213.974 -130.531 213.644 -130.531 213.304 -130.531ZM268.304 -129.531C269.304 -127.531 269.304 -127.531 269.304 -127.531L268.304 -129.531ZM193.304 -100.531C193.304 -99.8712 193.304 -99.2113 193.304 -98.5312C199.788 -99.0116 205.495 -100.531 211.304 -103.531C211.634 -104.191 211.964 -104.851 212.304 -105.531C205.114 -109.126 198.744 -105.393 193.304 -100.531ZM450.304 -75.5312C449.168 -74.3306 448.071 -73.0945 446.991 -71.8438C446.051 -70.7551 446.051 -70.7551 445.093 -69.6445C443.116 -67.3094 441.187 -64.9423 439.304 -62.5312C440.294 -62.5312 441.284 -62.5312 442.304 -62.5312C441.977 -56.576 439.418 -53.7759 435.554 -49.5938C431.475 -45.08 427.761 -40.5442 424.304 -35.5312C428.789 -37.1003 432.49 -39.4359 436.429 -42.0312C437.049 -42.4347 437.669 -42.8382 438.307 -43.2539C444.759 -46.9988 444.759 -46.9988 447.69 -53.3633C447.906 -54.3269 448.122 -55.2904 448.345 -56.2832C448.558 -57.2932 448.771 -58.3032 448.991 -59.3438C449.216 -60.3421 449.441 -61.3405 449.673 -62.3691C450.655 -66.8505 451.434 -70.9258 451.304 -75.5312C450.974 -75.5312 450.644 -75.5312 450.304 -75.5312ZM463.304 -72.5312C462.654 -71.1165 462.009 -69.6993 461.366 -68.2812C460.827 -67.0979 460.827 -67.0979 460.276 -65.8906C459.403 -63.773 458.79 -61.7646 458.304 -59.5312C462.386 -61.3282 462.386 -61.3282 465.304 -64.5312C465.249 -67.2949 464.797 -69.7936 464.304 -72.5312C463.974 -72.5312 463.644 -72.5312 463.304 -72.5312ZM455.304 -70.5312C456.304 -67.5312 456.304 -67.5312 456.304 -67.5312L455.304 -70.5312ZM435.304 -59.5312C434.663 -58.8452 434.663 -58.8452 434.009 -58.1453C432.005 -56.0013 429.999 -53.8596 427.991 -51.7188C427.264 -50.9435 426.537 -50.1683 425.789 -49.3696C421.641 -44.9628 417.439 -40.6405 413.116 -36.4062C409.336 -32.6775 406.178 -28.9919 403.304 -24.5312C409.125 -25.8667 411.82 -28.6509 415.616 -32.9688C416.18 -33.5933 416.744 -34.2178 417.325 -34.8613C422.17 -40.269 426.776 -45.8554 431.304 -51.5312C432.961 -53.5394 434.631 -55.5355 436.304 -57.5312C435.809 -58.5212 435.809 -58.5212 435.304 -59.5312ZM457.741 -52.0312C456.729 -51.1959 455.717 -50.3606 454.675 -49.5C453.501 -48.5255 453.501 -48.5255 452.304 -47.5312C453.718 -44.3443 453.718 -44.3443 456.429 -42.2188C460.353 -41.2802 463.332 -41.8582 467.304 -42.5312C466.994 -43.3562 466.685 -44.1812 466.366 -45.0312C465.185 -48.9225 464.721 -52.4929 464.304 -56.5312C462.045 -56.5312 459.335 -53.3508 457.741 -52.0312ZM469.304 -56.5312C468.845 -50.7989 469.647 -47.9783 473.304 -43.5312C477.886 -39.4944 480.184 -38.4214 486.331 -38.3984C488.517 -38.4624 488.517 -38.4624 491.304 -39.5312C491.135 -42.4783 491.135 -42.4783 489.304 -45.5312C486.661 -46.7292 483.981 -47.5299 481.21 -48.3867C477.3 -49.9263 474.748 -52.2424 471.764 -55.1406C470.519 -56.6462 470.519 -56.6462 469.304 -56.5312ZM518.304 -52.5312C517.162 -49.1071 517.354 -48.6835 518.866 -45.5938C520.994 -41.6164 523.209 -39.5784 527.304 -37.5312C530.436 -36.5624 530.436 -36.5624 533.304 -36.5312C533.964 -37.1913 534.624 -37.8513 535.304 -38.5312C534.64 -39.0391 533.976 -39.547 533.292 -40.0703C525.19 -46.3863 525.19 -46.3863 522.304 -50.0312C521.644 -50.8562 520.984 -51.6812 520.304 -52.5312C519.644 -52.5312 518.984 -52.5312 518.304 -52.5312ZM507.116 -47.0938C503.151 -45.7334 499.465 -44.974 495.304 -44.5312C499.29 -39.0937 499.29 -39.0937 505.304 -36.5312C509.109 -36.6636 512.866 -36.8124 516.304 -38.5312C514.819 -43.4812 514.819 -43.4812 513.304 -48.5312C510.942 -48.5312 509.338 -47.8931 507.116 -47.0938ZM384.741 -40.5312C384.1 -39.9744 383.46 -39.4175 382.8 -38.8438C382.306 -38.4106 381.812 -37.9775 381.304 -37.5312C382.232 -37.0672 382.232 -37.0672 383.179 -36.5938C384.554 -35.9062 385.929 -35.2188 387.304 -34.5312C387.964 -37.5013 388.624 -40.4713 389.304 -43.5312C387.425 -43.5312 386.088 -41.7071 384.741 -40.5312ZM446.304 -42.5312C443.809 -38.7894 443.767 -34.8689 444.304 -30.5312C446.347 -25.0459 449.568 -21.158 454.616 -18.1562C458.426 -17.2703 461.455 -17.8789 465.304 -18.5312C464.974 -19.645 464.644 -20.7587 464.304 -21.9062C463.059 -26.7958 463.119 -31.517 463.304 -36.5312C462.64 -36.713 461.976 -36.8948 461.292 -37.082C456.528 -38.4382 452.478 -39.7916 448.304 -42.5312C447.644 -42.5312 446.984 -42.5312 446.304 -42.5312ZM470.304 -38.5312C467.529 -33.2032 466.543 -29.3841 468.304 -23.5312C471.082 -18.453 473.793 -15.3681 479.304 -13.5312C482.987 -13.3997 485.794 -13.3614 489.304 -14.5312C489.14 -15.3795 488.976 -16.2277 488.807 -17.1016C488.294 -20.5958 488.205 -23.8775 488.241 -27.4062C488.25 -28.5587 488.259 -29.7111 488.268 -30.8984C488.28 -31.7673 488.292 -32.6361 488.304 -33.5312C487.109 -33.6956 487.109 -33.6956 485.889 -33.8633C480.156 -34.7212 475.278 -35.4915 470.304 -38.5312ZM432.741 -34.0312C431.729 -33.3816 430.717 -32.7319 429.675 -32.0625C428.892 -31.5572 428.11 -31.0519 427.304 -30.5312C428.725 -27.1502 429.194 -26.5911 432.616 -24.7188C436.479 -23.1441 436.479 -23.1441 441.304 -24.5312C440.644 -28.8212 439.984 -33.1113 439.304 -37.5312C437.066 -37.5312 434.521 -35.1771 432.741 -34.0312ZM213.304 -31.5312C212.644 -30.5412 211.984 -29.5513 211.304 -28.5312C212.1 -28.3495 212.897 -28.1677 213.718 -27.9805C219.279 -26.6611 224.351 -25.4203 229.304 -22.5312C229.984 -23.4594 230.665 -24.3875 231.366 -25.3438C235.827 -30.6723 241.601 -31.8473 248.304 -32.5312C238.644 -37.8976 222.631 -37.5161 213.304 -31.5312ZM494.304 -35.5312C491.669 -30.958 491.65 -26.6918 492.304 -21.5312C494.988 -15.9556 498.923 -12.7446 504.741 -10.6562C508.289 -10.4832 511.004 -11.2622 514.304 -12.5312C515.629 -15.4599 515.629 -15.4599 514.366 -18.0312C512.893 -22.8843 513.142 -27.4975 513.304 -32.5312C512.735 -32.4964 512.167 -32.4616 511.581 -32.4258C505.912 -32.227 502.393 -33.0883 497.304 -35.5312C496.314 -35.5312 495.324 -35.5312 494.304 -35.5312ZM520.304 -35.5312C517.546 -30.9359 516.251 -26.8414 517.304 -21.5312C519.093 -17.2556 521.316 -14.2893 524.991 -11.4688C529.612 -10.161 533.659 -10.3225 538.304 -11.5312C540.918 -13.3846 540.918 -13.3846 542.304 -15.5312C541.809 -16.48 541.314 -17.4288 540.804 -18.4062C538.774 -23.0471 539.033 -27.5552 539.304 -32.5312C538 -32.6047 538 -32.6047 536.671 -32.6797C534.942 -32.7918 534.942 -32.7918 533.179 -32.9062C532.042 -32.9759 530.905 -33.0455 529.733 -33.1172C526.35 -33.5257 523.487 -34.3409 520.304 -35.5312ZM385.304 -33.5312C386.304 -31.5312 386.304 -31.5312 386.304 -31.5312L385.304 -33.5312ZM544.304 -33.5312C542.749 -28.8687 542.759 -25.0437 544.429 -20.4062C546.63 -17.0306 548.664 -14.3204 552.304 -12.5312C557.467 -11.5515 561.833 -11.9307 566.429 -14.5312C567.377 -15.1913 568.326 -15.8513 569.304 -16.5312C568.829 -17.5625 568.355 -18.5938 567.866 -19.6562C566.38 -22.8864 565.816 -26.0193 565.304 -29.5312C563.532 -29.8387 563.532 -29.8387 561.725 -30.1523C560.168 -30.4244 558.611 -30.6965 557.054 -30.9688C555.888 -31.1708 555.888 -31.1708 554.698 -31.377C553.944 -31.5091 553.19 -31.6412 552.413 -31.7773C551.722 -31.8978 551.03 -32.0182 550.318 -32.1423C548.291 -32.5337 546.302 -33.0121 544.304 -33.5312ZM384.304 -31.5312C383.373 -30.4161 382.485 -29.2652 381.616 -28.1016C381.082 -27.3887 380.549 -26.6759 379.999 -25.9414C379.439 -25.1873 378.88 -24.4332 378.304 -23.6562C377.744 -22.9099 377.185 -22.1635 376.608 -21.3945C373.716 -17.6139 373.716 -17.6139 371.304 -13.5312C374.604 -14.1913 377.904 -14.8513 381.304 -15.5312C383.212 -20.9238 384.699 -25.8465 385.304 -31.5312C384.974 -31.5312 384.644 -31.5312 384.304 -31.5312ZM235.241 -23.0312C232.997 -20.6632 232.997 -20.6632 233.304 -17.5312C234.39 -17.5486 234.39 -17.5486 235.499 -17.5664C240.551 -17.6136 245.337 -17.605 250.304 -16.5312C250.675 -17.4388 251.046 -18.3463 251.429 -19.2812C253.565 -22.9851 255.684 -24.3596 259.304 -26.5312C259.304 -26.8613 259.304 -27.1913 259.304 -27.5312C250.528 -29.6587 242.321 -28.8106 235.241 -23.0312ZM421.304 -26.5312C418.196 -21.8085 417.969 -18.3471 418.733 -12.9297C419.89 -8.06648 422.349 -5.35597 426.054 -2.15625C430.202 -0.0819855 432.721 -0.215179 437.304 -0.53125C437.056 -1.55219 437.056 -1.55219 436.804 -2.59375C435.875 -8.04684 436.249 -13.1252 437.304 -18.5312C436.628 -18.7736 435.953 -19.0159 435.257 -19.2656C430.396 -21.0918 426.756 -22.5032 423.304 -26.5312C422.644 -26.5312 421.984 -26.5312 421.304 -26.5312ZM257.679 -19.9688C255.115 -17.6919 255.115 -17.6919 254.304 -14.5312C256.916 -14.8739 259.513 -15.2534 262.116 -15.6562C262.854 -15.7491 263.592 -15.8419 264.352 -15.9375C266.821 -16.2826 266.821 -16.2826 270.304 -17.5312C272.287 -20.3726 272.287 -20.3726 273.304 -23.5312C273.964 -24.5213 274.624 -25.5112 275.304 -26.5312C269.144 -26.5312 262.476 -23.8207 257.679 -19.9688ZM276.304 -20.5312C276.634 -19.8712 276.964 -19.2112 277.304 -18.5312C279.614 -19.5213 281.924 -20.5112 284.304 -21.5312C283.974 -22.8513 283.644 -24.1712 283.304 -25.5312C280.896 -25.5312 278.058 -22.0243 276.304 -20.5312ZM373.491 -32.3438C367.398 -28.3938 361.173 -25.824 354.304 -23.5312C353.607 -23.2953 352.911 -23.0594 352.194 -22.8164C339.633 -19.1394 324.346 -19.7324 311.858 -23.5977C307.583 -24.7206 303.758 -24.7541 299.366 -24.6562C298.587 -24.6472 297.808 -24.6382 297.005 -24.6289C295.104 -24.6056 293.204 -24.5697 291.304 -24.5312C298.168 -14.7727 311.632 -12.0383 322.804 -9.84375C324.536 -9.68906 324.536 -9.68906 326.304 -9.53125C327.031 -9.40878 327.758 -9.28633 328.507 -9.16016C341.082 -7.90648 354.85 -16.7361 364.393 -24.2188C366.382 -25.5854 367.945 -26.1091 370.304 -26.5312C370.304 -24.8813 370.304 -23.2312 370.304 -21.5312C374.228 -25.2319 377.326 -29.0219 380.304 -33.5312C380.304 -34.1913 380.304 -34.8513 380.304 -35.5312C377.362 -35.5312 375.903 -33.9997 373.491 -32.3438ZM205.304 -21.5312C203.49 -17.9033 203.861 -14.2688 204.847 -10.3984C206.232 -6.87267 207.293 -5.00647 210.796 -3.35938C213.29 -2.61037 215.743 -2.00038 218.304 -1.53125C218.644 -3.10907 218.644 -3.10907 218.991 -4.71875C220.113 -8.71413 222.221 -10.7568 225.304 -13.5312C225.964 -14.5213 226.624 -15.5112 227.304 -16.5312C223.432 -21.2095 218.551 -23.1537 212.616 -23.8438C209.9 -23.4767 207.754 -22.7565 205.304 -21.5312ZM407.241 -20.5312C405.584 -19.6959 405.584 -19.6959 403.893 -18.8438C403.039 -18.4106 402.184 -17.9775 401.304 -17.5312C403.542 -13.578 405.088 -11.4382 409.304 -9.53125C410.954 -9.53125 412.604 -9.53125 414.304 -9.53125C414.304 -14.1512 414.304 -18.7713 414.304 -23.5312C411.971 -23.5312 409.24 -21.5414 407.241 -20.5312ZM361.304 -17.1562C360.662 -16.7437 360.02 -16.3313 359.358 -15.9062C356.806 -14.2513 354.46 -12.688 352.304 -10.5312C358.59 -10.2793 358.59 -10.2793 364.304 -12.5312C366.511 -14.7123 368.546 -16.9705 370.304 -19.5312C370.304 -20.1913 370.304 -20.8513 370.304 -21.5312C366.829 -21.5312 364.137 -19.0114 361.304 -17.1562ZM444.304 -19.5312C441.149 -16.3768 440.522 -13.2075 440.175 -8.91016C440.468 -3.50189 443.05 0.304825 446.929 3.90625C450.271 6.10524 451.964 6.58789 455.929 6.53125C456.746 6.52223 457.563 6.5132 458.405 6.50391C459.032 6.49231 459.658 6.4807 460.304 6.46875C460.634 5.80875 460.964 5.14874 461.304 4.46875C460.974 3.47874 460.644 2.48875 460.304 1.46875C460.21 -0.174957 460.174 -1.8224 460.179 -3.46875C460.175 -4.75072 460.175 -4.75072 460.171 -6.05859C460.294 -8.35806 460.659 -10.3277 461.304 -12.5312C460.579 -12.7014 459.855 -12.8716 459.108 -13.0469C453.399 -14.478 448.95 -15.8893 444.304 -19.5312ZM272.636 -8.86719C268.964 -4.49588 268.181 -2.18488 268.304 3.46875C269.051 3.05882 269.799 2.64891 270.569 2.22656C271.554 1.68773 272.539 1.14891 273.554 0.59375C275.015 -0.206757 275.015 -0.206757 276.507 -1.02344C279.304 -2.53125 279.304 -2.53125 281.62 -3.48438C282.176 -3.82985 282.731 -4.17531 283.304 -4.53125C283.789 -7.26572 284.097 -9.78571 284.304 -12.5312C284.605 -13.8721 284.919 -15.2119 285.304 -16.5312C280.694 -16.5312 275.781 -12.0049 272.636 -8.86719ZM291.304 -16.5312C290.604 -15.2671 289.919 -13.9946 289.241 -12.7188C288.858 -12.011 288.475 -11.3034 288.081 -10.5742C287.001 -8.38428 287.001 -8.38428 288.304 -5.53125C289.845 -6.90611 289.845 -6.90611 291.304 -8.53125C291.304 -9.19125 291.304 -9.85126 291.304 -10.5312C292.624 -11.1913 293.944 -11.8513 295.304 -12.5312C294.974 -13.5213 294.644 -14.5112 294.304 -15.5312C293.314 -15.8613 292.324 -16.1913 291.304 -16.5312ZM395.304 -14.5312C392.039 -10.9732 391.511 -7.89116 391.179 -3.19922C391.388 1.27289 392.803 4.78145 395.304 8.46875C399.433 12.1491 401.912 12.6415 407.304 12.4688C407.394 11.2738 407.394 11.2738 407.487 10.0547C408.319 -0.469742 408.319 -0.469742 409.304 -5.53125C408.252 -5.9025 407.2 -6.27374 406.116 -6.65625C401.919 -8.41473 400.06 -10.9872 397.304 -14.5312C396.644 -14.5312 395.984 -14.5312 395.304 -14.5312ZM468.304 -14.5312C464.777 -10.2337 463.702 -7.28558 463.983 -1.70703C464.666 2.93077 466.43 5.68066 469.866 8.78125C473.339 11.1853 475.116 11.6059 479.304 11.5938C480.634 11.5976 480.634 11.5976 481.991 11.6016C484.33 11.62 484.33 11.62 486.304 10.4688C486.058 9.45747 486.058 9.45747 485.807 8.42578C485.216 4.95508 485.208 1.67552 485.241 -1.84375C485.25 -3.09801 485.259 -4.35226 485.268 -5.64453C485.28 -6.59715 485.292 -7.54976 485.304 -8.53125C484.663 -8.62921 484.022 -8.72719 483.362 -8.82812C477.519 -9.83829 473.272 -11.291 468.304 -14.5312ZM225.366 -7.65625C223.446 -4.74658 222.606 -2.95927 222.304 0.46875C227.854 -0.274841 227.854 -0.274841 233.304 -1.53125C233.304 -0.211243 233.304 1.10875 233.304 2.46875C235.944 3.12875 238.584 3.78876 241.304 4.46875C241.551 3.27251 241.799 2.07625 242.054 0.84375C243.296 -4.16029 245.655 -7.88255 249.304 -11.5312C241.404 -15.4808 231.385 -14.3666 225.366 -7.65625ZM247.304 -2.53125C245.825 0.4254 246.243 3.21104 246.304 6.46875C247.085 6.26959 247.085 6.26959 247.882 6.06641C250.932 5.31374 253.992 4.61041 257.054 3.90625C258.224 3.63684 259.395 3.36742 260.6 3.08984C261.492 2.88489 262.384 2.67992 263.304 2.46875C263.402 1.88867 263.499 1.30859 263.6 0.710938C264.622 -4.62772 265.987 -8.22011 269.304 -12.5312C260.276 -13.4049 253.274 -8.85193 247.304 -2.53125ZM380.679 -11.0312C379.676 -10.7528 378.673 -10.4744 377.639 -10.1875C376.869 -9.97093 376.098 -9.75438 375.304 -9.53125C376.921 -5.13808 378.62 -2.52945 382.304 0.46875C385.015 0.888626 385.015 0.888626 387.304 0.46875C387.283 -0.5625 387.262 -1.59375 387.241 -2.65625C387.296 -6.08278 387.649 -9.17697 388.304 -12.5312C385.594 -12.5312 383.286 -11.759 380.679 -11.0312ZM492.304 -10.5312C489.212 -5.50739 488.402 -1.29181 489.304 4.46875C490.644 8.20787 492.531 10.8589 495.679 13.3438C501.396 15.7941 505.472 15.7555 511.304 13.4688C512.637 10.4688 512.637 10.4688 511.304 7.46875C511.234 5.07384 511.219 2.67708 511.241 0.28125C511.25 -0.991058 511.259 -2.26337 511.268 -3.57422C511.28 -4.55003 511.292 -5.52586 511.304 -6.53125C509.948 -6.71301 509.948 -6.71301 508.565 -6.89844C506.796 -7.14981 506.796 -7.14981 504.991 -7.40625C503.819 -7.56866 502.648 -7.73109 501.44 -7.89844C498.304 -8.53125 498.304 -8.53125 495.304 -10.5312C494.314 -10.5312 493.324 -10.5312 492.304 -10.5312ZM545.304 -10.5312C542.196 -4.99165 540.529 -0.369705 542.241 5.90625C542.592 6.75188 542.942 7.5975 543.304 8.46875C547.828 6.06787 551.076 2.96574 554.616 -0.65625C555.441 -1.48189 555.441 -1.48189 556.282 -2.32422C559.039 -4.56262 559.039 -4.56262 560.304 -7.53125C559.724 -7.58023 559.143 -7.62921 558.546 -7.67969C553.864 -8.12775 549.729 -8.82927 545.304 -10.5312ZM128.304 -2.53125C128.304 -1.54124 128.304 -0.551254 128.304 0.46875C138.648 -1.81839 148.986 -4.12506 159.304 -6.53125C149.953 -12.7649 136.34 -9.83176 128.304 -2.53125ZM294.929 -6.53125C289.332 -0.712952 286.856 4.47906 286.87 12.5859C287.17 14.8757 287.17 14.8757 290.304 16.4688C291.005 15.3963 291.706 14.3237 292.429 13.2188C294.973 9.62419 297.517 7.6701 301.304 5.46875C301.139 4.85001 300.974 4.23125 300.804 3.59375C300.103 -0.78595 300.226 -5.10555 300.304 -9.53125C297.531 -9.53125 296.888 -8.44817 294.929 -6.53125ZM305.304 -9.53125C304.119 -5.97771 304.037 -3.26111 304.304 0.46875C305.746 2.18306 305.746 2.18306 307.304 3.46875C307.641 2.92606 307.979 2.38336 308.327 1.82422C308.773 1.1088 309.219 0.393356 309.679 -0.34375C310.119 -1.05145 310.56 -1.75914 311.014 -2.48828C312.085 -4.18558 313.19 -5.86139 314.304 -7.53125C309.849 -8.52126 309.849 -8.52126 305.304 -9.53125ZM518.304 -9.53125C514.994 -4.29115 514.41 0.432159 515.304 6.46875C517.285 10.3607 519.407 13.412 523.304 15.4688C529.736 16.9695 533.313 16.1431 539.304 13.4688C539.14 12.6309 538.976 11.793 538.807 10.9297C538.274 7.26358 538.206 3.79636 538.241 0.09375C538.25 -1.15149 538.259 -2.39671 538.268 -3.67969C538.28 -4.6207 538.292 -5.56172 538.304 -6.53125C537.698 -6.49644 537.092 -6.46164 536.468 -6.42578C529.882 -6.21301 524.492 -7.31908 518.304 -9.53125ZM368.304 -6.53125C364.121 -0.649612 363.25 4.30359 364.304 11.4688C365.815 15.7249 368.22 19.365 372.304 21.4688C374.971 21.72 374.971 21.72 377.304 21.4688C377.341 20.8887 377.378 20.3086 377.417 19.7109C377.845 14.6178 378.765 10.9942 381.304 6.46875C381.304 5.80875 381.304 5.14874 381.304 4.46875C380.396 3.91188 379.489 3.355 378.554 2.78125C374.623 -0.0157928 373.432 -2.27402 371.304 -6.53125C370.314 -6.53125 369.324 -6.53125 368.304 -6.53125ZM325.304 -5.53125C325.469 0.753616 325.469 0.753616 328.366 6.03125C329.325 6.74281 329.325 6.74281 330.304 7.46875C333.255 5.99312 333.373 3.96796 334.429 0.90625C334.782 -0.105667 335.135 -1.11758 335.499 -2.16016C335.897 -3.33385 335.897 -3.33385 336.304 -4.53125C332.674 -4.86125 329.044 -5.19125 325.304 -5.53125ZM354.616 -6.03125C353.404 -5.89203 353.404 -5.89203 352.167 -5.75C351.245 -5.64172 351.245 -5.64172 350.304 -5.53125C348.862 -2.37672 348.862 -2.37672 351.054 1.03125C352.651 3.80283 353.5 4.59993 356.304 6.46875C357.294 6.46875 358.284 6.46875 359.304 6.46875C359.436 5.78168 359.569 5.0946 359.706 4.38672C359.883 3.48566 360.059 2.58461 360.241 1.65625C360.502 0.316269 360.502 0.316269 360.768 -1.05078C361.304 -3.53125 361.304 -3.53125 362.304 -6.53125C359.675 -6.53125 357.222 -6.33336 354.616 -6.03125ZM316.866 -3.21094C311.611 2.85838 309.792 7.9915 309.901 16.0547C310.556 19.9855 312.46 21.7675 315.304 24.4688C317.305 22.4675 318.034 21.0707 319.179 18.5312C320.746 15.2847 322.092 13.3037 325.304 11.4688C324.87 10.3859 324.87 10.3859 324.429 9.28125C324.057 8.35312 323.686 7.425 323.304 6.46875C322.953 5.66437 322.602 4.86 322.241 4.03125C321.202 1.1916 320.721 -1.54219 320.304 -4.53125C318.224 -4.75673 318.224 -4.75673 316.866 -3.21094ZM416.304 -4.53125C413.029 -0.200485 411.4 2.86386 411.304 8.46875C412.499 14.0137 414.786 17.9191 419.304 21.4688C421.735 22.7056 421.735 22.7056 424.304 22.4688C427.216 21.3443 427.216 21.3443 429.304 18.4688C430.08 15.6597 430.552 12.9144 430.944 10.0273C431.304 7.46875 431.304 7.46875 432.304 4.46875C431.651 4.23801 430.999 4.00726 430.327 3.76953C424.741 1.68495 420.636 -0.426727 416.304 -4.53125ZM155.499 -1.78125C154.775 -1.60368 154.051 -1.42612 153.305 -1.24316C151.011 -0.679001 148.72 -0.105286 146.429 0.46875C144.866 0.854797 143.304 1.24022 141.741 1.625C137.927 2.56566 134.115 3.51488 130.304 4.46875C130.805 8.36473 131.317 12.0456 132.651 15.7461C132.922 16.4986 133.194 17.2511 133.473 18.0264C133.768 18.8117 134.062 19.5971 134.366 20.4062C134.676 21.2367 134.986 22.0672 135.306 22.9229C139.575 34.0869 145.044 44.5274 151.054 54.8438C151.418 55.4809 151.783 56.118 152.159 56.7744C154.198 60.1769 155.696 61.8913 159.304 63.4688C159.745 63.1273 160.187 62.7859 160.642 62.4341C168.897 56.0615 177.149 49.7119 185.747 43.8052C189.336 41.3034 192.304 38.624 195.304 35.4688C194.735 34.6438 194.167 33.8188 193.581 32.9688C187.159 23.4392 182.048 13.5574 178.347 2.64844C177.098 0.0401306 176.142 -0.624939 173.554 -1.84375C172.899 -2.16988 172.244 -2.49602 171.569 -2.83203C166.117 -4.51466 160.878 -3.14378 155.499 -1.78125ZM342.304 -3.53125C340.977 -2.07814 340.977 -2.07814 339.741 -0.21875C339.307 0.396133 338.872 1.01102 338.425 1.64453C335.603 6.2354 335.719 11.2594 336.304 16.4688C337.79 20.5014 339.682 23.054 343.304 25.4688C344.294 25.4688 345.284 25.4688 346.304 25.4688C346.557 24.7327 346.811 23.9966 347.073 23.2383C347.417 22.2625 347.761 21.2866 348.116 20.2812C348.453 19.3183 348.789 18.3554 349.136 17.3633C350.283 14.5192 351.657 12.05 353.304 9.46875C352.19 8.75719 352.19 8.75719 351.054 8.03125C347.442 4.66551 346.044 1.01862 344.304 -3.53125C343.644 -3.53125 342.984 -3.53125 342.304 -3.53125ZM272.393 7.23438C267.943 11.8772 266.196 14.986 266.304 21.4688C267.091 23.8925 267.091 23.8925 268.304 25.4688C270.804 24.3145 272.954 23.0261 275.241 21.4688C278.304 19.4688 278.304 19.4688 283.304 17.4688C283.304 12.1888 283.304 6.90875 283.304 1.46875C278.535 1.46875 275.754 4.12781 272.393 7.23438ZM554.643 5.06641C553.508 6.2198 552.374 7.37486 551.241 8.53125C546.43 13.3939 541.565 18.0902 536.304 22.4688C535.704 22.9728 535.105 23.4768 534.487 23.9961C533.098 25.1598 531.702 26.3154 530.304 27.4688C531.667 30.461 533.253 32.759 535.429 35.2188C535.967 35.8323 536.506 36.4459 537.061 37.0781C537.471 37.537 537.881 37.9959 538.304 38.4688C542.205 36.8526 545.019 34.1952 548.054 31.3438C548.845 30.6056 548.845 30.6056 549.653 29.8525C551.208 28.3967 552.756 26.9331 554.304 25.4688C555.103 24.7237 555.902 23.9786 556.725 23.2109C560.841 19.266 563.751 15.5747 566.304 10.4688C564.994 9.13243 563.681 7.79977 562.366 6.46875C561.635 5.72626 560.904 4.98375 560.151 4.21875C557.269 1.48885 557.721 2.06107 554.643 5.06641ZM439.304 3.46875C435.761 7.69705 434.162 10.4981 434.116 16.0312C434.102 16.8163 434.088 17.6013 434.073 18.4102C434.112 20.6931 434.112 20.6931 436.304 22.4688C437.04 21.8307 437.776 21.1926 438.534 20.5352C439.51 19.7089 440.486 18.8826 441.491 18.0312C442.454 17.2075 443.417 16.3838 444.409 15.5352C447.226 13.5244 448.91 12.81 452.304 12.4688C452.122 13.0024 451.94 13.5361 451.753 14.0859C449.81 19.8447 448.02 25.6387 446.304 31.4688C450.444 31.6785 450.444 31.6785 454.304 30.4688C454.28 29.6837 454.257 28.8987 454.233 28.0898C454.131 22.1208 454.258 17.0947 456.304 11.4688C455.723 11.3708 455.143 11.2728 454.546 11.1719C448.305 9.97725 443.885 8.05019 439.304 3.46875ZM184.304 4.46875C184.634 6.11874 184.964 7.76875 185.304 9.46875C185.634 9.46875 185.964 9.46875 186.304 9.46875C186.304 7.81876 186.304 6.16875 186.304 4.46875C185.644 4.46875 184.984 4.46875 184.304 4.46875ZM387.304 6.46875C383.291 10.6726 381.913 13.6263 381.679 19.4688C381.895 24.2715 382.655 27.4709 385.807 31.1328C389.502 34.432 392.4 35.4688 397.304 35.4688C397.413 34.6721 397.523 33.8755 397.636 33.0547C398.493 27.3215 399.264 22.4429 402.304 17.4688C401.772 17.238 401.241 17.0073 400.694 16.7695C395.368 14.3106 392 11.8623 389.304 6.46875C388.644 6.46875 387.984 6.46875 387.304 6.46875ZM191.304 7.46875C189.716 10.6429 190.019 14.0051 190.304 17.4688C191.186 20.3509 191.186 20.3509 192.304 22.4688C192.909 22.4455 193.515 22.4223 194.139 22.3984C200.452 22.2625 206.168 23.0066 212.304 24.4688C212.353 23.8771 212.402 23.2854 212.452 22.6758C212.527 21.8856 212.602 21.0954 212.679 20.2812C212.748 19.504 212.818 18.7266 212.889 17.9258C213.343 15.2325 214.213 12.9653 215.304 10.4688C212.054 9.9639 208.804 9.46573 205.554 8.96875C204.633 8.82567 203.713 8.68257 202.764 8.53516C201.875 8.39981 200.986 8.26445 200.069 8.125C199.252 7.99931 198.435 7.87363 197.594 7.74414C195.026 7.38916 195.026 7.38916 191.304 7.46875ZM218.304 14.4688C217.38 17.2393 217.14 19.0356 217.116 21.9062C217.102 22.6681 217.088 23.4299 217.073 24.2148C217.327 26.7022 218.063 28.3168 219.304 30.4688C220.397 30.1387 221.49 29.8087 222.616 29.4688C227.832 28.1389 232.956 28.2918 238.304 28.4688C238.341 27.7559 238.378 27.043 238.417 26.3086C238.825 20.3694 239.59 15.7775 242.304 10.4688C233.749 5.46094 224.809 6.87305 218.304 14.4688ZM245.866 14.8438C243.402 18.008 242.218 20.3539 242.304 24.4688C243.11 26.9589 244.126 29.1135 245.304 31.4688C246.438 30.85 247.572 30.2312 248.741 29.5938C253.132 27.3787 257.482 26.317 262.304 25.4688C262.262 24.1694 262.221 22.87 262.179 21.5312C262.163 16.6328 263.054 12.187 264.304 7.46875C256.632 6.82944 251.125 9.16963 245.866 14.8438ZM298.304 13.4688C294.32 17.5433 292.292 20.8325 291.304 26.4688C291.486 31.7537 292.544 34.7093 296.304 38.4688C296.964 38.4688 297.624 38.4688 298.304 38.4688C299.453 36.8047 299.453 36.8047 300.554 34.7188C302.962 30.6647 305.215 28.7506 309.304 26.4688C308.829 25.52 308.355 24.5712 307.866 23.5938C305.876 19.0222 305.591 14.3999 305.304 9.46875C302.788 9.46875 300.244 11.9618 298.304 13.4688ZM463.304 10.4688C459.311 14.9451 457.911 18.2724 458.034 24.3438C458.603 28.832 460.482 32.0381 464.034 34.8281C469.243 37.864 473.519 37.7007 479.304 36.4688C480.733 32.1795 480.323 28.0876 480.241 23.5977C480.293 20.9825 480.525 18.943 481.304 16.4688C480.568 16.3708 479.831 16.2728 479.073 16.1719C473.37 15.2979 469.58 14.6072 465.304 10.4688C464.644 10.4688 463.984 10.4688 463.304 10.4688ZM359.304 12.4688C353.891 16.4647 353.891 16.4647 351.304 22.4688C350.767 27.4671 350.721 31.2597 352.929 35.8438C355.509 38.6959 357.94 40.6081 361.304 42.4688C362.294 42.4688 363.284 42.4688 364.304 42.4688C364.402 41.8887 364.499 41.3086 364.6 40.7109C365.628 35.3448 367.013 31.8209 370.304 27.4688C370.634 26.8087 370.964 26.1487 371.304 25.4688C370.396 24.9325 369.489 24.3963 368.554 23.8438C365.182 21.6091 363.377 18.9488 361.304 15.4688C360.644 14.4787 359.984 13.4888 359.304 12.4688ZM325.026 17.6992C321.465 21.3578 320.17 25.5404 319.866 30.5312C320.463 35.9021 322.42 38.8067 326.429 42.3438C328.225 43.6402 328.225 43.6402 330.304 43.4688C330.618 42.8049 330.933 42.141 331.257 41.457C333.557 36.7118 335.745 32.4227 339.304 28.4688C338.54 27.6644 337.777 26.86 336.991 26.0312C333.821 22.276 332.583 18.1496 331.304 13.4688C328.937 13.4688 326.707 16.2258 325.026 17.6992ZM489.304 14.4688C485.576 18.4443 483.806 22.0882 483.304 27.4688C484.151 33.0259 485.958 35.9318 490.304 39.4688C494.312 41.6839 497.77 41.7926 502.304 41.4688C503.985 40.8406 505.655 40.1799 507.304 39.4688C507.22 38.6115 507.136 37.7543 507.05 36.8711C506.515 30.8694 506.065 25.3845 507.304 19.4688C506.674 19.443 506.045 19.4172 505.397 19.3906C499.073 18.9716 494.798 17.623 489.304 14.4688ZM515.304 16.4688C511.174 23.3125 509.647 27.5677 511.304 35.4688C518.033 32.0294 523.553 27.3358 529.304 22.4688C528.974 21.8087 528.644 21.1487 528.304 20.4688C526.38 19.9558 524.454 19.4474 522.507 19.0312C519.999 18.3911 517.688 17.469 515.304 16.4688ZM408.304 18.4688C404.599 22.5345 402.545 25.009 401.991 30.6562C402.374 35.3289 403.977 38.4699 406.304 42.4688C407.294 42.4688 408.284 42.4688 409.304 42.4688C410.965 40.3932 412.421 38.374 413.866 36.1562C414.265 35.5613 414.664 34.9664 415.075 34.3535C416.161 32.7315 417.233 31.1005 418.304 29.4688C418.964 28.4787 419.624 27.4888 420.304 26.4688C419.21 25.8913 418.117 25.3138 416.991 24.7188C413.968 23.012 412.268 21.3634 410.304 18.4688C409.644 18.4688 408.984 18.4688 408.304 18.4688ZM272.901 29.043C269.944 33.5571 269.337 38.1885 270.304 43.4688C271.919 47.022 271.919 47.022 274.304 49.4688C275.294 49.4688 276.284 49.4688 277.304 49.4688C278.465 48.0087 279.624 46.5467 280.764 45.0703C283.423 42.3037 286.81 40.9424 290.304 39.4688C290.087 38.8281 289.87 38.1874 289.647 37.5273C287.963 32.2949 286.945 27.9622 287.304 22.4688C281.511 21.5637 276.644 24.8417 272.901 29.043ZM438.679 26.7812C433.003 32.528 427.469 39.2834 426.304 47.4688C424.984 47.7988 423.664 48.1288 422.304 48.4688C422.883 42.4555 423.527 36.4598 424.304 30.4688C414.362 39.2056 406.787 53.5531 404.304 66.4688C405.355 66.6544 405.355 66.6544 406.429 66.8438C409.304 67.4688 409.304 67.4688 412.116 68.5938C417.578 70.093 421.637 69.3491 426.616 66.7188C430.74 63.2663 432.303 60.4268 432.991 55.1562C433.094 53.9394 433.197 52.7225 433.304 51.4688C434.624 51.4688 435.944 51.4688 437.304 51.4688C437.131 58.2326 435.819 63.298 431.304 68.4688C426.724 72.4103 421.273 73.7374 415.304 73.4688C410.437 72.4601 406.665 71.232 403.304 67.4688C403.304 68.4588 403.304 69.4487 403.304 70.4688C401.324 70.9637 401.324 70.9637 399.304 71.4688C398.314 67.5087 397.324 63.5488 396.304 59.4688C395.314 59.9637 395.314 59.9637 394.304 60.4688C390.63 72.1013 390.994 86.0436 395.304 97.4688C395.964 98.1288 396.624 98.7888 397.304 99.4688C397.304 98.8087 397.304 98.1487 397.304 97.4688C403.304 99.4688 403.304 99.4688 405.425 100.34C410.133 102.176 413.623 102.983 418.514 101.395C422.629 99.2656 424.692 95.8138 426.554 91.7188C427.566 87.3319 427.967 82.9525 428.304 78.4688C431.072 78.9573 433.496 79.5459 436.116 80.5938C440.175 81.7079 443.275 81.683 447.304 80.4688C452.493 77.3357 454.128 74.3889 455.858 68.6523C456.437 66.187 456.437 66.187 456.304 62.4688C454.295 60.7206 454.295 60.7206 451.679 59.2188C446.27 55.6004 441.229 51.9237 439.839 45.2305C439.537 37.8621 441.582 30.5793 443.304 23.4688C441.359 23.4688 439.99 25.5181 438.679 26.7812ZM195.304 28.4688C203.018 38.7016 203.018 38.7016 211.304 48.4688C211.634 48.4688 211.964 48.4688 212.304 48.4688C212.353 47.8887 212.402 47.3086 212.452 46.7109C212.9 42.0295 213.602 37.8939 215.304 33.4688C210.627 29.2303 205.698 26.8377 199.429 26.1562C197.09 26.2842 197.09 26.2842 195.304 28.4688ZM371.304 32.4688C368.706 36.7194 368.61 41.6217 369.304 46.4688C371.511 50.8016 374.129 53.9443 378.304 56.4688C382.013 56.8034 382.013 56.8034 385.304 56.4688C385.402 55.8281 385.499 55.1874 385.6 54.5273C386.611 48.6841 388.063 44.4371 391.304 39.4688C390.784 39.189 390.265 38.9093 389.729 38.6211C384.424 35.5714 381.618 32.5911 378.304 27.4688C375.71 27.4688 373.11 30.6917 371.304 32.4688ZM248.554 35.6562C245.776 39.1286 244.49 42.0099 244.304 46.4688C245.722 51.1982 247.569 54.2492 251.304 57.4688C251.872 57.0588 252.441 56.6489 253.026 56.2266C257.738 52.9385 261.674 50.6666 267.304 49.4688C267.139 48.783 266.974 48.0972 266.804 47.3906C266.241 44.1048 266.243 41.05 266.304 37.7188C266.341 35.6358 266.351 33.5515 266.304 31.4688C265.103 30.0491 265.103 30.0491 261.616 30.2188C256.159 30.3064 252.789 32.287 248.554 35.6562ZM305.921 34.7656C302.587 38.2769 301.157 41.6931 300.866 46.4688C301.075 51.6799 303.643 54.9085 307.366 58.4062C308.325 58.9322 308.325 58.9322 309.304 59.4688C313.05 58.22 313.348 56.6683 315.12 53.3242C317.018 50.349 319.496 48.5744 322.304 46.4688C321.966 45.9841 321.628 45.4994 321.28 45C318.084 40.1968 316.415 36.1288 315.304 30.4688C310.404 30.4688 309.367 31.6005 305.921 34.7656ZM525.304 31.4688C524.551 32.063 523.798 32.6573 523.022 33.2695C516.013 38.7528 508.873 43.9268 501.423 48.8C497.412 51.3473 497.412 51.3473 495.304 55.4688C497.175 58.6516 497.175 58.6516 499.304 61.4688C512.232 58.765 524.412 51.014 534.304 42.4688C533.747 41.5819 533.19 40.695 532.616 39.7812C532.303 39.2824 531.99 38.7835 531.667 38.2695C529.772 35.7672 527.549 33.6548 525.304 31.4688ZM218.632 38.3086C216.275 42.1422 216.69 46.1223 217.304 50.4688C218.337 53.2854 219.476 55.0152 221.304 57.4688C225.032 58.7117 226.519 57.6674 230.03 56.2383C233.708 54.9934 237.448 54.7276 241.304 54.4688C241.292 53.4323 241.28 52.3959 241.268 51.3281C241.259 49.9583 241.25 48.5885 241.241 47.2188C241.233 46.5368 241.224 45.8549 241.216 45.1523C241.199 41.7753 241.247 38.6958 242.304 35.4688C233.618 31.1262 225.69 30.5415 218.632 38.3086ZM339.304 35.4688C335.628 40.3054 334.649 44.0327 334.917 50.1016C335.693 54.8554 338.051 57.5292 341.804 60.3438C344.455 61.7423 344.455 61.7423 348.304 61.4688C348.474 60.8771 348.644 60.2854 348.819 59.6758C350.639 53.741 352.884 49.8885 357.304 45.4688C356.417 45.015 355.53 44.5612 354.616 44.0938C350.078 41.1404 348.381 36.2847 346.304 31.4688C343.7 31.4688 341.224 33.8546 339.304 35.4688ZM445.304 35.4688C444.16 37.7558 444.2 39.0614 444.241 41.5938C444.262 42.8725 444.282 44.1512 444.304 45.4688C446.295 42.4823 447.245 39.8719 448.304 36.4688C447.314 36.1387 446.324 35.8087 445.304 35.4688ZM456.304 35.4688C451.88 39.8928 450.299 43.295 449.304 49.4688C449.376 51.555 449.376 51.555 450.304 53.4688C455.541 57.6445 461.903 60.5927 468.304 62.4688C470.475 62.0909 470.475 62.0909 472.304 61.4688C472.28 60.5999 472.257 59.7311 472.233 58.8359C472.215 57.6835 472.197 56.5311 472.179 55.3438C472.155 54.2068 472.132 53.0698 472.108 51.8984C472.307 48.4112 473.051 45.7134 474.304 42.4688C473.568 42.2986 472.831 42.1284 472.073 41.9531C466.555 40.5826 462.548 39.4397 458.304 35.4688C457.644 35.4688 456.984 35.4688 456.304 35.4688ZM197.304 40.4688C196.586 41.0282 195.868 41.5877 195.128 42.1641C185.962 49.2636 176.648 56.1505 167.296 63.0017C165.289 64.4792 163.295 65.971 161.304 67.4688C167.528 81.2523 182.208 93.4855 193.866 102.719C194.437 103.172 195.009 103.626 195.597 104.094C198.693 106.472 201.598 108.227 205.304 109.469C213.784 97.2326 222.073 84.874 230.304 72.4688C226.675 68.7866 222.936 65.2634 219.116 61.7812C213.35 56.494 207.792 51.0443 202.304 45.4688C200.638 43.8009 198.972 42.1339 197.304 40.4688ZM482.304 40.4688C477.399 46.6432 475.549 50.5486 476.304 58.4688C480.943 56.8292 484.942 54.4 489.116 51.8438C490.155 51.2134 490.155 51.2134 491.216 50.5703C492.914 49.5398 494.609 48.5047 496.304 47.4688C492.586 43.7513 487.134 42.3974 482.304 40.4688ZM393.304 44.4688C390.166 48.4719 390.008 51.4526 390.304 56.4688C391.849 54.1502 393.1 51.9624 394.304 49.4688C395.294 49.4688 396.284 49.4688 397.304 49.4688C398.294 52.4388 399.284 55.4088 400.304 58.4688C403.164 55.6086 404.201 54.2355 405.304 50.4688C405.166 46.219 402.026 43.4639 399.304 40.4688C396.98 40.4688 394.908 43.0552 393.304 44.4688ZM290.491 44.5938C285.318 46.6647 282.459 49.697 279.429 54.3438C278.012 58.2799 278.225 60.4403 279.304 64.4688C281.836 69.3468 284.233 71.3944 289.304 73.4688C289.86 72.5612 290.417 71.6537 290.991 70.7188C294.138 66.2962 297.475 63.8011 302.304 61.4688C301.954 60.8281 301.605 60.1874 301.245 59.5273C298.525 54.3563 296.919 50.2498 296.304 44.4688C294.068 43.067 294.068 43.067 290.491 44.5938ZM358.304 51.4688C354.147 56.1869 352.949 58.9607 353.018 65.1484C353.559 69.5454 356.082 72.2039 359.054 75.2812C362.405 77.0503 365.537 77.1549 369.304 77.4688C369.541 76.5078 369.541 76.5078 369.784 75.5273C371.405 69.5173 373.402 65.3195 377.304 60.4688C376.772 60.2006 376.241 59.9325 375.694 59.6562C369.909 56.447 367.79 53.5805 365.304 47.4688C362.815 47.4688 360.177 50.1094 358.304 51.4688ZM320.304 53.4688C317.108 57.1694 315.517 60.5522 315.147 65.3828C315.442 69.3152 316.892 72.3804 319.304 75.4688C322.423 77.987 325.209 79.4688 329.304 79.4688C329.606 78.7933 329.909 78.1178 330.222 77.4219C332.64 72.2723 334.503 68.7607 339.304 65.4688C339.304 64.8087 339.304 64.1487 339.304 63.4688C338.54 62.8913 337.777 62.3138 336.991 61.7188C333.055 58.4233 331.266 54.472 330.304 49.4688C326.234 49.4688 323.504 51.1213 320.304 53.4688ZM36.3036 52.4688C36.9429 53.1081 37.5823 53.7475 38.2411 54.4062C40.6587 57.9961 40.8482 60.3508 41.0301 64.5781C41.1655 65.514 41.1655 65.514 41.3036 66.4688C43.7189 67.6764 44.6786 67.4194 47.3192 67.0469C63.133 65.0907 78.6859 66.8104 94.3036 69.4688C93.9736 70.7888 93.6436 72.1088 93.3036 73.4688C92.1988 73.2522 91.0941 73.0356 89.9559 72.8125C70.6792 69.2683 47.7557 67.3385 29.3036 75.4688C29.901 76.0701 29.901 76.0701 30.5106 76.6836C36.9685 83.6129 38.7086 90.2259 38.409 99.5977C38.3742 100.215 38.3394 100.833 38.3036 101.469C39.2936 101.469 40.2836 101.469 41.3036 101.469C42.7571 99.7044 42.7571 99.7044 44.0536 97.4062C50.054 87.9918 58.2016 80.9227 69.1395 77.9766C79.6759 76.2856 92.9629 75.5265 102.304 81.4688C102.799 82.9537 102.799 82.9537 103.304 84.4688C99.0056 83.8055 94.8391 82.8742 90.6161 81.8438C79.5013 79.4879 70.2461 80.7799 60.3036 86.4688C54.2049 91.0831 49.438 95.4086 46.3036 102.469C47.2994 102.759 47.2994 102.759 48.3153 103.055C57.0856 105.641 57.0856 105.641 61.3036 107.469C62.1904 106.685 63.0773 105.901 63.9911 105.094C68.5482 101.353 72.955 99.6827 78.8934 99.7422C83.2423 101.053 85.5439 104.612 88.2606 108.086C92.2902 112.786 96.4264 112.881 102.304 113.469C102.402 114.049 102.499 114.629 102.6 115.227C103.732 121.138 105.18 126.074 110.179 129.906C113.256 130.721 115.241 130.326 118.304 129.469C122.017 127.252 122.017 127.252 125.304 124.469C125.86 119.114 125.958 114.754 123.491 109.906C121.356 107.324 121.356 107.324 118.304 105.469C117.616 102.844 117.616 102.844 117.304 100.469C120.693 101.864 123.853 103.196 126.991 105.094C133.356 108.879 141.578 108.243 148.593 106.785C158.591 103.91 167.615 99.5337 175.304 92.4688C171.334 87.7867 171.334 87.7867 167.218 83.2344C161.174 76.7454 156.19 69.8384 151.304 62.4688C148.285 63.084 146.1 64.05 143.518 65.7188C142.823 66.1622 142.128 66.6056 141.411 67.0625C140.695 67.5266 139.979 67.9906 139.241 68.4688C137.815 69.3883 136.386 70.3051 134.956 71.2188C134.327 71.6261 133.698 72.0334 133.049 72.4531C126.461 76.286 117.671 75.176 110.491 73.668C98.1632 70.257 86.6801 64.3082 75.3739 58.4375C64.8949 53.0033 47.5272 44.9863 36.3036 52.4688ZM255.429 60.5312C252.329 64.8165 251.976 66.8543 252.593 72.0078C253.862 76.4033 256.876 79.5354 260.304 82.4688C261.294 82.7987 262.284 83.1288 263.304 83.4688C264.025 82.7056 264.747 81.9425 265.491 81.1562C269.737 77.099 273.705 75.1612 279.304 73.4688C278.664 72.5406 278.025 71.6125 277.366 70.6562C274.926 66.4715 274.707 62.4955 274.479 57.7266C274.552 55.5007 274.552 55.5007 273.304 54.4688C266.168 53.9767 260.318 54.8008 255.429 60.5312ZM27.8856 55.4727C24.9978 57.0978 22.1365 58.7496 19.3036 60.4688C18.5482 60.9264 17.7928 61.384 17.0145 61.8555C11.5545 65.5341 7.81715 70.3583 5.30356 76.4688C5.63356 77.4587 5.96356 78.4488 6.30356 79.4688C6.96098 79.0936 7.6184 78.7185 8.29575 78.332C17.2841 73.4969 26.4477 70.9437 36.3036 68.4688C37.396 63.1148 37.396 63.1148 35.5536 58.0938C32.9437 55.049 31.74 53.8724 27.8856 55.4727ZM484.054 59.7812C482.994 60.4561 482.994 60.4561 481.913 61.1445C481.382 61.5815 480.851 62.0185 480.304 62.4688C480.304 63.1288 480.304 63.7888 480.304 64.4688C486.739 63.9738 486.739 63.9738 493.304 63.4688C492.974 61.8188 492.644 60.1687 492.304 58.4688C488.702 57.1304 487.213 57.7041 484.054 59.7812ZM227.304 62.4688C230.836 66.4177 234.97 69.0096 239.429 71.7812C240.157 72.2485 240.885 72.7158 241.636 73.1973C242.333 73.6336 243.03 74.0699 243.749 74.5195C244.383 74.9182 245.018 75.317 245.671 75.7278C246.479 76.0946 246.479 76.0946 247.304 76.4688C247.964 76.1388 248.624 75.8087 249.304 75.4688C248.974 74.4788 248.644 73.4887 248.304 72.4688C248.235 70.574 248.219 68.6771 248.241 66.7812C248.25 65.7874 248.259 64.7935 248.268 63.7695C248.28 63.0103 248.292 62.251 248.304 61.4688C241.444 58.5805 233.409 57.5845 227.304 62.4688ZM378.304 66.4688C375.507 69.8371 374.055 73.1473 373.804 77.5312C374.552 83.4214 376.705 86.203 381.304 89.8438C384.321 91.7863 384.321 91.7863 388.304 91.4688C388.362 87.198 388.397 82.9273 388.429 78.6562C388.445 77.4413 388.462 76.2264 388.479 74.9746C388.489 73.2296 388.489 73.2296 388.499 71.4492C388.515 69.8389 388.515 69.8389 388.531 68.196C388.507 65.2494 388.507 65.2494 386.304 62.4688C382.857 62.4688 380.958 64.3983 378.304 66.4688ZM297.304 69.4688C294.308 72.8532 292.558 76.0833 291.741 80.5312C292.803 86.0761 294.975 89.4173 299.304 92.8438C301.796 94.1941 303.597 94.8737 306.304 95.4688C306.655 94.8655 307.007 94.2622 307.37 93.6406C310.758 88.156 313.432 85.1698 319.304 82.4688C319.304 81.8087 319.304 81.1487 319.304 80.4688C318.19 79.7572 318.19 79.7572 317.054 79.0312C313.004 75.2582 311.908 70.6678 310.304 65.4688C305.061 65.2503 301.553 66.4013 297.304 69.4688ZM339.304 71.4688C336.202 74.5699 334.532 76.6839 333.304 80.9062C333.304 85.3056 334.058 87.6792 336.304 91.4688C340.506 95.6716 344.451 97.1104 350.304 97.4688C350.523 96.8281 350.742 96.1874 350.968 95.5273C353.223 89.3752 355.775 85.2033 360.304 80.4688C358.726 79.7572 358.726 79.7572 357.116 79.0312C352.379 76.3833 350.522 72.2542 348.304 67.4688C344.182 67.4688 342.564 68.9905 339.304 71.4688ZM234.304 74.4688C233.588 75.5477 232.873 76.6266 232.136 77.7383C231.129 79.2527 230.123 80.767 229.116 82.2812C228.587 83.0799 228.057 83.8786 227.512 84.7014C224.585 89.1017 221.619 93.4673 218.577 97.7891C217.978 98.6452 217.379 99.5014 216.761 100.384C215.593 102.049 214.416 103.708 213.231 105.361C212.702 106.117 212.173 106.873 211.628 107.652C211.154 108.318 210.681 108.984 210.193 109.67C208.964 111.624 208.964 111.624 210.304 114.469C212.079 115.867 212.079 115.867 214.327 117.105C215.174 117.597 216.022 118.088 216.895 118.594C217.813 119.11 218.732 119.625 219.679 120.156C220.617 120.688 221.556 121.22 222.523 121.767C231.492 126.748 240.738 130.79 250.304 134.469C251.399 134.904 251.399 134.904 252.516 135.347C255.58 136.543 257.985 137.469 261.304 137.469C263.16 131.544 265.012 125.617 266.858 119.689C267.487 117.672 268.117 115.656 268.749 113.639C269.657 110.744 270.559 107.847 271.46 104.949C271.744 104.046 272.029 103.143 272.322 102.212C272.582 101.372 272.842 100.531 273.11 99.6648C273.457 98.5556 273.457 98.5556 273.81 97.424C274.426 95.32 274.426 95.32 274.304 92.4688C273.334 92.1284 272.365 91.7881 271.366 91.4375C261.953 88.0605 253.071 84.0706 244.206 79.4521C240.923 77.7551 237.612 76.1156 234.304 74.4688ZM23.3036 78.4688C16.667 85.8427 12.1253 94.1793 12.3739 104.344C12.7154 108.487 13.2085 112.454 14.3036 116.469C14.9636 116.469 15.6236 116.469 16.3036 116.469C17.1846 115.103 18.008 113.699 18.8036 112.281C21.2801 108.358 23.3128 106.644 27.5536 104.781C31.4681 103.104 31.4681 103.104 33.9911 99.7188C34.5104 94.3174 34.866 89.8424 31.7762 85.1484C28.1954 80.8889 28.1954 80.8889 23.3036 78.4688ZM271.304 81.4688C270.273 82.7784 269.267 84.1089 268.304 85.4688C279.444 90.4719 279.444 90.4719 291.304 92.4688C291.099 91.8771 290.894 91.2854 290.682 90.6758C289.304 86.6321 287.986 82.7002 287.304 78.4688C281.26 78.1463 276.496 77.9226 271.304 81.4688ZM360.304 87.4688C357.102 90.7545 356.062 93.017 355.304 97.4688C358.555 97.1902 361.804 96.8936 365.054 96.5938C365.974 96.5151 366.894 96.4365 367.843 96.3555C368.732 96.2717 369.622 96.1879 370.538 96.1016C371.355 96.0283 372.172 95.9549 373.014 95.8794C375.421 95.4477 377.183 94.6655 379.304 93.4688C378.561 93.1181 377.819 92.7675 377.054 92.4062C373.446 89.8644 372.294 87.3768 370.304 83.4688C366.246 83.4688 363.539 85.1991 360.304 87.4688ZM316.155 89.4141C312.928 92.5614 312.928 92.5614 311.304 96.4688C316.668 97.3736 321.807 97.5918 327.241 97.5312C328.02 97.5267 328.8 97.5222 329.602 97.5176C331.503 97.5059 333.403 97.488 335.304 97.4688C334.954 96.9492 334.605 96.4298 334.245 95.8945C329.725 88.9679 329.725 88.9679 329.304 84.4688C324.396 84.4688 319.782 86.13 316.155 89.4141ZM279.304 94.4688C274.213 109.362 269.477 124.293 265.304 139.469C277.266 142.513 289.209 145.526 301.429 147.344C302.226 147.463 303.022 147.583 303.844 147.706C308.374 148.336 312.731 148.578 317.304 148.469C318.557 136.897 319.508 125.351 319.991 113.719C320.039 112.618 320.088 111.517 320.137 110.383C320.175 109.365 320.214 108.346 320.253 107.297C320.304 105.934 320.304 105.934 320.357 104.544C320.542 102.478 320.542 102.478 319.304 101.469C317.462 101.134 315.611 100.856 313.757 100.602C312.6 100.438 311.444 100.274 310.253 100.105C307.834 99.7708 305.414 99.4374 302.995 99.1055C294.98 97.968 287.161 96.4191 279.304 94.4688ZM379.679 98.9688C378.877 99.1118 378.075 99.2549 377.249 99.4023C375.267 99.7563 373.285 100.112 371.304 100.469C371.815 116.242 374.186 131.849 376.304 147.469C388.165 145.658 399.967 143.75 411.616 140.844C412.45 140.638 413.285 140.432 414.144 140.22C417.634 139.319 420.281 138.484 423.304 136.469C421.844 132.697 420.056 131.447 416.554 129.531C403.653 122.057 396.393 110.938 390.304 97.4688C386.719 97.4688 383.199 98.3344 379.679 98.9688ZM340.741 101.969C339.24 102.017 337.74 102.065 336.239 102.113C332.594 102.23 328.949 102.349 325.304 102.469C324.872 107.715 324.445 112.962 324.022 118.21C323.878 119.991 323.732 121.773 323.585 123.554C323.373 126.128 323.166 128.703 322.96 131.277C322.894 132.062 322.829 132.847 322.761 133.655C322.343 138.942 322.248 144.165 322.304 149.469C326.71 149.519 331.117 149.555 335.524 149.579C337.015 149.589 338.506 149.602 339.997 149.62C350.602 149.741 360.814 149.044 371.304 147.469C370.69 137.109 369.573 126.881 368.241 116.594C368.053 115.116 367.864 113.638 367.677 112.16C367.223 108.596 366.765 105.032 366.304 101.469C357.776 101.392 349.263 101.688 340.741 101.969ZM45.3036 107.469C43.7488 110.578 44.0171 113.031 44.3036 116.469C46.8128 121.294 50.0373 124.245 54.3036 127.469C54.6336 127.469 54.9636 127.469 55.3036 127.469C55.3641 126.733 55.4247 125.997 55.4872 125.238C55.5709 124.262 55.6547 123.287 55.7411 122.281C55.8223 121.318 55.9035 120.355 55.9872 119.363C56.2802 116.682 56.7306 114.102 57.3036 111.469C53.3483 108.712 50.0793 107.937 45.3036 107.469ZM500.304 129.469C491.472 138.404 484.752 152.933 484.304 165.469C484.718 168.209 484.718 168.209 485.304 170.469C485.964 170.469 486.624 170.469 487.304 170.469C487.819 169.293 488.335 168.117 488.866 166.906C492.132 160.455 496.228 156.073 503.054 153.531C505.569 152.523 506.967 151.928 508.577 149.73C510.573 145.015 510.959 140.343 509.304 135.469C507.848 132.925 506.505 131.517 504.304 129.469C502.984 129.469 501.664 129.469 500.304 129.469ZM113.304 135.469C111.852 137.256 111.852 137.256 110.616 139.406C110.179 140.117 109.742 140.827 109.292 141.559C108.15 143.406 108.15 143.406 108.304 145.469C112.615 144.985 114.363 143.849 117.116 140.531C118.023 139.466 118.023 139.466 118.948 138.379C120.496 136.587 120.496 136.587 120.304 134.469C116.409 134.258 116.409 134.258 113.304 135.469ZM524.116 159.281C523.518 160.333 522.92 161.385 522.304 162.469C521.931 163.117 521.559 163.766 521.175 164.434C516.72 173.514 516.645 185.48 519.804 195.031C520.299 196.166 520.794 197.3 521.304 198.469C522.951 195.315 524.255 192.092 525.554 188.781C528.081 182.665 531.058 176.55 535.921 171.934C538.362 169.348 538.304 166.91 538.304 163.469C535.773 159.83 533.964 158.677 529.741 157.344C526.272 157.12 526.272 157.12 524.116 159.281Z" fill="#D69B65"/>
</svg>
