<svg width="91" height="96" viewBox="0 0 91 96" fill="none" xmlns="http://www.w3.org/2000/svg">
<g filter="url(#filter0_d_3149_1629)">
<path d="M82.3568 52.2338C83.595 31.8055 68.0423 14.239 47.614 13.0007C27.1857 11.7625 9.61915 27.3152 8.38089 47.7435C7.68524 59.1963 12.2697 69.7453 20.0353 77.028L67.2515 79.8913C75.8394 73.601 81.6623 63.6799 82.3579 52.2271L82.3568 52.2338Z" fill="white"/>
</g>
<path d="M55.4504 13.3964L39.7639 12.4486L39.8489 11.0584C39.9985 8.60138 41.9613 6.64258 44.4196 6.50028C46.8081 6.35993 49.1965 6.50467 51.5498 6.9355C53.9718 7.37113 55.6839 9.55592 55.5343 12.013L55.4492 13.4032L55.4504 13.3964Z" fill="#FF8A00"/>
<path d="M62.4147 22.3528L31.7863 20.4944L31.9516 17.7827C32.2446 12.9857 36.0784 9.15675 40.8757 8.87951C45.5332 8.60616 50.2063 8.89181 54.7924 9.72587C59.5203 10.5842 62.8662 14.843 62.5733 19.64L62.4079 22.3517L62.4147 22.3528Z" fill="url(#paint0_radial_3149_1629)"/>
<path d="M83.4522 52.4285C84.7258 31.3873 68.7055 13.3026 47.6655 12.0222C26.6243 10.7485 8.53955 26.7688 7.25913 47.8088C6.54617 59.6064 11.2645 70.4704 19.2646 77.9672L67.8913 80.9189C76.7335 74.4427 82.7324 64.2249 83.4522 52.4285Z" fill="url(#paint1_linear_3149_1629)"/>
<g opacity="0.1">
<path d="M40.1493 12.2867C24.8797 17.391 13.8167 31.6374 13.0236 47.7607C12.4729 57.2703 15.5269 66.8478 21.3588 74.3767C17.2471 69.5138 14.3311 63.5971 13.0723 57.3034C8.95922 37.8294 20.9826 17.732 40.156 12.2879L40.1493 12.2867Z" fill="#F4F4F4"/>
</g>
<g opacity="0.1">
<path d="M55.4661 13.2114C73.9632 20.9758 83.4553 42.6229 76.79 61.5237C74.7062 67.6413 71.0135 73.1635 66.2581 77.4605C73.0843 70.7364 77.4073 61.5738 78.0788 52.0084C79.3849 35.813 70.105 20.1552 55.4673 13.2046L55.4661 13.2114Z" fill="#F4F4F4"/>
</g>
<path opacity="0.3" d="M48.7131 72.0973C48.2299 70.2899 47.3945 68.5891 46.6021 66.8817C46.0986 65.801 45.6111 64.7091 45.2397 63.5885C45.0751 63.0874 44.2955 63.0512 44.0871 63.5371C43.708 64.411 43.2377 65.2485 42.7383 66.0531C41.8745 67.4421 40.9164 68.7732 40.1223 70.2019C39.4089 71.4845 38.8382 72.868 38.639 74.3152L49.1151 74.9479C49.1115 73.9945 48.9648 73.0236 48.7131 72.0973Z" fill="white"/>
<path d="M69.5451 79.9354C69.3553 83.0741 57.6004 84.9137 43.2973 84.0499C28.9942 83.186 17.5482 79.9323 17.738 76.7937C17.9278 73.655 29.6827 71.8154 43.9858 72.6793C58.2957 73.5443 69.7348 76.7968 69.5451 79.9354Z" fill="url(#paint2_linear_3149_1629)"/>
<path d="M69.5451 79.9354C69.3553 83.0741 57.6004 84.9137 43.2973 84.0498C28.9942 83.186 17.5482 79.9323 17.738 76.7937C17.9278 73.655 29.6827 71.8154 43.9858 72.6793C58.2957 73.5443 69.7348 76.7968 69.5451 79.9354Z" stroke="#FF8A00" stroke-width="0.840604" stroke-miterlimit="10"/>
<path d="M68.3674 82.2507C68.1849 85.2654 56.9014 87.0328 43.156 86.2018C29.4173 85.372 18.4283 82.2522 18.6107 79.2375C18.7932 76.2228 30.0767 74.4554 43.8222 75.2864C57.5609 76.1162 68.5499 79.2359 68.3674 82.2507Z" stroke="#FF8A00" stroke-width="0.840604" stroke-miterlimit="10"/>
<path d="M68.6948 81.3497C68.6334 81.221 68.5177 81.1247 68.3793 81.0801C68.2397 81.0423 68.0909 81.0585 67.9666 81.1346C64.5293 83.2164 54.4033 84.1945 43.3357 83.5231C32.2682 82.8517 22.3321 80.6494 19.1676 78.1742C19.0508 78.0846 18.9045 78.0457 18.7612 78.0698C18.618 78.094 18.4926 78.1768 18.4154 78.3027C18.2349 78.5847 18.1344 78.8874 18.1161 79.1972C17.8825 83.0794 30.8311 85.9645 43.1446 86.7102C55.4582 87.4559 68.6643 86.1569 68.898 82.2747C68.9163 81.9649 68.8523 81.6479 68.7027 81.3441L68.6948 81.3497Z" fill="url(#paint3_radial_3149_1629)"/>
<path d="M38.6467 74.3178C38.6178 74.4867 38.6036 74.6512 38.5881 74.8224C38.4614 76.4558 38.8808 78.1897 39.9772 79.4623C40.5288 80.0992 41.2523 80.5848 42.0455 80.8666C44.8662 81.8574 47.7088 80.2022 48.6784 77.5865C48.9898 76.7428 49.1211 75.8542 49.1228 74.9505L38.6467 74.3178Z" fill="white"/>
<g opacity="0.1">
<path d="M44.8574 61.3594C45.3441 44.954 46.3454 28.3865 47.8506 12.0443C47.3639 28.4496 46.3558 45.016 44.8574 61.3594Z" fill="#F4F4F4"/>
</g>
<g opacity="0.1">
<path d="M43.4357 11.9068C29.38 20.5222 25.4495 41.7274 27.8099 56.979C28.6745 62.4889 30.4003 67.9236 33.355 72.7205C30.1224 68.0847 28.2356 62.6154 27.237 57.0757C24.516 41.8179 28.762 19.867 43.4357 11.9068Z" fill="#F4F4F4"/>
</g>
<g opacity="0.1">
<path d="M52.249 12.4457C65.8357 22.0814 67.4229 44.447 62.8663 59.2374C61.2084 64.6143 58.67 69.8126 54.902 74.0283C58.4105 69.6221 60.7854 64.4445 62.3104 59.0726C66.4954 44.2186 65.1602 22.6959 52.2501 12.4389L52.249 12.4457Z" fill="#F4F4F4"/>
</g>
<path d="M44.0096 72.1643C31.2003 71.3894 17.4576 72.7356 17.2143 76.7552C17.2095 76.8239 17.2182 76.895 17.2415 76.9616L18.131 79.4019C18.2023 79.5949 18.3809 79.7298 18.587 79.7442C18.6208 79.75 18.6569 79.7423 18.6919 79.7413C18.9343 79.7063 19.1211 79.5088 19.1357 79.261C19.1442 79.1303 19.1888 78.9919 19.275 78.8537C20.6313 76.7006 30.1702 74.9683 43.7917 75.7919C57.4132 76.6155 66.6781 79.4887 67.7631 81.8026C67.8357 81.9471 67.861 82.0836 67.8593 82.2154C67.8447 82.4633 68.0026 82.6781 68.2412 82.7468C68.4809 82.8087 68.7294 82.6982 68.8363 82.4801L70.005 80.1628C70.0369 80.0987 70.0552 80.0323 70.06 79.9636C70.3045 75.9372 56.8245 72.9472 44.0164 72.1655L44.0096 72.1643Z" fill="url(#paint4_radial_3149_1629)"/>
<path style="mix-blend-mode:color-dodge" d="M39.6859 84.6748C51.6627 86.6327 63.9748 72.2971 67.1859 52.6552C70.3969 33.0133 63.2909 15.5031 51.3141 13.5452C39.3373 11.5872 27.0251 25.9229 23.8141 45.5648C20.603 65.2067 27.7091 82.7168 39.6859 84.6748Z" fill="url(#paint5_radial_3149_1629)"/>
<defs>
<filter id="filter0_d_3149_1629" x="0.669672" y="12.9316" width="89.3981" height="82.2434" filterUnits="userSpaceOnUse" color-interpolation-filters="sRGB">
<feFlood flood-opacity="0" result="BackgroundImageFix"/>
<feColorMatrix in="SourceAlpha" type="matrix" values="0 0 0 0 0 0 0 0 0 0 0 0 0 0 0 0 0 0 127 0" result="hardAlpha"/>
<feOffset dy="7.64185"/>
<feGaussianBlur stdDeviation="3.82093"/>
<feColorMatrix type="matrix" values="0 0 0 0 0 0 0 0 0 0 0 0 0 0 0 0 0 0 0.65 0"/>
<feBlend mode="normal" in2="BackgroundImageFix" result="effect1_dropShadow_3149_1629"/>
<feBlend mode="normal" in="SourceGraphic" in2="effect1_dropShadow_3149_1629" result="shape"/>
</filter>
<radialGradient id="paint0_radial_3149_1629" cx="0" cy="0" r="1" gradientUnits="userSpaceOnUse" gradientTransform="translate(47.8695 15.8929) rotate(99.7178) scale(7.25021 15.4269)">
<stop stop-color="#FF8A00"/>
<stop offset="1" stop-color="#FF9F05" stop-opacity="0.59"/>
</radialGradient>
<linearGradient id="paint1_linear_3149_1629" x1="51.7981" y1="12.4974" x2="35.8982" y2="128.812" gradientUnits="userSpaceOnUse">
<stop stop-color="#FF8A00"/>
<stop offset="1" stop-color="#FF9F05" stop-opacity="0.91"/>
</linearGradient>
<linearGradient id="paint2_linear_3149_1629" x1="44.71" y1="72.1258" x2="42.5731" y2="84.6033" gradientUnits="userSpaceOnUse">
<stop stop-color="#FF8A00"/>
<stop offset="1" stop-color="#FF9F05" stop-opacity="0.88"/>
</linearGradient>
<radialGradient id="paint3_radial_3149_1629" cx="0" cy="0" r="1" gradientUnits="userSpaceOnUse" gradientTransform="translate(43.2769 82.0787) rotate(99.7178) scale(5.22395 25.2968)">
<stop stop-color="#FF8A00"/>
<stop offset="1" stop-color="#FF9F05" stop-opacity="0.59"/>
</radialGradient>
<radialGradient id="paint4_radial_3149_1629" cx="0" cy="0" r="1" gradientUnits="userSpaceOnUse" gradientTransform="translate(43.7374 77.7504) rotate(99.7178) scale(6.21312 26.3211)">
<stop stop-color="#FF8A00"/>
<stop offset="1" stop-color="#FF9F05" stop-opacity="0.59"/>
</radialGradient>
<radialGradient id="paint5_radial_3149_1629" cx="0" cy="0" r="1" gradientUnits="userSpaceOnUse" gradientTransform="translate(40.2684 51.258) rotate(10.5655) scale(21.9465 36.1073)">
<stop stop-color="#595959"/>
<stop offset="0.65" stop-color="#1B1B1B"/>
<stop offset="1"/>
</radialGradient>
</defs>
</svg>
