<svg width="102" height="102" viewBox="0 0 102 102" fill="none" xmlns="http://www.w3.org/2000/svg">
<g clip-path="url(#clip0_3105_1630)">
<g filter="url(#filter0_d_3105_1630)">
<path d="M50.6286 91.9365C26.8452 91.9365 7.49609 72.5872 7.49609 48.804C7.49609 25.0206 26.8452 5.67148 50.6286 5.67148C74.4118 5.67148 93.7611 25.0206 93.7611 48.804C93.7611 72.5872 74.4118 91.9365 50.6286 91.9365ZM50.6286 8.10148C28.1851 8.10148 9.92609 26.3605 9.92609 48.804C9.92609 71.2475 28.1851 89.5065 50.6286 89.5065C73.0721 89.5065 91.3311 71.2475 91.3311 48.804C91.3311 26.3605 73.0721 8.10148 50.6286 8.10148Z" fill="#FFF9E9"/>
</g>
<path d="M21.1156 88.9142L21.6062 88.4236C21.7958 88.234 21.8905 87.9852 21.8905 87.7361C21.8905 87.487 21.7958 87.2381 21.6062 87.0486L21.2842 86.7266C20.9052 86.3475 20.2883 86.3475 19.9093 86.7266L19.42 87.2159L18.1688 85.9648L18.7504 85.3832C18.9146 85.2192 18.9964 85.0037 18.9964 84.7883C18.9964 84.5726 18.9142 84.3572 18.7504 84.1929L18.5308 83.9736C18.4482 83.8908 18.3508 83.8286 18.2451 83.7869C18.3063 83.7278 18.3447 83.6452 18.3447 83.5538C18.3447 83.4805 18.3192 83.4133 18.2777 83.3588H18.3909C18.5697 83.3588 18.7161 83.2124 18.7161 83.0336C18.7161 82.8548 18.5697 82.7084 18.3909 82.7084H18.044V81.9829C18.2113 81.9701 18.3447 81.8306 18.3447 81.6603C18.3447 81.4898 18.2115 81.3504 18.044 81.3377V77.3543H17.8272V81.3385C17.6639 81.3553 17.535 81.4928 17.535 81.6603C17.535 81.8277 17.6639 81.9652 17.8272 81.982V82.7086H17.4803C17.3015 82.7086 17.1551 82.855 17.1551 83.0338C17.1551 83.2126 17.3015 83.359 17.4803 83.359H17.602C17.5607 83.4137 17.535 83.4807 17.535 83.5541C17.535 83.6444 17.5724 83.7262 17.6322 83.7851C17.5242 83.8268 17.4246 83.8894 17.3401 83.9738L17.1206 84.1931C16.7922 84.5216 16.7924 85.0556 17.1206 85.3834L17.7022 85.965L16.451 87.2161L15.9617 86.7268C15.5826 86.3477 14.9658 86.3477 14.5868 86.7268L14.2648 87.0488C13.8857 87.4279 13.8857 88.0449 14.2648 88.4238L14.7554 88.9144L14.295 89.3749C13.8987 89.7712 13.8987 90.4137 14.295 90.81L14.5868 91.1018C14.7969 91.312 15.0863 91.4143 15.3876 91.3803C15.6209 91.3539 15.8325 91.231 15.9986 91.065L16.451 90.6126L17.6631 91.8248L17.0903 92.3978C16.7723 92.7156 16.7723 93.2704 17.0903 93.5881L17.3096 93.8076C17.6378 94.1357 18.1718 94.1357 18.4999 93.8076L18.7194 93.5881C18.8836 93.4239 18.9654 93.2084 18.9654 92.993C18.9654 92.7775 18.8834 92.5619 18.7194 92.3978L18.1769 91.8551L19.4196 90.6124L19.9089 91.1016C20.0925 91.2853 20.3367 91.3865 20.5963 91.3865C20.856 91.3865 21.1002 91.2853 21.2838 91.1016L21.6058 90.7797C21.7953 90.5901 21.8901 90.3412 21.8901 90.0922C21.8901 89.8431 21.7953 89.5942 21.6058 89.4047L21.1156 88.9142ZM17.6866 88.9142L16.4528 90.1481L15.2206 88.9156L16.4544 87.6818L17.6866 88.9142ZM17.9357 89.1631L19.1695 90.3969L17.9357 91.6308L16.7019 90.3969L17.9357 89.1631ZM19.4184 90.1479L18.1846 88.914L19.4184 87.6802L20.6522 88.914L19.4184 90.1479ZM17.9357 88.6651L16.7033 87.4327L17.9369 86.1989L19.1693 87.4313L17.9357 88.6651ZM20.1407 86.9581C20.392 86.7068 20.8011 86.7068 21.0526 86.9581L21.3746 87.28C21.6259 87.5316 21.6259 87.9404 21.3746 88.1919L20.8839 88.6826L19.6501 87.4487L20.1407 86.9581ZM17.3527 84.4242L17.5722 84.2049C17.6694 84.1077 17.7986 84.0542 17.9357 84.0542C18.073 84.0542 18.2022 84.1077 18.2992 84.2049L18.5187 84.4242C18.7192 84.6247 18.719 84.9507 18.5187 85.1512L17.9357 85.7342L17.3527 85.1512C17.1522 84.9509 17.1518 84.6249 17.3527 84.4242ZM14.4966 88.1919C14.2453 87.9404 14.2453 87.5316 14.4966 87.28L14.8186 86.9581C15.0699 86.7068 15.479 86.7068 15.7303 86.9581L16.2209 87.4487L14.9871 88.6826L14.4966 88.1919ZM15.7305 90.8702C15.6088 90.9919 15.4468 91.0591 15.2746 91.0591C15.1025 91.0591 14.9405 90.9921 14.8188 90.8702L14.4968 90.5482C14.3713 90.4224 14.3083 90.2574 14.3083 90.0924C14.3083 89.9273 14.3713 89.7623 14.4968 89.6365L14.9875 89.1459L16.2213 90.3797L15.7305 90.8702ZM18.4881 93.3565L18.2686 93.576C18.0681 93.7763 17.7421 93.7763 17.5416 93.576L17.3223 93.3565C17.2251 93.2593 17.1719 93.1303 17.1719 92.993C17.1719 92.8557 17.2253 92.7267 17.3223 92.6295L17.9053 92.0465L18.4883 92.6295C18.6886 92.83 18.6886 93.156 18.4881 93.3565ZM21.3746 90.5482L21.0526 90.8702C20.9309 90.9919 20.7689 91.0591 20.5968 91.0591C20.4244 91.0591 20.2626 90.9921 20.1409 90.8702L19.6515 90.3809L20.8853 89.1471L21.3746 89.6363C21.6257 89.8876 21.6259 90.2965 21.3746 90.5482Z" fill="#FFF9E9"/>
<path d="M18.0367 95.4345V95.1504H18.3835C18.5623 95.1504 18.7088 95.004 18.7088 94.8252C18.7088 94.6464 18.5623 94.5 18.3835 94.5H17.4731C17.2943 94.5 17.1479 94.6464 17.1479 94.8252C17.1479 95.004 17.2943 95.1504 17.4731 95.1504H17.82V95.4345H17.4761L17.0039 98.3987C17.0039 98.3987 17.4808 98.7023 18.0879 98.6589C18.6948 98.6156 18.9117 98.3121 18.9117 98.3121L18.3607 95.4347H18.0367V95.4345Z" fill="#FFF9E9"/>
<path d="M85.3087 88.9142L85.7994 88.4236C85.9889 88.234 86.0837 87.9852 86.0837 87.7361C86.0837 87.487 85.9889 87.2381 85.7994 87.0486L85.4772 86.7266C85.0981 86.3475 84.4813 86.3475 84.1022 86.7266L83.613 87.2159L82.3617 85.9648L82.9433 85.3832C83.1073 85.2192 83.1894 85.0037 83.1894 84.7883C83.1894 84.5726 83.1071 84.3572 82.9433 84.1929L82.7238 83.9736C82.6412 83.8908 82.5438 83.8286 82.4381 83.7869C82.4992 83.7278 82.5377 83.6452 82.5377 83.5538C82.5377 83.4805 82.5122 83.4133 82.4707 83.3588H82.5839C82.7627 83.3588 82.9091 83.2124 82.9091 83.0336C82.9091 82.8548 82.7627 82.7084 82.5839 82.7084H82.237V81.9829C82.4043 81.9701 82.5377 81.8306 82.5377 81.6603C82.5377 81.4898 82.4045 81.3504 82.237 81.3377V77.3543H82.0203V81.3385C81.8571 81.3553 81.7281 81.4928 81.7281 81.6603C81.7281 81.8277 81.8571 81.9652 82.0203 81.982V82.7086H81.6734C81.4946 82.7086 81.3482 82.855 81.3482 83.0338C81.3482 83.2126 81.4946 83.359 81.6734 83.359H81.7951C81.7538 83.4137 81.7281 83.4807 81.7281 83.5541C81.7281 83.6444 81.7656 83.7262 81.8253 83.7851C81.7174 83.8268 81.6177 83.8894 81.5335 83.9738L81.314 84.1931C80.9855 84.5216 80.9857 85.0556 81.314 85.3834L81.8956 85.965L80.6443 87.2161L80.1551 86.7268C79.776 86.3477 79.1592 86.3477 78.7801 86.7268L78.4581 87.0488C78.0791 87.4279 78.0791 88.0449 78.4581 88.4238L78.9488 88.9144L78.4883 89.3749C78.092 89.7712 78.092 90.4137 78.4883 90.81L78.7801 91.1018C78.9903 91.312 79.2799 91.4143 79.581 91.3803C79.8143 91.3539 80.0261 91.231 80.1919 91.065L80.6443 90.6126L81.8565 91.8248L81.2836 92.3978C80.9657 92.7156 80.9657 93.2704 81.2836 93.5881L81.5029 93.8076C81.8312 94.1357 82.3652 94.1357 82.6932 93.8076L82.9127 93.5881C83.077 93.4239 83.159 93.2084 83.159 92.993C83.159 92.7775 83.077 92.5619 82.9127 92.3978L82.3702 91.8551L83.613 90.6124L84.1022 91.1016C84.2859 91.2853 84.5301 91.3865 84.7897 91.3865C85.0493 91.3865 85.2935 91.2853 85.4772 91.1016L85.7994 90.7797C85.9889 90.5901 86.0837 90.3412 86.0837 90.0922C86.0837 89.8431 85.9889 89.5942 85.7994 89.4047L85.3087 88.9142ZM81.8798 88.9142L80.646 90.1481L79.4137 88.9156L80.6476 87.6818L81.8798 88.9142ZM82.1289 89.1631L83.3627 90.3969L82.1289 91.6308L80.895 90.3969L82.1289 89.1631ZM83.6118 90.1479L82.3779 88.914L83.6118 87.6802L84.8456 88.914L83.6118 90.1479ZM82.1289 88.6651L80.8964 87.4327L82.1301 86.1989L83.3625 87.4313L82.1289 88.6651ZM84.3339 86.9581C84.5852 86.7068 84.9942 86.7068 85.2457 86.9581L85.5679 87.28C85.8192 87.5316 85.8192 87.9404 85.5679 88.1919L85.0773 88.6826L83.8434 87.4487L84.3339 86.9581ZM81.5459 84.4242L81.7654 84.2049C81.8626 84.1077 81.9918 84.0542 82.1289 84.0542C82.2662 84.0542 82.3951 84.1077 82.4923 84.2049L82.7119 84.4242C82.9123 84.6247 82.9119 84.9507 82.7119 85.1512L82.1289 85.7342L81.5459 85.1512C81.3454 84.9509 81.3452 84.6249 81.5459 84.4242ZM78.69 88.1919C78.4387 87.9404 78.4387 87.5316 78.69 87.28L79.012 86.9581C79.2633 86.7068 79.6723 86.7068 79.9238 86.9581L80.4145 87.4487L79.1807 88.6826L78.69 88.1919ZM79.9238 90.8702C79.8019 90.9919 79.6401 91.0591 79.468 91.0591C79.2959 91.0591 79.1339 90.9921 79.0122 90.8702L78.6902 90.5482C78.5647 90.4224 78.5017 90.2574 78.5017 90.0924C78.5017 89.9273 78.5647 89.7623 78.6902 89.6365L79.1809 89.1459L80.4147 90.3797L79.9238 90.8702ZM82.6813 93.3565L82.4618 93.576C82.2613 93.7763 81.9353 93.7763 81.7348 93.576L81.5155 93.3565C81.4183 93.2593 81.3648 93.1303 81.3648 92.993C81.3648 92.8557 81.4183 92.7267 81.5155 92.6295L82.0983 92.0465L82.6813 92.6295C82.8818 92.83 82.8818 93.156 82.6813 93.3565ZM85.5677 90.5482L85.2455 90.8702C85.1238 90.9919 84.9618 91.0591 84.7897 91.0591C84.6176 91.0591 84.4556 90.9921 84.3339 90.8702L83.8448 90.3809L85.0787 89.1471L85.5679 89.6363C85.819 89.8876 85.8192 90.2965 85.5677 90.5482Z" fill="#FFF9E9"/>
<path d="M82.2437 95.4345V95.1504H82.5906C82.7694 95.1504 82.9158 95.004 82.9158 94.8252C82.9158 94.6464 82.7694 94.5 82.5906 94.5H81.6801C81.5013 94.5 81.3549 94.6464 81.3549 94.8252C81.3549 95.004 81.5013 95.1504 81.6801 95.1504H82.027V95.4345H81.6832L81.2109 98.3987C81.2109 98.3987 81.6878 98.7023 82.2947 98.6589C82.9016 98.6156 83.1185 98.3121 83.1185 98.3121L82.5675 95.4347H82.2437V95.4345Z" fill="#FFF9E9"/>
<path d="M43.8995 9.0288C44.2069 8.97817 44.5115 8.90973 44.8211 8.87409L44.6818 7.93267C44.0874 8.01853 43.4982 8.138 42.9062 8.24006L43.2416 9.96455L44.6149 9.71872C45.0742 9.64642 45.5369 9.59722 45.9978 9.53545L45.7886 7.79112C46.0938 7.7569 46.3971 7.70404 46.7037 7.68541L47.6221 7.61494L47.7513 9.36697C48.6516 9.27787 49.5563 9.28233 50.4597 9.25357L50.4528 7.49689L48.7654 7.53961L48.8085 8.49015L49.6325 8.46909" stroke="#FFF9E9" stroke-width="0.30375" stroke-miterlimit="10"/>
<path d="M49.6856 10.8603L48.8079 10.8822L48.8537 11.8327L50.4638 11.792L50.4569 10.0352C49.546 10.0623 48.634 10.0627 47.7264 10.1524L47.8592 11.9042L47.0383 11.9664C46.7649 11.9897 46.4937 12.0332 46.2214 12.0652L46.0088 10.3213C45.5701 10.3812 45.1289 10.4246 44.6923 10.4977L43.3848 10.7318L43.7201 12.4562C44.2154 12.37 44.7093 12.275 45.2054 12.194L45.0633 11.253C44.8079 11.2905 44.555 11.3421 44.3007 11.3856" stroke="#FFF9E9" stroke-width="0.30375" stroke-miterlimit="10"/>
<path d="M36.4725 11.0847C36.7637 10.9739 37.0488 10.847 37.3463 10.7534L37.0245 9.85796C36.7378 9.94847 36.4622 10.069 36.1817 10.1765L35.3438 10.5076L36.0116 12.1324L37.3092 11.6199C37.747 11.4638 38.1893 11.3192 38.6291 11.1685L38.0816 9.49933C38.6597 9.28994 39.2558 9.13827 39.8457 8.96655L40.3159 10.6592L40.968 10.4738L41.6281 10.3195C42.069 10.2194 42.508 10.1113 42.9503 10.0183L42.6013 8.29648C42.0508 8.41373 41.5032 8.54697 40.9542 8.67232L41.1824 9.59612L41.986 9.41003" stroke="#FFF9E9" stroke-width="0.30375" stroke-miterlimit="10"/>
<path d="M42.5019 11.7434L41.647 11.9411L41.8778 12.8643C42.4009 12.746 42.9219 12.6184 43.446 12.5056L43.0971 10.7838C42.6514 10.8777 42.2089 10.9869 41.7648 11.0875C41.5433 11.1408 41.3199 11.1859 41.1002 11.2457L40.4431 11.4328L40.9168 13.1245C40.3895 13.2753 39.8589 13.4155 39.3433 13.6034L38.7923 11.9352C38.374 12.0798 37.9518 12.2144 37.5362 12.3667L36.3008 12.8548L36.9686 14.4796C37.4374 14.2984 37.9013 14.1036 38.3738 13.9316L38.0494 13.037C37.8045 13.1186 37.568 13.2233 37.3271 13.315" stroke="#FFF9E9" stroke-width="0.30375" stroke-miterlimit="10"/>
<path d="M29.5896 14.5594C29.8537 14.3944 30.1096 14.2162 30.3806 14.0623L29.8897 13.247C29.3754 13.5564 28.876 13.8908 28.3691 14.2123L29.3415 15.6754L30.5156 14.9221C30.9109 14.6775 31.3194 14.4545 31.7207 14.2196L30.8564 12.6902C31.3829 12.3734 31.935 12.1031 32.4809 11.8216L33.2743 13.389L33.8775 13.0798C34.0813 12.9822 34.2886 12.892 34.494 12.7977C34.9067 12.6134 35.3153 12.42 35.7312 12.2434L35.0504 10.6238C34.533 10.8456 34.0229 11.0847 33.5092 11.3154L33.9146 12.1764L34.6659 11.8362" stroke="#FFF9E9" stroke-width="0.30375" stroke-miterlimit="10"/>
<path d="M35.6265 14.0225L34.8271 14.3844L35.2349 15.2442C35.7247 15.0257 36.2101 14.7973 36.7026 14.5848L36.0218 12.9652C35.6026 13.1436 35.1907 13.3384 34.7748 13.5241C34.5683 13.6201 34.3575 13.7072 34.1545 13.8107L33.5464 14.1225L34.3431 15.6885L33.6106 16.0637C33.3648 16.1858 33.1331 16.3338 32.8936 16.4675L32.0263 14.9396C31.6448 15.1642 31.2539 15.3736 30.8797 15.6101L29.7617 16.3275L30.7341 17.7906L32.0056 16.9778L31.5125 16.1639C31.2922 16.2982 31.0774 16.4416 30.8593 16.5799" stroke="#FFF9E9" stroke-width="0.30375" stroke-miterlimit="10"/>
<path d="M23.4971 19.3091L24.1743 18.6656L23.5346 17.9611L22.2305 19.2026L23.4677 20.4496L24.4772 19.4869C24.6426 19.3235 24.8176 19.1704 24.9946 19.0196L25.5217 18.5627L24.377 17.2301C24.6107 17.031 24.8375 16.8239 25.077 16.6321L25.8007 16.0625L26.8839 17.4455C27.5827 16.8712 28.3365 16.3701 29.0689 15.8409L28.0849 14.3856L26.709 15.364L27.2743 16.1295L27.9458 15.6514" stroke="#FFF9E9" stroke-width="0.30375" stroke-miterlimit="10"/>
<path d="M29.3257 17.6043L28.6103 18.1129L29.1777 18.8768L30.4895 17.9433L29.5055 16.4879C28.766 17.0201 28.0091 17.5289 27.3044 18.1077L28.3904 19.4887L27.7428 19.9972L27.1197 20.5355L25.9723 19.2052L25.4703 19.6402L25.2194 19.8579L24.979 20.0871L24.0176 21.0038L25.2549 22.251L26.3475 21.2092L25.7058 20.5065L25.1453 21.0413" stroke="#FFF9E9" stroke-width="0.30375" stroke-miterlimit="10"/>
<path d="M18.465 25.1425L19.0069 24.3813L18.2431 23.8139L17.1992 25.2814L18.6546 26.2654C19.1971 25.5102 19.7171 24.7381 20.3076 24.0188L18.9265 22.9328L19.4962 22.2093L20.0972 21.5117L21.4274 22.659L21.8713 22.1467L22.0934 21.8908L22.3273 21.6453L23.2629 20.6642L22.0157 19.4269L20.8509 20.6488L21.5536 21.2903L22.1222 20.6936" stroke="#FFF9E9" stroke-width="0.30375" stroke-miterlimit="10"/>
<path d="M23.8479 22.3426L23.2427 22.9784L23.9472 23.6181L25.0579 22.4519L23.8107 21.2147L22.8674 22.2039C22.707 22.3659 22.5572 22.5374 22.4094 22.7109L21.9618 23.2275L23.2945 24.3722C23.1167 24.5812 22.9304 24.7833 22.7591 24.9978L22.2504 25.6454L20.8673 24.5622C20.3044 25.2466 19.8139 25.9856 19.2949 26.703L20.7503 27.687L21.6255 26.4572L20.86 25.8918L20.4111 26.523" stroke="#FFF9E9" stroke-width="0.30375" stroke-miterlimit="10"/>
<path d="M14.6438 31.846L15.0296 30.9947L14.1698 30.5868C13.9237 31.1346 13.669 31.6789 13.4316 32.2305L15.0512 32.9113C15.2333 32.4834 15.4319 32.0628 15.6217 31.6384C15.7197 31.4276 15.8088 31.2125 15.9143 31.0054L16.2326 30.3847L14.6667 29.5881L15.0875 28.7686C15.2252 28.494 15.389 28.2338 15.5389 27.9657L17.0667 28.833C17.2957 28.4434 17.5098 28.0448 17.7512 27.6627L18.4834 26.5216L17.0203 25.5492C16.7172 26.0235 16.4094 26.4949 16.1113 26.9722L16.9252 27.4653C17.0681 27.2306 17.2202 27.0016 17.3674 26.7695" stroke="#FFF9E9" stroke-width="0.30375" stroke-miterlimit="10"/>
<path d="M19.3802 28.0513C19.2253 28.2993 19.0571 28.5393 18.9129 28.794L19.7281 29.2849C20.0046 28.8252 20.3049 28.3799 20.591 27.9261L19.1279 26.9537L18.3898 28.1039C18.1501 28.4911 17.932 28.8916 17.7017 29.2847L19.2312 30.149C18.9465 30.6186 18.7073 31.1129 18.4554 31.6001L16.8879 30.8067L16.5847 31.3978C16.4892 31.5974 16.4009 31.8005 16.3087 32.0018C16.1283 32.406 15.9386 32.8064 15.7656 33.214L17.3852 33.8948C17.5837 33.4329 17.7983 32.9779 18.003 32.5188L17.142 32.1134L16.8227 32.8187" stroke="#FFF9E9" stroke-width="0.30375" stroke-miterlimit="10"/>
<path d="M12.2075 39.1684L12.4183 38.2577L11.4951 38.0269C11.3611 38.6125 11.2195 39.1965 11.0938 39.7838L12.8156 40.1327C12.9114 39.6777 13.0226 39.2259 13.1254 38.7725C13.1797 38.5465 13.2261 38.3183 13.287 38.0939L13.478 37.423L11.7863 36.9494C11.955 36.3585 12.1144 35.7648 12.3229 35.1864L13.9911 35.7374C14.1385 35.3102 14.2762 34.8794 14.4318 34.4552L14.9299 33.194L13.3051 32.5262C13.1007 33.0509 12.8843 33.5713 12.6917 34.1002L13.5863 34.4246C13.6736 34.164 13.7842 33.9117 13.8822 33.6549" stroke="#FFF9E9" stroke-width="0.30375" stroke-miterlimit="10"/>
<path d="M16.1293 34.5193C16.0254 34.7926 15.9051 35.0599 15.8181 35.3394L16.7135 35.6611C16.7931 35.405 16.9025 35.1594 16.9982 34.9091L17.2937 34.1608L15.6688 33.493L15.1666 34.7641C15.0137 35.1932 14.8724 35.6263 14.7246 36.057L16.3938 36.6048C16.2048 37.1202 16.0724 37.6531 15.9183 38.1794L14.2256 37.7092L14.0438 38.3479L13.8927 38.9947C13.7949 39.4264 13.6886 39.8565 13.5977 40.2897L15.3195 40.6386C15.4248 40.1471 15.5447 39.6587 15.6557 39.1685L14.7319 38.9402L14.5575 39.6945" stroke="#FFF9E9" stroke-width="0.30375" stroke-miterlimit="10"/>
<path d="M11.279 46.8249L11.3029 45.8911L10.3524 45.8454L10.3066 47.6452L12.0633 47.6521C12.0905 46.7226 12.0915 45.7919 12.1828 44.8657L10.431 44.7328L10.5014 43.8145C10.528 43.5087 10.5752 43.2048 10.6112 42.8998L12.3551 43.1124C12.4161 42.6647 12.4608 42.2143 12.5354 41.7688L12.7743 40.4342L11.0498 40.0988C10.952 40.6533 10.8469 41.2069 10.7568 41.7626L11.6978 41.9047C11.7377 41.6328 11.792 41.3632 11.8386 41.0923" stroke="#FFF9E9" stroke-width="0.30375" stroke-miterlimit="10"/>
<path d="M14.1888 41.4981C14.1414 41.7867 14.076 42.0724 14.043 42.3632L14.9844 42.5027C15.0609 41.972 15.1695 41.4463 15.2592 40.9176L13.5347 40.5822L13.2937 41.9274C13.2228 42.3774 13.1751 42.8308 13.1143 43.2821L14.8586 43.4913C14.8283 43.7639 14.7791 44.0344 14.7635 44.3086L14.7013 45.1296L12.9493 45.0004C12.8614 45.8822 12.8666 46.7692 12.8379 47.6543L14.5948 47.6612L14.6331 46.1518L13.6823 46.1086L13.6629 46.883" stroke="#FFF9E9" stroke-width="0.30375" stroke-miterlimit="10"/>
<path d="M11.8386 54.5162C11.7879 54.2088 11.7195 53.9043 11.6838 53.5946L10.7424 53.7342C10.8283 54.3285 10.9478 54.9178 11.0498 55.5097L12.7743 55.1744L12.5285 53.801C12.4562 53.3417 12.407 52.879 12.3452 52.4181L10.6009 52.6273C10.5667 52.3221 10.5138 52.0188 10.4952 51.7122L10.4247 50.7939L12.1767 50.6647C12.0876 49.7644 12.0921 48.8596 12.0633 47.9562L10.3066 47.9631L10.3494 49.6506L11.2999 49.6074L11.2788 48.7835" stroke="#FFF9E9" stroke-width="0.30375" stroke-miterlimit="10"/>
<path d="M13.6631 48.7237L13.6849 49.6016L14.6355 49.5558L14.5948 47.9457L12.8379 47.9526C12.865 48.8634 12.8654 49.7755 12.9551 50.6831L14.707 50.5503L14.7691 51.3712C14.7924 51.6446 14.836 51.9157 14.8682 52.1881L13.1242 52.4007C13.1842 52.8393 13.2275 53.2806 13.3006 53.7172L13.5347 55.0247L15.2592 54.6894C15.1729 54.1941 15.0779 53.7002 14.9969 53.204L14.0559 53.3462C14.0934 53.6015 14.145 53.8545 14.1886 54.1088" stroke="#FFF9E9" stroke-width="0.30375" stroke-miterlimit="10"/>
<path d="M13.8974 61.9522C13.7866 61.661 13.6597 61.3759 13.5663 61.0784L12.6709 61.4002C12.7614 61.6869 12.8819 61.9625 12.9894 62.243L13.3205 63.0809L14.9453 62.4131L14.4328 61.1155C14.2767 60.6777 14.1321 60.2354 13.9814 59.7956L12.3122 60.3431C12.1028 59.765 11.9512 59.1688 11.7794 58.579L13.4721 58.1087L13.2867 57.4567L13.1323 56.7965C13.0323 56.3557 12.9242 55.9167 12.8312 55.4744L11.1094 55.8233C11.2266 56.3741 11.3599 56.9215 11.4852 57.4705L12.409 57.2422L12.2229 56.4387" stroke="#FFF9E9" stroke-width="0.30375" stroke-miterlimit="10"/>
<path d="M14.5573 55.914L14.7549 56.7689L15.6781 56.5381C15.5599 56.015 15.4323 55.494 15.3195 54.9699L13.5977 55.3188C13.6916 55.7645 13.8008 56.207 13.9014 56.6511C13.9547 56.8726 13.9998 57.096 14.0596 57.3157L14.2467 57.9728L15.9384 57.4991C16.0892 58.0264 16.2293 58.557 16.4173 59.0726L14.7491 59.6236C14.8937 60.0419 15.0283 60.4641 15.1806 60.8797L15.6686 62.1151L17.2935 61.4473C17.1122 60.9785 16.9174 60.5146 16.7455 60.0421L15.8509 60.3665C15.9325 60.6114 16.0372 60.8479 16.1289 61.0889" stroke="#FFF9E9" stroke-width="0.30375" stroke-miterlimit="10"/>
<path d="M17.3672 68.8371C17.2022 68.5731 17.024 68.3171 16.8701 68.0462L16.0548 68.537C16.3642 69.0514 16.6986 69.5505 17.0201 70.0576L18.4832 69.0852L17.7299 67.9111C17.4853 67.5158 17.2623 67.1074 17.0274 66.706L15.4979 67.5703C15.1812 67.0438 14.9109 66.4918 14.6294 65.9458L16.1968 65.1524L15.8876 64.5492C15.79 64.3455 15.6998 64.1381 15.6055 63.9328C15.4212 63.5201 15.2278 63.1114 15.0512 62.6955L13.4316 63.3763C13.6534 63.8937 13.8925 64.4038 14.1232 64.9175L14.9842 64.5121L14.644 63.761" stroke="#FFF9E9" stroke-width="0.30375" stroke-miterlimit="10"/>
<path d="M16.8229 62.789L17.1847 63.5884L18.0446 63.1806C17.8261 62.6908 17.5976 62.2054 17.3852 61.7129L15.7656 62.3937C15.944 62.8129 16.1388 63.2248 16.3245 63.6407C16.4205 63.8472 16.5076 64.058 16.6111 64.2609L16.9229 64.8691L18.4888 64.0724L18.8641 64.8049C18.9862 65.0507 19.1342 65.2824 19.2679 65.5219L17.7402 66.3892C17.9646 66.7707 18.1742 67.1616 18.4107 67.5358L19.1281 68.6538L20.5912 67.6814L19.7784 66.4099L18.9645 66.903C19.0988 67.1233 19.2421 67.3381 19.3805 67.5562" stroke="#FFF9E9" stroke-width="0.30375" stroke-miterlimit="10"/>
<path d="M22.1226 74.9134L21.4791 74.2362L20.7746 74.8759L22.0161 76.18L23.2633 74.9427L22.3006 73.9333C22.1372 73.7678 21.9841 73.5929 21.8332 73.4159L21.3764 72.8888L20.0437 74.0335C19.8447 73.7998 19.6375 73.573 19.4458 73.3335L18.8761 72.6099L20.2592 71.5268C19.6849 70.8279 19.1837 70.0742 18.6546 69.3418L17.1992 70.3257L18.1777 71.7017L18.9431 71.1364L18.465 70.4649" stroke="#FFF9E9" stroke-width="0.30375" stroke-miterlimit="10"/>
<path d="M20.4113 69.0852L20.92 69.8007L21.6838 69.2333L20.7503 67.9215L19.2949 68.9054C19.8271 69.645 20.336 70.4019 20.9147 71.1066L22.2958 70.0206L22.8042 70.6682L23.3425 71.2913L22.0123 72.4389L22.4472 72.9408L22.6649 73.1917L22.8942 73.4321L23.8109 74.3936L25.0581 73.1563L24.0162 72.0636L23.3135 72.7051L23.8483 73.2657" stroke="#FFF9E9" stroke-width="0.30375" stroke-miterlimit="10"/>
<path d="M27.9458 79.9562L27.1848 79.4143L26.6174 80.1782L28.0849 81.222L29.0689 79.7667C28.3138 79.224 27.5416 78.7042 26.8224 78.1137L25.7364 79.4947L25.0128 78.9251L24.3152 78.3241L25.4626 76.9938L24.9502 76.55L24.6943 76.3278L24.4489 76.0939L23.4677 75.1584L22.2305 76.4054L23.4524 77.5704L24.0939 76.8677L23.4971 76.2991" stroke="#FFF9E9" stroke-width="0.30375" stroke-miterlimit="10"/>
<path d="M25.1455 74.5664L25.7814 75.1716L26.421 74.4671L25.2549 73.3566L24.0176 74.6036L25.0068 75.5469C25.1688 75.7073 25.3403 75.8571 25.5139 76.0049L26.0304 76.4525L27.1752 75.1198C27.3841 75.2976 27.5862 75.4839 27.8007 75.6552L28.4483 76.1639L27.3651 77.547C28.0498 78.1099 28.7885 78.6004 29.5059 79.1194L30.4899 77.664L29.2601 76.7888L28.6947 77.5543L29.3259 78.0032" stroke="#FFF9E9" stroke-width="0.30375" stroke-miterlimit="10"/>
<path d="M34.6659 83.7701L33.8146 83.3845L33.4067 84.2443C33.9547 84.4904 34.4988 84.7451 35.0504 84.9825L35.7312 83.3629C35.3033 83.1808 34.8828 82.982 34.4583 82.7924C34.2475 82.6944 34.0325 82.6053 33.8253 82.4998L33.2046 82.1815L32.408 83.7472L31.5885 83.3264C31.3139 83.1887 31.0537 83.0249 30.7856 82.875L31.6529 81.3472C31.2633 81.1181 30.8648 80.9041 30.4826 80.6627L29.3415 79.9305L28.3691 81.3935C28.8434 81.6967 29.3148 82.0045 29.7921 82.3026L30.2852 81.4887C30.0505 81.3458 29.8215 81.1937 29.5894 81.0465" stroke="#FFF9E9" stroke-width="0.30375" stroke-miterlimit="10"/>
<path d="M30.8593 79.0283C31.1073 79.1832 31.3473 79.3515 31.602 79.4957L32.0929 78.6804C31.6332 78.404 31.1879 78.1037 30.7341 77.8176L29.7617 79.2806L30.9119 80.0187C31.2991 80.2585 31.6996 80.4766 32.0927 80.7068L32.957 79.1774C33.4266 79.4621 33.9209 79.7012 34.4081 79.9531L33.6147 81.5207L34.2056 81.8238C34.4052 81.9194 34.6084 82.0077 34.8096 82.0998C35.214 82.2803 35.6144 82.47 36.0218 82.6431L36.7026 81.0235C36.2407 80.8251 35.7857 80.6104 35.3266 80.4057L34.9212 81.2667L35.6265 81.5861" stroke="#FFF9E9" stroke-width="0.30375" stroke-miterlimit="10"/>
<path d="M41.9858 86.1972L41.0751 85.9864L40.8443 86.9096C41.4299 87.0436 42.0139 87.1854 42.6011 87.311L42.9501 85.5891C42.495 85.4933 42.0433 85.3821 41.5899 85.2793C41.3639 85.225 41.1357 85.1786 40.9113 85.1177L40.2404 84.9267L39.7668 86.6184C39.1759 86.4497 38.5821 86.2904 38.0038 86.0818L38.555 84.4136C38.1277 84.2662 37.697 84.1285 37.2728 83.9729L36.0116 83.4748L35.3438 85.0996C35.8684 85.304 36.3889 85.5204 36.9178 85.713L37.2422 84.8184C36.9816 84.7311 36.7293 84.6205 36.4725 84.5225" stroke="#FFF9E9" stroke-width="0.30375" stroke-miterlimit="10"/>
<path d="M37.3271 82.2925C37.6004 82.3964 37.8677 82.5167 38.1472 82.6037L38.4689 81.7083C38.2126 81.6287 37.9672 81.5193 37.7169 81.4236L36.9686 81.1281L36.3008 82.753L37.5719 83.2552C38.001 83.4081 38.4341 83.5494 38.8648 83.6972L39.4126 82.028C39.928 82.217 40.4609 82.3494 40.9872 82.5035L40.517 84.1962L41.1557 84.378L41.8025 84.5291C42.2342 84.6269 42.6643 84.7332 43.0975 84.8241L43.4464 83.1023C42.9549 82.997 42.4665 82.8771 41.9763 82.7661L41.748 83.6899L42.5023 83.8643" stroke="#FFF9E9" stroke-width="0.30375" stroke-miterlimit="10"/>
<path d="M49.6323 87.1392L48.6986 87.1153L48.6528 88.0658L50.4526 88.1116L50.4595 86.3549C49.53 86.3278 48.5993 86.3266 47.6731 86.2354L47.5403 87.9873L46.6219 87.9166C46.3161 87.8901 46.0122 87.8429 45.7072 87.8068L45.9199 86.0629C45.4721 86.002 45.0218 85.9572 44.5763 85.8827L43.2416 85.6437L42.9062 87.3682C43.4607 87.466 44.0143 87.5711 44.57 87.6612L44.7121 86.7202C44.4402 86.6803 44.1707 86.6261 43.8997 86.5795" stroke="#FFF9E9" stroke-width="0.30375" stroke-miterlimit="10"/>
<path d="M44.3009 84.2214C44.5894 84.2688 44.8752 84.3342 45.166 84.3672L45.3053 83.426C44.7745 83.3494 44.2488 83.2409 43.7201 83.1512L43.3848 84.8757L44.73 85.1166C45.1799 85.1875 45.6333 85.2353 46.0847 85.2961L46.2939 83.5517C46.5664 83.5821 46.837 83.6313 47.1112 83.6469L47.9321 83.7091L47.8029 85.4611C48.6848 85.5488 49.5717 85.5437 50.4569 85.5725L50.4638 83.8158L48.9543 83.7773L48.9112 84.728L49.6856 84.7475" stroke="#FFF9E9" stroke-width="0.30375" stroke-miterlimit="10"/>
<path d="M57.3295 86.5797C57.0221 86.6303 56.7176 86.6988 56.4079 86.7344L56.5475 87.6756C57.1418 87.5898 57.7311 87.4703 58.323 87.3682L57.9876 85.6437L56.6143 85.8896C56.155 85.9619 55.6923 86.0111 55.2314 86.0728L55.4404 87.8172C55.1352 87.8514 54.8321 87.9042 54.5255 87.9229L53.6072 87.9933L53.478 86.2413C52.5777 86.3304 51.6729 86.326 50.7695 86.3547L50.7764 88.1114L52.4636 88.0687L52.4205 87.1181L51.5965 87.1392" stroke="#FFF9E9" stroke-width="0.30375" stroke-miterlimit="10"/>
<path d="M51.5339 84.7471L52.4117 84.7252L52.3659 83.7747L50.7559 83.8154L50.7627 85.5721C51.6736 85.5449 52.5856 85.5447 53.4933 85.455L53.3604 83.7032L54.1813 83.641C54.4547 83.6177 54.7259 83.5742 54.9982 83.5422L55.2109 85.2861C55.6495 85.2262 56.0907 85.1829 56.5273 85.1098L57.8349 84.8757L57.4995 83.1512C57.0042 83.2374 56.5103 83.3324 56.0142 83.4134L56.1563 84.3544C56.4117 84.317 56.6646 84.2653 56.9189 84.2218" stroke="#FFF9E9" stroke-width="0.30375" stroke-miterlimit="10"/>
<path d="M64.7647 84.5227C64.4735 84.6335 64.1884 84.7605 63.8909 84.8538L64.2127 85.7493C64.4994 85.6588 64.775 85.5383 65.0555 85.4307L65.8934 85.0996L65.2256 83.4748L63.928 83.9873C63.4899 84.1434 63.0479 84.288 62.6081 84.4387L63.1558 86.1079C62.5777 86.3173 61.9815 86.469 61.3916 86.6407L60.9214 84.948L60.2694 85.1335L59.6092 85.2878C59.1684 85.3876 58.7294 85.4959 58.2871 85.5889L58.636 87.3107C59.1866 87.1935 59.7342 87.0603 60.2832 86.9349L60.0549 86.0111L59.2514 86.1972" stroke="#FFF9E9" stroke-width="0.30375" stroke-miterlimit="10"/>
<path d="M58.7253 83.8643L59.5803 83.6667L59.3494 82.7435C58.8264 82.8617 58.3053 82.9893 57.7812 83.1021L58.1302 84.8239C58.5759 84.73 59.0183 84.6208 59.4624 84.5202C59.6839 84.4669 59.9073 84.4218 60.127 84.362L60.7841 84.1749L60.3105 82.4832C60.8378 82.3324 61.3683 82.1922 61.8839 82.0043L62.4351 83.6725C62.8535 83.5279 63.2757 83.3933 63.6912 83.241L64.9267 82.753L64.2588 81.1281C63.79 81.3094 63.3259 81.5042 62.8537 81.6761L63.1781 82.5707C63.4229 82.4891 63.6594 82.3844 63.9004 82.2927" stroke="#FFF9E9" stroke-width="0.30375" stroke-miterlimit="10"/>
<path d="M71.6475 81.0465C71.3834 81.2115 71.1275 81.3897 70.8565 81.5436L71.3474 82.3589C71.8617 82.0494 72.3609 81.7151 72.868 81.3935L71.8955 79.9305L70.7215 80.6838C70.3262 80.9284 69.9177 81.1514 69.5164 81.3863L70.3806 82.9157C69.8541 83.2324 69.3021 83.5028 68.7562 83.7843L67.9628 82.2167L67.3595 82.5259C67.1558 82.6235 66.9485 82.7136 66.7431 82.8078C66.3304 82.9921 65.9218 83.1855 65.5059 83.362L66.1867 84.9816C66.7041 84.7599 67.2142 84.5207 67.7279 84.2901L67.3225 83.4291L66.5712 83.7693" stroke="#FFF9E9" stroke-width="0.30375" stroke-miterlimit="10"/>
<path d="M65.5976 81.5861L66.397 81.2242L65.9892 80.3644C65.4994 80.5829 65.014 80.8113 64.5215 81.0238L65.2023 82.6433C65.6213 82.4649 66.0333 82.2699 66.4493 82.0842C66.6558 81.9883 66.8666 81.9012 67.0695 81.7977L67.6776 81.4859L66.881 79.9199L67.6135 79.5447C67.8593 79.4226 68.091 79.2746 68.3305 79.1409L69.1978 80.6686C69.5793 80.4442 69.9701 80.2346 70.3444 79.9981L71.4624 79.2806L70.49 77.8176L69.2185 78.6304L69.7116 79.4442C69.9319 79.31 70.1467 79.1666 70.3648 79.0283" stroke="#FFF9E9" stroke-width="0.30375" stroke-miterlimit="10"/>
<path d="M77.7243 76.2989L77.0472 76.9424L77.6869 77.6469L78.991 76.4054L77.7535 75.1584L76.744 76.1211C76.5786 76.2845 76.4036 76.4376 76.2266 76.5884L75.6995 77.0453L76.8443 78.3779C76.6106 78.577 76.3838 78.7841 76.1442 78.9759L75.4205 79.5456L74.3373 78.1625C73.6385 78.7368 72.8848 79.238 72.1523 79.7671L73.1363 81.2225L74.5123 80.244L73.9469 79.4785L73.2754 79.9566" stroke="#FFF9E9" stroke-width="0.30375" stroke-miterlimit="10"/>
<path d="M71.8825 78.003L72.5979 77.4941L72.0305 76.7303L70.7188 77.6638L71.7027 79.1192C72.4422 78.587 73.1992 78.0781 73.9039 77.4994L72.8179 76.1185L73.4655 75.6101L74.0886 75.0718L75.2359 76.402L75.7379 75.9671L75.9888 75.7496L76.2292 75.5203L77.1906 74.6036L75.9534 73.3566L74.8607 74.3985L75.5024 75.1012L76.0627 74.5664" stroke="#FFF9E9" stroke-width="0.30375" stroke-miterlimit="10"/>
<path d="M82.7629 70.4645L82.221 71.2257L82.9848 71.7931L84.0287 70.3256L82.5733 69.3416C82.0306 70.0967 81.5108 70.8689 80.9203 71.5881L82.3012 72.6742L81.7315 73.3977L81.1305 74.0953L79.8003 72.9477L79.3564 73.4601L79.1343 73.716L78.9004 73.9614L77.9648 74.9426L79.2118 76.1798L80.3768 74.9582L79.6741 74.3166L79.1055 74.9134" stroke="#FFF9E9" stroke-width="0.30375" stroke-miterlimit="10"/>
<path d="M77.3758 73.2639L77.981 72.6281L77.2765 71.9884L76.166 73.1546L77.413 74.3918L78.3563 73.4026C78.5166 73.2406 78.6665 73.0691 78.8143 72.8956L79.2618 72.379L77.9292 71.2342C78.107 71.0253 78.2933 70.8232 78.4646 70.6087L78.9733 69.9611L80.3564 71.0443C80.9193 70.3599 81.4098 69.6209 81.9288 68.9035L80.4734 67.9195L79.5982 69.1493L80.3636 69.7147L80.8126 69.0835" stroke="#FFF9E9" stroke-width="0.30375" stroke-miterlimit="10"/>
<path d="M86.5816 63.7609L86.1958 64.6122L87.0556 65.02C87.3017 64.472 87.5564 63.9279 87.7937 63.3763L86.1742 62.6955C85.9921 63.1234 85.7935 63.544 85.6037 63.9684C85.5057 64.1792 85.4166 64.3943 85.3111 64.6014L84.9928 65.2221L86.5587 66.0187L86.1379 66.8382C86.0002 67.1128 85.8364 67.3732 85.6867 67.6412L84.1589 66.7738C83.9299 67.1635 83.7158 67.562 83.4744 67.9441L82.7422 69.0852L84.2053 70.0576C84.5084 69.5833 84.8162 69.1119 85.1143 68.6346L84.3004 68.1415C84.1575 68.3762 84.0054 68.6053 83.8582 68.8373" stroke="#FFF9E9" stroke-width="0.30375" stroke-miterlimit="10"/>
<path d="M81.8299 67.5562C81.9848 67.3082 82.1531 67.0682 82.2973 66.8135L81.482 66.3226C81.2056 66.7823 80.9053 67.2276 80.6191 67.6814L82.0822 68.6538L82.8203 67.5036C83.0601 67.1164 83.2782 66.7159 83.5084 66.3228L81.9789 65.4585C82.2636 64.9889 82.5028 64.4946 82.7547 64.0074L84.3223 64.8008L84.6254 64.2099C84.721 64.0103 84.8093 63.8071 84.9014 63.6059C85.0818 63.2017 85.2716 62.8011 85.4445 62.3937L83.8249 61.7129C83.6265 62.1748 83.4118 62.6298 83.2071 63.0889L84.0681 63.4943L84.3875 62.789" stroke="#FFF9E9" stroke-width="0.30375" stroke-miterlimit="10"/>
<path d="M89.0156 56.4387L88.8048 57.3494L89.728 57.5802C89.862 56.9946 90.0036 56.4106 90.1293 55.8233L88.4075 55.4744C88.3117 55.9294 88.2005 56.3812 88.0974 56.8346C88.0432 57.0606 87.9968 57.2888 87.9359 57.5132L87.7449 58.1841L89.4366 58.6577C89.2679 59.2486 89.1085 59.8424 88.9 60.4207L87.2318 59.8697C87.0843 60.297 86.9466 60.7277 86.7911 61.1519L86.293 62.4131L87.9178 63.0809C88.1221 62.5563 88.3386 62.0358 88.5312 61.5069L87.6366 61.1825C87.5493 61.4431 87.4387 61.6954 87.3407 61.9522" stroke="#FFF9E9" stroke-width="0.30375" stroke-miterlimit="10"/>
<path d="M85.1077 61.0893C85.2116 60.8159 85.3319 60.5486 85.419 60.2691L84.5235 59.9474C84.4439 60.2037 84.3346 60.4492 84.2388 60.6994L83.9434 61.4477L85.5682 62.1155L86.0704 60.8444C86.2233 60.4153 86.3647 59.9822 86.5125 59.5515L84.8433 59.0037C85.0322 58.4884 85.1646 57.9554 85.3187 57.4291L87.0114 57.8993L87.1933 57.2606L87.3443 56.6138C87.4422 56.1821 87.5485 55.752 87.6394 55.3188L85.9175 54.9699C85.8122 55.4614 85.6924 55.9498 85.5814 56.4401L86.5052 56.6683L86.6795 55.914" stroke="#FFF9E9" stroke-width="0.30375" stroke-miterlimit="10"/>
<path d="M89.9525 48.7835L89.9286 49.7172L90.8791 49.7629L90.9249 47.9631L89.1682 47.9562C89.1411 48.8857 89.1401 49.8164 89.0487 50.7426L90.8006 50.8755L90.7299 51.7938C90.7034 52.0996 90.6562 52.4035 90.6201 52.7085L88.8762 52.4959C88.8153 52.9436 88.7705 53.394 88.696 53.8397L88.457 55.1744L90.1815 55.5097C90.2793 54.9552 90.3844 54.4016 90.4745 53.846L89.5335 53.7038C89.4936 53.9758 89.4394 54.2453 89.3928 54.5162" stroke="#FFF9E9" stroke-width="0.30375" stroke-miterlimit="10"/>
<path d="M87.0392 54.1088C87.0866 53.8202 87.152 53.5345 87.185 53.2437L86.2435 53.1042C86.167 53.6349 86.0585 54.1606 85.9688 54.6894L87.6932 55.0247L87.9342 53.6795C88.0051 53.2295 88.0529 52.7761 88.1136 52.3248L86.3693 52.1156C86.3997 51.843 86.4489 51.5725 86.4645 51.2983L86.5266 50.4774L88.2787 50.6066C88.3664 49.7247 88.3613 48.8377 88.39 47.9526L86.6334 47.9457L86.5951 49.4551L87.5456 49.4983L87.5651 48.7239" stroke="#FFF9E9" stroke-width="0.30375" stroke-miterlimit="10"/>
<path d="M89.393 41.0921C89.4436 41.3995 89.5121 41.704 89.5477 42.0137L90.4889 41.8743C90.4031 41.28 90.2836 40.6907 90.1815 40.0988L88.457 40.4342L88.7029 41.8075C88.7752 42.2668 88.8244 42.7295 88.8861 43.1904L90.6305 42.9812C90.6647 43.2864 90.7175 43.5897 90.7362 43.8961L90.8066 44.8144L89.0546 44.9436C89.1437 45.8439 89.1393 46.7487 89.168 47.6521L90.9247 47.6452L90.882 45.9577L89.9314 46.0009L89.9525 46.8249" stroke="#FFF9E9" stroke-width="0.30375" stroke-miterlimit="10"/>
<path d="M87.5649 46.8832L87.5428 46.0054L86.5922 46.0511L86.6329 47.6612L88.3896 47.6543C88.3625 46.7435 88.3623 45.8314 88.2726 44.9238L86.5208 45.0567L86.4586 44.2357C86.4353 43.9623 86.3918 43.6912 86.3598 43.4188L88.1037 43.2062C88.0438 42.7676 88.0004 42.3263 87.9273 41.8898L87.6932 40.5822L85.9688 40.9176C86.055 41.4129 86.15 41.9068 86.231 42.4029L87.172 42.2607C87.1345 42.0054 87.0829 41.7523 87.0394 41.4981" stroke="#FFF9E9" stroke-width="0.30375" stroke-miterlimit="10"/>
<path d="M87.3409 33.6549C87.4517 33.9461 87.5786 34.2312 87.672 34.5287L88.5674 34.2069C88.4769 33.9202 88.3564 33.6446 88.2489 33.3641L87.9178 32.5262L86.293 33.194L86.8055 34.4917C86.9616 34.9297 87.1062 35.3717 87.2569 35.8115L88.9261 35.264C89.1355 35.8421 89.2871 36.4383 89.4589 37.0282L87.7662 37.4984L87.9516 38.1504L88.106 38.8106C88.2058 39.2514 88.3141 39.6904 88.4071 40.1327L90.1289 39.7838C90.0117 39.2332 89.8784 38.6856 89.7531 38.1367L88.8293 38.3649L89.0154 39.1684" stroke="#FFF9E9" stroke-width="0.30375" stroke-miterlimit="10"/>
<path d="M86.6795 39.6941L86.4819 38.8392L85.5587 39.07C85.677 39.5931 85.8045 40.1141 85.9173 40.6382L87.6392 40.2893C87.5452 39.8436 87.4361 39.4011 87.3354 38.957C87.2822 38.7357 87.237 38.5121 87.1773 38.2924L86.9902 37.6353L85.2985 38.109C85.1476 37.5817 85.0075 37.0511 84.8196 36.5355L86.4878 35.9845C86.3432 35.5662 86.2085 35.144 86.0562 34.7284L85.5682 33.493L83.9434 34.1608C84.1246 34.6296 84.3194 35.0937 84.4913 35.566L85.386 35.2416C85.3044 34.9967 85.1997 34.7602 85.1079 34.5193" stroke="#FFF9E9" stroke-width="0.30375" stroke-miterlimit="10"/>
<path d="M83.8582 26.7697C84.0232 27.0338 84.2014 27.2897 84.3553 27.5607L85.1706 27.0698C84.8611 26.5554 84.5268 26.0563 84.2053 25.5492L82.7422 26.5216L83.4955 27.6957C83.7401 28.091 83.9631 28.4994 84.198 28.9008L85.7274 28.0365C86.0444 28.563 86.3145 29.115 86.596 29.661L85.0286 30.4544L85.3378 31.0576C85.4354 31.2613 85.5255 31.4687 85.6197 31.674C85.804 32.0867 85.9974 32.4954 86.174 32.9113L87.7936 32.2305C87.5718 31.7131 87.3327 31.203 87.102 30.6893L86.241 31.0947L86.5812 31.846" stroke="#FFF9E9" stroke-width="0.30375" stroke-miterlimit="10"/>
<path d="M84.3877 32.8185L84.0258 32.019L83.166 32.4269C83.3845 32.9167 83.6129 33.4021 83.8253 33.8946L85.4449 33.2138C85.2665 32.7946 85.0715 32.3827 84.8858 31.9668C84.7898 31.7602 84.7028 31.5494 84.5993 31.3465L84.2874 30.7384L82.7215 31.5351L82.3463 30.8026C82.2242 30.5568 82.0761 30.3251 81.9425 30.0856L83.4701 29.2183C83.2458 28.8368 83.0362 28.4459 82.7997 28.0717L82.0822 26.9537L80.6191 27.9261L81.432 29.1976L82.2458 28.7045C82.1116 28.4842 81.9682 28.2693 81.8299 28.0513" stroke="#FFF9E9" stroke-width="0.30375" stroke-miterlimit="10"/>
<path d="M79.1053 20.6936L79.7489 21.3707L80.4534 20.731L79.2118 19.4269L77.9648 20.6642L78.9275 21.6737C79.0909 21.8391 79.244 22.0141 79.3949 22.1911L79.8517 22.7182L81.1844 21.5734C81.3834 21.8071 81.5906 22.0339 81.7824 22.2735L82.352 22.997L80.9689 24.0802C81.5432 24.779 82.0444 25.5327 82.5735 26.2654L84.0289 25.2814L83.0502 23.9054L82.2848 24.4708L82.7629 25.1423" stroke="#FFF9E9" stroke-width="0.30375" stroke-miterlimit="10"/>
<path d="M80.8122 26.523L80.3035 25.8076L79.5397 26.375L80.4732 27.6868L81.9286 26.7028C81.3964 25.9633 80.8875 25.2063 80.3088 24.5016L78.9279 25.5877L78.4194 24.9401L77.8812 24.317L79.2114 23.1694L78.7764 22.6674L78.559 22.4165L78.3297 22.1761L77.413 21.2147L76.166 22.4519L77.2079 23.5446L77.9106 22.9031L77.3758 22.3426" stroke="#FFF9E9" stroke-width="0.30375" stroke-miterlimit="10"/>
<path d="M73.2754 15.6514L74.0364 16.1933L74.6038 15.4294L73.1363 14.3856L72.1523 15.8409C72.9075 16.3834 73.6796 16.9034 74.3989 17.4939L75.4849 16.1131L76.2084 16.6827L76.906 17.2837L75.7585 18.614L76.2708 19.0578L76.5268 19.28L76.772 19.5139L77.7531 20.4494L78.9906 19.2024L77.7687 18.0374L77.1272 18.7401L77.7239 19.3087" stroke="#FFF9E9" stroke-width="0.30375" stroke-miterlimit="10"/>
<path d="M76.0631 21.0407L75.4273 20.4354L74.7876 21.1399L75.9538 22.2506L77.1911 21.0034L76.2018 20.0602C76.0398 19.8998 75.8683 19.75 75.6948 19.6021L75.1782 19.1546L74.0335 20.4873C73.8245 20.3095 73.6224 20.1232 73.4079 19.9518L72.7604 19.4434L73.8435 18.0603C73.1589 17.4973 72.4202 17.0069 71.7027 16.4879L70.7188 17.9433L71.9485 18.8185L72.5139 18.053L71.8827 17.6041" stroke="#FFF9E9" stroke-width="0.30375" stroke-miterlimit="10"/>
<path d="M66.5712 11.836L67.4225 12.2218L67.8304 11.362C67.2824 11.1159 66.7383 10.8612 66.1867 10.6238L65.5059 12.2434C65.9337 12.4255 66.3543 12.6241 66.7788 12.8139C66.9896 12.9119 67.2046 13.001 67.4118 13.1065L68.0325 13.4248L68.8291 11.8591L69.6486 12.2797C69.9232 12.4174 70.1836 12.5812 70.4515 12.7311L69.5842 14.2589C69.9738 14.4879 70.3723 14.702 70.7545 14.9434L71.8955 15.6756L72.868 14.2125C72.3937 13.9094 71.9223 13.6016 71.445 13.3035L70.9519 14.1174C71.1866 14.2603 71.4156 14.4124 71.6477 14.5596" stroke="#FFF9E9" stroke-width="0.30375" stroke-miterlimit="10"/>
<path d="M70.365 16.5799C70.117 16.425 69.877 16.2567 69.6223 16.1125L69.1314 16.9278C69.5911 17.2042 70.0364 17.5045 70.4902 17.7906L71.4626 16.3275L70.3122 15.5894C69.925 15.3497 69.5244 15.1316 69.1314 14.9013L68.2671 16.4308C67.7975 16.1461 67.3032 15.907 66.816 15.655L67.6094 14.0877L67.0185 13.7844C66.8188 13.6888 66.6157 13.6005 66.4145 13.5083C66.0101 13.3279 65.6097 13.1382 65.2023 12.9652L64.5215 14.5848C64.9834 14.7833 65.4384 14.9979 65.8975 15.2027L66.3029 14.3416L65.5976 14.0223" stroke="#FFF9E9" stroke-width="0.30375" stroke-miterlimit="10"/>
<path d="M59.2514 9.41023L60.1621 9.62103L60.3929 8.69783C59.8073 8.56378 59.2233 8.42223 58.636 8.29648L58.2871 10.0183C58.7421 10.1141 59.1939 10.2253 59.6473 10.3282C59.8733 10.3824 60.1015 10.4288 60.3259 10.4898L60.9968 10.6807L61.4704 8.98903C62.0613 9.15771 62.655 9.31708 63.2334 9.52565L62.6822 11.1938C63.1094 11.3413 63.5402 11.479 63.9644 11.6345L65.2256 12.1326L65.8934 10.5078C65.3687 10.3035 64.8483 10.087 64.3194 9.89441L63.9952 10.7891C64.2558 10.8763 64.5081 10.9869 64.7649 11.0849" stroke="#FFF9E9" stroke-width="0.30375" stroke-miterlimit="10"/>
<path d="M63.9006 13.3154C63.6272 13.2116 63.3599 13.0913 63.0805 13.0042L62.7587 13.8997C63.0151 13.9792 63.2605 14.0886 63.5108 14.1844L64.259 14.4798L64.9269 12.855L63.6558 12.3528C63.2267 12.1999 62.7935 12.0585 62.3628 11.9107L61.8151 13.5799C61.2997 13.391 60.7667 13.2585 60.2404 13.1044L60.7106 11.4117L60.0719 11.2299L59.4251 11.0788C58.9934 10.981 58.5633 10.8747 58.1302 10.7838L57.7812 12.5056C58.2727 12.6109 58.7611 12.7308 59.2514 12.8418L59.4796 11.918L58.7253 11.7436" stroke="#FFF9E9" stroke-width="0.30375" stroke-miterlimit="10"/>
<path d="M51.5965 8.46929L52.5305 8.49319L52.5762 7.54265L50.7764 7.49689L50.7695 9.25357C51.699 9.28071 52.6297 9.28172 53.5559 9.37305L53.6888 7.62122L54.6071 7.69169C54.9129 7.71822 55.2168 7.7654 55.5218 7.80145L55.3092 9.54538C55.7569 9.60633 56.2073 9.65108 56.6528 9.7256L57.9874 9.96455L58.3228 8.24006C57.7683 8.14225 57.2147 8.03716 56.659 7.94704L56.5169 8.88806C56.7888 8.92795 57.0584 8.98222 57.3293 9.0288" stroke="#FFF9E9" stroke-width="0.30375" stroke-miterlimit="10"/>
<path d="M56.9189 11.3845C56.6304 11.3371 56.3447 11.2717 56.0539 11.2387L55.9143 12.1799C56.4451 12.2564 56.9708 12.365 57.4995 12.4547L57.8349 10.7302L56.4896 10.4892C56.0397 10.4183 55.5863 10.3705 55.1349 10.3098L54.9257 12.0541C54.6532 12.0238 54.3826 11.9746 54.1084 11.959L53.2875 11.8968L53.4167 10.1448C52.5348 10.0571 51.6479 10.0621 50.7627 10.0334L50.7559 11.7903L52.2653 11.8285L52.3084 10.878L51.5341 10.8586" stroke="#FFF9E9" stroke-width="0.30375" stroke-miterlimit="10"/>
<path d="M54.6707 21.2728C53.9636 22.8926 52.3654 23.9391 50.5994 23.9391C48.833 23.9391 47.2349 22.8926 46.528 21.2728L46.3945 21.3312C47.1247 23.004 48.7753 24.0847 50.5994 24.0847C52.4236 24.0847 54.0739 23.0038 54.8042 21.3312L54.6707 21.2728Z" fill="#FFF9E9"/>
<path d="M53.8585 20.8734C53.293 22.1688 52.015 23.0058 50.6025 23.0058C49.1899 23.0058 47.9117 22.1688 47.3463 20.8734L47.2129 20.9317C47.8016 22.2802 49.132 23.1516 50.6025 23.1516C52.0729 23.1516 53.4033 22.2802 53.992 20.9317L53.8585 20.8734Z" fill="#FFF9E9"/>
<path d="M48.1588 20.4722L48.0254 20.5306C48.4725 21.5546 49.483 22.2164 50.5998 22.2164C51.7166 22.2164 52.7268 21.5546 53.174 20.5306L53.0405 20.4722C52.6167 21.4432 51.6584 22.0708 50.5998 22.0708C49.5409 22.0708 48.5827 21.4432 48.1588 20.4722Z" fill="#FFF9E9"/>
<path d="M52.2285 20.073C51.9463 20.7198 51.3082 21.1376 50.6029 21.1376C49.8976 21.1376 49.2595 20.7198 48.9772 20.073L48.8438 20.1314C49.1491 20.8312 49.8396 21.2832 50.6029 21.2832C51.3659 21.2832 52.0564 20.831 52.3618 20.1314L52.2285 20.073Z" fill="#FFF9E9"/>
<path d="M51.4105 19.6717C51.2698 19.9941 50.9516 20.2024 50.6001 20.2024C50.2486 20.2024 49.9304 19.9941 49.7897 19.6717L49.6562 19.73C49.8201 20.1054 50.1906 20.348 50.6001 20.348C51.0096 20.348 51.3799 20.1054 51.5438 19.73L51.4105 19.6717Z" fill="#FFF9E9"/>
<path d="M54.6707 14.8414C53.9636 16.4612 52.3654 17.5077 50.5994 17.5077C48.833 17.5077 47.2349 16.4612 46.528 14.8414L46.3945 14.8997C47.1247 16.5725 48.7753 17.6533 50.5994 17.6533C52.4236 17.6533 54.0739 16.5723 54.8042 14.8997L54.6707 14.8414Z" fill="#FFF9E9"/>
<path d="M53.8585 14.442C53.293 15.7374 52.015 16.5743 50.6025 16.5743C49.1899 16.5743 47.9117 15.7374 47.3463 14.442L47.2129 14.5003C47.8016 15.8487 49.132 16.7201 50.6025 16.7201C52.0729 16.7201 53.4033 15.8487 53.992 14.5003L53.8585 14.442Z" fill="#FFF9E9"/>
<path d="M48.1588 14.0408L48.0254 14.0991C48.4725 15.1232 49.483 15.7849 50.5998 15.7849C51.7166 15.7849 52.7268 15.1232 53.174 14.0991L53.0405 14.0408C52.6167 15.0118 51.6584 15.6393 50.5998 15.6393C49.5409 15.6393 48.5827 15.012 48.1588 14.0408Z" fill="#FFF9E9"/>
<path d="M52.2285 13.6416C51.9463 14.2884 51.3082 14.7061 50.6029 14.7061C49.8976 14.7061 49.2595 14.2884 48.9772 13.6416L48.8438 13.6999C49.1491 14.3998 49.8396 14.8517 50.6029 14.8517C51.3659 14.8517 52.0564 14.3996 52.3618 13.6999L52.2285 13.6416Z" fill="#FFF9E9"/>
<path d="M51.4105 13.2402C51.2698 13.5626 50.9516 13.771 50.6001 13.771C50.2486 13.771 49.9304 13.5626 49.7897 13.2402L49.6562 13.2985C49.8201 13.674 50.1906 13.9166 50.6001 13.9166C51.0096 13.9166 51.3799 13.674 51.5438 13.2985L51.4105 13.2402Z" fill="#FFF9E9"/>
<path d="M50.5457 18.0216C49.8386 19.6414 48.2404 20.688 46.4744 20.688C44.7082 20.688 43.1099 19.6414 42.403 18.0216L42.2695 18.08C42.9997 19.7528 44.6503 20.8336 46.4744 20.8336C48.2984 20.8336 49.9489 19.7526 50.6792 18.08L50.5457 18.0216Z" fill="#FFF9E9"/>
<path d="M49.7355 17.6222C49.1701 18.9176 47.8919 19.7548 46.4795 19.7548C45.0669 19.7548 43.7887 18.9178 43.2233 17.6222L43.0898 17.6806C43.6785 19.029 45.0089 19.9004 46.4795 19.9004C47.9498 19.9004 49.2803 19.029 49.8689 17.6806L49.7355 17.6222Z" fill="#FFF9E9"/>
<path d="M48.9233 17.2211C48.4993 18.1921 47.5413 18.8196 46.4824 18.8196C45.4235 18.8196 44.4653 18.1921 44.0414 17.2211L43.9082 17.2794C44.3553 18.3036 45.3658 18.9652 46.4826 18.9652C47.5994 18.9652 48.6098 18.3034 49.0568 17.2794L48.9233 17.2211Z" fill="#FFF9E9"/>
<path d="M48.1055 16.8217C47.8232 17.4685 47.1851 17.8862 46.4798 17.8862C45.7745 17.8862 45.1364 17.4683 44.8541 16.8217L44.7207 16.88C45.0263 17.5798 45.7166 18.032 46.4798 18.032C47.2428 18.032 47.9334 17.5798 48.2387 16.88L48.1055 16.8217Z" fill="#FFF9E9"/>
<path d="M47.2875 16.4197C47.1467 16.7421 46.8286 16.9505 46.4771 16.9505C46.1255 16.9505 45.8074 16.7421 45.6667 16.4197L45.5332 16.478C45.697 16.8535 46.0676 17.0961 46.4771 17.0961C46.8865 17.0961 47.2569 16.8535 47.4209 16.478L47.2875 16.4197Z" fill="#FFF9E9"/>
<path d="M58.8504 18.0216C58.1433 19.6414 56.5451 20.688 54.7791 20.688C53.0129 20.688 51.4146 19.6414 50.7077 18.0216L50.5742 18.08C51.3044 19.7528 52.955 20.8336 54.7791 20.8336C56.6033 20.8336 58.2536 19.7526 58.9838 18.08L58.8504 18.0216Z" fill="#FFF9E9"/>
<path d="M58.0324 17.6222C57.4668 18.9176 56.1888 19.7548 54.7764 19.7548C53.3637 19.7548 52.0855 18.9178 51.5202 17.6222L51.3867 17.6806C51.9754 19.029 53.3058 19.9004 54.7764 19.9004C56.2467 19.9004 57.5771 19.029 58.1658 17.6806L58.0324 17.6222Z" fill="#FFF9E9"/>
<path d="M57.2204 17.2211C56.7964 18.1921 55.8383 18.8196 54.7797 18.8196C53.7208 18.8196 52.7626 18.1921 52.3387 17.2211L52.2051 17.2794C52.6522 18.3036 53.6627 18.9652 54.7795 18.9652C55.8963 18.9652 56.9065 18.3034 57.3536 17.2794L57.2204 17.2211Z" fill="#FFF9E9"/>
<path d="M56.408 16.8217C56.1257 17.4685 55.4877 17.8862 54.7826 17.8862C54.0772 17.8862 53.4392 17.4683 53.1569 16.8217L53.0234 16.88C53.329 17.5798 54.0193 18.032 54.7826 18.032C55.5456 18.032 56.2361 17.5798 56.5415 16.88L56.408 16.8217Z" fill="#FFF9E9"/>
<path d="M55.5902 16.4197C55.4495 16.7421 55.1313 16.9505 54.7798 16.9505C54.4283 16.9505 54.1101 16.7421 53.9694 16.4197L53.8359 16.478C53.9998 16.8535 54.3703 17.0961 54.7798 17.0961C55.1892 17.0961 55.5596 16.8535 55.7236 16.478L55.5902 16.4197Z" fill="#FFF9E9"/>
<path d="M54.6707 76.3982C53.9636 74.7785 52.3654 73.7319 50.5994 73.7319C48.833 73.7319 47.2349 74.7785 46.528 76.3982L46.3945 76.3399C47.1247 74.6671 48.7753 73.5863 50.5994 73.5863C52.4236 73.5863 54.0739 74.6673 54.8042 76.3399L54.6707 76.3982Z" fill="#FFF9E9"/>
<path d="M53.8585 76.8004C53.293 75.505 52.015 74.6681 50.6025 74.6681C49.1899 74.6681 47.9117 75.505 47.3463 76.8004L47.2129 76.7421C47.8016 75.3936 49.132 74.5223 50.6025 74.5223C52.0729 74.5223 53.4033 75.3936 53.992 76.7421L53.8585 76.8004Z" fill="#FFF9E9"/>
<path d="M48.1588 77.1996L48.0254 77.1413C48.4725 76.1172 49.483 75.4555 50.5998 75.4555C51.7166 75.4555 52.7268 76.1172 53.174 77.1413L53.0405 77.1996C52.6167 76.2286 51.6584 75.6011 50.5998 75.6011C49.5409 75.6011 48.5827 76.2286 48.1588 77.1996Z" fill="#FFF9E9"/>
<path d="M52.2285 77.6008C51.9463 76.954 51.3082 76.5362 50.6029 76.5362C49.8976 76.5362 49.2595 76.954 48.9772 77.6008L48.8438 77.5424C49.1491 76.8426 49.8396 76.3906 50.6029 76.3906C51.3659 76.3906 52.0564 76.8428 52.3618 77.5424L52.2285 77.6008Z" fill="#FFF9E9"/>
<path d="M51.4105 78.0002C51.2698 77.6778 50.9516 77.4694 50.6001 77.4694C50.2486 77.4694 49.9304 77.6778 49.7897 78.0002L49.6562 77.9419C49.8201 77.5664 50.1906 77.3238 50.6001 77.3238C51.0096 77.3238 51.3799 77.5664 51.5438 77.9419L51.4105 78.0002Z" fill="#FFF9E9"/>
<path d="M54.6707 82.8313C53.9636 81.2115 52.3654 80.1649 50.5994 80.1649C48.833 80.1649 47.2349 81.2115 46.528 82.8313L46.3945 82.7729C47.1247 81.1001 48.7753 80.0193 50.5994 80.0193C52.4236 80.0193 54.0739 81.1003 54.8042 82.7729L54.6707 82.8313Z" fill="#FFF9E9"/>
<path d="M53.8585 83.2307C53.293 81.9353 52.015 81.0983 50.6025 81.0983C49.1899 81.0983 47.9117 81.9353 47.3463 83.2307L47.2129 83.1723C47.8016 81.8239 49.132 80.9525 50.6025 80.9525C52.0729 80.9525 53.4033 81.8239 53.992 83.1723L53.8585 83.2307Z" fill="#FFF9E9"/>
<path d="M48.1588 83.6318L48.0254 83.5735C48.4725 82.5495 49.483 81.8877 50.5998 81.8877C51.7166 81.8877 52.7268 82.5495 53.174 83.5735L53.0405 83.6318C52.6167 82.6608 51.6584 82.0333 50.5998 82.0333C49.5409 82.0333 48.5827 82.6606 48.1588 83.6318Z" fill="#FFF9E9"/>
<path d="M52.2285 84.033C51.9463 83.3862 51.3082 82.9684 50.6029 82.9684C49.8976 82.9684 49.2595 83.3862 48.9772 84.033L48.8438 83.9747C49.1491 83.2748 49.8396 82.8228 50.6029 82.8228C51.3659 82.8228 52.0564 83.275 52.3618 83.9747L52.2285 84.033Z" fill="#FFF9E9"/>
<path d="M51.4105 84.4324C51.2698 84.11 50.9516 83.9016 50.6001 83.9016C50.2486 83.9016 49.9304 84.11 49.7897 84.4324L49.6562 84.3741C49.8201 83.9986 50.1906 83.756 50.6001 83.756C51.0096 83.756 51.3799 83.9986 51.5438 84.3741L51.4105 84.4324Z" fill="#FFF9E9"/>
<path d="M50.5457 79.651C49.8386 78.0312 48.2404 76.9846 46.4744 76.9846C44.7082 76.9846 43.1099 78.0312 42.403 79.651L42.2695 79.5926C42.9997 77.9198 44.6503 76.8391 46.4744 76.8391C48.2984 76.8391 49.9489 77.92 50.6792 79.5926L50.5457 79.651Z" fill="#FFF9E9"/>
<path d="M49.7355 80.0524C49.1701 78.757 47.8919 77.9198 46.4795 77.9198C45.0669 77.9198 43.7887 78.7568 43.2233 80.0524L43.0898 79.994C43.6785 78.6456 45.0089 77.7742 46.4795 77.7742C47.9498 77.7742 49.2803 78.6456 49.8689 79.994L49.7355 80.0524Z" fill="#FFF9E9"/>
<path d="M48.9233 80.4516C48.4993 79.4806 47.5413 78.853 46.4824 78.853C45.4235 78.853 44.4653 79.4806 44.0414 80.4516L43.9082 80.3932C44.3553 79.369 45.3658 78.7074 46.4826 78.7074C47.5994 78.7074 48.6098 79.3692 49.0568 80.3932L48.9233 80.4516Z" fill="#FFF9E9"/>
<path d="M48.1055 80.8529C47.8232 80.2061 47.1851 79.7884 46.4798 79.7884C45.7745 79.7884 45.1364 80.2063 44.8541 80.8529L44.7207 80.7946C45.0263 80.0948 45.7166 79.6426 46.4798 79.6426C47.2428 79.6426 47.9334 80.0948 48.2387 80.7946L48.1055 80.8529Z" fill="#FFF9E9"/>
<path d="M47.2875 81.2521C47.1467 80.9297 46.8286 80.7214 46.4771 80.7214C46.1255 80.7214 45.8074 80.9297 45.6667 81.2521L45.5332 81.1938C45.697 80.8184 46.0676 80.5758 46.4771 80.5758C46.8865 80.5758 47.2569 80.8184 47.4209 81.1938L47.2875 81.2521Z" fill="#FFF9E9"/>
<path d="M58.8504 79.651C58.1433 78.0312 56.5451 76.9846 54.7791 76.9846C53.0129 76.9846 51.4146 78.0312 50.7077 79.651L50.5742 79.5926C51.3044 77.9198 52.955 76.8391 54.7791 76.8391C56.6033 76.8391 58.2536 77.92 58.9838 79.5926L58.8504 79.651Z" fill="#FFF9E9"/>
<path d="M58.0324 80.0524C57.4668 78.757 56.1888 77.9198 54.7764 77.9198C53.3637 77.9198 52.0855 78.7568 51.5202 80.0524L51.3867 79.994C51.9754 78.6456 53.3058 77.7742 54.7764 77.7742C56.2467 77.7742 57.5771 78.6456 58.1658 79.994L58.0324 80.0524Z" fill="#FFF9E9"/>
<path d="M57.2204 80.4516C56.7964 79.4806 55.8383 78.853 54.7797 78.853C53.7208 78.853 52.7626 79.4806 52.3387 80.4516L52.2051 80.3932C52.6522 79.369 53.6627 78.7074 54.7795 78.7074C55.8963 78.7074 56.9065 79.3692 57.3536 80.3932L57.2204 80.4516Z" fill="#FFF9E9"/>
<path d="M56.408 80.8529C56.1257 80.2061 55.4877 79.7884 54.7826 79.7884C54.0772 79.7884 53.4392 80.2063 53.1569 80.8529L53.0234 80.7946C53.329 80.0948 54.0193 79.6426 54.7826 79.6426C55.5456 79.6426 56.2361 80.0948 56.5415 80.7946L56.408 80.8529Z" fill="#FFF9E9"/>
<path d="M55.5902 81.2521C55.4495 80.9297 55.1313 80.7214 54.7798 80.7214C54.4283 80.7214 54.1101 80.9297 53.9694 81.2521L53.8359 81.1938C53.9998 80.8184 54.3703 80.5758 54.7798 80.5758C55.1892 80.5758 55.5596 80.8184 55.7236 81.1938L55.5902 81.2521Z" fill="#FFF9E9"/>
<path d="M48.446 4.83031C49.5972 5.98152 51.4637 5.98152 52.6151 4.83031C53.7663 3.6791 53.7663 1.81266 52.6151 0.661444C51.4639 -0.489768 49.5972 -0.489768 48.446 0.661444C47.2948 1.81266 47.2948 3.6791 48.446 4.83031ZM50.5306 1.02615L52.2502 2.74578L50.5306 4.46541L48.8109 2.74578L50.5306 1.02615Z" fill="#FFF9E9"/>
<path d="M48.446 97.1703C49.5972 98.3215 51.4637 98.3215 52.6151 97.1703C53.7663 96.0191 53.7663 94.1527 52.6151 93.0014C51.4639 91.8502 49.5972 91.8502 48.446 93.0014C47.2948 94.1527 47.2948 96.0191 48.446 97.1703ZM50.5306 93.3661L52.2502 95.0858L50.5306 96.8054L48.8109 95.0858L50.5306 93.3661Z" fill="#FFF9E9"/>
<path d="M7.66118 45.8177C8.81239 46.9689 8.81239 48.8353 7.66118 49.9867C6.50997 51.138 4.64353 51.138 3.49232 49.9867C2.3411 48.8355 2.3411 46.9689 3.49232 45.8177C4.64353 44.6665 6.50997 44.6665 7.66118 45.8177ZM3.85702 47.9022L5.57665 49.6218L7.29628 47.9022L5.57665 46.1826L3.85702 47.9022Z" fill="#FFF9E9"/>
<path d="M98.7862 45.8177C99.9374 46.9689 99.9374 48.8353 98.7862 49.9867C97.635 51.138 95.7685 51.138 94.6173 49.9867C93.4661 48.8355 93.4661 46.9689 94.6173 45.8177C95.7685 44.6665 97.635 44.6665 98.7862 45.8177ZM94.982 47.9022L96.7016 49.6218L98.4213 47.9022L96.7016 46.1826L94.982 47.9022Z" fill="#FFF9E9"/>
</g>
<path d="M48.4394 62.0383C47.9518 62.5257 47.2906 62.7995 46.6012 62.7995C45.9117 62.7995 45.2505 62.5257 44.763 62.0383L33.063 50.3383C32.5756 49.8507 32.3017 49.1895 32.3017 48.5001C32.3017 47.8106 32.5756 47.1494 33.063 46.6619L44.763 34.9619C45.2533 34.4882 45.9101 34.2262 46.5918 34.2321C47.2735 34.238 47.9256 34.5115 48.4077 34.9935C48.8898 35.4756 49.1632 36.1277 49.1691 36.8094C49.175 37.4911 48.913 38.1479 48.4394 38.6383L41.4012 45.9001H66.1012C66.7907 45.9001 67.4521 46.174 67.9396 46.6616C68.4272 47.1492 68.7012 47.8105 68.7012 48.5001C68.7012 49.1896 68.4272 49.8509 67.9396 50.3385C67.4521 50.8261 66.7907 51.1001 66.1012 51.1001H41.4012L48.4394 58.3619C48.9268 58.8494 49.2006 59.5106 49.2006 60.2001C49.2006 60.8895 48.9268 61.5507 48.4394 62.0383Z" fill="#FFF9E9"/>
<defs>
<filter id="filter0_d_3105_1630" x="-0.343906" y="-2.16852" width="101.946" height="101.945" filterUnits="userSpaceOnUse" color-interpolation-filters="sRGB">
<feFlood flood-opacity="0" result="BackgroundImageFix"/>
<feColorMatrix in="SourceAlpha" type="matrix" values="0 0 0 0 0 0 0 0 0 0 0 0 0 0 0 0 0 0 127 0" result="hardAlpha"/>
<feOffset/>
<feGaussianBlur stdDeviation="3.92"/>
<feComposite in2="hardAlpha" operator="out"/>
<feColorMatrix type="matrix" values="0 0 0 0 0.898039 0 0 0 0 0.764706 0 0 0 0 0.517647 0 0 0 0.54 0"/>
<feBlend mode="normal" in2="BackgroundImageFix" result="effect1_dropShadow_3105_1630"/>
<feBlend mode="normal" in="SourceGraphic" in2="effect1_dropShadow_3105_1630" result="shape"/>
</filter>
<clipPath id="clip0_3105_1630">
<rect width="101.25" height="101.25" fill="white"/>
</clipPath>
</defs>
</svg>
